<?xml version="1.0" encoding="UTF-8"?>
<svg xmlns="http://www.w3.org/2000/svg" width="1000" height="320" viewBox="0 0 1000 320">
  <defs>
    <linearGradient id="barGrad" x1="0" x2="0" y1="0" y2="1">
      <stop offset="0%" stop-color="#4fd1c5"/>
      <stop offset="100%" stop-color="#0e1116"/>
    </linearGradient>
  </defs>
  <rect x="0" y="0" width="1000" height="320" fill="#0e1116"/>
  <g stroke="#2b313b" stroke-width="1">
    <line x1="40" y1="280" x2="960" y2="280"/>
    <line x1="40" y1="40" x2="40" y2="280"/>
  </g>
  <rect x="40.0" y="216.2" width="39.4" height="63.8" rx="2" fill="url(#barGrad)" /><rect x="105.7" y="161.3" width="39.4" height="118.7" rx="2" fill="url(#barGrad)" /><rect x="171.4" y="191.1" width="39.4" height="88.9" rx="2" fill="url(#barGrad)" /><rect x="237.1" y="182.4" width="39.4" height="97.6" rx="2" fill="url(#barGrad)" /><rect x="302.9" y="154.9" width="39.4" height="125.1" rx="2" fill="url(#barGrad)" /><rect x="368.6" y="114.3" width="39.4" height="165.7" rx="2" fill="url(#barGrad)" /><rect x="434.3" y="144.5" width="39.4" height="135.5" rx="2" fill="url(#barGrad)" /><rect x="500.0" y="171.3" width="39.4" height="108.7" rx="2" fill="url(#barGrad)" /><rect x="565.7" y="171.5" width="39.4" height="108.5" rx="2" fill="url(#barGrad)" /><rect x="631.4" y="157.5" width="39.4" height="122.5" rx="2" fill="url(#barGrad)" /><rect x="697.1" y="138.2" width="39.4" height="141.8" rx="2" fill="url(#barGrad)" /><rect x="762.9" y="159.9" width="39.4" height="120.1" rx="2" fill="url(#barGrad)" /><rect x="828.6" y="162.1" width="39.4" height="117.9" rx="2" fill="url(#barGrad)" /><rect x="894.3" y="146.7" width="39.4" height="133.3" rx="2" fill="url(#barGrad)" />
  <polyline fill="none" stroke="#63b3ed" stroke-width="2" points="59.7,129.4 125.4,40.0 191.1,68.7 256.9,79.1 322.6,89.6 388.3,67.1 454.0,93.0 519.7,77.7 585.4,77.5 651.1,123.0 716.9,110.7 782.6,75.0 848.3,111.4 914.0,79.7"/>
  <circle cx="59.7" cy="66.0" r="2.5" fill="#f6ad55" /><circle cx="125.4" cy="81.4" r="2.5" fill="#f6ad55" /><circle cx="191.1" cy="79.4" r="2.5" fill="#f6ad55" /><circle cx="256.9" cy="66.2" r="2.5" fill="#f6ad55" /><circle cx="322.6" cy="48.0" r="2.5" fill="#f6ad55" /><circle cx="388.3" cy="40.0" r="2.5" fill="#f6ad55" /><circle cx="454.0" cy="50.6" r="2.5" fill="#f6ad55" /><circle cx="519.7" cy="74.5" r="2.5" fill="#f6ad55" /><circle cx="585.4" cy="68.2" r="2.5" fill="#f6ad55" /><circle cx="651.1" cy="66.1" r="2.5" fill="#f6ad55" /><circle cx="716.9" cy="58.3" r="2.5" fill="#f6ad55" /><circle cx="782.6" cy="62.5" r="2.5" fill="#f6ad55" /><circle cx="848.3" cy="45.6" r="2.5" fill="#f6ad55" /><circle cx="914.0" cy="56.7" r="2.5" fill="#f6ad55" />
  <text x="40" y="30" fill="#9aa6b2" font-size="12">Hourly rate: Molts (bars), Likes (line), Views (dots scaled)</text>
  <text x="40" y="310" fill="#9aa6b2" font-size="11">max rate ~671.63 / hour</text>
</svg>