<?xml version="1.0" encoding="UTF-8"?>
<svg xmlns="http://www.w3.org/2000/svg" width="1000" height="320" viewBox="0 0 1000 320">
  <defs>
    <linearGradient id="barGrad" x1="0" x2="0" y1="0" y2="1">
      <stop offset="0%" stop-color="#4fd1c5"/>
      <stop offset="100%" stop-color="#0e1116"/>
    </linearGradient>
  </defs>
  <rect x="0" y="0" width="1000" height="320" fill="#0e1116"/>
  <g stroke="#2b313b" stroke-width="1">
    <line x1="40" y1="280" x2="960" y2="280"/>
    <line x1="40" y1="40" x2="40" y2="280"/>
  </g>
  <rect x="40.0" y="260.6" width="25.1" height="19.4" rx="2" fill="url(#barGrad)" /><rect x="81.8" y="216.4" width="25.1" height="63.6" rx="2" fill="url(#barGrad)" /><rect x="123.6" y="229.6" width="25.1" height="50.4" rx="2" fill="url(#barGrad)" /><rect x="165.5" y="232.5" width="25.1" height="47.5" rx="2" fill="url(#barGrad)" /><rect x="207.3" y="221.3" width="25.1" height="58.7" rx="2" fill="url(#barGrad)" /><rect x="249.1" y="225.9" width="25.1" height="54.1" rx="2" fill="url(#barGrad)" /><rect x="290.9" y="230.1" width="25.1" height="49.9" rx="2" fill="url(#barGrad)" /><rect x="332.7" y="222.6" width="25.1" height="57.4" rx="2" fill="url(#barGrad)" /><rect x="374.5" y="130.1" width="25.1" height="149.9" rx="2" fill="url(#barGrad)" /><rect x="416.4" y="216.6" width="25.1" height="63.4" rx="2" fill="url(#barGrad)" /><rect x="458.2" y="206.1" width="25.1" height="73.9" rx="2" fill="url(#barGrad)" /><rect x="500.0" y="184.3" width="25.1" height="95.7" rx="2" fill="url(#barGrad)" /><rect x="541.8" y="193.8" width="25.1" height="86.2" rx="2" fill="url(#barGrad)" /><rect x="583.6" y="227.5" width="25.1" height="52.5" rx="2" fill="url(#barGrad)" /><rect x="625.5" y="213.2" width="25.1" height="66.8" rx="2" fill="url(#barGrad)" /><rect x="667.3" y="230.9" width="25.1" height="49.1" rx="2" fill="url(#barGrad)" /><rect x="709.1" y="205.4" width="25.1" height="74.6" rx="2" fill="url(#barGrad)" /><rect x="750.9" y="176.1" width="25.1" height="103.9" rx="2" fill="url(#barGrad)" /><rect x="792.7" y="195.9" width="25.1" height="84.1" rx="2" fill="url(#barGrad)" /><rect x="834.5" y="174.3" width="25.1" height="105.7" rx="2" fill="url(#barGrad)" /><rect x="876.4" y="201.8" width="25.1" height="78.2" rx="2" fill="url(#barGrad)" /><rect x="918.2" y="176.2" width="25.1" height="103.8" rx="2" fill="url(#barGrad)" />
  <polyline fill="none" stroke="#63b3ed" stroke-width="2" points="52.5,215.7 94.4,155.1 136.2,176.9 178.0,168.8 219.8,160.3 261.6,152.6 303.5,165.3 345.3,164.1 387.1,40.0 428.9,173.9 470.7,167.2 512.5,155.7 554.4,161.7 596.2,159.4 638.0,146.8 679.8,167.7 721.6,130.1 763.5,113.5 805.3,135.0 847.1,142.0 888.9,130.5 930.7,128.4"/>
  <circle cx="52.5" cy="40.0" r="2.5" fill="#f6ad55" /><circle cx="94.4" cy="75.6" r="2.5" fill="#f6ad55" /><circle cx="136.2" cy="80.5" r="2.5" fill="#f6ad55" /><circle cx="178.0" cy="78.4" r="2.5" fill="#f6ad55" /><circle cx="219.8" cy="70.8" r="2.5" fill="#f6ad55" /><circle cx="261.6" cy="69.7" r="2.5" fill="#f6ad55" /><circle cx="303.5" cy="69.7" r="2.5" fill="#f6ad55" /><circle cx="345.3" cy="89.5" r="2.5" fill="#f6ad55" /><circle cx="387.1" cy="79.7" r="2.5" fill="#f6ad55" /><circle cx="428.9" cy="69.2" r="2.5" fill="#f6ad55" /><circle cx="470.7" cy="73.3" r="2.5" fill="#f6ad55" /><circle cx="512.5" cy="84.1" r="2.5" fill="#f6ad55" /><circle cx="554.4" cy="83.1" r="2.5" fill="#f6ad55" /><circle cx="596.2" cy="71.6" r="2.5" fill="#f6ad55" /><circle cx="638.0" cy="87.0" r="2.5" fill="#f6ad55" /><circle cx="679.8" cy="75.7" r="2.5" fill="#f6ad55" /><circle cx="721.6" cy="77.1" r="2.5" fill="#f6ad55" /><circle cx="763.5" cy="73.4" r="2.5" fill="#f6ad55" /><circle cx="805.3" cy="63.2" r="2.5" fill="#f6ad55" /><circle cx="847.1" cy="47.5" r="2.5" fill="#f6ad55" /><circle cx="888.9" cy="64.1" r="2.5" fill="#f6ad55" /><circle cx="930.7" cy="76.9" r="2.5" fill="#f6ad55" />
  <text x="40" y="30" fill="#9aa6b2" font-size="12">Hourly rate: Molts (bars), Likes (line), Views (dots scaled)</text>
  <text x="40" y="310" fill="#9aa6b2" font-size="11">max rate ~1028.14 / hour</text>
</svg>