<?xml version="1.0" encoding="UTF-8"?>
<svg xmlns="http://www.w3.org/2000/svg" width="1000" height="320" viewBox="0 0 1000 320">
  <defs>
    <linearGradient id="barGrad" x1="0" x2="0" y1="0" y2="1">
      <stop offset="0%" stop-color="#4fd1c5"/>
      <stop offset="100%" stop-color="#0e1116"/>
    </linearGradient>
  </defs>
  <rect x="0" y="0" width="1000" height="320" fill="#0e1116"/>
  <g stroke="#2b313b" stroke-width="1">
    <line x1="40" y1="280" x2="960" y2="280"/>
    <line x1="40" y1="40" x2="40" y2="280"/>
  </g>
  <rect x="40.0" y="157.8" width="27.6" height="122.2" rx="2" fill="url(#barGrad)" /><rect x="86.0" y="100.4" width="27.6" height="179.6" rx="2" fill="url(#barGrad)" /><rect x="132.0" y="110.6" width="27.6" height="169.4" rx="2" fill="url(#barGrad)" /><rect x="178.0" y="109.3" width="27.6" height="170.7" rx="2" fill="url(#barGrad)" /><rect x="224.0" y="83.3" width="27.6" height="196.7" rx="2" fill="url(#barGrad)" /><rect x="270.0" y="109.4" width="27.6" height="170.6" rx="2" fill="url(#barGrad)" /><rect x="316.0" y="122.0" width="27.6" height="158.0" rx="2" fill="url(#barGrad)" /><rect x="362.0" y="118.3" width="27.6" height="161.7" rx="2" fill="url(#barGrad)" /><rect x="408.0" y="108.8" width="27.6" height="171.2" rx="2" fill="url(#barGrad)" /><rect x="454.0" y="120.2" width="27.6" height="159.8" rx="2" fill="url(#barGrad)" /><rect x="500.0" y="119.2" width="27.6" height="160.8" rx="2" fill="url(#barGrad)" /><rect x="546.0" y="137.9" width="27.6" height="142.1" rx="2" fill="url(#barGrad)" /><rect x="592.0" y="113.6" width="27.6" height="166.4" rx="2" fill="url(#barGrad)" /><rect x="638.0" y="158.6" width="27.6" height="121.4" rx="2" fill="url(#barGrad)" /><rect x="684.0" y="266.1" width="27.6" height="13.9" rx="2" fill="url(#barGrad)" /><rect x="730.0" y="262.1" width="27.6" height="17.9" rx="2" fill="url(#barGrad)" /><rect x="776.0" y="265.3" width="27.6" height="14.7" rx="2" fill="url(#barGrad)" /><rect x="822.0" y="259.6" width="27.6" height="20.4" rx="2" fill="url(#barGrad)" /><rect x="868.0" y="214.5" width="27.6" height="65.5" rx="2" fill="url(#barGrad)" /><rect x="914.0" y="262.7" width="27.6" height="17.3" rx="2" fill="url(#barGrad)" />
  <polyline fill="none" stroke="#63b3ed" stroke-width="2" points="53.8,94.9 99.8,73.4 145.8,64.7 191.8,60.4 237.8,40.0 283.8,66.4 329.8,102.8 375.8,74.5 421.8,76.2 467.8,99.9 513.8,105.1 559.8,100.6 605.8,98.1 651.8,138.1 697.8,267.3 743.8,263.8 789.8,263.2 835.8,263.0 881.8,237.9 927.8,262.2"/>
  <circle cx="53.8" cy="278.1" r="2.5" fill="#f6ad55" /><circle cx="99.8" cy="278.2" r="2.5" fill="#f6ad55" /><circle cx="145.8" cy="278.2" r="2.5" fill="#f6ad55" /><circle cx="191.8" cy="278.0" r="2.5" fill="#f6ad55" /><circle cx="237.8" cy="278.1" r="2.5" fill="#f6ad55" /><circle cx="283.8" cy="278.1" r="2.5" fill="#f6ad55" /><circle cx="329.8" cy="278.1" r="2.5" fill="#f6ad55" /><circle cx="375.8" cy="278.1" r="2.5" fill="#f6ad55" /><circle cx="421.8" cy="278.2" r="2.5" fill="#f6ad55" /><circle cx="467.8" cy="278.1" r="2.5" fill="#f6ad55" /><circle cx="513.8" cy="278.1" r="2.5" fill="#f6ad55" /><circle cx="559.8" cy="278.3" r="2.5" fill="#f6ad55" /><circle cx="605.8" cy="278.3" r="2.5" fill="#f6ad55" /><circle cx="651.8" cy="278.5" r="2.5" fill="#f6ad55" /><circle cx="697.8" cy="518.3" r="2.5" fill="#f6ad55" /><circle cx="743.8" cy="40.0" r="2.5" fill="#f6ad55" /><circle cx="789.8" cy="278.2" r="2.5" fill="#f6ad55" /><circle cx="835.8" cy="278.2" r="2.5" fill="#f6ad55" /><circle cx="881.8" cy="278.1" r="2.5" fill="#f6ad55" /><circle cx="927.8" cy="278.2" r="2.5" fill="#f6ad55" />
  <text x="40" y="30" fill="#9aa6b2" font-size="12">Hourly rate: Molts (bars), Likes (line), Views (dots scaled)</text>
  <text x="40" y="310" fill="#9aa6b2" font-size="11">max rate ~2510.11 / hour</text>
</svg>