<?xml version="1.0" encoding="UTF-8"?>
<svg xmlns="http://www.w3.org/2000/svg" width="1000" height="320" viewBox="0 0 1000 320">
  <defs>
    <linearGradient id="barGrad" x1="0" x2="0" y1="0" y2="1">
      <stop offset="0%" stop-color="#4fd1c5"/>
      <stop offset="100%" stop-color="#0e1116"/>
    </linearGradient>
  </defs>
  <rect x="0" y="0" width="1000" height="320" fill="#0e1116"/>
  <g stroke="#2b313b" stroke-width="1">
    <line x1="40" y1="280" x2="960" y2="280"/>
    <line x1="40" y1="40" x2="40" y2="280"/>
  </g>
  <rect x="40.0" y="255.1" width="29.1" height="24.9" rx="2" fill="url(#barGrad)" /><rect x="88.4" y="190.5" width="29.1" height="89.5" rx="2" fill="url(#barGrad)" /><rect x="136.8" y="210.2" width="29.1" height="69.8" rx="2" fill="url(#barGrad)" /><rect x="185.3" y="196.7" width="29.1" height="83.3" rx="2" fill="url(#barGrad)" /><rect x="233.7" y="191.2" width="29.1" height="88.8" rx="2" fill="url(#barGrad)" /><rect x="282.1" y="181.7" width="29.1" height="98.3" rx="2" fill="url(#barGrad)" /><rect x="330.5" y="170.7" width="29.1" height="109.3" rx="2" fill="url(#barGrad)" /><rect x="378.9" y="170.1" width="29.1" height="109.9" rx="2" fill="url(#barGrad)" /><rect x="427.4" y="206.2" width="29.1" height="73.8" rx="2" fill="url(#barGrad)" /><rect x="475.8" y="198.1" width="29.1" height="81.9" rx="2" fill="url(#barGrad)" /><rect x="524.2" y="189.9" width="29.1" height="90.1" rx="2" fill="url(#barGrad)" /><rect x="572.6" y="193.8" width="29.1" height="86.2" rx="2" fill="url(#barGrad)" /><rect x="621.1" y="182.9" width="29.1" height="97.1" rx="2" fill="url(#barGrad)" /><rect x="669.5" y="172.8" width="29.1" height="107.2" rx="2" fill="url(#barGrad)" /><rect x="717.9" y="152.8" width="29.1" height="127.2" rx="2" fill="url(#barGrad)" /><rect x="766.3" y="130.5" width="29.1" height="149.5" rx="2" fill="url(#barGrad)" /><rect x="814.7" y="173.5" width="29.1" height="106.5" rx="2" fill="url(#barGrad)" /><rect x="863.2" y="193.1" width="29.1" height="86.9" rx="2" fill="url(#barGrad)" /><rect x="911.6" y="207.6" width="29.1" height="72.4" rx="2" fill="url(#barGrad)" />
  <polyline fill="none" stroke="#63b3ed" stroke-width="2" points="54.5,197.2 102.9,59.3 151.4,90.7 199.8,65.9 248.2,70.7 296.6,57.9 345.1,40.0 393.5,51.3 441.9,133.5 490.3,111.0 538.7,112.9 587.2,87.0 635.6,62.2 684.0,63.4 732.4,59.0 780.8,47.2 829.3,85.2 877.7,85.2 926.1,117.1"/>
  <circle cx="54.5" cy="106.2" r="2.5" fill="#f6ad55" /><circle cx="102.9" cy="101.0" r="2.5" fill="#f6ad55" /><circle cx="151.4" cy="84.0" r="2.5" fill="#f6ad55" /><circle cx="199.8" cy="58.5" r="2.5" fill="#f6ad55" /><circle cx="248.2" cy="62.7" r="2.5" fill="#f6ad55" /><circle cx="296.6" cy="40.0" r="2.5" fill="#f6ad55" /><circle cx="345.1" cy="50.2" r="2.5" fill="#f6ad55" /><circle cx="393.5" cy="50.7" r="2.5" fill="#f6ad55" /><circle cx="441.9" cy="70.0" r="2.5" fill="#f6ad55" /><circle cx="490.3" cy="78.6" r="2.5" fill="#f6ad55" /><circle cx="538.7" cy="90.7" r="2.5" fill="#f6ad55" /><circle cx="587.2" cy="90.6" r="2.5" fill="#f6ad55" /><circle cx="635.6" cy="94.7" r="2.5" fill="#f6ad55" /><circle cx="684.0" cy="103.9" r="2.5" fill="#f6ad55" /><circle cx="732.4" cy="112.5" r="2.5" fill="#f6ad55" /><circle cx="780.8" cy="86.3" r="2.5" fill="#f6ad55" /><circle cx="829.3" cy="93.6" r="2.5" fill="#f6ad55" /><circle cx="877.7" cy="78.3" r="2.5" fill="#f6ad55" /><circle cx="926.1" cy="54.1" r="2.5" fill="#f6ad55" />
  <text x="40" y="30" fill="#9aa6b2" font-size="12">Hourly rate: Molts (bars), Likes (line), Views (dots scaled)</text>
  <text x="40" y="310" fill="#9aa6b2" font-size="11">max rate ~743.65 / hour</text>
</svg>