<?xml version="1.0" encoding="UTF-8"?>
<svg xmlns="http://www.w3.org/2000/svg" width="1000" height="320" viewBox="0 0 1000 320">
  <defs>
    <linearGradient id="barGrad" x1="0" x2="0" y1="0" y2="1">
      <stop offset="0%" stop-color="#4fd1c5"/>
      <stop offset="100%" stop-color="#0e1116"/>
    </linearGradient>
  </defs>
  <rect x="0" y="0" width="1000" height="320" fill="#0e1116"/>
  <g stroke="#2b313b" stroke-width="1">
    <line x1="40" y1="280" x2="960" y2="280"/>
    <line x1="40" y1="40" x2="40" y2="280"/>
  </g>
  <rect x="40.0" y="157.8" width="26.3" height="122.2" rx="2" fill="url(#barGrad)" /><rect x="83.8" y="100.4" width="26.3" height="179.6" rx="2" fill="url(#barGrad)" /><rect x="127.6" y="110.6" width="26.3" height="169.4" rx="2" fill="url(#barGrad)" /><rect x="171.4" y="109.3" width="26.3" height="170.7" rx="2" fill="url(#barGrad)" /><rect x="215.2" y="83.3" width="26.3" height="196.7" rx="2" fill="url(#barGrad)" /><rect x="259.0" y="109.4" width="26.3" height="170.6" rx="2" fill="url(#barGrad)" /><rect x="302.9" y="122.0" width="26.3" height="158.0" rx="2" fill="url(#barGrad)" /><rect x="346.7" y="118.3" width="26.3" height="161.7" rx="2" fill="url(#barGrad)" /><rect x="390.5" y="108.8" width="26.3" height="171.2" rx="2" fill="url(#barGrad)" /><rect x="434.3" y="120.2" width="26.3" height="159.8" rx="2" fill="url(#barGrad)" /><rect x="478.1" y="119.2" width="26.3" height="160.8" rx="2" fill="url(#barGrad)" /><rect x="521.9" y="137.9" width="26.3" height="142.1" rx="2" fill="url(#barGrad)" /><rect x="565.7" y="113.6" width="26.3" height="166.4" rx="2" fill="url(#barGrad)" /><rect x="609.5" y="158.6" width="26.3" height="121.4" rx="2" fill="url(#barGrad)" /><rect x="653.3" y="266.1" width="26.3" height="13.9" rx="2" fill="url(#barGrad)" /><rect x="697.1" y="262.1" width="26.3" height="17.9" rx="2" fill="url(#barGrad)" /><rect x="741.0" y="265.3" width="26.3" height="14.7" rx="2" fill="url(#barGrad)" /><rect x="784.8" y="259.6" width="26.3" height="20.4" rx="2" fill="url(#barGrad)" /><rect x="828.6" y="214.5" width="26.3" height="65.5" rx="2" fill="url(#barGrad)" /><rect x="872.4" y="262.7" width="26.3" height="17.3" rx="2" fill="url(#barGrad)" /><rect x="916.2" y="263.3" width="26.3" height="16.7" rx="2" fill="url(#barGrad)" />
  <polyline fill="none" stroke="#63b3ed" stroke-width="2" points="53.1,94.9 97.0,73.4 140.8,64.7 184.6,60.4 228.4,40.0 272.2,66.4 316.0,102.8 359.8,74.5 403.6,76.2 447.4,99.9 491.2,105.1 535.0,100.6 578.9,98.1 622.7,138.1 666.5,267.3 710.3,263.8 754.1,263.2 797.9,263.0 841.7,237.9 885.5,262.2 929.3,264.5"/>
  <circle cx="53.1" cy="278.1" r="2.5" fill="#f6ad55" /><circle cx="97.0" cy="278.2" r="2.5" fill="#f6ad55" /><circle cx="140.8" cy="278.2" r="2.5" fill="#f6ad55" /><circle cx="184.6" cy="278.0" r="2.5" fill="#f6ad55" /><circle cx="228.4" cy="278.1" r="2.5" fill="#f6ad55" /><circle cx="272.2" cy="278.1" r="2.5" fill="#f6ad55" /><circle cx="316.0" cy="278.1" r="2.5" fill="#f6ad55" /><circle cx="359.8" cy="278.1" r="2.5" fill="#f6ad55" /><circle cx="403.6" cy="278.2" r="2.5" fill="#f6ad55" /><circle cx="447.4" cy="278.1" r="2.5" fill="#f6ad55" /><circle cx="491.2" cy="278.1" r="2.5" fill="#f6ad55" /><circle cx="535.0" cy="278.3" r="2.5" fill="#f6ad55" /><circle cx="578.9" cy="278.3" r="2.5" fill="#f6ad55" /><circle cx="622.7" cy="278.5" r="2.5" fill="#f6ad55" /><circle cx="666.5" cy="518.3" r="2.5" fill="#f6ad55" /><circle cx="710.3" cy="40.0" r="2.5" fill="#f6ad55" /><circle cx="754.1" cy="278.2" r="2.5" fill="#f6ad55" /><circle cx="797.9" cy="278.2" r="2.5" fill="#f6ad55" /><circle cx="841.7" cy="278.1" r="2.5" fill="#f6ad55" /><circle cx="885.5" cy="278.2" r="2.5" fill="#f6ad55" /><circle cx="929.3" cy="278.2" r="2.5" fill="#f6ad55" />
  <text x="40" y="30" fill="#9aa6b2" font-size="12">Hourly rate: Molts (bars), Likes (line), Views (dots scaled)</text>
  <text x="40" y="310" fill="#9aa6b2" font-size="11">max rate ~2510.11 / hour</text>
</svg>