<?xml version="1.0" encoding="UTF-8"?>
<svg xmlns="http://www.w3.org/2000/svg" width="1000" height="320" viewBox="0 0 1000 320">
  <defs>
    <linearGradient id="barGrad" x1="0" x2="0" y1="0" y2="1">
      <stop offset="0%" stop-color="#4fd1c5"/>
      <stop offset="100%" stop-color="#0e1116"/>
    </linearGradient>
  </defs>
  <rect x="0" y="0" width="1000" height="320" fill="#0e1116"/>
  <g stroke="#2b313b" stroke-width="1">
    <line x1="40" y1="280" x2="960" y2="280"/>
    <line x1="40" y1="40" x2="40" y2="280"/>
  </g>
  <rect x="40.0" y="255.9" width="23.0" height="24.1" rx="2" fill="url(#barGrad)" /><rect x="78.3" y="193.3" width="23.0" height="86.7" rx="2" fill="url(#barGrad)" /><rect x="116.7" y="212.4" width="23.0" height="67.6" rx="2" fill="url(#barGrad)" /><rect x="155.0" y="199.4" width="23.0" height="80.6" rx="2" fill="url(#barGrad)" /><rect x="193.3" y="194.0" width="23.0" height="86.0" rx="2" fill="url(#barGrad)" /><rect x="231.7" y="184.8" width="23.0" height="95.2" rx="2" fill="url(#barGrad)" /><rect x="270.0" y="174.1" width="23.0" height="105.9" rx="2" fill="url(#barGrad)" /><rect x="308.3" y="173.6" width="23.0" height="106.4" rx="2" fill="url(#barGrad)" /><rect x="346.7" y="208.6" width="23.0" height="71.4" rx="2" fill="url(#barGrad)" /><rect x="385.0" y="200.7" width="23.0" height="79.3" rx="2" fill="url(#barGrad)" /><rect x="423.3" y="192.7" width="23.0" height="87.3" rx="2" fill="url(#barGrad)" /><rect x="461.7" y="196.5" width="23.0" height="83.5" rx="2" fill="url(#barGrad)" /><rect x="500.0" y="185.9" width="23.0" height="94.1" rx="2" fill="url(#barGrad)" /><rect x="538.3" y="176.2" width="23.0" height="103.8" rx="2" fill="url(#barGrad)" /><rect x="576.7" y="156.9" width="23.0" height="123.1" rx="2" fill="url(#barGrad)" /><rect x="615.0" y="135.2" width="23.0" height="144.8" rx="2" fill="url(#barGrad)" /><rect x="653.3" y="176.9" width="23.0" height="103.1" rx="2" fill="url(#barGrad)" /><rect x="691.7" y="195.8" width="23.0" height="84.2" rx="2" fill="url(#barGrad)" /><rect x="730.0" y="209.9" width="23.0" height="70.1" rx="2" fill="url(#barGrad)" /><rect x="768.3" y="161.7" width="23.0" height="118.3" rx="2" fill="url(#barGrad)" /><rect x="806.7" y="128.4" width="23.0" height="151.6" rx="2" fill="url(#barGrad)" /><rect x="845.0" y="157.7" width="23.0" height="122.3" rx="2" fill="url(#barGrad)" /><rect x="883.3" y="125.7" width="23.0" height="154.3" rx="2" fill="url(#barGrad)" /><rect x="921.7" y="132.7" width="23.0" height="147.3" rx="2" fill="url(#barGrad)" />
  <polyline fill="none" stroke="#63b3ed" stroke-width="2" points="51.5,199.8 89.8,66.3 128.2,96.7 166.5,72.7 204.8,77.3 243.2,65.0 281.5,47.6 319.8,58.5 358.2,138.1 396.5,116.4 434.8,118.1 473.2,93.1 511.5,69.1 549.8,70.2 588.2,66.0 626.5,54.6 664.8,91.3 703.2,91.4 741.5,122.2 779.8,50.5 818.2,79.8 856.5,67.2 894.8,40.0 933.2,66.9"/>
  <circle cx="51.5" cy="106.2" r="2.5" fill="#f6ad55" /><circle cx="89.8" cy="101.0" r="2.5" fill="#f6ad55" /><circle cx="128.2" cy="84.0" r="2.5" fill="#f6ad55" /><circle cx="166.5" cy="58.5" r="2.5" fill="#f6ad55" /><circle cx="204.8" cy="62.7" r="2.5" fill="#f6ad55" /><circle cx="243.2" cy="40.0" r="2.5" fill="#f6ad55" /><circle cx="281.5" cy="50.2" r="2.5" fill="#f6ad55" /><circle cx="319.8" cy="50.7" r="2.5" fill="#f6ad55" /><circle cx="358.2" cy="70.0" r="2.5" fill="#f6ad55" /><circle cx="396.5" cy="78.6" r="2.5" fill="#f6ad55" /><circle cx="434.8" cy="90.7" r="2.5" fill="#f6ad55" /><circle cx="473.2" cy="90.6" r="2.5" fill="#f6ad55" /><circle cx="511.5" cy="94.7" r="2.5" fill="#f6ad55" /><circle cx="549.8" cy="103.9" r="2.5" fill="#f6ad55" /><circle cx="588.2" cy="112.5" r="2.5" fill="#f6ad55" /><circle cx="626.5" cy="86.3" r="2.5" fill="#f6ad55" /><circle cx="664.8" cy="93.6" r="2.5" fill="#f6ad55" /><circle cx="703.2" cy="78.3" r="2.5" fill="#f6ad55" /><circle cx="741.5" cy="54.1" r="2.5" fill="#f6ad55" /><circle cx="779.8" cy="70.0" r="2.5" fill="#f6ad55" /><circle cx="818.2" cy="75.1" r="2.5" fill="#f6ad55" /><circle cx="856.5" cy="51.9" r="2.5" fill="#f6ad55" /><circle cx="894.8" cy="54.3" r="2.5" fill="#f6ad55" /><circle cx="933.2" cy="54.8" r="2.5" fill="#f6ad55" />
  <text x="40" y="30" fill="#9aa6b2" font-size="12">Hourly rate: Molts (bars), Likes (line), Views (dots scaled)</text>
  <text x="40" y="310" fill="#9aa6b2" font-size="11">max rate ~767.95 / hour</text>
</svg>