<?xml version="1.0" encoding="UTF-8"?>
<svg xmlns="http://www.w3.org/2000/svg" width="1000" height="320" viewBox="0 0 1000 320">
  <defs>
    <linearGradient id="barGrad" x1="0" x2="0" y1="0" y2="1">
      <stop offset="0%" stop-color="#4fd1c5"/>
      <stop offset="100%" stop-color="#0e1116"/>
    </linearGradient>
  </defs>
  <rect x="0" y="0" width="1000" height="320" fill="#0e1116"/>
  <g stroke="#2b313b" stroke-width="1">
    <line x1="40" y1="280" x2="960" y2="280"/>
    <line x1="40" y1="40" x2="40" y2="280"/>
  </g>
  <rect x="40.0" y="142.3" width="61.3" height="137.7" rx="2" fill="url(#barGrad)" /><rect x="142.2" y="157.3" width="61.3" height="122.7" rx="2" fill="url(#barGrad)" /><rect x="244.4" y="158.1" width="61.3" height="121.9" rx="2" fill="url(#barGrad)" /><rect x="346.7" y="188.3" width="61.3" height="91.7" rx="2" fill="url(#barGrad)" /><rect x="448.9" y="183.0" width="61.3" height="97.0" rx="2" fill="url(#barGrad)" /><rect x="551.1" y="148.2" width="61.3" height="131.8" rx="2" fill="url(#barGrad)" /><rect x="653.3" y="164.6" width="61.3" height="115.4" rx="2" fill="url(#barGrad)" /><rect x="755.6" y="156.8" width="61.3" height="123.2" rx="2" fill="url(#barGrad)" /><rect x="857.8" y="171.3" width="61.3" height="108.7" rx="2" fill="url(#barGrad)" />
  <polyline fill="none" stroke="#63b3ed" stroke-width="2" points="70.7,82.1 172.9,50.2 275.1,63.7 377.3,96.9 479.6,85.6 581.8,63.0 684.0,40.0 786.2,46.4 888.4,73.6"/>
  <circle cx="70.7" cy="79.1" r="2.5" fill="#f6ad55" /><circle cx="172.9" cy="83.9" r="2.5" fill="#f6ad55" /><circle cx="275.1" cy="55.0" r="2.5" fill="#f6ad55" /><circle cx="377.3" cy="40.0" r="2.5" fill="#f6ad55" /><circle cx="479.6" cy="83.5" r="2.5" fill="#f6ad55" /><circle cx="581.8" cy="93.5" r="2.5" fill="#f6ad55" /><circle cx="684.0" cy="92.6" r="2.5" fill="#f6ad55" /><circle cx="786.2" cy="95.5" r="2.5" fill="#f6ad55" /><circle cx="888.4" cy="112.8" r="2.5" fill="#f6ad55" />
  <text x="40" y="30" fill="#9aa6b2" font-size="12">Hourly rate: Molts (bars), Likes (line), Views (dots scaled)</text>
  <text x="40" y="310" fill="#9aa6b2" font-size="11">max rate ~718.37 / hour</text>
</svg>