<?xml version="1.0" encoding="UTF-8"?>
<svg xmlns="http://www.w3.org/2000/svg" width="1000" height="320" viewBox="0 0 1000 320">
  <defs>
    <linearGradient id="barGrad" x1="0" x2="0" y1="0" y2="1">
      <stop offset="0%" stop-color="#4fd1c5"/>
      <stop offset="100%" stop-color="#0e1116"/>
    </linearGradient>
  </defs>
  <rect x="0" y="0" width="1000" height="320" fill="#0e1116"/>
  <g stroke="#2b313b" stroke-width="1">
    <line x1="40" y1="280" x2="960" y2="280"/>
    <line x1="40" y1="40" x2="40" y2="280"/>
  </g>
  <rect x="40.0" y="264.5" width="23.0" height="15.5" rx="2" fill="url(#barGrad)" /><rect x="78.3" y="220.7" width="23.0" height="59.3" rx="2" fill="url(#barGrad)" /><rect x="116.7" y="231.9" width="23.0" height="48.1" rx="2" fill="url(#barGrad)" /><rect x="155.0" y="233.5" width="23.0" height="46.5" rx="2" fill="url(#barGrad)" /><rect x="193.3" y="207.5" width="23.0" height="72.5" rx="2" fill="url(#barGrad)" /><rect x="231.7" y="208.8" width="23.0" height="71.2" rx="2" fill="url(#barGrad)" /><rect x="270.0" y="213.4" width="23.0" height="66.6" rx="2" fill="url(#barGrad)" /><rect x="308.3" y="174.0" width="23.0" height="106.0" rx="2" fill="url(#barGrad)" /><rect x="346.7" y="230.4" width="23.0" height="49.6" rx="2" fill="url(#barGrad)" /><rect x="385.0" y="198.0" width="23.0" height="82.0" rx="2" fill="url(#barGrad)" /><rect x="423.3" y="201.8" width="23.0" height="78.2" rx="2" fill="url(#barGrad)" /><rect x="461.7" y="216.3" width="23.0" height="63.7" rx="2" fill="url(#barGrad)" /><rect x="500.0" y="184.6" width="23.0" height="95.4" rx="2" fill="url(#barGrad)" /><rect x="538.3" y="200.4" width="23.0" height="79.6" rx="2" fill="url(#barGrad)" /><rect x="576.7" y="202.7" width="23.0" height="77.3" rx="2" fill="url(#barGrad)" /><rect x="615.0" y="204.2" width="23.0" height="75.8" rx="2" fill="url(#barGrad)" /><rect x="653.3" y="210.9" width="23.0" height="69.1" rx="2" fill="url(#barGrad)" /><rect x="691.7" y="203.7" width="23.0" height="76.3" rx="2" fill="url(#barGrad)" /><rect x="730.0" y="194.6" width="23.0" height="85.4" rx="2" fill="url(#barGrad)" /><rect x="768.3" y="206.7" width="23.0" height="73.3" rx="2" fill="url(#barGrad)" /><rect x="806.7" y="221.6" width="23.0" height="58.4" rx="2" fill="url(#barGrad)" /><rect x="845.0" y="222.0" width="23.0" height="58.0" rx="2" fill="url(#barGrad)" /><rect x="883.3" y="208.5" width="23.0" height="71.5" rx="2" fill="url(#barGrad)" /><rect x="921.7" y="221.1" width="23.0" height="58.9" rx="2" fill="url(#barGrad)" />
  <polyline fill="none" stroke="#63b3ed" stroke-width="2" points="51.5,235.0 89.8,140.1 128.2,173.8 166.5,183.0 204.8,137.6 243.2,154.7 281.5,166.8 319.8,40.0 358.2,187.6 396.5,140.9 434.8,137.7 473.2,175.7 511.5,171.1 549.8,159.9 588.2,180.6 626.5,175.4 664.8,155.7 703.2,185.6 741.5,174.6 779.8,164.3 818.2,188.4 856.5,197.5 894.8,182.1 933.2,206.8"/>
  <circle cx="51.5" cy="40.0" r="2.5" fill="#f6ad55" /><circle cx="89.8" cy="146.0" r="2.5" fill="#f6ad55" /><circle cx="128.2" cy="152.3" r="2.5" fill="#f6ad55" /><circle cx="166.5" cy="149.4" r="2.5" fill="#f6ad55" /><circle cx="204.8" cy="145.5" r="2.5" fill="#f6ad55" /><circle cx="243.2" cy="139.4" r="2.5" fill="#f6ad55" /><circle cx="281.5" cy="142.2" r="2.5" fill="#f6ad55" /><circle cx="319.8" cy="140.4" r="2.5" fill="#f6ad55" /><circle cx="358.2" cy="139.0" r="2.5" fill="#f6ad55" /><circle cx="396.5" cy="158.4" r="2.5" fill="#f6ad55" /><circle cx="434.8" cy="153.8" r="2.5" fill="#f6ad55" /><circle cx="473.2" cy="147.6" r="2.5" fill="#f6ad55" /><circle cx="511.5" cy="164.1" r="2.5" fill="#f6ad55" /><circle cx="549.8" cy="166.0" r="2.5" fill="#f6ad55" /><circle cx="588.2" cy="144.8" r="2.5" fill="#f6ad55" /><circle cx="626.5" cy="171.0" r="2.5" fill="#f6ad55" /><circle cx="664.8" cy="170.4" r="2.5" fill="#f6ad55" /><circle cx="703.2" cy="171.2" r="2.5" fill="#f6ad55" /><circle cx="741.5" cy="181.2" r="2.5" fill="#f6ad55" /><circle cx="779.8" cy="178.6" r="2.5" fill="#f6ad55" /><circle cx="818.2" cy="176.5" r="2.5" fill="#f6ad55" /><circle cx="856.5" cy="177.3" r="2.5" fill="#f6ad55" /><circle cx="894.8" cy="178.0" r="2.5" fill="#f6ad55" /><circle cx="933.2" cy="186.4" r="2.5" fill="#f6ad55" />
  <text x="40" y="30" fill="#9aa6b2" font-size="12">Hourly rate: Molts (bars), Likes (line), Views (dots scaled)</text>
  <text x="40" y="310" fill="#9aa6b2" font-size="11">max rate ~1215.79 / hour</text>
</svg>