<?xml version="1.0" encoding="UTF-8"?>
<svg xmlns="http://www.w3.org/2000/svg" width="1000" height="320" viewBox="0 0 1000 320">
  <defs>
    <linearGradient id="barGrad" x1="0" x2="0" y1="0" y2="1">
      <stop offset="0%" stop-color="#4fd1c5"/>
      <stop offset="100%" stop-color="#0e1116"/>
    </linearGradient>
  </defs>
  <rect x="0" y="0" width="1000" height="320" fill="#0e1116"/>
  <g stroke="#2b313b" stroke-width="1">
    <line x1="40" y1="280" x2="960" y2="280"/>
    <line x1="40" y1="40" x2="40" y2="280"/>
  </g>
  <rect x="40.0" y="255.1" width="30.7" height="24.9" rx="2" fill="url(#barGrad)" /><rect x="91.1" y="190.5" width="30.7" height="89.5" rx="2" fill="url(#barGrad)" /><rect x="142.2" y="210.2" width="30.7" height="69.8" rx="2" fill="url(#barGrad)" /><rect x="193.3" y="196.7" width="30.7" height="83.3" rx="2" fill="url(#barGrad)" /><rect x="244.4" y="191.2" width="30.7" height="88.8" rx="2" fill="url(#barGrad)" /><rect x="295.6" y="181.7" width="30.7" height="98.3" rx="2" fill="url(#barGrad)" /><rect x="346.7" y="170.7" width="30.7" height="109.3" rx="2" fill="url(#barGrad)" /><rect x="397.8" y="170.1" width="30.7" height="109.9" rx="2" fill="url(#barGrad)" /><rect x="448.9" y="206.2" width="30.7" height="73.8" rx="2" fill="url(#barGrad)" /><rect x="500.0" y="198.1" width="30.7" height="81.9" rx="2" fill="url(#barGrad)" /><rect x="551.1" y="189.9" width="30.7" height="90.1" rx="2" fill="url(#barGrad)" /><rect x="602.2" y="193.8" width="30.7" height="86.2" rx="2" fill="url(#barGrad)" /><rect x="653.3" y="182.9" width="30.7" height="97.1" rx="2" fill="url(#barGrad)" /><rect x="704.4" y="172.8" width="30.7" height="107.2" rx="2" fill="url(#barGrad)" /><rect x="755.6" y="152.8" width="30.7" height="127.2" rx="2" fill="url(#barGrad)" /><rect x="806.7" y="130.5" width="30.7" height="149.5" rx="2" fill="url(#barGrad)" /><rect x="857.8" y="173.5" width="30.7" height="106.5" rx="2" fill="url(#barGrad)" /><rect x="908.9" y="193.1" width="30.7" height="86.9" rx="2" fill="url(#barGrad)" />
  <polyline fill="none" stroke="#63b3ed" stroke-width="2" points="55.3,197.2 106.4,59.3 157.6,90.7 208.7,65.9 259.8,70.7 310.9,57.9 362.0,40.0 413.1,51.3 464.2,133.5 515.3,111.0 566.4,112.9 617.6,87.0 668.7,62.2 719.8,63.4 770.9,59.0 822.0,47.2 873.1,85.2 924.2,85.2"/>
  <circle cx="55.3" cy="106.2" r="2.5" fill="#f6ad55" /><circle cx="106.4" cy="101.0" r="2.5" fill="#f6ad55" /><circle cx="157.6" cy="84.0" r="2.5" fill="#f6ad55" /><circle cx="208.7" cy="58.5" r="2.5" fill="#f6ad55" /><circle cx="259.8" cy="62.7" r="2.5" fill="#f6ad55" /><circle cx="310.9" cy="40.0" r="2.5" fill="#f6ad55" /><circle cx="362.0" cy="50.2" r="2.5" fill="#f6ad55" /><circle cx="413.1" cy="50.7" r="2.5" fill="#f6ad55" /><circle cx="464.2" cy="70.0" r="2.5" fill="#f6ad55" /><circle cx="515.3" cy="78.6" r="2.5" fill="#f6ad55" /><circle cx="566.4" cy="90.7" r="2.5" fill="#f6ad55" /><circle cx="617.6" cy="90.6" r="2.5" fill="#f6ad55" /><circle cx="668.7" cy="94.7" r="2.5" fill="#f6ad55" /><circle cx="719.8" cy="103.9" r="2.5" fill="#f6ad55" /><circle cx="770.9" cy="112.5" r="2.5" fill="#f6ad55" /><circle cx="822.0" cy="86.3" r="2.5" fill="#f6ad55" /><circle cx="873.1" cy="93.6" r="2.5" fill="#f6ad55" /><circle cx="924.2" cy="78.3" r="2.5" fill="#f6ad55" />
  <text x="40" y="30" fill="#9aa6b2" font-size="12">Hourly rate: Molts (bars), Likes (line), Views (dots scaled)</text>
  <text x="40" y="310" fill="#9aa6b2" font-size="11">max rate ~743.65 / hour</text>
</svg>