<?xml version="1.0" encoding="UTF-8"?>
<svg xmlns="http://www.w3.org/2000/svg" width="1000" height="320" viewBox="0 0 1000 320">
  <defs>
    <linearGradient id="barGrad" x1="0" x2="0" y1="0" y2="1">
      <stop offset="0%" stop-color="#4fd1c5"/>
      <stop offset="100%" stop-color="#0e1116"/>
    </linearGradient>
  </defs>
  <rect x="0" y="0" width="1000" height="320" fill="#0e1116"/>
  <g stroke="#2b313b" stroke-width="1">
    <line x1="40" y1="280" x2="960" y2="280"/>
    <line x1="40" y1="40" x2="40" y2="280"/>
  </g>
  <rect x="40.0" y="252.6" width="26.3" height="27.4" rx="2" fill="url(#barGrad)" /><rect x="83.8" y="216.4" width="26.3" height="63.6" rx="2" fill="url(#barGrad)" /><rect x="127.6" y="220.3" width="26.3" height="59.7" rx="2" fill="url(#barGrad)" /><rect x="171.4" y="210.5" width="26.3" height="69.5" rx="2" fill="url(#barGrad)" /><rect x="215.2" y="210.3" width="26.3" height="69.7" rx="2" fill="url(#barGrad)" /><rect x="259.0" y="215.9" width="26.3" height="64.1" rx="2" fill="url(#barGrad)" /><rect x="302.9" y="222.0" width="26.3" height="58.0" rx="2" fill="url(#barGrad)" /><rect x="346.7" y="230.9" width="26.3" height="49.1" rx="2" fill="url(#barGrad)" /><rect x="390.5" y="214.9" width="26.3" height="65.1" rx="2" fill="url(#barGrad)" /><rect x="434.3" y="88.7" width="26.3" height="191.3" rx="2" fill="url(#barGrad)" /><rect x="478.1" y="55.2" width="26.3" height="224.8" rx="2" fill="url(#barGrad)" /><rect x="521.9" y="197.4" width="26.3" height="82.6" rx="2" fill="url(#barGrad)" /><rect x="565.7" y="178.2" width="26.3" height="101.8" rx="2" fill="url(#barGrad)" /><rect x="609.5" y="200.9" width="26.3" height="79.1" rx="2" fill="url(#barGrad)" /><rect x="653.3" y="119.6" width="26.3" height="160.4" rx="2" fill="url(#barGrad)" /><rect x="697.1" y="40.0" width="26.3" height="240.0" rx="2" fill="url(#barGrad)" /><rect x="741.0" y="164.9" width="26.3" height="115.1" rx="2" fill="url(#barGrad)" /><rect x="784.8" y="180.2" width="26.3" height="99.8" rx="2" fill="url(#barGrad)" /><rect x="828.6" y="173.0" width="26.3" height="107.0" rx="2" fill="url(#barGrad)" /><rect x="872.4" y="163.9" width="26.3" height="116.1" rx="2" fill="url(#barGrad)" /><rect x="916.2" y="176.3" width="26.3" height="103.7" rx="2" fill="url(#barGrad)" />
  <polyline fill="none" stroke="#63b3ed" stroke-width="2" points="53.1,177.6 97.0,223.1 140.8,186.2 184.6,173.9 228.4,156.6 272.2,174.1 316.0,156.5 359.8,178.7 403.6,146.4 447.4,133.8 491.2,88.9 535.0,132.4 578.9,108.7 622.7,114.9 666.5,97.9 710.3,142.1 754.1,162.8 797.9,165.7 841.7,166.7 885.5,165.4 929.3,156.4"/>
  <circle cx="53.1" cy="74.8" r="2.5" fill="#f6ad55" /><circle cx="97.0" cy="47.6" r="2.5" fill="#f6ad55" /><circle cx="140.8" cy="71.1" r="2.5" fill="#f6ad55" /><circle cx="184.6" cy="103.3" r="2.5" fill="#f6ad55" /><circle cx="228.4" cy="124.2" r="2.5" fill="#f6ad55" /><circle cx="272.2" cy="117.9" r="2.5" fill="#f6ad55" /><circle cx="316.0" cy="71.3" r="2.5" fill="#f6ad55" /><circle cx="359.8" cy="95.5" r="2.5" fill="#f6ad55" /><circle cx="403.6" cy="125.1" r="2.5" fill="#f6ad55" /><circle cx="447.4" cy="112.4" r="2.5" fill="#f6ad55" /><circle cx="491.2" cy="83.9" r="2.5" fill="#f6ad55" /><circle cx="535.0" cy="94.5" r="2.5" fill="#f6ad55" /><circle cx="578.9" cy="55.6" r="2.5" fill="#f6ad55" /><circle cx="622.7" cy="53.2" r="2.5" fill="#f6ad55" /><circle cx="666.5" cy="47.3" r="2.5" fill="#f6ad55" /><circle cx="710.3" cy="58.7" r="2.5" fill="#f6ad55" /><circle cx="754.1" cy="74.8" r="2.5" fill="#f6ad55" /><circle cx="797.9" cy="40.0" r="2.5" fill="#f6ad55" /><circle cx="841.7" cy="96.0" r="2.5" fill="#f6ad55" /><circle cx="885.5" cy="123.5" r="2.5" fill="#f6ad55" /><circle cx="929.3" cy="129.0" r="2.5" fill="#f6ad55" />
  <text x="40" y="30" fill="#9aa6b2" font-size="12">Hourly rate: Molts (bars), Likes (line), Views (dots scaled)</text>
  <text x="40" y="310" fill="#9aa6b2" font-size="11">max rate ~840.74 / hour</text>
</svg>