<?xml version="1.0" encoding="UTF-8"?>
<svg xmlns="http://www.w3.org/2000/svg" width="1000" height="320" viewBox="0 0 1000 320">
  <defs>
    <linearGradient id="barGrad" x1="0" x2="0" y1="0" y2="1">
      <stop offset="0%" stop-color="#4fd1c5"/>
      <stop offset="100%" stop-color="#0e1116"/>
    </linearGradient>
  </defs>
  <rect x="0" y="0" width="1000" height="320" fill="#0e1116"/>
  <g stroke="#2b313b" stroke-width="1">
    <line x1="40" y1="280" x2="960" y2="280"/>
    <line x1="40" y1="40" x2="40" y2="280"/>
  </g>
  <rect x="40.0" y="237.1" width="36.8" height="42.9" rx="2" fill="url(#barGrad)" /><rect x="101.3" y="183.9" width="36.8" height="96.1" rx="2" fill="url(#barGrad)" /><rect x="162.7" y="167.4" width="36.8" height="112.6" rx="2" fill="url(#barGrad)" /><rect x="224.0" y="151.9" width="36.8" height="128.1" rx="2" fill="url(#barGrad)" /><rect x="285.3" y="135.5" width="36.8" height="144.5" rx="2" fill="url(#barGrad)" /><rect x="346.7" y="200.1" width="36.8" height="79.9" rx="2" fill="url(#barGrad)" /><rect x="408.0" y="212.0" width="36.8" height="68.0" rx="2" fill="url(#barGrad)" /><rect x="469.3" y="202.3" width="36.8" height="77.7" rx="2" fill="url(#barGrad)" /><rect x="530.7" y="205.0" width="36.8" height="75.0" rx="2" fill="url(#barGrad)" /><rect x="592.0" y="195.7" width="36.8" height="84.3" rx="2" fill="url(#barGrad)" /><rect x="653.3" y="181.9" width="36.8" height="98.1" rx="2" fill="url(#barGrad)" /><rect x="714.7" y="208.6" width="36.8" height="71.4" rx="2" fill="url(#barGrad)" /><rect x="776.0" y="196.9" width="36.8" height="83.1" rx="2" fill="url(#barGrad)" /><rect x="837.3" y="198.5" width="36.8" height="81.5" rx="2" fill="url(#barGrad)" /><rect x="898.7" y="209.6" width="36.8" height="70.4" rx="2" fill="url(#barGrad)" />
  <polyline fill="none" stroke="#63b3ed" stroke-width="2" points="58.4,167.8 119.7,44.0 181.1,40.0 242.4,104.6 303.7,95.7 365.1,83.5 426.4,116.1 487.7,103.8 549.1,113.8 610.4,90.7 671.7,79.4 733.1,99.9 794.4,81.1 855.7,89.1 917.1,62.9"/>
  <circle cx="58.4" cy="74.1" r="2.5" fill="#f6ad55" /><circle cx="119.7" cy="56.1" r="2.5" fill="#f6ad55" /><circle cx="181.1" cy="59.8" r="2.5" fill="#f6ad55" /><circle cx="242.4" cy="68.5" r="2.5" fill="#f6ad55" /><circle cx="303.7" cy="72.9" r="2.5" fill="#f6ad55" /><circle cx="365.1" cy="62.1" r="2.5" fill="#f6ad55" /><circle cx="426.4" cy="76.4" r="2.5" fill="#f6ad55" /><circle cx="487.7" cy="51.8" r="2.5" fill="#f6ad55" /><circle cx="549.1" cy="40.0" r="2.5" fill="#f6ad55" /><circle cx="610.4" cy="67.3" r="2.5" fill="#f6ad55" /><circle cx="671.7" cy="46.1" r="2.5" fill="#f6ad55" /><circle cx="733.1" cy="62.6" r="2.5" fill="#f6ad55" /><circle cx="794.4" cy="56.8" r="2.5" fill="#f6ad55" /><circle cx="855.7" cy="70.1" r="2.5" fill="#f6ad55" /><circle cx="917.1" cy="89.3" r="2.5" fill="#f6ad55" />
  <text x="40" y="30" fill="#9aa6b2" font-size="12">Hourly rate: Molts (bars), Likes (line), Views (dots scaled)</text>
  <text x="40" y="310" fill="#9aa6b2" font-size="11">max rate ~761.42 / hour</text>
</svg>