<?xml version="1.0" encoding="UTF-8"?>
<svg xmlns="http://www.w3.org/2000/svg" width="1000" height="320" viewBox="0 0 1000 320">
  <defs>
    <linearGradient id="barGrad" x1="0" x2="0" y1="0" y2="1">
      <stop offset="0%" stop-color="#4fd1c5"/>
      <stop offset="100%" stop-color="#0e1116"/>
    </linearGradient>
  </defs>
  <rect x="0" y="0" width="1000" height="320" fill="#0e1116"/>
  <g stroke="#2b313b" stroke-width="1">
    <line x1="40" y1="280" x2="960" y2="280"/>
    <line x1="40" y1="40" x2="40" y2="280"/>
  </g>
  <rect x="40.0" y="250.7" width="46.0" height="29.3" rx="2" fill="url(#barGrad)" /><rect x="116.7" y="212.1" width="46.0" height="67.9" rx="2" fill="url(#barGrad)" /><rect x="193.3" y="216.3" width="46.0" height="63.7" rx="2" fill="url(#barGrad)" /><rect x="270.0" y="205.8" width="46.0" height="74.2" rx="2" fill="url(#barGrad)" /><rect x="346.7" y="205.6" width="46.0" height="74.4" rx="2" fill="url(#barGrad)" /><rect x="423.3" y="211.5" width="46.0" height="68.5" rx="2" fill="url(#barGrad)" /><rect x="500.0" y="218.1" width="46.0" height="61.9" rx="2" fill="url(#barGrad)" /><rect x="576.7" y="227.6" width="46.0" height="52.4" rx="2" fill="url(#barGrad)" /><rect x="653.3" y="210.5" width="46.0" height="69.5" rx="2" fill="url(#barGrad)" /><rect x="730.0" y="75.8" width="46.0" height="204.2" rx="2" fill="url(#barGrad)" /><rect x="806.7" y="40.0" width="46.0" height="240.0" rx="2" fill="url(#barGrad)" /><rect x="883.3" y="191.8" width="46.0" height="88.2" rx="2" fill="url(#barGrad)" />
  <polyline fill="none" stroke="#63b3ed" stroke-width="2" points="63.0,170.7 139.7,219.3 216.3,179.9 293.0,166.7 369.7,148.3 446.3,166.9 523.0,148.2 599.7,171.8 676.3,137.4 753.0,123.9 829.7,76.0 906.3,122.4"/>
  <circle cx="63.0" cy="68.1" r="2.5" fill="#f6ad55" /><circle cx="139.7" cy="40.0" r="2.5" fill="#f6ad55" /><circle cx="216.3" cy="64.3" r="2.5" fill="#f6ad55" /><circle cx="293.0" cy="97.6" r="2.5" fill="#f6ad55" /><circle cx="369.7" cy="119.2" r="2.5" fill="#f6ad55" /><circle cx="446.3" cy="112.6" r="2.5" fill="#f6ad55" /><circle cx="523.0" cy="64.5" r="2.5" fill="#f6ad55" /><circle cx="599.7" cy="89.5" r="2.5" fill="#f6ad55" /><circle cx="676.3" cy="120.0" r="2.5" fill="#f6ad55" /><circle cx="753.0" cy="106.9" r="2.5" fill="#f6ad55" /><circle cx="829.7" cy="77.5" r="2.5" fill="#f6ad55" /><circle cx="906.3" cy="88.5" r="2.5" fill="#f6ad55" />
  <text x="40" y="30" fill="#9aa6b2" font-size="12">Hourly rate: Molts (bars), Likes (line), Views (dots scaled)</text>
  <text x="40" y="310" fill="#9aa6b2" font-size="11">max rate ~787.56 / hour</text>
</svg>