<?xml version="1.0" encoding="UTF-8"?>
<svg xmlns="http://www.w3.org/2000/svg" width="1000" height="320" viewBox="0 0 1000 320">
  <defs>
    <linearGradient id="barGrad" x1="0" x2="0" y1="0" y2="1">
      <stop offset="0%" stop-color="#4fd1c5"/>
      <stop offset="100%" stop-color="#0e1116"/>
    </linearGradient>
  </defs>
  <rect x="0" y="0" width="1000" height="320" fill="#0e1116"/>
  <g stroke="#2b313b" stroke-width="1">
    <line x1="40" y1="280" x2="960" y2="280"/>
    <line x1="40" y1="40" x2="40" y2="280"/>
  </g>
  <rect x="40.0" y="260.6" width="23.0" height="19.4" rx="2" fill="url(#barGrad)" /><rect x="78.3" y="216.4" width="23.0" height="63.6" rx="2" fill="url(#barGrad)" /><rect x="116.7" y="229.6" width="23.0" height="50.4" rx="2" fill="url(#barGrad)" /><rect x="155.0" y="232.5" width="23.0" height="47.5" rx="2" fill="url(#barGrad)" /><rect x="193.3" y="221.3" width="23.0" height="58.7" rx="2" fill="url(#barGrad)" /><rect x="231.7" y="225.9" width="23.0" height="54.1" rx="2" fill="url(#barGrad)" /><rect x="270.0" y="230.1" width="23.0" height="49.9" rx="2" fill="url(#barGrad)" /><rect x="308.3" y="222.6" width="23.0" height="57.4" rx="2" fill="url(#barGrad)" /><rect x="346.7" y="130.1" width="23.0" height="149.9" rx="2" fill="url(#barGrad)" /><rect x="385.0" y="216.6" width="23.0" height="63.4" rx="2" fill="url(#barGrad)" /><rect x="423.3" y="206.1" width="23.0" height="73.9" rx="2" fill="url(#barGrad)" /><rect x="461.7" y="184.3" width="23.0" height="95.7" rx="2" fill="url(#barGrad)" /><rect x="500.0" y="193.8" width="23.0" height="86.2" rx="2" fill="url(#barGrad)" /><rect x="538.3" y="227.5" width="23.0" height="52.5" rx="2" fill="url(#barGrad)" /><rect x="576.7" y="213.2" width="23.0" height="66.8" rx="2" fill="url(#barGrad)" /><rect x="615.0" y="230.9" width="23.0" height="49.1" rx="2" fill="url(#barGrad)" /><rect x="653.3" y="205.4" width="23.0" height="74.6" rx="2" fill="url(#barGrad)" /><rect x="691.7" y="176.1" width="23.0" height="103.9" rx="2" fill="url(#barGrad)" /><rect x="730.0" y="195.9" width="23.0" height="84.1" rx="2" fill="url(#barGrad)" /><rect x="768.3" y="174.3" width="23.0" height="105.7" rx="2" fill="url(#barGrad)" /><rect x="806.7" y="201.8" width="23.0" height="78.2" rx="2" fill="url(#barGrad)" /><rect x="845.0" y="174.3" width="23.0" height="105.7" rx="2" fill="url(#barGrad)" /><rect x="883.3" y="177.6" width="23.0" height="102.4" rx="2" fill="url(#barGrad)" /><rect x="921.7" y="202.5" width="23.0" height="77.5" rx="2" fill="url(#barGrad)" />
  <polyline fill="none" stroke="#63b3ed" stroke-width="2" points="51.5,215.7 89.8,155.1 128.2,176.9 166.5,168.8 204.8,160.3 243.2,152.6 281.5,165.3 319.8,164.1 358.2,40.0 396.5,173.9 434.8,167.2 473.2,155.7 511.5,161.7 549.8,159.4 588.2,146.8 626.5,167.7 664.8,130.1 703.2,113.5 741.5,135.0 779.8,142.0 818.2,130.5 856.5,128.1 894.8,122.8 933.2,135.2"/>
  <circle cx="51.5" cy="40.0" r="2.5" fill="#f6ad55" /><circle cx="89.8" cy="75.6" r="2.5" fill="#f6ad55" /><circle cx="128.2" cy="80.5" r="2.5" fill="#f6ad55" /><circle cx="166.5" cy="78.4" r="2.5" fill="#f6ad55" /><circle cx="204.8" cy="70.8" r="2.5" fill="#f6ad55" /><circle cx="243.2" cy="69.7" r="2.5" fill="#f6ad55" /><circle cx="281.5" cy="69.7" r="2.5" fill="#f6ad55" /><circle cx="319.8" cy="89.5" r="2.5" fill="#f6ad55" /><circle cx="358.2" cy="79.7" r="2.5" fill="#f6ad55" /><circle cx="396.5" cy="69.2" r="2.5" fill="#f6ad55" /><circle cx="434.8" cy="73.3" r="2.5" fill="#f6ad55" /><circle cx="473.2" cy="84.1" r="2.5" fill="#f6ad55" /><circle cx="511.5" cy="83.1" r="2.5" fill="#f6ad55" /><circle cx="549.8" cy="71.6" r="2.5" fill="#f6ad55" /><circle cx="588.2" cy="87.0" r="2.5" fill="#f6ad55" /><circle cx="626.5" cy="75.7" r="2.5" fill="#f6ad55" /><circle cx="664.8" cy="77.1" r="2.5" fill="#f6ad55" /><circle cx="703.2" cy="73.4" r="2.5" fill="#f6ad55" /><circle cx="741.5" cy="63.2" r="2.5" fill="#f6ad55" /><circle cx="779.8" cy="47.5" r="2.5" fill="#f6ad55" /><circle cx="818.2" cy="64.1" r="2.5" fill="#f6ad55" /><circle cx="856.5" cy="60.2" r="2.5" fill="#f6ad55" /><circle cx="894.8" cy="47.1" r="2.5" fill="#f6ad55" /><circle cx="933.2" cy="71.5" r="2.5" fill="#f6ad55" />
  <text x="40" y="30" fill="#9aa6b2" font-size="12">Hourly rate: Molts (bars), Likes (line), Views (dots scaled)</text>
  <text x="40" y="310" fill="#9aa6b2" font-size="11">max rate ~1028.14 / hour</text>
</svg>