<?xml version="1.0" encoding="UTF-8"?>
<svg xmlns="http://www.w3.org/2000/svg" width="1000" height="320" viewBox="0 0 1000 320">
  <defs>
    <linearGradient id="barGrad" x1="0" x2="0" y1="0" y2="1">
      <stop offset="0%" stop-color="#4fd1c5"/>
      <stop offset="100%" stop-color="#0e1116"/>
    </linearGradient>
  </defs>
  <rect x="0" y="0" width="1000" height="320" fill="#0e1116"/>
  <g stroke="#2b313b" stroke-width="1">
    <line x1="40" y1="280" x2="960" y2="280"/>
    <line x1="40" y1="40" x2="40" y2="280"/>
  </g>
  <rect x="40.0" y="245.6" width="55.2" height="34.4" rx="2" fill="url(#barGrad)" /><rect x="132.0" y="200.3" width="55.2" height="79.7" rx="2" fill="url(#barGrad)" /><rect x="224.0" y="205.1" width="55.2" height="74.9" rx="2" fill="url(#barGrad)" /><rect x="316.0" y="192.8" width="55.2" height="87.2" rx="2" fill="url(#barGrad)" /><rect x="408.0" y="192.6" width="55.2" height="87.4" rx="2" fill="url(#barGrad)" /><rect x="500.0" y="199.6" width="55.2" height="80.4" rx="2" fill="url(#barGrad)" /><rect x="592.0" y="207.3" width="55.2" height="72.7" rx="2" fill="url(#barGrad)" /><rect x="684.0" y="218.5" width="55.2" height="61.5" rx="2" fill="url(#barGrad)" /><rect x="776.0" y="198.4" width="55.2" height="81.6" rx="2" fill="url(#barGrad)" /><rect x="868.0" y="40.0" width="55.2" height="240.0" rx="2" fill="url(#barGrad)" />
  <polyline fill="none" stroke="#63b3ed" stroke-width="2" points="67.6,151.5 159.6,208.6 251.6,162.4 343.6,146.9 435.6,125.2 527.6,147.1 619.6,125.1 711.6,152.9 803.6,112.4 895.6,96.6"/>
  <circle cx="67.6" cy="68.1" r="2.5" fill="#f6ad55" /><circle cx="159.6" cy="40.0" r="2.5" fill="#f6ad55" /><circle cx="251.6" cy="64.3" r="2.5" fill="#f6ad55" /><circle cx="343.6" cy="97.6" r="2.5" fill="#f6ad55" /><circle cx="435.6" cy="119.2" r="2.5" fill="#f6ad55" /><circle cx="527.6" cy="112.6" r="2.5" fill="#f6ad55" /><circle cx="619.6" cy="64.5" r="2.5" fill="#f6ad55" /><circle cx="711.6" cy="89.5" r="2.5" fill="#f6ad55" /><circle cx="803.6" cy="120.0" r="2.5" fill="#f6ad55" /><circle cx="895.6" cy="106.9" r="2.5" fill="#f6ad55" />
  <text x="40" y="30" fill="#9aa6b2" font-size="12">Hourly rate: Molts (bars), Likes (line), Views (dots scaled)</text>
  <text x="40" y="310" fill="#9aa6b2" font-size="11">max rate ~670.19 / hour</text>
</svg>