<?xml version="1.0" encoding="UTF-8"?>
<svg xmlns="http://www.w3.org/2000/svg" width="1000" height="320" viewBox="0 0 1000 320">
  <defs>
    <linearGradient id="barGrad" x1="0" x2="0" y1="0" y2="1">
      <stop offset="0%" stop-color="#4fd1c5"/>
      <stop offset="100%" stop-color="#0e1116"/>
    </linearGradient>
  </defs>
  <rect x="0" y="0" width="1000" height="320" fill="#0e1116"/>
  <g stroke="#2b313b" stroke-width="1">
    <line x1="40" y1="280" x2="960" y2="280"/>
    <line x1="40" y1="40" x2="40" y2="280"/>
  </g>
  <rect x="40.0" y="218.3" width="24.0" height="61.7" rx="2" fill="url(#barGrad)" /><rect x="80.0" y="165.2" width="24.0" height="114.8" rx="2" fill="url(#barGrad)" /><rect x="120.0" y="194.0" width="24.0" height="86.0" rx="2" fill="url(#barGrad)" /><rect x="160.0" y="185.6" width="24.0" height="94.4" rx="2" fill="url(#barGrad)" /><rect x="200.0" y="159.0" width="24.0" height="121.0" rx="2" fill="url(#barGrad)" /><rect x="240.0" y="119.8" width="24.0" height="160.2" rx="2" fill="url(#barGrad)" /><rect x="280.0" y="149.0" width="24.0" height="131.0" rx="2" fill="url(#barGrad)" /><rect x="320.0" y="174.9" width="24.0" height="105.1" rx="2" fill="url(#barGrad)" /><rect x="360.0" y="175.1" width="24.0" height="104.9" rx="2" fill="url(#barGrad)" /><rect x="400.0" y="161.6" width="24.0" height="118.4" rx="2" fill="url(#barGrad)" /><rect x="440.0" y="142.9" width="24.0" height="137.1" rx="2" fill="url(#barGrad)" /><rect x="480.0" y="163.9" width="24.0" height="116.1" rx="2" fill="url(#barGrad)" /><rect x="520.0" y="166.0" width="24.0" height="114.0" rx="2" fill="url(#barGrad)" /><rect x="560.0" y="169.6" width="24.0" height="110.4" rx="2" fill="url(#barGrad)" /><rect x="600.0" y="150.5" width="24.0" height="129.5" rx="2" fill="url(#barGrad)" /><rect x="640.0" y="160.6" width="24.0" height="119.4" rx="2" fill="url(#barGrad)" /><rect x="680.0" y="170.5" width="24.0" height="109.5" rx="2" fill="url(#barGrad)" /><rect x="720.0" y="172.5" width="24.0" height="107.5" rx="2" fill="url(#barGrad)" /><rect x="760.0" y="155.8" width="24.0" height="124.2" rx="2" fill="url(#barGrad)" /><rect x="800.0" y="135.9" width="24.0" height="144.1" rx="2" fill="url(#barGrad)" /><rect x="840.0" y="159.2" width="24.0" height="120.8" rx="2" fill="url(#barGrad)" /><rect x="880.0" y="190.3" width="24.0" height="89.7" rx="2" fill="url(#barGrad)" /><rect x="920.0" y="183.4" width="24.0" height="96.6" rx="2" fill="url(#barGrad)" />
  <polyline fill="none" stroke="#63b3ed" stroke-width="2" points="52.0,134.4 92.0,48.0 132.0,75.8 172.0,85.7 212.0,95.9 252.0,74.2 292.0,99.2 332.0,84.4 372.0,84.2 412.0,128.3 452.0,116.3 492.0,81.8 532.0,117.0 572.0,111.8 612.0,96.1 652.0,99.0 692.0,75.3 732.0,76.3 772.0,58.6 812.0,40.0 852.0,88.1 892.0,99.2 932.0,84.7"/>
  <circle cx="52.0" cy="69.9" r="2.5" fill="#f6ad55" /><circle cx="92.0" cy="85.0" r="2.5" fill="#f6ad55" /><circle cx="132.0" cy="83.1" r="2.5" fill="#f6ad55" /><circle cx="172.0" cy="70.1" r="2.5" fill="#f6ad55" /><circle cx="212.0" cy="52.2" r="2.5" fill="#f6ad55" /><circle cx="252.0" cy="44.4" r="2.5" fill="#f6ad55" /><circle cx="292.0" cy="54.8" r="2.5" fill="#f6ad55" /><circle cx="332.0" cy="78.2" r="2.5" fill="#f6ad55" /><circle cx="372.0" cy="72.1" r="2.5" fill="#f6ad55" /><circle cx="412.0" cy="70.0" r="2.5" fill="#f6ad55" /><circle cx="452.0" cy="62.4" r="2.5" fill="#f6ad55" /><circle cx="492.0" cy="66.5" r="2.5" fill="#f6ad55" /><circle cx="532.0" cy="49.8" r="2.5" fill="#f6ad55" /><circle cx="572.0" cy="40.0" r="2.5" fill="#f6ad55" /><circle cx="612.0" cy="62.0" r="2.5" fill="#f6ad55" /><circle cx="652.0" cy="70.6" r="2.5" fill="#f6ad55" /><circle cx="692.0" cy="73.0" r="2.5" fill="#f6ad55" /><circle cx="732.0" cy="80.9" r="2.5" fill="#f6ad55" /><circle cx="772.0" cy="85.3" r="2.5" fill="#f6ad55" /><circle cx="812.0" cy="65.1" r="2.5" fill="#f6ad55" /><circle cx="852.0" cy="60.1" r="2.5" fill="#f6ad55" /><circle cx="892.0" cy="53.1" r="2.5" fill="#f6ad55" /><circle cx="932.0" cy="60.0" r="2.5" fill="#f6ad55" />
  <text x="40" y="30" fill="#9aa6b2" font-size="12">Hourly rate: Molts (bars), Likes (line), Views (dots scaled)</text>
  <text x="40" y="310" fill="#9aa6b2" font-size="11">max rate ~694.70 / hour</text>
</svg>