<?xml version="1.0" encoding="UTF-8"?>
<svg xmlns="http://www.w3.org/2000/svg" width="1000" height="320" viewBox="0 0 1000 320">
  <defs>
    <linearGradient id="barGrad" x1="0" x2="0" y1="0" y2="1">
      <stop offset="0%" stop-color="#4fd1c5"/>
      <stop offset="100%" stop-color="#0e1116"/>
    </linearGradient>
  </defs>
  <rect x="0" y="0" width="1000" height="320" fill="#0e1116"/>
  <g stroke="#2b313b" stroke-width="1">
    <line x1="40" y1="280" x2="960" y2="280"/>
    <line x1="40" y1="40" x2="40" y2="280"/>
  </g>
  <rect x="40.0" y="216.2" width="61.3" height="63.8" rx="2" fill="url(#barGrad)" /><rect x="142.2" y="161.3" width="61.3" height="118.7" rx="2" fill="url(#barGrad)" /><rect x="244.4" y="191.1" width="61.3" height="88.9" rx="2" fill="url(#barGrad)" /><rect x="346.7" y="182.4" width="61.3" height="97.6" rx="2" fill="url(#barGrad)" /><rect x="448.9" y="154.9" width="61.3" height="125.1" rx="2" fill="url(#barGrad)" /><rect x="551.1" y="114.3" width="61.3" height="165.7" rx="2" fill="url(#barGrad)" /><rect x="653.3" y="144.5" width="61.3" height="135.5" rx="2" fill="url(#barGrad)" /><rect x="755.6" y="171.3" width="61.3" height="108.7" rx="2" fill="url(#barGrad)" /><rect x="857.8" y="171.5" width="61.3" height="108.5" rx="2" fill="url(#barGrad)" />
  <polyline fill="none" stroke="#63b3ed" stroke-width="2" points="70.7,129.4 172.9,40.0 275.1,68.7 377.3,79.1 479.6,89.6 581.8,67.1 684.0,93.0 786.2,77.7 888.4,77.5"/>
  <circle cx="70.7" cy="66.0" r="2.5" fill="#f6ad55" /><circle cx="172.9" cy="81.4" r="2.5" fill="#f6ad55" /><circle cx="275.1" cy="79.4" r="2.5" fill="#f6ad55" /><circle cx="377.3" cy="66.2" r="2.5" fill="#f6ad55" /><circle cx="479.6" cy="48.0" r="2.5" fill="#f6ad55" /><circle cx="581.8" cy="40.0" r="2.5" fill="#f6ad55" /><circle cx="684.0" cy="50.6" r="2.5" fill="#f6ad55" /><circle cx="786.2" cy="74.5" r="2.5" fill="#f6ad55" /><circle cx="888.4" cy="68.2" r="2.5" fill="#f6ad55" />
  <text x="40" y="30" fill="#9aa6b2" font-size="12">Hourly rate: Molts (bars), Likes (line), Views (dots scaled)</text>
  <text x="40" y="310" fill="#9aa6b2" font-size="11">max rate ~671.63 / hour</text>
</svg>