<?xml version="1.0" encoding="UTF-8"?>
<svg xmlns="http://www.w3.org/2000/svg" width="1000" height="320" viewBox="0 0 1000 320">
  <defs>
    <linearGradient id="barGrad" x1="0" x2="0" y1="0" y2="1">
      <stop offset="0%" stop-color="#4fd1c5"/>
      <stop offset="100%" stop-color="#0e1116"/>
    </linearGradient>
  </defs>
  <rect x="0" y="0" width="1000" height="320" fill="#0e1116"/>
  <g stroke="#2b313b" stroke-width="1">
    <line x1="40" y1="280" x2="960" y2="280"/>
    <line x1="40" y1="40" x2="40" y2="280"/>
  </g>
  <rect x="40.0" y="223.2" width="42.5" height="56.8" rx="2" fill="url(#barGrad)" /><rect x="110.8" y="161.2" width="42.5" height="118.8" rx="2" fill="url(#barGrad)" /><rect x="181.5" y="171.5" width="42.5" height="108.5" rx="2" fill="url(#barGrad)" /><rect x="252.3" y="142.1" width="42.5" height="137.9" rx="2" fill="url(#barGrad)" /><rect x="323.1" y="163.3" width="42.5" height="116.7" rx="2" fill="url(#barGrad)" /><rect x="393.8" y="182.0" width="42.5" height="98.0" rx="2" fill="url(#barGrad)" /><rect x="464.6" y="167.2" width="42.5" height="112.8" rx="2" fill="url(#barGrad)" /><rect x="535.4" y="169.3" width="42.5" height="110.7" rx="2" fill="url(#barGrad)" /><rect x="606.2" y="146.6" width="42.5" height="133.4" rx="2" fill="url(#barGrad)" /><rect x="676.9" y="131.7" width="42.5" height="148.3" rx="2" fill="url(#barGrad)" /><rect x="747.7" y="100.4" width="42.5" height="179.6" rx="2" fill="url(#barGrad)" /><rect x="818.5" y="85.6" width="42.5" height="194.4" rx="2" fill="url(#barGrad)" /><rect x="889.2" y="134.6" width="42.5" height="145.4" rx="2" fill="url(#barGrad)" />
  <polyline fill="none" stroke="#63b3ed" stroke-width="2" points="61.2,148.9 132.0,75.5 202.8,76.9 273.5,40.0 344.3,82.1 415.1,88.5 485.8,60.8 556.6,103.6 627.4,61.8 698.2,55.7 768.9,71.8 839.7,65.6 910.5,55.9"/>
  <circle cx="61.2" cy="40.0" r="2.5" fill="#f6ad55" /><circle cx="132.0" cy="161.6" r="2.5" fill="#f6ad55" /><circle cx="202.8" cy="145.5" r="2.5" fill="#f6ad55" /><circle cx="273.5" cy="146.2" r="2.5" fill="#f6ad55" /><circle cx="344.3" cy="141.6" r="2.5" fill="#f6ad55" /><circle cx="415.1" cy="148.6" r="2.5" fill="#f6ad55" /><circle cx="485.8" cy="160.2" r="2.5" fill="#f6ad55" /><circle cx="556.6" cy="157.9" r="2.5" fill="#f6ad55" /><circle cx="627.4" cy="155.3" r="2.5" fill="#f6ad55" /><circle cx="698.2" cy="129.4" r="2.5" fill="#f6ad55" /><circle cx="768.9" cy="126.4" r="2.5" fill="#f6ad55" /><circle cx="839.7" cy="117.0" r="2.5" fill="#f6ad55" /><circle cx="910.5" cy="114.7" r="2.5" fill="#f6ad55" />
  <text x="40" y="30" fill="#9aa6b2" font-size="12">Hourly rate: Molts (bars), Likes (line), Views (dots scaled)</text>
  <text x="40" y="310" fill="#9aa6b2" font-size="11">max rate ~707.60 / hour</text>
</svg>