<?xml version="1.0" encoding="UTF-8"?>
<svg xmlns="http://www.w3.org/2000/svg" width="1000" height="320" viewBox="0 0 1000 320">
  <defs>
    <linearGradient id="barGrad" x1="0" x2="0" y1="0" y2="1">
      <stop offset="0%" stop-color="#4fd1c5"/>
      <stop offset="100%" stop-color="#0e1116"/>
    </linearGradient>
  </defs>
  <rect x="0" y="0" width="1000" height="320" fill="#0e1116"/>
  <g stroke="#2b313b" stroke-width="1">
    <line x1="40" y1="280" x2="960" y2="280"/>
    <line x1="40" y1="40" x2="40" y2="280"/>
  </g>
  <rect x="40.0" y="233.9" width="27.6" height="46.1" rx="2" fill="url(#barGrad)" /><rect x="86.0" y="202.1" width="27.6" height="77.9" rx="2" fill="url(#barGrad)" /><rect x="132.0" y="215.7" width="27.6" height="64.3" rx="2" fill="url(#barGrad)" /><rect x="178.0" y="204.2" width="27.6" height="75.8" rx="2" fill="url(#barGrad)" /><rect x="224.0" y="206.8" width="27.6" height="73.2" rx="2" fill="url(#barGrad)" /><rect x="270.0" y="205.4" width="27.6" height="74.6" rx="2" fill="url(#barGrad)" /><rect x="316.0" y="178.4" width="27.6" height="101.6" rx="2" fill="url(#barGrad)" /><rect x="362.0" y="206.8" width="27.6" height="73.2" rx="2" fill="url(#barGrad)" /><rect x="408.0" y="198.1" width="27.6" height="81.9" rx="2" fill="url(#barGrad)" /><rect x="454.0" y="194.1" width="27.6" height="85.9" rx="2" fill="url(#barGrad)" /><rect x="500.0" y="199.8" width="27.6" height="80.2" rx="2" fill="url(#barGrad)" /><rect x="546.0" y="214.6" width="27.6" height="65.4" rx="2" fill="url(#barGrad)" /><rect x="592.0" y="173.7" width="27.6" height="106.3" rx="2" fill="url(#barGrad)" /><rect x="638.0" y="190.9" width="27.6" height="89.1" rx="2" fill="url(#barGrad)" /><rect x="684.0" y="176.4" width="27.6" height="103.6" rx="2" fill="url(#barGrad)" /><rect x="730.0" y="183.7" width="27.6" height="96.3" rx="2" fill="url(#barGrad)" /><rect x="776.0" y="150.4" width="27.6" height="129.6" rx="2" fill="url(#barGrad)" /><rect x="822.0" y="172.6" width="27.6" height="107.4" rx="2" fill="url(#barGrad)" /><rect x="868.0" y="197.8" width="27.6" height="82.2" rx="2" fill="url(#barGrad)" /><rect x="914.0" y="214.8" width="27.6" height="65.2" rx="2" fill="url(#barGrad)" />
  <polyline fill="none" stroke="#63b3ed" stroke-width="2" points="53.8,169.1 99.8,110.8 145.8,121.9 191.8,122.5 237.8,113.0 283.8,103.1 329.8,67.7 375.8,122.3 421.8,131.6 467.8,125.4 513.8,120.5 559.8,141.4 605.8,98.1 651.8,110.6 697.8,64.6 743.8,62.7 789.8,44.3 835.8,40.0 881.8,98.5 927.8,94.0"/>
  <circle cx="53.8" cy="40.0" r="2.5" fill="#f6ad55" /><circle cx="99.8" cy="86.6" r="2.5" fill="#f6ad55" /><circle cx="145.8" cy="78.3" r="2.5" fill="#f6ad55" /><circle cx="191.8" cy="81.9" r="2.5" fill="#f6ad55" /><circle cx="237.8" cy="94.8" r="2.5" fill="#f6ad55" /><circle cx="283.8" cy="68.0" r="2.5" fill="#f6ad55" /><circle cx="329.8" cy="99.2" r="2.5" fill="#f6ad55" /><circle cx="375.8" cy="97.0" r="2.5" fill="#f6ad55" /><circle cx="421.8" cy="92.0" r="2.5" fill="#f6ad55" /><circle cx="467.8" cy="87.4" r="2.5" fill="#f6ad55" /><circle cx="513.8" cy="71.3" r="2.5" fill="#f6ad55" /><circle cx="559.8" cy="84.0" r="2.5" fill="#f6ad55" /><circle cx="605.8" cy="82.4" r="2.5" fill="#f6ad55" /><circle cx="651.8" cy="85.0" r="2.5" fill="#f6ad55" /><circle cx="697.8" cy="104.1" r="2.5" fill="#f6ad55" /><circle cx="743.8" cy="90.9" r="2.5" fill="#f6ad55" /><circle cx="789.8" cy="63.4" r="2.5" fill="#f6ad55" /><circle cx="835.8" cy="82.0" r="2.5" fill="#f6ad55" /><circle cx="881.8" cy="72.5" r="2.5" fill="#f6ad55" /><circle cx="927.8" cy="67.4" r="2.5" fill="#f6ad55" />
  <text x="40" y="30" fill="#9aa6b2" font-size="12">Hourly rate: Molts (bars), Likes (line), Views (dots scaled)</text>
  <text x="40" y="310" fill="#9aa6b2" font-size="11">max rate ~907.34 / hour</text>
</svg>