<?xml version="1.0" encoding="UTF-8"?>
<svg xmlns="http://www.w3.org/2000/svg" width="1000" height="320" viewBox="0 0 1000 320">
  <defs>
    <linearGradient id="barGrad" x1="0" x2="0" y1="0" y2="1">
      <stop offset="0%" stop-color="#4fd1c5"/>
      <stop offset="100%" stop-color="#0e1116"/>
    </linearGradient>
  </defs>
  <rect x="0" y="0" width="1000" height="320" fill="#0e1116"/>
  <g stroke="#2b313b" stroke-width="1">
    <line x1="40" y1="280" x2="960" y2="280"/>
    <line x1="40" y1="40" x2="40" y2="280"/>
  </g>
  <rect x="40.0" y="142.3" width="42.5" height="137.7" rx="2" fill="url(#barGrad)" /><rect x="110.8" y="157.3" width="42.5" height="122.7" rx="2" fill="url(#barGrad)" /><rect x="181.5" y="158.1" width="42.5" height="121.9" rx="2" fill="url(#barGrad)" /><rect x="252.3" y="188.3" width="42.5" height="91.7" rx="2" fill="url(#barGrad)" /><rect x="323.1" y="183.0" width="42.5" height="97.0" rx="2" fill="url(#barGrad)" /><rect x="393.8" y="148.2" width="42.5" height="131.8" rx="2" fill="url(#barGrad)" /><rect x="464.6" y="164.6" width="42.5" height="115.4" rx="2" fill="url(#barGrad)" /><rect x="535.4" y="156.8" width="42.5" height="123.2" rx="2" fill="url(#barGrad)" /><rect x="606.2" y="171.3" width="42.5" height="108.7" rx="2" fill="url(#barGrad)" /><rect x="676.9" y="169.6" width="42.5" height="110.4" rx="2" fill="url(#barGrad)" /><rect x="747.7" y="171.2" width="42.5" height="108.8" rx="2" fill="url(#barGrad)" /><rect x="818.5" y="182.6" width="42.5" height="97.4" rx="2" fill="url(#barGrad)" /><rect x="889.2" y="184.5" width="42.5" height="95.5" rx="2" fill="url(#barGrad)" />
  <polyline fill="none" stroke="#63b3ed" stroke-width="2" points="61.2,82.1 132.0,50.2 202.8,63.7 273.5,96.9 344.3,85.6 415.1,63.0 485.8,40.0 556.6,46.4 627.4,73.6 698.2,67.4 768.9,75.5 839.7,87.6 910.5,102.0"/>
  <circle cx="61.2" cy="79.1" r="2.5" fill="#f6ad55" /><circle cx="132.0" cy="83.9" r="2.5" fill="#f6ad55" /><circle cx="202.8" cy="55.0" r="2.5" fill="#f6ad55" /><circle cx="273.5" cy="40.0" r="2.5" fill="#f6ad55" /><circle cx="344.3" cy="83.5" r="2.5" fill="#f6ad55" /><circle cx="415.1" cy="93.5" r="2.5" fill="#f6ad55" /><circle cx="485.8" cy="92.6" r="2.5" fill="#f6ad55" /><circle cx="556.6" cy="95.5" r="2.5" fill="#f6ad55" /><circle cx="627.4" cy="112.8" r="2.5" fill="#f6ad55" /><circle cx="698.2" cy="124.4" r="2.5" fill="#f6ad55" /><circle cx="768.9" cy="98.5" r="2.5" fill="#f6ad55" /><circle cx="839.7" cy="97.2" r="2.5" fill="#f6ad55" /><circle cx="910.5" cy="95.0" r="2.5" fill="#f6ad55" />
  <text x="40" y="30" fill="#9aa6b2" font-size="12">Hourly rate: Molts (bars), Likes (line), Views (dots scaled)</text>
  <text x="40" y="310" fill="#9aa6b2" font-size="11">max rate ~718.37 / hour</text>
</svg>