<?xml version="1.0" encoding="UTF-8"?>
<svg xmlns="http://www.w3.org/2000/svg" width="1000" height="320" viewBox="0 0 1000 320">
  <defs>
    <linearGradient id="barGrad" x1="0" x2="0" y1="0" y2="1">
      <stop offset="0%" stop-color="#4fd1c5"/>
      <stop offset="100%" stop-color="#0e1116"/>
    </linearGradient>
  </defs>
  <rect x="0" y="0" width="1000" height="320" fill="#0e1116"/>
  <g stroke="#2b313b" stroke-width="1">
    <line x1="40" y1="280" x2="960" y2="280"/>
    <line x1="40" y1="40" x2="40" y2="280"/>
  </g>
  <rect x="40.0" y="170.3" width="39.4" height="109.7" rx="2" fill="url(#barGrad)" /><rect x="105.7" y="132.3" width="39.4" height="147.7" rx="2" fill="url(#barGrad)" /><rect x="171.4" y="125.7" width="39.4" height="154.3" rx="2" fill="url(#barGrad)" /><rect x="237.1" y="137.1" width="39.4" height="142.9" rx="2" fill="url(#barGrad)" /><rect x="302.9" y="126.7" width="39.4" height="153.3" rx="2" fill="url(#barGrad)" /><rect x="368.6" y="134.9" width="39.4" height="145.1" rx="2" fill="url(#barGrad)" /><rect x="434.3" y="130.0" width="39.4" height="150.0" rx="2" fill="url(#barGrad)" /><rect x="500.0" y="111.9" width="39.4" height="168.1" rx="2" fill="url(#barGrad)" /><rect x="565.7" y="151.4" width="39.4" height="128.6" rx="2" fill="url(#barGrad)" /><rect x="631.4" y="126.0" width="39.4" height="154.0" rx="2" fill="url(#barGrad)" /><rect x="697.1" y="106.7" width="39.4" height="173.3" rx="2" fill="url(#barGrad)" /><rect x="762.9" y="120.8" width="39.4" height="159.2" rx="2" fill="url(#barGrad)" /><rect x="828.6" y="132.7" width="39.4" height="147.3" rx="2" fill="url(#barGrad)" /><rect x="894.3" y="110.6" width="39.4" height="169.4" rx="2" fill="url(#barGrad)" />
  <polyline fill="none" stroke="#63b3ed" stroke-width="2" points="59.7,139.3 125.4,96.0 191.1,100.0 256.9,112.2 322.6,102.8 388.3,97.1 454.0,58.4 519.7,73.0 585.4,125.0 651.1,107.8 716.9,105.6 782.6,67.5 848.3,66.5 914.0,40.0"/>
  <circle cx="59.7" cy="100.8" r="2.5" fill="#f6ad55" /><circle cx="125.4" cy="64.8" r="2.5" fill="#f6ad55" /><circle cx="191.1" cy="52.4" r="2.5" fill="#f6ad55" /><circle cx="256.9" cy="40.0" r="2.5" fill="#f6ad55" /><circle cx="322.6" cy="45.2" r="2.5" fill="#f6ad55" /><circle cx="388.3" cy="83.8" r="2.5" fill="#f6ad55" /><circle cx="454.0" cy="57.7" r="2.5" fill="#f6ad55" /><circle cx="519.7" cy="87.9" r="2.5" fill="#f6ad55" /><circle cx="585.4" cy="83.5" r="2.5" fill="#f6ad55" /><circle cx="651.1" cy="90.8" r="2.5" fill="#f6ad55" /><circle cx="716.9" cy="91.1" r="2.5" fill="#f6ad55" /><circle cx="782.6" cy="90.8" r="2.5" fill="#f6ad55" /><circle cx="848.3" cy="44.6" r="2.5" fill="#f6ad55" /><circle cx="914.0" cy="85.8" r="2.5" fill="#f6ad55" />
  <text x="40" y="30" fill="#9aa6b2" font-size="12">Hourly rate: Molts (bars), Likes (line), Views (dots scaled)</text>
  <text x="40" y="310" fill="#9aa6b2" font-size="11">max rate ~644.53 / hour</text>
</svg>