<?xml version="1.0" encoding="UTF-8"?>
<svg xmlns="http://www.w3.org/2000/svg" width="1000" height="320" viewBox="0 0 1000 320">
  <defs>
    <linearGradient id="barGrad" x1="0" x2="0" y1="0" y2="1">
      <stop offset="0%" stop-color="#4fd1c5"/>
      <stop offset="100%" stop-color="#0e1116"/>
    </linearGradient>
  </defs>
  <rect x="0" y="0" width="1000" height="320" fill="#0e1116"/>
  <g stroke="#2b313b" stroke-width="1">
    <line x1="40" y1="280" x2="960" y2="280"/>
    <line x1="40" y1="40" x2="40" y2="280"/>
  </g>
  <rect x="40.0" y="255.1" width="36.8" height="24.9" rx="2" fill="url(#barGrad)" /><rect x="101.3" y="190.5" width="36.8" height="89.5" rx="2" fill="url(#barGrad)" /><rect x="162.7" y="210.2" width="36.8" height="69.8" rx="2" fill="url(#barGrad)" /><rect x="224.0" y="196.7" width="36.8" height="83.3" rx="2" fill="url(#barGrad)" /><rect x="285.3" y="191.2" width="36.8" height="88.8" rx="2" fill="url(#barGrad)" /><rect x="346.7" y="181.7" width="36.8" height="98.3" rx="2" fill="url(#barGrad)" /><rect x="408.0" y="170.7" width="36.8" height="109.3" rx="2" fill="url(#barGrad)" /><rect x="469.3" y="170.1" width="36.8" height="109.9" rx="2" fill="url(#barGrad)" /><rect x="530.7" y="206.2" width="36.8" height="73.8" rx="2" fill="url(#barGrad)" /><rect x="592.0" y="198.1" width="36.8" height="81.9" rx="2" fill="url(#barGrad)" /><rect x="653.3" y="189.9" width="36.8" height="90.1" rx="2" fill="url(#barGrad)" /><rect x="714.7" y="193.8" width="36.8" height="86.2" rx="2" fill="url(#barGrad)" /><rect x="776.0" y="182.9" width="36.8" height="97.1" rx="2" fill="url(#barGrad)" /><rect x="837.3" y="172.8" width="36.8" height="107.2" rx="2" fill="url(#barGrad)" /><rect x="898.7" y="172.9" width="36.8" height="107.1" rx="2" fill="url(#barGrad)" />
  <polyline fill="none" stroke="#63b3ed" stroke-width="2" points="58.4,197.2 119.7,59.3 181.1,90.7 242.4,65.9 303.7,70.7 365.1,57.9 426.4,40.0 487.7,51.3 549.1,133.5 610.4,111.0 671.7,112.9 733.1,87.0 794.4,62.2 855.7,63.4 917.1,67.1"/>
  <circle cx="58.4" cy="106.2" r="2.5" fill="#f6ad55" /><circle cx="119.7" cy="101.0" r="2.5" fill="#f6ad55" /><circle cx="181.1" cy="84.0" r="2.5" fill="#f6ad55" /><circle cx="242.4" cy="58.5" r="2.5" fill="#f6ad55" /><circle cx="303.7" cy="62.7" r="2.5" fill="#f6ad55" /><circle cx="365.1" cy="40.0" r="2.5" fill="#f6ad55" /><circle cx="426.4" cy="50.2" r="2.5" fill="#f6ad55" /><circle cx="487.7" cy="50.7" r="2.5" fill="#f6ad55" /><circle cx="549.1" cy="70.0" r="2.5" fill="#f6ad55" /><circle cx="610.4" cy="78.6" r="2.5" fill="#f6ad55" /><circle cx="671.7" cy="90.7" r="2.5" fill="#f6ad55" /><circle cx="733.1" cy="90.6" r="2.5" fill="#f6ad55" /><circle cx="794.4" cy="94.7" r="2.5" fill="#f6ad55" /><circle cx="855.7" cy="103.9" r="2.5" fill="#f6ad55" /><circle cx="917.1" cy="115.0" r="2.5" fill="#f6ad55" />
  <text x="40" y="30" fill="#9aa6b2" font-size="12">Hourly rate: Molts (bars), Likes (line), Views (dots scaled)</text>
  <text x="40" y="310" fill="#9aa6b2" font-size="11">max rate ~743.65 / hour</text>
</svg>