<?xml version="1.0" encoding="UTF-8"?>
<svg xmlns="http://www.w3.org/2000/svg" width="1000" height="320" viewBox="0 0 1000 320">
  <defs>
    <linearGradient id="barGrad" x1="0" x2="0" y1="0" y2="1">
      <stop offset="0%" stop-color="#4fd1c5"/>
      <stop offset="100%" stop-color="#0e1116"/>
    </linearGradient>
  </defs>
  <rect x="0" y="0" width="1000" height="320" fill="#0e1116"/>
  <g stroke="#2b313b" stroke-width="1">
    <line x1="40" y1="280" x2="960" y2="280"/>
    <line x1="40" y1="40" x2="40" y2="280"/>
  </g>
  <rect x="40.0" y="260.6" width="29.1" height="19.4" rx="2" fill="url(#barGrad)" /><rect x="88.4" y="216.4" width="29.1" height="63.6" rx="2" fill="url(#barGrad)" /><rect x="136.8" y="229.6" width="29.1" height="50.4" rx="2" fill="url(#barGrad)" /><rect x="185.3" y="232.5" width="29.1" height="47.5" rx="2" fill="url(#barGrad)" /><rect x="233.7" y="221.3" width="29.1" height="58.7" rx="2" fill="url(#barGrad)" /><rect x="282.1" y="225.9" width="29.1" height="54.1" rx="2" fill="url(#barGrad)" /><rect x="330.5" y="230.1" width="29.1" height="49.9" rx="2" fill="url(#barGrad)" /><rect x="378.9" y="222.6" width="29.1" height="57.4" rx="2" fill="url(#barGrad)" /><rect x="427.4" y="130.1" width="29.1" height="149.9" rx="2" fill="url(#barGrad)" /><rect x="475.8" y="216.6" width="29.1" height="63.4" rx="2" fill="url(#barGrad)" /><rect x="524.2" y="206.1" width="29.1" height="73.9" rx="2" fill="url(#barGrad)" /><rect x="572.6" y="184.3" width="29.1" height="95.7" rx="2" fill="url(#barGrad)" /><rect x="621.1" y="193.8" width="29.1" height="86.2" rx="2" fill="url(#barGrad)" /><rect x="669.5" y="227.5" width="29.1" height="52.5" rx="2" fill="url(#barGrad)" /><rect x="717.9" y="213.2" width="29.1" height="66.8" rx="2" fill="url(#barGrad)" /><rect x="766.3" y="230.9" width="29.1" height="49.1" rx="2" fill="url(#barGrad)" /><rect x="814.7" y="205.4" width="29.1" height="74.6" rx="2" fill="url(#barGrad)" /><rect x="863.2" y="176.1" width="29.1" height="103.9" rx="2" fill="url(#barGrad)" /><rect x="911.6" y="195.9" width="29.1" height="84.1" rx="2" fill="url(#barGrad)" />
  <polyline fill="none" stroke="#63b3ed" stroke-width="2" points="54.5,215.7 102.9,155.1 151.4,176.9 199.8,168.8 248.2,160.3 296.6,152.6 345.1,165.3 393.5,164.1 441.9,40.0 490.3,173.9 538.7,167.2 587.2,155.7 635.6,161.7 684.0,159.4 732.4,146.8 780.8,167.7 829.3,130.1 877.7,113.5 926.1,135.0"/>
  <circle cx="54.5" cy="40.0" r="2.5" fill="#f6ad55" /><circle cx="102.9" cy="75.6" r="2.5" fill="#f6ad55" /><circle cx="151.4" cy="80.5" r="2.5" fill="#f6ad55" /><circle cx="199.8" cy="78.4" r="2.5" fill="#f6ad55" /><circle cx="248.2" cy="70.8" r="2.5" fill="#f6ad55" /><circle cx="296.6" cy="69.7" r="2.5" fill="#f6ad55" /><circle cx="345.1" cy="69.7" r="2.5" fill="#f6ad55" /><circle cx="393.5" cy="89.5" r="2.5" fill="#f6ad55" /><circle cx="441.9" cy="79.7" r="2.5" fill="#f6ad55" /><circle cx="490.3" cy="69.2" r="2.5" fill="#f6ad55" /><circle cx="538.7" cy="73.3" r="2.5" fill="#f6ad55" /><circle cx="587.2" cy="84.1" r="2.5" fill="#f6ad55" /><circle cx="635.6" cy="83.1" r="2.5" fill="#f6ad55" /><circle cx="684.0" cy="71.6" r="2.5" fill="#f6ad55" /><circle cx="732.4" cy="87.0" r="2.5" fill="#f6ad55" /><circle cx="780.8" cy="75.7" r="2.5" fill="#f6ad55" /><circle cx="829.3" cy="77.1" r="2.5" fill="#f6ad55" /><circle cx="877.7" cy="73.4" r="2.5" fill="#f6ad55" /><circle cx="926.1" cy="63.2" r="2.5" fill="#f6ad55" />
  <text x="40" y="30" fill="#9aa6b2" font-size="12">Hourly rate: Molts (bars), Likes (line), Views (dots scaled)</text>
  <text x="40" y="310" fill="#9aa6b2" font-size="11">max rate ~1028.14 / hour</text>
</svg>