<?xml version="1.0" encoding="UTF-8"?>
<svg xmlns="http://www.w3.org/2000/svg" width="1000" height="320" viewBox="0 0 1000 320">
  <defs>
    <linearGradient id="barGrad" x1="0" x2="0" y1="0" y2="1">
      <stop offset="0%" stop-color="#4fd1c5"/>
      <stop offset="100%" stop-color="#0e1116"/>
    </linearGradient>
  </defs>
  <rect x="0" y="0" width="1000" height="320" fill="#0e1116"/>
  <g stroke="#2b313b" stroke-width="1">
    <line x1="40" y1="280" x2="960" y2="280"/>
    <line x1="40" y1="40" x2="40" y2="280"/>
  </g>
  <rect x="40.0" y="237.4" width="24.0" height="42.6" rx="2" fill="url(#barGrad)" /><rect x="80.0" y="184.5" width="24.0" height="95.5" rx="2" fill="url(#barGrad)" /><rect x="120.0" y="168.0" width="24.0" height="112.0" rx="2" fill="url(#barGrad)" /><rect x="160.0" y="152.6" width="24.0" height="127.4" rx="2" fill="url(#barGrad)" /><rect x="200.0" y="136.4" width="24.0" height="143.6" rx="2" fill="url(#barGrad)" /><rect x="240.0" y="200.6" width="24.0" height="79.4" rx="2" fill="url(#barGrad)" /><rect x="280.0" y="212.4" width="24.0" height="67.6" rx="2" fill="url(#barGrad)" /><rect x="320.0" y="202.8" width="24.0" height="77.2" rx="2" fill="url(#barGrad)" /><rect x="360.0" y="205.4" width="24.0" height="74.6" rx="2" fill="url(#barGrad)" /><rect x="400.0" y="196.2" width="24.0" height="83.8" rx="2" fill="url(#barGrad)" /><rect x="440.0" y="182.5" width="24.0" height="97.5" rx="2" fill="url(#barGrad)" /><rect x="480.0" y="209.0" width="24.0" height="71.0" rx="2" fill="url(#barGrad)" /><rect x="520.0" y="197.4" width="24.0" height="82.6" rx="2" fill="url(#barGrad)" /><rect x="560.0" y="199.0" width="24.0" height="81.0" rx="2" fill="url(#barGrad)" /><rect x="600.0" y="215.6" width="24.0" height="64.4" rx="2" fill="url(#barGrad)" /><rect x="640.0" y="217.4" width="24.0" height="62.6" rx="2" fill="url(#barGrad)" /><rect x="680.0" y="213.8" width="24.0" height="66.2" rx="2" fill="url(#barGrad)" /><rect x="720.0" y="207.0" width="24.0" height="73.0" rx="2" fill="url(#barGrad)" /><rect x="760.0" y="213.8" width="24.0" height="66.2" rx="2" fill="url(#barGrad)" /><rect x="800.0" y="196.7" width="24.0" height="83.3" rx="2" fill="url(#barGrad)" /><rect x="840.0" y="213.5" width="24.0" height="66.5" rx="2" fill="url(#barGrad)" /><rect x="880.0" y="211.7" width="24.0" height="68.3" rx="2" fill="url(#barGrad)" /><rect x="920.0" y="173.5" width="24.0" height="106.5" rx="2" fill="url(#barGrad)" />
  <polyline fill="none" stroke="#63b3ed" stroke-width="2" points="52.0,168.4 92.0,45.4 132.0,41.5 172.0,105.7 212.0,96.9 252.0,84.7 292.0,117.1 332.0,104.9 372.0,114.9 412.0,91.8 452.0,80.6 492.0,101.0 532.0,82.3 572.0,90.2 612.0,99.8 652.0,112.8 692.0,126.4 732.0,89.4 772.0,118.8 812.0,40.0 852.0,122.5 892.0,115.1 932.0,56.7"/>
  <circle cx="52.0" cy="74.1" r="2.5" fill="#f6ad55" /><circle cx="92.0" cy="56.1" r="2.5" fill="#f6ad55" /><circle cx="132.0" cy="59.8" r="2.5" fill="#f6ad55" /><circle cx="172.0" cy="68.5" r="2.5" fill="#f6ad55" /><circle cx="212.0" cy="72.9" r="2.5" fill="#f6ad55" /><circle cx="252.0" cy="62.1" r="2.5" fill="#f6ad55" /><circle cx="292.0" cy="76.4" r="2.5" fill="#f6ad55" /><circle cx="332.0" cy="51.8" r="2.5" fill="#f6ad55" /><circle cx="372.0" cy="40.0" r="2.5" fill="#f6ad55" /><circle cx="412.0" cy="67.3" r="2.5" fill="#f6ad55" /><circle cx="452.0" cy="46.1" r="2.5" fill="#f6ad55" /><circle cx="492.0" cy="62.6" r="2.5" fill="#f6ad55" /><circle cx="532.0" cy="56.8" r="2.5" fill="#f6ad55" /><circle cx="572.0" cy="70.1" r="2.5" fill="#f6ad55" /><circle cx="612.0" cy="78.3" r="2.5" fill="#f6ad55" /><circle cx="652.0" cy="76.6" r="2.5" fill="#f6ad55" /><circle cx="692.0" cy="84.3" r="2.5" fill="#f6ad55" /><circle cx="732.0" cy="84.2" r="2.5" fill="#f6ad55" /><circle cx="772.0" cy="72.5" r="2.5" fill="#f6ad55" /><circle cx="812.0" cy="69.4" r="2.5" fill="#f6ad55" /><circle cx="852.0" cy="56.9" r="2.5" fill="#f6ad55" /><circle cx="892.0" cy="55.0" r="2.5" fill="#f6ad55" /><circle cx="932.0" cy="66.0" r="2.5" fill="#f6ad55" />
  <text x="40" y="30" fill="#9aa6b2" font-size="12">Hourly rate: Molts (bars), Likes (line), Views (dots scaled)</text>
  <text x="40" y="310" fill="#9aa6b2" font-size="11">max rate ~766.07 / hour</text>
</svg>