<?xml version="1.0" encoding="UTF-8"?>
<svg xmlns="http://www.w3.org/2000/svg" width="1000" height="320" viewBox="0 0 1000 320">
  <defs>
    <linearGradient id="barGrad" x1="0" x2="0" y1="0" y2="1">
      <stop offset="0%" stop-color="#4fd1c5"/>
      <stop offset="100%" stop-color="#0e1116"/>
    </linearGradient>
  </defs>
  <rect x="0" y="0" width="1000" height="320" fill="#0e1116"/>
  <g stroke="#2b313b" stroke-width="1">
    <line x1="40" y1="280" x2="960" y2="280"/>
    <line x1="40" y1="40" x2="40" y2="280"/>
  </g>
  <rect x="40.0" y="255.1" width="50.2" height="24.9" rx="2" fill="url(#barGrad)" /><rect x="123.6" y="190.5" width="50.2" height="89.5" rx="2" fill="url(#barGrad)" /><rect x="207.3" y="210.2" width="50.2" height="69.8" rx="2" fill="url(#barGrad)" /><rect x="290.9" y="196.7" width="50.2" height="83.3" rx="2" fill="url(#barGrad)" /><rect x="374.5" y="191.2" width="50.2" height="88.8" rx="2" fill="url(#barGrad)" /><rect x="458.2" y="181.7" width="50.2" height="98.3" rx="2" fill="url(#barGrad)" /><rect x="541.8" y="170.7" width="50.2" height="109.3" rx="2" fill="url(#barGrad)" /><rect x="625.5" y="170.1" width="50.2" height="109.9" rx="2" fill="url(#barGrad)" /><rect x="709.1" y="206.2" width="50.2" height="73.8" rx="2" fill="url(#barGrad)" /><rect x="792.7" y="198.1" width="50.2" height="81.9" rx="2" fill="url(#barGrad)" /><rect x="876.4" y="189.9" width="50.2" height="90.1" rx="2" fill="url(#barGrad)" />
  <polyline fill="none" stroke="#63b3ed" stroke-width="2" points="65.1,197.2 148.7,59.3 232.4,90.7 316.0,65.9 399.6,70.7 483.3,57.9 566.9,40.0 650.5,51.3 734.2,133.5 817.8,111.0 901.5,112.9"/>
  <circle cx="65.1" cy="106.2" r="2.5" fill="#f6ad55" /><circle cx="148.7" cy="101.0" r="2.5" fill="#f6ad55" /><circle cx="232.4" cy="84.0" r="2.5" fill="#f6ad55" /><circle cx="316.0" cy="58.5" r="2.5" fill="#f6ad55" /><circle cx="399.6" cy="62.7" r="2.5" fill="#f6ad55" /><circle cx="483.3" cy="40.0" r="2.5" fill="#f6ad55" /><circle cx="566.9" cy="50.2" r="2.5" fill="#f6ad55" /><circle cx="650.5" cy="50.7" r="2.5" fill="#f6ad55" /><circle cx="734.2" cy="70.0" r="2.5" fill="#f6ad55" /><circle cx="817.8" cy="78.6" r="2.5" fill="#f6ad55" /><circle cx="901.5" cy="90.7" r="2.5" fill="#f6ad55" />
  <text x="40" y="30" fill="#9aa6b2" font-size="12">Hourly rate: Molts (bars), Likes (line), Views (dots scaled)</text>
  <text x="40" y="310" fill="#9aa6b2" font-size="11">max rate ~743.65 / hour</text>
</svg>