<?xml version="1.0" encoding="UTF-8"?>
<svg xmlns="http://www.w3.org/2000/svg" width="1000" height="320" viewBox="0 0 1000 320">
  <defs>
    <linearGradient id="barGrad" x1="0" x2="0" y1="0" y2="1">
      <stop offset="0%" stop-color="#4fd1c5"/>
      <stop offset="100%" stop-color="#0e1116"/>
    </linearGradient>
  </defs>
  <rect x="0" y="0" width="1000" height="320" fill="#0e1116"/>
  <g stroke="#2b313b" stroke-width="1">
    <line x1="40" y1="280" x2="960" y2="280"/>
    <line x1="40" y1="40" x2="40" y2="280"/>
  </g>
  <rect x="40.0" y="229.4" width="61.3" height="50.6" rx="2" fill="url(#barGrad)" /><rect x="142.2" y="162.7" width="61.3" height="117.3" rx="2" fill="url(#barGrad)" /><rect x="244.4" y="169.9" width="61.3" height="110.1" rx="2" fill="url(#barGrad)" /><rect x="346.7" y="151.8" width="61.3" height="128.2" rx="2" fill="url(#barGrad)" /><rect x="448.9" y="151.5" width="61.3" height="128.5" rx="2" fill="url(#barGrad)" /><rect x="551.1" y="161.7" width="61.3" height="118.3" rx="2" fill="url(#barGrad)" /><rect x="653.3" y="173.0" width="61.3" height="107.0" rx="2" fill="url(#barGrad)" /><rect x="755.6" y="189.5" width="61.3" height="90.5" rx="2" fill="url(#barGrad)" /><rect x="857.8" y="168.7" width="61.3" height="111.3" rx="2" fill="url(#barGrad)" />
  <polyline fill="none" stroke="#63b3ed" stroke-width="2" points="70.7,91.1 172.9,175.1 275.1,107.0 377.3,84.2 479.6,52.4 581.8,84.6 684.0,52.2 786.2,93.1 888.4,40.0"/>
  <circle cx="70.7" cy="68.1" r="2.5" fill="#f6ad55" /><circle cx="172.9" cy="40.0" r="2.5" fill="#f6ad55" /><circle cx="275.1" cy="64.3" r="2.5" fill="#f6ad55" /><circle cx="377.3" cy="97.6" r="2.5" fill="#f6ad55" /><circle cx="479.6" cy="119.2" r="2.5" fill="#f6ad55" /><circle cx="581.8" cy="112.6" r="2.5" fill="#f6ad55" /><circle cx="684.0" cy="64.5" r="2.5" fill="#f6ad55" /><circle cx="786.2" cy="89.5" r="2.5" fill="#f6ad55" /><circle cx="888.4" cy="120.6" r="2.5" fill="#f6ad55" />
  <text x="40" y="30" fill="#9aa6b2" font-size="12">Hourly rate: Molts (bars), Likes (line), Views (dots scaled)</text>
  <text x="40" y="310" fill="#9aa6b2" font-size="11">max rate ~455.70 / hour</text>
</svg>