<?xml version="1.0" encoding="UTF-8"?>
<svg xmlns="http://www.w3.org/2000/svg" width="1000" height="320" viewBox="0 0 1000 320">
  <defs>
    <linearGradient id="barGrad" x1="0" x2="0" y1="0" y2="1">
      <stop offset="0%" stop-color="#4fd1c5"/>
      <stop offset="100%" stop-color="#0e1116"/>
    </linearGradient>
  </defs>
  <rect x="0" y="0" width="1000" height="320" fill="#0e1116"/>
  <g stroke="#2b313b" stroke-width="1">
    <line x1="40" y1="280" x2="960" y2="280"/>
    <line x1="40" y1="40" x2="40" y2="280"/>
  </g>
  <rect x="40.0" y="40.0" width="61.3" height="240.0" rx="2" fill="url(#barGrad)" /><rect x="142.2" y="130.6" width="61.3" height="149.4" rx="2" fill="url(#barGrad)" /><rect x="244.4" y="264.2" width="61.3" height="15.8" rx="2" fill="url(#barGrad)" /><rect x="346.7" y="263.6" width="61.3" height="16.4" rx="2" fill="url(#barGrad)" /><rect x="448.9" y="259.3" width="61.3" height="20.7" rx="2" fill="url(#barGrad)" /><rect x="551.1" y="256.8" width="61.3" height="23.2" rx="2" fill="url(#barGrad)" /><rect x="653.3" y="263.6" width="61.3" height="16.4" rx="2" fill="url(#barGrad)" /><rect x="755.6" y="258.7" width="61.3" height="21.3" rx="2" fill="url(#barGrad)" /><rect x="857.8" y="263.3" width="61.3" height="16.7" rx="2" fill="url(#barGrad)" />
  <polyline fill="none" stroke="#63b3ed" stroke-width="2" points="70.7,239.6 172.9,244.1 275.1,242.8 377.3,249.5 479.6,241.8 581.8,249.3 684.0,245.9 786.2,253.0 888.4,257.5"/>
  <circle cx="70.7" cy="58.4" r="2.5" fill="#f6ad55" /><circle cx="172.9" cy="41.8" r="2.5" fill="#f6ad55" /><circle cx="275.1" cy="54.4" r="2.5" fill="#f6ad55" /><circle cx="377.3" cy="48.0" r="2.5" fill="#f6ad55" /><circle cx="479.6" cy="45.2" r="2.5" fill="#f6ad55" /><circle cx="581.8" cy="40.0" r="2.5" fill="#f6ad55" /><circle cx="684.0" cy="56.2" r="2.5" fill="#f6ad55" /><circle cx="786.2" cy="73.1" r="2.5" fill="#f6ad55" /><circle cx="888.4" cy="56.1" r="2.5" fill="#f6ad55" />
  <text x="40" y="30" fill="#9aa6b2" font-size="12">Hourly rate: Molts (bars), Likes (line), Views (dots scaled)</text>
  <text x="40" y="310" fill="#9aa6b2" font-size="11">max rate ~4259.25 / hour</text>
</svg>