<?xml version="1.0" encoding="UTF-8"?>
<svg xmlns="http://www.w3.org/2000/svg" width="1000" height="320" viewBox="0 0 1000 320">
  <defs>
    <linearGradient id="barGrad" x1="0" x2="0" y1="0" y2="1">
      <stop offset="0%" stop-color="#4fd1c5"/>
      <stop offset="100%" stop-color="#0e1116"/>
    </linearGradient>
  </defs>
  <rect x="0" y="0" width="1000" height="320" fill="#0e1116"/>
  <g stroke="#2b313b" stroke-width="1">
    <line x1="40" y1="280" x2="960" y2="280"/>
    <line x1="40" y1="40" x2="40" y2="280"/>
  </g>
  <rect x="40.0" y="253.1" width="34.5" height="26.9" rx="2" fill="url(#barGrad)" /><rect x="97.5" y="217.6" width="34.5" height="62.4" rx="2" fill="url(#barGrad)" /><rect x="155.0" y="221.4" width="34.5" height="58.6" rx="2" fill="url(#barGrad)" /><rect x="212.5" y="211.8" width="34.5" height="68.2" rx="2" fill="url(#barGrad)" /><rect x="270.0" y="211.6" width="34.5" height="68.4" rx="2" fill="url(#barGrad)" /><rect x="327.5" y="217.0" width="34.5" height="63.0" rx="2" fill="url(#barGrad)" /><rect x="385.0" y="223.0" width="34.5" height="57.0" rx="2" fill="url(#barGrad)" /><rect x="442.5" y="231.8" width="34.5" height="48.2" rx="2" fill="url(#barGrad)" /><rect x="500.0" y="216.1" width="34.5" height="63.9" rx="2" fill="url(#barGrad)" /><rect x="557.5" y="92.1" width="34.5" height="187.9" rx="2" fill="url(#barGrad)" /><rect x="615.0" y="59.2" width="34.5" height="220.8" rx="2" fill="url(#barGrad)" /><rect x="672.5" y="198.8" width="34.5" height="81.2" rx="2" fill="url(#barGrad)" /><rect x="730.0" y="180.0" width="34.5" height="100.0" rx="2" fill="url(#barGrad)" /><rect x="787.5" y="202.3" width="34.5" height="77.7" rx="2" fill="url(#barGrad)" /><rect x="845.0" y="122.5" width="34.5" height="157.5" rx="2" fill="url(#barGrad)" /><rect x="902.5" y="40.0" width="34.5" height="240.0" rx="2" fill="url(#barGrad)" />
  <polyline fill="none" stroke="#63b3ed" stroke-width="2" points="57.3,179.4 114.8,224.1 172.3,187.9 229.8,175.8 287.3,158.8 344.8,176.0 402.3,158.7 459.8,180.5 517.3,148.8 574.8,136.4 632.3,92.2 689.8,135.0 747.3,111.7 804.8,117.8 862.3,101.1 919.8,145.2"/>
  <circle cx="57.3" cy="68.3" r="2.5" fill="#f6ad55" /><circle cx="114.8" cy="40.3" r="2.5" fill="#f6ad55" /><circle cx="172.3" cy="64.5" r="2.5" fill="#f6ad55" /><circle cx="229.8" cy="97.8" r="2.5" fill="#f6ad55" /><circle cx="287.3" cy="119.4" r="2.5" fill="#f6ad55" /><circle cx="344.8" cy="112.8" r="2.5" fill="#f6ad55" /><circle cx="402.3" cy="64.8" r="2.5" fill="#f6ad55" /><circle cx="459.8" cy="89.7" r="2.5" fill="#f6ad55" /><circle cx="517.3" cy="120.2" r="2.5" fill="#f6ad55" /><circle cx="574.8" cy="107.1" r="2.5" fill="#f6ad55" /><circle cx="632.3" cy="77.7" r="2.5" fill="#f6ad55" /><circle cx="689.8" cy="88.7" r="2.5" fill="#f6ad55" /><circle cx="747.3" cy="48.6" r="2.5" fill="#f6ad55" /><circle cx="804.8" cy="46.1" r="2.5" fill="#f6ad55" /><circle cx="862.3" cy="40.0" r="2.5" fill="#f6ad55" /><circle cx="919.8" cy="68.8" r="2.5" fill="#f6ad55" />
  <text x="40" y="30" fill="#9aa6b2" font-size="12">Hourly rate: Molts (bars), Likes (line), Views (dots scaled)</text>
  <text x="40" y="310" fill="#9aa6b2" font-size="11">max rate ~855.89 / hour</text>
</svg>