<?xml version="1.0" encoding="UTF-8"?>
<svg xmlns="http://www.w3.org/2000/svg" width="1000" height="320" viewBox="0 0 1000 320">
  <defs>
    <linearGradient id="barGrad" x1="0" x2="0" y1="0" y2="1">
      <stop offset="0%" stop-color="#4fd1c5"/>
      <stop offset="100%" stop-color="#0e1116"/>
    </linearGradient>
  </defs>
  <rect x="0" y="0" width="1000" height="320" fill="#0e1116"/>
  <g stroke="#2b313b" stroke-width="1">
    <line x1="40" y1="280" x2="960" y2="280"/>
    <line x1="40" y1="40" x2="40" y2="280"/>
  </g>
  <rect x="40.0" y="260.6" width="22.1" height="19.4" rx="2" fill="url(#barGrad)" /><rect x="76.8" y="216.4" width="22.1" height="63.6" rx="2" fill="url(#barGrad)" /><rect x="113.6" y="229.6" width="22.1" height="50.4" rx="2" fill="url(#barGrad)" /><rect x="150.4" y="232.5" width="22.1" height="47.5" rx="2" fill="url(#barGrad)" /><rect x="187.2" y="221.3" width="22.1" height="58.7" rx="2" fill="url(#barGrad)" /><rect x="224.0" y="225.9" width="22.1" height="54.1" rx="2" fill="url(#barGrad)" /><rect x="260.8" y="230.1" width="22.1" height="49.9" rx="2" fill="url(#barGrad)" /><rect x="297.6" y="222.6" width="22.1" height="57.4" rx="2" fill="url(#barGrad)" /><rect x="334.4" y="130.1" width="22.1" height="149.9" rx="2" fill="url(#barGrad)" /><rect x="371.2" y="216.6" width="22.1" height="63.4" rx="2" fill="url(#barGrad)" /><rect x="408.0" y="206.1" width="22.1" height="73.9" rx="2" fill="url(#barGrad)" /><rect x="444.8" y="184.3" width="22.1" height="95.7" rx="2" fill="url(#barGrad)" /><rect x="481.6" y="193.8" width="22.1" height="86.2" rx="2" fill="url(#barGrad)" /><rect x="518.4" y="227.5" width="22.1" height="52.5" rx="2" fill="url(#barGrad)" /><rect x="555.2" y="213.2" width="22.1" height="66.8" rx="2" fill="url(#barGrad)" /><rect x="592.0" y="230.9" width="22.1" height="49.1" rx="2" fill="url(#barGrad)" /><rect x="628.8" y="205.4" width="22.1" height="74.6" rx="2" fill="url(#barGrad)" /><rect x="665.6" y="176.1" width="22.1" height="103.9" rx="2" fill="url(#barGrad)" /><rect x="702.4" y="195.9" width="22.1" height="84.1" rx="2" fill="url(#barGrad)" /><rect x="739.2" y="174.3" width="22.1" height="105.7" rx="2" fill="url(#barGrad)" /><rect x="776.0" y="201.8" width="22.1" height="78.2" rx="2" fill="url(#barGrad)" /><rect x="812.8" y="174.3" width="22.1" height="105.7" rx="2" fill="url(#barGrad)" /><rect x="849.6" y="177.6" width="22.1" height="102.4" rx="2" fill="url(#barGrad)" /><rect x="886.4" y="202.5" width="22.1" height="77.5" rx="2" fill="url(#barGrad)" /><rect x="923.2" y="212.7" width="22.1" height="67.3" rx="2" fill="url(#barGrad)" />
  <polyline fill="none" stroke="#63b3ed" stroke-width="2" points="51.0,215.7 87.8,155.1 124.6,176.9 161.4,168.8 198.2,160.3 235.0,152.6 271.8,165.3 308.6,164.1 345.4,40.0 382.2,173.9 419.0,167.2 455.8,155.7 492.6,161.7 529.4,159.4 566.2,146.8 603.0,167.7 639.8,130.1 676.6,113.5 713.4,135.0 750.2,142.0 787.0,130.5 823.8,128.1 860.6,122.8 897.4,135.2 934.2,113.8"/>
  <circle cx="51.0" cy="40.0" r="2.5" fill="#f6ad55" /><circle cx="87.8" cy="75.6" r="2.5" fill="#f6ad55" /><circle cx="124.6" cy="80.5" r="2.5" fill="#f6ad55" /><circle cx="161.4" cy="78.4" r="2.5" fill="#f6ad55" /><circle cx="198.2" cy="70.8" r="2.5" fill="#f6ad55" /><circle cx="235.0" cy="69.7" r="2.5" fill="#f6ad55" /><circle cx="271.8" cy="69.7" r="2.5" fill="#f6ad55" /><circle cx="308.6" cy="89.5" r="2.5" fill="#f6ad55" /><circle cx="345.4" cy="79.7" r="2.5" fill="#f6ad55" /><circle cx="382.2" cy="69.2" r="2.5" fill="#f6ad55" /><circle cx="419.0" cy="73.3" r="2.5" fill="#f6ad55" /><circle cx="455.8" cy="84.1" r="2.5" fill="#f6ad55" /><circle cx="492.6" cy="83.1" r="2.5" fill="#f6ad55" /><circle cx="529.4" cy="71.6" r="2.5" fill="#f6ad55" /><circle cx="566.2" cy="87.0" r="2.5" fill="#f6ad55" /><circle cx="603.0" cy="75.7" r="2.5" fill="#f6ad55" /><circle cx="639.8" cy="77.1" r="2.5" fill="#f6ad55" /><circle cx="676.6" cy="73.4" r="2.5" fill="#f6ad55" /><circle cx="713.4" cy="63.2" r="2.5" fill="#f6ad55" /><circle cx="750.2" cy="47.5" r="2.5" fill="#f6ad55" /><circle cx="787.0" cy="64.1" r="2.5" fill="#f6ad55" /><circle cx="823.8" cy="60.2" r="2.5" fill="#f6ad55" /><circle cx="860.6" cy="47.1" r="2.5" fill="#f6ad55" /><circle cx="897.4" cy="71.5" r="2.5" fill="#f6ad55" /><circle cx="934.2" cy="48.5" r="2.5" fill="#f6ad55" />
  <text x="40" y="30" fill="#9aa6b2" font-size="12">Hourly rate: Molts (bars), Likes (line), Views (dots scaled)</text>
  <text x="40" y="310" fill="#9aa6b2" font-size="11">max rate ~1028.14 / hour</text>
</svg>