<?xml version="1.0" encoding="UTF-8"?>
<svg xmlns="http://www.w3.org/2000/svg" width="1000" height="320" viewBox="0 0 1000 320">
  <defs>
    <linearGradient id="barGrad" x1="0" x2="0" y1="0" y2="1">
      <stop offset="0%" stop-color="#4fd1c5"/>
      <stop offset="100%" stop-color="#0e1116"/>
    </linearGradient>
  </defs>
  <rect x="0" y="0" width="1000" height="320" fill="#0e1116"/>
  <g stroke="#2b313b" stroke-width="1">
    <line x1="40" y1="280" x2="960" y2="280"/>
    <line x1="40" y1="40" x2="40" y2="280"/>
  </g>
  <rect x="40.0" y="218.3" width="25.1" height="61.7" rx="2" fill="url(#barGrad)" /><rect x="81.8" y="165.2" width="25.1" height="114.8" rx="2" fill="url(#barGrad)" /><rect x="123.6" y="194.0" width="25.1" height="86.0" rx="2" fill="url(#barGrad)" /><rect x="165.5" y="185.6" width="25.1" height="94.4" rx="2" fill="url(#barGrad)" /><rect x="207.3" y="159.0" width="25.1" height="121.0" rx="2" fill="url(#barGrad)" /><rect x="249.1" y="119.8" width="25.1" height="160.2" rx="2" fill="url(#barGrad)" /><rect x="290.9" y="149.0" width="25.1" height="131.0" rx="2" fill="url(#barGrad)" /><rect x="332.7" y="174.9" width="25.1" height="105.1" rx="2" fill="url(#barGrad)" /><rect x="374.5" y="175.1" width="25.1" height="104.9" rx="2" fill="url(#barGrad)" /><rect x="416.4" y="161.6" width="25.1" height="118.4" rx="2" fill="url(#barGrad)" /><rect x="458.2" y="142.9" width="25.1" height="137.1" rx="2" fill="url(#barGrad)" /><rect x="500.0" y="163.9" width="25.1" height="116.1" rx="2" fill="url(#barGrad)" /><rect x="541.8" y="166.0" width="25.1" height="114.0" rx="2" fill="url(#barGrad)" /><rect x="583.6" y="169.6" width="25.1" height="110.4" rx="2" fill="url(#barGrad)" /><rect x="625.5" y="150.5" width="25.1" height="129.5" rx="2" fill="url(#barGrad)" /><rect x="667.3" y="160.6" width="25.1" height="119.4" rx="2" fill="url(#barGrad)" /><rect x="709.1" y="170.5" width="25.1" height="109.5" rx="2" fill="url(#barGrad)" /><rect x="750.9" y="172.5" width="25.1" height="107.5" rx="2" fill="url(#barGrad)" /><rect x="792.7" y="155.8" width="25.1" height="124.2" rx="2" fill="url(#barGrad)" /><rect x="834.5" y="135.9" width="25.1" height="144.1" rx="2" fill="url(#barGrad)" /><rect x="876.4" y="159.2" width="25.1" height="120.8" rx="2" fill="url(#barGrad)" /><rect x="918.2" y="206.1" width="25.1" height="73.9" rx="2" fill="url(#barGrad)" />
  <polyline fill="none" stroke="#63b3ed" stroke-width="2" points="52.5,134.4 94.4,48.0 136.2,75.8 178.0,85.7 219.8,95.9 261.6,74.2 303.5,99.2 345.3,84.4 387.1,84.2 428.9,128.3 470.7,116.3 512.5,81.8 554.4,117.0 596.2,111.8 638.0,96.1 679.8,99.0 721.6,75.3 763.5,76.3 805.3,58.6 847.1,40.0 888.9,88.1 930.7,107.8"/>
  <circle cx="52.5" cy="69.9" r="2.5" fill="#f6ad55" /><circle cx="94.4" cy="85.0" r="2.5" fill="#f6ad55" /><circle cx="136.2" cy="83.1" r="2.5" fill="#f6ad55" /><circle cx="178.0" cy="70.1" r="2.5" fill="#f6ad55" /><circle cx="219.8" cy="52.2" r="2.5" fill="#f6ad55" /><circle cx="261.6" cy="44.4" r="2.5" fill="#f6ad55" /><circle cx="303.5" cy="54.8" r="2.5" fill="#f6ad55" /><circle cx="345.3" cy="78.2" r="2.5" fill="#f6ad55" /><circle cx="387.1" cy="72.1" r="2.5" fill="#f6ad55" /><circle cx="428.9" cy="70.0" r="2.5" fill="#f6ad55" /><circle cx="470.7" cy="62.4" r="2.5" fill="#f6ad55" /><circle cx="512.5" cy="66.5" r="2.5" fill="#f6ad55" /><circle cx="554.4" cy="49.8" r="2.5" fill="#f6ad55" /><circle cx="596.2" cy="40.0" r="2.5" fill="#f6ad55" /><circle cx="638.0" cy="62.0" r="2.5" fill="#f6ad55" /><circle cx="679.8" cy="70.6" r="2.5" fill="#f6ad55" /><circle cx="721.6" cy="73.0" r="2.5" fill="#f6ad55" /><circle cx="763.5" cy="80.9" r="2.5" fill="#f6ad55" /><circle cx="805.3" cy="85.3" r="2.5" fill="#f6ad55" /><circle cx="847.1" cy="65.1" r="2.5" fill="#f6ad55" /><circle cx="888.9" cy="60.1" r="2.5" fill="#f6ad55" /><circle cx="930.7" cy="87.1" r="2.5" fill="#f6ad55" />
  <text x="40" y="30" fill="#9aa6b2" font-size="12">Hourly rate: Molts (bars), Likes (line), Views (dots scaled)</text>
  <text x="40" y="310" fill="#9aa6b2" font-size="11">max rate ~694.70 / hour</text>
</svg>