<?xml version="1.0" encoding="UTF-8"?>
<svg xmlns="http://www.w3.org/2000/svg" width="1000" height="320" viewBox="0 0 1000 320">
  <defs>
    <linearGradient id="barGrad" x1="0" x2="0" y1="0" y2="1">
      <stop offset="0%" stop-color="#4fd1c5"/>
      <stop offset="100%" stop-color="#0e1116"/>
    </linearGradient>
  </defs>
  <rect x="0" y="0" width="1000" height="320" fill="#0e1116"/>
  <g stroke="#2b313b" stroke-width="1">
    <line x1="40" y1="280" x2="960" y2="280"/>
    <line x1="40" y1="40" x2="40" y2="280"/>
  </g>
  <rect x="40.0" y="260.6" width="42.5" height="19.4" rx="2" fill="url(#barGrad)" /><rect x="110.8" y="216.4" width="42.5" height="63.6" rx="2" fill="url(#barGrad)" /><rect x="181.5" y="229.6" width="42.5" height="50.4" rx="2" fill="url(#barGrad)" /><rect x="252.3" y="232.5" width="42.5" height="47.5" rx="2" fill="url(#barGrad)" /><rect x="323.1" y="221.3" width="42.5" height="58.7" rx="2" fill="url(#barGrad)" /><rect x="393.8" y="225.9" width="42.5" height="54.1" rx="2" fill="url(#barGrad)" /><rect x="464.6" y="230.1" width="42.5" height="49.9" rx="2" fill="url(#barGrad)" /><rect x="535.4" y="222.6" width="42.5" height="57.4" rx="2" fill="url(#barGrad)" /><rect x="606.2" y="130.1" width="42.5" height="149.9" rx="2" fill="url(#barGrad)" /><rect x="676.9" y="216.6" width="42.5" height="63.4" rx="2" fill="url(#barGrad)" /><rect x="747.7" y="206.1" width="42.5" height="73.9" rx="2" fill="url(#barGrad)" /><rect x="818.5" y="184.3" width="42.5" height="95.7" rx="2" fill="url(#barGrad)" /><rect x="889.2" y="193.8" width="42.5" height="86.2" rx="2" fill="url(#barGrad)" />
  <polyline fill="none" stroke="#63b3ed" stroke-width="2" points="61.2,215.7 132.0,155.1 202.8,176.9 273.5,168.8 344.3,160.3 415.1,152.6 485.8,165.3 556.6,164.1 627.4,40.0 698.2,173.9 768.9,167.2 839.7,155.7 910.5,161.7"/>
  <circle cx="61.2" cy="40.0" r="2.5" fill="#f6ad55" /><circle cx="132.0" cy="75.6" r="2.5" fill="#f6ad55" /><circle cx="202.8" cy="80.5" r="2.5" fill="#f6ad55" /><circle cx="273.5" cy="78.4" r="2.5" fill="#f6ad55" /><circle cx="344.3" cy="70.8" r="2.5" fill="#f6ad55" /><circle cx="415.1" cy="69.7" r="2.5" fill="#f6ad55" /><circle cx="485.8" cy="69.7" r="2.5" fill="#f6ad55" /><circle cx="556.6" cy="89.5" r="2.5" fill="#f6ad55" /><circle cx="627.4" cy="79.7" r="2.5" fill="#f6ad55" /><circle cx="698.2" cy="69.2" r="2.5" fill="#f6ad55" /><circle cx="768.9" cy="73.3" r="2.5" fill="#f6ad55" /><circle cx="839.7" cy="84.1" r="2.5" fill="#f6ad55" /><circle cx="910.5" cy="83.1" r="2.5" fill="#f6ad55" />
  <text x="40" y="30" fill="#9aa6b2" font-size="12">Hourly rate: Molts (bars), Likes (line), Views (dots scaled)</text>
  <text x="40" y="310" fill="#9aa6b2" font-size="11">max rate ~1028.14 / hour</text>
</svg>