<?xml version="1.0" encoding="UTF-8"?>
<svg xmlns="http://www.w3.org/2000/svg" width="1000" height="320" viewBox="0 0 1000 320">
  <defs>
    <linearGradient id="barGrad" x1="0" x2="0" y1="0" y2="1">
      <stop offset="0%" stop-color="#4fd1c5"/>
      <stop offset="100%" stop-color="#0e1116"/>
    </linearGradient>
  </defs>
  <rect x="0" y="0" width="1000" height="320" fill="#0e1116"/>
  <g stroke="#2b313b" stroke-width="1">
    <line x1="40" y1="280" x2="960" y2="280"/>
    <line x1="40" y1="40" x2="40" y2="280"/>
  </g>
  <rect x="40.0" y="142.3" width="36.8" height="137.7" rx="2" fill="url(#barGrad)" /><rect x="101.3" y="157.3" width="36.8" height="122.7" rx="2" fill="url(#barGrad)" /><rect x="162.7" y="158.1" width="36.8" height="121.9" rx="2" fill="url(#barGrad)" /><rect x="224.0" y="188.3" width="36.8" height="91.7" rx="2" fill="url(#barGrad)" /><rect x="285.3" y="183.0" width="36.8" height="97.0" rx="2" fill="url(#barGrad)" /><rect x="346.7" y="148.2" width="36.8" height="131.8" rx="2" fill="url(#barGrad)" /><rect x="408.0" y="164.6" width="36.8" height="115.4" rx="2" fill="url(#barGrad)" /><rect x="469.3" y="156.8" width="36.8" height="123.2" rx="2" fill="url(#barGrad)" /><rect x="530.7" y="171.3" width="36.8" height="108.7" rx="2" fill="url(#barGrad)" /><rect x="592.0" y="169.6" width="36.8" height="110.4" rx="2" fill="url(#barGrad)" /><rect x="653.3" y="171.2" width="36.8" height="108.8" rx="2" fill="url(#barGrad)" /><rect x="714.7" y="182.6" width="36.8" height="97.4" rx="2" fill="url(#barGrad)" /><rect x="776.0" y="176.0" width="36.8" height="104.0" rx="2" fill="url(#barGrad)" /><rect x="837.3" y="162.2" width="36.8" height="117.8" rx="2" fill="url(#barGrad)" /><rect x="898.7" y="180.1" width="36.8" height="99.9" rx="2" fill="url(#barGrad)" />
  <polyline fill="none" stroke="#63b3ed" stroke-width="2" points="58.4,82.1 119.7,50.2 181.1,63.7 242.4,96.9 303.7,85.6 365.1,63.0 426.4,40.0 487.7,46.4 549.1,73.6 610.4,67.4 671.7,75.5 733.1,87.6 794.4,93.3 855.7,43.8 917.1,69.1"/>
  <circle cx="58.4" cy="79.1" r="2.5" fill="#f6ad55" /><circle cx="119.7" cy="83.9" r="2.5" fill="#f6ad55" /><circle cx="181.1" cy="55.0" r="2.5" fill="#f6ad55" /><circle cx="242.4" cy="40.0" r="2.5" fill="#f6ad55" /><circle cx="303.7" cy="83.5" r="2.5" fill="#f6ad55" /><circle cx="365.1" cy="93.5" r="2.5" fill="#f6ad55" /><circle cx="426.4" cy="92.6" r="2.5" fill="#f6ad55" /><circle cx="487.7" cy="95.5" r="2.5" fill="#f6ad55" /><circle cx="549.1" cy="112.8" r="2.5" fill="#f6ad55" /><circle cx="610.4" cy="124.4" r="2.5" fill="#f6ad55" /><circle cx="671.7" cy="98.5" r="2.5" fill="#f6ad55" /><circle cx="733.1" cy="97.2" r="2.5" fill="#f6ad55" /><circle cx="794.4" cy="84.7" r="2.5" fill="#f6ad55" /><circle cx="855.7" cy="95.0" r="2.5" fill="#f6ad55" /><circle cx="917.1" cy="125.1" r="2.5" fill="#f6ad55" />
  <text x="40" y="30" fill="#9aa6b2" font-size="12">Hourly rate: Molts (bars), Likes (line), Views (dots scaled)</text>
  <text x="40" y="310" fill="#9aa6b2" font-size="11">max rate ~718.37 / hour</text>
</svg>