<?xml version="1.0" encoding="UTF-8"?>
<svg xmlns="http://www.w3.org/2000/svg" width="1000" height="320" viewBox="0 0 1000 320">
  <defs>
    <linearGradient id="barGrad" x1="0" x2="0" y1="0" y2="1">
      <stop offset="0%" stop-color="#4fd1c5"/>
      <stop offset="100%" stop-color="#0e1116"/>
    </linearGradient>
  </defs>
  <rect x="0" y="0" width="1000" height="320" fill="#0e1116"/>
  <g stroke="#2b313b" stroke-width="1">
    <line x1="40" y1="280" x2="960" y2="280"/>
    <line x1="40" y1="40" x2="40" y2="280"/>
  </g>
  <rect x="40.0" y="227.9" width="55.2" height="52.1" rx="2" fill="url(#barGrad)" /><rect x="132.0" y="192.0" width="55.2" height="88.0" rx="2" fill="url(#barGrad)" /><rect x="224.0" y="207.3" width="55.2" height="72.7" rx="2" fill="url(#barGrad)" /><rect x="316.0" y="194.3" width="55.2" height="85.7" rx="2" fill="url(#barGrad)" /><rect x="408.0" y="197.3" width="55.2" height="82.7" rx="2" fill="url(#barGrad)" /><rect x="500.0" y="195.6" width="55.2" height="84.4" rx="2" fill="url(#barGrad)" /><rect x="592.0" y="165.2" width="55.2" height="114.8" rx="2" fill="url(#barGrad)" /><rect x="684.0" y="197.2" width="55.2" height="82.8" rx="2" fill="url(#barGrad)" /><rect x="776.0" y="187.5" width="55.2" height="92.5" rx="2" fill="url(#barGrad)" /><rect x="868.0" y="182.9" width="55.2" height="97.1" rx="2" fill="url(#barGrad)" />
  <polyline fill="none" stroke="#63b3ed" stroke-width="2" points="67.6,154.6 159.6,88.7 251.6,101.3 343.6,101.9 435.6,91.2 527.6,80.0 619.6,40.0 711.6,101.8 803.6,112.3 895.6,105.2"/>
  <circle cx="67.6" cy="40.0" r="2.5" fill="#f6ad55" /><circle cx="159.6" cy="86.6" r="2.5" fill="#f6ad55" /><circle cx="251.6" cy="78.3" r="2.5" fill="#f6ad55" /><circle cx="343.6" cy="81.9" r="2.5" fill="#f6ad55" /><circle cx="435.6" cy="94.8" r="2.5" fill="#f6ad55" /><circle cx="527.6" cy="68.0" r="2.5" fill="#f6ad55" /><circle cx="619.6" cy="99.2" r="2.5" fill="#f6ad55" /><circle cx="711.6" cy="97.0" r="2.5" fill="#f6ad55" /><circle cx="803.6" cy="92.0" r="2.5" fill="#f6ad55" /><circle cx="895.6" cy="87.4" r="2.5" fill="#f6ad55" />
  <text x="40" y="30" fill="#9aa6b2" font-size="12">Hourly rate: Molts (bars), Likes (line), Views (dots scaled)</text>
  <text x="40" y="310" fill="#9aa6b2" font-size="11">max rate ~802.71 / hour</text>
</svg>