<?xml version="1.0" encoding="UTF-8"?>
<svg xmlns="http://www.w3.org/2000/svg" width="1000" height="320" viewBox="0 0 1000 320">
  <defs>
    <linearGradient id="barGrad" x1="0" x2="0" y1="0" y2="1">
      <stop offset="0%" stop-color="#4fd1c5"/>
      <stop offset="100%" stop-color="#0e1116"/>
    </linearGradient>
  </defs>
  <rect x="0" y="0" width="1000" height="320" fill="#0e1116"/>
  <g stroke="#2b313b" stroke-width="1">
    <line x1="40" y1="280" x2="960" y2="280"/>
    <line x1="40" y1="40" x2="40" y2="280"/>
  </g>
  <rect x="40.0" y="161.1" width="69.0" height="118.9" rx="2" fill="url(#barGrad)" /><rect x="155.0" y="120.0" width="69.0" height="160.0" rx="2" fill="url(#barGrad)" /><rect x="270.0" y="112.9" width="69.0" height="167.1" rx="2" fill="url(#barGrad)" /><rect x="385.0" y="125.3" width="69.0" height="154.7" rx="2" fill="url(#barGrad)" /><rect x="500.0" y="113.9" width="69.0" height="166.1" rx="2" fill="url(#barGrad)" /><rect x="615.0" y="122.8" width="69.0" height="157.2" rx="2" fill="url(#barGrad)" /><rect x="730.0" y="117.5" width="69.0" height="162.5" rx="2" fill="url(#barGrad)" /><rect x="845.0" y="97.9" width="69.0" height="182.1" rx="2" fill="url(#barGrad)" />
  <polyline fill="none" stroke="#63b3ed" stroke-width="2" points="74.5,127.6 189.5,80.7 304.5,85.0 419.5,98.2 534.5,88.1 649.5,81.9 764.5,40.0 879.5,55.8"/>
  <circle cx="74.5" cy="100.8" r="2.5" fill="#f6ad55" /><circle cx="189.5" cy="64.8" r="2.5" fill="#f6ad55" /><circle cx="304.5" cy="52.4" r="2.5" fill="#f6ad55" /><circle cx="419.5" cy="40.0" r="2.5" fill="#f6ad55" /><circle cx="534.5" cy="45.2" r="2.5" fill="#f6ad55" /><circle cx="649.5" cy="83.8" r="2.5" fill="#f6ad55" /><circle cx="764.5" cy="57.7" r="2.5" fill="#f6ad55" /><circle cx="879.5" cy="87.9" r="2.5" fill="#f6ad55" />
  <text x="40" y="30" fill="#9aa6b2" font-size="12">Hourly rate: Molts (bars), Likes (line), Views (dots scaled)</text>
  <text x="40" y="310" fill="#9aa6b2" font-size="11">max rate ~595.01 / hour</text>
</svg>