<?xml version="1.0" encoding="UTF-8"?>
<svg xmlns="http://www.w3.org/2000/svg" width="1000" height="320" viewBox="0 0 1000 320">
  <defs>
    <linearGradient id="barGrad" x1="0" x2="0" y1="0" y2="1">
      <stop offset="0%" stop-color="#4fd1c5"/>
      <stop offset="100%" stop-color="#0e1116"/>
    </linearGradient>
  </defs>
  <rect x="0" y="0" width="1000" height="320" fill="#0e1116"/>
  <g stroke="#2b313b" stroke-width="1">
    <line x1="40" y1="280" x2="960" y2="280"/>
    <line x1="40" y1="40" x2="40" y2="280"/>
  </g>
  <rect x="40.0" y="239.4" width="27.6" height="40.6" rx="2" fill="url(#barGrad)" /><rect x="86.0" y="189.0" width="27.6" height="91.0" rx="2" fill="url(#barGrad)" /><rect x="132.0" y="173.3" width="27.6" height="106.7" rx="2" fill="url(#barGrad)" /><rect x="178.0" y="158.6" width="27.6" height="121.4" rx="2" fill="url(#barGrad)" /><rect x="224.0" y="143.1" width="27.6" height="136.9" rx="2" fill="url(#barGrad)" /><rect x="270.0" y="204.3" width="27.6" height="75.7" rx="2" fill="url(#barGrad)" /><rect x="316.0" y="215.5" width="27.6" height="64.5" rx="2" fill="url(#barGrad)" /><rect x="362.0" y="206.4" width="27.6" height="73.6" rx="2" fill="url(#barGrad)" /><rect x="408.0" y="208.9" width="27.6" height="71.1" rx="2" fill="url(#barGrad)" /><rect x="454.0" y="200.1" width="27.6" height="79.9" rx="2" fill="url(#barGrad)" /><rect x="500.0" y="187.1" width="27.6" height="92.9" rx="2" fill="url(#barGrad)" /><rect x="546.0" y="212.4" width="27.6" height="67.6" rx="2" fill="url(#barGrad)" /><rect x="592.0" y="201.3" width="27.6" height="78.7" rx="2" fill="url(#barGrad)" /><rect x="638.0" y="202.8" width="27.6" height="77.2" rx="2" fill="url(#barGrad)" /><rect x="684.0" y="218.6" width="27.6" height="61.4" rx="2" fill="url(#barGrad)" /><rect x="730.0" y="220.4" width="27.6" height="59.6" rx="2" fill="url(#barGrad)" /><rect x="776.0" y="216.9" width="27.6" height="63.1" rx="2" fill="url(#barGrad)" /><rect x="822.0" y="210.4" width="27.6" height="69.6" rx="2" fill="url(#barGrad)" /><rect x="868.0" y="216.9" width="27.6" height="63.1" rx="2" fill="url(#barGrad)" /><rect x="914.0" y="182.9" width="27.6" height="97.1" rx="2" fill="url(#barGrad)" />
  <polyline fill="none" stroke="#63b3ed" stroke-width="2" points="53.8,173.7 99.8,56.4 145.8,52.6 191.8,113.9 237.8,105.4 283.8,93.9 329.8,124.7 375.8,113.1 421.8,122.6 467.8,100.6 513.8,89.9 559.8,109.4 605.8,91.6 651.8,99.1 697.8,108.2 743.8,120.7 789.8,133.6 835.8,98.4 881.8,126.4 927.8,40.0"/>
  <circle cx="53.8" cy="74.1" r="2.5" fill="#f6ad55" /><circle cx="99.8" cy="56.1" r="2.5" fill="#f6ad55" /><circle cx="145.8" cy="59.8" r="2.5" fill="#f6ad55" /><circle cx="191.8" cy="68.5" r="2.5" fill="#f6ad55" /><circle cx="237.8" cy="72.9" r="2.5" fill="#f6ad55" /><circle cx="283.8" cy="62.1" r="2.5" fill="#f6ad55" /><circle cx="329.8" cy="76.4" r="2.5" fill="#f6ad55" /><circle cx="375.8" cy="51.8" r="2.5" fill="#f6ad55" /><circle cx="421.8" cy="40.0" r="2.5" fill="#f6ad55" /><circle cx="467.8" cy="67.3" r="2.5" fill="#f6ad55" /><circle cx="513.8" cy="46.1" r="2.5" fill="#f6ad55" /><circle cx="559.8" cy="62.6" r="2.5" fill="#f6ad55" /><circle cx="605.8" cy="56.8" r="2.5" fill="#f6ad55" /><circle cx="651.8" cy="70.1" r="2.5" fill="#f6ad55" /><circle cx="697.8" cy="78.3" r="2.5" fill="#f6ad55" /><circle cx="743.8" cy="76.6" r="2.5" fill="#f6ad55" /><circle cx="789.8" cy="84.3" r="2.5" fill="#f6ad55" /><circle cx="835.8" cy="84.2" r="2.5" fill="#f6ad55" /><circle cx="881.8" cy="72.5" r="2.5" fill="#f6ad55" /><circle cx="927.8" cy="63.6" r="2.5" fill="#f6ad55" />
  <text x="40" y="30" fill="#9aa6b2" font-size="12">Hourly rate: Molts (bars), Likes (line), Views (dots scaled)</text>
  <text x="40" y="310" fill="#9aa6b2" font-size="11">max rate ~803.68 / hour</text>
</svg>