<?xml version="1.0" encoding="UTF-8"?>
<svg xmlns="http://www.w3.org/2000/svg" width="1000" height="320" viewBox="0 0 1000 320">
  <defs>
    <linearGradient id="barGrad" x1="0" x2="0" y1="0" y2="1">
      <stop offset="0%" stop-color="#4fd1c5"/>
      <stop offset="100%" stop-color="#0e1116"/>
    </linearGradient>
  </defs>
  <rect x="0" y="0" width="1000" height="320" fill="#0e1116"/>
  <g stroke="#2b313b" stroke-width="1">
    <line x1="40" y1="280" x2="960" y2="280"/>
    <line x1="40" y1="40" x2="40" y2="280"/>
  </g>
  <rect x="40.0" y="161.1" width="46.0" height="118.9" rx="2" fill="url(#barGrad)" /><rect x="116.7" y="120.0" width="46.0" height="160.0" rx="2" fill="url(#barGrad)" /><rect x="193.3" y="112.9" width="46.0" height="167.1" rx="2" fill="url(#barGrad)" /><rect x="270.0" y="125.3" width="46.0" height="154.7" rx="2" fill="url(#barGrad)" /><rect x="346.7" y="113.9" width="46.0" height="166.1" rx="2" fill="url(#barGrad)" /><rect x="423.3" y="122.8" width="46.0" height="157.2" rx="2" fill="url(#barGrad)" /><rect x="500.0" y="117.5" width="46.0" height="162.5" rx="2" fill="url(#barGrad)" /><rect x="576.7" y="97.9" width="46.0" height="182.1" rx="2" fill="url(#barGrad)" /><rect x="653.3" y="140.7" width="46.0" height="139.3" rx="2" fill="url(#barGrad)" /><rect x="730.0" y="113.1" width="46.0" height="166.9" rx="2" fill="url(#barGrad)" /><rect x="806.7" y="92.3" width="46.0" height="187.7" rx="2" fill="url(#barGrad)" /><rect x="883.3" y="83.7" width="46.0" height="196.3" rx="2" fill="url(#barGrad)" />
  <polyline fill="none" stroke="#63b3ed" stroke-width="2" points="63.0,127.6 139.7,80.7 216.3,85.0 293.0,98.2 369.7,88.1 446.3,81.9 523.0,40.0 599.7,55.8 676.3,112.1 753.0,93.5 829.7,91.0 906.3,56.3"/>
  <circle cx="63.0" cy="100.8" r="2.5" fill="#f6ad55" /><circle cx="139.7" cy="64.8" r="2.5" fill="#f6ad55" /><circle cx="216.3" cy="52.4" r="2.5" fill="#f6ad55" /><circle cx="293.0" cy="40.0" r="2.5" fill="#f6ad55" /><circle cx="369.7" cy="45.2" r="2.5" fill="#f6ad55" /><circle cx="446.3" cy="83.8" r="2.5" fill="#f6ad55" /><circle cx="523.0" cy="57.7" r="2.5" fill="#f6ad55" /><circle cx="599.7" cy="87.9" r="2.5" fill="#f6ad55" /><circle cx="676.3" cy="83.5" r="2.5" fill="#f6ad55" /><circle cx="753.0" cy="90.8" r="2.5" fill="#f6ad55" /><circle cx="829.7" cy="91.1" r="2.5" fill="#f6ad55" /><circle cx="906.3" cy="86.2" r="2.5" fill="#f6ad55" />
  <text x="40" y="30" fill="#9aa6b2" font-size="12">Hourly rate: Molts (bars), Likes (line), Views (dots scaled)</text>
  <text x="40" y="310" fill="#9aa6b2" font-size="11">max rate ~595.01 / hour</text>
</svg>