<?xml version="1.0" encoding="UTF-8"?>
<svg xmlns="http://www.w3.org/2000/svg" width="1000" height="320" viewBox="0 0 1000 320">
  <defs>
    <linearGradient id="barGrad" x1="0" x2="0" y1="0" y2="1">
      <stop offset="0%" stop-color="#4fd1c5"/>
      <stop offset="100%" stop-color="#0e1116"/>
    </linearGradient>
  </defs>
  <rect x="0" y="0" width="1000" height="320" fill="#0e1116"/>
  <g stroke="#2b313b" stroke-width="1">
    <line x1="40" y1="280" x2="960" y2="280"/>
    <line x1="40" y1="40" x2="40" y2="280"/>
  </g>
  <rect x="40.0" y="142.3" width="55.2" height="137.7" rx="2" fill="url(#barGrad)" /><rect x="132.0" y="157.3" width="55.2" height="122.7" rx="2" fill="url(#barGrad)" /><rect x="224.0" y="158.1" width="55.2" height="121.9" rx="2" fill="url(#barGrad)" /><rect x="316.0" y="188.3" width="55.2" height="91.7" rx="2" fill="url(#barGrad)" /><rect x="408.0" y="183.0" width="55.2" height="97.0" rx="2" fill="url(#barGrad)" /><rect x="500.0" y="148.2" width="55.2" height="131.8" rx="2" fill="url(#barGrad)" /><rect x="592.0" y="164.6" width="55.2" height="115.4" rx="2" fill="url(#barGrad)" /><rect x="684.0" y="156.8" width="55.2" height="123.2" rx="2" fill="url(#barGrad)" /><rect x="776.0" y="171.3" width="55.2" height="108.7" rx="2" fill="url(#barGrad)" /><rect x="868.0" y="169.6" width="55.2" height="110.4" rx="2" fill="url(#barGrad)" />
  <polyline fill="none" stroke="#63b3ed" stroke-width="2" points="67.6,82.1 159.6,50.2 251.6,63.7 343.6,96.9 435.6,85.6 527.6,63.0 619.6,40.0 711.6,46.4 803.6,73.6 895.6,67.4"/>
  <circle cx="67.6" cy="79.1" r="2.5" fill="#f6ad55" /><circle cx="159.6" cy="83.9" r="2.5" fill="#f6ad55" /><circle cx="251.6" cy="55.0" r="2.5" fill="#f6ad55" /><circle cx="343.6" cy="40.0" r="2.5" fill="#f6ad55" /><circle cx="435.6" cy="83.5" r="2.5" fill="#f6ad55" /><circle cx="527.6" cy="93.5" r="2.5" fill="#f6ad55" /><circle cx="619.6" cy="92.6" r="2.5" fill="#f6ad55" /><circle cx="711.6" cy="95.5" r="2.5" fill="#f6ad55" /><circle cx="803.6" cy="112.8" r="2.5" fill="#f6ad55" /><circle cx="895.6" cy="124.4" r="2.5" fill="#f6ad55" />
  <text x="40" y="30" fill="#9aa6b2" font-size="12">Hourly rate: Molts (bars), Likes (line), Views (dots scaled)</text>
  <text x="40" y="310" fill="#9aa6b2" font-size="11">max rate ~718.37 / hour</text>
</svg>