<?xml version="1.0" encoding="UTF-8"?>
<svg xmlns="http://www.w3.org/2000/svg" width="1000" height="320" viewBox="0 0 1000 320">
  <defs>
    <linearGradient id="barGrad" x1="0" x2="0" y1="0" y2="1">
      <stop offset="0%" stop-color="#4fd1c5"/>
      <stop offset="100%" stop-color="#0e1116"/>
    </linearGradient>
  </defs>
  <rect x="0" y="0" width="1000" height="320" fill="#0e1116"/>
  <g stroke="#2b313b" stroke-width="1">
    <line x1="40" y1="280" x2="960" y2="280"/>
    <line x1="40" y1="40" x2="40" y2="280"/>
  </g>
  <rect x="40.0" y="40.0" width="22.1" height="240.0" rx="2" fill="url(#barGrad)" /><rect x="76.8" y="130.6" width="22.1" height="149.4" rx="2" fill="url(#barGrad)" /><rect x="113.6" y="264.2" width="22.1" height="15.8" rx="2" fill="url(#barGrad)" /><rect x="150.4" y="263.6" width="22.1" height="16.4" rx="2" fill="url(#barGrad)" /><rect x="187.2" y="259.3" width="22.1" height="20.7" rx="2" fill="url(#barGrad)" /><rect x="224.0" y="256.8" width="22.1" height="23.2" rx="2" fill="url(#barGrad)" /><rect x="260.8" y="263.6" width="22.1" height="16.4" rx="2" fill="url(#barGrad)" /><rect x="297.6" y="258.7" width="22.1" height="21.3" rx="2" fill="url(#barGrad)" /><rect x="334.4" y="262.3" width="22.1" height="17.7" rx="2" fill="url(#barGrad)" /><rect x="371.2" y="258.4" width="22.1" height="21.6" rx="2" fill="url(#barGrad)" /><rect x="408.0" y="258.7" width="22.1" height="21.3" rx="2" fill="url(#barGrad)" /><rect x="444.8" y="233.1" width="22.1" height="46.9" rx="2" fill="url(#barGrad)" /><rect x="481.6" y="178.1" width="22.1" height="101.9" rx="2" fill="url(#barGrad)" /><rect x="518.4" y="236.0" width="22.1" height="44.0" rx="2" fill="url(#barGrad)" /><rect x="555.2" y="590.6" width="22.1" height="-310.6" rx="2" fill="url(#barGrad)" /><rect x="592.0" y="262.8" width="22.1" height="17.2" rx="2" fill="url(#barGrad)" /><rect x="628.8" y="260.5" width="22.1" height="19.5" rx="2" fill="url(#barGrad)" /><rect x="665.6" y="262.2" width="22.1" height="17.8" rx="2" fill="url(#barGrad)" /><rect x="702.4" y="246.0" width="22.1" height="34.0" rx="2" fill="url(#barGrad)" /><rect x="739.2" y="265.2" width="22.1" height="14.8" rx="2" fill="url(#barGrad)" /><rect x="776.0" y="260.6" width="22.1" height="19.4" rx="2" fill="url(#barGrad)" /><rect x="812.8" y="266.3" width="22.1" height="13.7" rx="2" fill="url(#barGrad)" /><rect x="849.6" y="266.4" width="22.1" height="13.6" rx="2" fill="url(#barGrad)" /><rect x="886.4" y="267.5" width="22.1" height="12.5" rx="2" fill="url(#barGrad)" /><rect x="923.2" y="265.1" width="22.1" height="14.9" rx="2" fill="url(#barGrad)" />
  <polyline fill="none" stroke="#63b3ed" stroke-width="2" points="51.0,239.6 87.8,244.1 124.6,242.8 161.4,249.5 198.2,241.8 235.0,249.3 271.8,245.9 308.6,253.0 345.4,256.6 382.2,247.6 419.0,246.5 455.8,243.3 492.6,239.7 529.4,222.8 566.2,252.3 603.0,249.6 639.8,244.0 676.6,242.5 713.4,232.6 750.2,240.9 787.0,233.1 823.8,247.5 860.6,245.3 897.4,244.5 934.2,244.4"/>
  <circle cx="51.0" cy="72.2" r="2.5" fill="#f6ad55" /><circle cx="87.8" cy="56.7" r="2.5" fill="#f6ad55" /><circle cx="124.6" cy="68.5" r="2.5" fill="#f6ad55" /><circle cx="161.4" cy="62.5" r="2.5" fill="#f6ad55" /><circle cx="198.2" cy="59.9" r="2.5" fill="#f6ad55" /><circle cx="235.0" cy="55.0" r="2.5" fill="#f6ad55" /><circle cx="271.8" cy="70.1" r="2.5" fill="#f6ad55" /><circle cx="308.6" cy="86.0" r="2.5" fill="#f6ad55" /><circle cx="345.4" cy="79.6" r="2.5" fill="#f6ad55" /><circle cx="382.2" cy="102.3" r="2.5" fill="#f6ad55" /><circle cx="419.0" cy="87.4" r="2.5" fill="#f6ad55" /><circle cx="455.8" cy="92.7" r="2.5" fill="#f6ad55" /><circle cx="492.6" cy="67.5" r="2.5" fill="#f6ad55" /><circle cx="529.4" cy="101.7" r="2.5" fill="#f6ad55" /><circle cx="566.2" cy="99.4" r="2.5" fill="#f6ad55" /><circle cx="603.0" cy="81.9" r="2.5" fill="#f6ad55" /><circle cx="639.8" cy="63.0" r="2.5" fill="#f6ad55" /><circle cx="676.6" cy="53.8" r="2.5" fill="#f6ad55" /><circle cx="713.4" cy="43.4" r="2.5" fill="#f6ad55" /><circle cx="750.2" cy="46.3" r="2.5" fill="#f6ad55" /><circle cx="787.0" cy="40.0" r="2.5" fill="#f6ad55" /><circle cx="823.8" cy="90.8" r="2.5" fill="#f6ad55" /><circle cx="860.6" cy="58.8" r="2.5" fill="#f6ad55" /><circle cx="897.4" cy="52.5" r="2.5" fill="#f6ad55" /><circle cx="934.2" cy="86.5" r="2.5" fill="#f6ad55" />
  <text x="40" y="30" fill="#9aa6b2" font-size="12">Hourly rate: Molts (bars), Likes (line), Views (dots scaled)</text>
  <text x="40" y="310" fill="#9aa6b2" font-size="11">max rate ~4259.25 / hour</text>
</svg>