<?xml version="1.0" encoding="UTF-8"?>
<svg xmlns="http://www.w3.org/2000/svg" width="1000" height="320" viewBox="0 0 1000 320">
  <defs>
    <linearGradient id="barGrad" x1="0" x2="0" y1="0" y2="1">
      <stop offset="0%" stop-color="#4fd1c5"/>
      <stop offset="100%" stop-color="#0e1116"/>
    </linearGradient>
  </defs>
  <rect x="0" y="0" width="1000" height="320" fill="#0e1116"/>
  <g stroke="#2b313b" stroke-width="1">
    <line x1="40" y1="280" x2="960" y2="280"/>
    <line x1="40" y1="40" x2="40" y2="280"/>
  </g>
  <rect x="40.0" y="237.4" width="25.1" height="42.6" rx="2" fill="url(#barGrad)" /><rect x="81.8" y="184.5" width="25.1" height="95.5" rx="2" fill="url(#barGrad)" /><rect x="123.6" y="168.0" width="25.1" height="112.0" rx="2" fill="url(#barGrad)" /><rect x="165.5" y="152.6" width="25.1" height="127.4" rx="2" fill="url(#barGrad)" /><rect x="207.3" y="136.4" width="25.1" height="143.6" rx="2" fill="url(#barGrad)" /><rect x="249.1" y="200.6" width="25.1" height="79.4" rx="2" fill="url(#barGrad)" /><rect x="290.9" y="212.4" width="25.1" height="67.6" rx="2" fill="url(#barGrad)" /><rect x="332.7" y="202.8" width="25.1" height="77.2" rx="2" fill="url(#barGrad)" /><rect x="374.5" y="205.4" width="25.1" height="74.6" rx="2" fill="url(#barGrad)" /><rect x="416.4" y="196.2" width="25.1" height="83.8" rx="2" fill="url(#barGrad)" /><rect x="458.2" y="182.5" width="25.1" height="97.5" rx="2" fill="url(#barGrad)" /><rect x="500.0" y="209.0" width="25.1" height="71.0" rx="2" fill="url(#barGrad)" /><rect x="541.8" y="197.4" width="25.1" height="82.6" rx="2" fill="url(#barGrad)" /><rect x="583.6" y="199.0" width="25.1" height="81.0" rx="2" fill="url(#barGrad)" /><rect x="625.5" y="215.6" width="25.1" height="64.4" rx="2" fill="url(#barGrad)" /><rect x="667.3" y="217.4" width="25.1" height="62.6" rx="2" fill="url(#barGrad)" /><rect x="709.1" y="213.8" width="25.1" height="66.2" rx="2" fill="url(#barGrad)" /><rect x="750.9" y="207.0" width="25.1" height="73.0" rx="2" fill="url(#barGrad)" /><rect x="792.7" y="213.8" width="25.1" height="66.2" rx="2" fill="url(#barGrad)" /><rect x="834.5" y="196.7" width="25.1" height="83.3" rx="2" fill="url(#barGrad)" /><rect x="876.4" y="213.5" width="25.1" height="66.5" rx="2" fill="url(#barGrad)" /><rect x="918.2" y="209.2" width="25.1" height="70.8" rx="2" fill="url(#barGrad)" />
  <polyline fill="none" stroke="#63b3ed" stroke-width="2" points="52.5,168.4 94.4,45.4 136.2,41.5 178.0,105.7 219.8,96.9 261.6,84.7 303.5,117.1 345.3,104.9 387.1,114.9 428.9,91.8 470.7,80.6 512.5,101.0 554.4,82.3 596.2,90.2 638.0,99.8 679.8,112.8 721.6,126.4 763.5,89.4 805.3,118.8 847.1,40.0 888.9,122.5 930.7,107.9"/>
  <circle cx="52.5" cy="74.1" r="2.5" fill="#f6ad55" /><circle cx="94.4" cy="56.1" r="2.5" fill="#f6ad55" /><circle cx="136.2" cy="59.8" r="2.5" fill="#f6ad55" /><circle cx="178.0" cy="68.5" r="2.5" fill="#f6ad55" /><circle cx="219.8" cy="72.9" r="2.5" fill="#f6ad55" /><circle cx="261.6" cy="62.1" r="2.5" fill="#f6ad55" /><circle cx="303.5" cy="76.4" r="2.5" fill="#f6ad55" /><circle cx="345.3" cy="51.8" r="2.5" fill="#f6ad55" /><circle cx="387.1" cy="40.0" r="2.5" fill="#f6ad55" /><circle cx="428.9" cy="67.3" r="2.5" fill="#f6ad55" /><circle cx="470.7" cy="46.1" r="2.5" fill="#f6ad55" /><circle cx="512.5" cy="62.6" r="2.5" fill="#f6ad55" /><circle cx="554.4" cy="56.8" r="2.5" fill="#f6ad55" /><circle cx="596.2" cy="70.1" r="2.5" fill="#f6ad55" /><circle cx="638.0" cy="78.3" r="2.5" fill="#f6ad55" /><circle cx="679.8" cy="76.6" r="2.5" fill="#f6ad55" /><circle cx="721.6" cy="84.3" r="2.5" fill="#f6ad55" /><circle cx="763.5" cy="84.2" r="2.5" fill="#f6ad55" /><circle cx="805.3" cy="72.5" r="2.5" fill="#f6ad55" /><circle cx="847.1" cy="69.4" r="2.5" fill="#f6ad55" /><circle cx="888.9" cy="56.9" r="2.5" fill="#f6ad55" /><circle cx="930.7" cy="74.3" r="2.5" fill="#f6ad55" />
  <text x="40" y="30" fill="#9aa6b2" font-size="12">Hourly rate: Molts (bars), Likes (line), Views (dots scaled)</text>
  <text x="40" y="310" fill="#9aa6b2" font-size="11">max rate ~766.07 / hour</text>
</svg>