<?xml version="1.0" encoding="UTF-8"?>
<svg xmlns="http://www.w3.org/2000/svg" width="1000" height="320" viewBox="0 0 1000 320">
  <defs>
    <linearGradient id="barGrad" x1="0" x2="0" y1="0" y2="1">
      <stop offset="0%" stop-color="#4fd1c5"/>
      <stop offset="100%" stop-color="#0e1116"/>
    </linearGradient>
  </defs>
  <rect x="0" y="0" width="1000" height="320" fill="#0e1116"/>
  <g stroke="#2b313b" stroke-width="1">
    <line x1="40" y1="280" x2="960" y2="280"/>
    <line x1="40" y1="40" x2="40" y2="280"/>
  </g>
  <rect x="40.0" y="252.6" width="22.1" height="27.4" rx="2" fill="url(#barGrad)" /><rect x="76.8" y="216.4" width="22.1" height="63.6" rx="2" fill="url(#barGrad)" /><rect x="113.6" y="220.3" width="22.1" height="59.7" rx="2" fill="url(#barGrad)" /><rect x="150.4" y="210.5" width="22.1" height="69.5" rx="2" fill="url(#barGrad)" /><rect x="187.2" y="210.3" width="22.1" height="69.7" rx="2" fill="url(#barGrad)" /><rect x="224.0" y="215.9" width="22.1" height="64.1" rx="2" fill="url(#barGrad)" /><rect x="260.8" y="222.0" width="22.1" height="58.0" rx="2" fill="url(#barGrad)" /><rect x="297.6" y="230.9" width="22.1" height="49.1" rx="2" fill="url(#barGrad)" /><rect x="334.4" y="214.9" width="22.1" height="65.1" rx="2" fill="url(#barGrad)" /><rect x="371.2" y="88.7" width="22.1" height="191.3" rx="2" fill="url(#barGrad)" /><rect x="408.0" y="55.2" width="22.1" height="224.8" rx="2" fill="url(#barGrad)" /><rect x="444.8" y="197.4" width="22.1" height="82.6" rx="2" fill="url(#barGrad)" /><rect x="481.6" y="178.2" width="22.1" height="101.8" rx="2" fill="url(#barGrad)" /><rect x="518.4" y="200.9" width="22.1" height="79.1" rx="2" fill="url(#barGrad)" /><rect x="555.2" y="119.6" width="22.1" height="160.4" rx="2" fill="url(#barGrad)" /><rect x="592.0" y="40.0" width="22.1" height="240.0" rx="2" fill="url(#barGrad)" /><rect x="628.8" y="164.9" width="22.1" height="115.1" rx="2" fill="url(#barGrad)" /><rect x="665.6" y="180.2" width="22.1" height="99.8" rx="2" fill="url(#barGrad)" /><rect x="702.4" y="173.0" width="22.1" height="107.0" rx="2" fill="url(#barGrad)" /><rect x="739.2" y="163.9" width="22.1" height="116.1" rx="2" fill="url(#barGrad)" /><rect x="776.0" y="176.3" width="22.1" height="103.7" rx="2" fill="url(#barGrad)" /><rect x="812.8" y="183.5" width="22.1" height="96.5" rx="2" fill="url(#barGrad)" /><rect x="849.6" y="207.4" width="22.1" height="72.6" rx="2" fill="url(#barGrad)" /><rect x="886.4" y="201.3" width="22.1" height="78.7" rx="2" fill="url(#barGrad)" /><rect x="923.2" y="221.0" width="22.1" height="59.0" rx="2" fill="url(#barGrad)" />
  <polyline fill="none" stroke="#63b3ed" stroke-width="2" points="51.0,177.6 87.8,223.1 124.6,186.2 161.4,173.9 198.2,156.6 235.0,174.1 271.8,156.5 308.6,178.7 345.4,146.4 382.2,133.8 419.0,88.9 455.8,132.4 492.6,108.7 529.4,114.9 566.2,97.9 603.0,142.1 639.8,162.8 676.6,165.7 713.4,166.7 750.2,165.4 787.0,156.4 823.8,159.1 860.6,154.3 897.4,152.0 934.2,159.7"/>
  <circle cx="51.0" cy="74.8" r="2.5" fill="#f6ad55" /><circle cx="87.8" cy="47.6" r="2.5" fill="#f6ad55" /><circle cx="124.6" cy="71.1" r="2.5" fill="#f6ad55" /><circle cx="161.4" cy="103.3" r="2.5" fill="#f6ad55" /><circle cx="198.2" cy="124.2" r="2.5" fill="#f6ad55" /><circle cx="235.0" cy="117.9" r="2.5" fill="#f6ad55" /><circle cx="271.8" cy="71.3" r="2.5" fill="#f6ad55" /><circle cx="308.6" cy="95.5" r="2.5" fill="#f6ad55" /><circle cx="345.4" cy="125.1" r="2.5" fill="#f6ad55" /><circle cx="382.2" cy="112.4" r="2.5" fill="#f6ad55" /><circle cx="419.0" cy="83.9" r="2.5" fill="#f6ad55" /><circle cx="455.8" cy="94.5" r="2.5" fill="#f6ad55" /><circle cx="492.6" cy="55.6" r="2.5" fill="#f6ad55" /><circle cx="529.4" cy="53.2" r="2.5" fill="#f6ad55" /><circle cx="566.2" cy="47.3" r="2.5" fill="#f6ad55" /><circle cx="603.0" cy="58.7" r="2.5" fill="#f6ad55" /><circle cx="639.8" cy="74.8" r="2.5" fill="#f6ad55" /><circle cx="676.6" cy="40.0" r="2.5" fill="#f6ad55" /><circle cx="713.4" cy="96.0" r="2.5" fill="#f6ad55" /><circle cx="750.2" cy="123.5" r="2.5" fill="#f6ad55" /><circle cx="787.0" cy="129.0" r="2.5" fill="#f6ad55" /><circle cx="823.8" cy="86.2" r="2.5" fill="#f6ad55" /><circle cx="860.6" cy="67.5" r="2.5" fill="#f6ad55" /><circle cx="897.4" cy="100.7" r="2.5" fill="#f6ad55" /><circle cx="934.2" cy="132.1" r="2.5" fill="#f6ad55" />
  <text x="40" y="30" fill="#9aa6b2" font-size="12">Hourly rate: Molts (bars), Likes (line), Views (dots scaled)</text>
  <text x="40" y="310" fill="#9aa6b2" font-size="11">max rate ~840.74 / hour</text>
</svg>