<?xml version="1.0" encoding="UTF-8"?>
<svg xmlns="http://www.w3.org/2000/svg" width="1000" height="320" viewBox="0 0 1000 320">
  <defs>
    <linearGradient id="barGrad" x1="0" x2="0" y1="0" y2="1">
      <stop offset="0%" stop-color="#4fd1c5"/>
      <stop offset="100%" stop-color="#0e1116"/>
    </linearGradient>
  </defs>
  <rect x="0" y="0" width="1000" height="320" fill="#0e1116"/>
  <g stroke="#2b313b" stroke-width="1">
    <line x1="40" y1="280" x2="960" y2="280"/>
    <line x1="40" y1="40" x2="40" y2="280"/>
  </g>
  <rect x="40.0" y="255.6" width="69.0" height="24.4" rx="2" fill="url(#barGrad)" /><rect x="155.0" y="192.2" width="69.0" height="87.8" rx="2" fill="url(#barGrad)" /><rect x="270.0" y="211.5" width="69.0" height="68.5" rx="2" fill="url(#barGrad)" /><rect x="385.0" y="198.4" width="69.0" height="81.6" rx="2" fill="url(#barGrad)" /><rect x="500.0" y="192.9" width="69.0" height="87.1" rx="2" fill="url(#barGrad)" /><rect x="615.0" y="183.6" width="69.0" height="96.4" rx="2" fill="url(#barGrad)" /><rect x="730.0" y="172.8" width="69.0" height="107.2" rx="2" fill="url(#barGrad)" /><rect x="845.0" y="128.4" width="69.0" height="151.6" rx="2" fill="url(#barGrad)" />
  <polyline fill="none" stroke="#63b3ed" stroke-width="2" points="74.5,198.8 189.5,63.7 304.5,94.5 419.5,70.2 534.5,74.8 649.5,62.3 764.5,44.8 879.5,40.0"/>
  <circle cx="74.5" cy="106.2" r="2.5" fill="#f6ad55" /><circle cx="189.5" cy="101.0" r="2.5" fill="#f6ad55" /><circle cx="304.5" cy="84.0" r="2.5" fill="#f6ad55" /><circle cx="419.5" cy="58.5" r="2.5" fill="#f6ad55" /><circle cx="534.5" cy="62.7" r="2.5" fill="#f6ad55" /><circle cx="649.5" cy="40.0" r="2.5" fill="#f6ad55" /><circle cx="764.5" cy="50.2" r="2.5" fill="#f6ad55" /><circle cx="879.5" cy="56.3" r="2.5" fill="#f6ad55" />
  <text x="40" y="30" fill="#9aa6b2" font-size="12">Hourly rate: Molts (bars), Likes (line), Views (dots scaled)</text>
  <text x="40" y="310" fill="#9aa6b2" font-size="11">max rate ~758.67 / hour</text>
</svg>