<?xml version="1.0" encoding="UTF-8"?>
<svg xmlns="http://www.w3.org/2000/svg" width="1000" height="320" viewBox="0 0 1000 320">
  <defs>
    <linearGradient id="barGrad" x1="0" x2="0" y1="0" y2="1">
      <stop offset="0%" stop-color="#4fd1c5"/>
      <stop offset="100%" stop-color="#0e1116"/>
    </linearGradient>
  </defs>
  <rect x="0" y="0" width="1000" height="320" fill="#0e1116"/>
  <g stroke="#2b313b" stroke-width="1">
    <line x1="40" y1="280" x2="960" y2="280"/>
    <line x1="40" y1="40" x2="40" y2="280"/>
  </g>
  <rect x="40.0" y="216.2" width="30.7" height="63.8" rx="2" fill="url(#barGrad)" /><rect x="91.1" y="161.3" width="30.7" height="118.7" rx="2" fill="url(#barGrad)" /><rect x="142.2" y="191.1" width="30.7" height="88.9" rx="2" fill="url(#barGrad)" /><rect x="193.3" y="182.4" width="30.7" height="97.6" rx="2" fill="url(#barGrad)" /><rect x="244.4" y="154.9" width="30.7" height="125.1" rx="2" fill="url(#barGrad)" /><rect x="295.6" y="114.3" width="30.7" height="165.7" rx="2" fill="url(#barGrad)" /><rect x="346.7" y="144.5" width="30.7" height="135.5" rx="2" fill="url(#barGrad)" /><rect x="397.8" y="171.3" width="30.7" height="108.7" rx="2" fill="url(#barGrad)" /><rect x="448.9" y="171.5" width="30.7" height="108.5" rx="2" fill="url(#barGrad)" /><rect x="500.0" y="157.5" width="30.7" height="122.5" rx="2" fill="url(#barGrad)" /><rect x="551.1" y="138.2" width="30.7" height="141.8" rx="2" fill="url(#barGrad)" /><rect x="602.2" y="159.9" width="30.7" height="120.1" rx="2" fill="url(#barGrad)" /><rect x="653.3" y="162.1" width="30.7" height="117.9" rx="2" fill="url(#barGrad)" /><rect x="704.4" y="165.9" width="30.7" height="114.1" rx="2" fill="url(#barGrad)" /><rect x="755.6" y="146.0" width="30.7" height="134.0" rx="2" fill="url(#barGrad)" /><rect x="806.7" y="156.5" width="30.7" height="123.5" rx="2" fill="url(#barGrad)" /><rect x="857.8" y="166.7" width="30.7" height="113.3" rx="2" fill="url(#barGrad)" /><rect x="908.9" y="167.5" width="30.7" height="112.5" rx="2" fill="url(#barGrad)" />
  <polyline fill="none" stroke="#63b3ed" stroke-width="2" points="55.3,129.4 106.4,40.0 157.6,68.7 208.7,79.1 259.8,89.6 310.9,67.1 362.0,93.0 413.1,77.7 464.2,77.5 515.3,123.0 566.4,110.7 617.6,75.0 668.7,111.4 719.8,106.1 770.9,89.7 822.0,92.8 873.1,68.3 924.2,85.3"/>
  <circle cx="55.3" cy="69.9" r="2.5" fill="#f6ad55" /><circle cx="106.4" cy="85.0" r="2.5" fill="#f6ad55" /><circle cx="157.6" cy="83.1" r="2.5" fill="#f6ad55" /><circle cx="208.7" cy="70.1" r="2.5" fill="#f6ad55" /><circle cx="259.8" cy="52.2" r="2.5" fill="#f6ad55" /><circle cx="310.9" cy="44.4" r="2.5" fill="#f6ad55" /><circle cx="362.0" cy="54.8" r="2.5" fill="#f6ad55" /><circle cx="413.1" cy="78.2" r="2.5" fill="#f6ad55" /><circle cx="464.2" cy="72.1" r="2.5" fill="#f6ad55" /><circle cx="515.3" cy="70.0" r="2.5" fill="#f6ad55" /><circle cx="566.4" cy="62.4" r="2.5" fill="#f6ad55" /><circle cx="617.6" cy="66.5" r="2.5" fill="#f6ad55" /><circle cx="668.7" cy="49.8" r="2.5" fill="#f6ad55" /><circle cx="719.8" cy="40.0" r="2.5" fill="#f6ad55" /><circle cx="770.9" cy="62.0" r="2.5" fill="#f6ad55" /><circle cx="822.0" cy="70.6" r="2.5" fill="#f6ad55" /><circle cx="873.1" cy="73.0" r="2.5" fill="#f6ad55" /><circle cx="924.2" cy="87.9" r="2.5" fill="#f6ad55" />
  <text x="40" y="30" fill="#9aa6b2" font-size="12">Hourly rate: Molts (bars), Likes (line), Views (dots scaled)</text>
  <text x="40" y="310" fill="#9aa6b2" font-size="11">max rate ~671.63 / hour</text>
</svg>