<?xml version="1.0" encoding="UTF-8"?>
<svg xmlns="http://www.w3.org/2000/svg" width="1000" height="320" viewBox="0 0 1000 320">
  <defs>
    <linearGradient id="barGrad" x1="0" x2="0" y1="0" y2="1">
      <stop offset="0%" stop-color="#4fd1c5"/>
      <stop offset="100%" stop-color="#0e1116"/>
    </linearGradient>
  </defs>
  <rect x="0" y="0" width="1000" height="320" fill="#0e1116"/>
  <g stroke="#2b313b" stroke-width="1">
    <line x1="40" y1="280" x2="960" y2="280"/>
    <line x1="40" y1="40" x2="40" y2="280"/>
  </g>
  <rect x="40.0" y="202.0" width="36.8" height="78.0" rx="2" fill="url(#barGrad)" /><rect x="101.3" y="99.7" width="36.8" height="180.3" rx="2" fill="url(#barGrad)" /><rect x="162.7" y="122.7" width="36.8" height="157.3" rx="2" fill="url(#barGrad)" /><rect x="224.0" y="87.6" width="36.8" height="192.4" rx="2" fill="url(#barGrad)" /><rect x="285.3" y="87.7" width="36.8" height="192.3" rx="2" fill="url(#barGrad)" /><rect x="346.7" y="118.9" width="36.8" height="161.1" rx="2" fill="url(#barGrad)" /><rect x="408.0" y="119.5" width="36.8" height="160.5" rx="2" fill="url(#barGrad)" /><rect x="469.3" y="137.5" width="36.8" height="142.5" rx="2" fill="url(#barGrad)" /><rect x="530.7" y="139.2" width="36.8" height="140.8" rx="2" fill="url(#barGrad)" /><rect x="592.0" y="108.2" width="36.8" height="171.8" rx="2" fill="url(#barGrad)" /><rect x="653.3" y="125.1" width="36.8" height="154.9" rx="2" fill="url(#barGrad)" /><rect x="714.7" y="115.6" width="36.8" height="164.4" rx="2" fill="url(#barGrad)" /><rect x="776.0" y="108.1" width="36.8" height="171.9" rx="2" fill="url(#barGrad)" /><rect x="837.3" y="96.1" width="36.8" height="183.9" rx="2" fill="url(#barGrad)" /><rect x="898.7" y="98.7" width="36.8" height="181.3" rx="2" fill="url(#barGrad)" />
  <polyline fill="none" stroke="#63b3ed" stroke-width="2" points="58.4,155.6 119.7,106.7 181.1,118.0 242.4,128.3 303.7,146.2 365.1,88.4 426.4,103.4 487.7,96.6 549.1,130.9 610.4,124.3 671.7,118.5 733.1,94.3 794.4,122.3 855.7,100.4 917.1,40.0"/>
  <circle cx="58.4" cy="50.7" r="2.5" fill="#f6ad55" /><circle cx="119.7" cy="40.0" r="2.5" fill="#f6ad55" /><circle cx="181.1" cy="54.3" r="2.5" fill="#f6ad55" /><circle cx="242.4" cy="80.9" r="2.5" fill="#f6ad55" /><circle cx="303.7" cy="86.4" r="2.5" fill="#f6ad55" /><circle cx="365.1" cy="87.2" r="2.5" fill="#f6ad55" /><circle cx="426.4" cy="86.5" r="2.5" fill="#f6ad55" /><circle cx="487.7" cy="98.5" r="2.5" fill="#f6ad55" /><circle cx="549.1" cy="101.7" r="2.5" fill="#f6ad55" /><circle cx="610.4" cy="92.8" r="2.5" fill="#f6ad55" /><circle cx="671.7" cy="103.5" r="2.5" fill="#f6ad55" /><circle cx="733.1" cy="110.0" r="2.5" fill="#f6ad55" /><circle cx="794.4" cy="87.0" r="2.5" fill="#f6ad55" /><circle cx="855.7" cy="85.6" r="2.5" fill="#f6ad55" /><circle cx="917.1" cy="94.5" r="2.5" fill="#f6ad55" />
  <text x="40" y="30" fill="#9aa6b2" font-size="12">Hourly rate: Molts (bars), Likes (line), Views (dots scaled)</text>
  <text x="40" y="310" fill="#9aa6b2" font-size="11">max rate ~729.18 / hour</text>
</svg>