<?xml version="1.0" encoding="UTF-8"?>
<svg xmlns="http://www.w3.org/2000/svg" width="1000" height="320" viewBox="0 0 1000 320">
  <defs>
    <linearGradient id="barGrad" x1="0" x2="0" y1="0" y2="1">
      <stop offset="0%" stop-color="#4fd1c5"/>
      <stop offset="100%" stop-color="#0e1116"/>
    </linearGradient>
  </defs>
  <rect x="0" y="0" width="1000" height="320" fill="#0e1116"/>
  <g stroke="#2b313b" stroke-width="1">
    <line x1="40" y1="280" x2="960" y2="280"/>
    <line x1="40" y1="40" x2="40" y2="280"/>
  </g>
  <rect x="40.0" y="250.7" width="42.5" height="29.3" rx="2" fill="url(#barGrad)" /><rect x="110.8" y="212.1" width="42.5" height="67.9" rx="2" fill="url(#barGrad)" /><rect x="181.5" y="216.3" width="42.5" height="63.7" rx="2" fill="url(#barGrad)" /><rect x="252.3" y="205.8" width="42.5" height="74.2" rx="2" fill="url(#barGrad)" /><rect x="323.1" y="205.6" width="42.5" height="74.4" rx="2" fill="url(#barGrad)" /><rect x="393.8" y="211.5" width="42.5" height="68.5" rx="2" fill="url(#barGrad)" /><rect x="464.6" y="218.1" width="42.5" height="61.9" rx="2" fill="url(#barGrad)" /><rect x="535.4" y="227.6" width="42.5" height="52.4" rx="2" fill="url(#barGrad)" /><rect x="606.2" y="210.5" width="42.5" height="69.5" rx="2" fill="url(#barGrad)" /><rect x="676.9" y="75.8" width="42.5" height="204.2" rx="2" fill="url(#barGrad)" /><rect x="747.7" y="40.0" width="42.5" height="240.0" rx="2" fill="url(#barGrad)" /><rect x="818.5" y="191.8" width="42.5" height="88.2" rx="2" fill="url(#barGrad)" /><rect x="889.2" y="171.4" width="42.5" height="108.6" rx="2" fill="url(#barGrad)" />
  <polyline fill="none" stroke="#63b3ed" stroke-width="2" points="61.2,170.7 132.0,219.3 202.8,179.9 273.5,166.7 344.3,148.3 415.1,166.9 485.8,148.2 556.6,171.8 627.4,137.4 698.2,123.9 768.9,76.0 839.7,122.4 910.5,97.1"/>
  <circle cx="61.2" cy="68.1" r="2.5" fill="#f6ad55" /><circle cx="132.0" cy="40.0" r="2.5" fill="#f6ad55" /><circle cx="202.8" cy="64.3" r="2.5" fill="#f6ad55" /><circle cx="273.5" cy="97.6" r="2.5" fill="#f6ad55" /><circle cx="344.3" cy="119.2" r="2.5" fill="#f6ad55" /><circle cx="415.1" cy="112.6" r="2.5" fill="#f6ad55" /><circle cx="485.8" cy="64.5" r="2.5" fill="#f6ad55" /><circle cx="556.6" cy="89.5" r="2.5" fill="#f6ad55" /><circle cx="627.4" cy="120.0" r="2.5" fill="#f6ad55" /><circle cx="698.2" cy="106.9" r="2.5" fill="#f6ad55" /><circle cx="768.9" cy="77.5" r="2.5" fill="#f6ad55" /><circle cx="839.7" cy="88.5" r="2.5" fill="#f6ad55" /><circle cx="910.5" cy="48.3" r="2.5" fill="#f6ad55" />
  <text x="40" y="30" fill="#9aa6b2" font-size="12">Hourly rate: Molts (bars), Likes (line), Views (dots scaled)</text>
  <text x="40" y="310" fill="#9aa6b2" font-size="11">max rate ~787.56 / hour</text>
</svg>