<?xml version="1.0" encoding="UTF-8"?>
<svg xmlns="http://www.w3.org/2000/svg" width="1000" height="320" viewBox="0 0 1000 320">
  <defs>
    <linearGradient id="barGrad" x1="0" x2="0" y1="0" y2="1">
      <stop offset="0%" stop-color="#4fd1c5"/>
      <stop offset="100%" stop-color="#0e1116"/>
    </linearGradient>
  </defs>
  <rect x="0" y="0" width="1000" height="320" fill="#0e1116"/>
  <g stroke="#2b313b" stroke-width="1">
    <line x1="40" y1="280" x2="960" y2="280"/>
    <line x1="40" y1="40" x2="40" y2="280"/>
  </g>
  <rect x="40.0" y="252.6" width="30.7" height="27.4" rx="2" fill="url(#barGrad)" /><rect x="91.1" y="216.4" width="30.7" height="63.6" rx="2" fill="url(#barGrad)" /><rect x="142.2" y="220.3" width="30.7" height="59.7" rx="2" fill="url(#barGrad)" /><rect x="193.3" y="210.5" width="30.7" height="69.5" rx="2" fill="url(#barGrad)" /><rect x="244.4" y="210.3" width="30.7" height="69.7" rx="2" fill="url(#barGrad)" /><rect x="295.6" y="215.9" width="30.7" height="64.1" rx="2" fill="url(#barGrad)" /><rect x="346.7" y="222.0" width="30.7" height="58.0" rx="2" fill="url(#barGrad)" /><rect x="397.8" y="230.9" width="30.7" height="49.1" rx="2" fill="url(#barGrad)" /><rect x="448.9" y="214.9" width="30.7" height="65.1" rx="2" fill="url(#barGrad)" /><rect x="500.0" y="88.7" width="30.7" height="191.3" rx="2" fill="url(#barGrad)" /><rect x="551.1" y="55.2" width="30.7" height="224.8" rx="2" fill="url(#barGrad)" /><rect x="602.2" y="197.4" width="30.7" height="82.6" rx="2" fill="url(#barGrad)" /><rect x="653.3" y="178.2" width="30.7" height="101.8" rx="2" fill="url(#barGrad)" /><rect x="704.4" y="200.9" width="30.7" height="79.1" rx="2" fill="url(#barGrad)" /><rect x="755.6" y="119.6" width="30.7" height="160.4" rx="2" fill="url(#barGrad)" /><rect x="806.7" y="40.0" width="30.7" height="240.0" rx="2" fill="url(#barGrad)" /><rect x="857.8" y="164.9" width="30.7" height="115.1" rx="2" fill="url(#barGrad)" /><rect x="908.9" y="182.2" width="30.7" height="97.8" rx="2" fill="url(#barGrad)" />
  <polyline fill="none" stroke="#63b3ed" stroke-width="2" points="55.3,177.6 106.4,223.1 157.6,186.2 208.7,173.9 259.8,156.6 310.9,174.1 362.0,156.5 413.1,178.7 464.2,146.4 515.3,133.8 566.4,88.9 617.6,132.4 668.7,108.7 719.8,114.9 770.9,97.9 822.0,142.1 873.1,162.8 924.2,168.3"/>
  <circle cx="55.3" cy="84.4" r="2.5" fill="#f6ad55" /><circle cx="106.4" cy="58.5" r="2.5" fill="#f6ad55" /><circle cx="157.6" cy="80.9" r="2.5" fill="#f6ad55" /><circle cx="208.7" cy="111.6" r="2.5" fill="#f6ad55" /><circle cx="259.8" cy="131.6" r="2.5" fill="#f6ad55" /><circle cx="310.9" cy="125.5" r="2.5" fill="#f6ad55" /><circle cx="362.0" cy="81.2" r="2.5" fill="#f6ad55" /><circle cx="413.1" cy="104.2" r="2.5" fill="#f6ad55" /><circle cx="464.2" cy="132.4" r="2.5" fill="#f6ad55" /><circle cx="515.3" cy="120.3" r="2.5" fill="#f6ad55" /><circle cx="566.4" cy="93.1" r="2.5" fill="#f6ad55" /><circle cx="617.6" cy="103.2" r="2.5" fill="#f6ad55" /><circle cx="668.7" cy="66.2" r="2.5" fill="#f6ad55" /><circle cx="719.8" cy="63.9" r="2.5" fill="#f6ad55" /><circle cx="770.9" cy="58.3" r="2.5" fill="#f6ad55" /><circle cx="822.0" cy="69.1" r="2.5" fill="#f6ad55" /><circle cx="873.1" cy="84.4" r="2.5" fill="#f6ad55" /><circle cx="924.2" cy="40.0" r="2.5" fill="#f6ad55" />
  <text x="40" y="30" fill="#9aa6b2" font-size="12">Hourly rate: Molts (bars), Likes (line), Views (dots scaled)</text>
  <text x="40" y="310" fill="#9aa6b2" font-size="11">max rate ~840.74 / hour</text>
</svg>