<?xml version="1.0" encoding="UTF-8"?>
<svg xmlns="http://www.w3.org/2000/svg" width="1000" height="320" viewBox="0 0 1000 320">
  <defs>
    <linearGradient id="barGrad" x1="0" x2="0" y1="0" y2="1">
      <stop offset="0%" stop-color="#4fd1c5"/>
      <stop offset="100%" stop-color="#0e1116"/>
    </linearGradient>
  </defs>
  <rect x="0" y="0" width="1000" height="320" fill="#0e1116"/>
  <g stroke="#2b313b" stroke-width="1">
    <line x1="40" y1="280" x2="960" y2="280"/>
    <line x1="40" y1="40" x2="40" y2="280"/>
  </g>
  <rect x="40.0" y="255.1" width="24.0" height="24.9" rx="2" fill="url(#barGrad)" /><rect x="80.0" y="190.5" width="24.0" height="89.5" rx="2" fill="url(#barGrad)" /><rect x="120.0" y="210.2" width="24.0" height="69.8" rx="2" fill="url(#barGrad)" /><rect x="160.0" y="196.7" width="24.0" height="83.3" rx="2" fill="url(#barGrad)" /><rect x="200.0" y="191.2" width="24.0" height="88.8" rx="2" fill="url(#barGrad)" /><rect x="240.0" y="181.7" width="24.0" height="98.3" rx="2" fill="url(#barGrad)" /><rect x="280.0" y="170.7" width="24.0" height="109.3" rx="2" fill="url(#barGrad)" /><rect x="320.0" y="170.1" width="24.0" height="109.9" rx="2" fill="url(#barGrad)" /><rect x="360.0" y="206.2" width="24.0" height="73.8" rx="2" fill="url(#barGrad)" /><rect x="400.0" y="198.1" width="24.0" height="81.9" rx="2" fill="url(#barGrad)" /><rect x="440.0" y="189.9" width="24.0" height="90.1" rx="2" fill="url(#barGrad)" /><rect x="480.0" y="193.8" width="24.0" height="86.2" rx="2" fill="url(#barGrad)" /><rect x="520.0" y="182.9" width="24.0" height="97.1" rx="2" fill="url(#barGrad)" /><rect x="560.0" y="172.8" width="24.0" height="107.2" rx="2" fill="url(#barGrad)" /><rect x="600.0" y="152.8" width="24.0" height="127.2" rx="2" fill="url(#barGrad)" /><rect x="640.0" y="130.5" width="24.0" height="149.5" rx="2" fill="url(#barGrad)" /><rect x="680.0" y="173.5" width="24.0" height="106.5" rx="2" fill="url(#barGrad)" /><rect x="720.0" y="193.1" width="24.0" height="86.9" rx="2" fill="url(#barGrad)" /><rect x="760.0" y="207.6" width="24.0" height="72.4" rx="2" fill="url(#barGrad)" /><rect x="800.0" y="157.8" width="24.0" height="122.2" rx="2" fill="url(#barGrad)" /><rect x="840.0" y="123.4" width="24.0" height="156.6" rx="2" fill="url(#barGrad)" /><rect x="880.0" y="153.8" width="24.0" height="126.2" rx="2" fill="url(#barGrad)" /><rect x="920.0" y="137.4" width="24.0" height="142.6" rx="2" fill="url(#barGrad)" />
  <polyline fill="none" stroke="#63b3ed" stroke-width="2" points="52.0,197.2 92.0,59.3 132.0,90.7 172.0,65.9 212.0,70.7 252.0,57.9 292.0,40.0 332.0,51.3 372.0,133.5 412.0,111.0 452.0,112.9 492.0,87.0 532.0,62.2 572.0,63.4 612.0,59.0 652.0,47.2 692.0,85.2 732.0,85.2 772.0,117.1 812.0,43.0 852.0,73.2 892.0,60.3 932.0,51.5"/>
  <circle cx="52.0" cy="106.2" r="2.5" fill="#f6ad55" /><circle cx="92.0" cy="101.0" r="2.5" fill="#f6ad55" /><circle cx="132.0" cy="84.0" r="2.5" fill="#f6ad55" /><circle cx="172.0" cy="58.5" r="2.5" fill="#f6ad55" /><circle cx="212.0" cy="62.7" r="2.5" fill="#f6ad55" /><circle cx="252.0" cy="40.0" r="2.5" fill="#f6ad55" /><circle cx="292.0" cy="50.2" r="2.5" fill="#f6ad55" /><circle cx="332.0" cy="50.7" r="2.5" fill="#f6ad55" /><circle cx="372.0" cy="70.0" r="2.5" fill="#f6ad55" /><circle cx="412.0" cy="78.6" r="2.5" fill="#f6ad55" /><circle cx="452.0" cy="90.7" r="2.5" fill="#f6ad55" /><circle cx="492.0" cy="90.6" r="2.5" fill="#f6ad55" /><circle cx="532.0" cy="94.7" r="2.5" fill="#f6ad55" /><circle cx="572.0" cy="103.9" r="2.5" fill="#f6ad55" /><circle cx="612.0" cy="112.5" r="2.5" fill="#f6ad55" /><circle cx="652.0" cy="86.3" r="2.5" fill="#f6ad55" /><circle cx="692.0" cy="93.6" r="2.5" fill="#f6ad55" /><circle cx="732.0" cy="78.3" r="2.5" fill="#f6ad55" /><circle cx="772.0" cy="54.1" r="2.5" fill="#f6ad55" /><circle cx="812.0" cy="70.0" r="2.5" fill="#f6ad55" /><circle cx="852.0" cy="75.1" r="2.5" fill="#f6ad55" /><circle cx="892.0" cy="51.9" r="2.5" fill="#f6ad55" /><circle cx="932.0" cy="68.6" r="2.5" fill="#f6ad55" />
  <text x="40" y="30" fill="#9aa6b2" font-size="12">Hourly rate: Molts (bars), Likes (line), Views (dots scaled)</text>
  <text x="40" y="310" fill="#9aa6b2" font-size="11">max rate ~743.65 / hour</text>
</svg>