<?xml version="1.0" encoding="UTF-8"?>
<svg xmlns="http://www.w3.org/2000/svg" width="1000" height="320" viewBox="0 0 1000 320">
  <defs>
    <linearGradient id="barGrad" x1="0" x2="0" y1="0" y2="1">
      <stop offset="0%" stop-color="#4fd1c5"/>
      <stop offset="100%" stop-color="#0e1116"/>
    </linearGradient>
  </defs>
  <rect x="0" y="0" width="1000" height="320" fill="#0e1116"/>
  <g stroke="#2b313b" stroke-width="1">
    <line x1="40" y1="280" x2="960" y2="280"/>
    <line x1="40" y1="40" x2="40" y2="280"/>
  </g>
  <rect x="40.0" y="237.1" width="50.2" height="42.9" rx="2" fill="url(#barGrad)" /><rect x="123.6" y="183.9" width="50.2" height="96.1" rx="2" fill="url(#barGrad)" /><rect x="207.3" y="167.4" width="50.2" height="112.6" rx="2" fill="url(#barGrad)" /><rect x="290.9" y="151.9" width="50.2" height="128.1" rx="2" fill="url(#barGrad)" /><rect x="374.5" y="135.5" width="50.2" height="144.5" rx="2" fill="url(#barGrad)" /><rect x="458.2" y="200.1" width="50.2" height="79.9" rx="2" fill="url(#barGrad)" /><rect x="541.8" y="212.0" width="50.2" height="68.0" rx="2" fill="url(#barGrad)" /><rect x="625.5" y="202.3" width="50.2" height="77.7" rx="2" fill="url(#barGrad)" /><rect x="709.1" y="205.0" width="50.2" height="75.0" rx="2" fill="url(#barGrad)" /><rect x="792.7" y="195.7" width="50.2" height="84.3" rx="2" fill="url(#barGrad)" /><rect x="876.4" y="183.1" width="50.2" height="96.9" rx="2" fill="url(#barGrad)" />
  <polyline fill="none" stroke="#63b3ed" stroke-width="2" points="65.1,167.8 148.7,44.0 232.4,40.0 316.0,104.6 399.6,95.7 483.3,83.5 566.9,116.1 650.5,103.8 734.2,113.8 817.8,90.7 901.5,56.5"/>
  <circle cx="65.1" cy="74.1" r="2.5" fill="#f6ad55" /><circle cx="148.7" cy="56.1" r="2.5" fill="#f6ad55" /><circle cx="232.4" cy="59.8" r="2.5" fill="#f6ad55" /><circle cx="316.0" cy="68.5" r="2.5" fill="#f6ad55" /><circle cx="399.6" cy="72.9" r="2.5" fill="#f6ad55" /><circle cx="483.3" cy="62.1" r="2.5" fill="#f6ad55" /><circle cx="566.9" cy="76.4" r="2.5" fill="#f6ad55" /><circle cx="650.5" cy="51.8" r="2.5" fill="#f6ad55" /><circle cx="734.2" cy="40.0" r="2.5" fill="#f6ad55" /><circle cx="817.8" cy="67.3" r="2.5" fill="#f6ad55" /><circle cx="901.5" cy="68.9" r="2.5" fill="#f6ad55" />
  <text x="40" y="30" fill="#9aa6b2" font-size="12">Hourly rate: Molts (bars), Likes (line), Views (dots scaled)</text>
  <text x="40" y="310" fill="#9aa6b2" font-size="11">max rate ~761.42 / hour</text>
</svg>