<?xml version="1.0" encoding="UTF-8"?>
<svg xmlns="http://www.w3.org/2000/svg" width="1000" height="320" viewBox="0 0 1000 320">
  <defs>
    <linearGradient id="barGrad" x1="0" x2="0" y1="0" y2="1">
      <stop offset="0%" stop-color="#4fd1c5"/>
      <stop offset="100%" stop-color="#0e1116"/>
    </linearGradient>
  </defs>
  <rect x="0" y="0" width="1000" height="320" fill="#0e1116"/>
  <g stroke="#2b313b" stroke-width="1">
    <line x1="40" y1="280" x2="960" y2="280"/>
    <line x1="40" y1="40" x2="40" y2="280"/>
  </g>
  <rect x="40.0" y="237.1" width="39.4" height="42.9" rx="2" fill="url(#barGrad)" /><rect x="105.7" y="183.9" width="39.4" height="96.1" rx="2" fill="url(#barGrad)" /><rect x="171.4" y="167.4" width="39.4" height="112.6" rx="2" fill="url(#barGrad)" /><rect x="237.1" y="151.9" width="39.4" height="128.1" rx="2" fill="url(#barGrad)" /><rect x="302.9" y="135.5" width="39.4" height="144.5" rx="2" fill="url(#barGrad)" /><rect x="368.6" y="200.1" width="39.4" height="79.9" rx="2" fill="url(#barGrad)" /><rect x="434.3" y="212.0" width="39.4" height="68.0" rx="2" fill="url(#barGrad)" /><rect x="500.0" y="202.3" width="39.4" height="77.7" rx="2" fill="url(#barGrad)" /><rect x="565.7" y="205.0" width="39.4" height="75.0" rx="2" fill="url(#barGrad)" /><rect x="631.4" y="195.7" width="39.4" height="84.3" rx="2" fill="url(#barGrad)" /><rect x="697.1" y="181.9" width="39.4" height="98.1" rx="2" fill="url(#barGrad)" /><rect x="762.9" y="208.6" width="39.4" height="71.4" rx="2" fill="url(#barGrad)" /><rect x="828.6" y="196.9" width="39.4" height="83.1" rx="2" fill="url(#barGrad)" /><rect x="894.3" y="198.5" width="39.4" height="81.5" rx="2" fill="url(#barGrad)" />
  <polyline fill="none" stroke="#63b3ed" stroke-width="2" points="59.7,167.8 125.4,44.0 191.1,40.0 256.9,104.6 322.6,95.7 388.3,83.5 454.0,116.1 519.7,103.8 585.4,113.8 651.1,90.7 716.9,79.4 782.6,99.9 848.3,81.1 914.0,89.1"/>
  <circle cx="59.7" cy="74.1" r="2.5" fill="#f6ad55" /><circle cx="125.4" cy="56.1" r="2.5" fill="#f6ad55" /><circle cx="191.1" cy="59.8" r="2.5" fill="#f6ad55" /><circle cx="256.9" cy="68.5" r="2.5" fill="#f6ad55" /><circle cx="322.6" cy="72.9" r="2.5" fill="#f6ad55" /><circle cx="388.3" cy="62.1" r="2.5" fill="#f6ad55" /><circle cx="454.0" cy="76.4" r="2.5" fill="#f6ad55" /><circle cx="519.7" cy="51.8" r="2.5" fill="#f6ad55" /><circle cx="585.4" cy="40.0" r="2.5" fill="#f6ad55" /><circle cx="651.1" cy="67.3" r="2.5" fill="#f6ad55" /><circle cx="716.9" cy="46.1" r="2.5" fill="#f6ad55" /><circle cx="782.6" cy="62.6" r="2.5" fill="#f6ad55" /><circle cx="848.3" cy="56.8" r="2.5" fill="#f6ad55" /><circle cx="914.0" cy="70.1" r="2.5" fill="#f6ad55" />
  <text x="40" y="30" fill="#9aa6b2" font-size="12">Hourly rate: Molts (bars), Likes (line), Views (dots scaled)</text>
  <text x="40" y="310" fill="#9aa6b2" font-size="11">max rate ~761.42 / hour</text>
</svg>