<?xml version="1.0" encoding="UTF-8"?>
<svg xmlns="http://www.w3.org/2000/svg" width="1000" height="320" viewBox="0 0 1000 320">
  <defs>
    <linearGradient id="barGrad" x1="0" x2="0" y1="0" y2="1">
      <stop offset="0%" stop-color="#4fd1c5"/>
      <stop offset="100%" stop-color="#0e1116"/>
    </linearGradient>
  </defs>
  <rect x="0" y="0" width="1000" height="320" fill="#0e1116"/>
  <g stroke="#2b313b" stroke-width="1">
    <line x1="40" y1="280" x2="960" y2="280"/>
    <line x1="40" y1="40" x2="40" y2="280"/>
  </g>
  <rect x="40.0" y="264.5" width="29.1" height="15.5" rx="2" fill="url(#barGrad)" /><rect x="88.4" y="220.7" width="29.1" height="59.3" rx="2" fill="url(#barGrad)" /><rect x="136.8" y="231.9" width="29.1" height="48.1" rx="2" fill="url(#barGrad)" /><rect x="185.3" y="233.5" width="29.1" height="46.5" rx="2" fill="url(#barGrad)" /><rect x="233.7" y="207.5" width="29.1" height="72.5" rx="2" fill="url(#barGrad)" /><rect x="282.1" y="208.8" width="29.1" height="71.2" rx="2" fill="url(#barGrad)" /><rect x="330.5" y="213.4" width="29.1" height="66.6" rx="2" fill="url(#barGrad)" /><rect x="378.9" y="174.0" width="29.1" height="106.0" rx="2" fill="url(#barGrad)" /><rect x="427.4" y="230.4" width="29.1" height="49.6" rx="2" fill="url(#barGrad)" /><rect x="475.8" y="198.0" width="29.1" height="82.0" rx="2" fill="url(#barGrad)" /><rect x="524.2" y="201.8" width="29.1" height="78.2" rx="2" fill="url(#barGrad)" /><rect x="572.6" y="216.3" width="29.1" height="63.7" rx="2" fill="url(#barGrad)" /><rect x="621.1" y="184.6" width="29.1" height="95.4" rx="2" fill="url(#barGrad)" /><rect x="669.5" y="200.4" width="29.1" height="79.6" rx="2" fill="url(#barGrad)" /><rect x="717.9" y="202.7" width="29.1" height="77.3" rx="2" fill="url(#barGrad)" /><rect x="766.3" y="204.2" width="29.1" height="75.8" rx="2" fill="url(#barGrad)" /><rect x="814.7" y="210.9" width="29.1" height="69.1" rx="2" fill="url(#barGrad)" /><rect x="863.2" y="203.7" width="29.1" height="76.3" rx="2" fill="url(#barGrad)" /><rect x="911.6" y="219.9" width="29.1" height="60.1" rx="2" fill="url(#barGrad)" />
  <polyline fill="none" stroke="#63b3ed" stroke-width="2" points="54.5,235.0 102.9,140.1 151.4,173.8 199.8,183.0 248.2,137.6 296.6,154.7 345.1,166.8 393.5,40.0 441.9,187.6 490.3,140.9 538.7,137.7 587.2,175.7 635.6,171.1 684.0,159.9 732.4,180.6 780.8,175.4 829.3,155.7 877.7,185.6 926.1,176.0"/>
  <circle cx="54.5" cy="40.0" r="2.5" fill="#f6ad55" /><circle cx="102.9" cy="146.0" r="2.5" fill="#f6ad55" /><circle cx="151.4" cy="152.3" r="2.5" fill="#f6ad55" /><circle cx="199.8" cy="149.4" r="2.5" fill="#f6ad55" /><circle cx="248.2" cy="145.5" r="2.5" fill="#f6ad55" /><circle cx="296.6" cy="139.4" r="2.5" fill="#f6ad55" /><circle cx="345.1" cy="142.2" r="2.5" fill="#f6ad55" /><circle cx="393.5" cy="140.4" r="2.5" fill="#f6ad55" /><circle cx="441.9" cy="139.0" r="2.5" fill="#f6ad55" /><circle cx="490.3" cy="158.4" r="2.5" fill="#f6ad55" /><circle cx="538.7" cy="153.8" r="2.5" fill="#f6ad55" /><circle cx="587.2" cy="147.6" r="2.5" fill="#f6ad55" /><circle cx="635.6" cy="164.1" r="2.5" fill="#f6ad55" /><circle cx="684.0" cy="166.0" r="2.5" fill="#f6ad55" /><circle cx="732.4" cy="144.8" r="2.5" fill="#f6ad55" /><circle cx="780.8" cy="171.0" r="2.5" fill="#f6ad55" /><circle cx="829.3" cy="170.4" r="2.5" fill="#f6ad55" /><circle cx="877.7" cy="171.2" r="2.5" fill="#f6ad55" /><circle cx="926.1" cy="181.4" r="2.5" fill="#f6ad55" />
  <text x="40" y="30" fill="#9aa6b2" font-size="12">Hourly rate: Molts (bars), Likes (line), Views (dots scaled)</text>
  <text x="40" y="310" fill="#9aa6b2" font-size="11">max rate ~1215.79 / hour</text>
</svg>