<?xml version="1.0" encoding="UTF-8"?>
<svg xmlns="http://www.w3.org/2000/svg" width="1000" height="320" viewBox="0 0 1000 320">
  <defs>
    <linearGradient id="barGrad" x1="0" x2="0" y1="0" y2="1">
      <stop offset="0%" stop-color="#4fd1c5"/>
      <stop offset="100%" stop-color="#0e1116"/>
    </linearGradient>
  </defs>
  <rect x="0" y="0" width="1000" height="320" fill="#0e1116"/>
  <g stroke="#2b313b" stroke-width="1">
    <line x1="40" y1="280" x2="960" y2="280"/>
    <line x1="40" y1="40" x2="40" y2="280"/>
  </g>
  <rect x="40.0" y="260.6" width="27.6" height="19.4" rx="2" fill="url(#barGrad)" /><rect x="86.0" y="216.4" width="27.6" height="63.6" rx="2" fill="url(#barGrad)" /><rect x="132.0" y="229.6" width="27.6" height="50.4" rx="2" fill="url(#barGrad)" /><rect x="178.0" y="232.5" width="27.6" height="47.5" rx="2" fill="url(#barGrad)" /><rect x="224.0" y="221.3" width="27.6" height="58.7" rx="2" fill="url(#barGrad)" /><rect x="270.0" y="225.9" width="27.6" height="54.1" rx="2" fill="url(#barGrad)" /><rect x="316.0" y="230.1" width="27.6" height="49.9" rx="2" fill="url(#barGrad)" /><rect x="362.0" y="222.6" width="27.6" height="57.4" rx="2" fill="url(#barGrad)" /><rect x="408.0" y="130.1" width="27.6" height="149.9" rx="2" fill="url(#barGrad)" /><rect x="454.0" y="216.6" width="27.6" height="63.4" rx="2" fill="url(#barGrad)" /><rect x="500.0" y="206.1" width="27.6" height="73.9" rx="2" fill="url(#barGrad)" /><rect x="546.0" y="184.3" width="27.6" height="95.7" rx="2" fill="url(#barGrad)" /><rect x="592.0" y="193.8" width="27.6" height="86.2" rx="2" fill="url(#barGrad)" /><rect x="638.0" y="227.5" width="27.6" height="52.5" rx="2" fill="url(#barGrad)" /><rect x="684.0" y="213.2" width="27.6" height="66.8" rx="2" fill="url(#barGrad)" /><rect x="730.0" y="230.9" width="27.6" height="49.1" rx="2" fill="url(#barGrad)" /><rect x="776.0" y="205.4" width="27.6" height="74.6" rx="2" fill="url(#barGrad)" /><rect x="822.0" y="176.1" width="27.6" height="103.9" rx="2" fill="url(#barGrad)" /><rect x="868.0" y="195.9" width="27.6" height="84.1" rx="2" fill="url(#barGrad)" /><rect x="914.0" y="165.9" width="27.6" height="114.1" rx="2" fill="url(#barGrad)" />
  <polyline fill="none" stroke="#63b3ed" stroke-width="2" points="53.8,215.7 99.8,155.1 145.8,176.9 191.8,168.8 237.8,160.3 283.8,152.6 329.8,165.3 375.8,164.1 421.8,40.0 467.8,173.9 513.8,167.2 559.8,155.7 605.8,161.7 651.8,159.4 697.8,146.8 743.8,167.7 789.8,130.1 835.8,113.5 881.8,135.0 927.8,146.1"/>
  <circle cx="53.8" cy="40.0" r="2.5" fill="#f6ad55" /><circle cx="99.8" cy="75.6" r="2.5" fill="#f6ad55" /><circle cx="145.8" cy="80.5" r="2.5" fill="#f6ad55" /><circle cx="191.8" cy="78.4" r="2.5" fill="#f6ad55" /><circle cx="237.8" cy="70.8" r="2.5" fill="#f6ad55" /><circle cx="283.8" cy="69.7" r="2.5" fill="#f6ad55" /><circle cx="329.8" cy="69.7" r="2.5" fill="#f6ad55" /><circle cx="375.8" cy="89.5" r="2.5" fill="#f6ad55" /><circle cx="421.8" cy="79.7" r="2.5" fill="#f6ad55" /><circle cx="467.8" cy="69.2" r="2.5" fill="#f6ad55" /><circle cx="513.8" cy="73.3" r="2.5" fill="#f6ad55" /><circle cx="559.8" cy="84.1" r="2.5" fill="#f6ad55" /><circle cx="605.8" cy="83.1" r="2.5" fill="#f6ad55" /><circle cx="651.8" cy="71.6" r="2.5" fill="#f6ad55" /><circle cx="697.8" cy="87.0" r="2.5" fill="#f6ad55" /><circle cx="743.8" cy="75.7" r="2.5" fill="#f6ad55" /><circle cx="789.8" cy="77.1" r="2.5" fill="#f6ad55" /><circle cx="835.8" cy="73.4" r="2.5" fill="#f6ad55" /><circle cx="881.8" cy="63.2" r="2.5" fill="#f6ad55" /><circle cx="927.8" cy="56.1" r="2.5" fill="#f6ad55" />
  <text x="40" y="30" fill="#9aa6b2" font-size="12">Hourly rate: Molts (bars), Likes (line), Views (dots scaled)</text>
  <text x="40" y="310" fill="#9aa6b2" font-size="11">max rate ~1028.14 / hour</text>
</svg>