<?xml version="1.0" encoding="UTF-8"?>
<svg xmlns="http://www.w3.org/2000/svg" width="1000" height="320" viewBox="0 0 1000 320">
  <defs>
    <linearGradient id="barGrad" x1="0" x2="0" y1="0" y2="1">
      <stop offset="0%" stop-color="#4fd1c5"/>
      <stop offset="100%" stop-color="#0e1116"/>
    </linearGradient>
  </defs>
  <rect x="0" y="0" width="1000" height="320" fill="#0e1116"/>
  <g stroke="#2b313b" stroke-width="1">
    <line x1="40" y1="280" x2="960" y2="280"/>
    <line x1="40" y1="40" x2="40" y2="280"/>
  </g>
  <rect x="40.0" y="265.6" width="29.1" height="14.4" rx="2" fill="url(#barGrad)" /><rect x="88.4" y="243.2" width="29.1" height="36.8" rx="2" fill="url(#barGrad)" /><rect x="136.8" y="233.3" width="29.1" height="46.7" rx="2" fill="url(#barGrad)" /><rect x="185.3" y="247.6" width="29.1" height="32.4" rx="2" fill="url(#barGrad)" /><rect x="233.7" y="252.9" width="29.1" height="27.1" rx="2" fill="url(#barGrad)" /><rect x="282.1" y="209.8" width="29.1" height="70.2" rx="2" fill="url(#barGrad)" /><rect x="330.5" y="243.5" width="29.1" height="36.5" rx="2" fill="url(#barGrad)" /><rect x="378.9" y="236.8" width="29.1" height="43.2" rx="2" fill="url(#barGrad)" /><rect x="427.4" y="253.6" width="29.1" height="26.4" rx="2" fill="url(#barGrad)" /><rect x="475.8" y="246.4" width="29.1" height="33.6" rx="2" fill="url(#barGrad)" /><rect x="524.2" y="226.4" width="29.1" height="53.6" rx="2" fill="url(#barGrad)" /><rect x="572.6" y="218.7" width="29.1" height="61.3" rx="2" fill="url(#barGrad)" /><rect x="621.1" y="205.3" width="29.1" height="74.7" rx="2" fill="url(#barGrad)" /><rect x="669.5" y="216.8" width="29.1" height="63.2" rx="2" fill="url(#barGrad)" /><rect x="717.9" y="196.9" width="29.1" height="83.1" rx="2" fill="url(#barGrad)" /><rect x="766.3" y="158.1" width="29.1" height="121.9" rx="2" fill="url(#barGrad)" /><rect x="814.7" y="40.0" width="29.1" height="240.0" rx="2" fill="url(#barGrad)" /><rect x="863.2" y="148.8" width="29.1" height="131.2" rx="2" fill="url(#barGrad)" /><rect x="911.6" y="199.9" width="29.1" height="80.1" rx="2" fill="url(#barGrad)" />
  <polyline fill="none" stroke="#63b3ed" stroke-width="2" points="54.5,244.3 102.9,230.4 151.4,230.0 199.8,215.9 248.2,232.7 296.6,227.8 345.1,233.8 393.5,207.4 441.9,237.0 490.3,233.9 538.7,225.7 587.2,227.0 635.6,232.0 684.0,227.9 732.4,230.9 780.8,227.0 829.3,232.0 877.7,216.0 926.1,229.4"/>
  <circle cx="54.5" cy="101.5" r="2.5" fill="#f6ad55" /><circle cx="102.9" cy="116.6" r="2.5" fill="#f6ad55" /><circle cx="151.4" cy="77.4" r="2.5" fill="#f6ad55" /><circle cx="199.8" cy="54.3" r="2.5" fill="#f6ad55" /><circle cx="248.2" cy="49.6" r="2.5" fill="#f6ad55" /><circle cx="296.6" cy="57.5" r="2.5" fill="#f6ad55" /><circle cx="345.1" cy="56.2" r="2.5" fill="#f6ad55" /><circle cx="393.5" cy="56.8" r="2.5" fill="#f6ad55" /><circle cx="441.9" cy="52.9" r="2.5" fill="#f6ad55" /><circle cx="490.3" cy="61.6" r="2.5" fill="#f6ad55" /><circle cx="538.7" cy="61.2" r="2.5" fill="#f6ad55" /><circle cx="587.2" cy="68.8" r="2.5" fill="#f6ad55" /><circle cx="635.6" cy="54.0" r="2.5" fill="#f6ad55" /><circle cx="684.0" cy="63.4" r="2.5" fill="#f6ad55" /><circle cx="732.4" cy="46.4" r="2.5" fill="#f6ad55" /><circle cx="780.8" cy="40.0" r="2.5" fill="#f6ad55" /><circle cx="829.3" cy="54.0" r="2.5" fill="#f6ad55" /><circle cx="877.7" cy="56.2" r="2.5" fill="#f6ad55" /><circle cx="926.1" cy="47.9" r="2.5" fill="#f6ad55" />
  <text x="40" y="30" fill="#9aa6b2" font-size="12">Hourly rate: Molts (bars), Likes (line), Views (dots scaled)</text>
  <text x="40" y="310" fill="#9aa6b2" font-size="11">max rate ~2257.04 / hour</text>
</svg>