<?xml version="1.0" encoding="UTF-8"?>
<svg xmlns="http://www.w3.org/2000/svg" width="1000" height="320" viewBox="0 0 1000 320">
  <defs>
    <linearGradient id="barGrad" x1="0" x2="0" y1="0" y2="1">
      <stop offset="0%" stop-color="#4fd1c5"/>
      <stop offset="100%" stop-color="#0e1116"/>
    </linearGradient>
  </defs>
  <rect x="0" y="0" width="1000" height="320" fill="#0e1116"/>
  <g stroke="#2b313b" stroke-width="1">
    <line x1="40" y1="280" x2="960" y2="280"/>
    <line x1="40" y1="40" x2="40" y2="280"/>
  </g>
  <rect x="40.0" y="161.1" width="25.1" height="118.9" rx="2" fill="url(#barGrad)" /><rect x="81.8" y="120.0" width="25.1" height="160.0" rx="2" fill="url(#barGrad)" /><rect x="123.6" y="112.9" width="25.1" height="167.1" rx="2" fill="url(#barGrad)" /><rect x="165.5" y="125.3" width="25.1" height="154.7" rx="2" fill="url(#barGrad)" /><rect x="207.3" y="113.9" width="25.1" height="166.1" rx="2" fill="url(#barGrad)" /><rect x="249.1" y="122.8" width="25.1" height="157.2" rx="2" fill="url(#barGrad)" /><rect x="290.9" y="117.5" width="25.1" height="162.5" rx="2" fill="url(#barGrad)" /><rect x="332.7" y="97.9" width="25.1" height="182.1" rx="2" fill="url(#barGrad)" /><rect x="374.5" y="140.7" width="25.1" height="139.3" rx="2" fill="url(#barGrad)" /><rect x="416.4" y="113.1" width="25.1" height="166.9" rx="2" fill="url(#barGrad)" /><rect x="458.2" y="92.3" width="25.1" height="187.7" rx="2" fill="url(#barGrad)" /><rect x="500.0" y="107.6" width="25.1" height="172.4" rx="2" fill="url(#barGrad)" /><rect x="541.8" y="120.5" width="25.1" height="159.5" rx="2" fill="url(#barGrad)" /><rect x="583.6" y="114.3" width="25.1" height="165.7" rx="2" fill="url(#barGrad)" /><rect x="625.5" y="159.1" width="25.1" height="120.9" rx="2" fill="url(#barGrad)" /><rect x="667.3" y="162.7" width="25.1" height="117.3" rx="2" fill="url(#barGrad)" /><rect x="709.1" y="138.1" width="25.1" height="141.9" rx="2" fill="url(#barGrad)" /><rect x="750.9" y="154.2" width="25.1" height="125.8" rx="2" fill="url(#barGrad)" /><rect x="792.7" y="149.4" width="25.1" height="130.6" rx="2" fill="url(#barGrad)" /><rect x="834.5" y="134.8" width="25.1" height="145.2" rx="2" fill="url(#barGrad)" /><rect x="876.4" y="155.1" width="25.1" height="124.9" rx="2" fill="url(#barGrad)" /><rect x="918.2" y="167.3" width="25.1" height="112.7" rx="2" fill="url(#barGrad)" />
  <polyline fill="none" stroke="#63b3ed" stroke-width="2" points="52.5,127.6 94.4,80.7 136.2,85.0 178.0,98.2 219.8,88.1 261.6,81.9 303.5,40.0 345.3,55.8 387.1,112.1 428.9,93.5 470.7,91.0 512.5,49.9 554.4,48.8 596.2,56.0 638.0,109.7 679.8,104.0 721.6,67.8 763.5,77.9 805.3,113.2 847.1,58.1 888.9,96.3 930.7,90.5"/>
  <circle cx="52.5" cy="100.8" r="2.5" fill="#f6ad55" /><circle cx="94.4" cy="64.8" r="2.5" fill="#f6ad55" /><circle cx="136.2" cy="52.4" r="2.5" fill="#f6ad55" /><circle cx="178.0" cy="40.0" r="2.5" fill="#f6ad55" /><circle cx="219.8" cy="45.2" r="2.5" fill="#f6ad55" /><circle cx="261.6" cy="83.8" r="2.5" fill="#f6ad55" /><circle cx="303.5" cy="57.7" r="2.5" fill="#f6ad55" /><circle cx="345.3" cy="87.9" r="2.5" fill="#f6ad55" /><circle cx="387.1" cy="83.5" r="2.5" fill="#f6ad55" /><circle cx="428.9" cy="90.8" r="2.5" fill="#f6ad55" /><circle cx="470.7" cy="91.1" r="2.5" fill="#f6ad55" /><circle cx="512.5" cy="90.8" r="2.5" fill="#f6ad55" /><circle cx="554.4" cy="44.6" r="2.5" fill="#f6ad55" /><circle cx="596.2" cy="88.7" r="2.5" fill="#f6ad55" /><circle cx="638.0" cy="87.9" r="2.5" fill="#f6ad55" /><circle cx="679.8" cy="89.1" r="2.5" fill="#f6ad55" /><circle cx="721.6" cy="86.9" r="2.5" fill="#f6ad55" /><circle cx="763.5" cy="82.4" r="2.5" fill="#f6ad55" /><circle cx="805.3" cy="76.0" r="2.5" fill="#f6ad55" /><circle cx="847.1" cy="82.8" r="2.5" fill="#f6ad55" /><circle cx="888.9" cy="88.9" r="2.5" fill="#f6ad55" /><circle cx="930.7" cy="100.0" r="2.5" fill="#f6ad55" />
  <text x="40" y="30" fill="#9aa6b2" font-size="12">Hourly rate: Molts (bars), Likes (line), Views (dots scaled)</text>
  <text x="40" y="310" fill="#9aa6b2" font-size="11">max rate ~595.01 / hour</text>
</svg>