<?xml version="1.0" encoding="UTF-8"?>
<svg xmlns="http://www.w3.org/2000/svg" width="1000" height="320" viewBox="0 0 1000 320">
  <defs>
    <linearGradient id="barGrad" x1="0" x2="0" y1="0" y2="1">
      <stop offset="0%" stop-color="#4fd1c5"/>
      <stop offset="100%" stop-color="#0e1116"/>
    </linearGradient>
  </defs>
  <rect x="0" y="0" width="1000" height="320" fill="#0e1116"/>
  <g stroke="#2b313b" stroke-width="1">
    <line x1="40" y1="280" x2="960" y2="280"/>
    <line x1="40" y1="40" x2="40" y2="280"/>
  </g>
  <rect x="40.0" y="161.1" width="30.7" height="118.9" rx="2" fill="url(#barGrad)" /><rect x="91.1" y="120.0" width="30.7" height="160.0" rx="2" fill="url(#barGrad)" /><rect x="142.2" y="112.9" width="30.7" height="167.1" rx="2" fill="url(#barGrad)" /><rect x="193.3" y="125.3" width="30.7" height="154.7" rx="2" fill="url(#barGrad)" /><rect x="244.4" y="113.9" width="30.7" height="166.1" rx="2" fill="url(#barGrad)" /><rect x="295.6" y="122.8" width="30.7" height="157.2" rx="2" fill="url(#barGrad)" /><rect x="346.7" y="117.5" width="30.7" height="162.5" rx="2" fill="url(#barGrad)" /><rect x="397.8" y="97.9" width="30.7" height="182.1" rx="2" fill="url(#barGrad)" /><rect x="448.9" y="140.7" width="30.7" height="139.3" rx="2" fill="url(#barGrad)" /><rect x="500.0" y="113.1" width="30.7" height="166.9" rx="2" fill="url(#barGrad)" /><rect x="551.1" y="92.3" width="30.7" height="187.7" rx="2" fill="url(#barGrad)" /><rect x="602.2" y="107.6" width="30.7" height="172.4" rx="2" fill="url(#barGrad)" /><rect x="653.3" y="120.5" width="30.7" height="159.5" rx="2" fill="url(#barGrad)" /><rect x="704.4" y="114.3" width="30.7" height="165.7" rx="2" fill="url(#barGrad)" /><rect x="755.6" y="159.1" width="30.7" height="120.9" rx="2" fill="url(#barGrad)" /><rect x="806.7" y="162.7" width="30.7" height="117.3" rx="2" fill="url(#barGrad)" /><rect x="857.8" y="138.1" width="30.7" height="141.9" rx="2" fill="url(#barGrad)" /><rect x="908.9" y="154.2" width="30.7" height="125.8" rx="2" fill="url(#barGrad)" />
  <polyline fill="none" stroke="#63b3ed" stroke-width="2" points="55.3,127.6 106.4,80.7 157.6,85.0 208.7,98.2 259.8,88.1 310.9,81.9 362.0,40.0 413.1,55.8 464.2,112.1 515.3,93.5 566.4,91.0 617.6,49.9 668.7,48.8 719.8,56.0 770.9,109.7 822.0,104.0 873.1,67.8 924.2,77.9"/>
  <circle cx="55.3" cy="100.8" r="2.5" fill="#f6ad55" /><circle cx="106.4" cy="64.8" r="2.5" fill="#f6ad55" /><circle cx="157.6" cy="52.4" r="2.5" fill="#f6ad55" /><circle cx="208.7" cy="40.0" r="2.5" fill="#f6ad55" /><circle cx="259.8" cy="45.2" r="2.5" fill="#f6ad55" /><circle cx="310.9" cy="83.8" r="2.5" fill="#f6ad55" /><circle cx="362.0" cy="57.7" r="2.5" fill="#f6ad55" /><circle cx="413.1" cy="87.9" r="2.5" fill="#f6ad55" /><circle cx="464.2" cy="83.5" r="2.5" fill="#f6ad55" /><circle cx="515.3" cy="90.8" r="2.5" fill="#f6ad55" /><circle cx="566.4" cy="91.1" r="2.5" fill="#f6ad55" /><circle cx="617.6" cy="90.8" r="2.5" fill="#f6ad55" /><circle cx="668.7" cy="44.6" r="2.5" fill="#f6ad55" /><circle cx="719.8" cy="88.7" r="2.5" fill="#f6ad55" /><circle cx="770.9" cy="87.9" r="2.5" fill="#f6ad55" /><circle cx="822.0" cy="89.1" r="2.5" fill="#f6ad55" /><circle cx="873.1" cy="86.9" r="2.5" fill="#f6ad55" /><circle cx="924.2" cy="82.4" r="2.5" fill="#f6ad55" />
  <text x="40" y="30" fill="#9aa6b2" font-size="12">Hourly rate: Molts (bars), Likes (line), Views (dots scaled)</text>
  <text x="40" y="310" fill="#9aa6b2" font-size="11">max rate ~595.01 / hour</text>
</svg>