<?xml version="1.0" encoding="UTF-8"?>
<svg xmlns="http://www.w3.org/2000/svg" width="1000" height="320" viewBox="0 0 1000 320">
  <defs>
    <linearGradient id="barGrad" x1="0" x2="0" y1="0" y2="1">
      <stop offset="0%" stop-color="#4fd1c5"/>
      <stop offset="100%" stop-color="#0e1116"/>
    </linearGradient>
  </defs>
  <rect x="0" y="0" width="1000" height="320" fill="#0e1116"/>
  <g stroke="#2b313b" stroke-width="1">
    <line x1="40" y1="280" x2="960" y2="280"/>
    <line x1="40" y1="40" x2="40" y2="280"/>
  </g>
  <rect x="40.0" y="224.9" width="25.1" height="55.1" rx="2" fill="url(#barGrad)" /><rect x="81.8" y="164.7" width="25.1" height="115.3" rx="2" fill="url(#barGrad)" /><rect x="123.6" y="174.8" width="25.1" height="105.2" rx="2" fill="url(#barGrad)" /><rect x="165.5" y="146.2" width="25.1" height="133.8" rx="2" fill="url(#barGrad)" /><rect x="207.3" y="166.8" width="25.1" height="113.2" rx="2" fill="url(#barGrad)" /><rect x="249.1" y="184.9" width="25.1" height="95.1" rx="2" fill="url(#barGrad)" /><rect x="290.9" y="170.5" width="25.1" height="109.5" rx="2" fill="url(#barGrad)" /><rect x="332.7" y="172.6" width="25.1" height="107.4" rx="2" fill="url(#barGrad)" /><rect x="374.5" y="150.6" width="25.1" height="129.4" rx="2" fill="url(#barGrad)" /><rect x="416.4" y="136.2" width="25.1" height="143.8" rx="2" fill="url(#barGrad)" /><rect x="458.2" y="105.7" width="25.1" height="174.3" rx="2" fill="url(#barGrad)" /><rect x="500.0" y="91.4" width="25.1" height="188.6" rx="2" fill="url(#barGrad)" /><rect x="541.8" y="145.1" width="25.1" height="134.9" rx="2" fill="url(#barGrad)" /><rect x="583.6" y="164.7" width="25.1" height="115.3" rx="2" fill="url(#barGrad)" /><rect x="625.5" y="158.4" width="25.1" height="121.6" rx="2" fill="url(#barGrad)" /><rect x="667.3" y="168.9" width="25.1" height="111.1" rx="2" fill="url(#barGrad)" /><rect x="709.1" y="180.2" width="25.1" height="99.8" rx="2" fill="url(#barGrad)" /><rect x="750.9" y="201.0" width="25.1" height="79.0" rx="2" fill="url(#barGrad)" /><rect x="792.7" y="199.2" width="25.1" height="80.8" rx="2" fill="url(#barGrad)" /><rect x="834.5" y="195.0" width="25.1" height="85.0" rx="2" fill="url(#barGrad)" /><rect x="876.4" y="207.5" width="25.1" height="72.5" rx="2" fill="url(#barGrad)" /><rect x="918.2" y="203.2" width="25.1" height="76.8" rx="2" fill="url(#barGrad)" />
  <polyline fill="none" stroke="#63b3ed" stroke-width="2" points="52.5,152.8 94.4,81.6 136.2,83.0 178.0,47.2 219.8,88.0 261.6,94.2 303.5,67.4 345.3,108.8 387.1,68.3 428.9,62.4 470.7,78.0 512.5,72.0 554.4,40.0 596.2,98.0 638.0,60.5 679.8,44.5 721.6,95.3 763.5,93.1 805.3,52.5 847.1,67.2 888.9,77.1 930.7,63.7"/>
  <circle cx="52.5" cy="40.0" r="2.5" fill="#f6ad55" /><circle cx="94.4" cy="161.6" r="2.5" fill="#f6ad55" /><circle cx="136.2" cy="145.5" r="2.5" fill="#f6ad55" /><circle cx="178.0" cy="146.2" r="2.5" fill="#f6ad55" /><circle cx="219.8" cy="141.6" r="2.5" fill="#f6ad55" /><circle cx="261.6" cy="148.6" r="2.5" fill="#f6ad55" /><circle cx="303.5" cy="160.2" r="2.5" fill="#f6ad55" /><circle cx="345.3" cy="157.9" r="2.5" fill="#f6ad55" /><circle cx="387.1" cy="155.3" r="2.5" fill="#f6ad55" /><circle cx="428.9" cy="129.4" r="2.5" fill="#f6ad55" /><circle cx="470.7" cy="126.4" r="2.5" fill="#f6ad55" /><circle cx="512.5" cy="117.0" r="2.5" fill="#f6ad55" /><circle cx="554.4" cy="130.2" r="2.5" fill="#f6ad55" /><circle cx="596.2" cy="156.1" r="2.5" fill="#f6ad55" /><circle cx="638.0" cy="160.1" r="2.5" fill="#f6ad55" /><circle cx="679.8" cy="151.8" r="2.5" fill="#f6ad55" /><circle cx="721.6" cy="169.2" r="2.5" fill="#f6ad55" /><circle cx="763.5" cy="162.8" r="2.5" fill="#f6ad55" /><circle cx="805.3" cy="155.5" r="2.5" fill="#f6ad55" /><circle cx="847.1" cy="141.7" r="2.5" fill="#f6ad55" /><circle cx="888.9" cy="142.5" r="2.5" fill="#f6ad55" /><circle cx="930.7" cy="144.8" r="2.5" fill="#f6ad55" />
  <text x="40" y="30" fill="#9aa6b2" font-size="12">Hourly rate: Molts (bars), Likes (line), Views (dots scaled)</text>
  <text x="40" y="310" fill="#9aa6b2" font-size="11">max rate ~729.33 / hour</text>
</svg>