<?xml version="1.0" encoding="UTF-8"?>
<svg xmlns="http://www.w3.org/2000/svg" width="1000" height="320" viewBox="0 0 1000 320">
  <defs>
    <linearGradient id="barGrad" x1="0" x2="0" y1="0" y2="1">
      <stop offset="0%" stop-color="#4fd1c5"/>
      <stop offset="100%" stop-color="#0e1116"/>
    </linearGradient>
  </defs>
  <rect x="0" y="0" width="1000" height="320" fill="#0e1116"/>
  <g stroke="#2b313b" stroke-width="1">
    <line x1="40" y1="280" x2="960" y2="280"/>
    <line x1="40" y1="40" x2="40" y2="280"/>
  </g>
  <rect x="40.0" y="142.3" width="34.5" height="137.7" rx="2" fill="url(#barGrad)" /><rect x="97.5" y="157.3" width="34.5" height="122.7" rx="2" fill="url(#barGrad)" /><rect x="155.0" y="158.1" width="34.5" height="121.9" rx="2" fill="url(#barGrad)" /><rect x="212.5" y="188.3" width="34.5" height="91.7" rx="2" fill="url(#barGrad)" /><rect x="270.0" y="183.0" width="34.5" height="97.0" rx="2" fill="url(#barGrad)" /><rect x="327.5" y="148.2" width="34.5" height="131.8" rx="2" fill="url(#barGrad)" /><rect x="385.0" y="164.6" width="34.5" height="115.4" rx="2" fill="url(#barGrad)" /><rect x="442.5" y="156.8" width="34.5" height="123.2" rx="2" fill="url(#barGrad)" /><rect x="500.0" y="171.3" width="34.5" height="108.7" rx="2" fill="url(#barGrad)" /><rect x="557.5" y="169.6" width="34.5" height="110.4" rx="2" fill="url(#barGrad)" /><rect x="615.0" y="171.2" width="34.5" height="108.8" rx="2" fill="url(#barGrad)" /><rect x="672.5" y="182.6" width="34.5" height="97.4" rx="2" fill="url(#barGrad)" /><rect x="730.0" y="176.0" width="34.5" height="104.0" rx="2" fill="url(#barGrad)" /><rect x="787.5" y="162.2" width="34.5" height="117.8" rx="2" fill="url(#barGrad)" /><rect x="845.0" y="178.8" width="34.5" height="101.2" rx="2" fill="url(#barGrad)" /><rect x="902.5" y="195.0" width="34.5" height="85.0" rx="2" fill="url(#barGrad)" />
  <polyline fill="none" stroke="#63b3ed" stroke-width="2" points="57.3,82.1 114.8,50.2 172.3,63.7 229.8,96.9 287.3,85.6 344.8,63.0 402.3,40.0 459.8,46.4 517.3,73.6 574.8,67.4 632.3,75.5 689.8,87.6 747.3,93.3 804.8,43.8 862.3,75.0 919.8,108.4"/>
  <circle cx="57.3" cy="79.1" r="2.5" fill="#f6ad55" /><circle cx="114.8" cy="83.9" r="2.5" fill="#f6ad55" /><circle cx="172.3" cy="55.0" r="2.5" fill="#f6ad55" /><circle cx="229.8" cy="40.0" r="2.5" fill="#f6ad55" /><circle cx="287.3" cy="83.5" r="2.5" fill="#f6ad55" /><circle cx="344.8" cy="93.5" r="2.5" fill="#f6ad55" /><circle cx="402.3" cy="92.6" r="2.5" fill="#f6ad55" /><circle cx="459.8" cy="95.5" r="2.5" fill="#f6ad55" /><circle cx="517.3" cy="112.8" r="2.5" fill="#f6ad55" /><circle cx="574.8" cy="124.4" r="2.5" fill="#f6ad55" /><circle cx="632.3" cy="98.5" r="2.5" fill="#f6ad55" /><circle cx="689.8" cy="97.2" r="2.5" fill="#f6ad55" /><circle cx="747.3" cy="84.7" r="2.5" fill="#f6ad55" /><circle cx="804.8" cy="95.0" r="2.5" fill="#f6ad55" /><circle cx="862.3" cy="115.3" r="2.5" fill="#f6ad55" /><circle cx="919.8" cy="92.8" r="2.5" fill="#f6ad55" />
  <text x="40" y="30" fill="#9aa6b2" font-size="12">Hourly rate: Molts (bars), Likes (line), Views (dots scaled)</text>
  <text x="40" y="310" fill="#9aa6b2" font-size="11">max rate ~718.37 / hour</text>
</svg>