<?xml version="1.0" encoding="UTF-8"?>
<svg xmlns="http://www.w3.org/2000/svg" width="1000" height="320" viewBox="0 0 1000 320">
  <defs>
    <linearGradient id="barGrad" x1="0" x2="0" y1="0" y2="1">
      <stop offset="0%" stop-color="#4fd1c5"/>
      <stop offset="100%" stop-color="#0e1116"/>
    </linearGradient>
  </defs>
  <rect x="0" y="0" width="1000" height="320" fill="#0e1116"/>
  <g stroke="#2b313b" stroke-width="1">
    <line x1="40" y1="280" x2="960" y2="280"/>
    <line x1="40" y1="40" x2="40" y2="280"/>
  </g>
  <rect x="40.0" y="161.1" width="36.8" height="118.9" rx="2" fill="url(#barGrad)" /><rect x="101.3" y="120.0" width="36.8" height="160.0" rx="2" fill="url(#barGrad)" /><rect x="162.7" y="112.9" width="36.8" height="167.1" rx="2" fill="url(#barGrad)" /><rect x="224.0" y="125.3" width="36.8" height="154.7" rx="2" fill="url(#barGrad)" /><rect x="285.3" y="113.9" width="36.8" height="166.1" rx="2" fill="url(#barGrad)" /><rect x="346.7" y="122.8" width="36.8" height="157.2" rx="2" fill="url(#barGrad)" /><rect x="408.0" y="117.5" width="36.8" height="162.5" rx="2" fill="url(#barGrad)" /><rect x="469.3" y="97.9" width="36.8" height="182.1" rx="2" fill="url(#barGrad)" /><rect x="530.7" y="140.7" width="36.8" height="139.3" rx="2" fill="url(#barGrad)" /><rect x="592.0" y="113.1" width="36.8" height="166.9" rx="2" fill="url(#barGrad)" /><rect x="653.3" y="92.3" width="36.8" height="187.7" rx="2" fill="url(#barGrad)" /><rect x="714.7" y="107.6" width="36.8" height="172.4" rx="2" fill="url(#barGrad)" /><rect x="776.0" y="120.5" width="36.8" height="159.5" rx="2" fill="url(#barGrad)" /><rect x="837.3" y="114.3" width="36.8" height="165.7" rx="2" fill="url(#barGrad)" /><rect x="898.7" y="159.1" width="36.8" height="120.9" rx="2" fill="url(#barGrad)" />
  <polyline fill="none" stroke="#63b3ed" stroke-width="2" points="58.4,127.6 119.7,80.7 181.1,85.0 242.4,98.2 303.7,88.1 365.1,81.9 426.4,40.0 487.7,55.8 549.1,112.1 610.4,93.5 671.7,91.0 733.1,49.9 794.4,48.8 855.7,56.0 917.1,109.7"/>
  <circle cx="58.4" cy="100.8" r="2.5" fill="#f6ad55" /><circle cx="119.7" cy="64.8" r="2.5" fill="#f6ad55" /><circle cx="181.1" cy="52.4" r="2.5" fill="#f6ad55" /><circle cx="242.4" cy="40.0" r="2.5" fill="#f6ad55" /><circle cx="303.7" cy="45.2" r="2.5" fill="#f6ad55" /><circle cx="365.1" cy="83.8" r="2.5" fill="#f6ad55" /><circle cx="426.4" cy="57.7" r="2.5" fill="#f6ad55" /><circle cx="487.7" cy="87.9" r="2.5" fill="#f6ad55" /><circle cx="549.1" cy="83.5" r="2.5" fill="#f6ad55" /><circle cx="610.4" cy="90.8" r="2.5" fill="#f6ad55" /><circle cx="671.7" cy="91.1" r="2.5" fill="#f6ad55" /><circle cx="733.1" cy="90.8" r="2.5" fill="#f6ad55" /><circle cx="794.4" cy="44.6" r="2.5" fill="#f6ad55" /><circle cx="855.7" cy="88.7" r="2.5" fill="#f6ad55" /><circle cx="917.1" cy="87.9" r="2.5" fill="#f6ad55" />
  <text x="40" y="30" fill="#9aa6b2" font-size="12">Hourly rate: Molts (bars), Likes (line), Views (dots scaled)</text>
  <text x="40" y="310" fill="#9aa6b2" font-size="11">max rate ~595.01 / hour</text>
</svg>