<?xml version="1.0" encoding="UTF-8"?>
<svg xmlns="http://www.w3.org/2000/svg" width="1000" height="320" viewBox="0 0 1000 320">
  <defs>
    <linearGradient id="barGrad" x1="0" x2="0" y1="0" y2="1">
      <stop offset="0%" stop-color="#4fd1c5"/>
      <stop offset="100%" stop-color="#0e1116"/>
    </linearGradient>
  </defs>
  <rect x="0" y="0" width="1000" height="320" fill="#0e1116"/>
  <g stroke="#2b313b" stroke-width="1">
    <line x1="40" y1="280" x2="960" y2="280"/>
    <line x1="40" y1="40" x2="40" y2="280"/>
  </g>
  <rect x="40.0" y="218.3" width="23.0" height="61.7" rx="2" fill="url(#barGrad)" /><rect x="78.3" y="165.2" width="23.0" height="114.8" rx="2" fill="url(#barGrad)" /><rect x="116.7" y="194.0" width="23.0" height="86.0" rx="2" fill="url(#barGrad)" /><rect x="155.0" y="185.6" width="23.0" height="94.4" rx="2" fill="url(#barGrad)" /><rect x="193.3" y="159.0" width="23.0" height="121.0" rx="2" fill="url(#barGrad)" /><rect x="231.7" y="119.8" width="23.0" height="160.2" rx="2" fill="url(#barGrad)" /><rect x="270.0" y="149.0" width="23.0" height="131.0" rx="2" fill="url(#barGrad)" /><rect x="308.3" y="174.9" width="23.0" height="105.1" rx="2" fill="url(#barGrad)" /><rect x="346.7" y="175.1" width="23.0" height="104.9" rx="2" fill="url(#barGrad)" /><rect x="385.0" y="161.6" width="23.0" height="118.4" rx="2" fill="url(#barGrad)" /><rect x="423.3" y="142.9" width="23.0" height="137.1" rx="2" fill="url(#barGrad)" /><rect x="461.7" y="163.9" width="23.0" height="116.1" rx="2" fill="url(#barGrad)" /><rect x="500.0" y="166.0" width="23.0" height="114.0" rx="2" fill="url(#barGrad)" /><rect x="538.3" y="169.6" width="23.0" height="110.4" rx="2" fill="url(#barGrad)" /><rect x="576.7" y="150.5" width="23.0" height="129.5" rx="2" fill="url(#barGrad)" /><rect x="615.0" y="160.6" width="23.0" height="119.4" rx="2" fill="url(#barGrad)" /><rect x="653.3" y="170.5" width="23.0" height="109.5" rx="2" fill="url(#barGrad)" /><rect x="691.7" y="172.5" width="23.0" height="107.5" rx="2" fill="url(#barGrad)" /><rect x="730.0" y="155.8" width="23.0" height="124.2" rx="2" fill="url(#barGrad)" /><rect x="768.3" y="135.9" width="23.0" height="144.1" rx="2" fill="url(#barGrad)" /><rect x="806.7" y="159.2" width="23.0" height="120.8" rx="2" fill="url(#barGrad)" /><rect x="845.0" y="190.3" width="23.0" height="89.7" rx="2" fill="url(#barGrad)" /><rect x="883.3" y="183.4" width="23.0" height="96.6" rx="2" fill="url(#barGrad)" /><rect x="921.7" y="184.5" width="23.0" height="95.5" rx="2" fill="url(#barGrad)" />
  <polyline fill="none" stroke="#63b3ed" stroke-width="2" points="51.5,134.4 89.8,48.0 128.2,75.8 166.5,85.7 204.8,95.9 243.2,74.2 281.5,99.2 319.8,84.4 358.2,84.2 396.5,128.3 434.8,116.3 473.2,81.8 511.5,117.0 549.8,111.8 588.2,96.1 626.5,99.0 664.8,75.3 703.2,76.3 741.5,58.6 779.8,40.0 818.2,88.1 856.5,99.2 894.8,84.7 933.2,83.5"/>
  <circle cx="51.5" cy="69.9" r="2.5" fill="#f6ad55" /><circle cx="89.8" cy="85.0" r="2.5" fill="#f6ad55" /><circle cx="128.2" cy="83.1" r="2.5" fill="#f6ad55" /><circle cx="166.5" cy="70.1" r="2.5" fill="#f6ad55" /><circle cx="204.8" cy="52.2" r="2.5" fill="#f6ad55" /><circle cx="243.2" cy="44.4" r="2.5" fill="#f6ad55" /><circle cx="281.5" cy="54.8" r="2.5" fill="#f6ad55" /><circle cx="319.8" cy="78.2" r="2.5" fill="#f6ad55" /><circle cx="358.2" cy="72.1" r="2.5" fill="#f6ad55" /><circle cx="396.5" cy="70.0" r="2.5" fill="#f6ad55" /><circle cx="434.8" cy="62.4" r="2.5" fill="#f6ad55" /><circle cx="473.2" cy="66.5" r="2.5" fill="#f6ad55" /><circle cx="511.5" cy="49.8" r="2.5" fill="#f6ad55" /><circle cx="549.8" cy="40.0" r="2.5" fill="#f6ad55" /><circle cx="588.2" cy="62.0" r="2.5" fill="#f6ad55" /><circle cx="626.5" cy="70.6" r="2.5" fill="#f6ad55" /><circle cx="664.8" cy="73.0" r="2.5" fill="#f6ad55" /><circle cx="703.2" cy="80.9" r="2.5" fill="#f6ad55" /><circle cx="741.5" cy="85.3" r="2.5" fill="#f6ad55" /><circle cx="779.8" cy="65.1" r="2.5" fill="#f6ad55" /><circle cx="818.2" cy="60.1" r="2.5" fill="#f6ad55" /><circle cx="856.5" cy="53.1" r="2.5" fill="#f6ad55" /><circle cx="894.8" cy="60.0" r="2.5" fill="#f6ad55" /><circle cx="933.2" cy="56.4" r="2.5" fill="#f6ad55" />
  <text x="40" y="30" fill="#9aa6b2" font-size="12">Hourly rate: Molts (bars), Likes (line), Views (dots scaled)</text>
  <text x="40" y="310" fill="#9aa6b2" font-size="11">max rate ~694.70 / hour</text>
</svg>