<?xml version="1.0" encoding="UTF-8"?>
<svg xmlns="http://www.w3.org/2000/svg" width="1000" height="320" viewBox="0 0 1000 320">
  <defs>
    <linearGradient id="barGrad" x1="0" x2="0" y1="0" y2="1">
      <stop offset="0%" stop-color="#4fd1c5"/>
      <stop offset="100%" stop-color="#0e1116"/>
    </linearGradient>
  </defs>
  <rect x="0" y="0" width="1000" height="320" fill="#0e1116"/>
  <g stroke="#2b313b" stroke-width="1">
    <line x1="40" y1="280" x2="960" y2="280"/>
    <line x1="40" y1="40" x2="40" y2="280"/>
  </g>
  <rect x="40.0" y="182.7" width="55.2" height="97.3" rx="2" fill="url(#barGrad)" /><rect x="132.0" y="55.1" width="55.2" height="224.9" rx="2" fill="url(#barGrad)" /><rect x="224.0" y="83.7" width="55.2" height="196.3" rx="2" fill="url(#barGrad)" /><rect x="316.0" y="40.0" width="55.2" height="240.0" rx="2" fill="url(#barGrad)" /><rect x="408.0" y="40.1" width="55.2" height="239.9" rx="2" fill="url(#barGrad)" /><rect x="500.0" y="79.0" width="55.2" height="201.0" rx="2" fill="url(#barGrad)" /><rect x="592.0" y="79.7" width="55.2" height="200.3" rx="2" fill="url(#barGrad)" /><rect x="684.0" y="102.2" width="55.2" height="177.8" rx="2" fill="url(#barGrad)" /><rect x="776.0" y="104.4" width="55.2" height="175.6" rx="2" fill="url(#barGrad)" /><rect x="868.0" y="48.1" width="55.2" height="231.9" rx="2" fill="url(#barGrad)" />
  <polyline fill="none" stroke="#63b3ed" stroke-width="2" points="67.6,124.8 159.6,63.8 251.6,77.8 343.6,90.7 435.6,113.1 527.6,41.0 619.6,59.7 711.6,51.2 803.6,94.0 895.6,74.9"/>
  <circle cx="67.6" cy="50.7" r="2.5" fill="#f6ad55" /><circle cx="159.6" cy="40.0" r="2.5" fill="#f6ad55" /><circle cx="251.6" cy="54.3" r="2.5" fill="#f6ad55" /><circle cx="343.6" cy="80.9" r="2.5" fill="#f6ad55" /><circle cx="435.6" cy="86.4" r="2.5" fill="#f6ad55" /><circle cx="527.6" cy="87.2" r="2.5" fill="#f6ad55" /><circle cx="619.6" cy="86.5" r="2.5" fill="#f6ad55" /><circle cx="711.6" cy="98.5" r="2.5" fill="#f6ad55" /><circle cx="803.6" cy="101.7" r="2.5" fill="#f6ad55" /><circle cx="895.6" cy="93.3" r="2.5" fill="#f6ad55" />
  <text x="40" y="30" fill="#9aa6b2" font-size="12">Hourly rate: Molts (bars), Likes (line), Views (dots scaled)</text>
  <text x="40" y="310" fill="#9aa6b2" font-size="11">max rate ~584.47 / hour</text>
</svg>