<?xml version="1.0" encoding="UTF-8"?>
<svg xmlns="http://www.w3.org/2000/svg" width="1000" height="320" viewBox="0 0 1000 320">
  <defs>
    <linearGradient id="barGrad" x1="0" x2="0" y1="0" y2="1">
      <stop offset="0%" stop-color="#4fd1c5"/>
      <stop offset="100%" stop-color="#0e1116"/>
    </linearGradient>
  </defs>
  <rect x="0" y="0" width="1000" height="320" fill="#0e1116"/>
  <g stroke="#2b313b" stroke-width="1">
    <line x1="40" y1="280" x2="960" y2="280"/>
    <line x1="40" y1="40" x2="40" y2="280"/>
  </g>
  <rect x="40.0" y="255.1" width="25.1" height="24.9" rx="2" fill="url(#barGrad)" /><rect x="81.8" y="190.5" width="25.1" height="89.5" rx="2" fill="url(#barGrad)" /><rect x="123.6" y="210.2" width="25.1" height="69.8" rx="2" fill="url(#barGrad)" /><rect x="165.5" y="196.7" width="25.1" height="83.3" rx="2" fill="url(#barGrad)" /><rect x="207.3" y="191.2" width="25.1" height="88.8" rx="2" fill="url(#barGrad)" /><rect x="249.1" y="181.7" width="25.1" height="98.3" rx="2" fill="url(#barGrad)" /><rect x="290.9" y="170.7" width="25.1" height="109.3" rx="2" fill="url(#barGrad)" /><rect x="332.7" y="170.1" width="25.1" height="109.9" rx="2" fill="url(#barGrad)" /><rect x="374.5" y="206.2" width="25.1" height="73.8" rx="2" fill="url(#barGrad)" /><rect x="416.4" y="198.1" width="25.1" height="81.9" rx="2" fill="url(#barGrad)" /><rect x="458.2" y="189.9" width="25.1" height="90.1" rx="2" fill="url(#barGrad)" /><rect x="500.0" y="193.8" width="25.1" height="86.2" rx="2" fill="url(#barGrad)" /><rect x="541.8" y="182.9" width="25.1" height="97.1" rx="2" fill="url(#barGrad)" /><rect x="583.6" y="172.8" width="25.1" height="107.2" rx="2" fill="url(#barGrad)" /><rect x="625.5" y="152.8" width="25.1" height="127.2" rx="2" fill="url(#barGrad)" /><rect x="667.3" y="130.5" width="25.1" height="149.5" rx="2" fill="url(#barGrad)" /><rect x="709.1" y="173.5" width="25.1" height="106.5" rx="2" fill="url(#barGrad)" /><rect x="750.9" y="193.1" width="25.1" height="86.9" rx="2" fill="url(#barGrad)" /><rect x="792.7" y="207.6" width="25.1" height="72.4" rx="2" fill="url(#barGrad)" /><rect x="834.5" y="157.8" width="25.1" height="122.2" rx="2" fill="url(#barGrad)" /><rect x="876.4" y="123.4" width="25.1" height="156.6" rx="2" fill="url(#barGrad)" /><rect x="918.2" y="169.0" width="25.1" height="111.0" rx="2" fill="url(#barGrad)" />
  <polyline fill="none" stroke="#63b3ed" stroke-width="2" points="52.5,197.2 94.4,59.3 136.2,90.7 178.0,65.9 219.8,70.7 261.6,57.9 303.5,40.0 345.3,51.3 387.1,133.5 428.9,111.0 470.7,112.9 512.5,87.0 554.4,62.2 596.2,63.4 638.0,59.0 679.8,47.2 721.6,85.2 763.5,85.2 805.3,117.1 847.1,43.0 888.9,73.2 930.7,61.3"/>
  <circle cx="52.5" cy="106.2" r="2.5" fill="#f6ad55" /><circle cx="94.4" cy="101.0" r="2.5" fill="#f6ad55" /><circle cx="136.2" cy="84.0" r="2.5" fill="#f6ad55" /><circle cx="178.0" cy="58.5" r="2.5" fill="#f6ad55" /><circle cx="219.8" cy="62.7" r="2.5" fill="#f6ad55" /><circle cx="261.6" cy="40.0" r="2.5" fill="#f6ad55" /><circle cx="303.5" cy="50.2" r="2.5" fill="#f6ad55" /><circle cx="345.3" cy="50.7" r="2.5" fill="#f6ad55" /><circle cx="387.1" cy="70.0" r="2.5" fill="#f6ad55" /><circle cx="428.9" cy="78.6" r="2.5" fill="#f6ad55" /><circle cx="470.7" cy="90.7" r="2.5" fill="#f6ad55" /><circle cx="512.5" cy="90.6" r="2.5" fill="#f6ad55" /><circle cx="554.4" cy="94.7" r="2.5" fill="#f6ad55" /><circle cx="596.2" cy="103.9" r="2.5" fill="#f6ad55" /><circle cx="638.0" cy="112.5" r="2.5" fill="#f6ad55" /><circle cx="679.8" cy="86.3" r="2.5" fill="#f6ad55" /><circle cx="721.6" cy="93.6" r="2.5" fill="#f6ad55" /><circle cx="763.5" cy="78.3" r="2.5" fill="#f6ad55" /><circle cx="805.3" cy="54.1" r="2.5" fill="#f6ad55" /><circle cx="847.1" cy="70.0" r="2.5" fill="#f6ad55" /><circle cx="888.9" cy="75.1" r="2.5" fill="#f6ad55" /><circle cx="930.7" cy="51.8" r="2.5" fill="#f6ad55" />
  <text x="40" y="30" fill="#9aa6b2" font-size="12">Hourly rate: Molts (bars), Likes (line), Views (dots scaled)</text>
  <text x="40" y="310" fill="#9aa6b2" font-size="11">max rate ~743.65 / hour</text>
</svg>