<?xml version="1.0" encoding="UTF-8"?>
<svg xmlns="http://www.w3.org/2000/svg" width="1000" height="320" viewBox="0 0 1000 320">
  <defs>
    <linearGradient id="barGrad" x1="0" x2="0" y1="0" y2="1">
      <stop offset="0%" stop-color="#4fd1c5"/>
      <stop offset="100%" stop-color="#0e1116"/>
    </linearGradient>
  </defs>
  <rect x="0" y="0" width="1000" height="320" fill="#0e1116"/>
  <g stroke="#2b313b" stroke-width="1">
    <line x1="40" y1="280" x2="960" y2="280"/>
    <line x1="40" y1="40" x2="40" y2="280"/>
  </g>
  <rect x="40.0" y="224.9" width="42.5" height="55.1" rx="2" fill="url(#barGrad)" /><rect x="110.8" y="164.7" width="42.5" height="115.3" rx="2" fill="url(#barGrad)" /><rect x="181.5" y="174.8" width="42.5" height="105.2" rx="2" fill="url(#barGrad)" /><rect x="252.3" y="146.2" width="42.5" height="133.8" rx="2" fill="url(#barGrad)" /><rect x="323.1" y="166.8" width="42.5" height="113.2" rx="2" fill="url(#barGrad)" /><rect x="393.8" y="184.9" width="42.5" height="95.1" rx="2" fill="url(#barGrad)" /><rect x="464.6" y="170.5" width="42.5" height="109.5" rx="2" fill="url(#barGrad)" /><rect x="535.4" y="172.6" width="42.5" height="107.4" rx="2" fill="url(#barGrad)" /><rect x="606.2" y="150.6" width="42.5" height="129.4" rx="2" fill="url(#barGrad)" /><rect x="676.9" y="136.2" width="42.5" height="143.8" rx="2" fill="url(#barGrad)" /><rect x="747.7" y="105.7" width="42.5" height="174.3" rx="2" fill="url(#barGrad)" /><rect x="818.5" y="91.4" width="42.5" height="188.6" rx="2" fill="url(#barGrad)" /><rect x="889.2" y="145.1" width="42.5" height="134.9" rx="2" fill="url(#barGrad)" />
  <polyline fill="none" stroke="#63b3ed" stroke-width="2" points="61.2,152.8 132.0,81.6 202.8,83.0 273.5,47.2 344.3,88.0 415.1,94.2 485.8,67.4 556.6,108.8 627.4,68.3 698.2,62.4 768.9,78.0 839.7,72.0 910.5,40.0"/>
  <circle cx="61.2" cy="40.0" r="2.5" fill="#f6ad55" /><circle cx="132.0" cy="161.6" r="2.5" fill="#f6ad55" /><circle cx="202.8" cy="145.5" r="2.5" fill="#f6ad55" /><circle cx="273.5" cy="146.2" r="2.5" fill="#f6ad55" /><circle cx="344.3" cy="141.6" r="2.5" fill="#f6ad55" /><circle cx="415.1" cy="148.6" r="2.5" fill="#f6ad55" /><circle cx="485.8" cy="160.2" r="2.5" fill="#f6ad55" /><circle cx="556.6" cy="157.9" r="2.5" fill="#f6ad55" /><circle cx="627.4" cy="155.3" r="2.5" fill="#f6ad55" /><circle cx="698.2" cy="129.4" r="2.5" fill="#f6ad55" /><circle cx="768.9" cy="126.4" r="2.5" fill="#f6ad55" /><circle cx="839.7" cy="117.0" r="2.5" fill="#f6ad55" /><circle cx="910.5" cy="130.2" r="2.5" fill="#f6ad55" />
  <text x="40" y="30" fill="#9aa6b2" font-size="12">Hourly rate: Molts (bars), Likes (line), Views (dots scaled)</text>
  <text x="40" y="310" fill="#9aa6b2" font-size="11">max rate ~729.33 / hour</text>
</svg>