<?xml version="1.0" encoding="UTF-8"?>
<svg xmlns="http://www.w3.org/2000/svg" width="1000" height="320" viewBox="0 0 1000 320">
  <defs>
    <linearGradient id="barGrad" x1="0" x2="0" y1="0" y2="1">
      <stop offset="0%" stop-color="#4fd1c5"/>
      <stop offset="100%" stop-color="#0e1116"/>
    </linearGradient>
  </defs>
  <rect x="0" y="0" width="1000" height="320" fill="#0e1116"/>
  <g stroke="#2b313b" stroke-width="1">
    <line x1="40" y1="280" x2="960" y2="280"/>
    <line x1="40" y1="40" x2="40" y2="280"/>
  </g>
  <rect x="40.0" y="265.6" width="26.3" height="14.4" rx="2" fill="url(#barGrad)" /><rect x="83.8" y="243.2" width="26.3" height="36.8" rx="2" fill="url(#barGrad)" /><rect x="127.6" y="233.3" width="26.3" height="46.7" rx="2" fill="url(#barGrad)" /><rect x="171.4" y="247.6" width="26.3" height="32.4" rx="2" fill="url(#barGrad)" /><rect x="215.2" y="252.9" width="26.3" height="27.1" rx="2" fill="url(#barGrad)" /><rect x="259.0" y="209.8" width="26.3" height="70.2" rx="2" fill="url(#barGrad)" /><rect x="302.9" y="243.5" width="26.3" height="36.5" rx="2" fill="url(#barGrad)" /><rect x="346.7" y="236.8" width="26.3" height="43.2" rx="2" fill="url(#barGrad)" /><rect x="390.5" y="253.6" width="26.3" height="26.4" rx="2" fill="url(#barGrad)" /><rect x="434.3" y="246.4" width="26.3" height="33.6" rx="2" fill="url(#barGrad)" /><rect x="478.1" y="226.4" width="26.3" height="53.6" rx="2" fill="url(#barGrad)" /><rect x="521.9" y="218.7" width="26.3" height="61.3" rx="2" fill="url(#barGrad)" /><rect x="565.7" y="205.3" width="26.3" height="74.7" rx="2" fill="url(#barGrad)" /><rect x="609.5" y="216.8" width="26.3" height="63.2" rx="2" fill="url(#barGrad)" /><rect x="653.3" y="196.9" width="26.3" height="83.1" rx="2" fill="url(#barGrad)" /><rect x="697.1" y="158.1" width="26.3" height="121.9" rx="2" fill="url(#barGrad)" /><rect x="741.0" y="40.0" width="26.3" height="240.0" rx="2" fill="url(#barGrad)" /><rect x="784.8" y="148.8" width="26.3" height="131.2" rx="2" fill="url(#barGrad)" /><rect x="828.6" y="199.9" width="26.3" height="80.1" rx="2" fill="url(#barGrad)" /><rect x="872.4" y="202.1" width="26.3" height="77.9" rx="2" fill="url(#barGrad)" /><rect x="916.2" y="217.1" width="26.3" height="62.9" rx="2" fill="url(#barGrad)" />
  <polyline fill="none" stroke="#63b3ed" stroke-width="2" points="53.1,244.3 97.0,230.4 140.8,230.0 184.6,215.9 228.4,232.7 272.2,227.8 316.0,233.8 359.8,207.4 403.6,237.0 447.4,233.9 491.2,225.7 535.0,227.0 578.9,232.0 622.7,227.9 666.5,230.9 710.3,227.0 754.1,232.0 797.9,216.0 841.7,229.4 885.5,222.1 929.3,232.0"/>
  <circle cx="53.1" cy="108.0" r="2.5" fill="#f6ad55" /><circle cx="97.0" cy="122.6" r="2.5" fill="#f6ad55" /><circle cx="140.8" cy="84.9" r="2.5" fill="#f6ad55" /><circle cx="184.6" cy="62.6" r="2.5" fill="#f6ad55" /><circle cx="228.4" cy="58.1" r="2.5" fill="#f6ad55" /><circle cx="272.2" cy="65.7" r="2.5" fill="#f6ad55" /><circle cx="316.0" cy="64.4" r="2.5" fill="#f6ad55" /><circle cx="359.8" cy="65.0" r="2.5" fill="#f6ad55" /><circle cx="403.6" cy="61.2" r="2.5" fill="#f6ad55" /><circle cx="447.4" cy="69.6" r="2.5" fill="#f6ad55" /><circle cx="491.2" cy="69.2" r="2.5" fill="#f6ad55" /><circle cx="535.0" cy="76.6" r="2.5" fill="#f6ad55" /><circle cx="578.9" cy="62.3" r="2.5" fill="#f6ad55" /><circle cx="622.7" cy="71.3" r="2.5" fill="#f6ad55" /><circle cx="666.5" cy="55.0" r="2.5" fill="#f6ad55" /><circle cx="710.3" cy="48.8" r="2.5" fill="#f6ad55" /><circle cx="754.1" cy="62.3" r="2.5" fill="#f6ad55" /><circle cx="797.9" cy="64.4" r="2.5" fill="#f6ad55" /><circle cx="841.7" cy="56.4" r="2.5" fill="#f6ad55" /><circle cx="885.5" cy="50.0" r="2.5" fill="#f6ad55" /><circle cx="929.3" cy="40.0" r="2.5" fill="#f6ad55" />
  <text x="40" y="30" fill="#9aa6b2" font-size="12">Hourly rate: Molts (bars), Likes (line), Views (dots scaled)</text>
  <text x="40" y="310" fill="#9aa6b2" font-size="11">max rate ~2257.04 / hour</text>
</svg>