<?xml version="1.0" encoding="UTF-8"?>
<svg xmlns="http://www.w3.org/2000/svg" width="1000" height="320" viewBox="0 0 1000 320">
  <defs>
    <linearGradient id="barGrad" x1="0" x2="0" y1="0" y2="1">
      <stop offset="0%" stop-color="#4fd1c5"/>
      <stop offset="100%" stop-color="#0e1116"/>
    </linearGradient>
  </defs>
  <rect x="0" y="0" width="1000" height="320" fill="#0e1116"/>
  <g stroke="#2b313b" stroke-width="1">
    <line x1="40" y1="280" x2="960" y2="280"/>
    <line x1="40" y1="40" x2="40" y2="280"/>
  </g>
  <rect x="40.0" y="264.5" width="39.4" height="15.5" rx="2" fill="url(#barGrad)" /><rect x="105.7" y="220.7" width="39.4" height="59.3" rx="2" fill="url(#barGrad)" /><rect x="171.4" y="231.9" width="39.4" height="48.1" rx="2" fill="url(#barGrad)" /><rect x="237.1" y="233.5" width="39.4" height="46.5" rx="2" fill="url(#barGrad)" /><rect x="302.9" y="207.5" width="39.4" height="72.5" rx="2" fill="url(#barGrad)" /><rect x="368.6" y="208.8" width="39.4" height="71.2" rx="2" fill="url(#barGrad)" /><rect x="434.3" y="213.4" width="39.4" height="66.6" rx="2" fill="url(#barGrad)" /><rect x="500.0" y="174.0" width="39.4" height="106.0" rx="2" fill="url(#barGrad)" /><rect x="565.7" y="230.4" width="39.4" height="49.6" rx="2" fill="url(#barGrad)" /><rect x="631.4" y="198.0" width="39.4" height="82.0" rx="2" fill="url(#barGrad)" /><rect x="697.1" y="201.8" width="39.4" height="78.2" rx="2" fill="url(#barGrad)" /><rect x="762.9" y="216.3" width="39.4" height="63.7" rx="2" fill="url(#barGrad)" /><rect x="828.6" y="184.6" width="39.4" height="95.4" rx="2" fill="url(#barGrad)" /><rect x="894.3" y="200.4" width="39.4" height="79.6" rx="2" fill="url(#barGrad)" />
  <polyline fill="none" stroke="#63b3ed" stroke-width="2" points="59.7,235.0 125.4,140.1 191.1,173.8 256.9,183.0 322.6,137.6 388.3,154.7 454.0,166.8 519.7,40.0 585.4,187.6 651.1,140.9 716.9,137.7 782.6,175.7 848.3,171.1 914.0,159.9"/>
  <circle cx="59.7" cy="40.0" r="2.5" fill="#f6ad55" /><circle cx="125.4" cy="146.0" r="2.5" fill="#f6ad55" /><circle cx="191.1" cy="152.3" r="2.5" fill="#f6ad55" /><circle cx="256.9" cy="149.4" r="2.5" fill="#f6ad55" /><circle cx="322.6" cy="145.5" r="2.5" fill="#f6ad55" /><circle cx="388.3" cy="139.4" r="2.5" fill="#f6ad55" /><circle cx="454.0" cy="142.2" r="2.5" fill="#f6ad55" /><circle cx="519.7" cy="140.4" r="2.5" fill="#f6ad55" /><circle cx="585.4" cy="139.0" r="2.5" fill="#f6ad55" /><circle cx="651.1" cy="158.4" r="2.5" fill="#f6ad55" /><circle cx="716.9" cy="153.8" r="2.5" fill="#f6ad55" /><circle cx="782.6" cy="147.6" r="2.5" fill="#f6ad55" /><circle cx="848.3" cy="164.1" r="2.5" fill="#f6ad55" /><circle cx="914.0" cy="166.0" r="2.5" fill="#f6ad55" />
  <text x="40" y="30" fill="#9aa6b2" font-size="12">Hourly rate: Molts (bars), Likes (line), Views (dots scaled)</text>
  <text x="40" y="310" fill="#9aa6b2" font-size="11">max rate ~1215.79 / hour</text>
</svg>