<?xml version="1.0" encoding="UTF-8"?>
<svg xmlns="http://www.w3.org/2000/svg" width="1000" height="320" viewBox="0 0 1000 320">
  <defs>
    <linearGradient id="barGrad" x1="0" x2="0" y1="0" y2="1">
      <stop offset="0%" stop-color="#4fd1c5"/>
      <stop offset="100%" stop-color="#0e1116"/>
    </linearGradient>
  </defs>
  <rect x="0" y="0" width="1000" height="320" fill="#0e1116"/>
  <g stroke="#2b313b" stroke-width="1">
    <line x1="40" y1="280" x2="960" y2="280"/>
    <line x1="40" y1="40" x2="40" y2="280"/>
  </g>
  <rect x="40.0" y="142.3" width="26.3" height="137.7" rx="2" fill="url(#barGrad)" /><rect x="83.8" y="157.3" width="26.3" height="122.7" rx="2" fill="url(#barGrad)" /><rect x="127.6" y="158.1" width="26.3" height="121.9" rx="2" fill="url(#barGrad)" /><rect x="171.4" y="188.3" width="26.3" height="91.7" rx="2" fill="url(#barGrad)" /><rect x="215.2" y="183.0" width="26.3" height="97.0" rx="2" fill="url(#barGrad)" /><rect x="259.0" y="148.2" width="26.3" height="131.8" rx="2" fill="url(#barGrad)" /><rect x="302.9" y="164.6" width="26.3" height="115.4" rx="2" fill="url(#barGrad)" /><rect x="346.7" y="156.8" width="26.3" height="123.2" rx="2" fill="url(#barGrad)" /><rect x="390.5" y="171.3" width="26.3" height="108.7" rx="2" fill="url(#barGrad)" /><rect x="434.3" y="169.6" width="26.3" height="110.4" rx="2" fill="url(#barGrad)" /><rect x="478.1" y="171.2" width="26.3" height="108.8" rx="2" fill="url(#barGrad)" /><rect x="521.9" y="182.6" width="26.3" height="97.4" rx="2" fill="url(#barGrad)" /><rect x="565.7" y="176.0" width="26.3" height="104.0" rx="2" fill="url(#barGrad)" /><rect x="609.5" y="162.2" width="26.3" height="117.8" rx="2" fill="url(#barGrad)" /><rect x="653.3" y="178.8" width="26.3" height="101.2" rx="2" fill="url(#barGrad)" /><rect x="697.1" y="195.0" width="26.3" height="85.0" rx="2" fill="url(#barGrad)" /><rect x="741.0" y="204.1" width="26.3" height="75.9" rx="2" fill="url(#barGrad)" /><rect x="784.8" y="190.0" width="26.3" height="90.0" rx="2" fill="url(#barGrad)" /><rect x="828.6" y="210.5" width="26.3" height="69.5" rx="2" fill="url(#barGrad)" /><rect x="872.4" y="189.9" width="26.3" height="90.1" rx="2" fill="url(#barGrad)" /><rect x="916.2" y="199.5" width="26.3" height="80.5" rx="2" fill="url(#barGrad)" />
  <polyline fill="none" stroke="#63b3ed" stroke-width="2" points="53.1,82.1 97.0,50.2 140.8,63.7 184.6,96.9 228.4,85.6 272.2,63.0 316.0,40.0 359.8,46.4 403.6,73.6 447.4,67.4 491.2,75.5 535.0,87.6 578.9,93.3 622.7,43.8 666.5,75.0 710.3,108.4 754.1,145.3 797.9,89.6 841.7,111.1 885.5,105.3 929.3,118.4"/>
  <circle cx="53.1" cy="79.1" r="2.5" fill="#f6ad55" /><circle cx="97.0" cy="83.9" r="2.5" fill="#f6ad55" /><circle cx="140.8" cy="55.0" r="2.5" fill="#f6ad55" /><circle cx="184.6" cy="40.0" r="2.5" fill="#f6ad55" /><circle cx="228.4" cy="83.5" r="2.5" fill="#f6ad55" /><circle cx="272.2" cy="93.5" r="2.5" fill="#f6ad55" /><circle cx="316.0" cy="92.6" r="2.5" fill="#f6ad55" /><circle cx="359.8" cy="95.5" r="2.5" fill="#f6ad55" /><circle cx="403.6" cy="112.8" r="2.5" fill="#f6ad55" /><circle cx="447.4" cy="124.4" r="2.5" fill="#f6ad55" /><circle cx="491.2" cy="98.5" r="2.5" fill="#f6ad55" /><circle cx="535.0" cy="97.2" r="2.5" fill="#f6ad55" /><circle cx="578.9" cy="84.7" r="2.5" fill="#f6ad55" /><circle cx="622.7" cy="95.0" r="2.5" fill="#f6ad55" /><circle cx="666.5" cy="115.3" r="2.5" fill="#f6ad55" /><circle cx="710.3" cy="92.8" r="2.5" fill="#f6ad55" /><circle cx="754.1" cy="103.9" r="2.5" fill="#f6ad55" /><circle cx="797.9" cy="77.2" r="2.5" fill="#f6ad55" /><circle cx="841.7" cy="79.1" r="2.5" fill="#f6ad55" /><circle cx="885.5" cy="70.1" r="2.5" fill="#f6ad55" /><circle cx="929.3" cy="84.5" r="2.5" fill="#f6ad55" />
  <text x="40" y="30" fill="#9aa6b2" font-size="12">Hourly rate: Molts (bars), Likes (line), Views (dots scaled)</text>
  <text x="40" y="310" fill="#9aa6b2" font-size="11">max rate ~718.37 / hour</text>
</svg>