<?xml version="1.0" encoding="UTF-8"?>
<svg xmlns="http://www.w3.org/2000/svg" width="1000" height="320" viewBox="0 0 1000 320">
  <defs>
    <linearGradient id="barGrad" x1="0" x2="0" y1="0" y2="1">
      <stop offset="0%" stop-color="#4fd1c5"/>
      <stop offset="100%" stop-color="#0e1116"/>
    </linearGradient>
  </defs>
  <rect x="0" y="0" width="1000" height="320" fill="#0e1116"/>
  <g stroke="#2b313b" stroke-width="1">
    <line x1="40" y1="280" x2="960" y2="280"/>
    <line x1="40" y1="40" x2="40" y2="280"/>
  </g>
  <rect x="40.0" y="142.3" width="24.0" height="137.7" rx="2" fill="url(#barGrad)" /><rect x="80.0" y="157.3" width="24.0" height="122.7" rx="2" fill="url(#barGrad)" /><rect x="120.0" y="158.1" width="24.0" height="121.9" rx="2" fill="url(#barGrad)" /><rect x="160.0" y="188.3" width="24.0" height="91.7" rx="2" fill="url(#barGrad)" /><rect x="200.0" y="183.0" width="24.0" height="97.0" rx="2" fill="url(#barGrad)" /><rect x="240.0" y="148.2" width="24.0" height="131.8" rx="2" fill="url(#barGrad)" /><rect x="280.0" y="164.6" width="24.0" height="115.4" rx="2" fill="url(#barGrad)" /><rect x="320.0" y="156.8" width="24.0" height="123.2" rx="2" fill="url(#barGrad)" /><rect x="360.0" y="171.3" width="24.0" height="108.7" rx="2" fill="url(#barGrad)" /><rect x="400.0" y="169.6" width="24.0" height="110.4" rx="2" fill="url(#barGrad)" /><rect x="440.0" y="171.2" width="24.0" height="108.8" rx="2" fill="url(#barGrad)" /><rect x="480.0" y="182.6" width="24.0" height="97.4" rx="2" fill="url(#barGrad)" /><rect x="520.0" y="176.0" width="24.0" height="104.0" rx="2" fill="url(#barGrad)" /><rect x="560.0" y="162.2" width="24.0" height="117.8" rx="2" fill="url(#barGrad)" /><rect x="600.0" y="178.8" width="24.0" height="101.2" rx="2" fill="url(#barGrad)" /><rect x="640.0" y="195.0" width="24.0" height="85.0" rx="2" fill="url(#barGrad)" /><rect x="680.0" y="204.1" width="24.0" height="75.9" rx="2" fill="url(#barGrad)" /><rect x="720.0" y="190.0" width="24.0" height="90.0" rx="2" fill="url(#barGrad)" /><rect x="760.0" y="210.5" width="24.0" height="69.5" rx="2" fill="url(#barGrad)" /><rect x="800.0" y="189.9" width="24.0" height="90.1" rx="2" fill="url(#barGrad)" /><rect x="840.0" y="205.0" width="24.0" height="75.0" rx="2" fill="url(#barGrad)" /><rect x="880.0" y="193.5" width="24.0" height="86.5" rx="2" fill="url(#barGrad)" /><rect x="920.0" y="186.5" width="24.0" height="93.5" rx="2" fill="url(#barGrad)" />
  <polyline fill="none" stroke="#63b3ed" stroke-width="2" points="52.0,82.1 92.0,50.2 132.0,63.7 172.0,96.9 212.0,85.6 252.0,63.0 292.0,40.0 332.0,46.4 372.0,73.6 412.0,67.4 452.0,75.5 492.0,87.6 532.0,93.3 572.0,43.8 612.0,75.0 652.0,108.4 692.0,145.3 732.0,89.6 772.0,111.1 812.0,105.3 852.0,115.1 892.0,115.2 932.0,125.0"/>
  <circle cx="52.0" cy="79.1" r="2.5" fill="#f6ad55" /><circle cx="92.0" cy="83.9" r="2.5" fill="#f6ad55" /><circle cx="132.0" cy="55.0" r="2.5" fill="#f6ad55" /><circle cx="172.0" cy="40.0" r="2.5" fill="#f6ad55" /><circle cx="212.0" cy="83.5" r="2.5" fill="#f6ad55" /><circle cx="252.0" cy="93.5" r="2.5" fill="#f6ad55" /><circle cx="292.0" cy="92.6" r="2.5" fill="#f6ad55" /><circle cx="332.0" cy="95.5" r="2.5" fill="#f6ad55" /><circle cx="372.0" cy="112.8" r="2.5" fill="#f6ad55" /><circle cx="412.0" cy="124.4" r="2.5" fill="#f6ad55" /><circle cx="452.0" cy="98.5" r="2.5" fill="#f6ad55" /><circle cx="492.0" cy="97.2" r="2.5" fill="#f6ad55" /><circle cx="532.0" cy="84.7" r="2.5" fill="#f6ad55" /><circle cx="572.0" cy="95.0" r="2.5" fill="#f6ad55" /><circle cx="612.0" cy="115.3" r="2.5" fill="#f6ad55" /><circle cx="652.0" cy="92.8" r="2.5" fill="#f6ad55" /><circle cx="692.0" cy="103.9" r="2.5" fill="#f6ad55" /><circle cx="732.0" cy="77.2" r="2.5" fill="#f6ad55" /><circle cx="772.0" cy="79.1" r="2.5" fill="#f6ad55" /><circle cx="812.0" cy="70.1" r="2.5" fill="#f6ad55" /><circle cx="852.0" cy="85.6" r="2.5" fill="#f6ad55" /><circle cx="892.0" cy="81.6" r="2.5" fill="#f6ad55" /><circle cx="932.0" cy="93.3" r="2.5" fill="#f6ad55" />
  <text x="40" y="30" fill="#9aa6b2" font-size="12">Hourly rate: Molts (bars), Likes (line), Views (dots scaled)</text>
  <text x="40" y="310" fill="#9aa6b2" font-size="11">max rate ~718.37 / hour</text>
</svg>