<?xml version="1.0" encoding="UTF-8"?>
<svg xmlns="http://www.w3.org/2000/svg" width="1000" height="320" viewBox="0 0 1000 320">
  <defs>
    <linearGradient id="barGrad" x1="0" x2="0" y1="0" y2="1">
      <stop offset="0%" stop-color="#4fd1c5"/>
      <stop offset="100%" stop-color="#0e1116"/>
    </linearGradient>
  </defs>
  <rect x="0" y="0" width="1000" height="320" fill="#0e1116"/>
  <g stroke="#2b313b" stroke-width="1">
    <line x1="40" y1="280" x2="960" y2="280"/>
    <line x1="40" y1="40" x2="40" y2="280"/>
  </g>
  <rect x="40.0" y="216.2" width="34.5" height="63.8" rx="2" fill="url(#barGrad)" /><rect x="97.5" y="161.3" width="34.5" height="118.7" rx="2" fill="url(#barGrad)" /><rect x="155.0" y="191.1" width="34.5" height="88.9" rx="2" fill="url(#barGrad)" /><rect x="212.5" y="182.4" width="34.5" height="97.6" rx="2" fill="url(#barGrad)" /><rect x="270.0" y="154.9" width="34.5" height="125.1" rx="2" fill="url(#barGrad)" /><rect x="327.5" y="114.3" width="34.5" height="165.7" rx="2" fill="url(#barGrad)" /><rect x="385.0" y="144.5" width="34.5" height="135.5" rx="2" fill="url(#barGrad)" /><rect x="442.5" y="171.3" width="34.5" height="108.7" rx="2" fill="url(#barGrad)" /><rect x="500.0" y="171.5" width="34.5" height="108.5" rx="2" fill="url(#barGrad)" /><rect x="557.5" y="157.5" width="34.5" height="122.5" rx="2" fill="url(#barGrad)" /><rect x="615.0" y="138.2" width="34.5" height="141.8" rx="2" fill="url(#barGrad)" /><rect x="672.5" y="159.9" width="34.5" height="120.1" rx="2" fill="url(#barGrad)" /><rect x="730.0" y="162.1" width="34.5" height="117.9" rx="2" fill="url(#barGrad)" /><rect x="787.5" y="165.9" width="34.5" height="114.1" rx="2" fill="url(#barGrad)" /><rect x="845.0" y="146.0" width="34.5" height="134.0" rx="2" fill="url(#barGrad)" /><rect x="902.5" y="154.4" width="34.5" height="125.6" rx="2" fill="url(#barGrad)" />
  <polyline fill="none" stroke="#63b3ed" stroke-width="2" points="57.3,129.4 114.8,40.0 172.3,68.7 229.8,79.1 287.3,89.6 344.8,67.1 402.3,93.0 459.8,77.7 517.3,77.5 574.8,123.0 632.3,110.7 689.8,75.0 747.3,111.4 804.8,106.1 862.3,89.7 919.8,108.1"/>
  <circle cx="57.3" cy="69.9" r="2.5" fill="#f6ad55" /><circle cx="114.8" cy="85.0" r="2.5" fill="#f6ad55" /><circle cx="172.3" cy="83.1" r="2.5" fill="#f6ad55" /><circle cx="229.8" cy="70.1" r="2.5" fill="#f6ad55" /><circle cx="287.3" cy="52.2" r="2.5" fill="#f6ad55" /><circle cx="344.8" cy="44.4" r="2.5" fill="#f6ad55" /><circle cx="402.3" cy="54.8" r="2.5" fill="#f6ad55" /><circle cx="459.8" cy="78.2" r="2.5" fill="#f6ad55" /><circle cx="517.3" cy="72.1" r="2.5" fill="#f6ad55" /><circle cx="574.8" cy="70.0" r="2.5" fill="#f6ad55" /><circle cx="632.3" cy="62.4" r="2.5" fill="#f6ad55" /><circle cx="689.8" cy="66.5" r="2.5" fill="#f6ad55" /><circle cx="747.3" cy="49.8" r="2.5" fill="#f6ad55" /><circle cx="804.8" cy="40.0" r="2.5" fill="#f6ad55" /><circle cx="862.3" cy="62.0" r="2.5" fill="#f6ad55" /><circle cx="919.8" cy="90.2" r="2.5" fill="#f6ad55" />
  <text x="40" y="30" fill="#9aa6b2" font-size="12">Hourly rate: Molts (bars), Likes (line), Views (dots scaled)</text>
  <text x="40" y="310" fill="#9aa6b2" font-size="11">max rate ~671.63 / hour</text>
</svg>