<?xml version="1.0" encoding="UTF-8"?>
<svg xmlns="http://www.w3.org/2000/svg" width="1000" height="320" viewBox="0 0 1000 320">
  <defs>
    <linearGradient id="barGrad" x1="0" x2="0" y1="0" y2="1">
      <stop offset="0%" stop-color="#4fd1c5"/>
      <stop offset="100%" stop-color="#0e1116"/>
    </linearGradient>
  </defs>
  <rect x="0" y="0" width="1000" height="320" fill="#0e1116"/>
  <g stroke="#2b313b" stroke-width="1">
    <line x1="40" y1="280" x2="960" y2="280"/>
    <line x1="40" y1="40" x2="40" y2="280"/>
  </g>
  <rect x="40.0" y="161.1" width="27.6" height="118.9" rx="2" fill="url(#barGrad)" /><rect x="86.0" y="120.0" width="27.6" height="160.0" rx="2" fill="url(#barGrad)" /><rect x="132.0" y="112.9" width="27.6" height="167.1" rx="2" fill="url(#barGrad)" /><rect x="178.0" y="125.3" width="27.6" height="154.7" rx="2" fill="url(#barGrad)" /><rect x="224.0" y="113.9" width="27.6" height="166.1" rx="2" fill="url(#barGrad)" /><rect x="270.0" y="122.8" width="27.6" height="157.2" rx="2" fill="url(#barGrad)" /><rect x="316.0" y="117.5" width="27.6" height="162.5" rx="2" fill="url(#barGrad)" /><rect x="362.0" y="97.9" width="27.6" height="182.1" rx="2" fill="url(#barGrad)" /><rect x="408.0" y="140.7" width="27.6" height="139.3" rx="2" fill="url(#barGrad)" /><rect x="454.0" y="113.1" width="27.6" height="166.9" rx="2" fill="url(#barGrad)" /><rect x="500.0" y="92.3" width="27.6" height="187.7" rx="2" fill="url(#barGrad)" /><rect x="546.0" y="107.6" width="27.6" height="172.4" rx="2" fill="url(#barGrad)" /><rect x="592.0" y="120.5" width="27.6" height="159.5" rx="2" fill="url(#barGrad)" /><rect x="638.0" y="114.3" width="27.6" height="165.7" rx="2" fill="url(#barGrad)" /><rect x="684.0" y="159.1" width="27.6" height="120.9" rx="2" fill="url(#barGrad)" /><rect x="730.0" y="162.7" width="27.6" height="117.3" rx="2" fill="url(#barGrad)" /><rect x="776.0" y="138.1" width="27.6" height="141.9" rx="2" fill="url(#barGrad)" /><rect x="822.0" y="154.2" width="27.6" height="125.8" rx="2" fill="url(#barGrad)" /><rect x="868.0" y="149.4" width="27.6" height="130.6" rx="2" fill="url(#barGrad)" /><rect x="914.0" y="133.3" width="27.6" height="146.7" rx="2" fill="url(#barGrad)" />
  <polyline fill="none" stroke="#63b3ed" stroke-width="2" points="53.8,127.6 99.8,80.7 145.8,85.0 191.8,98.2 237.8,88.1 283.8,81.9 329.8,40.0 375.8,55.8 421.8,112.1 467.8,93.5 513.8,91.0 559.8,49.9 605.8,48.8 651.8,56.0 697.8,109.7 743.8,104.0 789.8,67.8 835.8,77.9 881.8,113.2 927.8,57.9"/>
  <circle cx="53.8" cy="100.8" r="2.5" fill="#f6ad55" /><circle cx="99.8" cy="64.8" r="2.5" fill="#f6ad55" /><circle cx="145.8" cy="52.4" r="2.5" fill="#f6ad55" /><circle cx="191.8" cy="40.0" r="2.5" fill="#f6ad55" /><circle cx="237.8" cy="45.2" r="2.5" fill="#f6ad55" /><circle cx="283.8" cy="83.8" r="2.5" fill="#f6ad55" /><circle cx="329.8" cy="57.7" r="2.5" fill="#f6ad55" /><circle cx="375.8" cy="87.9" r="2.5" fill="#f6ad55" /><circle cx="421.8" cy="83.5" r="2.5" fill="#f6ad55" /><circle cx="467.8" cy="90.8" r="2.5" fill="#f6ad55" /><circle cx="513.8" cy="91.1" r="2.5" fill="#f6ad55" /><circle cx="559.8" cy="90.8" r="2.5" fill="#f6ad55" /><circle cx="605.8" cy="44.6" r="2.5" fill="#f6ad55" /><circle cx="651.8" cy="88.7" r="2.5" fill="#f6ad55" /><circle cx="697.8" cy="87.9" r="2.5" fill="#f6ad55" /><circle cx="743.8" cy="89.1" r="2.5" fill="#f6ad55" /><circle cx="789.8" cy="86.9" r="2.5" fill="#f6ad55" /><circle cx="835.8" cy="82.4" r="2.5" fill="#f6ad55" /><circle cx="881.8" cy="76.0" r="2.5" fill="#f6ad55" /><circle cx="927.8" cy="77.4" r="2.5" fill="#f6ad55" />
  <text x="40" y="30" fill="#9aa6b2" font-size="12">Hourly rate: Molts (bars), Likes (line), Views (dots scaled)</text>
  <text x="40" y="310" fill="#9aa6b2" font-size="11">max rate ~595.01 / hour</text>
</svg>