<?xml version="1.0" encoding="UTF-8"?>
<svg xmlns="http://www.w3.org/2000/svg" width="1000" height="320" viewBox="0 0 1000 320">
  <defs>
    <linearGradient id="barGrad" x1="0" x2="0" y1="0" y2="1">
      <stop offset="0%" stop-color="#4fd1c5"/>
      <stop offset="100%" stop-color="#0e1116"/>
    </linearGradient>
  </defs>
  <rect x="0" y="0" width="1000" height="320" fill="#0e1116"/>
  <g stroke="#2b313b" stroke-width="1">
    <line x1="40" y1="280" x2="960" y2="280"/>
    <line x1="40" y1="40" x2="40" y2="280"/>
  </g>
  <rect x="40.0" y="260.6" width="26.3" height="19.4" rx="2" fill="url(#barGrad)" /><rect x="83.8" y="216.4" width="26.3" height="63.6" rx="2" fill="url(#barGrad)" /><rect x="127.6" y="229.6" width="26.3" height="50.4" rx="2" fill="url(#barGrad)" /><rect x="171.4" y="232.5" width="26.3" height="47.5" rx="2" fill="url(#barGrad)" /><rect x="215.2" y="221.3" width="26.3" height="58.7" rx="2" fill="url(#barGrad)" /><rect x="259.0" y="225.9" width="26.3" height="54.1" rx="2" fill="url(#barGrad)" /><rect x="302.9" y="230.1" width="26.3" height="49.9" rx="2" fill="url(#barGrad)" /><rect x="346.7" y="222.6" width="26.3" height="57.4" rx="2" fill="url(#barGrad)" /><rect x="390.5" y="130.1" width="26.3" height="149.9" rx="2" fill="url(#barGrad)" /><rect x="434.3" y="216.6" width="26.3" height="63.4" rx="2" fill="url(#barGrad)" /><rect x="478.1" y="206.1" width="26.3" height="73.9" rx="2" fill="url(#barGrad)" /><rect x="521.9" y="184.3" width="26.3" height="95.7" rx="2" fill="url(#barGrad)" /><rect x="565.7" y="193.8" width="26.3" height="86.2" rx="2" fill="url(#barGrad)" /><rect x="609.5" y="227.5" width="26.3" height="52.5" rx="2" fill="url(#barGrad)" /><rect x="653.3" y="213.2" width="26.3" height="66.8" rx="2" fill="url(#barGrad)" /><rect x="697.1" y="230.9" width="26.3" height="49.1" rx="2" fill="url(#barGrad)" /><rect x="741.0" y="205.4" width="26.3" height="74.6" rx="2" fill="url(#barGrad)" /><rect x="784.8" y="176.1" width="26.3" height="103.9" rx="2" fill="url(#barGrad)" /><rect x="828.6" y="195.9" width="26.3" height="84.1" rx="2" fill="url(#barGrad)" /><rect x="872.4" y="174.3" width="26.3" height="105.7" rx="2" fill="url(#barGrad)" /><rect x="916.2" y="201.8" width="26.3" height="78.2" rx="2" fill="url(#barGrad)" />
  <polyline fill="none" stroke="#63b3ed" stroke-width="2" points="53.1,215.7 97.0,155.1 140.8,176.9 184.6,168.8 228.4,160.3 272.2,152.6 316.0,165.3 359.8,164.1 403.6,40.0 447.4,173.9 491.2,167.2 535.0,155.7 578.9,161.7 622.7,159.4 666.5,146.8 710.3,167.7 754.1,130.1 797.9,113.5 841.7,135.0 885.5,142.0 929.3,130.5"/>
  <circle cx="53.1" cy="40.0" r="2.5" fill="#f6ad55" /><circle cx="97.0" cy="75.6" r="2.5" fill="#f6ad55" /><circle cx="140.8" cy="80.5" r="2.5" fill="#f6ad55" /><circle cx="184.6" cy="78.4" r="2.5" fill="#f6ad55" /><circle cx="228.4" cy="70.8" r="2.5" fill="#f6ad55" /><circle cx="272.2" cy="69.7" r="2.5" fill="#f6ad55" /><circle cx="316.0" cy="69.7" r="2.5" fill="#f6ad55" /><circle cx="359.8" cy="89.5" r="2.5" fill="#f6ad55" /><circle cx="403.6" cy="79.7" r="2.5" fill="#f6ad55" /><circle cx="447.4" cy="69.2" r="2.5" fill="#f6ad55" /><circle cx="491.2" cy="73.3" r="2.5" fill="#f6ad55" /><circle cx="535.0" cy="84.1" r="2.5" fill="#f6ad55" /><circle cx="578.9" cy="83.1" r="2.5" fill="#f6ad55" /><circle cx="622.7" cy="71.6" r="2.5" fill="#f6ad55" /><circle cx="666.5" cy="87.0" r="2.5" fill="#f6ad55" /><circle cx="710.3" cy="75.7" r="2.5" fill="#f6ad55" /><circle cx="754.1" cy="77.1" r="2.5" fill="#f6ad55" /><circle cx="797.9" cy="73.4" r="2.5" fill="#f6ad55" /><circle cx="841.7" cy="63.2" r="2.5" fill="#f6ad55" /><circle cx="885.5" cy="47.5" r="2.5" fill="#f6ad55" /><circle cx="929.3" cy="64.1" r="2.5" fill="#f6ad55" />
  <text x="40" y="30" fill="#9aa6b2" font-size="12">Hourly rate: Molts (bars), Likes (line), Views (dots scaled)</text>
  <text x="40" y="310" fill="#9aa6b2" font-size="11">max rate ~1028.14 / hour</text>
</svg>