<?xml version="1.0" encoding="UTF-8"?>
<svg xmlns="http://www.w3.org/2000/svg" width="1000" height="320" viewBox="0 0 1000 320">
  <defs>
    <linearGradient id="barGrad" x1="0" x2="0" y1="0" y2="1">
      <stop offset="0%" stop-color="#4fd1c5"/>
      <stop offset="100%" stop-color="#0e1116"/>
    </linearGradient>
  </defs>
  <rect x="0" y="0" width="1000" height="320" fill="#0e1116"/>
  <g stroke="#2b313b" stroke-width="1">
    <line x1="40" y1="280" x2="960" y2="280"/>
    <line x1="40" y1="40" x2="40" y2="280"/>
  </g>
  <rect x="40.0" y="216.2" width="55.2" height="63.8" rx="2" fill="url(#barGrad)" /><rect x="132.0" y="161.3" width="55.2" height="118.7" rx="2" fill="url(#barGrad)" /><rect x="224.0" y="191.1" width="55.2" height="88.9" rx="2" fill="url(#barGrad)" /><rect x="316.0" y="182.4" width="55.2" height="97.6" rx="2" fill="url(#barGrad)" /><rect x="408.0" y="154.9" width="55.2" height="125.1" rx="2" fill="url(#barGrad)" /><rect x="500.0" y="114.3" width="55.2" height="165.7" rx="2" fill="url(#barGrad)" /><rect x="592.0" y="144.5" width="55.2" height="135.5" rx="2" fill="url(#barGrad)" /><rect x="684.0" y="171.3" width="55.2" height="108.7" rx="2" fill="url(#barGrad)" /><rect x="776.0" y="171.5" width="55.2" height="108.5" rx="2" fill="url(#barGrad)" /><rect x="868.0" y="157.5" width="55.2" height="122.5" rx="2" fill="url(#barGrad)" />
  <polyline fill="none" stroke="#63b3ed" stroke-width="2" points="67.6,129.4 159.6,40.0 251.6,68.7 343.6,79.1 435.6,89.6 527.6,67.1 619.6,93.0 711.6,77.7 803.6,77.5 895.6,123.0"/>
  <circle cx="67.6" cy="66.0" r="2.5" fill="#f6ad55" /><circle cx="159.6" cy="81.4" r="2.5" fill="#f6ad55" /><circle cx="251.6" cy="79.4" r="2.5" fill="#f6ad55" /><circle cx="343.6" cy="66.2" r="2.5" fill="#f6ad55" /><circle cx="435.6" cy="48.0" r="2.5" fill="#f6ad55" /><circle cx="527.6" cy="40.0" r="2.5" fill="#f6ad55" /><circle cx="619.6" cy="50.6" r="2.5" fill="#f6ad55" /><circle cx="711.6" cy="74.5" r="2.5" fill="#f6ad55" /><circle cx="803.6" cy="68.2" r="2.5" fill="#f6ad55" /><circle cx="895.6" cy="66.1" r="2.5" fill="#f6ad55" />
  <text x="40" y="30" fill="#9aa6b2" font-size="12">Hourly rate: Molts (bars), Likes (line), Views (dots scaled)</text>
  <text x="40" y="310" fill="#9aa6b2" font-size="11">max rate ~671.63 / hour</text>
</svg>