<?xml version="1.0" encoding="UTF-8"?>
<svg xmlns="http://www.w3.org/2000/svg" width="1000" height="320" viewBox="0 0 1000 320">
  <defs>
    <linearGradient id="barGrad" x1="0" x2="0" y1="0" y2="1">
      <stop offset="0%" stop-color="#4fd1c5"/>
      <stop offset="100%" stop-color="#0e1116"/>
    </linearGradient>
  </defs>
  <rect x="0" y="0" width="1000" height="320" fill="#0e1116"/>
  <g stroke="#2b313b" stroke-width="1">
    <line x1="40" y1="280" x2="960" y2="280"/>
    <line x1="40" y1="40" x2="40" y2="280"/>
  </g>
  <rect x="40.0" y="224.9" width="32.5" height="55.1" rx="2" fill="url(#barGrad)" /><rect x="94.1" y="164.7" width="32.5" height="115.3" rx="2" fill="url(#barGrad)" /><rect x="148.2" y="174.8" width="32.5" height="105.2" rx="2" fill="url(#barGrad)" /><rect x="202.4" y="146.2" width="32.5" height="133.8" rx="2" fill="url(#barGrad)" /><rect x="256.5" y="166.8" width="32.5" height="113.2" rx="2" fill="url(#barGrad)" /><rect x="310.6" y="184.9" width="32.5" height="95.1" rx="2" fill="url(#barGrad)" /><rect x="364.7" y="170.5" width="32.5" height="109.5" rx="2" fill="url(#barGrad)" /><rect x="418.8" y="172.6" width="32.5" height="107.4" rx="2" fill="url(#barGrad)" /><rect x="472.9" y="150.6" width="32.5" height="129.4" rx="2" fill="url(#barGrad)" /><rect x="527.1" y="136.2" width="32.5" height="143.8" rx="2" fill="url(#barGrad)" /><rect x="581.2" y="105.7" width="32.5" height="174.3" rx="2" fill="url(#barGrad)" /><rect x="635.3" y="91.4" width="32.5" height="188.6" rx="2" fill="url(#barGrad)" /><rect x="689.4" y="145.1" width="32.5" height="134.9" rx="2" fill="url(#barGrad)" /><rect x="743.5" y="164.7" width="32.5" height="115.3" rx="2" fill="url(#barGrad)" /><rect x="797.6" y="158.4" width="32.5" height="121.6" rx="2" fill="url(#barGrad)" /><rect x="851.8" y="168.9" width="32.5" height="111.1" rx="2" fill="url(#barGrad)" /><rect x="905.9" y="180.2" width="32.5" height="99.8" rx="2" fill="url(#barGrad)" />
  <polyline fill="none" stroke="#63b3ed" stroke-width="2" points="56.2,152.8 110.4,81.6 164.5,83.0 218.6,47.2 272.7,88.0 326.8,94.2 380.9,67.4 435.1,108.8 489.2,68.3 543.3,62.4 597.4,78.0 651.5,72.0 705.6,40.0 759.8,98.0 813.9,60.5 868.0,44.5 922.1,95.3"/>
  <circle cx="56.2" cy="40.0" r="2.5" fill="#f6ad55" /><circle cx="110.4" cy="161.6" r="2.5" fill="#f6ad55" /><circle cx="164.5" cy="145.5" r="2.5" fill="#f6ad55" /><circle cx="218.6" cy="146.2" r="2.5" fill="#f6ad55" /><circle cx="272.7" cy="141.6" r="2.5" fill="#f6ad55" /><circle cx="326.8" cy="148.6" r="2.5" fill="#f6ad55" /><circle cx="380.9" cy="160.2" r="2.5" fill="#f6ad55" /><circle cx="435.1" cy="157.9" r="2.5" fill="#f6ad55" /><circle cx="489.2" cy="155.3" r="2.5" fill="#f6ad55" /><circle cx="543.3" cy="129.4" r="2.5" fill="#f6ad55" /><circle cx="597.4" cy="126.4" r="2.5" fill="#f6ad55" /><circle cx="651.5" cy="117.0" r="2.5" fill="#f6ad55" /><circle cx="705.6" cy="130.2" r="2.5" fill="#f6ad55" /><circle cx="759.8" cy="156.1" r="2.5" fill="#f6ad55" /><circle cx="813.9" cy="160.1" r="2.5" fill="#f6ad55" /><circle cx="868.0" cy="151.8" r="2.5" fill="#f6ad55" /><circle cx="922.1" cy="169.2" r="2.5" fill="#f6ad55" />
  <text x="40" y="30" fill="#9aa6b2" font-size="12">Hourly rate: Molts (bars), Likes (line), Views (dots scaled)</text>
  <text x="40" y="310" fill="#9aa6b2" font-size="11">max rate ~729.33 / hour</text>
</svg>