<?xml version="1.0" encoding="UTF-8"?>
<svg xmlns="http://www.w3.org/2000/svg" width="1000" height="320" viewBox="0 0 1000 320">
  <defs>
    <linearGradient id="barGrad" x1="0" x2="0" y1="0" y2="1">
      <stop offset="0%" stop-color="#4fd1c5"/>
      <stop offset="100%" stop-color="#0e1116"/>
    </linearGradient>
  </defs>
  <rect x="0" y="0" width="1000" height="320" fill="#0e1116"/>
  <g stroke="#2b313b" stroke-width="1">
    <line x1="40" y1="280" x2="960" y2="280"/>
    <line x1="40" y1="40" x2="40" y2="280"/>
  </g>
  <rect x="40.0" y="223.2" width="55.2" height="56.8" rx="2" fill="url(#barGrad)" /><rect x="132.0" y="161.2" width="55.2" height="118.8" rx="2" fill="url(#barGrad)" /><rect x="224.0" y="171.5" width="55.2" height="108.5" rx="2" fill="url(#barGrad)" /><rect x="316.0" y="142.1" width="55.2" height="137.9" rx="2" fill="url(#barGrad)" /><rect x="408.0" y="163.3" width="55.2" height="116.7" rx="2" fill="url(#barGrad)" /><rect x="500.0" y="182.0" width="55.2" height="98.0" rx="2" fill="url(#barGrad)" /><rect x="592.0" y="167.2" width="55.2" height="112.8" rx="2" fill="url(#barGrad)" /><rect x="684.0" y="169.3" width="55.2" height="110.7" rx="2" fill="url(#barGrad)" /><rect x="776.0" y="146.6" width="55.2" height="133.4" rx="2" fill="url(#barGrad)" /><rect x="868.0" y="137.5" width="55.2" height="142.5" rx="2" fill="url(#barGrad)" />
  <polyline fill="none" stroke="#63b3ed" stroke-width="2" points="67.6,148.9 159.6,75.5 251.6,76.9 343.6,40.0 435.6,82.1 527.6,88.5 619.6,60.8 711.6,103.6 803.6,61.8 895.6,61.4"/>
  <circle cx="67.6" cy="40.0" r="2.5" fill="#f6ad55" /><circle cx="159.6" cy="161.6" r="2.5" fill="#f6ad55" /><circle cx="251.6" cy="145.5" r="2.5" fill="#f6ad55" /><circle cx="343.6" cy="146.2" r="2.5" fill="#f6ad55" /><circle cx="435.6" cy="141.6" r="2.5" fill="#f6ad55" /><circle cx="527.6" cy="148.6" r="2.5" fill="#f6ad55" /><circle cx="619.6" cy="160.2" r="2.5" fill="#f6ad55" /><circle cx="711.6" cy="157.9" r="2.5" fill="#f6ad55" /><circle cx="803.6" cy="155.3" r="2.5" fill="#f6ad55" /><circle cx="895.6" cy="151.0" r="2.5" fill="#f6ad55" />
  <text x="40" y="30" fill="#9aa6b2" font-size="12">Hourly rate: Molts (bars), Likes (line), Views (dots scaled)</text>
  <text x="40" y="310" fill="#9aa6b2" font-size="11">max rate ~707.60 / hour</text>
</svg>