<?xml version="1.0" encoding="UTF-8"?>
<svg xmlns="http://www.w3.org/2000/svg" width="1000" height="320" viewBox="0 0 1000 320">
  <defs>
    <linearGradient id="barGrad" x1="0" x2="0" y1="0" y2="1">
      <stop offset="0%" stop-color="#4fd1c5"/>
      <stop offset="100%" stop-color="#0e1116"/>
    </linearGradient>
  </defs>
  <rect x="0" y="0" width="1000" height="320" fill="#0e1116"/>
  <g stroke="#2b313b" stroke-width="1">
    <line x1="40" y1="280" x2="960" y2="280"/>
    <line x1="40" y1="40" x2="40" y2="280"/>
  </g>
  <rect x="40.0" y="216.5" width="29.1" height="63.5" rx="2" fill="url(#barGrad)" /><rect x="88.4" y="161.8" width="29.1" height="118.2" rx="2" fill="url(#barGrad)" /><rect x="136.8" y="191.5" width="29.1" height="88.5" rx="2" fill="url(#barGrad)" /><rect x="185.3" y="182.8" width="29.1" height="97.2" rx="2" fill="url(#barGrad)" /><rect x="233.7" y="155.4" width="29.1" height="124.6" rx="2" fill="url(#barGrad)" /><rect x="282.1" y="115.0" width="29.1" height="165.0" rx="2" fill="url(#barGrad)" /><rect x="330.5" y="145.1" width="29.1" height="134.9" rx="2" fill="url(#barGrad)" /><rect x="378.9" y="171.7" width="29.1" height="108.3" rx="2" fill="url(#barGrad)" /><rect x="427.4" y="172.0" width="29.1" height="108.0" rx="2" fill="url(#barGrad)" /><rect x="475.8" y="158.1" width="29.1" height="121.9" rx="2" fill="url(#barGrad)" /><rect x="524.2" y="138.9" width="29.1" height="141.1" rx="2" fill="url(#barGrad)" /><rect x="572.6" y="160.5" width="29.1" height="119.5" rx="2" fill="url(#barGrad)" /><rect x="621.1" y="162.6" width="29.1" height="117.4" rx="2" fill="url(#barGrad)" /><rect x="669.5" y="166.4" width="29.1" height="113.6" rx="2" fill="url(#barGrad)" /><rect x="717.9" y="146.6" width="29.1" height="133.4" rx="2" fill="url(#barGrad)" /><rect x="766.3" y="157.1" width="29.1" height="122.9" rx="2" fill="url(#barGrad)" /><rect x="814.7" y="167.2" width="29.1" height="112.8" rx="2" fill="url(#barGrad)" /><rect x="863.2" y="169.3" width="29.1" height="110.7" rx="2" fill="url(#barGrad)" /><rect x="911.6" y="142.8" width="29.1" height="137.2" rx="2" fill="url(#barGrad)" />
  <polyline fill="none" stroke="#63b3ed" stroke-width="2" points="54.5,130.1 102.9,41.1 151.4,69.7 199.8,79.9 248.2,90.4 296.6,68.0 345.1,93.8 393.5,78.6 441.9,78.4 490.3,123.7 538.7,111.4 587.2,75.9 635.6,112.1 684.0,106.8 732.4,90.6 780.8,93.6 829.3,69.3 877.7,70.2 926.1,40.0"/>
  <circle cx="54.5" cy="69.9" r="2.5" fill="#f6ad55" /><circle cx="102.9" cy="85.0" r="2.5" fill="#f6ad55" /><circle cx="151.4" cy="83.1" r="2.5" fill="#f6ad55" /><circle cx="199.8" cy="70.1" r="2.5" fill="#f6ad55" /><circle cx="248.2" cy="52.2" r="2.5" fill="#f6ad55" /><circle cx="296.6" cy="44.4" r="2.5" fill="#f6ad55" /><circle cx="345.1" cy="54.8" r="2.5" fill="#f6ad55" /><circle cx="393.5" cy="78.2" r="2.5" fill="#f6ad55" /><circle cx="441.9" cy="72.1" r="2.5" fill="#f6ad55" /><circle cx="490.3" cy="70.0" r="2.5" fill="#f6ad55" /><circle cx="538.7" cy="62.4" r="2.5" fill="#f6ad55" /><circle cx="587.2" cy="66.5" r="2.5" fill="#f6ad55" /><circle cx="635.6" cy="49.8" r="2.5" fill="#f6ad55" /><circle cx="684.0" cy="40.0" r="2.5" fill="#f6ad55" /><circle cx="732.4" cy="62.0" r="2.5" fill="#f6ad55" /><circle cx="780.8" cy="70.6" r="2.5" fill="#f6ad55" /><circle cx="829.3" cy="73.0" r="2.5" fill="#f6ad55" /><circle cx="877.7" cy="80.9" r="2.5" fill="#f6ad55" /><circle cx="926.1" cy="93.3" r="2.5" fill="#f6ad55" />
  <text x="40" y="30" fill="#9aa6b2" font-size="12">Hourly rate: Molts (bars), Likes (line), Views (dots scaled)</text>
  <text x="40" y="310" fill="#9aa6b2" font-size="11">max rate ~674.61 / hour</text>
</svg>