<?xml version="1.0" encoding="UTF-8"?>
<svg xmlns="http://www.w3.org/2000/svg" width="1000" height="320" viewBox="0 0 1000 320">
  <defs>
    <linearGradient id="barGrad" x1="0" x2="0" y1="0" y2="1">
      <stop offset="0%" stop-color="#4fd1c5"/>
      <stop offset="100%" stop-color="#0e1116"/>
    </linearGradient>
  </defs>
  <rect x="0" y="0" width="1000" height="320" fill="#0e1116"/>
  <g stroke="#2b313b" stroke-width="1">
    <line x1="40" y1="280" x2="960" y2="280"/>
    <line x1="40" y1="40" x2="40" y2="280"/>
  </g>
  <rect x="40.0" y="237.4" width="27.6" height="42.6" rx="2" fill="url(#barGrad)" /><rect x="86.0" y="184.5" width="27.6" height="95.5" rx="2" fill="url(#barGrad)" /><rect x="132.0" y="168.0" width="27.6" height="112.0" rx="2" fill="url(#barGrad)" /><rect x="178.0" y="152.6" width="27.6" height="127.4" rx="2" fill="url(#barGrad)" /><rect x="224.0" y="136.4" width="27.6" height="143.6" rx="2" fill="url(#barGrad)" /><rect x="270.0" y="200.6" width="27.6" height="79.4" rx="2" fill="url(#barGrad)" /><rect x="316.0" y="212.4" width="27.6" height="67.6" rx="2" fill="url(#barGrad)" /><rect x="362.0" y="202.8" width="27.6" height="77.2" rx="2" fill="url(#barGrad)" /><rect x="408.0" y="205.4" width="27.6" height="74.6" rx="2" fill="url(#barGrad)" /><rect x="454.0" y="196.2" width="27.6" height="83.8" rx="2" fill="url(#barGrad)" /><rect x="500.0" y="182.5" width="27.6" height="97.5" rx="2" fill="url(#barGrad)" /><rect x="546.0" y="209.0" width="27.6" height="71.0" rx="2" fill="url(#barGrad)" /><rect x="592.0" y="197.4" width="27.6" height="82.6" rx="2" fill="url(#barGrad)" /><rect x="638.0" y="199.0" width="27.6" height="81.0" rx="2" fill="url(#barGrad)" /><rect x="684.0" y="215.6" width="27.6" height="64.4" rx="2" fill="url(#barGrad)" /><rect x="730.0" y="217.4" width="27.6" height="62.6" rx="2" fill="url(#barGrad)" /><rect x="776.0" y="213.8" width="27.6" height="66.2" rx="2" fill="url(#barGrad)" /><rect x="822.0" y="207.0" width="27.6" height="73.0" rx="2" fill="url(#barGrad)" /><rect x="868.0" y="213.8" width="27.6" height="66.2" rx="2" fill="url(#barGrad)" /><rect x="914.0" y="196.7" width="27.6" height="83.3" rx="2" fill="url(#barGrad)" />
  <polyline fill="none" stroke="#63b3ed" stroke-width="2" points="53.8,168.4 99.8,45.4 145.8,41.5 191.8,105.7 237.8,96.9 283.8,84.7 329.8,117.1 375.8,104.9 421.8,114.9 467.8,91.8 513.8,80.6 559.8,101.0 605.8,82.3 651.8,90.2 697.8,99.8 743.8,112.8 789.8,126.4 835.8,89.4 881.8,118.8 927.8,40.0"/>
  <circle cx="53.8" cy="74.1" r="2.5" fill="#f6ad55" /><circle cx="99.8" cy="56.1" r="2.5" fill="#f6ad55" /><circle cx="145.8" cy="59.8" r="2.5" fill="#f6ad55" /><circle cx="191.8" cy="68.5" r="2.5" fill="#f6ad55" /><circle cx="237.8" cy="72.9" r="2.5" fill="#f6ad55" /><circle cx="283.8" cy="62.1" r="2.5" fill="#f6ad55" /><circle cx="329.8" cy="76.4" r="2.5" fill="#f6ad55" /><circle cx="375.8" cy="51.8" r="2.5" fill="#f6ad55" /><circle cx="421.8" cy="40.0" r="2.5" fill="#f6ad55" /><circle cx="467.8" cy="67.3" r="2.5" fill="#f6ad55" /><circle cx="513.8" cy="46.1" r="2.5" fill="#f6ad55" /><circle cx="559.8" cy="62.6" r="2.5" fill="#f6ad55" /><circle cx="605.8" cy="56.8" r="2.5" fill="#f6ad55" /><circle cx="651.8" cy="70.1" r="2.5" fill="#f6ad55" /><circle cx="697.8" cy="78.3" r="2.5" fill="#f6ad55" /><circle cx="743.8" cy="76.6" r="2.5" fill="#f6ad55" /><circle cx="789.8" cy="84.3" r="2.5" fill="#f6ad55" /><circle cx="835.8" cy="84.2" r="2.5" fill="#f6ad55" /><circle cx="881.8" cy="72.5" r="2.5" fill="#f6ad55" /><circle cx="927.8" cy="69.4" r="2.5" fill="#f6ad55" />
  <text x="40" y="30" fill="#9aa6b2" font-size="12">Hourly rate: Molts (bars), Likes (line), Views (dots scaled)</text>
  <text x="40" y="310" fill="#9aa6b2" font-size="11">max rate ~766.07 / hour</text>
</svg>