<?xml version="1.0" encoding="UTF-8"?>
<svg xmlns="http://www.w3.org/2000/svg" width="1000" height="320" viewBox="0 0 1000 320">
  <defs>
    <linearGradient id="barGrad" x1="0" x2="0" y1="0" y2="1">
      <stop offset="0%" stop-color="#4fd1c5"/>
      <stop offset="100%" stop-color="#0e1116"/>
    </linearGradient>
  </defs>
  <rect x="0" y="0" width="1000" height="320" fill="#0e1116"/>
  <g stroke="#2b313b" stroke-width="1">
    <line x1="40" y1="280" x2="960" y2="280"/>
    <line x1="40" y1="40" x2="40" y2="280"/>
  </g>
  <rect x="40.0" y="252.6" width="25.1" height="27.4" rx="2" fill="url(#barGrad)" /><rect x="81.8" y="216.4" width="25.1" height="63.6" rx="2" fill="url(#barGrad)" /><rect x="123.6" y="220.3" width="25.1" height="59.7" rx="2" fill="url(#barGrad)" /><rect x="165.5" y="210.5" width="25.1" height="69.5" rx="2" fill="url(#barGrad)" /><rect x="207.3" y="210.3" width="25.1" height="69.7" rx="2" fill="url(#barGrad)" /><rect x="249.1" y="215.9" width="25.1" height="64.1" rx="2" fill="url(#barGrad)" /><rect x="290.9" y="222.0" width="25.1" height="58.0" rx="2" fill="url(#barGrad)" /><rect x="332.7" y="230.9" width="25.1" height="49.1" rx="2" fill="url(#barGrad)" /><rect x="374.5" y="214.9" width="25.1" height="65.1" rx="2" fill="url(#barGrad)" /><rect x="416.4" y="88.7" width="25.1" height="191.3" rx="2" fill="url(#barGrad)" /><rect x="458.2" y="55.2" width="25.1" height="224.8" rx="2" fill="url(#barGrad)" /><rect x="500.0" y="197.4" width="25.1" height="82.6" rx="2" fill="url(#barGrad)" /><rect x="541.8" y="178.2" width="25.1" height="101.8" rx="2" fill="url(#barGrad)" /><rect x="583.6" y="200.9" width="25.1" height="79.1" rx="2" fill="url(#barGrad)" /><rect x="625.5" y="119.6" width="25.1" height="160.4" rx="2" fill="url(#barGrad)" /><rect x="667.3" y="40.0" width="25.1" height="240.0" rx="2" fill="url(#barGrad)" /><rect x="709.1" y="164.9" width="25.1" height="115.1" rx="2" fill="url(#barGrad)" /><rect x="750.9" y="180.2" width="25.1" height="99.8" rx="2" fill="url(#barGrad)" /><rect x="792.7" y="173.0" width="25.1" height="107.0" rx="2" fill="url(#barGrad)" /><rect x="834.5" y="163.9" width="25.1" height="116.1" rx="2" fill="url(#barGrad)" /><rect x="876.4" y="176.3" width="25.1" height="103.7" rx="2" fill="url(#barGrad)" /><rect x="918.2" y="188.5" width="25.1" height="91.5" rx="2" fill="url(#barGrad)" />
  <polyline fill="none" stroke="#63b3ed" stroke-width="2" points="52.5,177.6 94.4,223.1 136.2,186.2 178.0,173.9 219.8,156.6 261.6,174.1 303.5,156.5 345.3,178.7 387.1,146.4 428.9,133.8 470.7,88.9 512.5,132.4 554.4,108.7 596.2,114.9 638.0,97.9 679.8,142.1 721.6,162.8 763.5,165.7 805.3,166.7 847.1,165.4 888.9,156.4 930.7,165.5"/>
  <circle cx="52.5" cy="74.8" r="2.5" fill="#f6ad55" /><circle cx="94.4" cy="47.6" r="2.5" fill="#f6ad55" /><circle cx="136.2" cy="71.1" r="2.5" fill="#f6ad55" /><circle cx="178.0" cy="103.3" r="2.5" fill="#f6ad55" /><circle cx="219.8" cy="124.2" r="2.5" fill="#f6ad55" /><circle cx="261.6" cy="117.9" r="2.5" fill="#f6ad55" /><circle cx="303.5" cy="71.3" r="2.5" fill="#f6ad55" /><circle cx="345.3" cy="95.5" r="2.5" fill="#f6ad55" /><circle cx="387.1" cy="125.1" r="2.5" fill="#f6ad55" /><circle cx="428.9" cy="112.4" r="2.5" fill="#f6ad55" /><circle cx="470.7" cy="83.9" r="2.5" fill="#f6ad55" /><circle cx="512.5" cy="94.5" r="2.5" fill="#f6ad55" /><circle cx="554.4" cy="55.6" r="2.5" fill="#f6ad55" /><circle cx="596.2" cy="53.2" r="2.5" fill="#f6ad55" /><circle cx="638.0" cy="47.3" r="2.5" fill="#f6ad55" /><circle cx="679.8" cy="58.7" r="2.5" fill="#f6ad55" /><circle cx="721.6" cy="74.8" r="2.5" fill="#f6ad55" /><circle cx="763.5" cy="40.0" r="2.5" fill="#f6ad55" /><circle cx="805.3" cy="96.0" r="2.5" fill="#f6ad55" /><circle cx="847.1" cy="123.5" r="2.5" fill="#f6ad55" /><circle cx="888.9" cy="129.0" r="2.5" fill="#f6ad55" /><circle cx="930.7" cy="94.6" r="2.5" fill="#f6ad55" />
  <text x="40" y="30" fill="#9aa6b2" font-size="12">Hourly rate: Molts (bars), Likes (line), Views (dots scaled)</text>
  <text x="40" y="310" fill="#9aa6b2" font-size="11">max rate ~840.74 / hour</text>
</svg>