<?xml version="1.0" encoding="UTF-8"?>
<svg xmlns="http://www.w3.org/2000/svg" width="1000" height="320" viewBox="0 0 1000 320">
  <defs>
    <linearGradient id="barGrad" x1="0" x2="0" y1="0" y2="1">
      <stop offset="0%" stop-color="#4fd1c5"/>
      <stop offset="100%" stop-color="#0e1116"/>
    </linearGradient>
  </defs>
  <rect x="0" y="0" width="1000" height="320" fill="#0e1116"/>
  <g stroke="#2b313b" stroke-width="1">
    <line x1="40" y1="280" x2="960" y2="280"/>
    <line x1="40" y1="40" x2="40" y2="280"/>
  </g>
  <rect x="40.0" y="216.2" width="42.5" height="63.8" rx="2" fill="url(#barGrad)" /><rect x="110.8" y="161.3" width="42.5" height="118.7" rx="2" fill="url(#barGrad)" /><rect x="181.5" y="191.1" width="42.5" height="88.9" rx="2" fill="url(#barGrad)" /><rect x="252.3" y="182.4" width="42.5" height="97.6" rx="2" fill="url(#barGrad)" /><rect x="323.1" y="154.9" width="42.5" height="125.1" rx="2" fill="url(#barGrad)" /><rect x="393.8" y="114.3" width="42.5" height="165.7" rx="2" fill="url(#barGrad)" /><rect x="464.6" y="144.5" width="42.5" height="135.5" rx="2" fill="url(#barGrad)" /><rect x="535.4" y="171.3" width="42.5" height="108.7" rx="2" fill="url(#barGrad)" /><rect x="606.2" y="171.5" width="42.5" height="108.5" rx="2" fill="url(#barGrad)" /><rect x="676.9" y="157.5" width="42.5" height="122.5" rx="2" fill="url(#barGrad)" /><rect x="747.7" y="138.2" width="42.5" height="141.8" rx="2" fill="url(#barGrad)" /><rect x="818.5" y="159.9" width="42.5" height="120.1" rx="2" fill="url(#barGrad)" /><rect x="889.2" y="168.6" width="42.5" height="111.4" rx="2" fill="url(#barGrad)" />
  <polyline fill="none" stroke="#63b3ed" stroke-width="2" points="61.2,129.4 132.0,40.0 202.8,68.7 273.5,79.1 344.3,89.6 415.1,67.1 485.8,93.0 556.6,77.7 627.4,77.5 698.2,123.0 768.9,110.7 839.7,75.0 910.5,97.8"/>
  <circle cx="61.2" cy="66.0" r="2.5" fill="#f6ad55" /><circle cx="132.0" cy="81.4" r="2.5" fill="#f6ad55" /><circle cx="202.8" cy="79.4" r="2.5" fill="#f6ad55" /><circle cx="273.5" cy="66.2" r="2.5" fill="#f6ad55" /><circle cx="344.3" cy="48.0" r="2.5" fill="#f6ad55" /><circle cx="415.1" cy="40.0" r="2.5" fill="#f6ad55" /><circle cx="485.8" cy="50.6" r="2.5" fill="#f6ad55" /><circle cx="556.6" cy="74.5" r="2.5" fill="#f6ad55" /><circle cx="627.4" cy="68.2" r="2.5" fill="#f6ad55" /><circle cx="698.2" cy="66.1" r="2.5" fill="#f6ad55" /><circle cx="768.9" cy="58.3" r="2.5" fill="#f6ad55" /><circle cx="839.7" cy="62.5" r="2.5" fill="#f6ad55" /><circle cx="910.5" cy="63.6" r="2.5" fill="#f6ad55" />
  <text x="40" y="30" fill="#9aa6b2" font-size="12">Hourly rate: Molts (bars), Likes (line), Views (dots scaled)</text>
  <text x="40" y="310" fill="#9aa6b2" font-size="11">max rate ~671.63 / hour</text>
</svg>