<?xml version="1.0" encoding="UTF-8"?>
<svg xmlns="http://www.w3.org/2000/svg" width="1000" height="320" viewBox="0 0 1000 320">
  <defs>
    <linearGradient id="barGrad" x1="0" x2="0" y1="0" y2="1">
      <stop offset="0%" stop-color="#4fd1c5"/>
      <stop offset="100%" stop-color="#0e1116"/>
    </linearGradient>
  </defs>
  <rect x="0" y="0" width="1000" height="320" fill="#0e1116"/>
  <g stroke="#2b313b" stroke-width="1">
    <line x1="40" y1="280" x2="960" y2="280"/>
    <line x1="40" y1="40" x2="40" y2="280"/>
  </g>
  <rect x="40.0" y="237.1" width="42.5" height="42.9" rx="2" fill="url(#barGrad)" /><rect x="110.8" y="183.9" width="42.5" height="96.1" rx="2" fill="url(#barGrad)" /><rect x="181.5" y="167.4" width="42.5" height="112.6" rx="2" fill="url(#barGrad)" /><rect x="252.3" y="151.9" width="42.5" height="128.1" rx="2" fill="url(#barGrad)" /><rect x="323.1" y="135.5" width="42.5" height="144.5" rx="2" fill="url(#barGrad)" /><rect x="393.8" y="200.1" width="42.5" height="79.9" rx="2" fill="url(#barGrad)" /><rect x="464.6" y="212.0" width="42.5" height="68.0" rx="2" fill="url(#barGrad)" /><rect x="535.4" y="202.3" width="42.5" height="77.7" rx="2" fill="url(#barGrad)" /><rect x="606.2" y="205.0" width="42.5" height="75.0" rx="2" fill="url(#barGrad)" /><rect x="676.9" y="195.7" width="42.5" height="84.3" rx="2" fill="url(#barGrad)" /><rect x="747.7" y="181.9" width="42.5" height="98.1" rx="2" fill="url(#barGrad)" /><rect x="818.5" y="208.6" width="42.5" height="71.4" rx="2" fill="url(#barGrad)" /><rect x="889.2" y="189.2" width="42.5" height="90.8" rx="2" fill="url(#barGrad)" />
  <polyline fill="none" stroke="#63b3ed" stroke-width="2" points="61.2,167.8 132.0,44.0 202.8,40.0 273.5,104.6 344.3,95.7 415.1,83.5 485.8,116.1 556.6,103.8 627.4,113.8 698.2,90.7 768.9,79.4 839.7,99.9 910.5,51.0"/>
  <circle cx="61.2" cy="74.1" r="2.5" fill="#f6ad55" /><circle cx="132.0" cy="56.1" r="2.5" fill="#f6ad55" /><circle cx="202.8" cy="59.8" r="2.5" fill="#f6ad55" /><circle cx="273.5" cy="68.5" r="2.5" fill="#f6ad55" /><circle cx="344.3" cy="72.9" r="2.5" fill="#f6ad55" /><circle cx="415.1" cy="62.1" r="2.5" fill="#f6ad55" /><circle cx="485.8" cy="76.4" r="2.5" fill="#f6ad55" /><circle cx="556.6" cy="51.8" r="2.5" fill="#f6ad55" /><circle cx="627.4" cy="40.0" r="2.5" fill="#f6ad55" /><circle cx="698.2" cy="67.3" r="2.5" fill="#f6ad55" /><circle cx="768.9" cy="46.1" r="2.5" fill="#f6ad55" /><circle cx="839.7" cy="62.6" r="2.5" fill="#f6ad55" /><circle cx="910.5" cy="58.7" r="2.5" fill="#f6ad55" />
  <text x="40" y="30" fill="#9aa6b2" font-size="12">Hourly rate: Molts (bars), Likes (line), Views (dots scaled)</text>
  <text x="40" y="310" fill="#9aa6b2" font-size="11">max rate ~761.42 / hour</text>
</svg>