<?xml version="1.0" encoding="UTF-8"?>
<svg xmlns="http://www.w3.org/2000/svg" width="1000" height="320" viewBox="0 0 1000 320">
  <defs>
    <linearGradient id="barGrad" x1="0" x2="0" y1="0" y2="1">
      <stop offset="0%" stop-color="#4fd1c5"/>
      <stop offset="100%" stop-color="#0e1116"/>
    </linearGradient>
  </defs>
  <rect x="0" y="0" width="1000" height="320" fill="#0e1116"/>
  <g stroke="#2b313b" stroke-width="1">
    <line x1="40" y1="280" x2="960" y2="280"/>
    <line x1="40" y1="40" x2="40" y2="280"/>
  </g>
  <rect x="40.0" y="142.3" width="22.1" height="137.7" rx="2" fill="url(#barGrad)" /><rect x="76.8" y="157.3" width="22.1" height="122.7" rx="2" fill="url(#barGrad)" /><rect x="113.6" y="158.1" width="22.1" height="121.9" rx="2" fill="url(#barGrad)" /><rect x="150.4" y="188.3" width="22.1" height="91.7" rx="2" fill="url(#barGrad)" /><rect x="187.2" y="183.0" width="22.1" height="97.0" rx="2" fill="url(#barGrad)" /><rect x="224.0" y="148.2" width="22.1" height="131.8" rx="2" fill="url(#barGrad)" /><rect x="260.8" y="164.6" width="22.1" height="115.4" rx="2" fill="url(#barGrad)" /><rect x="297.6" y="156.8" width="22.1" height="123.2" rx="2" fill="url(#barGrad)" /><rect x="334.4" y="171.3" width="22.1" height="108.7" rx="2" fill="url(#barGrad)" /><rect x="371.2" y="169.6" width="22.1" height="110.4" rx="2" fill="url(#barGrad)" /><rect x="408.0" y="171.2" width="22.1" height="108.8" rx="2" fill="url(#barGrad)" /><rect x="444.8" y="182.6" width="22.1" height="97.4" rx="2" fill="url(#barGrad)" /><rect x="481.6" y="176.0" width="22.1" height="104.0" rx="2" fill="url(#barGrad)" /><rect x="518.4" y="162.2" width="22.1" height="117.8" rx="2" fill="url(#barGrad)" /><rect x="555.2" y="178.8" width="22.1" height="101.2" rx="2" fill="url(#barGrad)" /><rect x="592.0" y="195.0" width="22.1" height="85.0" rx="2" fill="url(#barGrad)" /><rect x="628.8" y="204.1" width="22.1" height="75.9" rx="2" fill="url(#barGrad)" /><rect x="665.6" y="190.0" width="22.1" height="90.0" rx="2" fill="url(#barGrad)" /><rect x="702.4" y="210.5" width="22.1" height="69.5" rx="2" fill="url(#barGrad)" /><rect x="739.2" y="189.9" width="22.1" height="90.1" rx="2" fill="url(#barGrad)" /><rect x="776.0" y="205.0" width="22.1" height="75.0" rx="2" fill="url(#barGrad)" /><rect x="812.8" y="193.5" width="22.1" height="86.5" rx="2" fill="url(#barGrad)" /><rect x="849.6" y="180.9" width="22.1" height="99.1" rx="2" fill="url(#barGrad)" /><rect x="886.4" y="183.0" width="22.1" height="97.0" rx="2" fill="url(#barGrad)" /><rect x="923.2" y="189.5" width="22.1" height="90.5" rx="2" fill="url(#barGrad)" />
  <polyline fill="none" stroke="#63b3ed" stroke-width="2" points="51.0,82.1 87.8,50.2 124.6,63.7 161.4,96.9 198.2,85.6 235.0,63.0 271.8,40.0 308.6,46.4 345.4,73.6 382.2,67.4 419.0,75.5 455.8,87.6 492.6,93.3 529.4,43.8 566.2,75.0 603.0,108.4 639.8,145.3 676.6,89.6 713.4,111.1 750.2,105.3 787.0,115.1 823.8,115.2 860.6,124.5 897.4,124.5 934.2,114.1"/>
  <circle cx="51.0" cy="79.1" r="2.5" fill="#f6ad55" /><circle cx="87.8" cy="83.9" r="2.5" fill="#f6ad55" /><circle cx="124.6" cy="55.0" r="2.5" fill="#f6ad55" /><circle cx="161.4" cy="40.0" r="2.5" fill="#f6ad55" /><circle cx="198.2" cy="83.5" r="2.5" fill="#f6ad55" /><circle cx="235.0" cy="93.5" r="2.5" fill="#f6ad55" /><circle cx="271.8" cy="92.6" r="2.5" fill="#f6ad55" /><circle cx="308.6" cy="95.5" r="2.5" fill="#f6ad55" /><circle cx="345.4" cy="112.8" r="2.5" fill="#f6ad55" /><circle cx="382.2" cy="124.4" r="2.5" fill="#f6ad55" /><circle cx="419.0" cy="98.5" r="2.5" fill="#f6ad55" /><circle cx="455.8" cy="97.2" r="2.5" fill="#f6ad55" /><circle cx="492.6" cy="84.7" r="2.5" fill="#f6ad55" /><circle cx="529.4" cy="95.0" r="2.5" fill="#f6ad55" /><circle cx="566.2" cy="115.3" r="2.5" fill="#f6ad55" /><circle cx="603.0" cy="92.8" r="2.5" fill="#f6ad55" /><circle cx="639.8" cy="103.9" r="2.5" fill="#f6ad55" /><circle cx="676.6" cy="77.2" r="2.5" fill="#f6ad55" /><circle cx="713.4" cy="79.1" r="2.5" fill="#f6ad55" /><circle cx="750.2" cy="70.1" r="2.5" fill="#f6ad55" /><circle cx="787.0" cy="85.6" r="2.5" fill="#f6ad55" /><circle cx="823.8" cy="81.6" r="2.5" fill="#f6ad55" /><circle cx="860.6" cy="93.3" r="2.5" fill="#f6ad55" /><circle cx="897.4" cy="101.0" r="2.5" fill="#f6ad55" /><circle cx="934.2" cy="87.8" r="2.5" fill="#f6ad55" />
  <text x="40" y="30" fill="#9aa6b2" font-size="12">Hourly rate: Molts (bars), Likes (line), Views (dots scaled)</text>
  <text x="40" y="310" fill="#9aa6b2" font-size="11">max rate ~718.37 / hour</text>
</svg>