<?xml version="1.0" encoding="UTF-8"?>
<svg xmlns="http://www.w3.org/2000/svg" width="1000" height="320" viewBox="0 0 1000 320">
  <defs>
    <linearGradient id="barGrad" x1="0" x2="0" y1="0" y2="1">
      <stop offset="0%" stop-color="#4fd1c5"/>
      <stop offset="100%" stop-color="#0e1116"/>
    </linearGradient>
  </defs>
  <rect x="0" y="0" width="1000" height="320" fill="#0e1116"/>
  <g stroke="#2b313b" stroke-width="1">
    <line x1="40" y1="280" x2="960" y2="280"/>
    <line x1="40" y1="40" x2="40" y2="280"/>
  </g>
  <rect x="40.0" y="161.1" width="24.0" height="118.9" rx="2" fill="url(#barGrad)" /><rect x="80.0" y="120.0" width="24.0" height="160.0" rx="2" fill="url(#barGrad)" /><rect x="120.0" y="112.9" width="24.0" height="167.1" rx="2" fill="url(#barGrad)" /><rect x="160.0" y="125.3" width="24.0" height="154.7" rx="2" fill="url(#barGrad)" /><rect x="200.0" y="113.9" width="24.0" height="166.1" rx="2" fill="url(#barGrad)" /><rect x="240.0" y="122.8" width="24.0" height="157.2" rx="2" fill="url(#barGrad)" /><rect x="280.0" y="117.5" width="24.0" height="162.5" rx="2" fill="url(#barGrad)" /><rect x="320.0" y="97.9" width="24.0" height="182.1" rx="2" fill="url(#barGrad)" /><rect x="360.0" y="140.7" width="24.0" height="139.3" rx="2" fill="url(#barGrad)" /><rect x="400.0" y="113.1" width="24.0" height="166.9" rx="2" fill="url(#barGrad)" /><rect x="440.0" y="92.3" width="24.0" height="187.7" rx="2" fill="url(#barGrad)" /><rect x="480.0" y="107.6" width="24.0" height="172.4" rx="2" fill="url(#barGrad)" /><rect x="520.0" y="120.5" width="24.0" height="159.5" rx="2" fill="url(#barGrad)" /><rect x="560.0" y="114.3" width="24.0" height="165.7" rx="2" fill="url(#barGrad)" /><rect x="600.0" y="159.1" width="24.0" height="120.9" rx="2" fill="url(#barGrad)" /><rect x="640.0" y="162.7" width="24.0" height="117.3" rx="2" fill="url(#barGrad)" /><rect x="680.0" y="138.1" width="24.0" height="141.9" rx="2" fill="url(#barGrad)" /><rect x="720.0" y="154.2" width="24.0" height="125.8" rx="2" fill="url(#barGrad)" /><rect x="760.0" y="149.4" width="24.0" height="130.6" rx="2" fill="url(#barGrad)" /><rect x="800.0" y="134.8" width="24.0" height="145.2" rx="2" fill="url(#barGrad)" /><rect x="840.0" y="155.1" width="24.0" height="124.9" rx="2" fill="url(#barGrad)" /><rect x="880.0" y="167.3" width="24.0" height="112.7" rx="2" fill="url(#barGrad)" /><rect x="920.0" y="166.4" width="24.0" height="113.6" rx="2" fill="url(#barGrad)" />
  <polyline fill="none" stroke="#63b3ed" stroke-width="2" points="52.0,127.6 92.0,80.7 132.0,85.0 172.0,98.2 212.0,88.1 252.0,81.9 292.0,40.0 332.0,55.8 372.0,112.1 412.0,93.5 452.0,91.0 492.0,49.9 532.0,48.8 572.0,56.0 612.0,109.7 652.0,104.0 692.0,67.8 732.0,77.9 772.0,113.2 812.0,58.1 852.0,96.3 892.0,90.5 932.0,110.4"/>
  <circle cx="52.0" cy="100.8" r="2.5" fill="#f6ad55" /><circle cx="92.0" cy="64.8" r="2.5" fill="#f6ad55" /><circle cx="132.0" cy="52.4" r="2.5" fill="#f6ad55" /><circle cx="172.0" cy="40.0" r="2.5" fill="#f6ad55" /><circle cx="212.0" cy="45.2" r="2.5" fill="#f6ad55" /><circle cx="252.0" cy="83.8" r="2.5" fill="#f6ad55" /><circle cx="292.0" cy="57.7" r="2.5" fill="#f6ad55" /><circle cx="332.0" cy="87.9" r="2.5" fill="#f6ad55" /><circle cx="372.0" cy="83.5" r="2.5" fill="#f6ad55" /><circle cx="412.0" cy="90.8" r="2.5" fill="#f6ad55" /><circle cx="452.0" cy="91.1" r="2.5" fill="#f6ad55" /><circle cx="492.0" cy="90.8" r="2.5" fill="#f6ad55" /><circle cx="532.0" cy="44.6" r="2.5" fill="#f6ad55" /><circle cx="572.0" cy="88.7" r="2.5" fill="#f6ad55" /><circle cx="612.0" cy="87.9" r="2.5" fill="#f6ad55" /><circle cx="652.0" cy="89.1" r="2.5" fill="#f6ad55" /><circle cx="692.0" cy="86.9" r="2.5" fill="#f6ad55" /><circle cx="732.0" cy="82.4" r="2.5" fill="#f6ad55" /><circle cx="772.0" cy="76.0" r="2.5" fill="#f6ad55" /><circle cx="812.0" cy="82.8" r="2.5" fill="#f6ad55" /><circle cx="852.0" cy="88.9" r="2.5" fill="#f6ad55" /><circle cx="892.0" cy="100.0" r="2.5" fill="#f6ad55" /><circle cx="932.0" cy="72.6" r="2.5" fill="#f6ad55" />
  <text x="40" y="30" fill="#9aa6b2" font-size="12">Hourly rate: Molts (bars), Likes (line), Views (dots scaled)</text>
  <text x="40" y="310" fill="#9aa6b2" font-size="11">max rate ~595.01 / hour</text>
</svg>