<?xml version="1.0" encoding="UTF-8"?>
<svg xmlns="http://www.w3.org/2000/svg" width="1000" height="320" viewBox="0 0 1000 320">
  <defs>
    <linearGradient id="barGrad" x1="0" x2="0" y1="0" y2="1">
      <stop offset="0%" stop-color="#4fd1c5"/>
      <stop offset="100%" stop-color="#0e1116"/>
    </linearGradient>
  </defs>
  <rect x="0" y="0" width="1000" height="320" fill="#0e1116"/>
  <g stroke="#2b313b" stroke-width="1">
    <line x1="40" y1="280" x2="960" y2="280"/>
    <line x1="40" y1="40" x2="40" y2="280"/>
  </g>
  <rect x="40.0" y="233.7" width="36.8" height="46.3" rx="2" fill="url(#barGrad)" /><rect x="101.3" y="161.8" width="36.8" height="118.2" rx="2" fill="url(#barGrad)" /><rect x="162.7" y="129.9" width="36.8" height="150.1" rx="2" fill="url(#barGrad)" /><rect x="224.0" y="175.9" width="36.8" height="104.1" rx="2" fill="url(#barGrad)" /><rect x="285.3" y="193.1" width="36.8" height="86.9" rx="2" fill="url(#barGrad)" /><rect x="346.7" y="54.7" width="36.8" height="225.3" rx="2" fill="url(#barGrad)" /><rect x="408.0" y="162.8" width="36.8" height="117.2" rx="2" fill="url(#barGrad)" /><rect x="469.3" y="141.2" width="36.8" height="138.8" rx="2" fill="url(#barGrad)" /><rect x="530.7" y="195.3" width="36.8" height="84.7" rx="2" fill="url(#barGrad)" /><rect x="592.0" y="172.1" width="36.8" height="107.9" rx="2" fill="url(#barGrad)" /><rect x="653.3" y="107.9" width="36.8" height="172.1" rx="2" fill="url(#barGrad)" /><rect x="714.7" y="83.3" width="36.8" height="196.7" rx="2" fill="url(#barGrad)" /><rect x="776.0" y="40.0" width="36.8" height="240.0" rx="2" fill="url(#barGrad)" /><rect x="837.3" y="77.2" width="36.8" height="202.8" rx="2" fill="url(#barGrad)" /><rect x="898.7" y="134.3" width="36.8" height="145.7" rx="2" fill="url(#barGrad)" />
  <polyline fill="none" stroke="#63b3ed" stroke-width="2" points="58.4,165.4 119.7,120.9 181.1,119.6 242.4,74.3 303.7,128.2 365.1,112.4 426.4,131.8 487.7,46.8 549.1,141.8 610.4,131.9 671.7,105.5 733.1,109.9 794.4,125.8 855.7,112.9 917.1,117.0"/>
  <circle cx="58.4" cy="95.6" r="2.5" fill="#f6ad55" /><circle cx="119.7" cy="111.3" r="2.5" fill="#f6ad55" /><circle cx="181.1" cy="70.7" r="2.5" fill="#f6ad55" /><circle cx="242.4" cy="46.8" r="2.5" fill="#f6ad55" /><circle cx="303.7" cy="42.0" r="2.5" fill="#f6ad55" /><circle cx="365.1" cy="50.2" r="2.5" fill="#f6ad55" /><circle cx="426.4" cy="48.8" r="2.5" fill="#f6ad55" /><circle cx="487.7" cy="49.5" r="2.5" fill="#f6ad55" /><circle cx="549.1" cy="45.4" r="2.5" fill="#f6ad55" /><circle cx="610.4" cy="54.3" r="2.5" fill="#f6ad55" /><circle cx="671.7" cy="54.0" r="2.5" fill="#f6ad55" /><circle cx="733.1" cy="61.9" r="2.5" fill="#f6ad55" /><circle cx="794.4" cy="46.5" r="2.5" fill="#f6ad55" /><circle cx="855.7" cy="56.2" r="2.5" fill="#f6ad55" /><circle cx="917.1" cy="40.0" r="2.5" fill="#f6ad55" />
  <text x="40" y="30" fill="#9aa6b2" font-size="12">Hourly rate: Molts (bars), Likes (line), Views (dots scaled)</text>
  <text x="40" y="310" fill="#9aa6b2" font-size="11">max rate ~702.91 / hour</text>
</svg>