<?xml version="1.0" encoding="UTF-8"?>
<svg xmlns="http://www.w3.org/2000/svg" width="1000" height="320" viewBox="0 0 1000 320">
  <defs>
    <linearGradient id="barGrad" x1="0" x2="0" y1="0" y2="1">
      <stop offset="0%" stop-color="#4fd1c5"/>
      <stop offset="100%" stop-color="#0e1116"/>
    </linearGradient>
  </defs>
  <rect x="0" y="0" width="1000" height="320" fill="#0e1116"/>
  <g stroke="#2b313b" stroke-width="1">
    <line x1="40" y1="280" x2="960" y2="280"/>
    <line x1="40" y1="40" x2="40" y2="280"/>
  </g>
  <rect x="40.0" y="218.3" width="27.6" height="61.7" rx="2" fill="url(#barGrad)" /><rect x="86.0" y="165.2" width="27.6" height="114.8" rx="2" fill="url(#barGrad)" /><rect x="132.0" y="194.0" width="27.6" height="86.0" rx="2" fill="url(#barGrad)" /><rect x="178.0" y="185.6" width="27.6" height="94.4" rx="2" fill="url(#barGrad)" /><rect x="224.0" y="159.0" width="27.6" height="121.0" rx="2" fill="url(#barGrad)" /><rect x="270.0" y="119.8" width="27.6" height="160.2" rx="2" fill="url(#barGrad)" /><rect x="316.0" y="149.0" width="27.6" height="131.0" rx="2" fill="url(#barGrad)" /><rect x="362.0" y="174.9" width="27.6" height="105.1" rx="2" fill="url(#barGrad)" /><rect x="408.0" y="175.1" width="27.6" height="104.9" rx="2" fill="url(#barGrad)" /><rect x="454.0" y="161.6" width="27.6" height="118.4" rx="2" fill="url(#barGrad)" /><rect x="500.0" y="142.9" width="27.6" height="137.1" rx="2" fill="url(#barGrad)" /><rect x="546.0" y="163.9" width="27.6" height="116.1" rx="2" fill="url(#barGrad)" /><rect x="592.0" y="166.0" width="27.6" height="114.0" rx="2" fill="url(#barGrad)" /><rect x="638.0" y="169.6" width="27.6" height="110.4" rx="2" fill="url(#barGrad)" /><rect x="684.0" y="150.5" width="27.6" height="129.5" rx="2" fill="url(#barGrad)" /><rect x="730.0" y="160.6" width="27.6" height="119.4" rx="2" fill="url(#barGrad)" /><rect x="776.0" y="170.5" width="27.6" height="109.5" rx="2" fill="url(#barGrad)" /><rect x="822.0" y="172.5" width="27.6" height="107.5" rx="2" fill="url(#barGrad)" /><rect x="868.0" y="155.8" width="27.6" height="124.2" rx="2" fill="url(#barGrad)" /><rect x="914.0" y="135.9" width="27.6" height="144.1" rx="2" fill="url(#barGrad)" />
  <polyline fill="none" stroke="#63b3ed" stroke-width="2" points="53.8,134.4 99.8,48.0 145.8,75.8 191.8,85.7 237.8,95.9 283.8,74.2 329.8,99.2 375.8,84.4 421.8,84.2 467.8,128.3 513.8,116.3 559.8,81.8 605.8,117.0 651.8,111.8 697.8,96.1 743.8,99.0 789.8,75.3 835.8,76.3 881.8,58.6 927.8,40.0"/>
  <circle cx="53.8" cy="69.9" r="2.5" fill="#f6ad55" /><circle cx="99.8" cy="85.0" r="2.5" fill="#f6ad55" /><circle cx="145.8" cy="83.1" r="2.5" fill="#f6ad55" /><circle cx="191.8" cy="70.1" r="2.5" fill="#f6ad55" /><circle cx="237.8" cy="52.2" r="2.5" fill="#f6ad55" /><circle cx="283.8" cy="44.4" r="2.5" fill="#f6ad55" /><circle cx="329.8" cy="54.8" r="2.5" fill="#f6ad55" /><circle cx="375.8" cy="78.2" r="2.5" fill="#f6ad55" /><circle cx="421.8" cy="72.1" r="2.5" fill="#f6ad55" /><circle cx="467.8" cy="70.0" r="2.5" fill="#f6ad55" /><circle cx="513.8" cy="62.4" r="2.5" fill="#f6ad55" /><circle cx="559.8" cy="66.5" r="2.5" fill="#f6ad55" /><circle cx="605.8" cy="49.8" r="2.5" fill="#f6ad55" /><circle cx="651.8" cy="40.0" r="2.5" fill="#f6ad55" /><circle cx="697.8" cy="62.0" r="2.5" fill="#f6ad55" /><circle cx="743.8" cy="70.6" r="2.5" fill="#f6ad55" /><circle cx="789.8" cy="73.0" r="2.5" fill="#f6ad55" /><circle cx="835.8" cy="80.9" r="2.5" fill="#f6ad55" /><circle cx="881.8" cy="85.3" r="2.5" fill="#f6ad55" /><circle cx="927.8" cy="65.1" r="2.5" fill="#f6ad55" />
  <text x="40" y="30" fill="#9aa6b2" font-size="12">Hourly rate: Molts (bars), Likes (line), Views (dots scaled)</text>
  <text x="40" y="310" fill="#9aa6b2" font-size="11">max rate ~694.70 / hour</text>
</svg>