<?xml version="1.0" encoding="UTF-8"?>
<svg xmlns="http://www.w3.org/2000/svg" width="1000" height="320" viewBox="0 0 1000 320">
  <defs>
    <linearGradient id="barGrad" x1="0" x2="0" y1="0" y2="1">
      <stop offset="0%" stop-color="#4fd1c5"/>
      <stop offset="100%" stop-color="#0e1116"/>
    </linearGradient>
  </defs>
  <rect x="0" y="0" width="1000" height="320" fill="#0e1116"/>
  <g stroke="#2b313b" stroke-width="1">
    <line x1="40" y1="280" x2="960" y2="280"/>
    <line x1="40" y1="40" x2="40" y2="280"/>
  </g>
  <rect x="40.0" y="255.1" width="61.3" height="24.9" rx="2" fill="url(#barGrad)" /><rect x="142.2" y="190.5" width="61.3" height="89.5" rx="2" fill="url(#barGrad)" /><rect x="244.4" y="210.2" width="61.3" height="69.8" rx="2" fill="url(#barGrad)" /><rect x="346.7" y="196.7" width="61.3" height="83.3" rx="2" fill="url(#barGrad)" /><rect x="448.9" y="191.2" width="61.3" height="88.8" rx="2" fill="url(#barGrad)" /><rect x="551.1" y="181.7" width="61.3" height="98.3" rx="2" fill="url(#barGrad)" /><rect x="653.3" y="170.7" width="61.3" height="109.3" rx="2" fill="url(#barGrad)" /><rect x="755.6" y="170.1" width="61.3" height="109.9" rx="2" fill="url(#barGrad)" /><rect x="857.8" y="206.2" width="61.3" height="73.8" rx="2" fill="url(#barGrad)" />
  <polyline fill="none" stroke="#63b3ed" stroke-width="2" points="70.7,197.2 172.9,59.3 275.1,90.7 377.3,65.9 479.6,70.7 581.8,57.9 684.0,40.0 786.2,51.3 888.4,133.5"/>
  <circle cx="70.7" cy="106.2" r="2.5" fill="#f6ad55" /><circle cx="172.9" cy="101.0" r="2.5" fill="#f6ad55" /><circle cx="275.1" cy="84.0" r="2.5" fill="#f6ad55" /><circle cx="377.3" cy="58.5" r="2.5" fill="#f6ad55" /><circle cx="479.6" cy="62.7" r="2.5" fill="#f6ad55" /><circle cx="581.8" cy="40.0" r="2.5" fill="#f6ad55" /><circle cx="684.0" cy="50.2" r="2.5" fill="#f6ad55" /><circle cx="786.2" cy="50.7" r="2.5" fill="#f6ad55" /><circle cx="888.4" cy="70.0" r="2.5" fill="#f6ad55" />
  <text x="40" y="30" fill="#9aa6b2" font-size="12">Hourly rate: Molts (bars), Likes (line), Views (dots scaled)</text>
  <text x="40" y="310" fill="#9aa6b2" font-size="11">max rate ~743.65 / hour</text>
</svg>