<?xml version="1.0" encoding="UTF-8"?>
<svg xmlns="http://www.w3.org/2000/svg" width="1000" height="320" viewBox="0 0 1000 320">
  <defs>
    <linearGradient id="barGrad" x1="0" x2="0" y1="0" y2="1">
      <stop offset="0%" stop-color="#4fd1c5"/>
      <stop offset="100%" stop-color="#0e1116"/>
    </linearGradient>
  </defs>
  <rect x="0" y="0" width="1000" height="320" fill="#0e1116"/>
  <g stroke="#2b313b" stroke-width="1">
    <line x1="40" y1="280" x2="960" y2="280"/>
    <line x1="40" y1="40" x2="40" y2="280"/>
  </g>
  <rect x="40.0" y="245.6" width="50.2" height="34.4" rx="2" fill="url(#barGrad)" /><rect x="123.6" y="200.3" width="50.2" height="79.7" rx="2" fill="url(#barGrad)" /><rect x="207.3" y="205.1" width="50.2" height="74.9" rx="2" fill="url(#barGrad)" /><rect x="290.9" y="192.8" width="50.2" height="87.2" rx="2" fill="url(#barGrad)" /><rect x="374.5" y="192.6" width="50.2" height="87.4" rx="2" fill="url(#barGrad)" /><rect x="458.2" y="199.6" width="50.2" height="80.4" rx="2" fill="url(#barGrad)" /><rect x="541.8" y="207.3" width="50.2" height="72.7" rx="2" fill="url(#barGrad)" /><rect x="625.5" y="218.5" width="50.2" height="61.5" rx="2" fill="url(#barGrad)" /><rect x="709.1" y="198.4" width="50.2" height="81.6" rx="2" fill="url(#barGrad)" /><rect x="792.7" y="40.0" width="50.2" height="240.0" rx="2" fill="url(#barGrad)" /><rect x="876.4" y="200.9" width="50.2" height="79.1" rx="2" fill="url(#barGrad)" />
  <polyline fill="none" stroke="#63b3ed" stroke-width="2" points="65.1,151.5 148.7,208.6 232.4,162.4 316.0,146.9 399.6,125.2 483.3,147.1 566.9,125.1 650.5,152.9 734.2,112.4 817.8,96.6 901.5,135.5"/>
  <circle cx="65.1" cy="68.1" r="2.5" fill="#f6ad55" /><circle cx="148.7" cy="40.0" r="2.5" fill="#f6ad55" /><circle cx="232.4" cy="64.3" r="2.5" fill="#f6ad55" /><circle cx="316.0" cy="97.6" r="2.5" fill="#f6ad55" /><circle cx="399.6" cy="119.2" r="2.5" fill="#f6ad55" /><circle cx="483.3" cy="112.6" r="2.5" fill="#f6ad55" /><circle cx="566.9" cy="64.5" r="2.5" fill="#f6ad55" /><circle cx="650.5" cy="89.5" r="2.5" fill="#f6ad55" /><circle cx="734.2" cy="120.0" r="2.5" fill="#f6ad55" /><circle cx="817.8" cy="106.9" r="2.5" fill="#f6ad55" /><circle cx="901.5" cy="78.6" r="2.5" fill="#f6ad55" />
  <text x="40" y="30" fill="#9aa6b2" font-size="12">Hourly rate: Molts (bars), Likes (line), Views (dots scaled)</text>
  <text x="40" y="310" fill="#9aa6b2" font-size="11">max rate ~670.19 / hour</text>
</svg>