<?xml version="1.0" encoding="UTF-8"?>
<svg xmlns="http://www.w3.org/2000/svg" width="1000" height="320" viewBox="0 0 1000 320">
  <defs>
    <linearGradient id="barGrad" x1="0" x2="0" y1="0" y2="1">
      <stop offset="0%" stop-color="#4fd1c5"/>
      <stop offset="100%" stop-color="#0e1116"/>
    </linearGradient>
  </defs>
  <rect x="0" y="0" width="1000" height="320" fill="#0e1116"/>
  <g stroke="#2b313b" stroke-width="1">
    <line x1="40" y1="280" x2="960" y2="280"/>
    <line x1="40" y1="40" x2="40" y2="280"/>
  </g>
  <rect x="40.0" y="161.1" width="22.1" height="118.9" rx="2" fill="url(#barGrad)" /><rect x="76.8" y="120.0" width="22.1" height="160.0" rx="2" fill="url(#barGrad)" /><rect x="113.6" y="112.9" width="22.1" height="167.1" rx="2" fill="url(#barGrad)" /><rect x="150.4" y="125.3" width="22.1" height="154.7" rx="2" fill="url(#barGrad)" /><rect x="187.2" y="113.9" width="22.1" height="166.1" rx="2" fill="url(#barGrad)" /><rect x="224.0" y="122.8" width="22.1" height="157.2" rx="2" fill="url(#barGrad)" /><rect x="260.8" y="117.5" width="22.1" height="162.5" rx="2" fill="url(#barGrad)" /><rect x="297.6" y="97.9" width="22.1" height="182.1" rx="2" fill="url(#barGrad)" /><rect x="334.4" y="140.7" width="22.1" height="139.3" rx="2" fill="url(#barGrad)" /><rect x="371.2" y="113.1" width="22.1" height="166.9" rx="2" fill="url(#barGrad)" /><rect x="408.0" y="92.3" width="22.1" height="187.7" rx="2" fill="url(#barGrad)" /><rect x="444.8" y="107.6" width="22.1" height="172.4" rx="2" fill="url(#barGrad)" /><rect x="481.6" y="120.5" width="22.1" height="159.5" rx="2" fill="url(#barGrad)" /><rect x="518.4" y="114.3" width="22.1" height="165.7" rx="2" fill="url(#barGrad)" /><rect x="555.2" y="159.1" width="22.1" height="120.9" rx="2" fill="url(#barGrad)" /><rect x="592.0" y="162.7" width="22.1" height="117.3" rx="2" fill="url(#barGrad)" /><rect x="628.8" y="138.1" width="22.1" height="141.9" rx="2" fill="url(#barGrad)" /><rect x="665.6" y="154.2" width="22.1" height="125.8" rx="2" fill="url(#barGrad)" /><rect x="702.4" y="149.4" width="22.1" height="130.6" rx="2" fill="url(#barGrad)" /><rect x="739.2" y="134.8" width="22.1" height="145.2" rx="2" fill="url(#barGrad)" /><rect x="776.0" y="155.1" width="22.1" height="124.9" rx="2" fill="url(#barGrad)" /><rect x="812.8" y="167.3" width="22.1" height="112.7" rx="2" fill="url(#barGrad)" /><rect x="849.6" y="166.5" width="22.1" height="113.5" rx="2" fill="url(#barGrad)" /><rect x="886.4" y="194.4" width="22.1" height="85.6" rx="2" fill="url(#barGrad)" /><rect x="923.2" y="194.3" width="22.1" height="85.7" rx="2" fill="url(#barGrad)" />
  <polyline fill="none" stroke="#63b3ed" stroke-width="2" points="51.0,127.6 87.8,80.7 124.6,85.0 161.4,98.2 198.2,88.1 235.0,81.9 271.8,40.0 308.6,55.8 345.4,112.1 382.2,93.5 419.0,91.0 455.8,49.9 492.6,48.8 529.4,56.0 566.2,109.7 603.0,104.0 639.8,67.8 676.6,77.9 713.4,113.2 750.2,58.1 787.0,96.3 823.8,90.5 860.6,87.1 897.4,94.5 934.2,111.1"/>
  <circle cx="51.0" cy="100.8" r="2.5" fill="#f6ad55" /><circle cx="87.8" cy="64.8" r="2.5" fill="#f6ad55" /><circle cx="124.6" cy="52.4" r="2.5" fill="#f6ad55" /><circle cx="161.4" cy="40.0" r="2.5" fill="#f6ad55" /><circle cx="198.2" cy="45.2" r="2.5" fill="#f6ad55" /><circle cx="235.0" cy="83.8" r="2.5" fill="#f6ad55" /><circle cx="271.8" cy="57.7" r="2.5" fill="#f6ad55" /><circle cx="308.6" cy="87.9" r="2.5" fill="#f6ad55" /><circle cx="345.4" cy="83.5" r="2.5" fill="#f6ad55" /><circle cx="382.2" cy="90.8" r="2.5" fill="#f6ad55" /><circle cx="419.0" cy="91.1" r="2.5" fill="#f6ad55" /><circle cx="455.8" cy="90.8" r="2.5" fill="#f6ad55" /><circle cx="492.6" cy="44.6" r="2.5" fill="#f6ad55" /><circle cx="529.4" cy="88.7" r="2.5" fill="#f6ad55" /><circle cx="566.2" cy="87.9" r="2.5" fill="#f6ad55" /><circle cx="603.0" cy="89.1" r="2.5" fill="#f6ad55" /><circle cx="639.8" cy="86.9" r="2.5" fill="#f6ad55" /><circle cx="676.6" cy="82.4" r="2.5" fill="#f6ad55" /><circle cx="713.4" cy="76.0" r="2.5" fill="#f6ad55" /><circle cx="750.2" cy="82.8" r="2.5" fill="#f6ad55" /><circle cx="787.0" cy="88.9" r="2.5" fill="#f6ad55" /><circle cx="823.8" cy="100.0" r="2.5" fill="#f6ad55" /><circle cx="860.6" cy="78.7" r="2.5" fill="#f6ad55" /><circle cx="897.4" cy="65.4" r="2.5" fill="#f6ad55" /><circle cx="934.2" cy="86.3" r="2.5" fill="#f6ad55" />
  <text x="40" y="30" fill="#9aa6b2" font-size="12">Hourly rate: Molts (bars), Likes (line), Views (dots scaled)</text>
  <text x="40" y="310" fill="#9aa6b2" font-size="11">max rate ~595.01 / hour</text>
</svg>