<?xml version="1.0" encoding="UTF-8"?>
<svg xmlns="http://www.w3.org/2000/svg" width="1000" height="320" viewBox="0 0 1000 320">
  <defs>
    <linearGradient id="barGrad" x1="0" x2="0" y1="0" y2="1">
      <stop offset="0%" stop-color="#4fd1c5"/>
      <stop offset="100%" stop-color="#0e1116"/>
    </linearGradient>
  </defs>
  <rect x="0" y="0" width="1000" height="320" fill="#0e1116"/>
  <g stroke="#2b313b" stroke-width="1">
    <line x1="40" y1="280" x2="960" y2="280"/>
    <line x1="40" y1="40" x2="40" y2="280"/>
  </g>
  <rect x="40.0" y="227.9" width="46.0" height="52.1" rx="2" fill="url(#barGrad)" /><rect x="116.7" y="192.0" width="46.0" height="88.0" rx="2" fill="url(#barGrad)" /><rect x="193.3" y="207.3" width="46.0" height="72.7" rx="2" fill="url(#barGrad)" /><rect x="270.0" y="194.3" width="46.0" height="85.7" rx="2" fill="url(#barGrad)" /><rect x="346.7" y="197.3" width="46.0" height="82.7" rx="2" fill="url(#barGrad)" /><rect x="423.3" y="195.6" width="46.0" height="84.4" rx="2" fill="url(#barGrad)" /><rect x="500.0" y="165.2" width="46.0" height="114.8" rx="2" fill="url(#barGrad)" /><rect x="576.7" y="197.2" width="46.0" height="82.8" rx="2" fill="url(#barGrad)" /><rect x="653.3" y="187.5" width="46.0" height="92.5" rx="2" fill="url(#barGrad)" /><rect x="730.0" y="182.9" width="46.0" height="97.1" rx="2" fill="url(#barGrad)" /><rect x="806.7" y="189.4" width="46.0" height="90.6" rx="2" fill="url(#barGrad)" /><rect x="883.3" y="197.0" width="46.0" height="83.0" rx="2" fill="url(#barGrad)" />
  <polyline fill="none" stroke="#63b3ed" stroke-width="2" points="63.0,154.6 139.7,88.7 216.3,101.3 293.0,101.9 369.7,91.2 446.3,80.0 523.0,40.0 599.7,101.8 676.3,112.3 753.0,105.2 829.7,99.7 906.3,110.3"/>
  <circle cx="63.0" cy="40.0" r="2.5" fill="#f6ad55" /><circle cx="139.7" cy="86.6" r="2.5" fill="#f6ad55" /><circle cx="216.3" cy="78.3" r="2.5" fill="#f6ad55" /><circle cx="293.0" cy="81.9" r="2.5" fill="#f6ad55" /><circle cx="369.7" cy="94.8" r="2.5" fill="#f6ad55" /><circle cx="446.3" cy="68.0" r="2.5" fill="#f6ad55" /><circle cx="523.0" cy="99.2" r="2.5" fill="#f6ad55" /><circle cx="599.7" cy="97.0" r="2.5" fill="#f6ad55" /><circle cx="676.3" cy="92.0" r="2.5" fill="#f6ad55" /><circle cx="753.0" cy="87.4" r="2.5" fill="#f6ad55" /><circle cx="829.7" cy="71.3" r="2.5" fill="#f6ad55" /><circle cx="906.3" cy="83.0" r="2.5" fill="#f6ad55" />
  <text x="40" y="30" fill="#9aa6b2" font-size="12">Hourly rate: Molts (bars), Likes (line), Views (dots scaled)</text>
  <text x="40" y="310" fill="#9aa6b2" font-size="11">max rate ~802.71 / hour</text>
</svg>