<?xml version="1.0" encoding="UTF-8"?>
<svg xmlns="http://www.w3.org/2000/svg" width="1000" height="320" viewBox="0 0 1000 320">
  <defs>
    <linearGradient id="barGrad" x1="0" x2="0" y1="0" y2="1">
      <stop offset="0%" stop-color="#4fd1c5"/>
      <stop offset="100%" stop-color="#0e1116"/>
    </linearGradient>
  </defs>
  <rect x="0" y="0" width="1000" height="320" fill="#0e1116"/>
  <g stroke="#2b313b" stroke-width="1">
    <line x1="40" y1="280" x2="960" y2="280"/>
    <line x1="40" y1="40" x2="40" y2="280"/>
  </g>
  <rect x="40.0" y="40.0" width="27.6" height="240.0" rx="2" fill="url(#barGrad)" /><rect x="86.0" y="130.6" width="27.6" height="149.4" rx="2" fill="url(#barGrad)" /><rect x="132.0" y="264.2" width="27.6" height="15.8" rx="2" fill="url(#barGrad)" /><rect x="178.0" y="263.6" width="27.6" height="16.4" rx="2" fill="url(#barGrad)" /><rect x="224.0" y="259.3" width="27.6" height="20.7" rx="2" fill="url(#barGrad)" /><rect x="270.0" y="256.8" width="27.6" height="23.2" rx="2" fill="url(#barGrad)" /><rect x="316.0" y="263.6" width="27.6" height="16.4" rx="2" fill="url(#barGrad)" /><rect x="362.0" y="258.7" width="27.6" height="21.3" rx="2" fill="url(#barGrad)" /><rect x="408.0" y="262.3" width="27.6" height="17.7" rx="2" fill="url(#barGrad)" /><rect x="454.0" y="258.4" width="27.6" height="21.6" rx="2" fill="url(#barGrad)" /><rect x="500.0" y="258.7" width="27.6" height="21.3" rx="2" fill="url(#barGrad)" /><rect x="546.0" y="233.1" width="27.6" height="46.9" rx="2" fill="url(#barGrad)" /><rect x="592.0" y="178.1" width="27.6" height="101.9" rx="2" fill="url(#barGrad)" /><rect x="638.0" y="236.0" width="27.6" height="44.0" rx="2" fill="url(#barGrad)" /><rect x="684.0" y="590.6" width="27.6" height="-310.6" rx="2" fill="url(#barGrad)" /><rect x="730.0" y="262.8" width="27.6" height="17.2" rx="2" fill="url(#barGrad)" /><rect x="776.0" y="260.5" width="27.6" height="19.5" rx="2" fill="url(#barGrad)" /><rect x="822.0" y="262.2" width="27.6" height="17.8" rx="2" fill="url(#barGrad)" /><rect x="868.0" y="246.0" width="27.6" height="34.0" rx="2" fill="url(#barGrad)" /><rect x="914.0" y="265.2" width="27.6" height="14.8" rx="2" fill="url(#barGrad)" />
  <polyline fill="none" stroke="#63b3ed" stroke-width="2" points="53.8,239.6 99.8,244.1 145.8,242.8 191.8,249.5 237.8,241.8 283.8,249.3 329.8,245.9 375.8,253.0 421.8,256.6 467.8,247.6 513.8,246.5 559.8,243.3 605.8,239.7 651.8,222.8 697.8,252.3 743.8,249.6 789.8,244.0 835.8,242.5 881.8,232.6 927.8,240.9"/>
  <circle cx="53.8" cy="69.2" r="2.5" fill="#f6ad55" /><circle cx="99.8" cy="53.4" r="2.5" fill="#f6ad55" /><circle cx="145.8" cy="65.5" r="2.5" fill="#f6ad55" /><circle cx="191.8" cy="59.3" r="2.5" fill="#f6ad55" /><circle cx="237.8" cy="56.7" r="2.5" fill="#f6ad55" /><circle cx="283.8" cy="51.7" r="2.5" fill="#f6ad55" /><circle cx="329.8" cy="67.1" r="2.5" fill="#f6ad55" /><circle cx="375.8" cy="83.2" r="2.5" fill="#f6ad55" /><circle cx="421.8" cy="76.7" r="2.5" fill="#f6ad55" /><circle cx="467.8" cy="99.7" r="2.5" fill="#f6ad55" /><circle cx="513.8" cy="84.7" r="2.5" fill="#f6ad55" /><circle cx="559.8" cy="89.9" r="2.5" fill="#f6ad55" /><circle cx="605.8" cy="64.4" r="2.5" fill="#f6ad55" /><circle cx="651.8" cy="99.1" r="2.5" fill="#f6ad55" /><circle cx="697.8" cy="96.8" r="2.5" fill="#f6ad55" /><circle cx="743.8" cy="79.0" r="2.5" fill="#f6ad55" /><circle cx="789.8" cy="59.9" r="2.5" fill="#f6ad55" /><circle cx="835.8" cy="50.6" r="2.5" fill="#f6ad55" /><circle cx="881.8" cy="40.0" r="2.5" fill="#f6ad55" /><circle cx="927.8" cy="43.0" r="2.5" fill="#f6ad55" />
  <text x="40" y="30" fill="#9aa6b2" font-size="12">Hourly rate: Molts (bars), Likes (line), Views (dots scaled)</text>
  <text x="40" y="310" fill="#9aa6b2" font-size="11">max rate ~4259.25 / hour</text>
</svg>