<?xml version="1.0" encoding="UTF-8"?>
<svg xmlns="http://www.w3.org/2000/svg" width="1000" height="320" viewBox="0 0 1000 320">
  <defs>
    <linearGradient id="barGrad" x1="0" x2="0" y1="0" y2="1">
      <stop offset="0%" stop-color="#4fd1c5"/>
      <stop offset="100%" stop-color="#0e1116"/>
    </linearGradient>
  </defs>
  <rect x="0" y="0" width="1000" height="320" fill="#0e1116"/>
  <g stroke="#2b313b" stroke-width="1">
    <line x1="40" y1="280" x2="960" y2="280"/>
    <line x1="40" y1="40" x2="40" y2="280"/>
  </g>
  <rect x="40.0" y="233.9" width="23.0" height="46.1" rx="2" fill="url(#barGrad)" /><rect x="78.3" y="202.1" width="23.0" height="77.9" rx="2" fill="url(#barGrad)" /><rect x="116.7" y="215.7" width="23.0" height="64.3" rx="2" fill="url(#barGrad)" /><rect x="155.0" y="204.2" width="23.0" height="75.8" rx="2" fill="url(#barGrad)" /><rect x="193.3" y="206.8" width="23.0" height="73.2" rx="2" fill="url(#barGrad)" /><rect x="231.7" y="205.4" width="23.0" height="74.6" rx="2" fill="url(#barGrad)" /><rect x="270.0" y="178.4" width="23.0" height="101.6" rx="2" fill="url(#barGrad)" /><rect x="308.3" y="206.8" width="23.0" height="73.2" rx="2" fill="url(#barGrad)" /><rect x="346.7" y="198.1" width="23.0" height="81.9" rx="2" fill="url(#barGrad)" /><rect x="385.0" y="194.1" width="23.0" height="85.9" rx="2" fill="url(#barGrad)" /><rect x="423.3" y="199.8" width="23.0" height="80.2" rx="2" fill="url(#barGrad)" /><rect x="461.7" y="214.6" width="23.0" height="65.4" rx="2" fill="url(#barGrad)" /><rect x="500.0" y="173.7" width="23.0" height="106.3" rx="2" fill="url(#barGrad)" /><rect x="538.3" y="190.9" width="23.0" height="89.1" rx="2" fill="url(#barGrad)" /><rect x="576.7" y="176.4" width="23.0" height="103.6" rx="2" fill="url(#barGrad)" /><rect x="615.0" y="183.7" width="23.0" height="96.3" rx="2" fill="url(#barGrad)" /><rect x="653.3" y="150.4" width="23.0" height="129.6" rx="2" fill="url(#barGrad)" /><rect x="691.7" y="172.6" width="23.0" height="107.4" rx="2" fill="url(#barGrad)" /><rect x="730.0" y="197.8" width="23.0" height="82.2" rx="2" fill="url(#barGrad)" /><rect x="768.3" y="214.8" width="23.0" height="65.2" rx="2" fill="url(#barGrad)" /><rect x="806.7" y="200.3" width="23.0" height="79.7" rx="2" fill="url(#barGrad)" /><rect x="845.0" y="193.9" width="23.0" height="86.1" rx="2" fill="url(#barGrad)" /><rect x="883.3" y="208.8" width="23.0" height="71.2" rx="2" fill="url(#barGrad)" /><rect x="921.7" y="188.6" width="23.0" height="91.4" rx="2" fill="url(#barGrad)" />
  <polyline fill="none" stroke="#63b3ed" stroke-width="2" points="51.5,169.1 89.8,110.8 128.2,121.9 166.5,122.5 204.8,113.0 243.2,103.1 281.5,67.7 319.8,122.3 358.2,131.6 396.5,125.4 434.8,120.5 473.2,141.4 511.5,98.1 549.8,110.6 588.2,64.6 626.5,62.7 664.8,44.3 703.2,40.0 741.5,98.5 779.8,94.0 818.2,63.7 856.5,91.2 894.8,127.3 933.2,107.0"/>
  <circle cx="51.5" cy="40.0" r="2.5" fill="#f6ad55" /><circle cx="89.8" cy="86.6" r="2.5" fill="#f6ad55" /><circle cx="128.2" cy="78.3" r="2.5" fill="#f6ad55" /><circle cx="166.5" cy="81.9" r="2.5" fill="#f6ad55" /><circle cx="204.8" cy="94.8" r="2.5" fill="#f6ad55" /><circle cx="243.2" cy="68.0" r="2.5" fill="#f6ad55" /><circle cx="281.5" cy="99.2" r="2.5" fill="#f6ad55" /><circle cx="319.8" cy="97.0" r="2.5" fill="#f6ad55" /><circle cx="358.2" cy="92.0" r="2.5" fill="#f6ad55" /><circle cx="396.5" cy="87.4" r="2.5" fill="#f6ad55" /><circle cx="434.8" cy="71.3" r="2.5" fill="#f6ad55" /><circle cx="473.2" cy="84.0" r="2.5" fill="#f6ad55" /><circle cx="511.5" cy="82.4" r="2.5" fill="#f6ad55" /><circle cx="549.8" cy="85.0" r="2.5" fill="#f6ad55" /><circle cx="588.2" cy="104.1" r="2.5" fill="#f6ad55" /><circle cx="626.5" cy="90.9" r="2.5" fill="#f6ad55" /><circle cx="664.8" cy="63.4" r="2.5" fill="#f6ad55" /><circle cx="703.2" cy="82.0" r="2.5" fill="#f6ad55" /><circle cx="741.5" cy="72.5" r="2.5" fill="#f6ad55" /><circle cx="779.8" cy="67.4" r="2.5" fill="#f6ad55" /><circle cx="818.2" cy="64.0" r="2.5" fill="#f6ad55" /><circle cx="856.5" cy="81.5" r="2.5" fill="#f6ad55" /><circle cx="894.8" cy="73.1" r="2.5" fill="#f6ad55" /><circle cx="933.2" cy="118.6" r="2.5" fill="#f6ad55" />
  <text x="40" y="30" fill="#9aa6b2" font-size="12">Hourly rate: Molts (bars), Likes (line), Views (dots scaled)</text>
  <text x="40" y="310" fill="#9aa6b2" font-size="11">max rate ~907.34 / hour</text>
</svg>