<?xml version="1.0" encoding="UTF-8"?>
<svg xmlns="http://www.w3.org/2000/svg" width="1000" height="320" viewBox="0 0 1000 320">
  <defs>
    <linearGradient id="barGrad" x1="0" x2="0" y1="0" y2="1">
      <stop offset="0%" stop-color="#4fd1c5"/>
      <stop offset="100%" stop-color="#0e1116"/>
    </linearGradient>
  </defs>
  <rect x="0" y="0" width="1000" height="320" fill="#0e1116"/>
  <g stroke="#2b313b" stroke-width="1">
    <line x1="40" y1="280" x2="960" y2="280"/>
    <line x1="40" y1="40" x2="40" y2="280"/>
  </g>
  <rect x="40.0" y="255.1" width="26.3" height="24.9" rx="2" fill="url(#barGrad)" /><rect x="83.8" y="190.5" width="26.3" height="89.5" rx="2" fill="url(#barGrad)" /><rect x="127.6" y="210.2" width="26.3" height="69.8" rx="2" fill="url(#barGrad)" /><rect x="171.4" y="196.7" width="26.3" height="83.3" rx="2" fill="url(#barGrad)" /><rect x="215.2" y="191.2" width="26.3" height="88.8" rx="2" fill="url(#barGrad)" /><rect x="259.0" y="181.7" width="26.3" height="98.3" rx="2" fill="url(#barGrad)" /><rect x="302.9" y="170.7" width="26.3" height="109.3" rx="2" fill="url(#barGrad)" /><rect x="346.7" y="170.1" width="26.3" height="109.9" rx="2" fill="url(#barGrad)" /><rect x="390.5" y="206.2" width="26.3" height="73.8" rx="2" fill="url(#barGrad)" /><rect x="434.3" y="198.1" width="26.3" height="81.9" rx="2" fill="url(#barGrad)" /><rect x="478.1" y="189.9" width="26.3" height="90.1" rx="2" fill="url(#barGrad)" /><rect x="521.9" y="193.8" width="26.3" height="86.2" rx="2" fill="url(#barGrad)" /><rect x="565.7" y="182.9" width="26.3" height="97.1" rx="2" fill="url(#barGrad)" /><rect x="609.5" y="172.8" width="26.3" height="107.2" rx="2" fill="url(#barGrad)" /><rect x="653.3" y="152.8" width="26.3" height="127.2" rx="2" fill="url(#barGrad)" /><rect x="697.1" y="130.5" width="26.3" height="149.5" rx="2" fill="url(#barGrad)" /><rect x="741.0" y="173.5" width="26.3" height="106.5" rx="2" fill="url(#barGrad)" /><rect x="784.8" y="193.1" width="26.3" height="86.9" rx="2" fill="url(#barGrad)" /><rect x="828.6" y="207.6" width="26.3" height="72.4" rx="2" fill="url(#barGrad)" /><rect x="872.4" y="157.8" width="26.3" height="122.2" rx="2" fill="url(#barGrad)" /><rect x="916.2" y="123.4" width="26.3" height="156.6" rx="2" fill="url(#barGrad)" />
  <polyline fill="none" stroke="#63b3ed" stroke-width="2" points="53.1,197.2 97.0,59.3 140.8,90.7 184.6,65.9 228.4,70.7 272.2,57.9 316.0,40.0 359.8,51.3 403.6,133.5 447.4,111.0 491.2,112.9 535.0,87.0 578.9,62.2 622.7,63.4 666.5,59.0 710.3,47.2 754.1,85.2 797.9,85.2 841.7,117.1 885.5,43.0 929.3,73.2"/>
  <circle cx="53.1" cy="106.2" r="2.5" fill="#f6ad55" /><circle cx="97.0" cy="101.0" r="2.5" fill="#f6ad55" /><circle cx="140.8" cy="84.0" r="2.5" fill="#f6ad55" /><circle cx="184.6" cy="58.5" r="2.5" fill="#f6ad55" /><circle cx="228.4" cy="62.7" r="2.5" fill="#f6ad55" /><circle cx="272.2" cy="40.0" r="2.5" fill="#f6ad55" /><circle cx="316.0" cy="50.2" r="2.5" fill="#f6ad55" /><circle cx="359.8" cy="50.7" r="2.5" fill="#f6ad55" /><circle cx="403.6" cy="70.0" r="2.5" fill="#f6ad55" /><circle cx="447.4" cy="78.6" r="2.5" fill="#f6ad55" /><circle cx="491.2" cy="90.7" r="2.5" fill="#f6ad55" /><circle cx="535.0" cy="90.6" r="2.5" fill="#f6ad55" /><circle cx="578.9" cy="94.7" r="2.5" fill="#f6ad55" /><circle cx="622.7" cy="103.9" r="2.5" fill="#f6ad55" /><circle cx="666.5" cy="112.5" r="2.5" fill="#f6ad55" /><circle cx="710.3" cy="86.3" r="2.5" fill="#f6ad55" /><circle cx="754.1" cy="93.6" r="2.5" fill="#f6ad55" /><circle cx="797.9" cy="78.3" r="2.5" fill="#f6ad55" /><circle cx="841.7" cy="54.1" r="2.5" fill="#f6ad55" /><circle cx="885.5" cy="70.0" r="2.5" fill="#f6ad55" /><circle cx="929.3" cy="75.1" r="2.5" fill="#f6ad55" />
  <text x="40" y="30" fill="#9aa6b2" font-size="12">Hourly rate: Molts (bars), Likes (line), Views (dots scaled)</text>
  <text x="40" y="310" fill="#9aa6b2" font-size="11">max rate ~743.65 / hour</text>
</svg>