<?xml version="1.0" encoding="UTF-8"?>
<svg xmlns="http://www.w3.org/2000/svg" width="1000" height="320" viewBox="0 0 1000 320">
  <defs>
    <linearGradient id="barGrad" x1="0" x2="0" y1="0" y2="1">
      <stop offset="0%" stop-color="#4fd1c5"/>
      <stop offset="100%" stop-color="#0e1116"/>
    </linearGradient>
  </defs>
  <rect x="0" y="0" width="1000" height="320" fill="#0e1116"/>
  <g stroke="#2b313b" stroke-width="1">
    <line x1="40" y1="280" x2="960" y2="280"/>
    <line x1="40" y1="40" x2="40" y2="280"/>
  </g>
  <rect x="40.0" y="142.3" width="27.6" height="137.7" rx="2" fill="url(#barGrad)" /><rect x="86.0" y="157.3" width="27.6" height="122.7" rx="2" fill="url(#barGrad)" /><rect x="132.0" y="158.1" width="27.6" height="121.9" rx="2" fill="url(#barGrad)" /><rect x="178.0" y="188.3" width="27.6" height="91.7" rx="2" fill="url(#barGrad)" /><rect x="224.0" y="183.0" width="27.6" height="97.0" rx="2" fill="url(#barGrad)" /><rect x="270.0" y="148.2" width="27.6" height="131.8" rx="2" fill="url(#barGrad)" /><rect x="316.0" y="164.6" width="27.6" height="115.4" rx="2" fill="url(#barGrad)" /><rect x="362.0" y="156.8" width="27.6" height="123.2" rx="2" fill="url(#barGrad)" /><rect x="408.0" y="171.3" width="27.6" height="108.7" rx="2" fill="url(#barGrad)" /><rect x="454.0" y="169.6" width="27.6" height="110.4" rx="2" fill="url(#barGrad)" /><rect x="500.0" y="171.2" width="27.6" height="108.8" rx="2" fill="url(#barGrad)" /><rect x="546.0" y="182.6" width="27.6" height="97.4" rx="2" fill="url(#barGrad)" /><rect x="592.0" y="176.0" width="27.6" height="104.0" rx="2" fill="url(#barGrad)" /><rect x="638.0" y="162.2" width="27.6" height="117.8" rx="2" fill="url(#barGrad)" /><rect x="684.0" y="178.8" width="27.6" height="101.2" rx="2" fill="url(#barGrad)" /><rect x="730.0" y="195.0" width="27.6" height="85.0" rx="2" fill="url(#barGrad)" /><rect x="776.0" y="204.1" width="27.6" height="75.9" rx="2" fill="url(#barGrad)" /><rect x="822.0" y="190.0" width="27.6" height="90.0" rx="2" fill="url(#barGrad)" /><rect x="868.0" y="210.5" width="27.6" height="69.5" rx="2" fill="url(#barGrad)" /><rect x="914.0" y="178.2" width="27.6" height="101.8" rx="2" fill="url(#barGrad)" />
  <polyline fill="none" stroke="#63b3ed" stroke-width="2" points="53.8,82.1 99.8,50.2 145.8,63.7 191.8,96.9 237.8,85.6 283.8,63.0 329.8,40.0 375.8,46.4 421.8,73.6 467.8,67.4 513.8,75.5 559.8,87.6 605.8,93.3 651.8,43.8 697.8,75.0 743.8,108.4 789.8,145.3 835.8,89.6 881.8,111.1 927.8,79.9"/>
  <circle cx="53.8" cy="79.1" r="2.5" fill="#f6ad55" /><circle cx="99.8" cy="83.9" r="2.5" fill="#f6ad55" /><circle cx="145.8" cy="55.0" r="2.5" fill="#f6ad55" /><circle cx="191.8" cy="40.0" r="2.5" fill="#f6ad55" /><circle cx="237.8" cy="83.5" r="2.5" fill="#f6ad55" /><circle cx="283.8" cy="93.5" r="2.5" fill="#f6ad55" /><circle cx="329.8" cy="92.6" r="2.5" fill="#f6ad55" /><circle cx="375.8" cy="95.5" r="2.5" fill="#f6ad55" /><circle cx="421.8" cy="112.8" r="2.5" fill="#f6ad55" /><circle cx="467.8" cy="124.4" r="2.5" fill="#f6ad55" /><circle cx="513.8" cy="98.5" r="2.5" fill="#f6ad55" /><circle cx="559.8" cy="97.2" r="2.5" fill="#f6ad55" /><circle cx="605.8" cy="84.7" r="2.5" fill="#f6ad55" /><circle cx="651.8" cy="95.0" r="2.5" fill="#f6ad55" /><circle cx="697.8" cy="115.3" r="2.5" fill="#f6ad55" /><circle cx="743.8" cy="92.8" r="2.5" fill="#f6ad55" /><circle cx="789.8" cy="103.9" r="2.5" fill="#f6ad55" /><circle cx="835.8" cy="77.2" r="2.5" fill="#f6ad55" /><circle cx="881.8" cy="79.1" r="2.5" fill="#f6ad55" /><circle cx="927.8" cy="76.1" r="2.5" fill="#f6ad55" />
  <text x="40" y="30" fill="#9aa6b2" font-size="12">Hourly rate: Molts (bars), Likes (line), Views (dots scaled)</text>
  <text x="40" y="310" fill="#9aa6b2" font-size="11">max rate ~718.37 / hour</text>
</svg>