<?xml version="1.0" encoding="UTF-8"?>
<svg xmlns="http://www.w3.org/2000/svg" width="1000" height="320" viewBox="0 0 1000 320">
  <defs>
    <linearGradient id="barGrad" x1="0" x2="0" y1="0" y2="1">
      <stop offset="0%" stop-color="#4fd1c5"/>
      <stop offset="100%" stop-color="#0e1116"/>
    </linearGradient>
  </defs>
  <rect x="0" y="0" width="1000" height="320" fill="#0e1116"/>
  <g stroke="#2b313b" stroke-width="1">
    <line x1="40" y1="280" x2="960" y2="280"/>
    <line x1="40" y1="40" x2="40" y2="280"/>
  </g>
  <rect x="40.0" y="232.3" width="55.2" height="47.7" rx="2" fill="url(#barGrad)" /><rect x="132.0" y="158.4" width="55.2" height="121.6" rx="2" fill="url(#barGrad)" /><rect x="224.0" y="125.6" width="55.2" height="154.4" rx="2" fill="url(#barGrad)" /><rect x="316.0" y="172.9" width="55.2" height="107.1" rx="2" fill="url(#barGrad)" /><rect x="408.0" y="190.6" width="55.2" height="89.4" rx="2" fill="url(#barGrad)" /><rect x="500.0" y="48.2" width="55.2" height="231.8" rx="2" fill="url(#barGrad)" /><rect x="592.0" y="159.4" width="55.2" height="120.6" rx="2" fill="url(#barGrad)" /><rect x="684.0" y="137.2" width="55.2" height="142.8" rx="2" fill="url(#barGrad)" /><rect x="776.0" y="192.9" width="55.2" height="87.1" rx="2" fill="url(#barGrad)" /><rect x="868.0" y="171.2" width="55.2" height="108.8" rx="2" fill="url(#barGrad)" />
  <polyline fill="none" stroke="#63b3ed" stroke-width="2" points="67.6,162.1 159.6,116.3 251.6,114.9 343.6,68.3 435.6,123.8 527.6,107.6 619.6,127.5 711.6,40.0 803.6,137.8 895.6,129.4"/>
  <circle cx="67.6" cy="94.0" r="2.5" fill="#f6ad55" /><circle cx="159.6" cy="109.8" r="2.5" fill="#f6ad55" /><circle cx="251.6" cy="69.0" r="2.5" fill="#f6ad55" /><circle cx="343.6" cy="44.9" r="2.5" fill="#f6ad55" /><circle cx="435.6" cy="40.0" r="2.5" fill="#f6ad55" /><circle cx="527.6" cy="48.2" r="2.5" fill="#f6ad55" /><circle cx="619.6" cy="46.9" r="2.5" fill="#f6ad55" /><circle cx="711.6" cy="47.5" r="2.5" fill="#f6ad55" /><circle cx="803.6" cy="43.4" r="2.5" fill="#f6ad55" /><circle cx="895.6" cy="54.2" r="2.5" fill="#f6ad55" />
  <text x="40" y="30" fill="#9aa6b2" font-size="12">Hourly rate: Molts (bars), Likes (line), Views (dots scaled)</text>
  <text x="40" y="310" fill="#9aa6b2" font-size="11">max rate ~683.13 / hour</text>
</svg>