<?xml version="1.0" encoding="UTF-8"?>
<svg xmlns="http://www.w3.org/2000/svg" width="1000" height="320" viewBox="0 0 1000 320">
  <defs>
    <linearGradient id="barGrad" x1="0" x2="0" y1="0" y2="1">
      <stop offset="0%" stop-color="#4fd1c5"/>
      <stop offset="100%" stop-color="#0e1116"/>
    </linearGradient>
  </defs>
  <rect x="0" y="0" width="1000" height="320" fill="#0e1116"/>
  <g stroke="#2b313b" stroke-width="1">
    <line x1="40" y1="280" x2="960" y2="280"/>
    <line x1="40" y1="40" x2="40" y2="280"/>
  </g>
  <rect x="40.0" y="233.9" width="30.7" height="46.1" rx="2" fill="url(#barGrad)" /><rect x="91.1" y="202.1" width="30.7" height="77.9" rx="2" fill="url(#barGrad)" /><rect x="142.2" y="215.7" width="30.7" height="64.3" rx="2" fill="url(#barGrad)" /><rect x="193.3" y="204.2" width="30.7" height="75.8" rx="2" fill="url(#barGrad)" /><rect x="244.4" y="206.8" width="30.7" height="73.2" rx="2" fill="url(#barGrad)" /><rect x="295.6" y="205.4" width="30.7" height="74.6" rx="2" fill="url(#barGrad)" /><rect x="346.7" y="178.4" width="30.7" height="101.6" rx="2" fill="url(#barGrad)" /><rect x="397.8" y="206.8" width="30.7" height="73.2" rx="2" fill="url(#barGrad)" /><rect x="448.9" y="198.1" width="30.7" height="81.9" rx="2" fill="url(#barGrad)" /><rect x="500.0" y="194.1" width="30.7" height="85.9" rx="2" fill="url(#barGrad)" /><rect x="551.1" y="199.8" width="30.7" height="80.2" rx="2" fill="url(#barGrad)" /><rect x="602.2" y="214.6" width="30.7" height="65.4" rx="2" fill="url(#barGrad)" /><rect x="653.3" y="173.7" width="30.7" height="106.3" rx="2" fill="url(#barGrad)" /><rect x="704.4" y="190.9" width="30.7" height="89.1" rx="2" fill="url(#barGrad)" /><rect x="755.6" y="176.4" width="30.7" height="103.6" rx="2" fill="url(#barGrad)" /><rect x="806.7" y="183.7" width="30.7" height="96.3" rx="2" fill="url(#barGrad)" /><rect x="857.8" y="150.4" width="30.7" height="129.6" rx="2" fill="url(#barGrad)" /><rect x="908.9" y="172.6" width="30.7" height="107.4" rx="2" fill="url(#barGrad)" />
  <polyline fill="none" stroke="#63b3ed" stroke-width="2" points="55.3,169.1 106.4,110.8 157.6,121.9 208.7,122.5 259.8,113.0 310.9,103.1 362.0,67.7 413.1,122.3 464.2,131.6 515.3,125.4 566.4,120.5 617.6,141.4 668.7,98.1 719.8,110.6 770.9,64.6 822.0,62.7 873.1,44.3 924.2,40.0"/>
  <circle cx="55.3" cy="40.0" r="2.5" fill="#f6ad55" /><circle cx="106.4" cy="86.6" r="2.5" fill="#f6ad55" /><circle cx="157.6" cy="78.3" r="2.5" fill="#f6ad55" /><circle cx="208.7" cy="81.9" r="2.5" fill="#f6ad55" /><circle cx="259.8" cy="94.8" r="2.5" fill="#f6ad55" /><circle cx="310.9" cy="68.0" r="2.5" fill="#f6ad55" /><circle cx="362.0" cy="99.2" r="2.5" fill="#f6ad55" /><circle cx="413.1" cy="97.0" r="2.5" fill="#f6ad55" /><circle cx="464.2" cy="92.0" r="2.5" fill="#f6ad55" /><circle cx="515.3" cy="87.4" r="2.5" fill="#f6ad55" /><circle cx="566.4" cy="71.3" r="2.5" fill="#f6ad55" /><circle cx="617.6" cy="84.0" r="2.5" fill="#f6ad55" /><circle cx="668.7" cy="82.4" r="2.5" fill="#f6ad55" /><circle cx="719.8" cy="85.0" r="2.5" fill="#f6ad55" /><circle cx="770.9" cy="104.1" r="2.5" fill="#f6ad55" /><circle cx="822.0" cy="90.9" r="2.5" fill="#f6ad55" /><circle cx="873.1" cy="63.4" r="2.5" fill="#f6ad55" /><circle cx="924.2" cy="82.0" r="2.5" fill="#f6ad55" />
  <text x="40" y="30" fill="#9aa6b2" font-size="12">Hourly rate: Molts (bars), Likes (line), Views (dots scaled)</text>
  <text x="40" y="310" fill="#9aa6b2" font-size="11">max rate ~907.34 / hour</text>
</svg>