<?xml version="1.0" encoding="UTF-8"?>
<svg xmlns="http://www.w3.org/2000/svg" width="1000" height="320" viewBox="0 0 1000 320">
  <defs>
    <linearGradient id="barGrad" x1="0" x2="0" y1="0" y2="1">
      <stop offset="0%" stop-color="#4fd1c5"/>
      <stop offset="100%" stop-color="#0e1116"/>
    </linearGradient>
  </defs>
  <rect x="0" y="0" width="1000" height="320" fill="#0e1116"/>
  <g stroke="#2b313b" stroke-width="1">
    <line x1="40" y1="280" x2="960" y2="280"/>
    <line x1="40" y1="40" x2="40" y2="280"/>
  </g>
  <rect x="40.0" y="229.1" width="34.5" height="50.9" rx="2" fill="url(#barGrad)" /><rect x="97.5" y="194.0" width="34.5" height="86.0" rx="2" fill="url(#barGrad)" /><rect x="155.0" y="209.0" width="34.5" height="71.0" rx="2" fill="url(#barGrad)" /><rect x="212.5" y="196.3" width="34.5" height="83.7" rx="2" fill="url(#barGrad)" /><rect x="270.0" y="199.2" width="34.5" height="80.8" rx="2" fill="url(#barGrad)" /><rect x="327.5" y="197.6" width="34.5" height="82.4" rx="2" fill="url(#barGrad)" /><rect x="385.0" y="167.8" width="34.5" height="112.2" rx="2" fill="url(#barGrad)" /><rect x="442.5" y="199.2" width="34.5" height="80.8" rx="2" fill="url(#barGrad)" /><rect x="500.0" y="189.6" width="34.5" height="90.4" rx="2" fill="url(#barGrad)" /><rect x="557.5" y="185.1" width="34.5" height="94.9" rx="2" fill="url(#barGrad)" /><rect x="615.0" y="191.5" width="34.5" height="88.5" rx="2" fill="url(#barGrad)" /><rect x="672.5" y="207.8" width="34.5" height="72.2" rx="2" fill="url(#barGrad)" /><rect x="730.0" y="162.6" width="34.5" height="117.4" rx="2" fill="url(#barGrad)" /><rect x="787.5" y="181.6" width="34.5" height="98.4" rx="2" fill="url(#barGrad)" /><rect x="845.0" y="165.6" width="34.5" height="114.4" rx="2" fill="url(#barGrad)" /><rect x="902.5" y="173.7" width="34.5" height="106.3" rx="2" fill="url(#barGrad)" />
  <polyline fill="none" stroke="#63b3ed" stroke-width="2" points="57.3,157.5 114.8,93.1 172.3,105.4 229.8,106.0 287.3,95.5 344.8,84.6 402.3,45.5 459.8,105.9 517.3,116.2 574.8,109.2 632.3,103.9 689.8,126.9 747.3,79.1 804.8,92.9 862.3,42.2 919.8,40.0"/>
  <circle cx="57.3" cy="40.0" r="2.5" fill="#f6ad55" /><circle cx="114.8" cy="86.6" r="2.5" fill="#f6ad55" /><circle cx="172.3" cy="78.3" r="2.5" fill="#f6ad55" /><circle cx="229.8" cy="81.9" r="2.5" fill="#f6ad55" /><circle cx="287.3" cy="94.8" r="2.5" fill="#f6ad55" /><circle cx="344.8" cy="68.0" r="2.5" fill="#f6ad55" /><circle cx="402.3" cy="99.2" r="2.5" fill="#f6ad55" /><circle cx="459.8" cy="97.0" r="2.5" fill="#f6ad55" /><circle cx="517.3" cy="92.0" r="2.5" fill="#f6ad55" /><circle cx="574.8" cy="87.4" r="2.5" fill="#f6ad55" /><circle cx="632.3" cy="71.3" r="2.5" fill="#f6ad55" /><circle cx="689.8" cy="84.0" r="2.5" fill="#f6ad55" /><circle cx="747.3" cy="82.4" r="2.5" fill="#f6ad55" /><circle cx="804.8" cy="85.0" r="2.5" fill="#f6ad55" /><circle cx="862.3" cy="104.1" r="2.5" fill="#f6ad55" /><circle cx="919.8" cy="90.9" r="2.5" fill="#f6ad55" />
  <text x="40" y="30" fill="#9aa6b2" font-size="12">Hourly rate: Molts (bars), Likes (line), Views (dots scaled)</text>
  <text x="40" y="310" fill="#9aa6b2" font-size="11">max rate ~821.69 / hour</text>
</svg>