<?xml version="1.0" encoding="UTF-8"?>
<svg xmlns="http://www.w3.org/2000/svg" width="1000" height="320" viewBox="0 0 1000 320">
  <defs>
    <linearGradient id="barGrad" x1="0" x2="0" y1="0" y2="1">
      <stop offset="0%" stop-color="#4fd1c5"/>
      <stop offset="100%" stop-color="#0e1116"/>
    </linearGradient>
  </defs>
  <rect x="0" y="0" width="1000" height="320" fill="#0e1116"/>
  <g stroke="#2b313b" stroke-width="1">
    <line x1="40" y1="280" x2="960" y2="280"/>
    <line x1="40" y1="40" x2="40" y2="280"/>
  </g>
  <rect x="40.0" y="224.9" width="34.5" height="55.1" rx="2" fill="url(#barGrad)" /><rect x="97.5" y="164.7" width="34.5" height="115.3" rx="2" fill="url(#barGrad)" /><rect x="155.0" y="174.8" width="34.5" height="105.2" rx="2" fill="url(#barGrad)" /><rect x="212.5" y="146.2" width="34.5" height="133.8" rx="2" fill="url(#barGrad)" /><rect x="270.0" y="166.8" width="34.5" height="113.2" rx="2" fill="url(#barGrad)" /><rect x="327.5" y="184.9" width="34.5" height="95.1" rx="2" fill="url(#barGrad)" /><rect x="385.0" y="170.5" width="34.5" height="109.5" rx="2" fill="url(#barGrad)" /><rect x="442.5" y="172.6" width="34.5" height="107.4" rx="2" fill="url(#barGrad)" /><rect x="500.0" y="150.6" width="34.5" height="129.4" rx="2" fill="url(#barGrad)" /><rect x="557.5" y="136.2" width="34.5" height="143.8" rx="2" fill="url(#barGrad)" /><rect x="615.0" y="105.7" width="34.5" height="174.3" rx="2" fill="url(#barGrad)" /><rect x="672.5" y="91.4" width="34.5" height="188.6" rx="2" fill="url(#barGrad)" /><rect x="730.0" y="145.1" width="34.5" height="134.9" rx="2" fill="url(#barGrad)" /><rect x="787.5" y="164.7" width="34.5" height="115.3" rx="2" fill="url(#barGrad)" /><rect x="845.0" y="158.4" width="34.5" height="121.6" rx="2" fill="url(#barGrad)" /><rect x="902.5" y="168.9" width="34.5" height="111.1" rx="2" fill="url(#barGrad)" />
  <polyline fill="none" stroke="#63b3ed" stroke-width="2" points="57.3,152.8 114.8,81.6 172.3,83.0 229.8,47.2 287.3,88.0 344.8,94.2 402.3,67.4 459.8,108.8 517.3,68.3 574.8,62.4 632.3,78.0 689.8,72.0 747.3,40.0 804.8,98.0 862.3,60.5 919.8,44.5"/>
  <circle cx="57.3" cy="40.0" r="2.5" fill="#f6ad55" /><circle cx="114.8" cy="161.6" r="2.5" fill="#f6ad55" /><circle cx="172.3" cy="145.5" r="2.5" fill="#f6ad55" /><circle cx="229.8" cy="146.2" r="2.5" fill="#f6ad55" /><circle cx="287.3" cy="141.6" r="2.5" fill="#f6ad55" /><circle cx="344.8" cy="148.6" r="2.5" fill="#f6ad55" /><circle cx="402.3" cy="160.2" r="2.5" fill="#f6ad55" /><circle cx="459.8" cy="157.9" r="2.5" fill="#f6ad55" /><circle cx="517.3" cy="155.3" r="2.5" fill="#f6ad55" /><circle cx="574.8" cy="129.4" r="2.5" fill="#f6ad55" /><circle cx="632.3" cy="126.4" r="2.5" fill="#f6ad55" /><circle cx="689.8" cy="117.0" r="2.5" fill="#f6ad55" /><circle cx="747.3" cy="130.2" r="2.5" fill="#f6ad55" /><circle cx="804.8" cy="156.1" r="2.5" fill="#f6ad55" /><circle cx="862.3" cy="160.1" r="2.5" fill="#f6ad55" /><circle cx="919.8" cy="151.8" r="2.5" fill="#f6ad55" />
  <text x="40" y="30" fill="#9aa6b2" font-size="12">Hourly rate: Molts (bars), Likes (line), Views (dots scaled)</text>
  <text x="40" y="310" fill="#9aa6b2" font-size="11">max rate ~729.33 / hour</text>
</svg>