<?xml version="1.0" encoding="UTF-8"?>
<svg xmlns="http://www.w3.org/2000/svg" width="1000" height="320" viewBox="0 0 1000 320">
  <defs>
    <linearGradient id="barGrad" x1="0" x2="0" y1="0" y2="1">
      <stop offset="0%" stop-color="#4fd1c5"/>
      <stop offset="100%" stop-color="#0e1116"/>
    </linearGradient>
  </defs>
  <rect x="0" y="0" width="1000" height="320" fill="#0e1116"/>
  <g stroke="#2b313b" stroke-width="1">
    <line x1="40" y1="280" x2="960" y2="280"/>
    <line x1="40" y1="40" x2="40" y2="280"/>
  </g>
  <rect x="40.0" y="40.0" width="26.3" height="240.0" rx="2" fill="url(#barGrad)" /><rect x="83.8" y="130.6" width="26.3" height="149.4" rx="2" fill="url(#barGrad)" /><rect x="127.6" y="264.2" width="26.3" height="15.8" rx="2" fill="url(#barGrad)" /><rect x="171.4" y="263.6" width="26.3" height="16.4" rx="2" fill="url(#barGrad)" /><rect x="215.2" y="259.3" width="26.3" height="20.7" rx="2" fill="url(#barGrad)" /><rect x="259.0" y="256.8" width="26.3" height="23.2" rx="2" fill="url(#barGrad)" /><rect x="302.9" y="263.6" width="26.3" height="16.4" rx="2" fill="url(#barGrad)" /><rect x="346.7" y="258.7" width="26.3" height="21.3" rx="2" fill="url(#barGrad)" /><rect x="390.5" y="262.3" width="26.3" height="17.7" rx="2" fill="url(#barGrad)" /><rect x="434.3" y="258.4" width="26.3" height="21.6" rx="2" fill="url(#barGrad)" /><rect x="478.1" y="258.7" width="26.3" height="21.3" rx="2" fill="url(#barGrad)" /><rect x="521.9" y="233.1" width="26.3" height="46.9" rx="2" fill="url(#barGrad)" /><rect x="565.7" y="178.1" width="26.3" height="101.9" rx="2" fill="url(#barGrad)" /><rect x="609.5" y="236.0" width="26.3" height="44.0" rx="2" fill="url(#barGrad)" /><rect x="653.3" y="590.6" width="26.3" height="-310.6" rx="2" fill="url(#barGrad)" /><rect x="697.1" y="262.8" width="26.3" height="17.2" rx="2" fill="url(#barGrad)" /><rect x="741.0" y="260.5" width="26.3" height="19.5" rx="2" fill="url(#barGrad)" /><rect x="784.8" y="262.2" width="26.3" height="17.8" rx="2" fill="url(#barGrad)" /><rect x="828.6" y="246.0" width="26.3" height="34.0" rx="2" fill="url(#barGrad)" /><rect x="872.4" y="265.2" width="26.3" height="14.8" rx="2" fill="url(#barGrad)" /><rect x="916.2" y="257.4" width="26.3" height="22.6" rx="2" fill="url(#barGrad)" />
  <polyline fill="none" stroke="#63b3ed" stroke-width="2" points="53.1,239.6 97.0,244.1 140.8,242.8 184.6,249.5 228.4,241.8 272.2,249.3 316.0,245.9 359.8,253.0 403.6,256.6 447.4,247.6 491.2,246.5 535.0,243.3 578.9,239.7 622.7,222.8 666.5,252.3 710.3,249.6 754.1,244.0 797.9,242.5 841.7,232.6 885.5,240.9 929.3,228.8"/>
  <circle cx="53.1" cy="85.7" r="2.5" fill="#f6ad55" /><circle cx="97.0" cy="71.1" r="2.5" fill="#f6ad55" /><circle cx="140.8" cy="82.2" r="2.5" fill="#f6ad55" /><circle cx="184.6" cy="76.6" r="2.5" fill="#f6ad55" /><circle cx="228.4" cy="74.1" r="2.5" fill="#f6ad55" /><circle cx="272.2" cy="69.6" r="2.5" fill="#f6ad55" /><circle cx="316.0" cy="83.8" r="2.5" fill="#f6ad55" /><circle cx="359.8" cy="98.6" r="2.5" fill="#f6ad55" /><circle cx="403.6" cy="92.6" r="2.5" fill="#f6ad55" /><circle cx="447.4" cy="113.8" r="2.5" fill="#f6ad55" /><circle cx="491.2" cy="99.9" r="2.5" fill="#f6ad55" /><circle cx="535.0" cy="104.8" r="2.5" fill="#f6ad55" /><circle cx="578.9" cy="81.3" r="2.5" fill="#f6ad55" /><circle cx="622.7" cy="113.3" r="2.5" fill="#f6ad55" /><circle cx="666.5" cy="111.1" r="2.5" fill="#f6ad55" /><circle cx="710.3" cy="94.7" r="2.5" fill="#f6ad55" /><circle cx="754.1" cy="77.1" r="2.5" fill="#f6ad55" /><circle cx="797.9" cy="68.5" r="2.5" fill="#f6ad55" /><circle cx="841.7" cy="58.8" r="2.5" fill="#f6ad55" /><circle cx="885.5" cy="61.5" r="2.5" fill="#f6ad55" /><circle cx="929.3" cy="40.0" r="2.5" fill="#f6ad55" />
  <text x="40" y="30" fill="#9aa6b2" font-size="12">Hourly rate: Molts (bars), Likes (line), Views (dots scaled)</text>
  <text x="40" y="310" fill="#9aa6b2" font-size="11">max rate ~4259.25 / hour</text>
</svg>