<?xml version="1.0" encoding="UTF-8"?>
<svg xmlns="http://www.w3.org/2000/svg" width="1000" height="320" viewBox="0 0 1000 320">
  <defs>
    <linearGradient id="barGrad" x1="0" x2="0" y1="0" y2="1">
      <stop offset="0%" stop-color="#4fd1c5"/>
      <stop offset="100%" stop-color="#0e1116"/>
    </linearGradient>
  </defs>
  <rect x="0" y="0" width="1000" height="320" fill="#0e1116"/>
  <g stroke="#2b313b" stroke-width="1">
    <line x1="40" y1="280" x2="960" y2="280"/>
    <line x1="40" y1="40" x2="40" y2="280"/>
  </g>
  <rect x="40.0" y="232.3" width="42.5" height="47.7" rx="2" fill="url(#barGrad)" /><rect x="110.8" y="158.4" width="42.5" height="121.6" rx="2" fill="url(#barGrad)" /><rect x="181.5" y="125.6" width="42.5" height="154.4" rx="2" fill="url(#barGrad)" /><rect x="252.3" y="172.9" width="42.5" height="107.1" rx="2" fill="url(#barGrad)" /><rect x="323.1" y="190.6" width="42.5" height="89.4" rx="2" fill="url(#barGrad)" /><rect x="393.8" y="48.2" width="42.5" height="231.8" rx="2" fill="url(#barGrad)" /><rect x="464.6" y="159.4" width="42.5" height="120.6" rx="2" fill="url(#barGrad)" /><rect x="535.4" y="137.2" width="42.5" height="142.8" rx="2" fill="url(#barGrad)" /><rect x="606.2" y="192.9" width="42.5" height="87.1" rx="2" fill="url(#barGrad)" /><rect x="676.9" y="169.0" width="42.5" height="111.0" rx="2" fill="url(#barGrad)" /><rect x="747.7" y="102.9" width="42.5" height="177.1" rx="2" fill="url(#barGrad)" /><rect x="818.5" y="77.6" width="42.5" height="202.4" rx="2" fill="url(#barGrad)" /><rect x="889.2" y="43.3" width="42.5" height="236.7" rx="2" fill="url(#barGrad)" />
  <polyline fill="none" stroke="#63b3ed" stroke-width="2" points="61.2,162.1 132.0,116.3 202.8,114.9 273.5,68.3 344.3,123.8 415.1,107.6 485.8,127.5 556.6,40.0 627.4,137.8 698.2,127.7 768.9,100.4 839.7,105.0 910.5,118.6"/>
  <circle cx="61.2" cy="94.0" r="2.5" fill="#f6ad55" /><circle cx="132.0" cy="109.8" r="2.5" fill="#f6ad55" /><circle cx="202.8" cy="69.0" r="2.5" fill="#f6ad55" /><circle cx="273.5" cy="44.9" r="2.5" fill="#f6ad55" /><circle cx="344.3" cy="40.0" r="2.5" fill="#f6ad55" /><circle cx="415.1" cy="48.2" r="2.5" fill="#f6ad55" /><circle cx="485.8" cy="46.9" r="2.5" fill="#f6ad55" /><circle cx="556.6" cy="47.5" r="2.5" fill="#f6ad55" /><circle cx="627.4" cy="43.4" r="2.5" fill="#f6ad55" /><circle cx="698.2" cy="52.4" r="2.5" fill="#f6ad55" /><circle cx="768.9" cy="52.1" r="2.5" fill="#f6ad55" /><circle cx="839.7" cy="60.0" r="2.5" fill="#f6ad55" /><circle cx="910.5" cy="50.5" r="2.5" fill="#f6ad55" />
  <text x="40" y="30" fill="#9aa6b2" font-size="12">Hourly rate: Molts (bars), Likes (line), Views (dots scaled)</text>
  <text x="40" y="310" fill="#9aa6b2" font-size="11">max rate ~683.13 / hour</text>
</svg>