<?xml version="1.0" encoding="UTF-8"?>
<svg xmlns="http://www.w3.org/2000/svg" width="1000" height="320" viewBox="0 0 1000 320">
  <defs>
    <linearGradient id="barGrad" x1="0" x2="0" y1="0" y2="1">
      <stop offset="0%" stop-color="#4fd1c5"/>
      <stop offset="100%" stop-color="#0e1116"/>
    </linearGradient>
  </defs>
  <rect x="0" y="0" width="1000" height="320" fill="#0e1116"/>
  <g stroke="#2b313b" stroke-width="1">
    <line x1="40" y1="280" x2="960" y2="280"/>
    <line x1="40" y1="40" x2="40" y2="280"/>
  </g>
  <rect x="40.0" y="218.3" width="26.3" height="61.7" rx="2" fill="url(#barGrad)" /><rect x="83.8" y="165.2" width="26.3" height="114.8" rx="2" fill="url(#barGrad)" /><rect x="127.6" y="194.0" width="26.3" height="86.0" rx="2" fill="url(#barGrad)" /><rect x="171.4" y="185.6" width="26.3" height="94.4" rx="2" fill="url(#barGrad)" /><rect x="215.2" y="159.0" width="26.3" height="121.0" rx="2" fill="url(#barGrad)" /><rect x="259.0" y="119.8" width="26.3" height="160.2" rx="2" fill="url(#barGrad)" /><rect x="302.9" y="149.0" width="26.3" height="131.0" rx="2" fill="url(#barGrad)" /><rect x="346.7" y="174.9" width="26.3" height="105.1" rx="2" fill="url(#barGrad)" /><rect x="390.5" y="175.1" width="26.3" height="104.9" rx="2" fill="url(#barGrad)" /><rect x="434.3" y="161.6" width="26.3" height="118.4" rx="2" fill="url(#barGrad)" /><rect x="478.1" y="142.9" width="26.3" height="137.1" rx="2" fill="url(#barGrad)" /><rect x="521.9" y="163.9" width="26.3" height="116.1" rx="2" fill="url(#barGrad)" /><rect x="565.7" y="166.0" width="26.3" height="114.0" rx="2" fill="url(#barGrad)" /><rect x="609.5" y="169.6" width="26.3" height="110.4" rx="2" fill="url(#barGrad)" /><rect x="653.3" y="150.5" width="26.3" height="129.5" rx="2" fill="url(#barGrad)" /><rect x="697.1" y="160.6" width="26.3" height="119.4" rx="2" fill="url(#barGrad)" /><rect x="741.0" y="170.5" width="26.3" height="109.5" rx="2" fill="url(#barGrad)" /><rect x="784.8" y="172.5" width="26.3" height="107.5" rx="2" fill="url(#barGrad)" /><rect x="828.6" y="155.8" width="26.3" height="124.2" rx="2" fill="url(#barGrad)" /><rect x="872.4" y="135.9" width="26.3" height="144.1" rx="2" fill="url(#barGrad)" /><rect x="916.2" y="159.2" width="26.3" height="120.8" rx="2" fill="url(#barGrad)" />
  <polyline fill="none" stroke="#63b3ed" stroke-width="2" points="53.1,134.4 97.0,48.0 140.8,75.8 184.6,85.7 228.4,95.9 272.2,74.2 316.0,99.2 359.8,84.4 403.6,84.2 447.4,128.3 491.2,116.3 535.0,81.8 578.9,117.0 622.7,111.8 666.5,96.1 710.3,99.0 754.1,75.3 797.9,76.3 841.7,58.6 885.5,40.0 929.3,88.1"/>
  <circle cx="53.1" cy="69.9" r="2.5" fill="#f6ad55" /><circle cx="97.0" cy="85.0" r="2.5" fill="#f6ad55" /><circle cx="140.8" cy="83.1" r="2.5" fill="#f6ad55" /><circle cx="184.6" cy="70.1" r="2.5" fill="#f6ad55" /><circle cx="228.4" cy="52.2" r="2.5" fill="#f6ad55" /><circle cx="272.2" cy="44.4" r="2.5" fill="#f6ad55" /><circle cx="316.0" cy="54.8" r="2.5" fill="#f6ad55" /><circle cx="359.8" cy="78.2" r="2.5" fill="#f6ad55" /><circle cx="403.6" cy="72.1" r="2.5" fill="#f6ad55" /><circle cx="447.4" cy="70.0" r="2.5" fill="#f6ad55" /><circle cx="491.2" cy="62.4" r="2.5" fill="#f6ad55" /><circle cx="535.0" cy="66.5" r="2.5" fill="#f6ad55" /><circle cx="578.9" cy="49.8" r="2.5" fill="#f6ad55" /><circle cx="622.7" cy="40.0" r="2.5" fill="#f6ad55" /><circle cx="666.5" cy="62.0" r="2.5" fill="#f6ad55" /><circle cx="710.3" cy="70.6" r="2.5" fill="#f6ad55" /><circle cx="754.1" cy="73.0" r="2.5" fill="#f6ad55" /><circle cx="797.9" cy="80.9" r="2.5" fill="#f6ad55" /><circle cx="841.7" cy="85.3" r="2.5" fill="#f6ad55" /><circle cx="885.5" cy="65.1" r="2.5" fill="#f6ad55" /><circle cx="929.3" cy="60.1" r="2.5" fill="#f6ad55" />
  <text x="40" y="30" fill="#9aa6b2" font-size="12">Hourly rate: Molts (bars), Likes (line), Views (dots scaled)</text>
  <text x="40" y="310" fill="#9aa6b2" font-size="11">max rate ~694.70 / hour</text>
</svg>