<?xml version="1.0" encoding="UTF-8"?>
<svg xmlns="http://www.w3.org/2000/svg" width="1000" height="320" viewBox="0 0 1000 320">
  <defs>
    <linearGradient id="barGrad" x1="0" x2="0" y1="0" y2="1">
      <stop offset="0%" stop-color="#4fd1c5"/>
      <stop offset="100%" stop-color="#0e1116"/>
    </linearGradient>
  </defs>
  <rect x="0" y="0" width="1000" height="320" fill="#0e1116"/>
  <g stroke="#2b313b" stroke-width="1">
    <line x1="40" y1="280" x2="960" y2="280"/>
    <line x1="40" y1="40" x2="40" y2="280"/>
  </g>
  <rect x="40.0" y="216.2" width="36.8" height="63.8" rx="2" fill="url(#barGrad)" /><rect x="101.3" y="161.3" width="36.8" height="118.7" rx="2" fill="url(#barGrad)" /><rect x="162.7" y="191.1" width="36.8" height="88.9" rx="2" fill="url(#barGrad)" /><rect x="224.0" y="182.4" width="36.8" height="97.6" rx="2" fill="url(#barGrad)" /><rect x="285.3" y="154.9" width="36.8" height="125.1" rx="2" fill="url(#barGrad)" /><rect x="346.7" y="114.3" width="36.8" height="165.7" rx="2" fill="url(#barGrad)" /><rect x="408.0" y="144.5" width="36.8" height="135.5" rx="2" fill="url(#barGrad)" /><rect x="469.3" y="171.3" width="36.8" height="108.7" rx="2" fill="url(#barGrad)" /><rect x="530.7" y="171.5" width="36.8" height="108.5" rx="2" fill="url(#barGrad)" /><rect x="592.0" y="157.5" width="36.8" height="122.5" rx="2" fill="url(#barGrad)" /><rect x="653.3" y="138.2" width="36.8" height="141.8" rx="2" fill="url(#barGrad)" /><rect x="714.7" y="159.9" width="36.8" height="120.1" rx="2" fill="url(#barGrad)" /><rect x="776.0" y="162.1" width="36.8" height="117.9" rx="2" fill="url(#barGrad)" /><rect x="837.3" y="165.9" width="36.8" height="114.1" rx="2" fill="url(#barGrad)" /><rect x="898.7" y="146.0" width="36.8" height="134.0" rx="2" fill="url(#barGrad)" />
  <polyline fill="none" stroke="#63b3ed" stroke-width="2" points="58.4,129.4 119.7,40.0 181.1,68.7 242.4,79.1 303.7,89.6 365.1,67.1 426.4,93.0 487.7,77.7 549.1,77.5 610.4,123.0 671.7,110.7 733.1,75.0 794.4,111.4 855.7,106.1 917.1,89.7"/>
  <circle cx="58.4" cy="69.9" r="2.5" fill="#f6ad55" /><circle cx="119.7" cy="85.0" r="2.5" fill="#f6ad55" /><circle cx="181.1" cy="83.1" r="2.5" fill="#f6ad55" /><circle cx="242.4" cy="70.1" r="2.5" fill="#f6ad55" /><circle cx="303.7" cy="52.2" r="2.5" fill="#f6ad55" /><circle cx="365.1" cy="44.4" r="2.5" fill="#f6ad55" /><circle cx="426.4" cy="54.8" r="2.5" fill="#f6ad55" /><circle cx="487.7" cy="78.2" r="2.5" fill="#f6ad55" /><circle cx="549.1" cy="72.1" r="2.5" fill="#f6ad55" /><circle cx="610.4" cy="70.0" r="2.5" fill="#f6ad55" /><circle cx="671.7" cy="62.4" r="2.5" fill="#f6ad55" /><circle cx="733.1" cy="66.5" r="2.5" fill="#f6ad55" /><circle cx="794.4" cy="49.8" r="2.5" fill="#f6ad55" /><circle cx="855.7" cy="40.0" r="2.5" fill="#f6ad55" /><circle cx="917.1" cy="62.0" r="2.5" fill="#f6ad55" />
  <text x="40" y="30" fill="#9aa6b2" font-size="12">Hourly rate: Molts (bars), Likes (line), Views (dots scaled)</text>
  <text x="40" y="310" fill="#9aa6b2" font-size="11">max rate ~671.63 / hour</text>
</svg>