<?xml version="1.0" encoding="UTF-8"?>
<svg xmlns="http://www.w3.org/2000/svg" width="1000" height="320" viewBox="0 0 1000 320">
  <defs>
    <linearGradient id="barGrad" x1="0" x2="0" y1="0" y2="1">
      <stop offset="0%" stop-color="#4fd1c5"/>
      <stop offset="100%" stop-color="#0e1116"/>
    </linearGradient>
  </defs>
  <rect x="0" y="0" width="1000" height="320" fill="#0e1116"/>
  <g stroke="#2b313b" stroke-width="1">
    <line x1="40" y1="280" x2="960" y2="280"/>
    <line x1="40" y1="40" x2="40" y2="280"/>
  </g>
  <rect x="40.0" y="264.5" width="27.6" height="15.5" rx="2" fill="url(#barGrad)" /><rect x="86.0" y="220.7" width="27.6" height="59.3" rx="2" fill="url(#barGrad)" /><rect x="132.0" y="231.9" width="27.6" height="48.1" rx="2" fill="url(#barGrad)" /><rect x="178.0" y="233.5" width="27.6" height="46.5" rx="2" fill="url(#barGrad)" /><rect x="224.0" y="207.5" width="27.6" height="72.5" rx="2" fill="url(#barGrad)" /><rect x="270.0" y="208.8" width="27.6" height="71.2" rx="2" fill="url(#barGrad)" /><rect x="316.0" y="213.4" width="27.6" height="66.6" rx="2" fill="url(#barGrad)" /><rect x="362.0" y="174.0" width="27.6" height="106.0" rx="2" fill="url(#barGrad)" /><rect x="408.0" y="230.4" width="27.6" height="49.6" rx="2" fill="url(#barGrad)" /><rect x="454.0" y="198.0" width="27.6" height="82.0" rx="2" fill="url(#barGrad)" /><rect x="500.0" y="201.8" width="27.6" height="78.2" rx="2" fill="url(#barGrad)" /><rect x="546.0" y="216.3" width="27.6" height="63.7" rx="2" fill="url(#barGrad)" /><rect x="592.0" y="184.6" width="27.6" height="95.4" rx="2" fill="url(#barGrad)" /><rect x="638.0" y="200.4" width="27.6" height="79.6" rx="2" fill="url(#barGrad)" /><rect x="684.0" y="202.7" width="27.6" height="77.3" rx="2" fill="url(#barGrad)" /><rect x="730.0" y="204.2" width="27.6" height="75.8" rx="2" fill="url(#barGrad)" /><rect x="776.0" y="210.9" width="27.6" height="69.1" rx="2" fill="url(#barGrad)" /><rect x="822.0" y="203.7" width="27.6" height="76.3" rx="2" fill="url(#barGrad)" /><rect x="868.0" y="194.6" width="27.6" height="85.4" rx="2" fill="url(#barGrad)" /><rect x="914.0" y="206.7" width="27.6" height="73.3" rx="2" fill="url(#barGrad)" />
  <polyline fill="none" stroke="#63b3ed" stroke-width="2" points="53.8,235.0 99.8,140.1 145.8,173.8 191.8,183.0 237.8,137.6 283.8,154.7 329.8,166.8 375.8,40.0 421.8,187.6 467.8,140.9 513.8,137.7 559.8,175.7 605.8,171.1 651.8,159.9 697.8,180.6 743.8,175.4 789.8,155.7 835.8,185.6 881.8,174.6 927.8,164.3"/>
  <circle cx="53.8" cy="40.0" r="2.5" fill="#f6ad55" /><circle cx="99.8" cy="146.0" r="2.5" fill="#f6ad55" /><circle cx="145.8" cy="152.3" r="2.5" fill="#f6ad55" /><circle cx="191.8" cy="149.4" r="2.5" fill="#f6ad55" /><circle cx="237.8" cy="145.5" r="2.5" fill="#f6ad55" /><circle cx="283.8" cy="139.4" r="2.5" fill="#f6ad55" /><circle cx="329.8" cy="142.2" r="2.5" fill="#f6ad55" /><circle cx="375.8" cy="140.4" r="2.5" fill="#f6ad55" /><circle cx="421.8" cy="139.0" r="2.5" fill="#f6ad55" /><circle cx="467.8" cy="158.4" r="2.5" fill="#f6ad55" /><circle cx="513.8" cy="153.8" r="2.5" fill="#f6ad55" /><circle cx="559.8" cy="147.6" r="2.5" fill="#f6ad55" /><circle cx="605.8" cy="164.1" r="2.5" fill="#f6ad55" /><circle cx="651.8" cy="166.0" r="2.5" fill="#f6ad55" /><circle cx="697.8" cy="144.8" r="2.5" fill="#f6ad55" /><circle cx="743.8" cy="171.0" r="2.5" fill="#f6ad55" /><circle cx="789.8" cy="170.4" r="2.5" fill="#f6ad55" /><circle cx="835.8" cy="171.2" r="2.5" fill="#f6ad55" /><circle cx="881.8" cy="181.2" r="2.5" fill="#f6ad55" /><circle cx="927.8" cy="178.6" r="2.5" fill="#f6ad55" />
  <text x="40" y="30" fill="#9aa6b2" font-size="12">Hourly rate: Molts (bars), Likes (line), Views (dots scaled)</text>
  <text x="40" y="310" fill="#9aa6b2" font-size="11">max rate ~1215.79 / hour</text>
</svg>