<?xml version="1.0" encoding="UTF-8"?>
<svg xmlns="http://www.w3.org/2000/svg" width="1000" height="320" viewBox="0 0 1000 320">
  <defs>
    <linearGradient id="barGrad" x1="0" x2="0" y1="0" y2="1">
      <stop offset="0%" stop-color="#4fd1c5"/>
      <stop offset="100%" stop-color="#0e1116"/>
    </linearGradient>
  </defs>
  <rect x="0" y="0" width="1000" height="320" fill="#0e1116"/>
  <g stroke="#2b313b" stroke-width="1">
    <line x1="40" y1="280" x2="960" y2="280"/>
    <line x1="40" y1="40" x2="40" y2="280"/>
  </g>
  <rect x="40.0" y="237.1" width="32.5" height="42.9" rx="2" fill="url(#barGrad)" /><rect x="94.1" y="183.9" width="32.5" height="96.1" rx="2" fill="url(#barGrad)" /><rect x="148.2" y="167.4" width="32.5" height="112.6" rx="2" fill="url(#barGrad)" /><rect x="202.4" y="151.9" width="32.5" height="128.1" rx="2" fill="url(#barGrad)" /><rect x="256.5" y="135.5" width="32.5" height="144.5" rx="2" fill="url(#barGrad)" /><rect x="310.6" y="200.1" width="32.5" height="79.9" rx="2" fill="url(#barGrad)" /><rect x="364.7" y="212.0" width="32.5" height="68.0" rx="2" fill="url(#barGrad)" /><rect x="418.8" y="202.3" width="32.5" height="77.7" rx="2" fill="url(#barGrad)" /><rect x="472.9" y="205.0" width="32.5" height="75.0" rx="2" fill="url(#barGrad)" /><rect x="527.1" y="195.7" width="32.5" height="84.3" rx="2" fill="url(#barGrad)" /><rect x="581.2" y="181.9" width="32.5" height="98.1" rx="2" fill="url(#barGrad)" /><rect x="635.3" y="208.6" width="32.5" height="71.4" rx="2" fill="url(#barGrad)" /><rect x="689.4" y="196.9" width="32.5" height="83.1" rx="2" fill="url(#barGrad)" /><rect x="743.5" y="198.5" width="32.5" height="81.5" rx="2" fill="url(#barGrad)" /><rect x="797.6" y="215.2" width="32.5" height="64.8" rx="2" fill="url(#barGrad)" /><rect x="851.8" y="217.0" width="32.5" height="63.0" rx="2" fill="url(#barGrad)" /><rect x="905.9" y="209.4" width="32.5" height="70.6" rx="2" fill="url(#barGrad)" />
  <polyline fill="none" stroke="#63b3ed" stroke-width="2" points="56.2,167.8 110.4,44.0 164.5,40.0 218.6,104.6 272.7,95.7 326.8,83.5 380.9,116.1 435.1,103.8 489.2,113.8 543.3,90.7 597.4,79.4 651.5,99.9 705.6,81.1 759.8,89.1 813.9,98.7 868.0,111.8 922.1,113.8"/>
  <circle cx="56.2" cy="74.1" r="2.5" fill="#f6ad55" /><circle cx="110.4" cy="56.1" r="2.5" fill="#f6ad55" /><circle cx="164.5" cy="59.8" r="2.5" fill="#f6ad55" /><circle cx="218.6" cy="68.5" r="2.5" fill="#f6ad55" /><circle cx="272.7" cy="72.9" r="2.5" fill="#f6ad55" /><circle cx="326.8" cy="62.1" r="2.5" fill="#f6ad55" /><circle cx="380.9" cy="76.4" r="2.5" fill="#f6ad55" /><circle cx="435.1" cy="51.8" r="2.5" fill="#f6ad55" /><circle cx="489.2" cy="40.0" r="2.5" fill="#f6ad55" /><circle cx="543.3" cy="67.3" r="2.5" fill="#f6ad55" /><circle cx="597.4" cy="46.1" r="2.5" fill="#f6ad55" /><circle cx="651.5" cy="62.6" r="2.5" fill="#f6ad55" /><circle cx="705.6" cy="56.8" r="2.5" fill="#f6ad55" /><circle cx="759.8" cy="70.1" r="2.5" fill="#f6ad55" /><circle cx="813.9" cy="78.3" r="2.5" fill="#f6ad55" /><circle cx="868.0" cy="76.6" r="2.5" fill="#f6ad55" /><circle cx="922.1" cy="83.1" r="2.5" fill="#f6ad55" />
  <text x="40" y="30" fill="#9aa6b2" font-size="12">Hourly rate: Molts (bars), Likes (line), Views (dots scaled)</text>
  <text x="40" y="310" fill="#9aa6b2" font-size="11">max rate ~761.42 / hour</text>
</svg>