<?xml version="1.0" encoding="UTF-8"?>
<svg xmlns="http://www.w3.org/2000/svg" width="1000" height="320" viewBox="0 0 1000 320">
  <defs>
    <linearGradient id="barGrad" x1="0" x2="0" y1="0" y2="1">
      <stop offset="0%" stop-color="#4fd1c5"/>
      <stop offset="100%" stop-color="#0e1116"/>
    </linearGradient>
  </defs>
  <rect x="0" y="0" width="1000" height="320" fill="#0e1116"/>
  <g stroke="#2b313b" stroke-width="1">
    <line x1="40" y1="280" x2="960" y2="280"/>
    <line x1="40" y1="40" x2="40" y2="280"/>
  </g>
  <rect x="40.0" y="161.1" width="55.2" height="118.9" rx="2" fill="url(#barGrad)" /><rect x="132.0" y="120.0" width="55.2" height="160.0" rx="2" fill="url(#barGrad)" /><rect x="224.0" y="112.9" width="55.2" height="167.1" rx="2" fill="url(#barGrad)" /><rect x="316.0" y="125.3" width="55.2" height="154.7" rx="2" fill="url(#barGrad)" /><rect x="408.0" y="113.9" width="55.2" height="166.1" rx="2" fill="url(#barGrad)" /><rect x="500.0" y="122.8" width="55.2" height="157.2" rx="2" fill="url(#barGrad)" /><rect x="592.0" y="117.5" width="55.2" height="162.5" rx="2" fill="url(#barGrad)" /><rect x="684.0" y="97.9" width="55.2" height="182.1" rx="2" fill="url(#barGrad)" /><rect x="776.0" y="140.7" width="55.2" height="139.3" rx="2" fill="url(#barGrad)" /><rect x="868.0" y="113.1" width="55.2" height="166.9" rx="2" fill="url(#barGrad)" />
  <polyline fill="none" stroke="#63b3ed" stroke-width="2" points="67.6,127.6 159.6,80.7 251.6,85.0 343.6,98.2 435.6,88.1 527.6,81.9 619.6,40.0 711.6,55.8 803.6,112.1 895.6,93.5"/>
  <circle cx="67.6" cy="100.8" r="2.5" fill="#f6ad55" /><circle cx="159.6" cy="64.8" r="2.5" fill="#f6ad55" /><circle cx="251.6" cy="52.4" r="2.5" fill="#f6ad55" /><circle cx="343.6" cy="40.0" r="2.5" fill="#f6ad55" /><circle cx="435.6" cy="45.2" r="2.5" fill="#f6ad55" /><circle cx="527.6" cy="83.8" r="2.5" fill="#f6ad55" /><circle cx="619.6" cy="57.7" r="2.5" fill="#f6ad55" /><circle cx="711.6" cy="87.9" r="2.5" fill="#f6ad55" /><circle cx="803.6" cy="83.5" r="2.5" fill="#f6ad55" /><circle cx="895.6" cy="90.8" r="2.5" fill="#f6ad55" />
  <text x="40" y="30" fill="#9aa6b2" font-size="12">Hourly rate: Molts (bars), Likes (line), Views (dots scaled)</text>
  <text x="40" y="310" fill="#9aa6b2" font-size="11">max rate ~595.01 / hour</text>
</svg>