<?xml version="1.0" encoding="UTF-8"?>
<svg xmlns="http://www.w3.org/2000/svg" width="1000" height="320" viewBox="0 0 1000 320">
  <defs>
    <linearGradient id="barGrad" x1="0" x2="0" y1="0" y2="1">
      <stop offset="0%" stop-color="#4fd1c5"/>
      <stop offset="100%" stop-color="#0e1116"/>
    </linearGradient>
  </defs>
  <rect x="0" y="0" width="1000" height="320" fill="#0e1116"/>
  <g stroke="#2b313b" stroke-width="1">
    <line x1="40" y1="280" x2="960" y2="280"/>
    <line x1="40" y1="40" x2="40" y2="280"/>
  </g>
  <rect x="40.0" y="225.4" width="23.0" height="54.6" rx="2" fill="url(#barGrad)" /><rect x="78.3" y="165.8" width="23.0" height="114.2" rx="2" fill="url(#barGrad)" /><rect x="116.7" y="175.7" width="23.0" height="104.3" rx="2" fill="url(#barGrad)" /><rect x="155.0" y="147.4" width="23.0" height="132.6" rx="2" fill="url(#barGrad)" /><rect x="193.3" y="167.8" width="23.0" height="112.2" rx="2" fill="url(#barGrad)" /><rect x="231.7" y="185.8" width="23.0" height="94.2" rx="2" fill="url(#barGrad)" /><rect x="270.0" y="171.5" width="23.0" height="108.5" rx="2" fill="url(#barGrad)" /><rect x="308.3" y="173.6" width="23.0" height="106.4" rx="2" fill="url(#barGrad)" /><rect x="346.7" y="151.8" width="23.0" height="128.2" rx="2" fill="url(#barGrad)" /><rect x="385.0" y="137.5" width="23.0" height="142.5" rx="2" fill="url(#barGrad)" /><rect x="423.3" y="107.3" width="23.0" height="172.7" rx="2" fill="url(#barGrad)" /><rect x="461.7" y="93.2" width="23.0" height="186.8" rx="2" fill="url(#barGrad)" /><rect x="500.0" y="146.4" width="23.0" height="133.6" rx="2" fill="url(#barGrad)" /><rect x="538.3" y="165.7" width="23.0" height="114.3" rx="2" fill="url(#barGrad)" /><rect x="576.7" y="159.5" width="23.0" height="120.5" rx="2" fill="url(#barGrad)" /><rect x="615.0" y="170.0" width="23.0" height="110.0" rx="2" fill="url(#barGrad)" /><rect x="653.3" y="181.1" width="23.0" height="98.9" rx="2" fill="url(#barGrad)" /><rect x="691.7" y="201.8" width="23.0" height="78.2" rx="2" fill="url(#barGrad)" /><rect x="730.0" y="200.0" width="23.0" height="80.0" rx="2" fill="url(#barGrad)" /><rect x="768.3" y="195.7" width="23.0" height="84.3" rx="2" fill="url(#barGrad)" /><rect x="806.7" y="208.1" width="23.0" height="71.9" rx="2" fill="url(#barGrad)" /><rect x="845.0" y="213.4" width="23.0" height="66.6" rx="2" fill="url(#barGrad)" /><rect x="883.3" y="208.4" width="23.0" height="71.6" rx="2" fill="url(#barGrad)" /><rect x="921.7" y="191.7" width="23.0" height="88.3" rx="2" fill="url(#barGrad)" />
  <polyline fill="none" stroke="#63b3ed" stroke-width="2" points="51.5,154.0 89.8,83.4 128.2,84.8 166.5,49.3 204.8,89.7 243.2,95.9 281.5,69.3 319.8,110.4 358.2,70.3 396.5,64.4 434.8,79.9 473.2,73.9 511.5,42.2 549.8,99.7 588.2,62.5 626.5,46.7 664.8,97.0 703.2,94.8 741.5,54.6 779.8,69.2 818.2,79.0 856.5,88.7 894.8,76.8 933.2,40.0"/>
  <circle cx="51.5" cy="40.0" r="2.5" fill="#f6ad55" /><circle cx="89.8" cy="161.6" r="2.5" fill="#f6ad55" /><circle cx="128.2" cy="145.5" r="2.5" fill="#f6ad55" /><circle cx="166.5" cy="146.2" r="2.5" fill="#f6ad55" /><circle cx="204.8" cy="141.6" r="2.5" fill="#f6ad55" /><circle cx="243.2" cy="148.6" r="2.5" fill="#f6ad55" /><circle cx="281.5" cy="160.2" r="2.5" fill="#f6ad55" /><circle cx="319.8" cy="157.9" r="2.5" fill="#f6ad55" /><circle cx="358.2" cy="155.3" r="2.5" fill="#f6ad55" /><circle cx="396.5" cy="129.4" r="2.5" fill="#f6ad55" /><circle cx="434.8" cy="126.4" r="2.5" fill="#f6ad55" /><circle cx="473.2" cy="117.0" r="2.5" fill="#f6ad55" /><circle cx="511.5" cy="130.2" r="2.5" fill="#f6ad55" /><circle cx="549.8" cy="156.1" r="2.5" fill="#f6ad55" /><circle cx="588.2" cy="160.1" r="2.5" fill="#f6ad55" /><circle cx="626.5" cy="151.8" r="2.5" fill="#f6ad55" /><circle cx="664.8" cy="169.2" r="2.5" fill="#f6ad55" /><circle cx="703.2" cy="162.8" r="2.5" fill="#f6ad55" /><circle cx="741.5" cy="155.5" r="2.5" fill="#f6ad55" /><circle cx="779.8" cy="141.7" r="2.5" fill="#f6ad55" /><circle cx="818.2" cy="142.5" r="2.5" fill="#f6ad55" /><circle cx="856.5" cy="145.7" r="2.5" fill="#f6ad55" /><circle cx="894.8" cy="158.8" r="2.5" fill="#f6ad55" /><circle cx="933.2" cy="143.7" r="2.5" fill="#f6ad55" />
  <text x="40" y="30" fill="#9aa6b2" font-size="12">Hourly rate: Molts (bars), Likes (line), Views (dots scaled)</text>
  <text x="40" y="310" fill="#9aa6b2" font-size="11">max rate ~736.13 / hour</text>
</svg>