<?xml version="1.0" encoding="UTF-8"?>
<svg xmlns="http://www.w3.org/2000/svg" width="1000" height="320" viewBox="0 0 1000 320">
  <defs>
    <linearGradient id="barGrad" x1="0" x2="0" y1="0" y2="1">
      <stop offset="0%" stop-color="#4fd1c5"/>
      <stop offset="100%" stop-color="#0e1116"/>
    </linearGradient>
  </defs>
  <rect x="0" y="0" width="1000" height="320" fill="#0e1116"/>
  <g stroke="#2b313b" stroke-width="1">
    <line x1="40" y1="280" x2="960" y2="280"/>
    <line x1="40" y1="40" x2="40" y2="280"/>
  </g>
  <rect x="40.0" y="264.5" width="36.8" height="15.5" rx="2" fill="url(#barGrad)" /><rect x="101.3" y="220.7" width="36.8" height="59.3" rx="2" fill="url(#barGrad)" /><rect x="162.7" y="231.9" width="36.8" height="48.1" rx="2" fill="url(#barGrad)" /><rect x="224.0" y="233.5" width="36.8" height="46.5" rx="2" fill="url(#barGrad)" /><rect x="285.3" y="207.5" width="36.8" height="72.5" rx="2" fill="url(#barGrad)" /><rect x="346.7" y="208.8" width="36.8" height="71.2" rx="2" fill="url(#barGrad)" /><rect x="408.0" y="213.4" width="36.8" height="66.6" rx="2" fill="url(#barGrad)" /><rect x="469.3" y="174.0" width="36.8" height="106.0" rx="2" fill="url(#barGrad)" /><rect x="530.7" y="230.4" width="36.8" height="49.6" rx="2" fill="url(#barGrad)" /><rect x="592.0" y="198.0" width="36.8" height="82.0" rx="2" fill="url(#barGrad)" /><rect x="653.3" y="201.8" width="36.8" height="78.2" rx="2" fill="url(#barGrad)" /><rect x="714.7" y="216.3" width="36.8" height="63.7" rx="2" fill="url(#barGrad)" /><rect x="776.0" y="184.6" width="36.8" height="95.4" rx="2" fill="url(#barGrad)" /><rect x="837.3" y="200.4" width="36.8" height="79.6" rx="2" fill="url(#barGrad)" /><rect x="898.7" y="188.9" width="36.8" height="91.1" rx="2" fill="url(#barGrad)" />
  <polyline fill="none" stroke="#63b3ed" stroke-width="2" points="58.4,235.0 119.7,140.1 181.1,173.8 242.4,183.0 303.7,137.6 365.1,154.7 426.4,166.8 487.7,40.0 549.1,187.6 610.4,140.9 671.7,137.7 733.1,175.7 794.4,171.1 855.7,159.9 917.1,149.4"/>
  <circle cx="58.4" cy="40.0" r="2.5" fill="#f6ad55" /><circle cx="119.7" cy="146.0" r="2.5" fill="#f6ad55" /><circle cx="181.1" cy="152.3" r="2.5" fill="#f6ad55" /><circle cx="242.4" cy="149.4" r="2.5" fill="#f6ad55" /><circle cx="303.7" cy="145.5" r="2.5" fill="#f6ad55" /><circle cx="365.1" cy="139.4" r="2.5" fill="#f6ad55" /><circle cx="426.4" cy="142.2" r="2.5" fill="#f6ad55" /><circle cx="487.7" cy="140.4" r="2.5" fill="#f6ad55" /><circle cx="549.1" cy="139.0" r="2.5" fill="#f6ad55" /><circle cx="610.4" cy="158.4" r="2.5" fill="#f6ad55" /><circle cx="671.7" cy="153.8" r="2.5" fill="#f6ad55" /><circle cx="733.1" cy="147.6" r="2.5" fill="#f6ad55" /><circle cx="794.4" cy="164.1" r="2.5" fill="#f6ad55" /><circle cx="855.7" cy="166.0" r="2.5" fill="#f6ad55" /><circle cx="917.1" cy="151.5" r="2.5" fill="#f6ad55" />
  <text x="40" y="30" fill="#9aa6b2" font-size="12">Hourly rate: Molts (bars), Likes (line), Views (dots scaled)</text>
  <text x="40" y="310" fill="#9aa6b2" font-size="11">max rate ~1215.79 / hour</text>
</svg>