<?xml version="1.0" encoding="UTF-8"?>
<svg xmlns="http://www.w3.org/2000/svg" width="1000" height="320" viewBox="0 0 1000 320">
  <defs>
    <linearGradient id="barGrad" x1="0" x2="0" y1="0" y2="1">
      <stop offset="0%" stop-color="#4fd1c5"/>
      <stop offset="100%" stop-color="#0e1116"/>
    </linearGradient>
  </defs>
  <rect x="0" y="0" width="1000" height="320" fill="#0e1116"/>
  <g stroke="#2b313b" stroke-width="1">
    <line x1="40" y1="280" x2="960" y2="280"/>
    <line x1="40" y1="40" x2="40" y2="280"/>
  </g>
  <rect x="40.0" y="260.6" width="32.5" height="19.4" rx="2" fill="url(#barGrad)" /><rect x="94.1" y="216.4" width="32.5" height="63.6" rx="2" fill="url(#barGrad)" /><rect x="148.2" y="229.6" width="32.5" height="50.4" rx="2" fill="url(#barGrad)" /><rect x="202.4" y="232.5" width="32.5" height="47.5" rx="2" fill="url(#barGrad)" /><rect x="256.5" y="221.3" width="32.5" height="58.7" rx="2" fill="url(#barGrad)" /><rect x="310.6" y="225.9" width="32.5" height="54.1" rx="2" fill="url(#barGrad)" /><rect x="364.7" y="230.1" width="32.5" height="49.9" rx="2" fill="url(#barGrad)" /><rect x="418.8" y="222.6" width="32.5" height="57.4" rx="2" fill="url(#barGrad)" /><rect x="472.9" y="130.1" width="32.5" height="149.9" rx="2" fill="url(#barGrad)" /><rect x="527.1" y="216.6" width="32.5" height="63.4" rx="2" fill="url(#barGrad)" /><rect x="581.2" y="206.1" width="32.5" height="73.9" rx="2" fill="url(#barGrad)" /><rect x="635.3" y="184.3" width="32.5" height="95.7" rx="2" fill="url(#barGrad)" /><rect x="689.4" y="193.8" width="32.5" height="86.2" rx="2" fill="url(#barGrad)" /><rect x="743.5" y="227.5" width="32.5" height="52.5" rx="2" fill="url(#barGrad)" /><rect x="797.6" y="213.2" width="32.5" height="66.8" rx="2" fill="url(#barGrad)" /><rect x="851.8" y="230.9" width="32.5" height="49.1" rx="2" fill="url(#barGrad)" /><rect x="905.9" y="213.9" width="32.5" height="66.1" rx="2" fill="url(#barGrad)" />
  <polyline fill="none" stroke="#63b3ed" stroke-width="2" points="56.2,215.7 110.4,155.1 164.5,176.9 218.6,168.8 272.7,160.3 326.8,152.6 380.9,165.3 435.1,164.1 489.2,40.0 543.3,173.9 597.4,167.2 651.5,155.7 705.6,161.7 759.8,159.4 813.9,146.8 868.0,167.7 922.1,122.2"/>
  <circle cx="56.2" cy="40.0" r="2.5" fill="#f6ad55" /><circle cx="110.4" cy="75.6" r="2.5" fill="#f6ad55" /><circle cx="164.5" cy="80.5" r="2.5" fill="#f6ad55" /><circle cx="218.6" cy="78.4" r="2.5" fill="#f6ad55" /><circle cx="272.7" cy="70.8" r="2.5" fill="#f6ad55" /><circle cx="326.8" cy="69.7" r="2.5" fill="#f6ad55" /><circle cx="380.9" cy="69.7" r="2.5" fill="#f6ad55" /><circle cx="435.1" cy="89.5" r="2.5" fill="#f6ad55" /><circle cx="489.2" cy="79.7" r="2.5" fill="#f6ad55" /><circle cx="543.3" cy="69.2" r="2.5" fill="#f6ad55" /><circle cx="597.4" cy="73.3" r="2.5" fill="#f6ad55" /><circle cx="651.5" cy="84.1" r="2.5" fill="#f6ad55" /><circle cx="705.6" cy="83.1" r="2.5" fill="#f6ad55" /><circle cx="759.8" cy="71.6" r="2.5" fill="#f6ad55" /><circle cx="813.9" cy="87.0" r="2.5" fill="#f6ad55" /><circle cx="868.0" cy="75.7" r="2.5" fill="#f6ad55" /><circle cx="922.1" cy="93.1" r="2.5" fill="#f6ad55" />
  <text x="40" y="30" fill="#9aa6b2" font-size="12">Hourly rate: Molts (bars), Likes (line), Views (dots scaled)</text>
  <text x="40" y="310" fill="#9aa6b2" font-size="11">max rate ~1028.14 / hour</text>
</svg>