<?xml version="1.0" encoding="UTF-8"?>
<svg xmlns="http://www.w3.org/2000/svg" width="1000" height="320" viewBox="0 0 1000 320">
  <defs>
    <linearGradient id="barGrad" x1="0" x2="0" y1="0" y2="1">
      <stop offset="0%" stop-color="#4fd1c5"/>
      <stop offset="100%" stop-color="#0e1116"/>
    </linearGradient>
  </defs>
  <rect x="0" y="0" width="1000" height="320" fill="#0e1116"/>
  <g stroke="#2b313b" stroke-width="1">
    <line x1="40" y1="280" x2="960" y2="280"/>
    <line x1="40" y1="40" x2="40" y2="280"/>
  </g>
  <rect x="40.0" y="252.6" width="27.6" height="27.4" rx="2" fill="url(#barGrad)" /><rect x="86.0" y="216.4" width="27.6" height="63.6" rx="2" fill="url(#barGrad)" /><rect x="132.0" y="220.3" width="27.6" height="59.7" rx="2" fill="url(#barGrad)" /><rect x="178.0" y="210.5" width="27.6" height="69.5" rx="2" fill="url(#barGrad)" /><rect x="224.0" y="210.3" width="27.6" height="69.7" rx="2" fill="url(#barGrad)" /><rect x="270.0" y="215.9" width="27.6" height="64.1" rx="2" fill="url(#barGrad)" /><rect x="316.0" y="222.0" width="27.6" height="58.0" rx="2" fill="url(#barGrad)" /><rect x="362.0" y="230.9" width="27.6" height="49.1" rx="2" fill="url(#barGrad)" /><rect x="408.0" y="214.9" width="27.6" height="65.1" rx="2" fill="url(#barGrad)" /><rect x="454.0" y="88.7" width="27.6" height="191.3" rx="2" fill="url(#barGrad)" /><rect x="500.0" y="55.2" width="27.6" height="224.8" rx="2" fill="url(#barGrad)" /><rect x="546.0" y="197.4" width="27.6" height="82.6" rx="2" fill="url(#barGrad)" /><rect x="592.0" y="178.2" width="27.6" height="101.8" rx="2" fill="url(#barGrad)" /><rect x="638.0" y="200.9" width="27.6" height="79.1" rx="2" fill="url(#barGrad)" /><rect x="684.0" y="119.6" width="27.6" height="160.4" rx="2" fill="url(#barGrad)" /><rect x="730.0" y="40.0" width="27.6" height="240.0" rx="2" fill="url(#barGrad)" /><rect x="776.0" y="164.9" width="27.6" height="115.1" rx="2" fill="url(#barGrad)" /><rect x="822.0" y="180.2" width="27.6" height="99.8" rx="2" fill="url(#barGrad)" /><rect x="868.0" y="173.0" width="27.6" height="107.0" rx="2" fill="url(#barGrad)" /><rect x="914.0" y="163.9" width="27.6" height="116.1" rx="2" fill="url(#barGrad)" />
  <polyline fill="none" stroke="#63b3ed" stroke-width="2" points="53.8,177.6 99.8,223.1 145.8,186.2 191.8,173.9 237.8,156.6 283.8,174.1 329.8,156.5 375.8,178.7 421.8,146.4 467.8,133.8 513.8,88.9 559.8,132.4 605.8,108.7 651.8,114.9 697.8,97.9 743.8,142.1 789.8,162.8 835.8,165.7 881.8,166.7 927.8,165.4"/>
  <circle cx="53.8" cy="74.8" r="2.5" fill="#f6ad55" /><circle cx="99.8" cy="47.6" r="2.5" fill="#f6ad55" /><circle cx="145.8" cy="71.1" r="2.5" fill="#f6ad55" /><circle cx="191.8" cy="103.3" r="2.5" fill="#f6ad55" /><circle cx="237.8" cy="124.2" r="2.5" fill="#f6ad55" /><circle cx="283.8" cy="117.9" r="2.5" fill="#f6ad55" /><circle cx="329.8" cy="71.3" r="2.5" fill="#f6ad55" /><circle cx="375.8" cy="95.5" r="2.5" fill="#f6ad55" /><circle cx="421.8" cy="125.1" r="2.5" fill="#f6ad55" /><circle cx="467.8" cy="112.4" r="2.5" fill="#f6ad55" /><circle cx="513.8" cy="83.9" r="2.5" fill="#f6ad55" /><circle cx="559.8" cy="94.5" r="2.5" fill="#f6ad55" /><circle cx="605.8" cy="55.6" r="2.5" fill="#f6ad55" /><circle cx="651.8" cy="53.2" r="2.5" fill="#f6ad55" /><circle cx="697.8" cy="47.3" r="2.5" fill="#f6ad55" /><circle cx="743.8" cy="58.7" r="2.5" fill="#f6ad55" /><circle cx="789.8" cy="74.8" r="2.5" fill="#f6ad55" /><circle cx="835.8" cy="40.0" r="2.5" fill="#f6ad55" /><circle cx="881.8" cy="96.0" r="2.5" fill="#f6ad55" /><circle cx="927.8" cy="123.5" r="2.5" fill="#f6ad55" />
  <text x="40" y="30" fill="#9aa6b2" font-size="12">Hourly rate: Molts (bars), Likes (line), Views (dots scaled)</text>
  <text x="40" y="310" fill="#9aa6b2" font-size="11">max rate ~840.74 / hour</text>
</svg>