<?xml version="1.0" encoding="UTF-8"?>
<svg xmlns="http://www.w3.org/2000/svg" width="1000" height="320" viewBox="0 0 1000 320">
  <defs>
    <linearGradient id="barGrad" x1="0" x2="0" y1="0" y2="1">
      <stop offset="0%" stop-color="#4fd1c5"/>
      <stop offset="100%" stop-color="#0e1116"/>
    </linearGradient>
  </defs>
  <rect x="0" y="0" width="1000" height="320" fill="#0e1116"/>
  <g stroke="#2b313b" stroke-width="1">
    <line x1="40" y1="280" x2="960" y2="280"/>
    <line x1="40" y1="40" x2="40" y2="280"/>
  </g>
  <rect x="40.0" y="264.5" width="42.5" height="15.5" rx="2" fill="url(#barGrad)" /><rect x="110.8" y="220.7" width="42.5" height="59.3" rx="2" fill="url(#barGrad)" /><rect x="181.5" y="231.9" width="42.5" height="48.1" rx="2" fill="url(#barGrad)" /><rect x="252.3" y="233.5" width="42.5" height="46.5" rx="2" fill="url(#barGrad)" /><rect x="323.1" y="207.5" width="42.5" height="72.5" rx="2" fill="url(#barGrad)" /><rect x="393.8" y="208.8" width="42.5" height="71.2" rx="2" fill="url(#barGrad)" /><rect x="464.6" y="213.4" width="42.5" height="66.6" rx="2" fill="url(#barGrad)" /><rect x="535.4" y="174.0" width="42.5" height="106.0" rx="2" fill="url(#barGrad)" /><rect x="606.2" y="230.4" width="42.5" height="49.6" rx="2" fill="url(#barGrad)" /><rect x="676.9" y="198.0" width="42.5" height="82.0" rx="2" fill="url(#barGrad)" /><rect x="747.7" y="201.8" width="42.5" height="78.2" rx="2" fill="url(#barGrad)" /><rect x="818.5" y="216.3" width="42.5" height="63.7" rx="2" fill="url(#barGrad)" /><rect x="889.2" y="184.6" width="42.5" height="95.4" rx="2" fill="url(#barGrad)" />
  <polyline fill="none" stroke="#63b3ed" stroke-width="2" points="61.2,235.0 132.0,140.1 202.8,173.8 273.5,183.0 344.3,137.6 415.1,154.7 485.8,166.8 556.6,40.0 627.4,187.6 698.2,140.9 768.9,137.7 839.7,175.7 910.5,171.1"/>
  <circle cx="61.2" cy="40.0" r="2.5" fill="#f6ad55" /><circle cx="132.0" cy="146.0" r="2.5" fill="#f6ad55" /><circle cx="202.8" cy="152.3" r="2.5" fill="#f6ad55" /><circle cx="273.5" cy="149.4" r="2.5" fill="#f6ad55" /><circle cx="344.3" cy="145.5" r="2.5" fill="#f6ad55" /><circle cx="415.1" cy="139.4" r="2.5" fill="#f6ad55" /><circle cx="485.8" cy="142.2" r="2.5" fill="#f6ad55" /><circle cx="556.6" cy="140.4" r="2.5" fill="#f6ad55" /><circle cx="627.4" cy="139.0" r="2.5" fill="#f6ad55" /><circle cx="698.2" cy="158.4" r="2.5" fill="#f6ad55" /><circle cx="768.9" cy="153.8" r="2.5" fill="#f6ad55" /><circle cx="839.7" cy="147.6" r="2.5" fill="#f6ad55" /><circle cx="910.5" cy="164.1" r="2.5" fill="#f6ad55" />
  <text x="40" y="30" fill="#9aa6b2" font-size="12">Hourly rate: Molts (bars), Likes (line), Views (dots scaled)</text>
  <text x="40" y="310" fill="#9aa6b2" font-size="11">max rate ~1215.79 / hour</text>
</svg>