<?xml version="1.0" encoding="UTF-8"?>
<svg xmlns="http://www.w3.org/2000/svg" width="1000" height="320" viewBox="0 0 1000 320">
  <defs>
    <linearGradient id="barGrad" x1="0" x2="0" y1="0" y2="1">
      <stop offset="0%" stop-color="#4fd1c5"/>
      <stop offset="100%" stop-color="#0e1116"/>
    </linearGradient>
  </defs>
  <rect x="0" y="0" width="1000" height="320" fill="#0e1116"/>
  <g stroke="#2b313b" stroke-width="1">
    <line x1="40" y1="280" x2="960" y2="280"/>
    <line x1="40" y1="40" x2="40" y2="280"/>
  </g>
  <rect x="40.0" y="232.3" width="61.3" height="47.7" rx="2" fill="url(#barGrad)" /><rect x="142.2" y="158.4" width="61.3" height="121.6" rx="2" fill="url(#barGrad)" /><rect x="244.4" y="125.6" width="61.3" height="154.4" rx="2" fill="url(#barGrad)" /><rect x="346.7" y="172.9" width="61.3" height="107.1" rx="2" fill="url(#barGrad)" /><rect x="448.9" y="190.6" width="61.3" height="89.4" rx="2" fill="url(#barGrad)" /><rect x="551.1" y="48.2" width="61.3" height="231.8" rx="2" fill="url(#barGrad)" /><rect x="653.3" y="159.4" width="61.3" height="120.6" rx="2" fill="url(#barGrad)" /><rect x="755.6" y="137.2" width="61.3" height="142.8" rx="2" fill="url(#barGrad)" /><rect x="857.8" y="192.9" width="61.3" height="87.1" rx="2" fill="url(#barGrad)" />
  <polyline fill="none" stroke="#63b3ed" stroke-width="2" points="70.7,162.1 172.9,116.3 275.1,114.9 377.3,68.3 479.6,123.8 581.8,107.6 684.0,127.5 786.2,40.0 888.4,137.8"/>
  <circle cx="70.7" cy="94.0" r="2.5" fill="#f6ad55" /><circle cx="172.9" cy="109.8" r="2.5" fill="#f6ad55" /><circle cx="275.1" cy="69.0" r="2.5" fill="#f6ad55" /><circle cx="377.3" cy="44.9" r="2.5" fill="#f6ad55" /><circle cx="479.6" cy="40.0" r="2.5" fill="#f6ad55" /><circle cx="581.8" cy="48.2" r="2.5" fill="#f6ad55" /><circle cx="684.0" cy="46.9" r="2.5" fill="#f6ad55" /><circle cx="786.2" cy="47.5" r="2.5" fill="#f6ad55" /><circle cx="888.4" cy="43.4" r="2.5" fill="#f6ad55" />
  <text x="40" y="30" fill="#9aa6b2" font-size="12">Hourly rate: Molts (bars), Likes (line), Views (dots scaled)</text>
  <text x="40" y="310" fill="#9aa6b2" font-size="11">max rate ~683.13 / hour</text>
</svg>