<?xml version="1.0" encoding="UTF-8"?>
<svg xmlns="http://www.w3.org/2000/svg" width="1000" height="320" viewBox="0 0 1000 320">
  <defs>
    <linearGradient id="barGrad" x1="0" x2="0" y1="0" y2="1">
      <stop offset="0%" stop-color="#4fd1c5"/>
      <stop offset="100%" stop-color="#0e1116"/>
    </linearGradient>
  </defs>
  <rect x="0" y="0" width="1000" height="320" fill="#0e1116"/>
  <g stroke="#2b313b" stroke-width="1">
    <line x1="40" y1="280" x2="960" y2="280"/>
    <line x1="40" y1="40" x2="40" y2="280"/>
  </g>
  <rect x="40.0" y="182.7" width="50.2" height="97.3" rx="2" fill="url(#barGrad)" /><rect x="123.6" y="55.1" width="50.2" height="224.9" rx="2" fill="url(#barGrad)" /><rect x="207.3" y="83.7" width="50.2" height="196.3" rx="2" fill="url(#barGrad)" /><rect x="290.9" y="40.0" width="50.2" height="240.0" rx="2" fill="url(#barGrad)" /><rect x="374.5" y="40.1" width="50.2" height="239.9" rx="2" fill="url(#barGrad)" /><rect x="458.2" y="79.0" width="50.2" height="201.0" rx="2" fill="url(#barGrad)" /><rect x="541.8" y="79.7" width="50.2" height="200.3" rx="2" fill="url(#barGrad)" /><rect x="625.5" y="102.2" width="50.2" height="177.8" rx="2" fill="url(#barGrad)" /><rect x="709.1" y="104.4" width="50.2" height="175.6" rx="2" fill="url(#barGrad)" /><rect x="792.7" y="65.7" width="50.2" height="214.3" rx="2" fill="url(#barGrad)" /><rect x="876.4" y="76.2" width="50.2" height="203.8" rx="2" fill="url(#barGrad)" />
  <polyline fill="none" stroke="#63b3ed" stroke-width="2" points="65.1,124.8 148.7,63.8 232.4,77.8 316.0,90.7 399.6,113.1 483.3,41.0 566.9,59.7 650.5,51.2 734.2,94.0 817.8,85.8 901.5,88.9"/>
  <circle cx="65.1" cy="50.7" r="2.5" fill="#f6ad55" /><circle cx="148.7" cy="40.0" r="2.5" fill="#f6ad55" /><circle cx="232.4" cy="54.3" r="2.5" fill="#f6ad55" /><circle cx="316.0" cy="80.9" r="2.5" fill="#f6ad55" /><circle cx="399.6" cy="86.4" r="2.5" fill="#f6ad55" /><circle cx="483.3" cy="87.2" r="2.5" fill="#f6ad55" /><circle cx="566.9" cy="86.5" r="2.5" fill="#f6ad55" /><circle cx="650.5" cy="98.5" r="2.5" fill="#f6ad55" /><circle cx="734.2" cy="101.7" r="2.5" fill="#f6ad55" /><circle cx="817.8" cy="92.8" r="2.5" fill="#f6ad55" /><circle cx="901.5" cy="109.6" r="2.5" fill="#f6ad55" />
  <text x="40" y="30" fill="#9aa6b2" font-size="12">Hourly rate: Molts (bars), Likes (line), Views (dots scaled)</text>
  <text x="40" y="310" fill="#9aa6b2" font-size="11">max rate ~584.47 / hour</text>
</svg>