<?xml version="1.0" encoding="UTF-8"?>
<svg xmlns="http://www.w3.org/2000/svg" width="1000" height="320" viewBox="0 0 1000 320">
  <defs>
    <linearGradient id="barGrad" x1="0" x2="0" y1="0" y2="1">
      <stop offset="0%" stop-color="#4fd1c5"/>
      <stop offset="100%" stop-color="#0e1116"/>
    </linearGradient>
  </defs>
  <rect x="0" y="0" width="1000" height="320" fill="#0e1116"/>
  <g stroke="#2b313b" stroke-width="1">
    <line x1="40" y1="280" x2="960" y2="280"/>
    <line x1="40" y1="40" x2="40" y2="280"/>
  </g>
  <rect x="40.0" y="157.8" width="29.1" height="122.2" rx="2" fill="url(#barGrad)" /><rect x="88.4" y="100.4" width="29.1" height="179.6" rx="2" fill="url(#barGrad)" /><rect x="136.8" y="110.6" width="29.1" height="169.4" rx="2" fill="url(#barGrad)" /><rect x="185.3" y="109.3" width="29.1" height="170.7" rx="2" fill="url(#barGrad)" /><rect x="233.7" y="83.3" width="29.1" height="196.7" rx="2" fill="url(#barGrad)" /><rect x="282.1" y="109.4" width="29.1" height="170.6" rx="2" fill="url(#barGrad)" /><rect x="330.5" y="122.0" width="29.1" height="158.0" rx="2" fill="url(#barGrad)" /><rect x="378.9" y="118.3" width="29.1" height="161.7" rx="2" fill="url(#barGrad)" /><rect x="427.4" y="108.8" width="29.1" height="171.2" rx="2" fill="url(#barGrad)" /><rect x="475.8" y="120.2" width="29.1" height="159.8" rx="2" fill="url(#barGrad)" /><rect x="524.2" y="119.2" width="29.1" height="160.8" rx="2" fill="url(#barGrad)" /><rect x="572.6" y="137.9" width="29.1" height="142.1" rx="2" fill="url(#barGrad)" /><rect x="621.1" y="113.6" width="29.1" height="166.4" rx="2" fill="url(#barGrad)" /><rect x="669.5" y="158.6" width="29.1" height="121.4" rx="2" fill="url(#barGrad)" /><rect x="717.9" y="266.1" width="29.1" height="13.9" rx="2" fill="url(#barGrad)" /><rect x="766.3" y="262.1" width="29.1" height="17.9" rx="2" fill="url(#barGrad)" /><rect x="814.7" y="265.3" width="29.1" height="14.7" rx="2" fill="url(#barGrad)" /><rect x="863.2" y="259.6" width="29.1" height="20.4" rx="2" fill="url(#barGrad)" /><rect x="911.6" y="214.5" width="29.1" height="65.5" rx="2" fill="url(#barGrad)" />
  <polyline fill="none" stroke="#63b3ed" stroke-width="2" points="54.5,94.9 102.9,73.4 151.4,64.7 199.8,60.4 248.2,40.0 296.6,66.4 345.1,102.8 393.5,74.5 441.9,76.2 490.3,99.9 538.7,105.1 587.2,100.6 635.6,98.1 684.0,138.1 732.4,267.3 780.8,263.8 829.3,263.2 877.7,263.0 926.1,237.9"/>
  <circle cx="54.5" cy="278.1" r="2.5" fill="#f6ad55" /><circle cx="102.9" cy="278.2" r="2.5" fill="#f6ad55" /><circle cx="151.4" cy="278.2" r="2.5" fill="#f6ad55" /><circle cx="199.8" cy="278.0" r="2.5" fill="#f6ad55" /><circle cx="248.2" cy="278.1" r="2.5" fill="#f6ad55" /><circle cx="296.6" cy="278.1" r="2.5" fill="#f6ad55" /><circle cx="345.1" cy="278.1" r="2.5" fill="#f6ad55" /><circle cx="393.5" cy="278.1" r="2.5" fill="#f6ad55" /><circle cx="441.9" cy="278.2" r="2.5" fill="#f6ad55" /><circle cx="490.3" cy="278.1" r="2.5" fill="#f6ad55" /><circle cx="538.7" cy="278.1" r="2.5" fill="#f6ad55" /><circle cx="587.2" cy="278.3" r="2.5" fill="#f6ad55" /><circle cx="635.6" cy="278.3" r="2.5" fill="#f6ad55" /><circle cx="684.0" cy="278.5" r="2.5" fill="#f6ad55" /><circle cx="732.4" cy="518.3" r="2.5" fill="#f6ad55" /><circle cx="780.8" cy="40.0" r="2.5" fill="#f6ad55" /><circle cx="829.3" cy="278.2" r="2.5" fill="#f6ad55" /><circle cx="877.7" cy="278.2" r="2.5" fill="#f6ad55" /><circle cx="926.1" cy="278.1" r="2.5" fill="#f6ad55" />
  <text x="40" y="30" fill="#9aa6b2" font-size="12">Hourly rate: Molts (bars), Likes (line), Views (dots scaled)</text>
  <text x="40" y="310" fill="#9aa6b2" font-size="11">max rate ~2510.11 / hour</text>
</svg>