<?xml version="1.0" encoding="UTF-8"?>
<svg xmlns="http://www.w3.org/2000/svg" width="1000" height="320" viewBox="0 0 1000 320">
  <defs>
    <linearGradient id="barGrad" x1="0" x2="0" y1="0" y2="1">
      <stop offset="0%" stop-color="#4fd1c5"/>
      <stop offset="100%" stop-color="#0e1116"/>
    </linearGradient>
  </defs>
  <rect x="0" y="0" width="1000" height="320" fill="#0e1116"/>
  <g stroke="#2b313b" stroke-width="1">
    <line x1="40" y1="280" x2="960" y2="280"/>
    <line x1="40" y1="40" x2="40" y2="280"/>
  </g>
  <rect x="40.0" y="218.8" width="27.6" height="61.2" rx="2" fill="url(#barGrad)" /><rect x="86.0" y="166.1" width="27.6" height="113.9" rx="2" fill="url(#barGrad)" /><rect x="132.0" y="194.7" width="27.6" height="85.3" rx="2" fill="url(#barGrad)" /><rect x="178.0" y="186.4" width="27.6" height="93.6" rx="2" fill="url(#barGrad)" /><rect x="224.0" y="160.0" width="27.6" height="120.0" rx="2" fill="url(#barGrad)" /><rect x="270.0" y="121.0" width="27.6" height="159.0" rx="2" fill="url(#barGrad)" /><rect x="316.0" y="150.0" width="27.6" height="130.0" rx="2" fill="url(#barGrad)" /><rect x="362.0" y="175.7" width="27.6" height="104.3" rx="2" fill="url(#barGrad)" /><rect x="408.0" y="175.9" width="27.6" height="104.1" rx="2" fill="url(#barGrad)" /><rect x="454.0" y="162.5" width="27.6" height="117.5" rx="2" fill="url(#barGrad)" /><rect x="500.0" y="144.0" width="27.6" height="136.0" rx="2" fill="url(#barGrad)" /><rect x="546.0" y="164.8" width="27.6" height="115.2" rx="2" fill="url(#barGrad)" /><rect x="592.0" y="166.9" width="27.6" height="113.1" rx="2" fill="url(#barGrad)" /><rect x="638.0" y="170.5" width="27.6" height="109.5" rx="2" fill="url(#barGrad)" /><rect x="684.0" y="151.5" width="27.6" height="128.5" rx="2" fill="url(#barGrad)" /><rect x="730.0" y="161.6" width="27.6" height="118.4" rx="2" fill="url(#barGrad)" /><rect x="776.0" y="171.3" width="27.6" height="108.7" rx="2" fill="url(#barGrad)" /><rect x="822.0" y="173.4" width="27.6" height="106.6" rx="2" fill="url(#barGrad)" /><rect x="868.0" y="156.7" width="27.6" height="123.3" rx="2" fill="url(#barGrad)" /><rect x="914.0" y="138.0" width="27.6" height="142.0" rx="2" fill="url(#barGrad)" />
  <polyline fill="none" stroke="#63b3ed" stroke-width="2" points="53.8,135.5 99.8,49.8 145.8,77.3 191.8,87.2 237.8,97.3 283.8,75.8 329.8,100.6 375.8,85.9 421.8,85.7 467.8,129.4 513.8,117.6 559.8,83.4 605.8,118.2 651.8,113.1 697.8,97.5 743.8,100.4 789.8,76.9 835.8,77.9 881.8,60.3 927.8,40.0"/>
  <circle cx="53.8" cy="69.9" r="2.5" fill="#f6ad55" /><circle cx="99.8" cy="85.0" r="2.5" fill="#f6ad55" /><circle cx="145.8" cy="83.1" r="2.5" fill="#f6ad55" /><circle cx="191.8" cy="70.1" r="2.5" fill="#f6ad55" /><circle cx="237.8" cy="52.2" r="2.5" fill="#f6ad55" /><circle cx="283.8" cy="44.4" r="2.5" fill="#f6ad55" /><circle cx="329.8" cy="54.8" r="2.5" fill="#f6ad55" /><circle cx="375.8" cy="78.2" r="2.5" fill="#f6ad55" /><circle cx="421.8" cy="72.1" r="2.5" fill="#f6ad55" /><circle cx="467.8" cy="70.0" r="2.5" fill="#f6ad55" /><circle cx="513.8" cy="62.4" r="2.5" fill="#f6ad55" /><circle cx="559.8" cy="66.5" r="2.5" fill="#f6ad55" /><circle cx="605.8" cy="49.8" r="2.5" fill="#f6ad55" /><circle cx="651.8" cy="40.0" r="2.5" fill="#f6ad55" /><circle cx="697.8" cy="62.0" r="2.5" fill="#f6ad55" /><circle cx="743.8" cy="70.6" r="2.5" fill="#f6ad55" /><circle cx="789.8" cy="73.0" r="2.5" fill="#f6ad55" /><circle cx="835.8" cy="80.9" r="2.5" fill="#f6ad55" /><circle cx="881.8" cy="85.3" r="2.5" fill="#f6ad55" /><circle cx="927.8" cy="74.7" r="2.5" fill="#f6ad55" />
  <text x="40" y="30" fill="#9aa6b2" font-size="12">Hourly rate: Molts (bars), Likes (line), Views (dots scaled)</text>
  <text x="40" y="310" fill="#9aa6b2" font-size="11">max rate ~700.12 / hour</text>
</svg>