<?xml version="1.0" encoding="UTF-8"?>
<svg xmlns="http://www.w3.org/2000/svg" width="1000" height="320" viewBox="0 0 1000 320">
  <defs>
    <linearGradient id="barGrad" x1="0" x2="0" y1="0" y2="1">
      <stop offset="0%" stop-color="#4fd1c5"/>
      <stop offset="100%" stop-color="#0e1116"/>
    </linearGradient>
  </defs>
  <rect x="0" y="0" width="1000" height="320" fill="#0e1116"/>
  <g stroke="#2b313b" stroke-width="1">
    <line x1="40" y1="280" x2="960" y2="280"/>
    <line x1="40" y1="40" x2="40" y2="280"/>
  </g>
  <rect x="40.0" y="40.0" width="36.8" height="240.0" rx="2" fill="url(#barGrad)" /><rect x="101.3" y="130.6" width="36.8" height="149.4" rx="2" fill="url(#barGrad)" /><rect x="162.7" y="264.2" width="36.8" height="15.8" rx="2" fill="url(#barGrad)" /><rect x="224.0" y="263.6" width="36.8" height="16.4" rx="2" fill="url(#barGrad)" /><rect x="285.3" y="259.3" width="36.8" height="20.7" rx="2" fill="url(#barGrad)" /><rect x="346.7" y="256.8" width="36.8" height="23.2" rx="2" fill="url(#barGrad)" /><rect x="408.0" y="263.6" width="36.8" height="16.4" rx="2" fill="url(#barGrad)" /><rect x="469.3" y="258.7" width="36.8" height="21.3" rx="2" fill="url(#barGrad)" /><rect x="530.7" y="262.3" width="36.8" height="17.7" rx="2" fill="url(#barGrad)" /><rect x="592.0" y="258.4" width="36.8" height="21.6" rx="2" fill="url(#barGrad)" /><rect x="653.3" y="258.7" width="36.8" height="21.3" rx="2" fill="url(#barGrad)" /><rect x="714.7" y="233.1" width="36.8" height="46.9" rx="2" fill="url(#barGrad)" /><rect x="776.0" y="178.1" width="36.8" height="101.9" rx="2" fill="url(#barGrad)" /><rect x="837.3" y="236.0" width="36.8" height="44.0" rx="2" fill="url(#barGrad)" /><rect x="898.7" y="923.0" width="36.8" height="-643.0" rx="2" fill="url(#barGrad)" />
  <polyline fill="none" stroke="#63b3ed" stroke-width="2" points="58.4,239.6 119.7,244.1 181.1,242.8 242.4,249.5 303.7,241.8 365.1,249.3 426.4,245.9 487.7,253.0 549.1,256.6 610.4,247.6 671.7,246.5 733.1,243.3 794.4,239.7 855.7,222.8 917.1,250.7"/>
  <circle cx="58.4" cy="58.4" r="2.5" fill="#f6ad55" /><circle cx="119.7" cy="41.8" r="2.5" fill="#f6ad55" /><circle cx="181.1" cy="54.4" r="2.5" fill="#f6ad55" /><circle cx="242.4" cy="48.0" r="2.5" fill="#f6ad55" /><circle cx="303.7" cy="45.2" r="2.5" fill="#f6ad55" /><circle cx="365.1" cy="40.0" r="2.5" fill="#f6ad55" /><circle cx="426.4" cy="56.2" r="2.5" fill="#f6ad55" /><circle cx="487.7" cy="73.1" r="2.5" fill="#f6ad55" /><circle cx="549.1" cy="66.2" r="2.5" fill="#f6ad55" /><circle cx="610.4" cy="90.5" r="2.5" fill="#f6ad55" /><circle cx="671.7" cy="74.6" r="2.5" fill="#f6ad55" /><circle cx="733.1" cy="80.2" r="2.5" fill="#f6ad55" /><circle cx="794.4" cy="53.3" r="2.5" fill="#f6ad55" /><circle cx="855.7" cy="89.8" r="2.5" fill="#f6ad55" /><circle cx="917.1" cy="64.7" r="2.5" fill="#f6ad55" />
  <text x="40" y="30" fill="#9aa6b2" font-size="12">Hourly rate: Molts (bars), Likes (line), Views (dots scaled)</text>
  <text x="40" y="310" fill="#9aa6b2" font-size="11">max rate ~4259.25 / hour</text>
</svg>