<?xml version="1.0" encoding="UTF-8"?>
<svg xmlns="http://www.w3.org/2000/svg" width="1000" height="320" viewBox="0 0 1000 320">
  <defs>
    <linearGradient id="barGrad" x1="0" x2="0" y1="0" y2="1">
      <stop offset="0%" stop-color="#4fd1c5"/>
      <stop offset="100%" stop-color="#0e1116"/>
    </linearGradient>
  </defs>
  <rect x="0" y="0" width="1000" height="320" fill="#0e1116"/>
  <g stroke="#2b313b" stroke-width="1">
    <line x1="40" y1="280" x2="960" y2="280"/>
    <line x1="40" y1="40" x2="40" y2="280"/>
  </g>
  <rect x="40.0" y="40.0" width="55.2" height="240.0" rx="2" fill="url(#barGrad)" /><rect x="132.0" y="130.6" width="55.2" height="149.4" rx="2" fill="url(#barGrad)" /><rect x="224.0" y="264.2" width="55.2" height="15.8" rx="2" fill="url(#barGrad)" /><rect x="316.0" y="263.6" width="55.2" height="16.4" rx="2" fill="url(#barGrad)" /><rect x="408.0" y="259.3" width="55.2" height="20.7" rx="2" fill="url(#barGrad)" /><rect x="500.0" y="256.8" width="55.2" height="23.2" rx="2" fill="url(#barGrad)" /><rect x="592.0" y="263.6" width="55.2" height="16.4" rx="2" fill="url(#barGrad)" /><rect x="684.0" y="258.7" width="55.2" height="21.3" rx="2" fill="url(#barGrad)" /><rect x="776.0" y="262.3" width="55.2" height="17.7" rx="2" fill="url(#barGrad)" /><rect x="868.0" y="258.4" width="55.2" height="21.6" rx="2" fill="url(#barGrad)" />
  <polyline fill="none" stroke="#63b3ed" stroke-width="2" points="67.6,239.6 159.6,244.1 251.6,242.8 343.6,249.5 435.6,241.8 527.6,249.3 619.6,245.9 711.6,253.0 803.6,256.6 895.6,247.6"/>
  <circle cx="67.6" cy="58.4" r="2.5" fill="#f6ad55" /><circle cx="159.6" cy="41.8" r="2.5" fill="#f6ad55" /><circle cx="251.6" cy="54.4" r="2.5" fill="#f6ad55" /><circle cx="343.6" cy="48.0" r="2.5" fill="#f6ad55" /><circle cx="435.6" cy="45.2" r="2.5" fill="#f6ad55" /><circle cx="527.6" cy="40.0" r="2.5" fill="#f6ad55" /><circle cx="619.6" cy="56.2" r="2.5" fill="#f6ad55" /><circle cx="711.6" cy="73.1" r="2.5" fill="#f6ad55" /><circle cx="803.6" cy="66.2" r="2.5" fill="#f6ad55" /><circle cx="895.6" cy="90.5" r="2.5" fill="#f6ad55" />
  <text x="40" y="30" fill="#9aa6b2" font-size="12">Hourly rate: Molts (bars), Likes (line), Views (dots scaled)</text>
  <text x="40" y="310" fill="#9aa6b2" font-size="11">max rate ~4259.25 / hour</text>
</svg>