<?xml version="1.0" encoding="UTF-8"?>
<svg xmlns="http://www.w3.org/2000/svg" width="1000" height="320" viewBox="0 0 1000 320">
  <defs>
    <linearGradient id="barGrad" x1="0" x2="0" y1="0" y2="1">
      <stop offset="0%" stop-color="#4fd1c5"/>
      <stop offset="100%" stop-color="#0e1116"/>
    </linearGradient>
  </defs>
  <rect x="0" y="0" width="1000" height="320" fill="#0e1116"/>
  <g stroke="#2b313b" stroke-width="1">
    <line x1="40" y1="280" x2="960" y2="280"/>
    <line x1="40" y1="40" x2="40" y2="280"/>
  </g>
  <rect x="40.0" y="40.0" width="30.7" height="240.0" rx="2" fill="url(#barGrad)" /><rect x="91.1" y="130.6" width="30.7" height="149.4" rx="2" fill="url(#barGrad)" /><rect x="142.2" y="264.2" width="30.7" height="15.8" rx="2" fill="url(#barGrad)" /><rect x="193.3" y="263.6" width="30.7" height="16.4" rx="2" fill="url(#barGrad)" /><rect x="244.4" y="259.3" width="30.7" height="20.7" rx="2" fill="url(#barGrad)" /><rect x="295.6" y="256.8" width="30.7" height="23.2" rx="2" fill="url(#barGrad)" /><rect x="346.7" y="263.6" width="30.7" height="16.4" rx="2" fill="url(#barGrad)" /><rect x="397.8" y="258.7" width="30.7" height="21.3" rx="2" fill="url(#barGrad)" /><rect x="448.9" y="262.3" width="30.7" height="17.7" rx="2" fill="url(#barGrad)" /><rect x="500.0" y="258.4" width="30.7" height="21.6" rx="2" fill="url(#barGrad)" /><rect x="551.1" y="258.7" width="30.7" height="21.3" rx="2" fill="url(#barGrad)" /><rect x="602.2" y="233.1" width="30.7" height="46.9" rx="2" fill="url(#barGrad)" /><rect x="653.3" y="178.1" width="30.7" height="101.9" rx="2" fill="url(#barGrad)" /><rect x="704.4" y="236.0" width="30.7" height="44.0" rx="2" fill="url(#barGrad)" /><rect x="755.6" y="590.6" width="30.7" height="-310.6" rx="2" fill="url(#barGrad)" /><rect x="806.7" y="262.8" width="30.7" height="17.2" rx="2" fill="url(#barGrad)" /><rect x="857.8" y="260.5" width="30.7" height="19.5" rx="2" fill="url(#barGrad)" /><rect x="908.9" y="263.1" width="30.7" height="16.9" rx="2" fill="url(#barGrad)" />
  <polyline fill="none" stroke="#63b3ed" stroke-width="2" points="55.3,239.6 106.4,244.1 157.6,242.8 208.7,249.5 259.8,241.8 310.9,249.3 362.0,245.9 413.1,253.0 464.2,256.6 515.3,247.6 566.4,246.5 617.6,243.3 668.7,239.7 719.8,222.8 770.9,252.3 822.0,249.6 873.1,244.0 924.2,247.9"/>
  <circle cx="55.3" cy="68.9" r="2.5" fill="#f6ad55" /><circle cx="106.4" cy="53.1" r="2.5" fill="#f6ad55" /><circle cx="157.6" cy="65.1" r="2.5" fill="#f6ad55" /><circle cx="208.7" cy="59.0" r="2.5" fill="#f6ad55" /><circle cx="259.8" cy="56.3" r="2.5" fill="#f6ad55" /><circle cx="310.9" cy="51.4" r="2.5" fill="#f6ad55" /><circle cx="362.0" cy="66.8" r="2.5" fill="#f6ad55" /><circle cx="413.1" cy="82.9" r="2.5" fill="#f6ad55" /><circle cx="464.2" cy="76.3" r="2.5" fill="#f6ad55" /><circle cx="515.3" cy="99.5" r="2.5" fill="#f6ad55" /><circle cx="566.4" cy="84.4" r="2.5" fill="#f6ad55" /><circle cx="617.6" cy="89.7" r="2.5" fill="#f6ad55" /><circle cx="668.7" cy="64.1" r="2.5" fill="#f6ad55" /><circle cx="719.8" cy="98.8" r="2.5" fill="#f6ad55" /><circle cx="770.9" cy="96.5" r="2.5" fill="#f6ad55" /><circle cx="822.0" cy="78.7" r="2.5" fill="#f6ad55" /><circle cx="873.1" cy="59.5" r="2.5" fill="#f6ad55" /><circle cx="924.2" cy="40.0" r="2.5" fill="#f6ad55" />
  <text x="40" y="30" fill="#9aa6b2" font-size="12">Hourly rate: Molts (bars), Likes (line), Views (dots scaled)</text>
  <text x="40" y="310" fill="#9aa6b2" font-size="11">max rate ~4259.25 / hour</text>
</svg>