<?xml version="1.0" encoding="UTF-8"?>
<svg xmlns="http://www.w3.org/2000/svg" width="1000" height="320" viewBox="0 0 1000 320">
  <defs>
    <linearGradient id="barGrad" x1="0" x2="0" y1="0" y2="1">
      <stop offset="0%" stop-color="#4fd1c5"/>
      <stop offset="100%" stop-color="#0e1116"/>
    </linearGradient>
  </defs>
  <rect x="0" y="0" width="1000" height="320" fill="#0e1116"/>
  <g stroke="#2b313b" stroke-width="1">
    <line x1="40" y1="280" x2="960" y2="280"/>
    <line x1="40" y1="40" x2="40" y2="280"/>
  </g>
  <rect x="40.0" y="161.1" width="26.3" height="118.9" rx="2" fill="url(#barGrad)" /><rect x="83.8" y="120.0" width="26.3" height="160.0" rx="2" fill="url(#barGrad)" /><rect x="127.6" y="112.9" width="26.3" height="167.1" rx="2" fill="url(#barGrad)" /><rect x="171.4" y="125.3" width="26.3" height="154.7" rx="2" fill="url(#barGrad)" /><rect x="215.2" y="113.9" width="26.3" height="166.1" rx="2" fill="url(#barGrad)" /><rect x="259.0" y="122.8" width="26.3" height="157.2" rx="2" fill="url(#barGrad)" /><rect x="302.9" y="117.5" width="26.3" height="162.5" rx="2" fill="url(#barGrad)" /><rect x="346.7" y="97.9" width="26.3" height="182.1" rx="2" fill="url(#barGrad)" /><rect x="390.5" y="140.7" width="26.3" height="139.3" rx="2" fill="url(#barGrad)" /><rect x="434.3" y="113.1" width="26.3" height="166.9" rx="2" fill="url(#barGrad)" /><rect x="478.1" y="92.3" width="26.3" height="187.7" rx="2" fill="url(#barGrad)" /><rect x="521.9" y="107.6" width="26.3" height="172.4" rx="2" fill="url(#barGrad)" /><rect x="565.7" y="120.5" width="26.3" height="159.5" rx="2" fill="url(#barGrad)" /><rect x="609.5" y="114.3" width="26.3" height="165.7" rx="2" fill="url(#barGrad)" /><rect x="653.3" y="159.1" width="26.3" height="120.9" rx="2" fill="url(#barGrad)" /><rect x="697.1" y="162.7" width="26.3" height="117.3" rx="2" fill="url(#barGrad)" /><rect x="741.0" y="138.1" width="26.3" height="141.9" rx="2" fill="url(#barGrad)" /><rect x="784.8" y="154.2" width="26.3" height="125.8" rx="2" fill="url(#barGrad)" /><rect x="828.6" y="149.4" width="26.3" height="130.6" rx="2" fill="url(#barGrad)" /><rect x="872.4" y="134.8" width="26.3" height="145.2" rx="2" fill="url(#barGrad)" /><rect x="916.2" y="179.0" width="26.3" height="101.0" rx="2" fill="url(#barGrad)" />
  <polyline fill="none" stroke="#63b3ed" stroke-width="2" points="53.1,127.6 97.0,80.7 140.8,85.0 184.6,98.2 228.4,88.1 272.2,81.9 316.0,40.0 359.8,55.8 403.6,112.1 447.4,93.5 491.2,91.0 535.0,49.9 578.9,48.8 622.7,56.0 666.5,109.7 710.3,104.0 754.1,67.8 797.9,77.9 841.7,113.2 885.5,58.1 929.3,127.7"/>
  <circle cx="53.1" cy="100.8" r="2.5" fill="#f6ad55" /><circle cx="97.0" cy="64.8" r="2.5" fill="#f6ad55" /><circle cx="140.8" cy="52.4" r="2.5" fill="#f6ad55" /><circle cx="184.6" cy="40.0" r="2.5" fill="#f6ad55" /><circle cx="228.4" cy="45.2" r="2.5" fill="#f6ad55" /><circle cx="272.2" cy="83.8" r="2.5" fill="#f6ad55" /><circle cx="316.0" cy="57.7" r="2.5" fill="#f6ad55" /><circle cx="359.8" cy="87.9" r="2.5" fill="#f6ad55" /><circle cx="403.6" cy="83.5" r="2.5" fill="#f6ad55" /><circle cx="447.4" cy="90.8" r="2.5" fill="#f6ad55" /><circle cx="491.2" cy="91.1" r="2.5" fill="#f6ad55" /><circle cx="535.0" cy="90.8" r="2.5" fill="#f6ad55" /><circle cx="578.9" cy="44.6" r="2.5" fill="#f6ad55" /><circle cx="622.7" cy="88.7" r="2.5" fill="#f6ad55" /><circle cx="666.5" cy="87.9" r="2.5" fill="#f6ad55" /><circle cx="710.3" cy="89.1" r="2.5" fill="#f6ad55" /><circle cx="754.1" cy="86.9" r="2.5" fill="#f6ad55" /><circle cx="797.9" cy="82.4" r="2.5" fill="#f6ad55" /><circle cx="841.7" cy="76.0" r="2.5" fill="#f6ad55" /><circle cx="885.5" cy="82.8" r="2.5" fill="#f6ad55" /><circle cx="929.3" cy="91.5" r="2.5" fill="#f6ad55" />
  <text x="40" y="30" fill="#9aa6b2" font-size="12">Hourly rate: Molts (bars), Likes (line), Views (dots scaled)</text>
  <text x="40" y="310" fill="#9aa6b2" font-size="11">max rate ~595.01 / hour</text>
</svg>