<?xml version="1.0" encoding="UTF-8"?>
<svg xmlns="http://www.w3.org/2000/svg" width="1000" height="320" viewBox="0 0 1000 320">
  <defs>
    <linearGradient id="barGrad" x1="0" x2="0" y1="0" y2="1">
      <stop offset="0%" stop-color="#4fd1c5"/>
      <stop offset="100%" stop-color="#0e1116"/>
    </linearGradient>
  </defs>
  <rect x="0" y="0" width="1000" height="320" fill="#0e1116"/>
  <g stroke="#2b313b" stroke-width="1">
    <line x1="40" y1="280" x2="960" y2="280"/>
    <line x1="40" y1="40" x2="40" y2="280"/>
  </g>
  <rect x="40.0" y="227.9" width="69.0" height="52.1" rx="2" fill="url(#barGrad)" /><rect x="155.0" y="192.0" width="69.0" height="88.0" rx="2" fill="url(#barGrad)" /><rect x="270.0" y="207.3" width="69.0" height="72.7" rx="2" fill="url(#barGrad)" /><rect x="385.0" y="194.3" width="69.0" height="85.7" rx="2" fill="url(#barGrad)" /><rect x="500.0" y="197.3" width="69.0" height="82.7" rx="2" fill="url(#barGrad)" /><rect x="615.0" y="195.6" width="69.0" height="84.4" rx="2" fill="url(#barGrad)" /><rect x="730.0" y="165.2" width="69.0" height="114.8" rx="2" fill="url(#barGrad)" /><rect x="845.0" y="188.6" width="69.0" height="91.4" rx="2" fill="url(#barGrad)" />
  <polyline fill="none" stroke="#63b3ed" stroke-width="2" points="74.5,154.6 189.5,88.7 304.5,101.3 419.5,101.9 534.5,91.2 649.5,80.0 764.5,40.0 879.5,107.0"/>
  <circle cx="74.5" cy="40.0" r="2.5" fill="#f6ad55" /><circle cx="189.5" cy="86.6" r="2.5" fill="#f6ad55" /><circle cx="304.5" cy="78.3" r="2.5" fill="#f6ad55" /><circle cx="419.5" cy="81.9" r="2.5" fill="#f6ad55" /><circle cx="534.5" cy="94.8" r="2.5" fill="#f6ad55" /><circle cx="649.5" cy="68.0" r="2.5" fill="#f6ad55" /><circle cx="764.5" cy="99.2" r="2.5" fill="#f6ad55" /><circle cx="879.5" cy="96.9" r="2.5" fill="#f6ad55" />
  <text x="40" y="30" fill="#9aa6b2" font-size="12">Hourly rate: Molts (bars), Likes (line), Views (dots scaled)</text>
  <text x="40" y="310" fill="#9aa6b2" font-size="11">max rate ~802.71 / hour</text>
</svg>