<?xml version="1.0" encoding="UTF-8"?>
<svg xmlns="http://www.w3.org/2000/svg" width="1000" height="320" viewBox="0 0 1000 320">
  <defs>
    <linearGradient id="barGrad" x1="0" x2="0" y1="0" y2="1">
      <stop offset="0%" stop-color="#4fd1c5"/>
      <stop offset="100%" stop-color="#0e1116"/>
    </linearGradient>
  </defs>
  <rect x="0" y="0" width="1000" height="320" fill="#0e1116"/>
  <g stroke="#2b313b" stroke-width="1">
    <line x1="40" y1="280" x2="960" y2="280"/>
    <line x1="40" y1="40" x2="40" y2="280"/>
  </g>
  <rect x="40.0" y="264.5" width="34.5" height="15.5" rx="2" fill="url(#barGrad)" /><rect x="97.5" y="220.7" width="34.5" height="59.3" rx="2" fill="url(#barGrad)" /><rect x="155.0" y="231.9" width="34.5" height="48.1" rx="2" fill="url(#barGrad)" /><rect x="212.5" y="233.5" width="34.5" height="46.5" rx="2" fill="url(#barGrad)" /><rect x="270.0" y="207.5" width="34.5" height="72.5" rx="2" fill="url(#barGrad)" /><rect x="327.5" y="208.8" width="34.5" height="71.2" rx="2" fill="url(#barGrad)" /><rect x="385.0" y="213.4" width="34.5" height="66.6" rx="2" fill="url(#barGrad)" /><rect x="442.5" y="174.0" width="34.5" height="106.0" rx="2" fill="url(#barGrad)" /><rect x="500.0" y="230.4" width="34.5" height="49.6" rx="2" fill="url(#barGrad)" /><rect x="557.5" y="198.0" width="34.5" height="82.0" rx="2" fill="url(#barGrad)" /><rect x="615.0" y="201.8" width="34.5" height="78.2" rx="2" fill="url(#barGrad)" /><rect x="672.5" y="216.3" width="34.5" height="63.7" rx="2" fill="url(#barGrad)" /><rect x="730.0" y="184.6" width="34.5" height="95.4" rx="2" fill="url(#barGrad)" /><rect x="787.5" y="200.4" width="34.5" height="79.6" rx="2" fill="url(#barGrad)" /><rect x="845.0" y="202.7" width="34.5" height="77.3" rx="2" fill="url(#barGrad)" /><rect x="902.5" y="195.8" width="34.5" height="84.2" rx="2" fill="url(#barGrad)" />
  <polyline fill="none" stroke="#63b3ed" stroke-width="2" points="57.3,235.0 114.8,140.1 172.3,173.8 229.8,183.0 287.3,137.6 344.8,154.7 402.3,166.8 459.8,40.0 517.3,187.6 574.8,140.9 632.3,137.7 689.8,175.7 747.3,171.1 804.8,159.9 862.3,180.6 919.8,172.0"/>
  <circle cx="57.3" cy="40.0" r="2.5" fill="#f6ad55" /><circle cx="114.8" cy="146.0" r="2.5" fill="#f6ad55" /><circle cx="172.3" cy="152.3" r="2.5" fill="#f6ad55" /><circle cx="229.8" cy="149.4" r="2.5" fill="#f6ad55" /><circle cx="287.3" cy="145.5" r="2.5" fill="#f6ad55" /><circle cx="344.8" cy="139.4" r="2.5" fill="#f6ad55" /><circle cx="402.3" cy="142.2" r="2.5" fill="#f6ad55" /><circle cx="459.8" cy="140.4" r="2.5" fill="#f6ad55" /><circle cx="517.3" cy="139.0" r="2.5" fill="#f6ad55" /><circle cx="574.8" cy="158.4" r="2.5" fill="#f6ad55" /><circle cx="632.3" cy="153.8" r="2.5" fill="#f6ad55" /><circle cx="689.8" cy="147.6" r="2.5" fill="#f6ad55" /><circle cx="747.3" cy="164.1" r="2.5" fill="#f6ad55" /><circle cx="804.8" cy="166.0" r="2.5" fill="#f6ad55" /><circle cx="862.3" cy="144.8" r="2.5" fill="#f6ad55" /><circle cx="919.8" cy="160.1" r="2.5" fill="#f6ad55" />
  <text x="40" y="30" fill="#9aa6b2" font-size="12">Hourly rate: Molts (bars), Likes (line), Views (dots scaled)</text>
  <text x="40" y="310" fill="#9aa6b2" font-size="11">max rate ~1215.79 / hour</text>
</svg>