<?xml version="1.0" encoding="UTF-8"?>
<svg xmlns="http://www.w3.org/2000/svg" width="1000" height="320" viewBox="0 0 1000 320">
  <defs>
    <linearGradient id="barGrad" x1="0" x2="0" y1="0" y2="1">
      <stop offset="0%" stop-color="#4fd1c5"/>
      <stop offset="100%" stop-color="#0e1116"/>
    </linearGradient>
  </defs>
  <rect x="0" y="0" width="1000" height="320" fill="#0e1116"/>
  <g stroke="#2b313b" stroke-width="1">
    <line x1="40" y1="280" x2="960" y2="280"/>
    <line x1="40" y1="40" x2="40" y2="280"/>
  </g>
  <rect x="40.0" y="251.6" width="34.5" height="28.4" rx="2" fill="url(#barGrad)" /><rect x="97.5" y="207.5" width="34.5" height="72.5" rx="2" fill="url(#barGrad)" /><rect x="155.0" y="188.0" width="34.5" height="92.0" rx="2" fill="url(#barGrad)" /><rect x="212.5" y="216.2" width="34.5" height="63.8" rx="2" fill="url(#barGrad)" /><rect x="270.0" y="226.7" width="34.5" height="53.3" rx="2" fill="url(#barGrad)" /><rect x="327.5" y="141.9" width="34.5" height="138.1" rx="2" fill="url(#barGrad)" /><rect x="385.0" y="208.1" width="34.5" height="71.9" rx="2" fill="url(#barGrad)" /><rect x="442.5" y="194.9" width="34.5" height="85.1" rx="2" fill="url(#barGrad)" /><rect x="500.0" y="228.1" width="34.5" height="51.9" rx="2" fill="url(#barGrad)" /><rect x="557.5" y="213.8" width="34.5" height="66.2" rx="2" fill="url(#barGrad)" /><rect x="615.0" y="174.5" width="34.5" height="105.5" rx="2" fill="url(#barGrad)" /><rect x="672.5" y="159.4" width="34.5" height="120.6" rx="2" fill="url(#barGrad)" /><rect x="730.0" y="132.8" width="34.5" height="147.2" rx="2" fill="url(#barGrad)" /><rect x="787.5" y="155.7" width="34.5" height="124.3" rx="2" fill="url(#barGrad)" /><rect x="845.0" y="116.4" width="34.5" height="163.6" rx="2" fill="url(#barGrad)" /><rect x="902.5" y="40.0" width="34.5" height="240.0" rx="2" fill="url(#barGrad)" />
  <polyline fill="none" stroke="#63b3ed" stroke-width="2" points="57.3,209.7 114.8,182.4 172.3,181.6 229.8,153.9 287.3,186.9 344.8,177.3 402.3,189.1 459.8,137.0 517.3,195.2 574.8,189.2 632.3,173.0 689.8,175.7 747.3,185.4 804.8,177.5 862.3,183.3 919.8,175.7"/>
  <circle cx="57.3" cy="101.5" r="2.5" fill="#f6ad55" /><circle cx="114.8" cy="116.6" r="2.5" fill="#f6ad55" /><circle cx="172.3" cy="77.4" r="2.5" fill="#f6ad55" /><circle cx="229.8" cy="54.3" r="2.5" fill="#f6ad55" /><circle cx="287.3" cy="49.6" r="2.5" fill="#f6ad55" /><circle cx="344.8" cy="57.5" r="2.5" fill="#f6ad55" /><circle cx="402.3" cy="56.2" r="2.5" fill="#f6ad55" /><circle cx="459.8" cy="56.8" r="2.5" fill="#f6ad55" /><circle cx="517.3" cy="52.9" r="2.5" fill="#f6ad55" /><circle cx="574.8" cy="61.6" r="2.5" fill="#f6ad55" /><circle cx="632.3" cy="61.2" r="2.5" fill="#f6ad55" /><circle cx="689.8" cy="68.8" r="2.5" fill="#f6ad55" /><circle cx="747.3" cy="54.0" r="2.5" fill="#f6ad55" /><circle cx="804.8" cy="63.4" r="2.5" fill="#f6ad55" /><circle cx="862.3" cy="46.4" r="2.5" fill="#f6ad55" /><circle cx="919.8" cy="40.0" r="2.5" fill="#f6ad55" />
  <text x="40" y="30" fill="#9aa6b2" font-size="12">Hourly rate: Molts (bars), Likes (line), Views (dots scaled)</text>
  <text x="40" y="310" fill="#9aa6b2" font-size="11">max rate ~1146.42 / hour</text>
</svg>