<?xml version="1.0" encoding="UTF-8"?>
<svg xmlns="http://www.w3.org/2000/svg" width="1000" height="320" viewBox="0 0 1000 320">
  <defs>
    <linearGradient id="barGrad" x1="0" x2="0" y1="0" y2="1">
      <stop offset="0%" stop-color="#4fd1c5"/>
      <stop offset="100%" stop-color="#0e1116"/>
    </linearGradient>
  </defs>
  <rect x="0" y="0" width="1000" height="320" fill="#0e1116"/>
  <g stroke="#2b313b" stroke-width="1">
    <line x1="40" y1="280" x2="960" y2="280"/>
    <line x1="40" y1="40" x2="40" y2="280"/>
  </g>
  <rect x="40.0" y="264.5" width="24.0" height="15.5" rx="2" fill="url(#barGrad)" /><rect x="80.0" y="220.7" width="24.0" height="59.3" rx="2" fill="url(#barGrad)" /><rect x="120.0" y="231.9" width="24.0" height="48.1" rx="2" fill="url(#barGrad)" /><rect x="160.0" y="233.5" width="24.0" height="46.5" rx="2" fill="url(#barGrad)" /><rect x="200.0" y="207.5" width="24.0" height="72.5" rx="2" fill="url(#barGrad)" /><rect x="240.0" y="208.8" width="24.0" height="71.2" rx="2" fill="url(#barGrad)" /><rect x="280.0" y="213.4" width="24.0" height="66.6" rx="2" fill="url(#barGrad)" /><rect x="320.0" y="174.0" width="24.0" height="106.0" rx="2" fill="url(#barGrad)" /><rect x="360.0" y="230.4" width="24.0" height="49.6" rx="2" fill="url(#barGrad)" /><rect x="400.0" y="198.0" width="24.0" height="82.0" rx="2" fill="url(#barGrad)" /><rect x="440.0" y="201.8" width="24.0" height="78.2" rx="2" fill="url(#barGrad)" /><rect x="480.0" y="216.3" width="24.0" height="63.7" rx="2" fill="url(#barGrad)" /><rect x="520.0" y="184.6" width="24.0" height="95.4" rx="2" fill="url(#barGrad)" /><rect x="560.0" y="200.4" width="24.0" height="79.6" rx="2" fill="url(#barGrad)" /><rect x="600.0" y="202.7" width="24.0" height="77.3" rx="2" fill="url(#barGrad)" /><rect x="640.0" y="204.2" width="24.0" height="75.8" rx="2" fill="url(#barGrad)" /><rect x="680.0" y="210.9" width="24.0" height="69.1" rx="2" fill="url(#barGrad)" /><rect x="720.0" y="203.7" width="24.0" height="76.3" rx="2" fill="url(#barGrad)" /><rect x="760.0" y="194.6" width="24.0" height="85.4" rx="2" fill="url(#barGrad)" /><rect x="800.0" y="206.7" width="24.0" height="73.3" rx="2" fill="url(#barGrad)" /><rect x="840.0" y="221.6" width="24.0" height="58.4" rx="2" fill="url(#barGrad)" /><rect x="880.0" y="222.0" width="24.0" height="58.0" rx="2" fill="url(#barGrad)" /><rect x="920.0" y="208.5" width="24.0" height="71.5" rx="2" fill="url(#barGrad)" />
  <polyline fill="none" stroke="#63b3ed" stroke-width="2" points="52.0,235.0 92.0,140.1 132.0,173.8 172.0,183.0 212.0,137.6 252.0,154.7 292.0,166.8 332.0,40.0 372.0,187.6 412.0,140.9 452.0,137.7 492.0,175.7 532.0,171.1 572.0,159.9 612.0,180.6 652.0,175.4 692.0,155.7 732.0,185.6 772.0,174.6 812.0,164.3 852.0,188.4 892.0,197.5 932.0,182.1"/>
  <circle cx="52.0" cy="40.0" r="2.5" fill="#f6ad55" /><circle cx="92.0" cy="146.0" r="2.5" fill="#f6ad55" /><circle cx="132.0" cy="152.3" r="2.5" fill="#f6ad55" /><circle cx="172.0" cy="149.4" r="2.5" fill="#f6ad55" /><circle cx="212.0" cy="145.5" r="2.5" fill="#f6ad55" /><circle cx="252.0" cy="139.4" r="2.5" fill="#f6ad55" /><circle cx="292.0" cy="142.2" r="2.5" fill="#f6ad55" /><circle cx="332.0" cy="140.4" r="2.5" fill="#f6ad55" /><circle cx="372.0" cy="139.0" r="2.5" fill="#f6ad55" /><circle cx="412.0" cy="158.4" r="2.5" fill="#f6ad55" /><circle cx="452.0" cy="153.8" r="2.5" fill="#f6ad55" /><circle cx="492.0" cy="147.6" r="2.5" fill="#f6ad55" /><circle cx="532.0" cy="164.1" r="2.5" fill="#f6ad55" /><circle cx="572.0" cy="166.0" r="2.5" fill="#f6ad55" /><circle cx="612.0" cy="144.8" r="2.5" fill="#f6ad55" /><circle cx="652.0" cy="171.0" r="2.5" fill="#f6ad55" /><circle cx="692.0" cy="170.4" r="2.5" fill="#f6ad55" /><circle cx="732.0" cy="171.2" r="2.5" fill="#f6ad55" /><circle cx="772.0" cy="181.2" r="2.5" fill="#f6ad55" /><circle cx="812.0" cy="178.6" r="2.5" fill="#f6ad55" /><circle cx="852.0" cy="176.5" r="2.5" fill="#f6ad55" /><circle cx="892.0" cy="177.3" r="2.5" fill="#f6ad55" /><circle cx="932.0" cy="178.0" r="2.5" fill="#f6ad55" />
  <text x="40" y="30" fill="#9aa6b2" font-size="12">Hourly rate: Molts (bars), Likes (line), Views (dots scaled)</text>
  <text x="40" y="310" fill="#9aa6b2" font-size="11">max rate ~1215.79 / hour</text>
</svg>