<?xml version="1.0" encoding="UTF-8"?>
<svg xmlns="http://www.w3.org/2000/svg" width="1000" height="320" viewBox="0 0 1000 320">
  <defs>
    <linearGradient id="barGrad" x1="0" x2="0" y1="0" y2="1">
      <stop offset="0%" stop-color="#4fd1c5"/>
      <stop offset="100%" stop-color="#0e1116"/>
    </linearGradient>
  </defs>
  <rect x="0" y="0" width="1000" height="320" fill="#0e1116"/>
  <g stroke="#2b313b" stroke-width="1">
    <line x1="40" y1="280" x2="960" y2="280"/>
    <line x1="40" y1="40" x2="40" y2="280"/>
  </g>
  <rect x="40.0" y="142.3" width="46.0" height="137.7" rx="2" fill="url(#barGrad)" /><rect x="116.7" y="157.3" width="46.0" height="122.7" rx="2" fill="url(#barGrad)" /><rect x="193.3" y="158.1" width="46.0" height="121.9" rx="2" fill="url(#barGrad)" /><rect x="270.0" y="188.3" width="46.0" height="91.7" rx="2" fill="url(#barGrad)" /><rect x="346.7" y="183.0" width="46.0" height="97.0" rx="2" fill="url(#barGrad)" /><rect x="423.3" y="148.2" width="46.0" height="131.8" rx="2" fill="url(#barGrad)" /><rect x="500.0" y="164.6" width="46.0" height="115.4" rx="2" fill="url(#barGrad)" /><rect x="576.7" y="156.8" width="46.0" height="123.2" rx="2" fill="url(#barGrad)" /><rect x="653.3" y="171.3" width="46.0" height="108.7" rx="2" fill="url(#barGrad)" /><rect x="730.0" y="169.6" width="46.0" height="110.4" rx="2" fill="url(#barGrad)" /><rect x="806.7" y="171.2" width="46.0" height="108.8" rx="2" fill="url(#barGrad)" /><rect x="883.3" y="182.6" width="46.0" height="97.4" rx="2" fill="url(#barGrad)" />
  <polyline fill="none" stroke="#63b3ed" stroke-width="2" points="63.0,82.1 139.7,50.2 216.3,63.7 293.0,96.9 369.7,85.6 446.3,63.0 523.0,40.0 599.7,46.4 676.3,73.6 753.0,67.4 829.7,75.5 906.3,87.6"/>
  <circle cx="63.0" cy="79.1" r="2.5" fill="#f6ad55" /><circle cx="139.7" cy="83.9" r="2.5" fill="#f6ad55" /><circle cx="216.3" cy="55.0" r="2.5" fill="#f6ad55" /><circle cx="293.0" cy="40.0" r="2.5" fill="#f6ad55" /><circle cx="369.7" cy="83.5" r="2.5" fill="#f6ad55" /><circle cx="446.3" cy="93.5" r="2.5" fill="#f6ad55" /><circle cx="523.0" cy="92.6" r="2.5" fill="#f6ad55" /><circle cx="599.7" cy="95.5" r="2.5" fill="#f6ad55" /><circle cx="676.3" cy="112.8" r="2.5" fill="#f6ad55" /><circle cx="753.0" cy="124.4" r="2.5" fill="#f6ad55" /><circle cx="829.7" cy="98.5" r="2.5" fill="#f6ad55" /><circle cx="906.3" cy="97.2" r="2.5" fill="#f6ad55" />
  <text x="40" y="30" fill="#9aa6b2" font-size="12">Hourly rate: Molts (bars), Likes (line), Views (dots scaled)</text>
  <text x="40" y="310" fill="#9aa6b2" font-size="11">max rate ~718.37 / hour</text>
</svg>