<?xml version="1.0" encoding="UTF-8"?>
<svg xmlns="http://www.w3.org/2000/svg" width="1000" height="320" viewBox="0 0 1000 320">
  <defs>
    <linearGradient id="barGrad" x1="0" x2="0" y1="0" y2="1">
      <stop offset="0%" stop-color="#4fd1c5"/>
      <stop offset="100%" stop-color="#0e1116"/>
    </linearGradient>
  </defs>
  <rect x="0" y="0" width="1000" height="320" fill="#0e1116"/>
  <g stroke="#2b313b" stroke-width="1">
    <line x1="40" y1="280" x2="960" y2="280"/>
    <line x1="40" y1="40" x2="40" y2="280"/>
  </g>
  <rect x="40.0" y="265.6" width="22.1" height="14.4" rx="2" fill="url(#barGrad)" /><rect x="76.8" y="243.2" width="22.1" height="36.8" rx="2" fill="url(#barGrad)" /><rect x="113.6" y="233.3" width="22.1" height="46.7" rx="2" fill="url(#barGrad)" /><rect x="150.4" y="247.6" width="22.1" height="32.4" rx="2" fill="url(#barGrad)" /><rect x="187.2" y="252.9" width="22.1" height="27.1" rx="2" fill="url(#barGrad)" /><rect x="224.0" y="209.8" width="22.1" height="70.2" rx="2" fill="url(#barGrad)" /><rect x="260.8" y="243.5" width="22.1" height="36.5" rx="2" fill="url(#barGrad)" /><rect x="297.6" y="236.8" width="22.1" height="43.2" rx="2" fill="url(#barGrad)" /><rect x="334.4" y="253.6" width="22.1" height="26.4" rx="2" fill="url(#barGrad)" /><rect x="371.2" y="246.4" width="22.1" height="33.6" rx="2" fill="url(#barGrad)" /><rect x="408.0" y="226.4" width="22.1" height="53.6" rx="2" fill="url(#barGrad)" /><rect x="444.8" y="218.7" width="22.1" height="61.3" rx="2" fill="url(#barGrad)" /><rect x="481.6" y="205.3" width="22.1" height="74.7" rx="2" fill="url(#barGrad)" /><rect x="518.4" y="216.8" width="22.1" height="63.2" rx="2" fill="url(#barGrad)" /><rect x="555.2" y="196.9" width="22.1" height="83.1" rx="2" fill="url(#barGrad)" /><rect x="592.0" y="158.1" width="22.1" height="121.9" rx="2" fill="url(#barGrad)" /><rect x="628.8" y="40.0" width="22.1" height="240.0" rx="2" fill="url(#barGrad)" /><rect x="665.6" y="148.8" width="22.1" height="131.2" rx="2" fill="url(#barGrad)" /><rect x="702.4" y="199.9" width="22.1" height="80.1" rx="2" fill="url(#barGrad)" /><rect x="739.2" y="202.1" width="22.1" height="77.9" rx="2" fill="url(#barGrad)" /><rect x="776.0" y="220.2" width="22.1" height="59.8" rx="2" fill="url(#barGrad)" /><rect x="812.8" y="243.2" width="22.1" height="36.8" rx="2" fill="url(#barGrad)" /><rect x="849.6" y="252.0" width="22.1" height="28.0" rx="2" fill="url(#barGrad)" /><rect x="886.4" y="242.2" width="22.1" height="37.8" rx="2" fill="url(#barGrad)" /><rect x="923.2" y="250.3" width="22.1" height="29.7" rx="2" fill="url(#barGrad)" />
  <polyline fill="none" stroke="#63b3ed" stroke-width="2" points="51.0,244.3 87.8,230.4 124.6,230.0 161.4,215.9 198.2,232.7 235.0,227.8 271.8,233.8 308.6,207.4 345.4,237.0 382.2,233.9 419.0,225.7 455.8,227.0 492.6,232.0 529.4,227.9 566.2,230.9 603.0,227.0 639.8,232.0 676.6,216.0 713.4,229.4 750.2,222.1 787.0,227.6 823.8,236.8 860.6,236.0 897.4,217.0 934.2,228.9"/>
  <circle cx="51.0" cy="106.6" r="2.5" fill="#f6ad55" /><circle cx="87.8" cy="121.4" r="2.5" fill="#f6ad55" /><circle cx="124.6" cy="83.3" r="2.5" fill="#f6ad55" /><circle cx="161.4" cy="60.8" r="2.5" fill="#f6ad55" /><circle cx="198.2" cy="56.3" r="2.5" fill="#f6ad55" /><circle cx="235.0" cy="63.9" r="2.5" fill="#f6ad55" /><circle cx="271.8" cy="62.7" r="2.5" fill="#f6ad55" /><circle cx="308.6" cy="63.3" r="2.5" fill="#f6ad55" /><circle cx="345.4" cy="59.4" r="2.5" fill="#f6ad55" /><circle cx="382.2" cy="67.9" r="2.5" fill="#f6ad55" /><circle cx="419.0" cy="67.5" r="2.5" fill="#f6ad55" /><circle cx="455.8" cy="74.9" r="2.5" fill="#f6ad55" /><circle cx="492.6" cy="60.5" r="2.5" fill="#f6ad55" /><circle cx="529.4" cy="69.6" r="2.5" fill="#f6ad55" /><circle cx="566.2" cy="53.1" r="2.5" fill="#f6ad55" /><circle cx="603.0" cy="46.9" r="2.5" fill="#f6ad55" /><circle cx="639.8" cy="60.5" r="2.5" fill="#f6ad55" /><circle cx="676.6" cy="62.6" r="2.5" fill="#f6ad55" /><circle cx="713.4" cy="54.6" r="2.5" fill="#f6ad55" /><circle cx="750.2" cy="48.1" r="2.5" fill="#f6ad55" /><circle cx="787.0" cy="40.0" r="2.5" fill="#f6ad55" /><circle cx="823.8" cy="60.6" r="2.5" fill="#f6ad55" /><circle cx="860.6" cy="43.0" r="2.5" fill="#f6ad55" /><circle cx="897.4" cy="42.7" r="2.5" fill="#f6ad55" /><circle cx="934.2" cy="56.3" r="2.5" fill="#f6ad55" />
  <text x="40" y="30" fill="#9aa6b2" font-size="12">Hourly rate: Molts (bars), Likes (line), Views (dots scaled)</text>
  <text x="40" y="310" fill="#9aa6b2" font-size="11">max rate ~2257.04 / hour</text>
</svg>