<?xml version="1.0" encoding="UTF-8"?>
<svg xmlns="http://www.w3.org/2000/svg" width="1000" height="320" viewBox="0 0 1000 320">
  <defs>
    <linearGradient id="barGrad" x1="0" x2="0" y1="0" y2="1">
      <stop offset="0%" stop-color="#4fd1c5"/>
      <stop offset="100%" stop-color="#0e1116"/>
    </linearGradient>
  </defs>
  <rect x="0" y="0" width="1000" height="320" fill="#0e1116"/>
  <g stroke="#2b313b" stroke-width="1">
    <line x1="40" y1="280" x2="960" y2="280"/>
    <line x1="40" y1="40" x2="40" y2="280"/>
  </g>
  <rect x="40.0" y="224.9" width="39.4" height="55.1" rx="2" fill="url(#barGrad)" /><rect x="105.7" y="164.7" width="39.4" height="115.3" rx="2" fill="url(#barGrad)" /><rect x="171.4" y="174.8" width="39.4" height="105.2" rx="2" fill="url(#barGrad)" /><rect x="237.1" y="146.2" width="39.4" height="133.8" rx="2" fill="url(#barGrad)" /><rect x="302.9" y="166.8" width="39.4" height="113.2" rx="2" fill="url(#barGrad)" /><rect x="368.6" y="184.9" width="39.4" height="95.1" rx="2" fill="url(#barGrad)" /><rect x="434.3" y="170.5" width="39.4" height="109.5" rx="2" fill="url(#barGrad)" /><rect x="500.0" y="172.6" width="39.4" height="107.4" rx="2" fill="url(#barGrad)" /><rect x="565.7" y="150.6" width="39.4" height="129.4" rx="2" fill="url(#barGrad)" /><rect x="631.4" y="136.2" width="39.4" height="143.8" rx="2" fill="url(#barGrad)" /><rect x="697.1" y="105.7" width="39.4" height="174.3" rx="2" fill="url(#barGrad)" /><rect x="762.9" y="91.4" width="39.4" height="188.6" rx="2" fill="url(#barGrad)" /><rect x="828.6" y="145.1" width="39.4" height="134.9" rx="2" fill="url(#barGrad)" /><rect x="894.3" y="164.7" width="39.4" height="115.3" rx="2" fill="url(#barGrad)" />
  <polyline fill="none" stroke="#63b3ed" stroke-width="2" points="59.7,152.8 125.4,81.6 191.1,83.0 256.9,47.2 322.6,88.0 388.3,94.2 454.0,67.4 519.7,108.8 585.4,68.3 651.1,62.4 716.9,78.0 782.6,72.0 848.3,40.0 914.0,98.0"/>
  <circle cx="59.7" cy="40.0" r="2.5" fill="#f6ad55" /><circle cx="125.4" cy="161.6" r="2.5" fill="#f6ad55" /><circle cx="191.1" cy="145.5" r="2.5" fill="#f6ad55" /><circle cx="256.9" cy="146.2" r="2.5" fill="#f6ad55" /><circle cx="322.6" cy="141.6" r="2.5" fill="#f6ad55" /><circle cx="388.3" cy="148.6" r="2.5" fill="#f6ad55" /><circle cx="454.0" cy="160.2" r="2.5" fill="#f6ad55" /><circle cx="519.7" cy="157.9" r="2.5" fill="#f6ad55" /><circle cx="585.4" cy="155.3" r="2.5" fill="#f6ad55" /><circle cx="651.1" cy="129.4" r="2.5" fill="#f6ad55" /><circle cx="716.9" cy="126.4" r="2.5" fill="#f6ad55" /><circle cx="782.6" cy="117.0" r="2.5" fill="#f6ad55" /><circle cx="848.3" cy="130.2" r="2.5" fill="#f6ad55" /><circle cx="914.0" cy="156.1" r="2.5" fill="#f6ad55" />
  <text x="40" y="30" fill="#9aa6b2" font-size="12">Hourly rate: Molts (bars), Likes (line), Views (dots scaled)</text>
  <text x="40" y="310" fill="#9aa6b2" font-size="11">max rate ~729.33 / hour</text>
</svg>