<?xml version="1.0" encoding="UTF-8"?>
<svg xmlns="http://www.w3.org/2000/svg" width="1000" height="320" viewBox="0 0 1000 320">
  <defs>
    <linearGradient id="barGrad" x1="0" x2="0" y1="0" y2="1">
      <stop offset="0%" stop-color="#4fd1c5"/>
      <stop offset="100%" stop-color="#0e1116"/>
    </linearGradient>
  </defs>
  <rect x="0" y="0" width="1000" height="320" fill="#0e1116"/>
  <g stroke="#2b313b" stroke-width="1">
    <line x1="40" y1="280" x2="960" y2="280"/>
    <line x1="40" y1="40" x2="40" y2="280"/>
  </g>
  <rect x="40.0" y="260.6" width="36.8" height="19.4" rx="2" fill="url(#barGrad)" /><rect x="101.3" y="216.4" width="36.8" height="63.6" rx="2" fill="url(#barGrad)" /><rect x="162.7" y="229.6" width="36.8" height="50.4" rx="2" fill="url(#barGrad)" /><rect x="224.0" y="232.5" width="36.8" height="47.5" rx="2" fill="url(#barGrad)" /><rect x="285.3" y="221.3" width="36.8" height="58.7" rx="2" fill="url(#barGrad)" /><rect x="346.7" y="225.9" width="36.8" height="54.1" rx="2" fill="url(#barGrad)" /><rect x="408.0" y="230.1" width="36.8" height="49.9" rx="2" fill="url(#barGrad)" /><rect x="469.3" y="222.6" width="36.8" height="57.4" rx="2" fill="url(#barGrad)" /><rect x="530.7" y="130.1" width="36.8" height="149.9" rx="2" fill="url(#barGrad)" /><rect x="592.0" y="216.6" width="36.8" height="63.4" rx="2" fill="url(#barGrad)" /><rect x="653.3" y="206.1" width="36.8" height="73.9" rx="2" fill="url(#barGrad)" /><rect x="714.7" y="184.3" width="36.8" height="95.7" rx="2" fill="url(#barGrad)" /><rect x="776.0" y="193.8" width="36.8" height="86.2" rx="2" fill="url(#barGrad)" /><rect x="837.3" y="227.5" width="36.8" height="52.5" rx="2" fill="url(#barGrad)" /><rect x="898.7" y="232.7" width="36.8" height="47.3" rx="2" fill="url(#barGrad)" />
  <polyline fill="none" stroke="#63b3ed" stroke-width="2" points="58.4,215.7 119.7,155.1 181.1,176.9 242.4,168.8 303.7,160.3 365.1,152.6 426.4,165.3 487.7,164.1 549.1,40.0 610.4,173.9 671.7,167.2 733.1,155.7 794.4,161.7 855.7,159.4 917.1,153.9"/>
  <circle cx="58.4" cy="40.0" r="2.5" fill="#f6ad55" /><circle cx="119.7" cy="75.6" r="2.5" fill="#f6ad55" /><circle cx="181.1" cy="80.5" r="2.5" fill="#f6ad55" /><circle cx="242.4" cy="78.4" r="2.5" fill="#f6ad55" /><circle cx="303.7" cy="70.8" r="2.5" fill="#f6ad55" /><circle cx="365.1" cy="69.7" r="2.5" fill="#f6ad55" /><circle cx="426.4" cy="69.7" r="2.5" fill="#f6ad55" /><circle cx="487.7" cy="89.5" r="2.5" fill="#f6ad55" /><circle cx="549.1" cy="79.7" r="2.5" fill="#f6ad55" /><circle cx="610.4" cy="69.2" r="2.5" fill="#f6ad55" /><circle cx="671.7" cy="73.3" r="2.5" fill="#f6ad55" /><circle cx="733.1" cy="84.1" r="2.5" fill="#f6ad55" /><circle cx="794.4" cy="83.1" r="2.5" fill="#f6ad55" /><circle cx="855.7" cy="71.6" r="2.5" fill="#f6ad55" /><circle cx="917.1" cy="92.4" r="2.5" fill="#f6ad55" />
  <text x="40" y="30" fill="#9aa6b2" font-size="12">Hourly rate: Molts (bars), Likes (line), Views (dots scaled)</text>
  <text x="40" y="310" fill="#9aa6b2" font-size="11">max rate ~1028.14 / hour</text>
</svg>