<?xml version="1.0" encoding="UTF-8"?>
<svg xmlns="http://www.w3.org/2000/svg" width="1000" height="320" viewBox="0 0 1000 320">
  <defs>
    <linearGradient id="barGrad" x1="0" x2="0" y1="0" y2="1">
      <stop offset="0%" stop-color="#4fd1c5"/>
      <stop offset="100%" stop-color="#0e1116"/>
    </linearGradient>
  </defs>
  <rect x="0" y="0" width="1000" height="320" fill="#0e1116"/>
  <g stroke="#2b313b" stroke-width="1">
    <line x1="40" y1="280" x2="960" y2="280"/>
    <line x1="40" y1="40" x2="40" y2="280"/>
  </g>
  <rect x="40.0" y="250.7" width="39.4" height="29.3" rx="2" fill="url(#barGrad)" /><rect x="105.7" y="212.1" width="39.4" height="67.9" rx="2" fill="url(#barGrad)" /><rect x="171.4" y="216.3" width="39.4" height="63.7" rx="2" fill="url(#barGrad)" /><rect x="237.1" y="205.8" width="39.4" height="74.2" rx="2" fill="url(#barGrad)" /><rect x="302.9" y="205.6" width="39.4" height="74.4" rx="2" fill="url(#barGrad)" /><rect x="368.6" y="211.5" width="39.4" height="68.5" rx="2" fill="url(#barGrad)" /><rect x="434.3" y="218.1" width="39.4" height="61.9" rx="2" fill="url(#barGrad)" /><rect x="500.0" y="227.6" width="39.4" height="52.4" rx="2" fill="url(#barGrad)" /><rect x="565.7" y="210.5" width="39.4" height="69.5" rx="2" fill="url(#barGrad)" /><rect x="631.4" y="75.8" width="39.4" height="204.2" rx="2" fill="url(#barGrad)" /><rect x="697.1" y="40.0" width="39.4" height="240.0" rx="2" fill="url(#barGrad)" /><rect x="762.9" y="191.8" width="39.4" height="88.2" rx="2" fill="url(#barGrad)" /><rect x="828.6" y="171.4" width="39.4" height="108.6" rx="2" fill="url(#barGrad)" /><rect x="894.3" y="195.6" width="39.4" height="84.4" rx="2" fill="url(#barGrad)" />
  <polyline fill="none" stroke="#63b3ed" stroke-width="2" points="59.7,170.7 125.4,219.3 191.1,179.9 256.9,166.7 322.6,148.3 388.3,166.9 454.0,148.2 519.7,171.8 585.4,137.4 651.1,123.9 716.9,76.0 782.6,122.4 848.3,97.1 914.0,103.7"/>
  <circle cx="59.7" cy="68.1" r="2.5" fill="#f6ad55" /><circle cx="125.4" cy="40.0" r="2.5" fill="#f6ad55" /><circle cx="191.1" cy="64.3" r="2.5" fill="#f6ad55" /><circle cx="256.9" cy="97.6" r="2.5" fill="#f6ad55" /><circle cx="322.6" cy="119.2" r="2.5" fill="#f6ad55" /><circle cx="388.3" cy="112.6" r="2.5" fill="#f6ad55" /><circle cx="454.0" cy="64.5" r="2.5" fill="#f6ad55" /><circle cx="519.7" cy="89.5" r="2.5" fill="#f6ad55" /><circle cx="585.4" cy="120.0" r="2.5" fill="#f6ad55" /><circle cx="651.1" cy="106.9" r="2.5" fill="#f6ad55" /><circle cx="716.9" cy="77.5" r="2.5" fill="#f6ad55" /><circle cx="782.6" cy="88.5" r="2.5" fill="#f6ad55" /><circle cx="848.3" cy="48.3" r="2.5" fill="#f6ad55" /><circle cx="914.0" cy="45.8" r="2.5" fill="#f6ad55" />
  <text x="40" y="30" fill="#9aa6b2" font-size="12">Hourly rate: Molts (bars), Likes (line), Views (dots scaled)</text>
  <text x="40" y="310" fill="#9aa6b2" font-size="11">max rate ~787.56 / hour</text>
</svg>