<?xml version="1.0" encoding="UTF-8"?>
<svg xmlns="http://www.w3.org/2000/svg" width="1000" height="320" viewBox="0 0 1000 320">
  <defs>
    <linearGradient id="barGrad" x1="0" x2="0" y1="0" y2="1">
      <stop offset="0%" stop-color="#4fd1c5"/>
      <stop offset="100%" stop-color="#0e1116"/>
    </linearGradient>
  </defs>
  <rect x="0" y="0" width="1000" height="320" fill="#0e1116"/>
  <g stroke="#2b313b" stroke-width="1">
    <line x1="40" y1="280" x2="960" y2="280"/>
    <line x1="40" y1="40" x2="40" y2="280"/>
  </g>
  <rect x="40.0" y="233.9" width="25.1" height="46.1" rx="2" fill="url(#barGrad)" /><rect x="81.8" y="202.1" width="25.1" height="77.9" rx="2" fill="url(#barGrad)" /><rect x="123.6" y="215.7" width="25.1" height="64.3" rx="2" fill="url(#barGrad)" /><rect x="165.5" y="204.2" width="25.1" height="75.8" rx="2" fill="url(#barGrad)" /><rect x="207.3" y="206.8" width="25.1" height="73.2" rx="2" fill="url(#barGrad)" /><rect x="249.1" y="205.4" width="25.1" height="74.6" rx="2" fill="url(#barGrad)" /><rect x="290.9" y="178.4" width="25.1" height="101.6" rx="2" fill="url(#barGrad)" /><rect x="332.7" y="206.8" width="25.1" height="73.2" rx="2" fill="url(#barGrad)" /><rect x="374.5" y="198.1" width="25.1" height="81.9" rx="2" fill="url(#barGrad)" /><rect x="416.4" y="194.1" width="25.1" height="85.9" rx="2" fill="url(#barGrad)" /><rect x="458.2" y="199.8" width="25.1" height="80.2" rx="2" fill="url(#barGrad)" /><rect x="500.0" y="214.6" width="25.1" height="65.4" rx="2" fill="url(#barGrad)" /><rect x="541.8" y="173.7" width="25.1" height="106.3" rx="2" fill="url(#barGrad)" /><rect x="583.6" y="190.9" width="25.1" height="89.1" rx="2" fill="url(#barGrad)" /><rect x="625.5" y="176.4" width="25.1" height="103.6" rx="2" fill="url(#barGrad)" /><rect x="667.3" y="183.7" width="25.1" height="96.3" rx="2" fill="url(#barGrad)" /><rect x="709.1" y="150.4" width="25.1" height="129.6" rx="2" fill="url(#barGrad)" /><rect x="750.9" y="172.6" width="25.1" height="107.4" rx="2" fill="url(#barGrad)" /><rect x="792.7" y="197.8" width="25.1" height="82.2" rx="2" fill="url(#barGrad)" /><rect x="834.5" y="214.8" width="25.1" height="65.2" rx="2" fill="url(#barGrad)" /><rect x="876.4" y="200.3" width="25.1" height="79.7" rx="2" fill="url(#barGrad)" /><rect x="918.2" y="193.9" width="25.1" height="86.1" rx="2" fill="url(#barGrad)" />
  <polyline fill="none" stroke="#63b3ed" stroke-width="2" points="52.5,169.1 94.4,110.8 136.2,121.9 178.0,122.5 219.8,113.0 261.6,103.1 303.5,67.7 345.3,122.3 387.1,131.6 428.9,125.4 470.7,120.5 512.5,141.4 554.4,98.1 596.2,110.6 638.0,64.6 679.8,62.7 721.6,44.3 763.5,40.0 805.3,98.5 847.1,94.0 888.9,63.7 930.7,91.2"/>
  <circle cx="52.5" cy="40.0" r="2.5" fill="#f6ad55" /><circle cx="94.4" cy="86.6" r="2.5" fill="#f6ad55" /><circle cx="136.2" cy="78.3" r="2.5" fill="#f6ad55" /><circle cx="178.0" cy="81.9" r="2.5" fill="#f6ad55" /><circle cx="219.8" cy="94.8" r="2.5" fill="#f6ad55" /><circle cx="261.6" cy="68.0" r="2.5" fill="#f6ad55" /><circle cx="303.5" cy="99.2" r="2.5" fill="#f6ad55" /><circle cx="345.3" cy="97.0" r="2.5" fill="#f6ad55" /><circle cx="387.1" cy="92.0" r="2.5" fill="#f6ad55" /><circle cx="428.9" cy="87.4" r="2.5" fill="#f6ad55" /><circle cx="470.7" cy="71.3" r="2.5" fill="#f6ad55" /><circle cx="512.5" cy="84.0" r="2.5" fill="#f6ad55" /><circle cx="554.4" cy="82.4" r="2.5" fill="#f6ad55" /><circle cx="596.2" cy="85.0" r="2.5" fill="#f6ad55" /><circle cx="638.0" cy="104.1" r="2.5" fill="#f6ad55" /><circle cx="679.8" cy="90.9" r="2.5" fill="#f6ad55" /><circle cx="721.6" cy="63.4" r="2.5" fill="#f6ad55" /><circle cx="763.5" cy="82.0" r="2.5" fill="#f6ad55" /><circle cx="805.3" cy="72.5" r="2.5" fill="#f6ad55" /><circle cx="847.1" cy="67.4" r="2.5" fill="#f6ad55" /><circle cx="888.9" cy="64.0" r="2.5" fill="#f6ad55" /><circle cx="930.7" cy="81.5" r="2.5" fill="#f6ad55" />
  <text x="40" y="30" fill="#9aa6b2" font-size="12">Hourly rate: Molts (bars), Likes (line), Views (dots scaled)</text>
  <text x="40" y="310" fill="#9aa6b2" font-size="11">max rate ~907.34 / hour</text>
</svg>