<?xml version="1.0" encoding="UTF-8"?>
<svg xmlns="http://www.w3.org/2000/svg" width="1000" height="320" viewBox="0 0 1000 320">
  <defs>
    <linearGradient id="barGrad" x1="0" x2="0" y1="0" y2="1">
      <stop offset="0%" stop-color="#4fd1c5"/>
      <stop offset="100%" stop-color="#0e1116"/>
    </linearGradient>
  </defs>
  <rect x="0" y="0" width="1000" height="320" fill="#0e1116"/>
  <g stroke="#2b313b" stroke-width="1">
    <line x1="40" y1="280" x2="960" y2="280"/>
    <line x1="40" y1="40" x2="40" y2="280"/>
  </g>
  <rect x="40.0" y="260.6" width="39.4" height="19.4" rx="2" fill="url(#barGrad)" /><rect x="105.7" y="216.4" width="39.4" height="63.6" rx="2" fill="url(#barGrad)" /><rect x="171.4" y="229.6" width="39.4" height="50.4" rx="2" fill="url(#barGrad)" /><rect x="237.1" y="232.5" width="39.4" height="47.5" rx="2" fill="url(#barGrad)" /><rect x="302.9" y="221.3" width="39.4" height="58.7" rx="2" fill="url(#barGrad)" /><rect x="368.6" y="225.9" width="39.4" height="54.1" rx="2" fill="url(#barGrad)" /><rect x="434.3" y="230.1" width="39.4" height="49.9" rx="2" fill="url(#barGrad)" /><rect x="500.0" y="222.6" width="39.4" height="57.4" rx="2" fill="url(#barGrad)" /><rect x="565.7" y="130.1" width="39.4" height="149.9" rx="2" fill="url(#barGrad)" /><rect x="631.4" y="216.6" width="39.4" height="63.4" rx="2" fill="url(#barGrad)" /><rect x="697.1" y="206.1" width="39.4" height="73.9" rx="2" fill="url(#barGrad)" /><rect x="762.9" y="184.3" width="39.4" height="95.7" rx="2" fill="url(#barGrad)" /><rect x="828.6" y="193.8" width="39.4" height="86.2" rx="2" fill="url(#barGrad)" /><rect x="894.3" y="227.5" width="39.4" height="52.5" rx="2" fill="url(#barGrad)" />
  <polyline fill="none" stroke="#63b3ed" stroke-width="2" points="59.7,215.7 125.4,155.1 191.1,176.9 256.9,168.8 322.6,160.3 388.3,152.6 454.0,165.3 519.7,164.1 585.4,40.0 651.1,173.9 716.9,167.2 782.6,155.7 848.3,161.7 914.0,159.4"/>
  <circle cx="59.7" cy="40.0" r="2.5" fill="#f6ad55" /><circle cx="125.4" cy="75.6" r="2.5" fill="#f6ad55" /><circle cx="191.1" cy="80.5" r="2.5" fill="#f6ad55" /><circle cx="256.9" cy="78.4" r="2.5" fill="#f6ad55" /><circle cx="322.6" cy="70.8" r="2.5" fill="#f6ad55" /><circle cx="388.3" cy="69.7" r="2.5" fill="#f6ad55" /><circle cx="454.0" cy="69.7" r="2.5" fill="#f6ad55" /><circle cx="519.7" cy="89.5" r="2.5" fill="#f6ad55" /><circle cx="585.4" cy="79.7" r="2.5" fill="#f6ad55" /><circle cx="651.1" cy="69.2" r="2.5" fill="#f6ad55" /><circle cx="716.9" cy="73.3" r="2.5" fill="#f6ad55" /><circle cx="782.6" cy="84.1" r="2.5" fill="#f6ad55" /><circle cx="848.3" cy="83.1" r="2.5" fill="#f6ad55" /><circle cx="914.0" cy="71.6" r="2.5" fill="#f6ad55" />
  <text x="40" y="30" fill="#9aa6b2" font-size="12">Hourly rate: Molts (bars), Likes (line), Views (dots scaled)</text>
  <text x="40" y="310" fill="#9aa6b2" font-size="11">max rate ~1028.14 / hour</text>
</svg>