<?xml version="1.0" encoding="UTF-8"?>
<svg xmlns="http://www.w3.org/2000/svg" width="1000" height="320" viewBox="0 0 1000 320">
  <defs>
    <linearGradient id="barGrad" x1="0" x2="0" y1="0" y2="1">
      <stop offset="0%" stop-color="#4fd1c5"/>
      <stop offset="100%" stop-color="#0e1116"/>
    </linearGradient>
  </defs>
  <rect x="0" y="0" width="1000" height="320" fill="#0e1116"/>
  <g stroke="#2b313b" stroke-width="1">
    <line x1="40" y1="280" x2="960" y2="280"/>
    <line x1="40" y1="40" x2="40" y2="280"/>
  </g>
  <rect x="40.0" y="255.1" width="39.4" height="24.9" rx="2" fill="url(#barGrad)" /><rect x="105.7" y="190.5" width="39.4" height="89.5" rx="2" fill="url(#barGrad)" /><rect x="171.4" y="210.2" width="39.4" height="69.8" rx="2" fill="url(#barGrad)" /><rect x="237.1" y="196.7" width="39.4" height="83.3" rx="2" fill="url(#barGrad)" /><rect x="302.9" y="191.2" width="39.4" height="88.8" rx="2" fill="url(#barGrad)" /><rect x="368.6" y="181.7" width="39.4" height="98.3" rx="2" fill="url(#barGrad)" /><rect x="434.3" y="170.7" width="39.4" height="109.3" rx="2" fill="url(#barGrad)" /><rect x="500.0" y="170.1" width="39.4" height="109.9" rx="2" fill="url(#barGrad)" /><rect x="565.7" y="206.2" width="39.4" height="73.8" rx="2" fill="url(#barGrad)" /><rect x="631.4" y="198.1" width="39.4" height="81.9" rx="2" fill="url(#barGrad)" /><rect x="697.1" y="189.9" width="39.4" height="90.1" rx="2" fill="url(#barGrad)" /><rect x="762.9" y="193.8" width="39.4" height="86.2" rx="2" fill="url(#barGrad)" /><rect x="828.6" y="182.9" width="39.4" height="97.1" rx="2" fill="url(#barGrad)" /><rect x="894.3" y="172.8" width="39.4" height="107.2" rx="2" fill="url(#barGrad)" />
  <polyline fill="none" stroke="#63b3ed" stroke-width="2" points="59.7,197.2 125.4,59.3 191.1,90.7 256.9,65.9 322.6,70.7 388.3,57.9 454.0,40.0 519.7,51.3 585.4,133.5 651.1,111.0 716.9,112.9 782.6,87.0 848.3,62.2 914.0,63.4"/>
  <circle cx="59.7" cy="106.2" r="2.5" fill="#f6ad55" /><circle cx="125.4" cy="101.0" r="2.5" fill="#f6ad55" /><circle cx="191.1" cy="84.0" r="2.5" fill="#f6ad55" /><circle cx="256.9" cy="58.5" r="2.5" fill="#f6ad55" /><circle cx="322.6" cy="62.7" r="2.5" fill="#f6ad55" /><circle cx="388.3" cy="40.0" r="2.5" fill="#f6ad55" /><circle cx="454.0" cy="50.2" r="2.5" fill="#f6ad55" /><circle cx="519.7" cy="50.7" r="2.5" fill="#f6ad55" /><circle cx="585.4" cy="70.0" r="2.5" fill="#f6ad55" /><circle cx="651.1" cy="78.6" r="2.5" fill="#f6ad55" /><circle cx="716.9" cy="90.7" r="2.5" fill="#f6ad55" /><circle cx="782.6" cy="90.6" r="2.5" fill="#f6ad55" /><circle cx="848.3" cy="94.7" r="2.5" fill="#f6ad55" /><circle cx="914.0" cy="103.9" r="2.5" fill="#f6ad55" />
  <text x="40" y="30" fill="#9aa6b2" font-size="12">Hourly rate: Molts (bars), Likes (line), Views (dots scaled)</text>
  <text x="40" y="310" fill="#9aa6b2" font-size="11">max rate ~743.65 / hour</text>
</svg>