<?xml version="1.0" encoding="UTF-8"?>
<svg xmlns="http://www.w3.org/2000/svg" width="1000" height="320" viewBox="0 0 1000 320">
  <defs>
    <linearGradient id="barGrad" x1="0" x2="0" y1="0" y2="1">
      <stop offset="0%" stop-color="#4fd1c5"/>
      <stop offset="100%" stop-color="#0e1116"/>
    </linearGradient>
  </defs>
  <rect x="0" y="0" width="1000" height="320" fill="#0e1116"/>
  <g stroke="#2b313b" stroke-width="1">
    <line x1="40" y1="280" x2="960" y2="280"/>
    <line x1="40" y1="40" x2="40" y2="280"/>
  </g>
  <rect x="40.0" y="265.6" width="23.0" height="14.4" rx="2" fill="url(#barGrad)" /><rect x="78.3" y="243.2" width="23.0" height="36.8" rx="2" fill="url(#barGrad)" /><rect x="116.7" y="233.3" width="23.0" height="46.7" rx="2" fill="url(#barGrad)" /><rect x="155.0" y="247.6" width="23.0" height="32.4" rx="2" fill="url(#barGrad)" /><rect x="193.3" y="252.9" width="23.0" height="27.1" rx="2" fill="url(#barGrad)" /><rect x="231.7" y="209.8" width="23.0" height="70.2" rx="2" fill="url(#barGrad)" /><rect x="270.0" y="243.5" width="23.0" height="36.5" rx="2" fill="url(#barGrad)" /><rect x="308.3" y="236.8" width="23.0" height="43.2" rx="2" fill="url(#barGrad)" /><rect x="346.7" y="253.6" width="23.0" height="26.4" rx="2" fill="url(#barGrad)" /><rect x="385.0" y="246.4" width="23.0" height="33.6" rx="2" fill="url(#barGrad)" /><rect x="423.3" y="226.4" width="23.0" height="53.6" rx="2" fill="url(#barGrad)" /><rect x="461.7" y="218.7" width="23.0" height="61.3" rx="2" fill="url(#barGrad)" /><rect x="500.0" y="205.3" width="23.0" height="74.7" rx="2" fill="url(#barGrad)" /><rect x="538.3" y="216.8" width="23.0" height="63.2" rx="2" fill="url(#barGrad)" /><rect x="576.7" y="196.9" width="23.0" height="83.1" rx="2" fill="url(#barGrad)" /><rect x="615.0" y="158.1" width="23.0" height="121.9" rx="2" fill="url(#barGrad)" /><rect x="653.3" y="40.0" width="23.0" height="240.0" rx="2" fill="url(#barGrad)" /><rect x="691.7" y="148.8" width="23.0" height="131.2" rx="2" fill="url(#barGrad)" /><rect x="730.0" y="199.9" width="23.0" height="80.1" rx="2" fill="url(#barGrad)" /><rect x="768.3" y="202.1" width="23.0" height="77.9" rx="2" fill="url(#barGrad)" /><rect x="806.7" y="220.2" width="23.0" height="59.8" rx="2" fill="url(#barGrad)" /><rect x="845.0" y="243.2" width="23.0" height="36.8" rx="2" fill="url(#barGrad)" /><rect x="883.3" y="252.0" width="23.0" height="28.0" rx="2" fill="url(#barGrad)" /><rect x="921.7" y="239.0" width="23.0" height="41.0" rx="2" fill="url(#barGrad)" />
  <polyline fill="none" stroke="#63b3ed" stroke-width="2" points="51.5,244.3 89.8,230.4 128.2,230.0 166.5,215.9 204.8,232.7 243.2,227.8 281.5,233.8 319.8,207.4 358.2,237.0 396.5,233.9 434.8,225.7 473.2,227.0 511.5,232.0 549.8,227.9 588.2,230.9 626.5,227.0 664.8,232.0 703.2,216.0 741.5,229.4 779.8,222.1 818.2,227.6 856.5,236.8 894.8,236.0 933.2,209.8"/>
  <circle cx="51.5" cy="107.6" r="2.5" fill="#f6ad55" /><circle cx="89.8" cy="122.2" r="2.5" fill="#f6ad55" /><circle cx="128.2" cy="84.3" r="2.5" fill="#f6ad55" /><circle cx="166.5" cy="62.0" r="2.5" fill="#f6ad55" /><circle cx="204.8" cy="57.5" r="2.5" fill="#f6ad55" /><circle cx="243.2" cy="65.1" r="2.5" fill="#f6ad55" /><circle cx="281.5" cy="63.8" r="2.5" fill="#f6ad55" /><circle cx="319.8" cy="64.5" r="2.5" fill="#f6ad55" /><circle cx="358.2" cy="60.6" r="2.5" fill="#f6ad55" /><circle cx="396.5" cy="69.0" r="2.5" fill="#f6ad55" /><circle cx="434.8" cy="68.6" r="2.5" fill="#f6ad55" /><circle cx="473.2" cy="76.0" r="2.5" fill="#f6ad55" /><circle cx="511.5" cy="61.7" r="2.5" fill="#f6ad55" /><circle cx="549.8" cy="70.8" r="2.5" fill="#f6ad55" /><circle cx="588.2" cy="54.4" r="2.5" fill="#f6ad55" /><circle cx="626.5" cy="48.2" r="2.5" fill="#f6ad55" /><circle cx="664.8" cy="61.7" r="2.5" fill="#f6ad55" /><circle cx="703.2" cy="63.8" r="2.5" fill="#f6ad55" /><circle cx="741.5" cy="55.8" r="2.5" fill="#f6ad55" /><circle cx="779.8" cy="49.4" r="2.5" fill="#f6ad55" /><circle cx="818.2" cy="41.3" r="2.5" fill="#f6ad55" /><circle cx="856.5" cy="61.7" r="2.5" fill="#f6ad55" /><circle cx="894.8" cy="44.3" r="2.5" fill="#f6ad55" /><circle cx="933.2" cy="40.0" r="2.5" fill="#f6ad55" />
  <text x="40" y="30" fill="#9aa6b2" font-size="12">Hourly rate: Molts (bars), Likes (line), Views (dots scaled)</text>
  <text x="40" y="310" fill="#9aa6b2" font-size="11">max rate ~2257.04 / hour</text>
</svg>