<?xml version="1.0" encoding="UTF-8"?>
<svg xmlns="http://www.w3.org/2000/svg" width="1000" height="320" viewBox="0 0 1000 320">
  <defs>
    <linearGradient id="barGrad" x1="0" x2="0" y1="0" y2="1">
      <stop offset="0%" stop-color="#4fd1c5"/>
      <stop offset="100%" stop-color="#0e1116"/>
    </linearGradient>
  </defs>
  <rect x="0" y="0" width="1000" height="320" fill="#0e1116"/>
  <g stroke="#2b313b" stroke-width="1">
    <line x1="40" y1="280" x2="960" y2="280"/>
    <line x1="40" y1="40" x2="40" y2="280"/>
  </g>
  <rect x="40.0" y="40.0" width="39.4" height="240.0" rx="2" fill="url(#barGrad)" /><rect x="105.7" y="130.6" width="39.4" height="149.4" rx="2" fill="url(#barGrad)" /><rect x="171.4" y="264.2" width="39.4" height="15.8" rx="2" fill="url(#barGrad)" /><rect x="237.1" y="263.6" width="39.4" height="16.4" rx="2" fill="url(#barGrad)" /><rect x="302.9" y="259.3" width="39.4" height="20.7" rx="2" fill="url(#barGrad)" /><rect x="368.6" y="256.8" width="39.4" height="23.2" rx="2" fill="url(#barGrad)" /><rect x="434.3" y="263.6" width="39.4" height="16.4" rx="2" fill="url(#barGrad)" /><rect x="500.0" y="258.7" width="39.4" height="21.3" rx="2" fill="url(#barGrad)" /><rect x="565.7" y="262.3" width="39.4" height="17.7" rx="2" fill="url(#barGrad)" /><rect x="631.4" y="258.4" width="39.4" height="21.6" rx="2" fill="url(#barGrad)" /><rect x="697.1" y="258.7" width="39.4" height="21.3" rx="2" fill="url(#barGrad)" /><rect x="762.9" y="233.1" width="39.4" height="46.9" rx="2" fill="url(#barGrad)" /><rect x="828.6" y="178.1" width="39.4" height="101.9" rx="2" fill="url(#barGrad)" /><rect x="894.3" y="236.0" width="39.4" height="44.0" rx="2" fill="url(#barGrad)" />
  <polyline fill="none" stroke="#63b3ed" stroke-width="2" points="59.7,239.6 125.4,244.1 191.1,242.8 256.9,249.5 322.6,241.8 388.3,249.3 454.0,245.9 519.7,253.0 585.4,256.6 651.1,247.6 716.9,246.5 782.6,243.3 848.3,239.7 914.0,222.8"/>
  <circle cx="59.7" cy="58.4" r="2.5" fill="#f6ad55" /><circle cx="125.4" cy="41.8" r="2.5" fill="#f6ad55" /><circle cx="191.1" cy="54.4" r="2.5" fill="#f6ad55" /><circle cx="256.9" cy="48.0" r="2.5" fill="#f6ad55" /><circle cx="322.6" cy="45.2" r="2.5" fill="#f6ad55" /><circle cx="388.3" cy="40.0" r="2.5" fill="#f6ad55" /><circle cx="454.0" cy="56.2" r="2.5" fill="#f6ad55" /><circle cx="519.7" cy="73.1" r="2.5" fill="#f6ad55" /><circle cx="585.4" cy="66.2" r="2.5" fill="#f6ad55" /><circle cx="651.1" cy="90.5" r="2.5" fill="#f6ad55" /><circle cx="716.9" cy="74.6" r="2.5" fill="#f6ad55" /><circle cx="782.6" cy="80.2" r="2.5" fill="#f6ad55" /><circle cx="848.3" cy="53.3" r="2.5" fill="#f6ad55" /><circle cx="914.0" cy="89.8" r="2.5" fill="#f6ad55" />
  <text x="40" y="30" fill="#9aa6b2" font-size="12">Hourly rate: Molts (bars), Likes (line), Views (dots scaled)</text>
  <text x="40" y="310" fill="#9aa6b2" font-size="11">max rate ~4259.25 / hour</text>
</svg>