<?xml version="1.0" encoding="UTF-8"?>
<svg xmlns="http://www.w3.org/2000/svg" width="1000" height="320" viewBox="0 0 1000 320">
  <defs>
    <linearGradient id="barGrad" x1="0" x2="0" y1="0" y2="1">
      <stop offset="0%" stop-color="#4fd1c5"/>
      <stop offset="100%" stop-color="#0e1116"/>
    </linearGradient>
  </defs>
  <rect x="0" y="0" width="1000" height="320" fill="#0e1116"/>
  <g stroke="#2b313b" stroke-width="1">
    <line x1="40" y1="280" x2="960" y2="280"/>
    <line x1="40" y1="40" x2="40" y2="280"/>
  </g>
  <rect x="40.0" y="230.1" width="36.8" height="49.9" rx="2" fill="url(#barGrad)" /><rect x="101.3" y="195.6" width="36.8" height="84.4" rx="2" fill="url(#barGrad)" /><rect x="162.7" y="210.3" width="36.8" height="69.7" rx="2" fill="url(#barGrad)" /><rect x="224.0" y="197.8" width="36.8" height="82.2" rx="2" fill="url(#barGrad)" /><rect x="285.3" y="200.7" width="36.8" height="79.3" rx="2" fill="url(#barGrad)" /><rect x="346.7" y="199.1" width="36.8" height="80.9" rx="2" fill="url(#barGrad)" /><rect x="408.0" y="169.9" width="36.8" height="110.1" rx="2" fill="url(#barGrad)" /><rect x="469.3" y="200.7" width="36.8" height="79.3" rx="2" fill="url(#barGrad)" /><rect x="530.7" y="191.3" width="36.8" height="88.7" rx="2" fill="url(#barGrad)" /><rect x="592.0" y="186.9" width="36.8" height="93.1" rx="2" fill="url(#barGrad)" /><rect x="653.3" y="193.1" width="36.8" height="86.9" rx="2" fill="url(#barGrad)" /><rect x="714.7" y="209.1" width="36.8" height="70.9" rx="2" fill="url(#barGrad)" /><rect x="776.0" y="164.8" width="36.8" height="115.2" rx="2" fill="url(#barGrad)" /><rect x="837.3" y="183.4" width="36.8" height="96.6" rx="2" fill="url(#barGrad)" /><rect x="898.7" y="190.1" width="36.8" height="89.9" rx="2" fill="url(#barGrad)" />
  <polyline fill="none" stroke="#63b3ed" stroke-width="2" points="58.4,159.8 119.7,96.6 181.1,108.6 242.4,109.3 303.7,99.0 365.1,88.3 426.4,49.9 487.7,109.1 549.1,119.2 610.4,112.4 671.7,107.1 733.1,129.8 794.4,82.8 855.7,96.4 917.1,40.0"/>
  <circle cx="58.4" cy="40.0" r="2.5" fill="#f6ad55" /><circle cx="119.7" cy="86.6" r="2.5" fill="#f6ad55" /><circle cx="181.1" cy="78.3" r="2.5" fill="#f6ad55" /><circle cx="242.4" cy="81.9" r="2.5" fill="#f6ad55" /><circle cx="303.7" cy="94.8" r="2.5" fill="#f6ad55" /><circle cx="365.1" cy="68.0" r="2.5" fill="#f6ad55" /><circle cx="426.4" cy="99.2" r="2.5" fill="#f6ad55" /><circle cx="487.7" cy="97.0" r="2.5" fill="#f6ad55" /><circle cx="549.1" cy="92.0" r="2.5" fill="#f6ad55" /><circle cx="610.4" cy="87.4" r="2.5" fill="#f6ad55" /><circle cx="671.7" cy="71.3" r="2.5" fill="#f6ad55" /><circle cx="733.1" cy="84.0" r="2.5" fill="#f6ad55" /><circle cx="794.4" cy="82.4" r="2.5" fill="#f6ad55" /><circle cx="855.7" cy="85.0" r="2.5" fill="#f6ad55" /><circle cx="917.1" cy="90.7" r="2.5" fill="#f6ad55" />
  <text x="40" y="30" fill="#9aa6b2" font-size="12">Hourly rate: Molts (bars), Likes (line), Views (dots scaled)</text>
  <text x="40" y="310" fill="#9aa6b2" font-size="11">max rate ~837.16 / hour</text>
</svg>