<?xml version="1.0" encoding="UTF-8"?>
<svg xmlns="http://www.w3.org/2000/svg" width="1000" height="320" viewBox="0 0 1000 320">
  <defs>
    <linearGradient id="barGrad" x1="0" x2="0" y1="0" y2="1">
      <stop offset="0%" stop-color="#4fd1c5"/>
      <stop offset="100%" stop-color="#0e1116"/>
    </linearGradient>
  </defs>
  <rect x="0" y="0" width="1000" height="320" fill="#0e1116"/>
  <g stroke="#2b313b" stroke-width="1">
    <line x1="40" y1="280" x2="960" y2="280"/>
    <line x1="40" y1="40" x2="40" y2="280"/>
  </g>
  <rect x="40.0" y="232.3" width="50.2" height="47.7" rx="2" fill="url(#barGrad)" /><rect x="123.6" y="158.4" width="50.2" height="121.6" rx="2" fill="url(#barGrad)" /><rect x="207.3" y="125.6" width="50.2" height="154.4" rx="2" fill="url(#barGrad)" /><rect x="290.9" y="172.9" width="50.2" height="107.1" rx="2" fill="url(#barGrad)" /><rect x="374.5" y="190.6" width="50.2" height="89.4" rx="2" fill="url(#barGrad)" /><rect x="458.2" y="48.2" width="50.2" height="231.8" rx="2" fill="url(#barGrad)" /><rect x="541.8" y="159.4" width="50.2" height="120.6" rx="2" fill="url(#barGrad)" /><rect x="625.5" y="137.2" width="50.2" height="142.8" rx="2" fill="url(#barGrad)" /><rect x="709.1" y="192.9" width="50.2" height="87.1" rx="2" fill="url(#barGrad)" /><rect x="792.7" y="169.0" width="50.2" height="111.0" rx="2" fill="url(#barGrad)" /><rect x="876.4" y="102.7" width="50.2" height="177.3" rx="2" fill="url(#barGrad)" />
  <polyline fill="none" stroke="#63b3ed" stroke-width="2" points="65.1,162.1 148.7,116.3 232.4,114.9 316.0,68.3 399.6,123.8 483.3,107.6 566.9,127.5 650.5,40.0 734.2,137.8 817.8,127.7 901.5,90.2"/>
  <circle cx="65.1" cy="94.0" r="2.5" fill="#f6ad55" /><circle cx="148.7" cy="109.8" r="2.5" fill="#f6ad55" /><circle cx="232.4" cy="69.0" r="2.5" fill="#f6ad55" /><circle cx="316.0" cy="44.9" r="2.5" fill="#f6ad55" /><circle cx="399.6" cy="40.0" r="2.5" fill="#f6ad55" /><circle cx="483.3" cy="48.2" r="2.5" fill="#f6ad55" /><circle cx="566.9" cy="46.9" r="2.5" fill="#f6ad55" /><circle cx="650.5" cy="47.5" r="2.5" fill="#f6ad55" /><circle cx="734.2" cy="43.4" r="2.5" fill="#f6ad55" /><circle cx="817.8" cy="52.4" r="2.5" fill="#f6ad55" /><circle cx="901.5" cy="46.6" r="2.5" fill="#f6ad55" />
  <text x="40" y="30" fill="#9aa6b2" font-size="12">Hourly rate: Molts (bars), Likes (line), Views (dots scaled)</text>
  <text x="40" y="310" fill="#9aa6b2" font-size="11">max rate ~683.13 / hour</text>
</svg>