<?xml version="1.0" encoding="UTF-8"?>
<svg xmlns="http://www.w3.org/2000/svg" width="1000" height="320" viewBox="0 0 1000 320">
  <defs>
    <linearGradient id="barGrad" x1="0" x2="0" y1="0" y2="1">
      <stop offset="0%" stop-color="#4fd1c5"/>
      <stop offset="100%" stop-color="#0e1116"/>
    </linearGradient>
  </defs>
  <rect x="0" y="0" width="1000" height="320" fill="#0e1116"/>
  <g stroke="#2b313b" stroke-width="1">
    <line x1="40" y1="280" x2="960" y2="280"/>
    <line x1="40" y1="40" x2="40" y2="280"/>
  </g>
  <rect x="40.0" y="40.0" width="24.0" height="240.0" rx="2" fill="url(#barGrad)" /><rect x="80.0" y="130.6" width="24.0" height="149.4" rx="2" fill="url(#barGrad)" /><rect x="120.0" y="264.2" width="24.0" height="15.8" rx="2" fill="url(#barGrad)" /><rect x="160.0" y="263.6" width="24.0" height="16.4" rx="2" fill="url(#barGrad)" /><rect x="200.0" y="259.3" width="24.0" height="20.7" rx="2" fill="url(#barGrad)" /><rect x="240.0" y="256.8" width="24.0" height="23.2" rx="2" fill="url(#barGrad)" /><rect x="280.0" y="263.6" width="24.0" height="16.4" rx="2" fill="url(#barGrad)" /><rect x="320.0" y="258.7" width="24.0" height="21.3" rx="2" fill="url(#barGrad)" /><rect x="360.0" y="262.3" width="24.0" height="17.7" rx="2" fill="url(#barGrad)" /><rect x="400.0" y="258.4" width="24.0" height="21.6" rx="2" fill="url(#barGrad)" /><rect x="440.0" y="258.7" width="24.0" height="21.3" rx="2" fill="url(#barGrad)" /><rect x="480.0" y="233.1" width="24.0" height="46.9" rx="2" fill="url(#barGrad)" /><rect x="520.0" y="178.1" width="24.0" height="101.9" rx="2" fill="url(#barGrad)" /><rect x="560.0" y="236.0" width="24.0" height="44.0" rx="2" fill="url(#barGrad)" /><rect x="600.0" y="590.6" width="24.0" height="-310.6" rx="2" fill="url(#barGrad)" /><rect x="640.0" y="262.8" width="24.0" height="17.2" rx="2" fill="url(#barGrad)" /><rect x="680.0" y="260.5" width="24.0" height="19.5" rx="2" fill="url(#barGrad)" /><rect x="720.0" y="262.2" width="24.0" height="17.8" rx="2" fill="url(#barGrad)" /><rect x="760.0" y="246.0" width="24.0" height="34.0" rx="2" fill="url(#barGrad)" /><rect x="800.0" y="265.2" width="24.0" height="14.8" rx="2" fill="url(#barGrad)" /><rect x="840.0" y="260.6" width="24.0" height="19.4" rx="2" fill="url(#barGrad)" /><rect x="880.0" y="266.3" width="24.0" height="13.7" rx="2" fill="url(#barGrad)" /><rect x="920.0" y="266.4" width="24.0" height="13.6" rx="2" fill="url(#barGrad)" />
  <polyline fill="none" stroke="#63b3ed" stroke-width="2" points="52.0,239.6 92.0,244.1 132.0,242.8 172.0,249.5 212.0,241.8 252.0,249.3 292.0,245.9 332.0,253.0 372.0,256.6 412.0,247.6 452.0,246.5 492.0,243.3 532.0,239.7 572.0,222.8 612.0,252.3 652.0,249.6 692.0,244.0 732.0,242.5 772.0,232.6 812.0,240.9 852.0,233.1 892.0,247.5 932.0,245.3"/>
  <circle cx="52.0" cy="72.2" r="2.5" fill="#f6ad55" /><circle cx="92.0" cy="56.7" r="2.5" fill="#f6ad55" /><circle cx="132.0" cy="68.5" r="2.5" fill="#f6ad55" /><circle cx="172.0" cy="62.5" r="2.5" fill="#f6ad55" /><circle cx="212.0" cy="59.9" r="2.5" fill="#f6ad55" /><circle cx="252.0" cy="55.0" r="2.5" fill="#f6ad55" /><circle cx="292.0" cy="70.1" r="2.5" fill="#f6ad55" /><circle cx="332.0" cy="86.0" r="2.5" fill="#f6ad55" /><circle cx="372.0" cy="79.6" r="2.5" fill="#f6ad55" /><circle cx="412.0" cy="102.3" r="2.5" fill="#f6ad55" /><circle cx="452.0" cy="87.4" r="2.5" fill="#f6ad55" /><circle cx="492.0" cy="92.7" r="2.5" fill="#f6ad55" /><circle cx="532.0" cy="67.5" r="2.5" fill="#f6ad55" /><circle cx="572.0" cy="101.7" r="2.5" fill="#f6ad55" /><circle cx="612.0" cy="99.4" r="2.5" fill="#f6ad55" /><circle cx="652.0" cy="81.9" r="2.5" fill="#f6ad55" /><circle cx="692.0" cy="63.0" r="2.5" fill="#f6ad55" /><circle cx="732.0" cy="53.8" r="2.5" fill="#f6ad55" /><circle cx="772.0" cy="43.4" r="2.5" fill="#f6ad55" /><circle cx="812.0" cy="46.3" r="2.5" fill="#f6ad55" /><circle cx="852.0" cy="40.0" r="2.5" fill="#f6ad55" /><circle cx="892.0" cy="90.8" r="2.5" fill="#f6ad55" /><circle cx="932.0" cy="58.8" r="2.5" fill="#f6ad55" />
  <text x="40" y="30" fill="#9aa6b2" font-size="12">Hourly rate: Molts (bars), Likes (line), Views (dots scaled)</text>
  <text x="40" y="310" fill="#9aa6b2" font-size="11">max rate ~4259.25 / hour</text>
</svg>