<?xml version="1.0" encoding="UTF-8"?>
<svg xmlns="http://www.w3.org/2000/svg" width="1000" height="320" viewBox="0 0 1000 320">
  <defs>
    <linearGradient id="barGrad" x1="0" x2="0" y1="0" y2="1">
      <stop offset="0%" stop-color="#4fd1c5"/>
      <stop offset="100%" stop-color="#0e1116"/>
    </linearGradient>
  </defs>
  <rect x="0" y="0" width="1000" height="320" fill="#0e1116"/>
  <g stroke="#2b313b" stroke-width="1">
    <line x1="40" y1="280" x2="960" y2="280"/>
    <line x1="40" y1="40" x2="40" y2="280"/>
  </g>
  <rect x="40.0" y="223.2" width="50.2" height="56.8" rx="2" fill="url(#barGrad)" /><rect x="123.6" y="161.2" width="50.2" height="118.8" rx="2" fill="url(#barGrad)" /><rect x="207.3" y="171.5" width="50.2" height="108.5" rx="2" fill="url(#barGrad)" /><rect x="290.9" y="142.1" width="50.2" height="137.9" rx="2" fill="url(#barGrad)" /><rect x="374.5" y="163.3" width="50.2" height="116.7" rx="2" fill="url(#barGrad)" /><rect x="458.2" y="182.0" width="50.2" height="98.0" rx="2" fill="url(#barGrad)" /><rect x="541.8" y="167.2" width="50.2" height="112.8" rx="2" fill="url(#barGrad)" /><rect x="625.5" y="169.3" width="50.2" height="110.7" rx="2" fill="url(#barGrad)" /><rect x="709.1" y="146.6" width="50.2" height="133.4" rx="2" fill="url(#barGrad)" /><rect x="792.7" y="131.7" width="50.2" height="148.3" rx="2" fill="url(#barGrad)" /><rect x="876.4" y="102.1" width="50.2" height="177.9" rx="2" fill="url(#barGrad)" />
  <polyline fill="none" stroke="#63b3ed" stroke-width="2" points="65.1,148.9 148.7,75.5 232.4,76.9 316.0,40.0 399.6,82.1 483.3,88.5 566.9,60.8 650.5,103.6 734.2,61.8 817.8,55.7 901.5,60.9"/>
  <circle cx="65.1" cy="40.0" r="2.5" fill="#f6ad55" /><circle cx="148.7" cy="161.6" r="2.5" fill="#f6ad55" /><circle cx="232.4" cy="145.5" r="2.5" fill="#f6ad55" /><circle cx="316.0" cy="146.2" r="2.5" fill="#f6ad55" /><circle cx="399.6" cy="141.6" r="2.5" fill="#f6ad55" /><circle cx="483.3" cy="148.6" r="2.5" fill="#f6ad55" /><circle cx="566.9" cy="160.2" r="2.5" fill="#f6ad55" /><circle cx="650.5" cy="157.9" r="2.5" fill="#f6ad55" /><circle cx="734.2" cy="155.3" r="2.5" fill="#f6ad55" /><circle cx="817.8" cy="129.4" r="2.5" fill="#f6ad55" /><circle cx="901.5" cy="130.5" r="2.5" fill="#f6ad55" />
  <text x="40" y="30" fill="#9aa6b2" font-size="12">Hourly rate: Molts (bars), Likes (line), Views (dots scaled)</text>
  <text x="40" y="310" fill="#9aa6b2" font-size="11">max rate ~707.60 / hour</text>
</svg>