<?xml version="1.0" encoding="UTF-8"?>
<svg xmlns="http://www.w3.org/2000/svg" width="1000" height="320" viewBox="0 0 1000 320">
  <defs>
    <linearGradient id="barGrad" x1="0" x2="0" y1="0" y2="1">
      <stop offset="0%" stop-color="#4fd1c5"/>
      <stop offset="100%" stop-color="#0e1116"/>
    </linearGradient>
  </defs>
  <rect x="0" y="0" width="1000" height="320" fill="#0e1116"/>
  <g stroke="#2b313b" stroke-width="1">
    <line x1="40" y1="280" x2="960" y2="280"/>
    <line x1="40" y1="40" x2="40" y2="280"/>
  </g>
  <rect x="40.0" y="216.2" width="46.0" height="63.8" rx="2" fill="url(#barGrad)" /><rect x="116.7" y="161.3" width="46.0" height="118.7" rx="2" fill="url(#barGrad)" /><rect x="193.3" y="191.1" width="46.0" height="88.9" rx="2" fill="url(#barGrad)" /><rect x="270.0" y="182.4" width="46.0" height="97.6" rx="2" fill="url(#barGrad)" /><rect x="346.7" y="154.9" width="46.0" height="125.1" rx="2" fill="url(#barGrad)" /><rect x="423.3" y="114.3" width="46.0" height="165.7" rx="2" fill="url(#barGrad)" /><rect x="500.0" y="144.5" width="46.0" height="135.5" rx="2" fill="url(#barGrad)" /><rect x="576.7" y="171.3" width="46.0" height="108.7" rx="2" fill="url(#barGrad)" /><rect x="653.3" y="171.5" width="46.0" height="108.5" rx="2" fill="url(#barGrad)" /><rect x="730.0" y="157.5" width="46.0" height="122.5" rx="2" fill="url(#barGrad)" /><rect x="806.7" y="138.2" width="46.0" height="141.8" rx="2" fill="url(#barGrad)" /><rect x="883.3" y="159.9" width="46.0" height="120.1" rx="2" fill="url(#barGrad)" />
  <polyline fill="none" stroke="#63b3ed" stroke-width="2" points="63.0,129.4 139.7,40.0 216.3,68.7 293.0,79.1 369.7,89.6 446.3,67.1 523.0,93.0 599.7,77.7 676.3,77.5 753.0,123.0 829.7,110.7 906.3,75.0"/>
  <circle cx="63.0" cy="66.0" r="2.5" fill="#f6ad55" /><circle cx="139.7" cy="81.4" r="2.5" fill="#f6ad55" /><circle cx="216.3" cy="79.4" r="2.5" fill="#f6ad55" /><circle cx="293.0" cy="66.2" r="2.5" fill="#f6ad55" /><circle cx="369.7" cy="48.0" r="2.5" fill="#f6ad55" /><circle cx="446.3" cy="40.0" r="2.5" fill="#f6ad55" /><circle cx="523.0" cy="50.6" r="2.5" fill="#f6ad55" /><circle cx="599.7" cy="74.5" r="2.5" fill="#f6ad55" /><circle cx="676.3" cy="68.2" r="2.5" fill="#f6ad55" /><circle cx="753.0" cy="66.1" r="2.5" fill="#f6ad55" /><circle cx="829.7" cy="58.3" r="2.5" fill="#f6ad55" /><circle cx="906.3" cy="62.5" r="2.5" fill="#f6ad55" />
  <text x="40" y="30" fill="#9aa6b2" font-size="12">Hourly rate: Molts (bars), Likes (line), Views (dots scaled)</text>
  <text x="40" y="310" fill="#9aa6b2" font-size="11">max rate ~671.63 / hour</text>
</svg>