<?xml version="1.0" encoding="UTF-8"?>
<svg xmlns="http://www.w3.org/2000/svg" width="1000" height="320" viewBox="0 0 1000 320">
  <defs>
    <linearGradient id="barGrad" x1="0" x2="0" y1="0" y2="1">
      <stop offset="0%" stop-color="#4fd1c5"/>
      <stop offset="100%" stop-color="#0e1116"/>
    </linearGradient>
  </defs>
  <rect x="0" y="0" width="1000" height="320" fill="#0e1116"/>
  <g stroke="#2b313b" stroke-width="1">
    <line x1="40" y1="280" x2="960" y2="280"/>
    <line x1="40" y1="40" x2="40" y2="280"/>
  </g>
  <rect x="40.0" y="260.6" width="34.5" height="19.4" rx="2" fill="url(#barGrad)" /><rect x="97.5" y="216.4" width="34.5" height="63.6" rx="2" fill="url(#barGrad)" /><rect x="155.0" y="229.6" width="34.5" height="50.4" rx="2" fill="url(#barGrad)" /><rect x="212.5" y="232.5" width="34.5" height="47.5" rx="2" fill="url(#barGrad)" /><rect x="270.0" y="221.3" width="34.5" height="58.7" rx="2" fill="url(#barGrad)" /><rect x="327.5" y="225.9" width="34.5" height="54.1" rx="2" fill="url(#barGrad)" /><rect x="385.0" y="230.1" width="34.5" height="49.9" rx="2" fill="url(#barGrad)" /><rect x="442.5" y="222.6" width="34.5" height="57.4" rx="2" fill="url(#barGrad)" /><rect x="500.0" y="130.1" width="34.5" height="149.9" rx="2" fill="url(#barGrad)" /><rect x="557.5" y="216.6" width="34.5" height="63.4" rx="2" fill="url(#barGrad)" /><rect x="615.0" y="206.1" width="34.5" height="73.9" rx="2" fill="url(#barGrad)" /><rect x="672.5" y="184.3" width="34.5" height="95.7" rx="2" fill="url(#barGrad)" /><rect x="730.0" y="193.8" width="34.5" height="86.2" rx="2" fill="url(#barGrad)" /><rect x="787.5" y="227.5" width="34.5" height="52.5" rx="2" fill="url(#barGrad)" /><rect x="845.0" y="213.2" width="34.5" height="66.8" rx="2" fill="url(#barGrad)" /><rect x="902.5" y="234.5" width="34.5" height="45.5" rx="2" fill="url(#barGrad)" />
  <polyline fill="none" stroke="#63b3ed" stroke-width="2" points="57.3,215.7 114.8,155.1 172.3,176.9 229.8,168.8 287.3,160.3 344.8,152.6 402.3,165.3 459.8,164.1 517.3,40.0 574.8,173.9 632.3,167.2 689.8,155.7 747.3,161.7 804.8,159.4 862.3,146.8 919.8,166.2"/>
  <circle cx="57.3" cy="40.0" r="2.5" fill="#f6ad55" /><circle cx="114.8" cy="75.6" r="2.5" fill="#f6ad55" /><circle cx="172.3" cy="80.5" r="2.5" fill="#f6ad55" /><circle cx="229.8" cy="78.4" r="2.5" fill="#f6ad55" /><circle cx="287.3" cy="70.8" r="2.5" fill="#f6ad55" /><circle cx="344.8" cy="69.7" r="2.5" fill="#f6ad55" /><circle cx="402.3" cy="69.7" r="2.5" fill="#f6ad55" /><circle cx="459.8" cy="89.5" r="2.5" fill="#f6ad55" /><circle cx="517.3" cy="79.7" r="2.5" fill="#f6ad55" /><circle cx="574.8" cy="69.2" r="2.5" fill="#f6ad55" /><circle cx="632.3" cy="73.3" r="2.5" fill="#f6ad55" /><circle cx="689.8" cy="84.1" r="2.5" fill="#f6ad55" /><circle cx="747.3" cy="83.1" r="2.5" fill="#f6ad55" /><circle cx="804.8" cy="71.6" r="2.5" fill="#f6ad55" /><circle cx="862.3" cy="87.0" r="2.5" fill="#f6ad55" /><circle cx="919.8" cy="84.6" r="2.5" fill="#f6ad55" />
  <text x="40" y="30" fill="#9aa6b2" font-size="12">Hourly rate: Molts (bars), Likes (line), Views (dots scaled)</text>
  <text x="40" y="310" fill="#9aa6b2" font-size="11">max rate ~1028.14 / hour</text>
</svg>