<?xml version="1.0" encoding="UTF-8"?>
<svg xmlns="http://www.w3.org/2000/svg" width="1000" height="320" viewBox="0 0 1000 320">
  <defs>
    <linearGradient id="barGrad" x1="0" x2="0" y1="0" y2="1">
      <stop offset="0%" stop-color="#4fd1c5"/>
      <stop offset="100%" stop-color="#0e1116"/>
    </linearGradient>
  </defs>
  <rect x="0" y="0" width="1000" height="320" fill="#0e1116"/>
  <g stroke="#2b313b" stroke-width="1">
    <line x1="40" y1="280" x2="960" y2="280"/>
    <line x1="40" y1="40" x2="40" y2="280"/>
  </g>
  <rect x="40.0" y="161.1" width="32.5" height="118.9" rx="2" fill="url(#barGrad)" /><rect x="94.1" y="120.0" width="32.5" height="160.0" rx="2" fill="url(#barGrad)" /><rect x="148.2" y="112.9" width="32.5" height="167.1" rx="2" fill="url(#barGrad)" /><rect x="202.4" y="125.3" width="32.5" height="154.7" rx="2" fill="url(#barGrad)" /><rect x="256.5" y="113.9" width="32.5" height="166.1" rx="2" fill="url(#barGrad)" /><rect x="310.6" y="122.8" width="32.5" height="157.2" rx="2" fill="url(#barGrad)" /><rect x="364.7" y="117.5" width="32.5" height="162.5" rx="2" fill="url(#barGrad)" /><rect x="418.8" y="97.9" width="32.5" height="182.1" rx="2" fill="url(#barGrad)" /><rect x="472.9" y="140.7" width="32.5" height="139.3" rx="2" fill="url(#barGrad)" /><rect x="527.1" y="113.1" width="32.5" height="166.9" rx="2" fill="url(#barGrad)" /><rect x="581.2" y="92.3" width="32.5" height="187.7" rx="2" fill="url(#barGrad)" /><rect x="635.3" y="107.6" width="32.5" height="172.4" rx="2" fill="url(#barGrad)" /><rect x="689.4" y="120.5" width="32.5" height="159.5" rx="2" fill="url(#barGrad)" /><rect x="743.5" y="114.3" width="32.5" height="165.7" rx="2" fill="url(#barGrad)" /><rect x="797.6" y="159.1" width="32.5" height="120.9" rx="2" fill="url(#barGrad)" /><rect x="851.8" y="162.7" width="32.5" height="117.3" rx="2" fill="url(#barGrad)" /><rect x="905.9" y="138.1" width="32.5" height="141.9" rx="2" fill="url(#barGrad)" />
  <polyline fill="none" stroke="#63b3ed" stroke-width="2" points="56.2,127.6 110.4,80.7 164.5,85.0 218.6,98.2 272.7,88.1 326.8,81.9 380.9,40.0 435.1,55.8 489.2,112.1 543.3,93.5 597.4,91.0 651.5,49.9 705.6,48.8 759.8,56.0 813.9,109.7 868.0,104.0 922.1,67.8"/>
  <circle cx="56.2" cy="100.8" r="2.5" fill="#f6ad55" /><circle cx="110.4" cy="64.8" r="2.5" fill="#f6ad55" /><circle cx="164.5" cy="52.4" r="2.5" fill="#f6ad55" /><circle cx="218.6" cy="40.0" r="2.5" fill="#f6ad55" /><circle cx="272.7" cy="45.2" r="2.5" fill="#f6ad55" /><circle cx="326.8" cy="83.8" r="2.5" fill="#f6ad55" /><circle cx="380.9" cy="57.7" r="2.5" fill="#f6ad55" /><circle cx="435.1" cy="87.9" r="2.5" fill="#f6ad55" /><circle cx="489.2" cy="83.5" r="2.5" fill="#f6ad55" /><circle cx="543.3" cy="90.8" r="2.5" fill="#f6ad55" /><circle cx="597.4" cy="91.1" r="2.5" fill="#f6ad55" /><circle cx="651.5" cy="90.8" r="2.5" fill="#f6ad55" /><circle cx="705.6" cy="44.6" r="2.5" fill="#f6ad55" /><circle cx="759.8" cy="88.7" r="2.5" fill="#f6ad55" /><circle cx="813.9" cy="87.9" r="2.5" fill="#f6ad55" /><circle cx="868.0" cy="89.1" r="2.5" fill="#f6ad55" /><circle cx="922.1" cy="86.9" r="2.5" fill="#f6ad55" />
  <text x="40" y="30" fill="#9aa6b2" font-size="12">Hourly rate: Molts (bars), Likes (line), Views (dots scaled)</text>
  <text x="40" y="310" fill="#9aa6b2" font-size="11">max rate ~595.01 / hour</text>
</svg>