<?xml version="1.0" encoding="UTF-8"?>
<svg xmlns="http://www.w3.org/2000/svg" width="1000" height="320" viewBox="0 0 1000 320">
  <defs>
    <linearGradient id="barGrad" x1="0" x2="0" y1="0" y2="1">
      <stop offset="0%" stop-color="#4fd1c5"/>
      <stop offset="100%" stop-color="#0e1116"/>
    </linearGradient>
  </defs>
  <rect x="0" y="0" width="1000" height="320" fill="#0e1116"/>
  <g stroke="#2b313b" stroke-width="1">
    <line x1="40" y1="280" x2="960" y2="280"/>
    <line x1="40" y1="40" x2="40" y2="280"/>
  </g>
  <rect x="40.0" y="142.3" width="32.5" height="137.7" rx="2" fill="url(#barGrad)" /><rect x="94.1" y="157.3" width="32.5" height="122.7" rx="2" fill="url(#barGrad)" /><rect x="148.2" y="158.1" width="32.5" height="121.9" rx="2" fill="url(#barGrad)" /><rect x="202.4" y="188.3" width="32.5" height="91.7" rx="2" fill="url(#barGrad)" /><rect x="256.5" y="183.0" width="32.5" height="97.0" rx="2" fill="url(#barGrad)" /><rect x="310.6" y="148.2" width="32.5" height="131.8" rx="2" fill="url(#barGrad)" /><rect x="364.7" y="164.6" width="32.5" height="115.4" rx="2" fill="url(#barGrad)" /><rect x="418.8" y="156.8" width="32.5" height="123.2" rx="2" fill="url(#barGrad)" /><rect x="472.9" y="171.3" width="32.5" height="108.7" rx="2" fill="url(#barGrad)" /><rect x="527.1" y="169.6" width="32.5" height="110.4" rx="2" fill="url(#barGrad)" /><rect x="581.2" y="171.2" width="32.5" height="108.8" rx="2" fill="url(#barGrad)" /><rect x="635.3" y="182.6" width="32.5" height="97.4" rx="2" fill="url(#barGrad)" /><rect x="689.4" y="176.0" width="32.5" height="104.0" rx="2" fill="url(#barGrad)" /><rect x="743.5" y="162.2" width="32.5" height="117.8" rx="2" fill="url(#barGrad)" /><rect x="797.6" y="178.8" width="32.5" height="101.2" rx="2" fill="url(#barGrad)" /><rect x="851.8" y="195.0" width="32.5" height="85.0" rx="2" fill="url(#barGrad)" /><rect x="905.9" y="215.0" width="32.5" height="65.0" rx="2" fill="url(#barGrad)" />
  <polyline fill="none" stroke="#63b3ed" stroke-width="2" points="56.2,82.1 110.4,50.2 164.5,63.7 218.6,96.9 272.7,85.6 326.8,63.0 380.9,40.0 435.1,46.4 489.2,73.6 543.3,67.4 597.4,75.5 651.5,87.6 705.6,93.3 759.8,43.8 813.9,75.0 868.0,108.4 922.1,171.0"/>
  <circle cx="56.2" cy="79.1" r="2.5" fill="#f6ad55" /><circle cx="110.4" cy="83.9" r="2.5" fill="#f6ad55" /><circle cx="164.5" cy="55.0" r="2.5" fill="#f6ad55" /><circle cx="218.6" cy="40.0" r="2.5" fill="#f6ad55" /><circle cx="272.7" cy="83.5" r="2.5" fill="#f6ad55" /><circle cx="326.8" cy="93.5" r="2.5" fill="#f6ad55" /><circle cx="380.9" cy="92.6" r="2.5" fill="#f6ad55" /><circle cx="435.1" cy="95.5" r="2.5" fill="#f6ad55" /><circle cx="489.2" cy="112.8" r="2.5" fill="#f6ad55" /><circle cx="543.3" cy="124.4" r="2.5" fill="#f6ad55" /><circle cx="597.4" cy="98.5" r="2.5" fill="#f6ad55" /><circle cx="651.5" cy="97.2" r="2.5" fill="#f6ad55" /><circle cx="705.6" cy="84.7" r="2.5" fill="#f6ad55" /><circle cx="759.8" cy="95.0" r="2.5" fill="#f6ad55" /><circle cx="813.9" cy="115.3" r="2.5" fill="#f6ad55" /><circle cx="868.0" cy="92.8" r="2.5" fill="#f6ad55" /><circle cx="922.1" cy="136.2" r="2.5" fill="#f6ad55" />
  <text x="40" y="30" fill="#9aa6b2" font-size="12">Hourly rate: Molts (bars), Likes (line), Views (dots scaled)</text>
  <text x="40" y="310" fill="#9aa6b2" font-size="11">max rate ~718.37 / hour</text>
</svg>