<?xml version="1.0" encoding="UTF-8"?>
<svg xmlns="http://www.w3.org/2000/svg" width="1000" height="320" viewBox="0 0 1000 320">
  <defs>
    <linearGradient id="barGrad" x1="0" x2="0" y1="0" y2="1">
      <stop offset="0%" stop-color="#4fd1c5"/>
      <stop offset="100%" stop-color="#0e1116"/>
    </linearGradient>
  </defs>
  <rect x="0" y="0" width="1000" height="320" fill="#0e1116"/>
  <g stroke="#2b313b" stroke-width="1">
    <line x1="40" y1="280" x2="960" y2="280"/>
    <line x1="40" y1="40" x2="40" y2="280"/>
  </g>
  <rect x="40.0" y="224.9" width="30.7" height="55.1" rx="2" fill="url(#barGrad)" /><rect x="91.1" y="164.7" width="30.7" height="115.3" rx="2" fill="url(#barGrad)" /><rect x="142.2" y="174.8" width="30.7" height="105.2" rx="2" fill="url(#barGrad)" /><rect x="193.3" y="146.2" width="30.7" height="133.8" rx="2" fill="url(#barGrad)" /><rect x="244.4" y="166.8" width="30.7" height="113.2" rx="2" fill="url(#barGrad)" /><rect x="295.6" y="184.9" width="30.7" height="95.1" rx="2" fill="url(#barGrad)" /><rect x="346.7" y="170.5" width="30.7" height="109.5" rx="2" fill="url(#barGrad)" /><rect x="397.8" y="172.6" width="30.7" height="107.4" rx="2" fill="url(#barGrad)" /><rect x="448.9" y="150.6" width="30.7" height="129.4" rx="2" fill="url(#barGrad)" /><rect x="500.0" y="136.2" width="30.7" height="143.8" rx="2" fill="url(#barGrad)" /><rect x="551.1" y="105.7" width="30.7" height="174.3" rx="2" fill="url(#barGrad)" /><rect x="602.2" y="91.4" width="30.7" height="188.6" rx="2" fill="url(#barGrad)" /><rect x="653.3" y="145.1" width="30.7" height="134.9" rx="2" fill="url(#barGrad)" /><rect x="704.4" y="164.7" width="30.7" height="115.3" rx="2" fill="url(#barGrad)" /><rect x="755.6" y="158.4" width="30.7" height="121.6" rx="2" fill="url(#barGrad)" /><rect x="806.7" y="168.9" width="30.7" height="111.1" rx="2" fill="url(#barGrad)" /><rect x="857.8" y="180.2" width="30.7" height="99.8" rx="2" fill="url(#barGrad)" /><rect x="908.9" y="201.0" width="30.7" height="79.0" rx="2" fill="url(#barGrad)" />
  <polyline fill="none" stroke="#63b3ed" stroke-width="2" points="55.3,152.8 106.4,81.6 157.6,83.0 208.7,47.2 259.8,88.0 310.9,94.2 362.0,67.4 413.1,108.8 464.2,68.3 515.3,62.4 566.4,78.0 617.6,72.0 668.7,40.0 719.8,98.0 770.9,60.5 822.0,44.5 873.1,95.3 924.2,93.1"/>
  <circle cx="55.3" cy="40.0" r="2.5" fill="#f6ad55" /><circle cx="106.4" cy="161.6" r="2.5" fill="#f6ad55" /><circle cx="157.6" cy="145.5" r="2.5" fill="#f6ad55" /><circle cx="208.7" cy="146.2" r="2.5" fill="#f6ad55" /><circle cx="259.8" cy="141.6" r="2.5" fill="#f6ad55" /><circle cx="310.9" cy="148.6" r="2.5" fill="#f6ad55" /><circle cx="362.0" cy="160.2" r="2.5" fill="#f6ad55" /><circle cx="413.1" cy="157.9" r="2.5" fill="#f6ad55" /><circle cx="464.2" cy="155.3" r="2.5" fill="#f6ad55" /><circle cx="515.3" cy="129.4" r="2.5" fill="#f6ad55" /><circle cx="566.4" cy="126.4" r="2.5" fill="#f6ad55" /><circle cx="617.6" cy="117.0" r="2.5" fill="#f6ad55" /><circle cx="668.7" cy="130.2" r="2.5" fill="#f6ad55" /><circle cx="719.8" cy="156.1" r="2.5" fill="#f6ad55" /><circle cx="770.9" cy="160.1" r="2.5" fill="#f6ad55" /><circle cx="822.0" cy="151.8" r="2.5" fill="#f6ad55" /><circle cx="873.1" cy="169.2" r="2.5" fill="#f6ad55" /><circle cx="924.2" cy="162.8" r="2.5" fill="#f6ad55" />
  <text x="40" y="30" fill="#9aa6b2" font-size="12">Hourly rate: Molts (bars), Likes (line), Views (dots scaled)</text>
  <text x="40" y="310" fill="#9aa6b2" font-size="11">max rate ~729.33 / hour</text>
</svg>