<?xml version="1.0" encoding="UTF-8"?>
<svg xmlns="http://www.w3.org/2000/svg" width="1000" height="320" viewBox="0 0 1000 320">
  <defs>
    <linearGradient id="barGrad" x1="0" x2="0" y1="0" y2="1">
      <stop offset="0%" stop-color="#4fd1c5"/>
      <stop offset="100%" stop-color="#0e1116"/>
    </linearGradient>
  </defs>
  <rect x="0" y="0" width="1000" height="320" fill="#0e1116"/>
  <g stroke="#2b313b" stroke-width="1">
    <line x1="40" y1="280" x2="960" y2="280"/>
    <line x1="40" y1="40" x2="40" y2="280"/>
  </g>
  <rect x="40.0" y="252.6" width="24.0" height="27.4" rx="2" fill="url(#barGrad)" /><rect x="80.0" y="216.4" width="24.0" height="63.6" rx="2" fill="url(#barGrad)" /><rect x="120.0" y="220.3" width="24.0" height="59.7" rx="2" fill="url(#barGrad)" /><rect x="160.0" y="210.5" width="24.0" height="69.5" rx="2" fill="url(#barGrad)" /><rect x="200.0" y="210.3" width="24.0" height="69.7" rx="2" fill="url(#barGrad)" /><rect x="240.0" y="215.9" width="24.0" height="64.1" rx="2" fill="url(#barGrad)" /><rect x="280.0" y="222.0" width="24.0" height="58.0" rx="2" fill="url(#barGrad)" /><rect x="320.0" y="230.9" width="24.0" height="49.1" rx="2" fill="url(#barGrad)" /><rect x="360.0" y="214.9" width="24.0" height="65.1" rx="2" fill="url(#barGrad)" /><rect x="400.0" y="88.7" width="24.0" height="191.3" rx="2" fill="url(#barGrad)" /><rect x="440.0" y="55.2" width="24.0" height="224.8" rx="2" fill="url(#barGrad)" /><rect x="480.0" y="197.4" width="24.0" height="82.6" rx="2" fill="url(#barGrad)" /><rect x="520.0" y="178.2" width="24.0" height="101.8" rx="2" fill="url(#barGrad)" /><rect x="560.0" y="200.9" width="24.0" height="79.1" rx="2" fill="url(#barGrad)" /><rect x="600.0" y="119.6" width="24.0" height="160.4" rx="2" fill="url(#barGrad)" /><rect x="640.0" y="40.0" width="24.0" height="240.0" rx="2" fill="url(#barGrad)" /><rect x="680.0" y="164.9" width="24.0" height="115.1" rx="2" fill="url(#barGrad)" /><rect x="720.0" y="180.2" width="24.0" height="99.8" rx="2" fill="url(#barGrad)" /><rect x="760.0" y="173.0" width="24.0" height="107.0" rx="2" fill="url(#barGrad)" /><rect x="800.0" y="163.9" width="24.0" height="116.1" rx="2" fill="url(#barGrad)" /><rect x="840.0" y="176.3" width="24.0" height="103.7" rx="2" fill="url(#barGrad)" /><rect x="880.0" y="183.5" width="24.0" height="96.5" rx="2" fill="url(#barGrad)" /><rect x="920.0" y="207.4" width="24.0" height="72.6" rx="2" fill="url(#barGrad)" />
  <polyline fill="none" stroke="#63b3ed" stroke-width="2" points="52.0,177.6 92.0,223.1 132.0,186.2 172.0,173.9 212.0,156.6 252.0,174.1 292.0,156.5 332.0,178.7 372.0,146.4 412.0,133.8 452.0,88.9 492.0,132.4 532.0,108.7 572.0,114.9 612.0,97.9 652.0,142.1 692.0,162.8 732.0,165.7 772.0,166.7 812.0,165.4 852.0,156.4 892.0,159.1 932.0,154.3"/>
  <circle cx="52.0" cy="74.8" r="2.5" fill="#f6ad55" /><circle cx="92.0" cy="47.6" r="2.5" fill="#f6ad55" /><circle cx="132.0" cy="71.1" r="2.5" fill="#f6ad55" /><circle cx="172.0" cy="103.3" r="2.5" fill="#f6ad55" /><circle cx="212.0" cy="124.2" r="2.5" fill="#f6ad55" /><circle cx="252.0" cy="117.9" r="2.5" fill="#f6ad55" /><circle cx="292.0" cy="71.3" r="2.5" fill="#f6ad55" /><circle cx="332.0" cy="95.5" r="2.5" fill="#f6ad55" /><circle cx="372.0" cy="125.1" r="2.5" fill="#f6ad55" /><circle cx="412.0" cy="112.4" r="2.5" fill="#f6ad55" /><circle cx="452.0" cy="83.9" r="2.5" fill="#f6ad55" /><circle cx="492.0" cy="94.5" r="2.5" fill="#f6ad55" /><circle cx="532.0" cy="55.6" r="2.5" fill="#f6ad55" /><circle cx="572.0" cy="53.2" r="2.5" fill="#f6ad55" /><circle cx="612.0" cy="47.3" r="2.5" fill="#f6ad55" /><circle cx="652.0" cy="58.7" r="2.5" fill="#f6ad55" /><circle cx="692.0" cy="74.8" r="2.5" fill="#f6ad55" /><circle cx="732.0" cy="40.0" r="2.5" fill="#f6ad55" /><circle cx="772.0" cy="96.0" r="2.5" fill="#f6ad55" /><circle cx="812.0" cy="123.5" r="2.5" fill="#f6ad55" /><circle cx="852.0" cy="129.0" r="2.5" fill="#f6ad55" /><circle cx="892.0" cy="86.2" r="2.5" fill="#f6ad55" /><circle cx="932.0" cy="67.5" r="2.5" fill="#f6ad55" />
  <text x="40" y="30" fill="#9aa6b2" font-size="12">Hourly rate: Molts (bars), Likes (line), Views (dots scaled)</text>
  <text x="40" y="310" fill="#9aa6b2" font-size="11">max rate ~840.74 / hour</text>
</svg>