<?xml version="1.0" encoding="UTF-8"?>
<svg xmlns="http://www.w3.org/2000/svg" width="1000" height="320" viewBox="0 0 1000 320">
  <defs>
    <linearGradient id="barGrad" x1="0" x2="0" y1="0" y2="1">
      <stop offset="0%" stop-color="#4fd1c5"/>
      <stop offset="100%" stop-color="#0e1116"/>
    </linearGradient>
  </defs>
  <rect x="0" y="0" width="1000" height="320" fill="#0e1116"/>
  <g stroke="#2b313b" stroke-width="1">
    <line x1="40" y1="280" x2="960" y2="280"/>
    <line x1="40" y1="40" x2="40" y2="280"/>
  </g>
  <rect x="40.0" y="233.7" width="39.4" height="46.3" rx="2" fill="url(#barGrad)" /><rect x="105.7" y="161.8" width="39.4" height="118.2" rx="2" fill="url(#barGrad)" /><rect x="171.4" y="129.9" width="39.4" height="150.1" rx="2" fill="url(#barGrad)" /><rect x="237.1" y="175.9" width="39.4" height="104.1" rx="2" fill="url(#barGrad)" /><rect x="302.9" y="193.1" width="39.4" height="86.9" rx="2" fill="url(#barGrad)" /><rect x="368.6" y="54.7" width="39.4" height="225.3" rx="2" fill="url(#barGrad)" /><rect x="434.3" y="162.8" width="39.4" height="117.2" rx="2" fill="url(#barGrad)" /><rect x="500.0" y="141.2" width="39.4" height="138.8" rx="2" fill="url(#barGrad)" /><rect x="565.7" y="195.3" width="39.4" height="84.7" rx="2" fill="url(#barGrad)" /><rect x="631.4" y="172.1" width="39.4" height="107.9" rx="2" fill="url(#barGrad)" /><rect x="697.1" y="107.9" width="39.4" height="172.1" rx="2" fill="url(#barGrad)" /><rect x="762.9" y="83.3" width="39.4" height="196.7" rx="2" fill="url(#barGrad)" /><rect x="828.6" y="40.0" width="39.4" height="240.0" rx="2" fill="url(#barGrad)" /><rect x="894.3" y="100.5" width="39.4" height="179.5" rx="2" fill="url(#barGrad)" />
  <polyline fill="none" stroke="#63b3ed" stroke-width="2" points="59.7,165.4 125.4,120.9 191.1,119.6 256.9,74.3 322.6,128.2 388.3,112.4 454.0,131.8 519.7,46.8 585.4,141.8 651.1,131.9 716.9,105.5 782.6,109.9 848.3,125.8 914.0,109.6"/>
  <circle cx="59.7" cy="94.0" r="2.5" fill="#f6ad55" /><circle cx="125.4" cy="109.8" r="2.5" fill="#f6ad55" /><circle cx="191.1" cy="69.0" r="2.5" fill="#f6ad55" /><circle cx="256.9" cy="44.9" r="2.5" fill="#f6ad55" /><circle cx="322.6" cy="40.0" r="2.5" fill="#f6ad55" /><circle cx="388.3" cy="48.2" r="2.5" fill="#f6ad55" /><circle cx="454.0" cy="46.9" r="2.5" fill="#f6ad55" /><circle cx="519.7" cy="47.5" r="2.5" fill="#f6ad55" /><circle cx="585.4" cy="43.4" r="2.5" fill="#f6ad55" /><circle cx="651.1" cy="52.4" r="2.5" fill="#f6ad55" /><circle cx="716.9" cy="52.1" r="2.5" fill="#f6ad55" /><circle cx="782.6" cy="60.0" r="2.5" fill="#f6ad55" /><circle cx="848.3" cy="44.5" r="2.5" fill="#f6ad55" /><circle cx="914.0" cy="73.0" r="2.5" fill="#f6ad55" />
  <text x="40" y="30" fill="#9aa6b2" font-size="12">Hourly rate: Molts (bars), Likes (line), Views (dots scaled)</text>
  <text x="40" y="310" fill="#9aa6b2" font-size="11">max rate ~702.91 / hour</text>
</svg>