<?xml version="1.0" encoding="UTF-8"?>
<svg xmlns="http://www.w3.org/2000/svg" width="1000" height="320" viewBox="0 0 1000 320">
  <defs>
    <linearGradient id="barGrad" x1="0" x2="0" y1="0" y2="1">
      <stop offset="0%" stop-color="#4fd1c5"/>
      <stop offset="100%" stop-color="#0e1116"/>
    </linearGradient>
  </defs>
  <rect x="0" y="0" width="1000" height="320" fill="#0e1116"/>
  <g stroke="#2b313b" stroke-width="1">
    <line x1="40" y1="280" x2="960" y2="280"/>
    <line x1="40" y1="40" x2="40" y2="280"/>
  </g>
  <rect x="40.0" y="237.4" width="23.0" height="42.6" rx="2" fill="url(#barGrad)" /><rect x="78.3" y="184.5" width="23.0" height="95.5" rx="2" fill="url(#barGrad)" /><rect x="116.7" y="168.0" width="23.0" height="112.0" rx="2" fill="url(#barGrad)" /><rect x="155.0" y="152.6" width="23.0" height="127.4" rx="2" fill="url(#barGrad)" /><rect x="193.3" y="136.4" width="23.0" height="143.6" rx="2" fill="url(#barGrad)" /><rect x="231.7" y="200.6" width="23.0" height="79.4" rx="2" fill="url(#barGrad)" /><rect x="270.0" y="212.4" width="23.0" height="67.6" rx="2" fill="url(#barGrad)" /><rect x="308.3" y="202.8" width="23.0" height="77.2" rx="2" fill="url(#barGrad)" /><rect x="346.7" y="205.4" width="23.0" height="74.6" rx="2" fill="url(#barGrad)" /><rect x="385.0" y="196.2" width="23.0" height="83.8" rx="2" fill="url(#barGrad)" /><rect x="423.3" y="182.5" width="23.0" height="97.5" rx="2" fill="url(#barGrad)" /><rect x="461.7" y="209.0" width="23.0" height="71.0" rx="2" fill="url(#barGrad)" /><rect x="500.0" y="197.4" width="23.0" height="82.6" rx="2" fill="url(#barGrad)" /><rect x="538.3" y="199.0" width="23.0" height="81.0" rx="2" fill="url(#barGrad)" /><rect x="576.7" y="215.6" width="23.0" height="64.4" rx="2" fill="url(#barGrad)" /><rect x="615.0" y="217.4" width="23.0" height="62.6" rx="2" fill="url(#barGrad)" /><rect x="653.3" y="213.8" width="23.0" height="66.2" rx="2" fill="url(#barGrad)" /><rect x="691.7" y="207.0" width="23.0" height="73.0" rx="2" fill="url(#barGrad)" /><rect x="730.0" y="213.8" width="23.0" height="66.2" rx="2" fill="url(#barGrad)" /><rect x="768.3" y="196.7" width="23.0" height="83.3" rx="2" fill="url(#barGrad)" /><rect x="806.7" y="213.5" width="23.0" height="66.5" rx="2" fill="url(#barGrad)" /><rect x="845.0" y="211.7" width="23.0" height="68.3" rx="2" fill="url(#barGrad)" /><rect x="883.3" y="173.5" width="23.0" height="106.5" rx="2" fill="url(#barGrad)" /><rect x="921.7" y="207.4" width="23.0" height="72.6" rx="2" fill="url(#barGrad)" />
  <polyline fill="none" stroke="#63b3ed" stroke-width="2" points="51.5,168.4 89.8,45.4 128.2,41.5 166.5,105.7 204.8,96.9 243.2,84.7 281.5,117.1 319.8,104.9 358.2,114.9 396.5,91.8 434.8,80.6 473.2,101.0 511.5,82.3 549.8,90.2 588.2,99.8 626.5,112.8 664.8,126.4 703.2,89.4 741.5,118.8 779.8,40.0 818.2,122.5 856.5,115.1 894.8,56.7 933.2,92.1"/>
  <circle cx="51.5" cy="74.1" r="2.5" fill="#f6ad55" /><circle cx="89.8" cy="56.1" r="2.5" fill="#f6ad55" /><circle cx="128.2" cy="59.8" r="2.5" fill="#f6ad55" /><circle cx="166.5" cy="68.5" r="2.5" fill="#f6ad55" /><circle cx="204.8" cy="72.9" r="2.5" fill="#f6ad55" /><circle cx="243.2" cy="62.1" r="2.5" fill="#f6ad55" /><circle cx="281.5" cy="76.4" r="2.5" fill="#f6ad55" /><circle cx="319.8" cy="51.8" r="2.5" fill="#f6ad55" /><circle cx="358.2" cy="40.0" r="2.5" fill="#f6ad55" /><circle cx="396.5" cy="67.3" r="2.5" fill="#f6ad55" /><circle cx="434.8" cy="46.1" r="2.5" fill="#f6ad55" /><circle cx="473.2" cy="62.6" r="2.5" fill="#f6ad55" /><circle cx="511.5" cy="56.8" r="2.5" fill="#f6ad55" /><circle cx="549.8" cy="70.1" r="2.5" fill="#f6ad55" /><circle cx="588.2" cy="78.3" r="2.5" fill="#f6ad55" /><circle cx="626.5" cy="76.6" r="2.5" fill="#f6ad55" /><circle cx="664.8" cy="84.3" r="2.5" fill="#f6ad55" /><circle cx="703.2" cy="84.2" r="2.5" fill="#f6ad55" /><circle cx="741.5" cy="72.5" r="2.5" fill="#f6ad55" /><circle cx="779.8" cy="69.4" r="2.5" fill="#f6ad55" /><circle cx="818.2" cy="56.9" r="2.5" fill="#f6ad55" /><circle cx="856.5" cy="55.0" r="2.5" fill="#f6ad55" /><circle cx="894.8" cy="66.0" r="2.5" fill="#f6ad55" /><circle cx="933.2" cy="66.6" r="2.5" fill="#f6ad55" />
  <text x="40" y="30" fill="#9aa6b2" font-size="12">Hourly rate: Molts (bars), Likes (line), Views (dots scaled)</text>
  <text x="40" y="310" fill="#9aa6b2" font-size="11">max rate ~766.07 / hour</text>
</svg>