<?xml version="1.0" encoding="UTF-8"?>
<svg xmlns="http://www.w3.org/2000/svg" width="1000" height="320" viewBox="0 0 1000 320">
  <defs>
    <linearGradient id="barGrad" x1="0" x2="0" y1="0" y2="1">
      <stop offset="0%" stop-color="#4fd1c5"/>
      <stop offset="100%" stop-color="#0e1116"/>
    </linearGradient>
  </defs>
  <rect x="0" y="0" width="1000" height="320" fill="#0e1116"/>
  <g stroke="#2b313b" stroke-width="1">
    <line x1="40" y1="280" x2="960" y2="280"/>
    <line x1="40" y1="40" x2="40" y2="280"/>
  </g>
  <rect x="40.0" y="182.7" width="42.5" height="97.3" rx="2" fill="url(#barGrad)" /><rect x="110.8" y="55.1" width="42.5" height="224.9" rx="2" fill="url(#barGrad)" /><rect x="181.5" y="83.7" width="42.5" height="196.3" rx="2" fill="url(#barGrad)" /><rect x="252.3" y="40.0" width="42.5" height="240.0" rx="2" fill="url(#barGrad)" /><rect x="323.1" y="40.1" width="42.5" height="239.9" rx="2" fill="url(#barGrad)" /><rect x="393.8" y="79.0" width="42.5" height="201.0" rx="2" fill="url(#barGrad)" /><rect x="464.6" y="79.7" width="42.5" height="200.3" rx="2" fill="url(#barGrad)" /><rect x="535.4" y="102.2" width="42.5" height="177.8" rx="2" fill="url(#barGrad)" /><rect x="606.2" y="104.4" width="42.5" height="175.6" rx="2" fill="url(#barGrad)" /><rect x="676.9" y="65.7" width="42.5" height="214.3" rx="2" fill="url(#barGrad)" /><rect x="747.7" y="86.8" width="42.5" height="193.2" rx="2" fill="url(#barGrad)" /><rect x="818.5" y="74.9" width="42.5" height="205.1" rx="2" fill="url(#barGrad)" /><rect x="889.2" y="84.9" width="42.5" height="195.1" rx="2" fill="url(#barGrad)" />
  <polyline fill="none" stroke="#63b3ed" stroke-width="2" points="61.2,124.8 132.0,63.8 202.8,77.8 273.5,90.7 344.3,113.1 415.1,41.0 485.8,59.7 556.6,51.2 627.4,94.0 698.2,85.8 768.9,78.5 839.7,48.3 910.5,65.6"/>
  <circle cx="61.2" cy="50.7" r="2.5" fill="#f6ad55" /><circle cx="132.0" cy="40.0" r="2.5" fill="#f6ad55" /><circle cx="202.8" cy="54.3" r="2.5" fill="#f6ad55" /><circle cx="273.5" cy="80.9" r="2.5" fill="#f6ad55" /><circle cx="344.3" cy="86.4" r="2.5" fill="#f6ad55" /><circle cx="415.1" cy="87.2" r="2.5" fill="#f6ad55" /><circle cx="485.8" cy="86.5" r="2.5" fill="#f6ad55" /><circle cx="556.6" cy="98.5" r="2.5" fill="#f6ad55" /><circle cx="627.4" cy="101.7" r="2.5" fill="#f6ad55" /><circle cx="698.2" cy="92.8" r="2.5" fill="#f6ad55" /><circle cx="768.9" cy="103.5" r="2.5" fill="#f6ad55" /><circle cx="839.7" cy="110.0" r="2.5" fill="#f6ad55" /><circle cx="910.5" cy="102.3" r="2.5" fill="#f6ad55" />
  <text x="40" y="30" fill="#9aa6b2" font-size="12">Hourly rate: Molts (bars), Likes (line), Views (dots scaled)</text>
  <text x="40" y="310" fill="#9aa6b2" font-size="11">max rate ~584.47 / hour</text>
</svg>