<?xml version="1.0" encoding="UTF-8"?>
<svg xmlns="http://www.w3.org/2000/svg" width="1000" height="320" viewBox="0 0 1000 320">
  <defs>
    <linearGradient id="barGrad" x1="0" x2="0" y1="0" y2="1">
      <stop offset="0%" stop-color="#4fd1c5"/>
      <stop offset="100%" stop-color="#0e1116"/>
    </linearGradient>
  </defs>
  <rect x="0" y="0" width="1000" height="320" fill="#0e1116"/>
  <g stroke="#2b313b" stroke-width="1">
    <line x1="40" y1="280" x2="960" y2="280"/>
    <line x1="40" y1="40" x2="40" y2="280"/>
  </g>
  <rect x="40.0" y="255.1" width="34.5" height="24.9" rx="2" fill="url(#barGrad)" /><rect x="97.5" y="190.5" width="34.5" height="89.5" rx="2" fill="url(#barGrad)" /><rect x="155.0" y="210.2" width="34.5" height="69.8" rx="2" fill="url(#barGrad)" /><rect x="212.5" y="196.7" width="34.5" height="83.3" rx="2" fill="url(#barGrad)" /><rect x="270.0" y="191.2" width="34.5" height="88.8" rx="2" fill="url(#barGrad)" /><rect x="327.5" y="181.7" width="34.5" height="98.3" rx="2" fill="url(#barGrad)" /><rect x="385.0" y="170.7" width="34.5" height="109.3" rx="2" fill="url(#barGrad)" /><rect x="442.5" y="170.1" width="34.5" height="109.9" rx="2" fill="url(#barGrad)" /><rect x="500.0" y="206.2" width="34.5" height="73.8" rx="2" fill="url(#barGrad)" /><rect x="557.5" y="198.1" width="34.5" height="81.9" rx="2" fill="url(#barGrad)" /><rect x="615.0" y="189.9" width="34.5" height="90.1" rx="2" fill="url(#barGrad)" /><rect x="672.5" y="193.8" width="34.5" height="86.2" rx="2" fill="url(#barGrad)" /><rect x="730.0" y="182.9" width="34.5" height="97.1" rx="2" fill="url(#barGrad)" /><rect x="787.5" y="172.8" width="34.5" height="107.2" rx="2" fill="url(#barGrad)" /><rect x="845.0" y="152.8" width="34.5" height="127.2" rx="2" fill="url(#barGrad)" /><rect x="902.5" y="130.5" width="34.5" height="149.5" rx="2" fill="url(#barGrad)" />
  <polyline fill="none" stroke="#63b3ed" stroke-width="2" points="57.3,197.2 114.8,59.3 172.3,90.7 229.8,65.9 287.3,70.7 344.8,57.9 402.3,40.0 459.8,51.3 517.3,133.5 574.8,111.0 632.3,112.9 689.8,87.0 747.3,62.2 804.8,63.4 862.3,59.0 919.8,47.2"/>
  <circle cx="57.3" cy="106.2" r="2.5" fill="#f6ad55" /><circle cx="114.8" cy="101.0" r="2.5" fill="#f6ad55" /><circle cx="172.3" cy="84.0" r="2.5" fill="#f6ad55" /><circle cx="229.8" cy="58.5" r="2.5" fill="#f6ad55" /><circle cx="287.3" cy="62.7" r="2.5" fill="#f6ad55" /><circle cx="344.8" cy="40.0" r="2.5" fill="#f6ad55" /><circle cx="402.3" cy="50.2" r="2.5" fill="#f6ad55" /><circle cx="459.8" cy="50.7" r="2.5" fill="#f6ad55" /><circle cx="517.3" cy="70.0" r="2.5" fill="#f6ad55" /><circle cx="574.8" cy="78.6" r="2.5" fill="#f6ad55" /><circle cx="632.3" cy="90.7" r="2.5" fill="#f6ad55" /><circle cx="689.8" cy="90.6" r="2.5" fill="#f6ad55" /><circle cx="747.3" cy="94.7" r="2.5" fill="#f6ad55" /><circle cx="804.8" cy="103.9" r="2.5" fill="#f6ad55" /><circle cx="862.3" cy="112.5" r="2.5" fill="#f6ad55" /><circle cx="919.8" cy="86.3" r="2.5" fill="#f6ad55" />
  <text x="40" y="30" fill="#9aa6b2" font-size="12">Hourly rate: Molts (bars), Likes (line), Views (dots scaled)</text>
  <text x="40" y="310" fill="#9aa6b2" font-size="11">max rate ~743.65 / hour</text>
</svg>