<?xml version="1.0" encoding="UTF-8"?>
<svg xmlns="http://www.w3.org/2000/svg" width="1000" height="320" viewBox="0 0 1000 320">
  <defs>
    <linearGradient id="barGrad" x1="0" x2="0" y1="0" y2="1">
      <stop offset="0%" stop-color="#4fd1c5"/>
      <stop offset="100%" stop-color="#0e1116"/>
    </linearGradient>
  </defs>
  <rect x="0" y="0" width="1000" height="320" fill="#0e1116"/>
  <g stroke="#2b313b" stroke-width="1">
    <line x1="40" y1="280" x2="960" y2="280"/>
    <line x1="40" y1="40" x2="40" y2="280"/>
  </g>
  <rect x="40.0" y="230.7" width="61.3" height="49.3" rx="2" fill="url(#barGrad)" /><rect x="142.2" y="165.8" width="61.3" height="114.2" rx="2" fill="url(#barGrad)" /><rect x="244.4" y="172.8" width="61.3" height="107.2" rx="2" fill="url(#barGrad)" /><rect x="346.7" y="155.2" width="61.3" height="124.8" rx="2" fill="url(#barGrad)" /><rect x="448.9" y="154.9" width="61.3" height="125.1" rx="2" fill="url(#barGrad)" /><rect x="551.1" y="164.8" width="61.3" height="115.2" rx="2" fill="url(#barGrad)" /><rect x="653.3" y="175.9" width="61.3" height="104.1" rx="2" fill="url(#barGrad)" /><rect x="755.6" y="191.9" width="61.3" height="88.1" rx="2" fill="url(#barGrad)" /><rect x="857.8" y="163.1" width="61.3" height="116.9" rx="2" fill="url(#barGrad)" />
  <polyline fill="none" stroke="#63b3ed" stroke-width="2" points="70.7,96.1 172.9,177.8 275.1,111.6 377.3,89.4 479.6,58.4 581.8,89.8 684.0,58.2 786.2,98.0 888.4,40.0"/>
  <circle cx="70.7" cy="68.1" r="2.5" fill="#f6ad55" /><circle cx="172.9" cy="40.0" r="2.5" fill="#f6ad55" /><circle cx="275.1" cy="64.3" r="2.5" fill="#f6ad55" /><circle cx="377.3" cy="97.6" r="2.5" fill="#f6ad55" /><circle cx="479.6" cy="119.2" r="2.5" fill="#f6ad55" /><circle cx="581.8" cy="112.6" r="2.5" fill="#f6ad55" /><circle cx="684.0" cy="64.5" r="2.5" fill="#f6ad55" /><circle cx="786.2" cy="89.5" r="2.5" fill="#f6ad55" /><circle cx="888.4" cy="120.0" r="2.5" fill="#f6ad55" />
  <text x="40" y="30" fill="#9aa6b2" font-size="12">Hourly rate: Molts (bars), Likes (line), Views (dots scaled)</text>
  <text x="40" y="310" fill="#9aa6b2" font-size="11">max rate ~468.06 / hour</text>
</svg>