<?xml version="1.0" encoding="UTF-8"?>
<svg xmlns="http://www.w3.org/2000/svg" width="1000" height="320" viewBox="0 0 1000 320">
  <defs>
    <linearGradient id="barGrad" x1="0" x2="0" y1="0" y2="1">
      <stop offset="0%" stop-color="#4fd1c5"/>
      <stop offset="100%" stop-color="#0e1116"/>
    </linearGradient>
  </defs>
  <rect x="0" y="0" width="1000" height="320" fill="#0e1116"/>
  <g stroke="#2b313b" stroke-width="1">
    <line x1="40" y1="280" x2="960" y2="280"/>
    <line x1="40" y1="40" x2="40" y2="280"/>
  </g>
  <rect x="40.0" y="260.6" width="50.2" height="19.4" rx="2" fill="url(#barGrad)" /><rect x="123.6" y="216.4" width="50.2" height="63.6" rx="2" fill="url(#barGrad)" /><rect x="207.3" y="229.6" width="50.2" height="50.4" rx="2" fill="url(#barGrad)" /><rect x="290.9" y="232.5" width="50.2" height="47.5" rx="2" fill="url(#barGrad)" /><rect x="374.5" y="221.3" width="50.2" height="58.7" rx="2" fill="url(#barGrad)" /><rect x="458.2" y="225.9" width="50.2" height="54.1" rx="2" fill="url(#barGrad)" /><rect x="541.8" y="230.1" width="50.2" height="49.9" rx="2" fill="url(#barGrad)" /><rect x="625.5" y="222.6" width="50.2" height="57.4" rx="2" fill="url(#barGrad)" /><rect x="709.1" y="130.1" width="50.2" height="149.9" rx="2" fill="url(#barGrad)" /><rect x="792.7" y="216.6" width="50.2" height="63.4" rx="2" fill="url(#barGrad)" /><rect x="876.4" y="206.1" width="50.2" height="73.9" rx="2" fill="url(#barGrad)" />
  <polyline fill="none" stroke="#63b3ed" stroke-width="2" points="65.1,215.7 148.7,155.1 232.4,176.9 316.0,168.8 399.6,160.3 483.3,152.6 566.9,165.3 650.5,164.1 734.2,40.0 817.8,173.9 901.5,167.2"/>
  <circle cx="65.1" cy="40.0" r="2.5" fill="#f6ad55" /><circle cx="148.7" cy="75.6" r="2.5" fill="#f6ad55" /><circle cx="232.4" cy="80.5" r="2.5" fill="#f6ad55" /><circle cx="316.0" cy="78.4" r="2.5" fill="#f6ad55" /><circle cx="399.6" cy="70.8" r="2.5" fill="#f6ad55" /><circle cx="483.3" cy="69.7" r="2.5" fill="#f6ad55" /><circle cx="566.9" cy="69.7" r="2.5" fill="#f6ad55" /><circle cx="650.5" cy="89.5" r="2.5" fill="#f6ad55" /><circle cx="734.2" cy="79.7" r="2.5" fill="#f6ad55" /><circle cx="817.8" cy="69.2" r="2.5" fill="#f6ad55" /><circle cx="901.5" cy="73.3" r="2.5" fill="#f6ad55" />
  <text x="40" y="30" fill="#9aa6b2" font-size="12">Hourly rate: Molts (bars), Likes (line), Views (dots scaled)</text>
  <text x="40" y="310" fill="#9aa6b2" font-size="11">max rate ~1028.14 / hour</text>
</svg>