<?xml version="1.0" encoding="UTF-8"?>
<svg xmlns="http://www.w3.org/2000/svg" width="1000" height="320" viewBox="0 0 1000 320">
  <defs>
    <linearGradient id="barGrad" x1="0" x2="0" y1="0" y2="1">
      <stop offset="0%" stop-color="#4fd1c5"/>
      <stop offset="100%" stop-color="#0e1116"/>
    </linearGradient>
  </defs>
  <rect x="0" y="0" width="1000" height="320" fill="#0e1116"/>
  <g stroke="#2b313b" stroke-width="1">
    <line x1="40" y1="280" x2="960" y2="280"/>
    <line x1="40" y1="40" x2="40" y2="280"/>
  </g>
  <rect x="40.0" y="237.1" width="29.1" height="42.9" rx="2" fill="url(#barGrad)" /><rect x="88.4" y="183.9" width="29.1" height="96.1" rx="2" fill="url(#barGrad)" /><rect x="136.8" y="167.4" width="29.1" height="112.6" rx="2" fill="url(#barGrad)" /><rect x="185.3" y="151.9" width="29.1" height="128.1" rx="2" fill="url(#barGrad)" /><rect x="233.7" y="135.5" width="29.1" height="144.5" rx="2" fill="url(#barGrad)" /><rect x="282.1" y="200.1" width="29.1" height="79.9" rx="2" fill="url(#barGrad)" /><rect x="330.5" y="212.0" width="29.1" height="68.0" rx="2" fill="url(#barGrad)" /><rect x="378.9" y="202.3" width="29.1" height="77.7" rx="2" fill="url(#barGrad)" /><rect x="427.4" y="205.0" width="29.1" height="75.0" rx="2" fill="url(#barGrad)" /><rect x="475.8" y="195.7" width="29.1" height="84.3" rx="2" fill="url(#barGrad)" /><rect x="524.2" y="181.9" width="29.1" height="98.1" rx="2" fill="url(#barGrad)" /><rect x="572.6" y="208.6" width="29.1" height="71.4" rx="2" fill="url(#barGrad)" /><rect x="621.1" y="196.9" width="29.1" height="83.1" rx="2" fill="url(#barGrad)" /><rect x="669.5" y="198.5" width="29.1" height="81.5" rx="2" fill="url(#barGrad)" /><rect x="717.9" y="215.2" width="29.1" height="64.8" rx="2" fill="url(#barGrad)" /><rect x="766.3" y="217.0" width="29.1" height="63.0" rx="2" fill="url(#barGrad)" /><rect x="814.7" y="213.4" width="29.1" height="66.6" rx="2" fill="url(#barGrad)" /><rect x="863.2" y="206.6" width="29.1" height="73.4" rx="2" fill="url(#barGrad)" /><rect x="911.6" y="213.4" width="29.1" height="66.6" rx="2" fill="url(#barGrad)" />
  <polyline fill="none" stroke="#63b3ed" stroke-width="2" points="54.5,167.8 102.9,44.0 151.4,40.0 199.8,104.6 248.2,95.7 296.6,83.5 345.1,116.1 393.5,103.8 441.9,113.8 490.3,90.7 538.7,79.4 587.2,99.9 635.6,81.1 684.0,89.1 732.4,98.7 780.8,111.8 829.3,125.4 877.7,88.3 926.1,117.9"/>
  <circle cx="54.5" cy="74.1" r="2.5" fill="#f6ad55" /><circle cx="102.9" cy="56.1" r="2.5" fill="#f6ad55" /><circle cx="151.4" cy="59.8" r="2.5" fill="#f6ad55" /><circle cx="199.8" cy="68.5" r="2.5" fill="#f6ad55" /><circle cx="248.2" cy="72.9" r="2.5" fill="#f6ad55" /><circle cx="296.6" cy="62.1" r="2.5" fill="#f6ad55" /><circle cx="345.1" cy="76.4" r="2.5" fill="#f6ad55" /><circle cx="393.5" cy="51.8" r="2.5" fill="#f6ad55" /><circle cx="441.9" cy="40.0" r="2.5" fill="#f6ad55" /><circle cx="490.3" cy="67.3" r="2.5" fill="#f6ad55" /><circle cx="538.7" cy="46.1" r="2.5" fill="#f6ad55" /><circle cx="587.2" cy="62.6" r="2.5" fill="#f6ad55" /><circle cx="635.6" cy="56.8" r="2.5" fill="#f6ad55" /><circle cx="684.0" cy="70.1" r="2.5" fill="#f6ad55" /><circle cx="732.4" cy="78.3" r="2.5" fill="#f6ad55" /><circle cx="780.8" cy="76.6" r="2.5" fill="#f6ad55" /><circle cx="829.3" cy="84.3" r="2.5" fill="#f6ad55" /><circle cx="877.7" cy="84.2" r="2.5" fill="#f6ad55" /><circle cx="926.1" cy="72.5" r="2.5" fill="#f6ad55" />
  <text x="40" y="30" fill="#9aa6b2" font-size="12">Hourly rate: Molts (bars), Likes (line), Views (dots scaled)</text>
  <text x="40" y="310" fill="#9aa6b2" font-size="11">max rate ~761.42 / hour</text>
</svg>