<?xml version="1.0" encoding="UTF-8"?>
<svg xmlns="http://www.w3.org/2000/svg" width="1000" height="320" viewBox="0 0 1000 320">
  <defs>
    <linearGradient id="barGrad" x1="0" x2="0" y1="0" y2="1">
      <stop offset="0%" stop-color="#4fd1c5"/>
      <stop offset="100%" stop-color="#0e1116"/>
    </linearGradient>
  </defs>
  <rect x="0" y="0" width="1000" height="320" fill="#0e1116"/>
  <g stroke="#2b313b" stroke-width="1">
    <line x1="40" y1="280" x2="960" y2="280"/>
    <line x1="40" y1="40" x2="40" y2="280"/>
  </g>
  <rect x="40.0" y="233.9" width="26.3" height="46.1" rx="2" fill="url(#barGrad)" /><rect x="83.8" y="202.1" width="26.3" height="77.9" rx="2" fill="url(#barGrad)" /><rect x="127.6" y="215.7" width="26.3" height="64.3" rx="2" fill="url(#barGrad)" /><rect x="171.4" y="204.2" width="26.3" height="75.8" rx="2" fill="url(#barGrad)" /><rect x="215.2" y="206.8" width="26.3" height="73.2" rx="2" fill="url(#barGrad)" /><rect x="259.0" y="205.4" width="26.3" height="74.6" rx="2" fill="url(#barGrad)" /><rect x="302.9" y="178.4" width="26.3" height="101.6" rx="2" fill="url(#barGrad)" /><rect x="346.7" y="206.8" width="26.3" height="73.2" rx="2" fill="url(#barGrad)" /><rect x="390.5" y="198.1" width="26.3" height="81.9" rx="2" fill="url(#barGrad)" /><rect x="434.3" y="194.1" width="26.3" height="85.9" rx="2" fill="url(#barGrad)" /><rect x="478.1" y="199.8" width="26.3" height="80.2" rx="2" fill="url(#barGrad)" /><rect x="521.9" y="214.6" width="26.3" height="65.4" rx="2" fill="url(#barGrad)" /><rect x="565.7" y="173.7" width="26.3" height="106.3" rx="2" fill="url(#barGrad)" /><rect x="609.5" y="190.9" width="26.3" height="89.1" rx="2" fill="url(#barGrad)" /><rect x="653.3" y="176.4" width="26.3" height="103.6" rx="2" fill="url(#barGrad)" /><rect x="697.1" y="183.7" width="26.3" height="96.3" rx="2" fill="url(#barGrad)" /><rect x="741.0" y="150.4" width="26.3" height="129.6" rx="2" fill="url(#barGrad)" /><rect x="784.8" y="172.6" width="26.3" height="107.4" rx="2" fill="url(#barGrad)" /><rect x="828.6" y="197.8" width="26.3" height="82.2" rx="2" fill="url(#barGrad)" /><rect x="872.4" y="214.8" width="26.3" height="65.2" rx="2" fill="url(#barGrad)" /><rect x="916.2" y="189.8" width="26.3" height="90.2" rx="2" fill="url(#barGrad)" />
  <polyline fill="none" stroke="#63b3ed" stroke-width="2" points="53.1,169.1 97.0,110.8 140.8,121.9 184.6,122.5 228.4,113.0 272.2,103.1 316.0,67.7 359.8,122.3 403.6,131.6 447.4,125.4 491.2,120.5 535.0,141.4 578.9,98.1 622.7,110.6 666.5,64.6 710.3,62.7 754.1,44.3 797.9,40.0 841.7,98.5 885.5,94.0 929.3,45.9"/>
  <circle cx="53.1" cy="40.0" r="2.5" fill="#f6ad55" /><circle cx="97.0" cy="86.6" r="2.5" fill="#f6ad55" /><circle cx="140.8" cy="78.3" r="2.5" fill="#f6ad55" /><circle cx="184.6" cy="81.9" r="2.5" fill="#f6ad55" /><circle cx="228.4" cy="94.8" r="2.5" fill="#f6ad55" /><circle cx="272.2" cy="68.0" r="2.5" fill="#f6ad55" /><circle cx="316.0" cy="99.2" r="2.5" fill="#f6ad55" /><circle cx="359.8" cy="97.0" r="2.5" fill="#f6ad55" /><circle cx="403.6" cy="92.0" r="2.5" fill="#f6ad55" /><circle cx="447.4" cy="87.4" r="2.5" fill="#f6ad55" /><circle cx="491.2" cy="71.3" r="2.5" fill="#f6ad55" /><circle cx="535.0" cy="84.0" r="2.5" fill="#f6ad55" /><circle cx="578.9" cy="82.4" r="2.5" fill="#f6ad55" /><circle cx="622.7" cy="85.0" r="2.5" fill="#f6ad55" /><circle cx="666.5" cy="104.1" r="2.5" fill="#f6ad55" /><circle cx="710.3" cy="90.9" r="2.5" fill="#f6ad55" /><circle cx="754.1" cy="63.4" r="2.5" fill="#f6ad55" /><circle cx="797.9" cy="82.0" r="2.5" fill="#f6ad55" /><circle cx="841.7" cy="72.5" r="2.5" fill="#f6ad55" /><circle cx="885.5" cy="67.4" r="2.5" fill="#f6ad55" /><circle cx="929.3" cy="66.0" r="2.5" fill="#f6ad55" />
  <text x="40" y="30" fill="#9aa6b2" font-size="12">Hourly rate: Molts (bars), Likes (line), Views (dots scaled)</text>
  <text x="40" y="310" fill="#9aa6b2" font-size="11">max rate ~907.34 / hour</text>
</svg>