<?xml version="1.0" encoding="UTF-8"?>
<svg xmlns="http://www.w3.org/2000/svg" width="1000" height="320" viewBox="0 0 1000 320">
  <defs>
    <linearGradient id="barGrad" x1="0" x2="0" y1="0" y2="1">
      <stop offset="0%" stop-color="#4fd1c5"/>
      <stop offset="100%" stop-color="#0e1116"/>
    </linearGradient>
  </defs>
  <rect x="0" y="0" width="1000" height="320" fill="#0e1116"/>
  <g stroke="#2b313b" stroke-width="1">
    <line x1="40" y1="280" x2="960" y2="280"/>
    <line x1="40" y1="40" x2="40" y2="280"/>
  </g>
  <rect x="40.0" y="214.7" width="138.0" height="65.3" rx="2" fill="url(#barGrad)" /><rect x="270.0" y="169.6" width="138.0" height="110.4" rx="2" fill="url(#barGrad)" /><rect x="500.0" y="188.8" width="138.0" height="91.2" rx="2" fill="url(#barGrad)" /><rect x="730.0" y="172.5" width="138.0" height="107.5" rx="2" fill="url(#barGrad)" />
  <polyline fill="none" stroke="#63b3ed" stroke-width="2" points="109.0,122.7 339.0,40.0 569.0,55.7 799.0,56.6"/>
  <circle cx="109.0" cy="40.0" r="2.5" fill="#f6ad55" /><circle cx="339.0" cy="86.6" r="2.5" fill="#f6ad55" /><circle cx="569.0" cy="78.3" r="2.5" fill="#f6ad55" /><circle cx="799.0" cy="81.9" r="2.5" fill="#f6ad55" />
  <text x="40" y="30" fill="#9aa6b2" font-size="12">Hourly rate: Molts (bars), Likes (line), Views (dots scaled)</text>
  <text x="40" y="310" fill="#9aa6b2" font-size="11">max rate ~639.73 / hour</text>
</svg>