<?xml version="1.0" encoding="UTF-8"?>
<svg xmlns="http://www.w3.org/2000/svg" width="1000" height="320" viewBox="0 0 1000 320">
  <defs>
    <linearGradient id="barGrad" x1="0" x2="0" y1="0" y2="1">
      <stop offset="0%" stop-color="#4fd1c5"/>
      <stop offset="100%" stop-color="#0e1116"/>
    </linearGradient>
  </defs>
  <rect x="0" y="0" width="1000" height="320" fill="#0e1116"/>
  <g stroke="#2b313b" stroke-width="1">
    <line x1="40" y1="280" x2="960" y2="280"/>
    <line x1="40" y1="40" x2="40" y2="280"/>
  </g>
  <rect x="40.0" y="237.1" width="78.9" height="42.9" rx="2" fill="url(#barGrad)" /><rect x="171.4" y="183.9" width="78.9" height="96.1" rx="2" fill="url(#barGrad)" /><rect x="302.9" y="167.4" width="78.9" height="112.6" rx="2" fill="url(#barGrad)" /><rect x="434.3" y="151.9" width="78.9" height="128.1" rx="2" fill="url(#barGrad)" /><rect x="565.7" y="135.5" width="78.9" height="144.5" rx="2" fill="url(#barGrad)" /><rect x="697.1" y="200.1" width="78.9" height="79.9" rx="2" fill="url(#barGrad)" /><rect x="828.6" y="212.0" width="78.9" height="68.0" rx="2" fill="url(#barGrad)" />
  <polyline fill="none" stroke="#63b3ed" stroke-width="2" points="79.4,167.8 210.9,44.0 342.3,40.0 473.7,104.6 605.1,95.7 736.6,83.5 868.0,116.1"/>
  <circle cx="79.4" cy="59.3" r="2.5" fill="#f6ad55" /><circle cx="210.9" cy="40.0" r="2.5" fill="#f6ad55" /><circle cx="342.3" cy="44.0" r="2.5" fill="#f6ad55" /><circle cx="473.7" cy="53.3" r="2.5" fill="#f6ad55" /><circle cx="605.1" cy="58.0" r="2.5" fill="#f6ad55" /><circle cx="736.6" cy="46.4" r="2.5" fill="#f6ad55" /><circle cx="868.0" cy="61.7" r="2.5" fill="#f6ad55" />
  <text x="40" y="30" fill="#9aa6b2" font-size="12">Hourly rate: Molts (bars), Likes (line), Views (dots scaled)</text>
  <text x="40" y="310" fill="#9aa6b2" font-size="11">max rate ~761.42 / hour</text>
</svg>