<?xml version="1.0" encoding="UTF-8"?>
<svg xmlns="http://www.w3.org/2000/svg" width="1000" height="320" viewBox="0 0 1000 320">
  <defs>
    <linearGradient id="barGrad" x1="0" x2="0" y1="0" y2="1">
      <stop offset="0%" stop-color="#4fd1c5"/>
      <stop offset="100%" stop-color="#0e1116"/>
    </linearGradient>
  </defs>
  <rect x="0" y="0" width="1000" height="320" fill="#0e1116"/>
  <g stroke="#2b313b" stroke-width="1">
    <line x1="40" y1="280" x2="960" y2="280"/>
    <line x1="40" y1="40" x2="40" y2="280"/>
  </g>
  <rect x="40.0" y="260.6" width="46.0" height="19.4" rx="2" fill="url(#barGrad)" /><rect x="116.7" y="216.4" width="46.0" height="63.6" rx="2" fill="url(#barGrad)" /><rect x="193.3" y="229.6" width="46.0" height="50.4" rx="2" fill="url(#barGrad)" /><rect x="270.0" y="232.5" width="46.0" height="47.5" rx="2" fill="url(#barGrad)" /><rect x="346.7" y="221.3" width="46.0" height="58.7" rx="2" fill="url(#barGrad)" /><rect x="423.3" y="225.9" width="46.0" height="54.1" rx="2" fill="url(#barGrad)" /><rect x="500.0" y="230.1" width="46.0" height="49.9" rx="2" fill="url(#barGrad)" /><rect x="576.7" y="222.6" width="46.0" height="57.4" rx="2" fill="url(#barGrad)" /><rect x="653.3" y="130.1" width="46.0" height="149.9" rx="2" fill="url(#barGrad)" /><rect x="730.0" y="216.6" width="46.0" height="63.4" rx="2" fill="url(#barGrad)" /><rect x="806.7" y="206.1" width="46.0" height="73.9" rx="2" fill="url(#barGrad)" /><rect x="883.3" y="206.3" width="46.0" height="73.7" rx="2" fill="url(#barGrad)" />
  <polyline fill="none" stroke="#63b3ed" stroke-width="2" points="63.0,215.7 139.7,155.1 216.3,176.9 293.0,168.8 369.7,160.3 446.3,152.6 523.0,165.3 599.7,164.1 676.3,40.0 753.0,173.9 829.7,167.2 906.3,172.1"/>
  <circle cx="63.0" cy="40.0" r="2.5" fill="#f6ad55" /><circle cx="139.7" cy="75.6" r="2.5" fill="#f6ad55" /><circle cx="216.3" cy="80.5" r="2.5" fill="#f6ad55" /><circle cx="293.0" cy="78.4" r="2.5" fill="#f6ad55" /><circle cx="369.7" cy="70.8" r="2.5" fill="#f6ad55" /><circle cx="446.3" cy="69.7" r="2.5" fill="#f6ad55" /><circle cx="523.0" cy="69.7" r="2.5" fill="#f6ad55" /><circle cx="599.7" cy="89.5" r="2.5" fill="#f6ad55" /><circle cx="676.3" cy="79.7" r="2.5" fill="#f6ad55" /><circle cx="753.0" cy="69.2" r="2.5" fill="#f6ad55" /><circle cx="829.7" cy="73.3" r="2.5" fill="#f6ad55" /><circle cx="906.3" cy="87.6" r="2.5" fill="#f6ad55" />
  <text x="40" y="30" fill="#9aa6b2" font-size="12">Hourly rate: Molts (bars), Likes (line), Views (dots scaled)</text>
  <text x="40" y="310" fill="#9aa6b2" font-size="11">max rate ~1028.14 / hour</text>
</svg>