<?xml version="1.0" encoding="UTF-8"?>
<svg xmlns="http://www.w3.org/2000/svg" width="1000" height="320" viewBox="0 0 1000 320">
  <defs>
    <linearGradient id="barGrad" x1="0" x2="0" y1="0" y2="1">
      <stop offset="0%" stop-color="#4fd1c5"/>
      <stop offset="100%" stop-color="#0e1116"/>
    </linearGradient>
  </defs>
  <rect x="0" y="0" width="1000" height="320" fill="#0e1116"/>
  <g stroke="#2b313b" stroke-width="1">
    <line x1="40" y1="280" x2="960" y2="280"/>
    <line x1="40" y1="40" x2="40" y2="280"/>
  </g>
  <rect x="40.0" y="216.2" width="32.5" height="63.8" rx="2" fill="url(#barGrad)" /><rect x="94.1" y="161.3" width="32.5" height="118.7" rx="2" fill="url(#barGrad)" /><rect x="148.2" y="191.1" width="32.5" height="88.9" rx="2" fill="url(#barGrad)" /><rect x="202.4" y="182.4" width="32.5" height="97.6" rx="2" fill="url(#barGrad)" /><rect x="256.5" y="154.9" width="32.5" height="125.1" rx="2" fill="url(#barGrad)" /><rect x="310.6" y="114.3" width="32.5" height="165.7" rx="2" fill="url(#barGrad)" /><rect x="364.7" y="144.5" width="32.5" height="135.5" rx="2" fill="url(#barGrad)" /><rect x="418.8" y="171.3" width="32.5" height="108.7" rx="2" fill="url(#barGrad)" /><rect x="472.9" y="171.5" width="32.5" height="108.5" rx="2" fill="url(#barGrad)" /><rect x="527.1" y="157.5" width="32.5" height="122.5" rx="2" fill="url(#barGrad)" /><rect x="581.2" y="138.2" width="32.5" height="141.8" rx="2" fill="url(#barGrad)" /><rect x="635.3" y="159.9" width="32.5" height="120.1" rx="2" fill="url(#barGrad)" /><rect x="689.4" y="162.1" width="32.5" height="117.9" rx="2" fill="url(#barGrad)" /><rect x="743.5" y="165.9" width="32.5" height="114.1" rx="2" fill="url(#barGrad)" /><rect x="797.6" y="146.0" width="32.5" height="134.0" rx="2" fill="url(#barGrad)" /><rect x="851.8" y="156.5" width="32.5" height="123.5" rx="2" fill="url(#barGrad)" /><rect x="905.9" y="183.2" width="32.5" height="96.8" rx="2" fill="url(#barGrad)" />
  <polyline fill="none" stroke="#63b3ed" stroke-width="2" points="56.2,129.4 110.4,40.0 164.5,68.7 218.6,79.1 272.7,89.6 326.8,67.1 380.9,93.0 435.1,77.7 489.2,77.5 543.3,123.0 597.4,110.7 651.5,75.0 705.6,111.4 759.8,106.1 813.9,89.7 868.0,92.8 922.1,90.1"/>
  <circle cx="56.2" cy="69.9" r="2.5" fill="#f6ad55" /><circle cx="110.4" cy="85.0" r="2.5" fill="#f6ad55" /><circle cx="164.5" cy="83.1" r="2.5" fill="#f6ad55" /><circle cx="218.6" cy="70.1" r="2.5" fill="#f6ad55" /><circle cx="272.7" cy="52.2" r="2.5" fill="#f6ad55" /><circle cx="326.8" cy="44.4" r="2.5" fill="#f6ad55" /><circle cx="380.9" cy="54.8" r="2.5" fill="#f6ad55" /><circle cx="435.1" cy="78.2" r="2.5" fill="#f6ad55" /><circle cx="489.2" cy="72.1" r="2.5" fill="#f6ad55" /><circle cx="543.3" cy="70.0" r="2.5" fill="#f6ad55" /><circle cx="597.4" cy="62.4" r="2.5" fill="#f6ad55" /><circle cx="651.5" cy="66.5" r="2.5" fill="#f6ad55" /><circle cx="705.6" cy="49.8" r="2.5" fill="#f6ad55" /><circle cx="759.8" cy="40.0" r="2.5" fill="#f6ad55" /><circle cx="813.9" cy="62.0" r="2.5" fill="#f6ad55" /><circle cx="868.0" cy="70.6" r="2.5" fill="#f6ad55" /><circle cx="922.1" cy="70.2" r="2.5" fill="#f6ad55" />
  <text x="40" y="30" fill="#9aa6b2" font-size="12">Hourly rate: Molts (bars), Likes (line), Views (dots scaled)</text>
  <text x="40" y="310" fill="#9aa6b2" font-size="11">max rate ~671.63 / hour</text>
</svg>