<?xml version="1.0" encoding="UTF-8"?>
<svg xmlns="http://www.w3.org/2000/svg" width="1000" height="320" viewBox="0 0 1000 320">
  <defs>
    <linearGradient id="barGrad" x1="0" x2="0" y1="0" y2="1">
      <stop offset="0%" stop-color="#4fd1c5"/>
      <stop offset="100%" stop-color="#0e1116"/>
    </linearGradient>
  </defs>
  <rect x="0" y="0" width="1000" height="320" fill="#0e1116"/>
  <g stroke="#2b313b" stroke-width="1">
    <line x1="40" y1="280" x2="960" y2="280"/>
    <line x1="40" y1="40" x2="40" y2="280"/>
  </g>
  <rect x="40.0" y="264.5" width="55.2" height="15.5" rx="2" fill="url(#barGrad)" /><rect x="132.0" y="220.7" width="55.2" height="59.3" rx="2" fill="url(#barGrad)" /><rect x="224.0" y="231.9" width="55.2" height="48.1" rx="2" fill="url(#barGrad)" /><rect x="316.0" y="233.5" width="55.2" height="46.5" rx="2" fill="url(#barGrad)" /><rect x="408.0" y="207.5" width="55.2" height="72.5" rx="2" fill="url(#barGrad)" /><rect x="500.0" y="208.8" width="55.2" height="71.2" rx="2" fill="url(#barGrad)" /><rect x="592.0" y="213.4" width="55.2" height="66.6" rx="2" fill="url(#barGrad)" /><rect x="684.0" y="174.0" width="55.2" height="106.0" rx="2" fill="url(#barGrad)" /><rect x="776.0" y="230.4" width="55.2" height="49.6" rx="2" fill="url(#barGrad)" /><rect x="868.0" y="201.3" width="55.2" height="78.7" rx="2" fill="url(#barGrad)" />
  <polyline fill="none" stroke="#63b3ed" stroke-width="2" points="67.6,235.0 159.6,140.1 251.6,173.8 343.6,183.0 435.6,137.6 527.6,154.7 619.6,166.8 711.6,40.0 803.6,187.6 895.6,130.2"/>
  <circle cx="67.6" cy="40.0" r="2.5" fill="#f6ad55" /><circle cx="159.6" cy="146.0" r="2.5" fill="#f6ad55" /><circle cx="251.6" cy="152.3" r="2.5" fill="#f6ad55" /><circle cx="343.6" cy="149.4" r="2.5" fill="#f6ad55" /><circle cx="435.6" cy="145.5" r="2.5" fill="#f6ad55" /><circle cx="527.6" cy="139.4" r="2.5" fill="#f6ad55" /><circle cx="619.6" cy="142.2" r="2.5" fill="#f6ad55" /><circle cx="711.6" cy="140.4" r="2.5" fill="#f6ad55" /><circle cx="803.6" cy="139.0" r="2.5" fill="#f6ad55" /><circle cx="895.6" cy="160.4" r="2.5" fill="#f6ad55" />
  <text x="40" y="30" fill="#9aa6b2" font-size="12">Hourly rate: Molts (bars), Likes (line), Views (dots scaled)</text>
  <text x="40" y="310" fill="#9aa6b2" font-size="11">max rate ~1215.79 / hour</text>
</svg>