<?xml version="1.0" encoding="UTF-8"?>
<svg xmlns="http://www.w3.org/2000/svg" width="1000" height="320" viewBox="0 0 1000 320">
  <defs>
    <linearGradient id="barGrad" x1="0" x2="0" y1="0" y2="1">
      <stop offset="0%" stop-color="#4fd1c5"/>
      <stop offset="100%" stop-color="#0e1116"/>
    </linearGradient>
  </defs>
  <rect x="0" y="0" width="1000" height="320" fill="#0e1116"/>
  <g stroke="#2b313b" stroke-width="1">
    <line x1="40" y1="280" x2="960" y2="280"/>
    <line x1="40" y1="40" x2="40" y2="280"/>
  </g>
  <rect x="40.0" y="265.6" width="24.0" height="14.4" rx="2" fill="url(#barGrad)" /><rect x="80.0" y="243.2" width="24.0" height="36.8" rx="2" fill="url(#barGrad)" /><rect x="120.0" y="233.3" width="24.0" height="46.7" rx="2" fill="url(#barGrad)" /><rect x="160.0" y="247.6" width="24.0" height="32.4" rx="2" fill="url(#barGrad)" /><rect x="200.0" y="252.9" width="24.0" height="27.1" rx="2" fill="url(#barGrad)" /><rect x="240.0" y="209.8" width="24.0" height="70.2" rx="2" fill="url(#barGrad)" /><rect x="280.0" y="243.5" width="24.0" height="36.5" rx="2" fill="url(#barGrad)" /><rect x="320.0" y="236.8" width="24.0" height="43.2" rx="2" fill="url(#barGrad)" /><rect x="360.0" y="253.6" width="24.0" height="26.4" rx="2" fill="url(#barGrad)" /><rect x="400.0" y="246.4" width="24.0" height="33.6" rx="2" fill="url(#barGrad)" /><rect x="440.0" y="226.4" width="24.0" height="53.6" rx="2" fill="url(#barGrad)" /><rect x="480.0" y="218.7" width="24.0" height="61.3" rx="2" fill="url(#barGrad)" /><rect x="520.0" y="205.3" width="24.0" height="74.7" rx="2" fill="url(#barGrad)" /><rect x="560.0" y="216.8" width="24.0" height="63.2" rx="2" fill="url(#barGrad)" /><rect x="600.0" y="196.9" width="24.0" height="83.1" rx="2" fill="url(#barGrad)" /><rect x="640.0" y="158.1" width="24.0" height="121.9" rx="2" fill="url(#barGrad)" /><rect x="680.0" y="40.0" width="24.0" height="240.0" rx="2" fill="url(#barGrad)" /><rect x="720.0" y="148.8" width="24.0" height="131.2" rx="2" fill="url(#barGrad)" /><rect x="760.0" y="199.9" width="24.0" height="80.1" rx="2" fill="url(#barGrad)" /><rect x="800.0" y="202.1" width="24.0" height="77.9" rx="2" fill="url(#barGrad)" /><rect x="840.0" y="220.2" width="24.0" height="59.8" rx="2" fill="url(#barGrad)" /><rect x="880.0" y="243.2" width="24.0" height="36.8" rx="2" fill="url(#barGrad)" /><rect x="920.0" y="252.0" width="24.0" height="28.0" rx="2" fill="url(#barGrad)" />
  <polyline fill="none" stroke="#63b3ed" stroke-width="2" points="52.0,244.3 92.0,230.4 132.0,230.0 172.0,215.9 212.0,232.7 252.0,227.8 292.0,233.8 332.0,207.4 372.0,237.0 412.0,233.9 452.0,225.7 492.0,227.0 532.0,232.0 572.0,227.9 612.0,230.9 652.0,227.0 692.0,232.0 732.0,216.0 772.0,229.4 812.0,222.1 852.0,227.6 892.0,236.8 932.0,236.0"/>
  <circle cx="52.0" cy="106.6" r="2.5" fill="#f6ad55" /><circle cx="92.0" cy="121.4" r="2.5" fill="#f6ad55" /><circle cx="132.0" cy="83.3" r="2.5" fill="#f6ad55" /><circle cx="172.0" cy="60.8" r="2.5" fill="#f6ad55" /><circle cx="212.0" cy="56.3" r="2.5" fill="#f6ad55" /><circle cx="252.0" cy="63.9" r="2.5" fill="#f6ad55" /><circle cx="292.0" cy="62.7" r="2.5" fill="#f6ad55" /><circle cx="332.0" cy="63.3" r="2.5" fill="#f6ad55" /><circle cx="372.0" cy="59.4" r="2.5" fill="#f6ad55" /><circle cx="412.0" cy="67.9" r="2.5" fill="#f6ad55" /><circle cx="452.0" cy="67.5" r="2.5" fill="#f6ad55" /><circle cx="492.0" cy="74.9" r="2.5" fill="#f6ad55" /><circle cx="532.0" cy="60.5" r="2.5" fill="#f6ad55" /><circle cx="572.0" cy="69.6" r="2.5" fill="#f6ad55" /><circle cx="612.0" cy="53.1" r="2.5" fill="#f6ad55" /><circle cx="652.0" cy="46.9" r="2.5" fill="#f6ad55" /><circle cx="692.0" cy="60.5" r="2.5" fill="#f6ad55" /><circle cx="732.0" cy="62.6" r="2.5" fill="#f6ad55" /><circle cx="772.0" cy="54.6" r="2.5" fill="#f6ad55" /><circle cx="812.0" cy="48.1" r="2.5" fill="#f6ad55" /><circle cx="852.0" cy="40.0" r="2.5" fill="#f6ad55" /><circle cx="892.0" cy="60.6" r="2.5" fill="#f6ad55" /><circle cx="932.0" cy="43.0" r="2.5" fill="#f6ad55" />
  <text x="40" y="30" fill="#9aa6b2" font-size="12">Hourly rate: Molts (bars), Likes (line), Views (dots scaled)</text>
  <text x="40" y="310" fill="#9aa6b2" font-size="11">max rate ~2257.04 / hour</text>
</svg>