<?xml version="1.0" encoding="UTF-8"?>
<svg xmlns="http://www.w3.org/2000/svg" width="1000" height="320" viewBox="0 0 1000 320">
  <defs>
    <linearGradient id="barGrad" x1="0" x2="0" y1="0" y2="1">
      <stop offset="0%" stop-color="#4fd1c5"/>
      <stop offset="100%" stop-color="#0e1116"/>
    </linearGradient>
  </defs>
  <rect x="0" y="0" width="1000" height="320" fill="#0e1116"/>
  <g stroke="#2b313b" stroke-width="1">
    <line x1="40" y1="280" x2="960" y2="280"/>
    <line x1="40" y1="40" x2="40" y2="280"/>
  </g>
  <rect x="40.0" y="40.0" width="42.5" height="240.0" rx="2" fill="url(#barGrad)" /><rect x="110.8" y="130.6" width="42.5" height="149.4" rx="2" fill="url(#barGrad)" /><rect x="181.5" y="264.2" width="42.5" height="15.8" rx="2" fill="url(#barGrad)" /><rect x="252.3" y="263.6" width="42.5" height="16.4" rx="2" fill="url(#barGrad)" /><rect x="323.1" y="259.3" width="42.5" height="20.7" rx="2" fill="url(#barGrad)" /><rect x="393.8" y="256.8" width="42.5" height="23.2" rx="2" fill="url(#barGrad)" /><rect x="464.6" y="263.6" width="42.5" height="16.4" rx="2" fill="url(#barGrad)" /><rect x="535.4" y="258.7" width="42.5" height="21.3" rx="2" fill="url(#barGrad)" /><rect x="606.2" y="262.3" width="42.5" height="17.7" rx="2" fill="url(#barGrad)" /><rect x="676.9" y="258.4" width="42.5" height="21.6" rx="2" fill="url(#barGrad)" /><rect x="747.7" y="258.7" width="42.5" height="21.3" rx="2" fill="url(#barGrad)" /><rect x="818.5" y="233.1" width="42.5" height="46.9" rx="2" fill="url(#barGrad)" /><rect x="889.2" y="178.1" width="42.5" height="101.9" rx="2" fill="url(#barGrad)" />
  <polyline fill="none" stroke="#63b3ed" stroke-width="2" points="61.2,239.6 132.0,244.1 202.8,242.8 273.5,249.5 344.3,241.8 415.1,249.3 485.8,245.9 556.6,253.0 627.4,256.6 698.2,247.6 768.9,246.5 839.7,243.3 910.5,239.7"/>
  <circle cx="61.2" cy="58.4" r="2.5" fill="#f6ad55" /><circle cx="132.0" cy="41.8" r="2.5" fill="#f6ad55" /><circle cx="202.8" cy="54.4" r="2.5" fill="#f6ad55" /><circle cx="273.5" cy="48.0" r="2.5" fill="#f6ad55" /><circle cx="344.3" cy="45.2" r="2.5" fill="#f6ad55" /><circle cx="415.1" cy="40.0" r="2.5" fill="#f6ad55" /><circle cx="485.8" cy="56.2" r="2.5" fill="#f6ad55" /><circle cx="556.6" cy="73.1" r="2.5" fill="#f6ad55" /><circle cx="627.4" cy="66.2" r="2.5" fill="#f6ad55" /><circle cx="698.2" cy="90.5" r="2.5" fill="#f6ad55" /><circle cx="768.9" cy="74.6" r="2.5" fill="#f6ad55" /><circle cx="839.7" cy="80.2" r="2.5" fill="#f6ad55" /><circle cx="910.5" cy="53.3" r="2.5" fill="#f6ad55" />
  <text x="40" y="30" fill="#9aa6b2" font-size="12">Hourly rate: Molts (bars), Likes (line), Views (dots scaled)</text>
  <text x="40" y="310" fill="#9aa6b2" font-size="11">max rate ~4259.25 / hour</text>
</svg>