<?xml version="1.0" encoding="UTF-8"?>
<svg xmlns="http://www.w3.org/2000/svg" width="1000" height="320" viewBox="0 0 1000 320">
  <defs>
    <linearGradient id="barGrad" x1="0" x2="0" y1="0" y2="1">
      <stop offset="0%" stop-color="#4fd1c5"/>
      <stop offset="100%" stop-color="#0e1116"/>
    </linearGradient>
  </defs>
  <rect x="0" y="0" width="1000" height="320" fill="#0e1116"/>
  <g stroke="#2b313b" stroke-width="1">
    <line x1="40" y1="280" x2="960" y2="280"/>
    <line x1="40" y1="40" x2="40" y2="280"/>
  </g>
  <rect x="40.0" y="260.6" width="24.0" height="19.4" rx="2" fill="url(#barGrad)" /><rect x="80.0" y="216.4" width="24.0" height="63.6" rx="2" fill="url(#barGrad)" /><rect x="120.0" y="229.6" width="24.0" height="50.4" rx="2" fill="url(#barGrad)" /><rect x="160.0" y="232.5" width="24.0" height="47.5" rx="2" fill="url(#barGrad)" /><rect x="200.0" y="221.3" width="24.0" height="58.7" rx="2" fill="url(#barGrad)" /><rect x="240.0" y="225.9" width="24.0" height="54.1" rx="2" fill="url(#barGrad)" /><rect x="280.0" y="230.1" width="24.0" height="49.9" rx="2" fill="url(#barGrad)" /><rect x="320.0" y="222.6" width="24.0" height="57.4" rx="2" fill="url(#barGrad)" /><rect x="360.0" y="130.1" width="24.0" height="149.9" rx="2" fill="url(#barGrad)" /><rect x="400.0" y="216.6" width="24.0" height="63.4" rx="2" fill="url(#barGrad)" /><rect x="440.0" y="206.1" width="24.0" height="73.9" rx="2" fill="url(#barGrad)" /><rect x="480.0" y="184.3" width="24.0" height="95.7" rx="2" fill="url(#barGrad)" /><rect x="520.0" y="193.8" width="24.0" height="86.2" rx="2" fill="url(#barGrad)" /><rect x="560.0" y="227.5" width="24.0" height="52.5" rx="2" fill="url(#barGrad)" /><rect x="600.0" y="213.2" width="24.0" height="66.8" rx="2" fill="url(#barGrad)" /><rect x="640.0" y="230.9" width="24.0" height="49.1" rx="2" fill="url(#barGrad)" /><rect x="680.0" y="205.4" width="24.0" height="74.6" rx="2" fill="url(#barGrad)" /><rect x="720.0" y="176.1" width="24.0" height="103.9" rx="2" fill="url(#barGrad)" /><rect x="760.0" y="195.9" width="24.0" height="84.1" rx="2" fill="url(#barGrad)" /><rect x="800.0" y="174.3" width="24.0" height="105.7" rx="2" fill="url(#barGrad)" /><rect x="840.0" y="201.8" width="24.0" height="78.2" rx="2" fill="url(#barGrad)" /><rect x="880.0" y="174.3" width="24.0" height="105.7" rx="2" fill="url(#barGrad)" /><rect x="920.0" y="174.3" width="24.0" height="105.7" rx="2" fill="url(#barGrad)" />
  <polyline fill="none" stroke="#63b3ed" stroke-width="2" points="52.0,215.7 92.0,155.1 132.0,176.9 172.0,168.8 212.0,160.3 252.0,152.6 292.0,165.3 332.0,164.1 372.0,40.0 412.0,173.9 452.0,167.2 492.0,155.7 532.0,161.7 572.0,159.4 612.0,146.8 652.0,167.7 692.0,130.1 732.0,113.5 772.0,135.0 812.0,142.0 852.0,130.5 892.0,128.1 932.0,107.7"/>
  <circle cx="52.0" cy="40.0" r="2.5" fill="#f6ad55" /><circle cx="92.0" cy="75.6" r="2.5" fill="#f6ad55" /><circle cx="132.0" cy="80.5" r="2.5" fill="#f6ad55" /><circle cx="172.0" cy="78.4" r="2.5" fill="#f6ad55" /><circle cx="212.0" cy="70.8" r="2.5" fill="#f6ad55" /><circle cx="252.0" cy="69.7" r="2.5" fill="#f6ad55" /><circle cx="292.0" cy="69.7" r="2.5" fill="#f6ad55" /><circle cx="332.0" cy="89.5" r="2.5" fill="#f6ad55" /><circle cx="372.0" cy="79.7" r="2.5" fill="#f6ad55" /><circle cx="412.0" cy="69.2" r="2.5" fill="#f6ad55" /><circle cx="452.0" cy="73.3" r="2.5" fill="#f6ad55" /><circle cx="492.0" cy="84.1" r="2.5" fill="#f6ad55" /><circle cx="532.0" cy="83.1" r="2.5" fill="#f6ad55" /><circle cx="572.0" cy="71.6" r="2.5" fill="#f6ad55" /><circle cx="612.0" cy="87.0" r="2.5" fill="#f6ad55" /><circle cx="652.0" cy="75.7" r="2.5" fill="#f6ad55" /><circle cx="692.0" cy="77.1" r="2.5" fill="#f6ad55" /><circle cx="732.0" cy="73.4" r="2.5" fill="#f6ad55" /><circle cx="772.0" cy="63.2" r="2.5" fill="#f6ad55" /><circle cx="812.0" cy="47.5" r="2.5" fill="#f6ad55" /><circle cx="852.0" cy="64.1" r="2.5" fill="#f6ad55" /><circle cx="892.0" cy="60.2" r="2.5" fill="#f6ad55" /><circle cx="932.0" cy="57.2" r="2.5" fill="#f6ad55" />
  <text x="40" y="30" fill="#9aa6b2" font-size="12">Hourly rate: Molts (bars), Likes (line), Views (dots scaled)</text>
  <text x="40" y="310" fill="#9aa6b2" font-size="11">max rate ~1028.14 / hour</text>
</svg>