<?xml version="1.0" encoding="UTF-8"?>
<svg xmlns="http://www.w3.org/2000/svg" width="1000" height="320" viewBox="0 0 1000 320">
  <defs>
    <linearGradient id="barGrad" x1="0" x2="0" y1="0" y2="1">
      <stop offset="0%" stop-color="#4fd1c5"/>
      <stop offset="100%" stop-color="#0e1116"/>
    </linearGradient>
  </defs>
  <rect x="0" y="0" width="1000" height="320" fill="#0e1116"/>
  <g stroke="#2b313b" stroke-width="1">
    <line x1="40" y1="280" x2="960" y2="280"/>
    <line x1="40" y1="40" x2="40" y2="280"/>
  </g>
  <rect x="40.0" y="234.2" width="29.1" height="45.8" rx="2" fill="url(#barGrad)" /><rect x="88.4" y="184.1" width="29.1" height="95.9" rx="2" fill="url(#barGrad)" /><rect x="136.8" y="192.5" width="29.1" height="87.5" rx="2" fill="url(#barGrad)" /><rect x="185.3" y="168.7" width="29.1" height="111.3" rx="2" fill="url(#barGrad)" /><rect x="233.7" y="185.8" width="29.1" height="94.2" rx="2" fill="url(#barGrad)" /><rect x="282.1" y="200.9" width="29.1" height="79.1" rx="2" fill="url(#barGrad)" /><rect x="330.5" y="188.9" width="29.1" height="91.1" rx="2" fill="url(#barGrad)" /><rect x="378.9" y="190.7" width="29.1" height="89.3" rx="2" fill="url(#barGrad)" /><rect x="427.4" y="172.3" width="29.1" height="107.7" rx="2" fill="url(#barGrad)" /><rect x="475.8" y="160.3" width="29.1" height="119.7" rx="2" fill="url(#barGrad)" /><rect x="524.2" y="135.0" width="29.1" height="145.0" rx="2" fill="url(#barGrad)" /><rect x="572.6" y="123.1" width="29.1" height="156.9" rx="2" fill="url(#barGrad)" /><rect x="621.1" y="167.8" width="29.1" height="112.2" rx="2" fill="url(#barGrad)" /><rect x="669.5" y="184.1" width="29.1" height="95.9" rx="2" fill="url(#barGrad)" /><rect x="717.9" y="178.8" width="29.1" height="101.2" rx="2" fill="url(#barGrad)" /><rect x="766.3" y="187.6" width="29.1" height="92.4" rx="2" fill="url(#barGrad)" /><rect x="814.7" y="197.0" width="29.1" height="83.0" rx="2" fill="url(#barGrad)" /><rect x="863.2" y="214.3" width="29.1" height="65.7" rx="2" fill="url(#barGrad)" /><rect x="911.6" y="200.8" width="29.1" height="79.2" rx="2" fill="url(#barGrad)" />
  <polyline fill="none" stroke="#63b3ed" stroke-width="2" points="54.5,174.2 102.9,114.9 151.4,116.1 199.8,86.3 248.2,120.2 296.6,125.5 345.1,103.1 393.5,137.6 441.9,103.9 490.3,99.0 538.7,112.0 587.2,107.0 635.6,80.4 684.0,128.6 732.4,97.4 780.8,84.1 829.3,126.3 877.7,124.5 926.1,40.0"/>
  <circle cx="54.5" cy="40.0" r="2.5" fill="#f6ad55" /><circle cx="102.9" cy="161.6" r="2.5" fill="#f6ad55" /><circle cx="151.4" cy="145.5" r="2.5" fill="#f6ad55" /><circle cx="199.8" cy="146.2" r="2.5" fill="#f6ad55" /><circle cx="248.2" cy="141.6" r="2.5" fill="#f6ad55" /><circle cx="296.6" cy="148.6" r="2.5" fill="#f6ad55" /><circle cx="345.1" cy="160.2" r="2.5" fill="#f6ad55" /><circle cx="393.5" cy="157.9" r="2.5" fill="#f6ad55" /><circle cx="441.9" cy="155.3" r="2.5" fill="#f6ad55" /><circle cx="490.3" cy="129.4" r="2.5" fill="#f6ad55" /><circle cx="538.7" cy="126.4" r="2.5" fill="#f6ad55" /><circle cx="587.2" cy="117.0" r="2.5" fill="#f6ad55" /><circle cx="635.6" cy="130.2" r="2.5" fill="#f6ad55" /><circle cx="684.0" cy="156.1" r="2.5" fill="#f6ad55" /><circle cx="732.4" cy="160.1" r="2.5" fill="#f6ad55" /><circle cx="780.8" cy="151.8" r="2.5" fill="#f6ad55" /><circle cx="829.3" cy="169.2" r="2.5" fill="#f6ad55" /><circle cx="877.7" cy="162.8" r="2.5" fill="#f6ad55" /><circle cx="926.1" cy="162.8" r="2.5" fill="#f6ad55" />
  <text x="40" y="30" fill="#9aa6b2" font-size="12">Hourly rate: Molts (bars), Likes (line), Views (dots scaled)</text>
  <text x="40" y="310" fill="#9aa6b2" font-size="11">max rate ~876.74 / hour</text>
</svg>