<?xml version="1.0" encoding="UTF-8"?>
<svg xmlns="http://www.w3.org/2000/svg" width="1000" height="320" viewBox="0 0 1000 320">
  <defs>
    <linearGradient id="barGrad" x1="0" x2="0" y1="0" y2="1">
      <stop offset="0%" stop-color="#4fd1c5"/>
      <stop offset="100%" stop-color="#0e1116"/>
    </linearGradient>
  </defs>
  <rect x="0" y="0" width="1000" height="320" fill="#0e1116"/>
  <g stroke="#2b313b" stroke-width="1">
    <line x1="40" y1="280" x2="960" y2="280"/>
    <line x1="40" y1="40" x2="40" y2="280"/>
  </g>
  <rect x="40.0" y="227.9" width="39.4" height="52.1" rx="2" fill="url(#barGrad)" /><rect x="105.7" y="192.0" width="39.4" height="88.0" rx="2" fill="url(#barGrad)" /><rect x="171.4" y="207.3" width="39.4" height="72.7" rx="2" fill="url(#barGrad)" /><rect x="237.1" y="194.3" width="39.4" height="85.7" rx="2" fill="url(#barGrad)" /><rect x="302.9" y="197.3" width="39.4" height="82.7" rx="2" fill="url(#barGrad)" /><rect x="368.6" y="195.6" width="39.4" height="84.4" rx="2" fill="url(#barGrad)" /><rect x="434.3" y="165.2" width="39.4" height="114.8" rx="2" fill="url(#barGrad)" /><rect x="500.0" y="197.2" width="39.4" height="82.8" rx="2" fill="url(#barGrad)" /><rect x="565.7" y="187.5" width="39.4" height="92.5" rx="2" fill="url(#barGrad)" /><rect x="631.4" y="182.9" width="39.4" height="97.1" rx="2" fill="url(#barGrad)" /><rect x="697.1" y="189.4" width="39.4" height="90.6" rx="2" fill="url(#barGrad)" /><rect x="762.9" y="206.1" width="39.4" height="73.9" rx="2" fill="url(#barGrad)" /><rect x="828.6" y="159.8" width="39.4" height="120.2" rx="2" fill="url(#barGrad)" /><rect x="894.3" y="156.3" width="39.4" height="123.7" rx="2" fill="url(#barGrad)" />
  <polyline fill="none" stroke="#63b3ed" stroke-width="2" points="59.7,154.6 125.4,88.7 191.1,101.3 256.9,101.9 322.6,91.2 388.3,80.0 454.0,40.0 519.7,101.8 585.4,112.3 651.1,105.2 716.9,99.7 782.6,123.3 848.3,74.3 914.0,87.8"/>
  <circle cx="59.7" cy="40.0" r="2.5" fill="#f6ad55" /><circle cx="125.4" cy="86.6" r="2.5" fill="#f6ad55" /><circle cx="191.1" cy="78.3" r="2.5" fill="#f6ad55" /><circle cx="256.9" cy="81.9" r="2.5" fill="#f6ad55" /><circle cx="322.6" cy="94.8" r="2.5" fill="#f6ad55" /><circle cx="388.3" cy="68.0" r="2.5" fill="#f6ad55" /><circle cx="454.0" cy="99.2" r="2.5" fill="#f6ad55" /><circle cx="519.7" cy="97.0" r="2.5" fill="#f6ad55" /><circle cx="585.4" cy="92.0" r="2.5" fill="#f6ad55" /><circle cx="651.1" cy="87.4" r="2.5" fill="#f6ad55" /><circle cx="716.9" cy="71.3" r="2.5" fill="#f6ad55" /><circle cx="782.6" cy="84.0" r="2.5" fill="#f6ad55" /><circle cx="848.3" cy="82.4" r="2.5" fill="#f6ad55" /><circle cx="914.0" cy="81.0" r="2.5" fill="#f6ad55" />
  <text x="40" y="30" fill="#9aa6b2" font-size="12">Hourly rate: Molts (bars), Likes (line), Views (dots scaled)</text>
  <text x="40" y="310" fill="#9aa6b2" font-size="11">max rate ~802.71 / hour</text>
</svg>