<?xml version="1.0" encoding="UTF-8"?>
<svg xmlns="http://www.w3.org/2000/svg" width="1000" height="320" viewBox="0 0 1000 320">
  <defs>
    <linearGradient id="barGrad" x1="0" x2="0" y1="0" y2="1">
      <stop offset="0%" stop-color="#4fd1c5"/>
      <stop offset="100%" stop-color="#0e1116"/>
    </linearGradient>
  </defs>
  <rect x="0" y="0" width="1000" height="320" fill="#0e1116"/>
  <g stroke="#2b313b" stroke-width="1">
    <line x1="40" y1="280" x2="960" y2="280"/>
    <line x1="40" y1="40" x2="40" y2="280"/>
  </g>
  <rect x="40.0" y="265.6" width="27.6" height="14.4" rx="2" fill="url(#barGrad)" /><rect x="86.0" y="243.2" width="27.6" height="36.8" rx="2" fill="url(#barGrad)" /><rect x="132.0" y="233.3" width="27.6" height="46.7" rx="2" fill="url(#barGrad)" /><rect x="178.0" y="247.6" width="27.6" height="32.4" rx="2" fill="url(#barGrad)" /><rect x="224.0" y="252.9" width="27.6" height="27.1" rx="2" fill="url(#barGrad)" /><rect x="270.0" y="209.8" width="27.6" height="70.2" rx="2" fill="url(#barGrad)" /><rect x="316.0" y="243.5" width="27.6" height="36.5" rx="2" fill="url(#barGrad)" /><rect x="362.0" y="236.8" width="27.6" height="43.2" rx="2" fill="url(#barGrad)" /><rect x="408.0" y="253.6" width="27.6" height="26.4" rx="2" fill="url(#barGrad)" /><rect x="454.0" y="246.4" width="27.6" height="33.6" rx="2" fill="url(#barGrad)" /><rect x="500.0" y="226.4" width="27.6" height="53.6" rx="2" fill="url(#barGrad)" /><rect x="546.0" y="218.7" width="27.6" height="61.3" rx="2" fill="url(#barGrad)" /><rect x="592.0" y="205.3" width="27.6" height="74.7" rx="2" fill="url(#barGrad)" /><rect x="638.0" y="216.8" width="27.6" height="63.2" rx="2" fill="url(#barGrad)" /><rect x="684.0" y="196.9" width="27.6" height="83.1" rx="2" fill="url(#barGrad)" /><rect x="730.0" y="158.1" width="27.6" height="121.9" rx="2" fill="url(#barGrad)" /><rect x="776.0" y="40.0" width="27.6" height="240.0" rx="2" fill="url(#barGrad)" /><rect x="822.0" y="148.8" width="27.6" height="131.2" rx="2" fill="url(#barGrad)" /><rect x="868.0" y="199.9" width="27.6" height="80.1" rx="2" fill="url(#barGrad)" /><rect x="914.0" y="202.1" width="27.6" height="77.9" rx="2" fill="url(#barGrad)" />
  <polyline fill="none" stroke="#63b3ed" stroke-width="2" points="53.8,244.3 99.8,230.4 145.8,230.0 191.8,215.9 237.8,232.7 283.8,227.8 329.8,233.8 375.8,207.4 421.8,237.0 467.8,233.9 513.8,225.7 559.8,227.0 605.8,232.0 651.8,227.9 697.8,230.9 743.8,227.0 789.8,232.0 835.8,216.0 881.8,229.4 927.8,222.1"/>
  <circle cx="53.8" cy="101.5" r="2.5" fill="#f6ad55" /><circle cx="99.8" cy="116.6" r="2.5" fill="#f6ad55" /><circle cx="145.8" cy="77.4" r="2.5" fill="#f6ad55" /><circle cx="191.8" cy="54.3" r="2.5" fill="#f6ad55" /><circle cx="237.8" cy="49.6" r="2.5" fill="#f6ad55" /><circle cx="283.8" cy="57.5" r="2.5" fill="#f6ad55" /><circle cx="329.8" cy="56.2" r="2.5" fill="#f6ad55" /><circle cx="375.8" cy="56.8" r="2.5" fill="#f6ad55" /><circle cx="421.8" cy="52.9" r="2.5" fill="#f6ad55" /><circle cx="467.8" cy="61.6" r="2.5" fill="#f6ad55" /><circle cx="513.8" cy="61.2" r="2.5" fill="#f6ad55" /><circle cx="559.8" cy="68.8" r="2.5" fill="#f6ad55" /><circle cx="605.8" cy="54.0" r="2.5" fill="#f6ad55" /><circle cx="651.8" cy="63.4" r="2.5" fill="#f6ad55" /><circle cx="697.8" cy="46.4" r="2.5" fill="#f6ad55" /><circle cx="743.8" cy="40.0" r="2.5" fill="#f6ad55" /><circle cx="789.8" cy="54.0" r="2.5" fill="#f6ad55" /><circle cx="835.8" cy="56.2" r="2.5" fill="#f6ad55" /><circle cx="881.8" cy="47.9" r="2.5" fill="#f6ad55" /><circle cx="927.8" cy="41.3" r="2.5" fill="#f6ad55" />
  <text x="40" y="30" fill="#9aa6b2" font-size="12">Hourly rate: Molts (bars), Likes (line), Views (dots scaled)</text>
  <text x="40" y="310" fill="#9aa6b2" font-size="11">max rate ~2257.04 / hour</text>
</svg>