<?xml version="1.0" encoding="UTF-8"?>
<svg xmlns="http://www.w3.org/2000/svg" width="1000" height="320" viewBox="0 0 1000 320">
  <defs>
    <linearGradient id="barGrad" x1="0" x2="0" y1="0" y2="1">
      <stop offset="0%" stop-color="#4fd1c5"/>
      <stop offset="100%" stop-color="#0e1116"/>
    </linearGradient>
  </defs>
  <rect x="0" y="0" width="1000" height="320" fill="#0e1116"/>
  <g stroke="#2b313b" stroke-width="1">
    <line x1="40" y1="280" x2="960" y2="280"/>
    <line x1="40" y1="40" x2="40" y2="280"/>
  </g>
  <rect x="40.0" y="237.1" width="55.2" height="42.9" rx="2" fill="url(#barGrad)" /><rect x="132.0" y="183.9" width="55.2" height="96.1" rx="2" fill="url(#barGrad)" /><rect x="224.0" y="167.4" width="55.2" height="112.6" rx="2" fill="url(#barGrad)" /><rect x="316.0" y="151.9" width="55.2" height="128.1" rx="2" fill="url(#barGrad)" /><rect x="408.0" y="135.5" width="55.2" height="144.5" rx="2" fill="url(#barGrad)" /><rect x="500.0" y="200.1" width="55.2" height="79.9" rx="2" fill="url(#barGrad)" /><rect x="592.0" y="212.0" width="55.2" height="68.0" rx="2" fill="url(#barGrad)" /><rect x="684.0" y="202.3" width="55.2" height="77.7" rx="2" fill="url(#barGrad)" /><rect x="776.0" y="205.0" width="55.2" height="75.0" rx="2" fill="url(#barGrad)" /><rect x="868.0" y="184.3" width="55.2" height="95.7" rx="2" fill="url(#barGrad)" />
  <polyline fill="none" stroke="#63b3ed" stroke-width="2" points="67.6,167.8 159.6,44.0 251.6,40.0 343.6,104.6 435.6,95.7 527.6,83.5 619.6,116.1 711.6,103.8 803.6,113.8 895.6,91.7"/>
  <circle cx="67.6" cy="74.1" r="2.5" fill="#f6ad55" /><circle cx="159.6" cy="56.1" r="2.5" fill="#f6ad55" /><circle cx="251.6" cy="59.8" r="2.5" fill="#f6ad55" /><circle cx="343.6" cy="68.5" r="2.5" fill="#f6ad55" /><circle cx="435.6" cy="72.9" r="2.5" fill="#f6ad55" /><circle cx="527.6" cy="62.1" r="2.5" fill="#f6ad55" /><circle cx="619.6" cy="76.4" r="2.5" fill="#f6ad55" /><circle cx="711.6" cy="51.8" r="2.5" fill="#f6ad55" /><circle cx="803.6" cy="40.0" r="2.5" fill="#f6ad55" /><circle cx="895.6" cy="78.7" r="2.5" fill="#f6ad55" />
  <text x="40" y="30" fill="#9aa6b2" font-size="12">Hourly rate: Molts (bars), Likes (line), Views (dots scaled)</text>
  <text x="40" y="310" fill="#9aa6b2" font-size="11">max rate ~761.42 / hour</text>
</svg>