<?xml version="1.0" encoding="UTF-8"?>
<svg xmlns="http://www.w3.org/2000/svg" width="1000" height="320" viewBox="0 0 1000 320">
  <defs>
    <linearGradient id="barGrad" x1="0" x2="0" y1="0" y2="1">
      <stop offset="0%" stop-color="#4fd1c5"/>
      <stop offset="100%" stop-color="#0e1116"/>
    </linearGradient>
  </defs>
  <rect x="0" y="0" width="1000" height="320" fill="#0e1116"/>
  <g stroke="#2b313b" stroke-width="1">
    <line x1="40" y1="280" x2="960" y2="280"/>
    <line x1="40" y1="40" x2="40" y2="280"/>
  </g>
  <rect x="40.0" y="252.6" width="23.0" height="27.4" rx="2" fill="url(#barGrad)" /><rect x="78.3" y="216.4" width="23.0" height="63.6" rx="2" fill="url(#barGrad)" /><rect x="116.7" y="220.3" width="23.0" height="59.7" rx="2" fill="url(#barGrad)" /><rect x="155.0" y="210.5" width="23.0" height="69.5" rx="2" fill="url(#barGrad)" /><rect x="193.3" y="210.3" width="23.0" height="69.7" rx="2" fill="url(#barGrad)" /><rect x="231.7" y="215.9" width="23.0" height="64.1" rx="2" fill="url(#barGrad)" /><rect x="270.0" y="222.0" width="23.0" height="58.0" rx="2" fill="url(#barGrad)" /><rect x="308.3" y="230.9" width="23.0" height="49.1" rx="2" fill="url(#barGrad)" /><rect x="346.7" y="214.9" width="23.0" height="65.1" rx="2" fill="url(#barGrad)" /><rect x="385.0" y="88.7" width="23.0" height="191.3" rx="2" fill="url(#barGrad)" /><rect x="423.3" y="55.2" width="23.0" height="224.8" rx="2" fill="url(#barGrad)" /><rect x="461.7" y="197.4" width="23.0" height="82.6" rx="2" fill="url(#barGrad)" /><rect x="500.0" y="178.2" width="23.0" height="101.8" rx="2" fill="url(#barGrad)" /><rect x="538.3" y="200.9" width="23.0" height="79.1" rx="2" fill="url(#barGrad)" /><rect x="576.7" y="119.6" width="23.0" height="160.4" rx="2" fill="url(#barGrad)" /><rect x="615.0" y="40.0" width="23.0" height="240.0" rx="2" fill="url(#barGrad)" /><rect x="653.3" y="164.9" width="23.0" height="115.1" rx="2" fill="url(#barGrad)" /><rect x="691.7" y="180.2" width="23.0" height="99.8" rx="2" fill="url(#barGrad)" /><rect x="730.0" y="173.0" width="23.0" height="107.0" rx="2" fill="url(#barGrad)" /><rect x="768.3" y="163.9" width="23.0" height="116.1" rx="2" fill="url(#barGrad)" /><rect x="806.7" y="176.3" width="23.0" height="103.7" rx="2" fill="url(#barGrad)" /><rect x="845.0" y="183.5" width="23.0" height="96.5" rx="2" fill="url(#barGrad)" /><rect x="883.3" y="207.4" width="23.0" height="72.6" rx="2" fill="url(#barGrad)" /><rect x="921.7" y="201.3" width="23.0" height="78.7" rx="2" fill="url(#barGrad)" />
  <polyline fill="none" stroke="#63b3ed" stroke-width="2" points="51.5,177.6 89.8,223.1 128.2,186.2 166.5,173.9 204.8,156.6 243.2,174.1 281.5,156.5 319.8,178.7 358.2,146.4 396.5,133.8 434.8,88.9 473.2,132.4 511.5,108.7 549.8,114.9 588.2,97.9 626.5,142.1 664.8,162.8 703.2,165.7 741.5,166.7 779.8,165.4 818.2,156.4 856.5,159.1 894.8,154.3 933.2,152.0"/>
  <circle cx="51.5" cy="74.8" r="2.5" fill="#f6ad55" /><circle cx="89.8" cy="47.6" r="2.5" fill="#f6ad55" /><circle cx="128.2" cy="71.1" r="2.5" fill="#f6ad55" /><circle cx="166.5" cy="103.3" r="2.5" fill="#f6ad55" /><circle cx="204.8" cy="124.2" r="2.5" fill="#f6ad55" /><circle cx="243.2" cy="117.9" r="2.5" fill="#f6ad55" /><circle cx="281.5" cy="71.3" r="2.5" fill="#f6ad55" /><circle cx="319.8" cy="95.5" r="2.5" fill="#f6ad55" /><circle cx="358.2" cy="125.1" r="2.5" fill="#f6ad55" /><circle cx="396.5" cy="112.4" r="2.5" fill="#f6ad55" /><circle cx="434.8" cy="83.9" r="2.5" fill="#f6ad55" /><circle cx="473.2" cy="94.5" r="2.5" fill="#f6ad55" /><circle cx="511.5" cy="55.6" r="2.5" fill="#f6ad55" /><circle cx="549.8" cy="53.2" r="2.5" fill="#f6ad55" /><circle cx="588.2" cy="47.3" r="2.5" fill="#f6ad55" /><circle cx="626.5" cy="58.7" r="2.5" fill="#f6ad55" /><circle cx="664.8" cy="74.8" r="2.5" fill="#f6ad55" /><circle cx="703.2" cy="40.0" r="2.5" fill="#f6ad55" /><circle cx="741.5" cy="96.0" r="2.5" fill="#f6ad55" /><circle cx="779.8" cy="123.5" r="2.5" fill="#f6ad55" /><circle cx="818.2" cy="129.0" r="2.5" fill="#f6ad55" /><circle cx="856.5" cy="86.2" r="2.5" fill="#f6ad55" /><circle cx="894.8" cy="67.5" r="2.5" fill="#f6ad55" /><circle cx="933.2" cy="100.7" r="2.5" fill="#f6ad55" />
  <text x="40" y="30" fill="#9aa6b2" font-size="12">Hourly rate: Molts (bars), Likes (line), Views (dots scaled)</text>
  <text x="40" y="310" fill="#9aa6b2" font-size="11">max rate ~840.74 / hour</text>
</svg>