<?xml version="1.0" encoding="UTF-8"?>
<svg xmlns="http://www.w3.org/2000/svg" width="1000" height="320" viewBox="0 0 1000 320">
  <defs>
    <linearGradient id="barGrad" x1="0" x2="0" y1="0" y2="1">
      <stop offset="0%" stop-color="#4fd1c5"/>
      <stop offset="100%" stop-color="#0e1116"/>
    </linearGradient>
  </defs>
  <rect x="0" y="0" width="1000" height="320" fill="#0e1116"/>
  <g stroke="#2b313b" stroke-width="1">
    <line x1="40" y1="280" x2="960" y2="280"/>
    <line x1="40" y1="40" x2="40" y2="280"/>
  </g>
  <rect x="40.0" y="250.7" width="50.2" height="29.3" rx="2" fill="url(#barGrad)" /><rect x="123.6" y="212.1" width="50.2" height="67.9" rx="2" fill="url(#barGrad)" /><rect x="207.3" y="216.3" width="50.2" height="63.7" rx="2" fill="url(#barGrad)" /><rect x="290.9" y="205.8" width="50.2" height="74.2" rx="2" fill="url(#barGrad)" /><rect x="374.5" y="205.6" width="50.2" height="74.4" rx="2" fill="url(#barGrad)" /><rect x="458.2" y="211.5" width="50.2" height="68.5" rx="2" fill="url(#barGrad)" /><rect x="541.8" y="218.1" width="50.2" height="61.9" rx="2" fill="url(#barGrad)" /><rect x="625.5" y="227.6" width="50.2" height="52.4" rx="2" fill="url(#barGrad)" /><rect x="709.1" y="210.5" width="50.2" height="69.5" rx="2" fill="url(#barGrad)" /><rect x="792.7" y="75.8" width="50.2" height="204.2" rx="2" fill="url(#barGrad)" /><rect x="876.4" y="40.0" width="50.2" height="240.0" rx="2" fill="url(#barGrad)" />
  <polyline fill="none" stroke="#63b3ed" stroke-width="2" points="65.1,170.7 148.7,219.3 232.4,179.9 316.0,166.7 399.6,148.3 483.3,166.9 566.9,148.2 650.5,171.8 734.2,137.4 817.8,123.9 901.5,76.0"/>
  <circle cx="65.1" cy="68.1" r="2.5" fill="#f6ad55" /><circle cx="148.7" cy="40.0" r="2.5" fill="#f6ad55" /><circle cx="232.4" cy="64.3" r="2.5" fill="#f6ad55" /><circle cx="316.0" cy="97.6" r="2.5" fill="#f6ad55" /><circle cx="399.6" cy="119.2" r="2.5" fill="#f6ad55" /><circle cx="483.3" cy="112.6" r="2.5" fill="#f6ad55" /><circle cx="566.9" cy="64.5" r="2.5" fill="#f6ad55" /><circle cx="650.5" cy="89.5" r="2.5" fill="#f6ad55" /><circle cx="734.2" cy="120.0" r="2.5" fill="#f6ad55" /><circle cx="817.8" cy="106.9" r="2.5" fill="#f6ad55" /><circle cx="901.5" cy="77.5" r="2.5" fill="#f6ad55" />
  <text x="40" y="30" fill="#9aa6b2" font-size="12">Hourly rate: Molts (bars), Likes (line), Views (dots scaled)</text>
  <text x="40" y="310" fill="#9aa6b2" font-size="11">max rate ~787.56 / hour</text>
</svg>