<?xml version="1.0" encoding="UTF-8"?>
<svg xmlns="http://www.w3.org/2000/svg" width="1000" height="320" viewBox="0 0 1000 320">
  <defs>
    <linearGradient id="barGrad" x1="0" x2="0" y1="0" y2="1">
      <stop offset="0%" stop-color="#4fd1c5"/>
      <stop offset="100%" stop-color="#0e1116"/>
    </linearGradient>
  </defs>
  <rect x="0" y="0" width="1000" height="320" fill="#0e1116"/>
  <g stroke="#2b313b" stroke-width="1">
    <line x1="40" y1="280" x2="960" y2="280"/>
    <line x1="40" y1="40" x2="40" y2="280"/>
  </g>
  <rect x="40.0" y="260.6" width="30.7" height="19.4" rx="2" fill="url(#barGrad)" /><rect x="91.1" y="216.4" width="30.7" height="63.6" rx="2" fill="url(#barGrad)" /><rect x="142.2" y="229.6" width="30.7" height="50.4" rx="2" fill="url(#barGrad)" /><rect x="193.3" y="232.5" width="30.7" height="47.5" rx="2" fill="url(#barGrad)" /><rect x="244.4" y="221.3" width="30.7" height="58.7" rx="2" fill="url(#barGrad)" /><rect x="295.6" y="225.9" width="30.7" height="54.1" rx="2" fill="url(#barGrad)" /><rect x="346.7" y="230.1" width="30.7" height="49.9" rx="2" fill="url(#barGrad)" /><rect x="397.8" y="222.6" width="30.7" height="57.4" rx="2" fill="url(#barGrad)" /><rect x="448.9" y="130.1" width="30.7" height="149.9" rx="2" fill="url(#barGrad)" /><rect x="500.0" y="216.6" width="30.7" height="63.4" rx="2" fill="url(#barGrad)" /><rect x="551.1" y="206.1" width="30.7" height="73.9" rx="2" fill="url(#barGrad)" /><rect x="602.2" y="184.3" width="30.7" height="95.7" rx="2" fill="url(#barGrad)" /><rect x="653.3" y="193.8" width="30.7" height="86.2" rx="2" fill="url(#barGrad)" /><rect x="704.4" y="227.5" width="30.7" height="52.5" rx="2" fill="url(#barGrad)" /><rect x="755.6" y="213.2" width="30.7" height="66.8" rx="2" fill="url(#barGrad)" /><rect x="806.7" y="230.9" width="30.7" height="49.1" rx="2" fill="url(#barGrad)" /><rect x="857.8" y="205.4" width="30.7" height="74.6" rx="2" fill="url(#barGrad)" /><rect x="908.9" y="172.1" width="30.7" height="107.9" rx="2" fill="url(#barGrad)" />
  <polyline fill="none" stroke="#63b3ed" stroke-width="2" points="55.3,215.7 106.4,155.1 157.6,176.9 208.7,168.8 259.8,160.3 310.9,152.6 362.0,165.3 413.1,164.1 464.2,40.0 515.3,173.9 566.4,167.2 617.6,155.7 668.7,161.7 719.8,159.4 770.9,146.8 822.0,167.7 873.1,130.1 924.2,91.6"/>
  <circle cx="55.3" cy="40.0" r="2.5" fill="#f6ad55" /><circle cx="106.4" cy="75.6" r="2.5" fill="#f6ad55" /><circle cx="157.6" cy="80.5" r="2.5" fill="#f6ad55" /><circle cx="208.7" cy="78.4" r="2.5" fill="#f6ad55" /><circle cx="259.8" cy="70.8" r="2.5" fill="#f6ad55" /><circle cx="310.9" cy="69.7" r="2.5" fill="#f6ad55" /><circle cx="362.0" cy="69.7" r="2.5" fill="#f6ad55" /><circle cx="413.1" cy="89.5" r="2.5" fill="#f6ad55" /><circle cx="464.2" cy="79.7" r="2.5" fill="#f6ad55" /><circle cx="515.3" cy="69.2" r="2.5" fill="#f6ad55" /><circle cx="566.4" cy="73.3" r="2.5" fill="#f6ad55" /><circle cx="617.6" cy="84.1" r="2.5" fill="#f6ad55" /><circle cx="668.7" cy="83.1" r="2.5" fill="#f6ad55" /><circle cx="719.8" cy="71.6" r="2.5" fill="#f6ad55" /><circle cx="770.9" cy="87.0" r="2.5" fill="#f6ad55" /><circle cx="822.0" cy="75.7" r="2.5" fill="#f6ad55" /><circle cx="873.1" cy="77.1" r="2.5" fill="#f6ad55" /><circle cx="924.2" cy="74.0" r="2.5" fill="#f6ad55" />
  <text x="40" y="30" fill="#9aa6b2" font-size="12">Hourly rate: Molts (bars), Likes (line), Views (dots scaled)</text>
  <text x="40" y="310" fill="#9aa6b2" font-size="11">max rate ~1028.14 / hour</text>
</svg>