<?xml version="1.0" encoding="UTF-8"?>
<svg xmlns="http://www.w3.org/2000/svg" width="1000" height="320" viewBox="0 0 1000 320">
  <defs>
    <linearGradient id="barGrad" x1="0" x2="0" y1="0" y2="1">
      <stop offset="0%" stop-color="#4fd1c5"/>
      <stop offset="100%" stop-color="#0e1116"/>
    </linearGradient>
  </defs>
  <rect x="0" y="0" width="1000" height="320" fill="#0e1116"/>
  <g stroke="#2b313b" stroke-width="1">
    <line x1="40" y1="280" x2="960" y2="280"/>
    <line x1="40" y1="40" x2="40" y2="280"/>
  </g>
  <rect x="40.0" y="226.2" width="36.8" height="53.8" rx="2" fill="url(#barGrad)" /><rect x="101.3" y="167.5" width="36.8" height="112.5" rx="2" fill="url(#barGrad)" /><rect x="162.7" y="177.3" width="36.8" height="102.7" rx="2" fill="url(#barGrad)" /><rect x="224.0" y="149.4" width="36.8" height="130.6" rx="2" fill="url(#barGrad)" /><rect x="285.3" y="169.5" width="36.8" height="110.5" rx="2" fill="url(#barGrad)" /><rect x="346.7" y="187.2" width="36.8" height="92.8" rx="2" fill="url(#barGrad)" /><rect x="408.0" y="173.1" width="36.8" height="106.9" rx="2" fill="url(#barGrad)" /><rect x="469.3" y="175.2" width="36.8" height="104.8" rx="2" fill="url(#barGrad)" /><rect x="530.7" y="153.7" width="36.8" height="126.3" rx="2" fill="url(#barGrad)" /><rect x="592.0" y="139.6" width="36.8" height="140.4" rx="2" fill="url(#barGrad)" /><rect x="653.3" y="109.9" width="36.8" height="170.1" rx="2" fill="url(#barGrad)" /><rect x="714.7" y="95.9" width="36.8" height="184.1" rx="2" fill="url(#barGrad)" /><rect x="776.0" y="148.4" width="36.8" height="131.6" rx="2" fill="url(#barGrad)" /><rect x="837.3" y="167.4" width="36.8" height="112.6" rx="2" fill="url(#barGrad)" /><rect x="898.7" y="154.3" width="36.8" height="125.7" rx="2" fill="url(#barGrad)" />
  <polyline fill="none" stroke="#63b3ed" stroke-width="2" points="58.4,155.9 119.7,86.3 181.1,87.7 242.4,52.7 303.7,92.6 365.1,98.7 426.4,72.4 487.7,112.9 549.1,73.4 610.4,67.6 671.7,82.8 733.1,77.0 794.4,45.7 855.7,102.4 917.1,40.0"/>
  <circle cx="58.4" cy="40.0" r="2.5" fill="#f6ad55" /><circle cx="119.7" cy="161.6" r="2.5" fill="#f6ad55" /><circle cx="181.1" cy="145.5" r="2.5" fill="#f6ad55" /><circle cx="242.4" cy="146.2" r="2.5" fill="#f6ad55" /><circle cx="303.7" cy="141.6" r="2.5" fill="#f6ad55" /><circle cx="365.1" cy="148.6" r="2.5" fill="#f6ad55" /><circle cx="426.4" cy="160.2" r="2.5" fill="#f6ad55" /><circle cx="487.7" cy="157.9" r="2.5" fill="#f6ad55" /><circle cx="549.1" cy="155.3" r="2.5" fill="#f6ad55" /><circle cx="610.4" cy="129.4" r="2.5" fill="#f6ad55" /><circle cx="671.7" cy="126.4" r="2.5" fill="#f6ad55" /><circle cx="733.1" cy="117.0" r="2.5" fill="#f6ad55" /><circle cx="794.4" cy="130.2" r="2.5" fill="#f6ad55" /><circle cx="855.7" cy="156.1" r="2.5" fill="#f6ad55" /><circle cx="917.1" cy="146.7" r="2.5" fill="#f6ad55" />
  <text x="40" y="30" fill="#9aa6b2" font-size="12">Hourly rate: Molts (bars), Likes (line), Views (dots scaled)</text>
  <text x="40" y="310" fill="#9aa6b2" font-size="11">max rate ~747.21 / hour</text>
</svg>