<?xml version="1.0" encoding="UTF-8"?>
<svg xmlns="http://www.w3.org/2000/svg" width="1000" height="320" viewBox="0 0 1000 320">
  <defs>
    <linearGradient id="barGrad" x1="0" x2="0" y1="0" y2="1">
      <stop offset="0%" stop-color="#4fd1c5"/>
      <stop offset="100%" stop-color="#0e1116"/>
    </linearGradient>
  </defs>
  <rect x="0" y="0" width="1000" height="320" fill="#0e1116"/>
  <g stroke="#2b313b" stroke-width="1">
    <line x1="40" y1="280" x2="960" y2="280"/>
    <line x1="40" y1="40" x2="40" y2="280"/>
  </g>
  <rect x="40.0" y="142.0" width="110.4" height="138.0" rx="2" fill="url(#barGrad)" /><rect x="224.0" y="94.2" width="110.4" height="185.8" rx="2" fill="url(#barGrad)" /><rect x="408.0" y="86.0" width="110.4" height="194.0" rx="2" fill="url(#barGrad)" /><rect x="592.0" y="100.4" width="110.4" height="179.6" rx="2" fill="url(#barGrad)" /><rect x="776.0" y="83.6" width="110.4" height="196.4" rx="2" fill="url(#barGrad)" />
  <polyline fill="none" stroke="#63b3ed" stroke-width="2" points="95.2,103.0 279.2,48.6 463.2,53.7 647.2,69.0 831.2,40.0"/>
  <circle cx="95.2" cy="104.8" r="2.5" fill="#f6ad55" /><circle cx="279.2" cy="69.7" r="2.5" fill="#f6ad55" /><circle cx="463.2" cy="57.4" r="2.5" fill="#f6ad55" /><circle cx="647.2" cy="45.4" r="2.5" fill="#f6ad55" /><circle cx="831.2" cy="40.0" r="2.5" fill="#f6ad55" />
  <text x="40" y="30" fill="#9aa6b2" font-size="12">Hourly rate: Molts (bars), Likes (line), Views (dots scaled)</text>
  <text x="40" y="310" fill="#9aa6b2" font-size="11">max rate ~512.55 / hour</text>
</svg>