<?xml version="1.0" encoding="UTF-8"?>
<svg xmlns="http://www.w3.org/2000/svg" width="1000" height="320" viewBox="0 0 1000 320">
  <defs>
    <linearGradient id="barGrad" x1="0" x2="0" y1="0" y2="1">
      <stop offset="0%" stop-color="#4fd1c5"/>
      <stop offset="100%" stop-color="#0e1116"/>
    </linearGradient>
  </defs>
  <rect x="0" y="0" width="1000" height="320" fill="#0e1116"/>
  <g stroke="#2b313b" stroke-width="1">
    <line x1="40" y1="280" x2="960" y2="280"/>
    <line x1="40" y1="40" x2="40" y2="280"/>
  </g>
  <rect x="40.0" y="268.4" width="32.5" height="11.6" rx="2" fill="url(#barGrad)" /><rect x="94.1" y="250.4" width="32.5" height="29.6" rx="2" fill="url(#barGrad)" /><rect x="148.2" y="242.4" width="32.5" height="37.6" rx="2" fill="url(#barGrad)" /><rect x="202.4" y="253.9" width="32.5" height="26.1" rx="2" fill="url(#barGrad)" /><rect x="256.5" y="258.2" width="32.5" height="21.8" rx="2" fill="url(#barGrad)" /><rect x="310.6" y="223.5" width="32.5" height="56.5" rx="2" fill="url(#barGrad)" /><rect x="364.7" y="250.6" width="32.5" height="29.4" rx="2" fill="url(#barGrad)" /><rect x="418.8" y="245.2" width="32.5" height="34.8" rx="2" fill="url(#barGrad)" /><rect x="472.9" y="258.8" width="32.5" height="21.2" rx="2" fill="url(#barGrad)" /><rect x="527.1" y="252.9" width="32.5" height="27.1" rx="2" fill="url(#barGrad)" /><rect x="581.2" y="236.8" width="32.5" height="43.2" rx="2" fill="url(#barGrad)" /><rect x="635.3" y="230.7" width="32.5" height="49.3" rx="2" fill="url(#barGrad)" /><rect x="689.4" y="219.8" width="32.5" height="60.2" rx="2" fill="url(#barGrad)" /><rect x="743.5" y="229.1" width="32.5" height="50.9" rx="2" fill="url(#barGrad)" /><rect x="797.6" y="213.1" width="32.5" height="66.9" rx="2" fill="url(#barGrad)" /><rect x="851.8" y="181.8" width="32.5" height="98.2" rx="2" fill="url(#barGrad)" /><rect x="905.9" y="40.0" width="32.5" height="240.0" rx="2" fill="url(#barGrad)" />
  <polyline fill="none" stroke="#63b3ed" stroke-width="2" points="56.2,251.3 110.4,240.1 164.5,239.8 218.6,228.4 272.7,241.9 326.8,238.0 380.9,242.8 435.1,221.5 489.2,245.3 543.3,242.9 597.4,236.2 651.5,237.3 705.6,241.3 759.8,238.1 813.9,240.5 868.0,237.3 922.1,241.6"/>
  <circle cx="56.2" cy="101.5" r="2.5" fill="#f6ad55" /><circle cx="110.4" cy="116.6" r="2.5" fill="#f6ad55" /><circle cx="164.5" cy="77.4" r="2.5" fill="#f6ad55" /><circle cx="218.6" cy="54.3" r="2.5" fill="#f6ad55" /><circle cx="272.7" cy="49.6" r="2.5" fill="#f6ad55" /><circle cx="326.8" cy="57.5" r="2.5" fill="#f6ad55" /><circle cx="380.9" cy="56.2" r="2.5" fill="#f6ad55" /><circle cx="435.1" cy="56.8" r="2.5" fill="#f6ad55" /><circle cx="489.2" cy="52.9" r="2.5" fill="#f6ad55" /><circle cx="543.3" cy="61.6" r="2.5" fill="#f6ad55" /><circle cx="597.4" cy="61.2" r="2.5" fill="#f6ad55" /><circle cx="651.5" cy="68.8" r="2.5" fill="#f6ad55" /><circle cx="705.6" cy="54.0" r="2.5" fill="#f6ad55" /><circle cx="759.8" cy="63.4" r="2.5" fill="#f6ad55" /><circle cx="813.9" cy="46.4" r="2.5" fill="#f6ad55" /><circle cx="868.0" cy="40.0" r="2.5" fill="#f6ad55" /><circle cx="922.1" cy="65.2" r="2.5" fill="#f6ad55" />
  <text x="40" y="30" fill="#9aa6b2" font-size="12">Hourly rate: Molts (bars), Likes (line), Views (dots scaled)</text>
  <text x="40" y="310" fill="#9aa6b2" font-size="11">max rate ~2802.96 / hour</text>
</svg>