<?xml version="1.0" encoding="UTF-8"?>
<svg xmlns="http://www.w3.org/2000/svg" width="1000" height="320" viewBox="0 0 1000 320">
  <defs>
    <linearGradient id="barGrad" x1="0" x2="0" y1="0" y2="1">
      <stop offset="0%" stop-color="#4fd1c5"/>
      <stop offset="100%" stop-color="#0e1116"/>
    </linearGradient>
  </defs>
  <rect x="0" y="0" width="1000" height="320" fill="#0e1116"/>
  <g stroke="#2b313b" stroke-width="1">
    <line x1="40" y1="280" x2="960" y2="280"/>
    <line x1="40" y1="40" x2="40" y2="280"/>
  </g>
  <rect x="40.0" y="265.6" width="30.7" height="14.4" rx="2" fill="url(#barGrad)" /><rect x="91.1" y="243.2" width="30.7" height="36.8" rx="2" fill="url(#barGrad)" /><rect x="142.2" y="233.3" width="30.7" height="46.7" rx="2" fill="url(#barGrad)" /><rect x="193.3" y="247.6" width="30.7" height="32.4" rx="2" fill="url(#barGrad)" /><rect x="244.4" y="252.9" width="30.7" height="27.1" rx="2" fill="url(#barGrad)" /><rect x="295.6" y="209.8" width="30.7" height="70.2" rx="2" fill="url(#barGrad)" /><rect x="346.7" y="243.5" width="30.7" height="36.5" rx="2" fill="url(#barGrad)" /><rect x="397.8" y="236.8" width="30.7" height="43.2" rx="2" fill="url(#barGrad)" /><rect x="448.9" y="253.6" width="30.7" height="26.4" rx="2" fill="url(#barGrad)" /><rect x="500.0" y="246.4" width="30.7" height="33.6" rx="2" fill="url(#barGrad)" /><rect x="551.1" y="226.4" width="30.7" height="53.6" rx="2" fill="url(#barGrad)" /><rect x="602.2" y="218.7" width="30.7" height="61.3" rx="2" fill="url(#barGrad)" /><rect x="653.3" y="205.3" width="30.7" height="74.7" rx="2" fill="url(#barGrad)" /><rect x="704.4" y="216.8" width="30.7" height="63.2" rx="2" fill="url(#barGrad)" /><rect x="755.6" y="196.9" width="30.7" height="83.1" rx="2" fill="url(#barGrad)" /><rect x="806.7" y="158.1" width="30.7" height="121.9" rx="2" fill="url(#barGrad)" /><rect x="857.8" y="40.0" width="30.7" height="240.0" rx="2" fill="url(#barGrad)" /><rect x="908.9" y="115.4" width="30.7" height="164.6" rx="2" fill="url(#barGrad)" />
  <polyline fill="none" stroke="#63b3ed" stroke-width="2" points="55.3,244.3 106.4,230.4 157.6,230.0 208.7,215.9 259.8,232.7 310.9,227.8 362.0,233.8 413.1,207.4 464.2,237.0 515.3,233.9 566.4,225.7 617.6,227.0 668.7,232.0 719.8,227.9 770.9,230.9 822.0,227.0 873.1,232.0 924.2,207.7"/>
  <circle cx="55.3" cy="101.5" r="2.5" fill="#f6ad55" /><circle cx="106.4" cy="116.6" r="2.5" fill="#f6ad55" /><circle cx="157.6" cy="77.4" r="2.5" fill="#f6ad55" /><circle cx="208.7" cy="54.3" r="2.5" fill="#f6ad55" /><circle cx="259.8" cy="49.6" r="2.5" fill="#f6ad55" /><circle cx="310.9" cy="57.5" r="2.5" fill="#f6ad55" /><circle cx="362.0" cy="56.2" r="2.5" fill="#f6ad55" /><circle cx="413.1" cy="56.8" r="2.5" fill="#f6ad55" /><circle cx="464.2" cy="52.9" r="2.5" fill="#f6ad55" /><circle cx="515.3" cy="61.6" r="2.5" fill="#f6ad55" /><circle cx="566.4" cy="61.2" r="2.5" fill="#f6ad55" /><circle cx="617.6" cy="68.8" r="2.5" fill="#f6ad55" /><circle cx="668.7" cy="54.0" r="2.5" fill="#f6ad55" /><circle cx="719.8" cy="63.4" r="2.5" fill="#f6ad55" /><circle cx="770.9" cy="46.4" r="2.5" fill="#f6ad55" /><circle cx="822.0" cy="40.0" r="2.5" fill="#f6ad55" /><circle cx="873.1" cy="54.0" r="2.5" fill="#f6ad55" /><circle cx="924.2" cy="64.7" r="2.5" fill="#f6ad55" />
  <text x="40" y="30" fill="#9aa6b2" font-size="12">Hourly rate: Molts (bars), Likes (line), Views (dots scaled)</text>
  <text x="40" y="310" fill="#9aa6b2" font-size="11">max rate ~2257.04 / hour</text>
</svg>