<?xml version="1.0" encoding="UTF-8"?>
<svg xmlns="http://www.w3.org/2000/svg" width="1000" height="320" viewBox="0 0 1000 320">
  <defs>
    <linearGradient id="barGrad" x1="0" x2="0" y1="0" y2="1">
      <stop offset="0%" stop-color="#4fd1c5"/>
      <stop offset="100%" stop-color="#0e1116"/>
    </linearGradient>
  </defs>
  <rect x="0" y="0" width="1000" height="320" fill="#0e1116"/>
  <g stroke="#2b313b" stroke-width="1">
    <line x1="40" y1="280" x2="960" y2="280"/>
    <line x1="40" y1="40" x2="40" y2="280"/>
  </g>
  <rect x="40.0" y="252.6" width="32.5" height="27.4" rx="2" fill="url(#barGrad)" /><rect x="94.1" y="216.4" width="32.5" height="63.6" rx="2" fill="url(#barGrad)" /><rect x="148.2" y="220.3" width="32.5" height="59.7" rx="2" fill="url(#barGrad)" /><rect x="202.4" y="210.5" width="32.5" height="69.5" rx="2" fill="url(#barGrad)" /><rect x="256.5" y="210.3" width="32.5" height="69.7" rx="2" fill="url(#barGrad)" /><rect x="310.6" y="215.9" width="32.5" height="64.1" rx="2" fill="url(#barGrad)" /><rect x="364.7" y="222.0" width="32.5" height="58.0" rx="2" fill="url(#barGrad)" /><rect x="418.8" y="230.9" width="32.5" height="49.1" rx="2" fill="url(#barGrad)" /><rect x="472.9" y="214.9" width="32.5" height="65.1" rx="2" fill="url(#barGrad)" /><rect x="527.1" y="88.7" width="32.5" height="191.3" rx="2" fill="url(#barGrad)" /><rect x="581.2" y="55.2" width="32.5" height="224.8" rx="2" fill="url(#barGrad)" /><rect x="635.3" y="197.4" width="32.5" height="82.6" rx="2" fill="url(#barGrad)" /><rect x="689.4" y="178.2" width="32.5" height="101.8" rx="2" fill="url(#barGrad)" /><rect x="743.5" y="200.9" width="32.5" height="79.1" rx="2" fill="url(#barGrad)" /><rect x="797.6" y="119.6" width="32.5" height="160.4" rx="2" fill="url(#barGrad)" /><rect x="851.8" y="40.0" width="32.5" height="240.0" rx="2" fill="url(#barGrad)" /><rect x="905.9" y="164.9" width="32.5" height="115.1" rx="2" fill="url(#barGrad)" />
  <polyline fill="none" stroke="#63b3ed" stroke-width="2" points="56.2,177.6 110.4,223.1 164.5,186.2 218.6,173.9 272.7,156.6 326.8,174.1 380.9,156.5 435.1,178.7 489.2,146.4 543.3,133.8 597.4,88.9 651.5,132.4 705.6,108.7 759.8,114.9 813.9,97.9 868.0,142.1 922.1,162.8"/>
  <circle cx="56.2" cy="68.3" r="2.5" fill="#f6ad55" /><circle cx="110.4" cy="40.3" r="2.5" fill="#f6ad55" /><circle cx="164.5" cy="64.5" r="2.5" fill="#f6ad55" /><circle cx="218.6" cy="97.8" r="2.5" fill="#f6ad55" /><circle cx="272.7" cy="119.4" r="2.5" fill="#f6ad55" /><circle cx="326.8" cy="112.8" r="2.5" fill="#f6ad55" /><circle cx="380.9" cy="64.8" r="2.5" fill="#f6ad55" /><circle cx="435.1" cy="89.7" r="2.5" fill="#f6ad55" /><circle cx="489.2" cy="120.2" r="2.5" fill="#f6ad55" /><circle cx="543.3" cy="107.1" r="2.5" fill="#f6ad55" /><circle cx="597.4" cy="77.7" r="2.5" fill="#f6ad55" /><circle cx="651.5" cy="88.7" r="2.5" fill="#f6ad55" /><circle cx="705.6" cy="48.6" r="2.5" fill="#f6ad55" /><circle cx="759.8" cy="46.1" r="2.5" fill="#f6ad55" /><circle cx="813.9" cy="40.0" r="2.5" fill="#f6ad55" /><circle cx="868.0" cy="51.7" r="2.5" fill="#f6ad55" /><circle cx="922.1" cy="68.3" r="2.5" fill="#f6ad55" />
  <text x="40" y="30" fill="#9aa6b2" font-size="12">Hourly rate: Molts (bars), Likes (line), Views (dots scaled)</text>
  <text x="40" y="310" fill="#9aa6b2" font-size="11">max rate ~840.74 / hour</text>
</svg>