<?xml version="1.0" encoding="UTF-8"?>
<svg xmlns="http://www.w3.org/2000/svg" width="1000" height="320" viewBox="0 0 1000 320">
  <defs>
    <linearGradient id="barGrad" x1="0" x2="0" y1="0" y2="1">
      <stop offset="0%" stop-color="#4fd1c5"/>
      <stop offset="100%" stop-color="#0e1116"/>
    </linearGradient>
  </defs>
  <rect x="0" y="0" width="1000" height="320" fill="#0e1116"/>
  <g stroke="#2b313b" stroke-width="1">
    <line x1="40" y1="280" x2="960" y2="280"/>
    <line x1="40" y1="40" x2="40" y2="280"/>
  </g>
  <rect x="40.0" y="233.9" width="22.1" height="46.1" rx="2" fill="url(#barGrad)" /><rect x="76.8" y="202.1" width="22.1" height="77.9" rx="2" fill="url(#barGrad)" /><rect x="113.6" y="215.7" width="22.1" height="64.3" rx="2" fill="url(#barGrad)" /><rect x="150.4" y="204.2" width="22.1" height="75.8" rx="2" fill="url(#barGrad)" /><rect x="187.2" y="206.8" width="22.1" height="73.2" rx="2" fill="url(#barGrad)" /><rect x="224.0" y="205.4" width="22.1" height="74.6" rx="2" fill="url(#barGrad)" /><rect x="260.8" y="178.4" width="22.1" height="101.6" rx="2" fill="url(#barGrad)" /><rect x="297.6" y="206.8" width="22.1" height="73.2" rx="2" fill="url(#barGrad)" /><rect x="334.4" y="198.1" width="22.1" height="81.9" rx="2" fill="url(#barGrad)" /><rect x="371.2" y="194.1" width="22.1" height="85.9" rx="2" fill="url(#barGrad)" /><rect x="408.0" y="199.8" width="22.1" height="80.2" rx="2" fill="url(#barGrad)" /><rect x="444.8" y="214.6" width="22.1" height="65.4" rx="2" fill="url(#barGrad)" /><rect x="481.6" y="173.7" width="22.1" height="106.3" rx="2" fill="url(#barGrad)" /><rect x="518.4" y="190.9" width="22.1" height="89.1" rx="2" fill="url(#barGrad)" /><rect x="555.2" y="176.4" width="22.1" height="103.6" rx="2" fill="url(#barGrad)" /><rect x="592.0" y="183.7" width="22.1" height="96.3" rx="2" fill="url(#barGrad)" /><rect x="628.8" y="150.4" width="22.1" height="129.6" rx="2" fill="url(#barGrad)" /><rect x="665.6" y="172.6" width="22.1" height="107.4" rx="2" fill="url(#barGrad)" /><rect x="702.4" y="197.8" width="22.1" height="82.2" rx="2" fill="url(#barGrad)" /><rect x="739.2" y="214.8" width="22.1" height="65.2" rx="2" fill="url(#barGrad)" /><rect x="776.0" y="200.3" width="22.1" height="79.7" rx="2" fill="url(#barGrad)" /><rect x="812.8" y="193.9" width="22.1" height="86.1" rx="2" fill="url(#barGrad)" /><rect x="849.6" y="208.8" width="22.1" height="71.2" rx="2" fill="url(#barGrad)" /><rect x="886.4" y="201.1" width="22.1" height="78.9" rx="2" fill="url(#barGrad)" /><rect x="923.2" y="217.9" width="22.1" height="62.1" rx="2" fill="url(#barGrad)" />
  <polyline fill="none" stroke="#63b3ed" stroke-width="2" points="51.0,169.1 87.8,110.8 124.6,121.9 161.4,122.5 198.2,113.0 235.0,103.1 271.8,67.7 308.6,122.3 345.4,131.6 382.2,125.4 419.0,120.5 455.8,141.4 492.6,98.1 529.4,110.6 566.2,64.6 603.0,62.7 639.8,44.3 676.6,40.0 713.4,98.5 750.2,94.0 787.0,63.7 823.8,91.2 860.6,127.3 897.4,124.1 934.2,130.7"/>
  <circle cx="51.0" cy="40.0" r="2.5" fill="#f6ad55" /><circle cx="87.8" cy="86.6" r="2.5" fill="#f6ad55" /><circle cx="124.6" cy="78.3" r="2.5" fill="#f6ad55" /><circle cx="161.4" cy="81.9" r="2.5" fill="#f6ad55" /><circle cx="198.2" cy="94.8" r="2.5" fill="#f6ad55" /><circle cx="235.0" cy="68.0" r="2.5" fill="#f6ad55" /><circle cx="271.8" cy="99.2" r="2.5" fill="#f6ad55" /><circle cx="308.6" cy="97.0" r="2.5" fill="#f6ad55" /><circle cx="345.4" cy="92.0" r="2.5" fill="#f6ad55" /><circle cx="382.2" cy="87.4" r="2.5" fill="#f6ad55" /><circle cx="419.0" cy="71.3" r="2.5" fill="#f6ad55" /><circle cx="455.8" cy="84.0" r="2.5" fill="#f6ad55" /><circle cx="492.6" cy="82.4" r="2.5" fill="#f6ad55" /><circle cx="529.4" cy="85.0" r="2.5" fill="#f6ad55" /><circle cx="566.2" cy="104.1" r="2.5" fill="#f6ad55" /><circle cx="603.0" cy="90.9" r="2.5" fill="#f6ad55" /><circle cx="639.8" cy="63.4" r="2.5" fill="#f6ad55" /><circle cx="676.6" cy="82.0" r="2.5" fill="#f6ad55" /><circle cx="713.4" cy="72.5" r="2.5" fill="#f6ad55" /><circle cx="750.2" cy="67.4" r="2.5" fill="#f6ad55" /><circle cx="787.0" cy="64.0" r="2.5" fill="#f6ad55" /><circle cx="823.8" cy="81.5" r="2.5" fill="#f6ad55" /><circle cx="860.6" cy="73.1" r="2.5" fill="#f6ad55" /><circle cx="897.4" cy="92.1" r="2.5" fill="#f6ad55" /><circle cx="934.2" cy="59.8" r="2.5" fill="#f6ad55" />
  <text x="40" y="30" fill="#9aa6b2" font-size="12">Hourly rate: Molts (bars), Likes (line), Views (dots scaled)</text>
  <text x="40" y="310" fill="#9aa6b2" font-size="11">max rate ~907.34 / hour</text>
</svg>