<?xml version="1.0" encoding="UTF-8"?>
<svg xmlns="http://www.w3.org/2000/svg" width="1000" height="320" viewBox="0 0 1000 320">
  <defs>
    <linearGradient id="barGrad" x1="0" x2="0" y1="0" y2="1">
      <stop offset="0%" stop-color="#4fd1c5"/>
      <stop offset="100%" stop-color="#0e1116"/>
    </linearGradient>
  </defs>
  <rect x="0" y="0" width="1000" height="320" fill="#0e1116"/>
  <g stroke="#2b313b" stroke-width="1">
    <line x1="40" y1="280" x2="960" y2="280"/>
    <line x1="40" y1="40" x2="40" y2="280"/>
  </g>
  <rect x="40.0" y="233.1" width="32.5" height="46.9" rx="2" fill="url(#barGrad)" /><rect x="94.1" y="200.7" width="32.5" height="79.3" rx="2" fill="url(#barGrad)" /><rect x="148.2" y="214.5" width="32.5" height="65.5" rx="2" fill="url(#barGrad)" /><rect x="202.4" y="202.8" width="32.5" height="77.2" rx="2" fill="url(#barGrad)" /><rect x="256.5" y="205.5" width="32.5" height="74.5" rx="2" fill="url(#barGrad)" /><rect x="310.6" y="204.0" width="32.5" height="76.0" rx="2" fill="url(#barGrad)" /><rect x="364.7" y="176.6" width="32.5" height="103.4" rx="2" fill="url(#barGrad)" /><rect x="418.8" y="205.5" width="32.5" height="74.5" rx="2" fill="url(#barGrad)" /><rect x="472.9" y="196.6" width="32.5" height="83.4" rx="2" fill="url(#barGrad)" /><rect x="527.1" y="192.5" width="32.5" height="87.5" rx="2" fill="url(#barGrad)" /><rect x="581.2" y="198.4" width="32.5" height="81.6" rx="2" fill="url(#barGrad)" /><rect x="635.3" y="213.4" width="32.5" height="66.6" rx="2" fill="url(#barGrad)" /><rect x="689.4" y="171.7" width="32.5" height="108.3" rx="2" fill="url(#barGrad)" /><rect x="743.5" y="189.3" width="32.5" height="90.7" rx="2" fill="url(#barGrad)" /><rect x="797.6" y="174.5" width="32.5" height="105.5" rx="2" fill="url(#barGrad)" /><rect x="851.8" y="181.9" width="32.5" height="98.1" rx="2" fill="url(#barGrad)" /><rect x="905.9" y="148.0" width="32.5" height="132.0" rx="2" fill="url(#barGrad)" />
  <polyline fill="none" stroke="#63b3ed" stroke-width="2" points="56.2,167.1 110.4,107.7 164.5,119.0 218.6,119.6 272.7,109.9 326.8,99.9 380.9,63.8 435.1,119.4 489.2,128.9 543.3,122.5 597.4,117.6 651.5,138.9 705.6,94.7 759.8,107.5 813.9,60.7 868.0,58.7 922.1,40.0"/>
  <circle cx="56.2" cy="40.0" r="2.5" fill="#f6ad55" /><circle cx="110.4" cy="86.6" r="2.5" fill="#f6ad55" /><circle cx="164.5" cy="78.3" r="2.5" fill="#f6ad55" /><circle cx="218.6" cy="81.9" r="2.5" fill="#f6ad55" /><circle cx="272.7" cy="94.8" r="2.5" fill="#f6ad55" /><circle cx="326.8" cy="68.0" r="2.5" fill="#f6ad55" /><circle cx="380.9" cy="99.2" r="2.5" fill="#f6ad55" /><circle cx="435.1" cy="97.0" r="2.5" fill="#f6ad55" /><circle cx="489.2" cy="92.0" r="2.5" fill="#f6ad55" /><circle cx="543.3" cy="87.4" r="2.5" fill="#f6ad55" /><circle cx="597.4" cy="71.3" r="2.5" fill="#f6ad55" /><circle cx="651.5" cy="84.0" r="2.5" fill="#f6ad55" /><circle cx="705.6" cy="82.4" r="2.5" fill="#f6ad55" /><circle cx="759.8" cy="85.0" r="2.5" fill="#f6ad55" /><circle cx="813.9" cy="104.1" r="2.5" fill="#f6ad55" /><circle cx="868.0" cy="90.9" r="2.5" fill="#f6ad55" /><circle cx="922.1" cy="63.4" r="2.5" fill="#f6ad55" />
  <text x="40" y="30" fill="#9aa6b2" font-size="12">Hourly rate: Molts (bars), Likes (line), Views (dots scaled)</text>
  <text x="40" y="310" fill="#9aa6b2" font-size="11">max rate ~891.07 / hour</text>
</svg>