<?xml version="1.0" encoding="UTF-8"?>
<svg xmlns="http://www.w3.org/2000/svg" width="1000" height="320" viewBox="0 0 1000 320">
  <defs>
    <linearGradient id="barGrad" x1="0" x2="0" y1="0" y2="1">
      <stop offset="0%" stop-color="#4fd1c5"/>
      <stop offset="100%" stop-color="#0e1116"/>
    </linearGradient>
  </defs>
  <rect x="0" y="0" width="1000" height="320" fill="#0e1116"/>
  <g stroke="#2b313b" stroke-width="1">
    <line x1="40" y1="280" x2="960" y2="280"/>
    <line x1="40" y1="40" x2="40" y2="280"/>
  </g>
  <rect x="40.0" y="182.7" width="39.4" height="97.3" rx="2" fill="url(#barGrad)" /><rect x="105.7" y="55.1" width="39.4" height="224.9" rx="2" fill="url(#barGrad)" /><rect x="171.4" y="83.7" width="39.4" height="196.3" rx="2" fill="url(#barGrad)" /><rect x="237.1" y="40.0" width="39.4" height="240.0" rx="2" fill="url(#barGrad)" /><rect x="302.9" y="40.1" width="39.4" height="239.9" rx="2" fill="url(#barGrad)" /><rect x="368.6" y="79.0" width="39.4" height="201.0" rx="2" fill="url(#barGrad)" /><rect x="434.3" y="79.7" width="39.4" height="200.3" rx="2" fill="url(#barGrad)" /><rect x="500.0" y="102.2" width="39.4" height="177.8" rx="2" fill="url(#barGrad)" /><rect x="565.7" y="104.4" width="39.4" height="175.6" rx="2" fill="url(#barGrad)" /><rect x="631.4" y="65.7" width="39.4" height="214.3" rx="2" fill="url(#barGrad)" /><rect x="697.1" y="86.8" width="39.4" height="193.2" rx="2" fill="url(#barGrad)" /><rect x="762.9" y="74.9" width="39.4" height="205.1" rx="2" fill="url(#barGrad)" /><rect x="828.6" y="65.6" width="39.4" height="214.4" rx="2" fill="url(#barGrad)" /><rect x="894.3" y="50.6" width="39.4" height="229.4" rx="2" fill="url(#barGrad)" />
  <polyline fill="none" stroke="#63b3ed" stroke-width="2" points="59.7,124.8 125.4,63.8 191.1,77.8 256.9,90.7 322.6,113.1 388.3,41.0 454.0,59.7 519.7,51.2 585.4,94.0 651.1,85.8 716.9,78.5 782.6,48.3 848.3,83.3 914.0,56.0"/>
  <circle cx="59.7" cy="50.7" r="2.5" fill="#f6ad55" /><circle cx="125.4" cy="40.0" r="2.5" fill="#f6ad55" /><circle cx="191.1" cy="54.3" r="2.5" fill="#f6ad55" /><circle cx="256.9" cy="80.9" r="2.5" fill="#f6ad55" /><circle cx="322.6" cy="86.4" r="2.5" fill="#f6ad55" /><circle cx="388.3" cy="87.2" r="2.5" fill="#f6ad55" /><circle cx="454.0" cy="86.5" r="2.5" fill="#f6ad55" /><circle cx="519.7" cy="98.5" r="2.5" fill="#f6ad55" /><circle cx="585.4" cy="101.7" r="2.5" fill="#f6ad55" /><circle cx="651.1" cy="92.8" r="2.5" fill="#f6ad55" /><circle cx="716.9" cy="103.5" r="2.5" fill="#f6ad55" /><circle cx="782.6" cy="110.0" r="2.5" fill="#f6ad55" /><circle cx="848.3" cy="87.0" r="2.5" fill="#f6ad55" /><circle cx="914.0" cy="85.6" r="2.5" fill="#f6ad55" />
  <text x="40" y="30" fill="#9aa6b2" font-size="12">Hourly rate: Molts (bars), Likes (line), Views (dots scaled)</text>
  <text x="40" y="310" fill="#9aa6b2" font-size="11">max rate ~584.47 / hour</text>
</svg>