<?xml version="1.0" encoding="UTF-8"?>
<svg xmlns="http://www.w3.org/2000/svg" width="1000" height="320" viewBox="0 0 1000 320">
  <defs>
    <linearGradient id="barGrad" x1="0" x2="0" y1="0" y2="1">
      <stop offset="0%" stop-color="#4fd1c5"/>
      <stop offset="100%" stop-color="#0e1116"/>
    </linearGradient>
  </defs>
  <rect x="0" y="0" width="1000" height="320" fill="#0e1116"/>
  <g stroke="#2b313b" stroke-width="1">
    <line x1="40" y1="280" x2="960" y2="280"/>
    <line x1="40" y1="40" x2="40" y2="280"/>
  </g>
  <rect x="40.0" y="237.1" width="61.3" height="42.9" rx="2" fill="url(#barGrad)" /><rect x="142.2" y="183.9" width="61.3" height="96.1" rx="2" fill="url(#barGrad)" /><rect x="244.4" y="167.4" width="61.3" height="112.6" rx="2" fill="url(#barGrad)" /><rect x="346.7" y="151.9" width="61.3" height="128.1" rx="2" fill="url(#barGrad)" /><rect x="448.9" y="135.5" width="61.3" height="144.5" rx="2" fill="url(#barGrad)" /><rect x="551.1" y="200.1" width="61.3" height="79.9" rx="2" fill="url(#barGrad)" /><rect x="653.3" y="212.0" width="61.3" height="68.0" rx="2" fill="url(#barGrad)" /><rect x="755.6" y="202.3" width="61.3" height="77.7" rx="2" fill="url(#barGrad)" /><rect x="857.8" y="205.0" width="61.3" height="75.0" rx="2" fill="url(#barGrad)" />
  <polyline fill="none" stroke="#63b3ed" stroke-width="2" points="70.7,167.8 172.9,44.0 275.1,40.0 377.3,104.6 479.6,95.7 581.8,83.5 684.0,116.1 786.2,103.8 888.4,113.8"/>
  <circle cx="70.7" cy="74.1" r="2.5" fill="#f6ad55" /><circle cx="172.9" cy="56.1" r="2.5" fill="#f6ad55" /><circle cx="275.1" cy="59.8" r="2.5" fill="#f6ad55" /><circle cx="377.3" cy="68.5" r="2.5" fill="#f6ad55" /><circle cx="479.6" cy="72.9" r="2.5" fill="#f6ad55" /><circle cx="581.8" cy="62.1" r="2.5" fill="#f6ad55" /><circle cx="684.0" cy="76.4" r="2.5" fill="#f6ad55" /><circle cx="786.2" cy="51.8" r="2.5" fill="#f6ad55" /><circle cx="888.4" cy="40.0" r="2.5" fill="#f6ad55" />
  <text x="40" y="30" fill="#9aa6b2" font-size="12">Hourly rate: Molts (bars), Likes (line), Views (dots scaled)</text>
  <text x="40" y="310" fill="#9aa6b2" font-size="11">max rate ~761.42 / hour</text>
</svg>