<?xml version="1.0" encoding="UTF-8"?>
<svg xmlns="http://www.w3.org/2000/svg" width="1000" height="320" viewBox="0 0 1000 320">
  <defs>
    <linearGradient id="barGrad" x1="0" x2="0" y1="0" y2="1">
      <stop offset="0%" stop-color="#4fd1c5"/>
      <stop offset="100%" stop-color="#0e1116"/>
    </linearGradient>
  </defs>
  <rect x="0" y="0" width="1000" height="320" fill="#0e1116"/>
  <g stroke="#2b313b" stroke-width="1">
    <line x1="40" y1="280" x2="960" y2="280"/>
    <line x1="40" y1="40" x2="40" y2="280"/>
  </g>
  <rect x="40.0" y="255.9" width="22.1" height="24.1" rx="2" fill="url(#barGrad)" /><rect x="76.8" y="193.3" width="22.1" height="86.7" rx="2" fill="url(#barGrad)" /><rect x="113.6" y="212.4" width="22.1" height="67.6" rx="2" fill="url(#barGrad)" /><rect x="150.4" y="199.4" width="22.1" height="80.6" rx="2" fill="url(#barGrad)" /><rect x="187.2" y="194.0" width="22.1" height="86.0" rx="2" fill="url(#barGrad)" /><rect x="224.0" y="184.8" width="22.1" height="95.2" rx="2" fill="url(#barGrad)" /><rect x="260.8" y="174.1" width="22.1" height="105.9" rx="2" fill="url(#barGrad)" /><rect x="297.6" y="173.6" width="22.1" height="106.4" rx="2" fill="url(#barGrad)" /><rect x="334.4" y="208.6" width="22.1" height="71.4" rx="2" fill="url(#barGrad)" /><rect x="371.2" y="200.7" width="22.1" height="79.3" rx="2" fill="url(#barGrad)" /><rect x="408.0" y="192.7" width="22.1" height="87.3" rx="2" fill="url(#barGrad)" /><rect x="444.8" y="196.5" width="22.1" height="83.5" rx="2" fill="url(#barGrad)" /><rect x="481.6" y="185.9" width="22.1" height="94.1" rx="2" fill="url(#barGrad)" /><rect x="518.4" y="176.2" width="22.1" height="103.8" rx="2" fill="url(#barGrad)" /><rect x="555.2" y="156.9" width="22.1" height="123.1" rx="2" fill="url(#barGrad)" /><rect x="592.0" y="135.2" width="22.1" height="144.8" rx="2" fill="url(#barGrad)" /><rect x="628.8" y="176.9" width="22.1" height="103.1" rx="2" fill="url(#barGrad)" /><rect x="665.6" y="195.8" width="22.1" height="84.2" rx="2" fill="url(#barGrad)" /><rect x="702.4" y="209.9" width="22.1" height="70.1" rx="2" fill="url(#barGrad)" /><rect x="739.2" y="161.7" width="22.1" height="118.3" rx="2" fill="url(#barGrad)" /><rect x="776.0" y="128.4" width="22.1" height="151.6" rx="2" fill="url(#barGrad)" /><rect x="812.8" y="157.7" width="22.1" height="122.3" rx="2" fill="url(#barGrad)" /><rect x="849.6" y="125.7" width="22.1" height="154.3" rx="2" fill="url(#barGrad)" /><rect x="886.4" y="139.1" width="22.1" height="140.9" rx="2" fill="url(#barGrad)" /><rect x="923.2" y="166.7" width="22.1" height="113.3" rx="2" fill="url(#barGrad)" />
  <polyline fill="none" stroke="#63b3ed" stroke-width="2" points="51.0,199.8 87.8,66.3 124.6,96.7 161.4,72.7 198.2,77.3 235.0,65.0 271.8,47.6 308.6,58.5 345.4,138.1 382.2,116.4 419.0,118.1 455.8,93.1 492.6,69.1 529.4,70.2 566.2,66.0 603.0,54.6 639.8,91.3 676.6,91.4 713.4,122.2 750.2,50.5 787.0,79.8 823.8,67.2 860.6,40.0 897.4,59.4 934.2,85.8"/>
  <circle cx="51.0" cy="106.2" r="2.5" fill="#f6ad55" /><circle cx="87.8" cy="101.0" r="2.5" fill="#f6ad55" /><circle cx="124.6" cy="84.0" r="2.5" fill="#f6ad55" /><circle cx="161.4" cy="58.5" r="2.5" fill="#f6ad55" /><circle cx="198.2" cy="62.7" r="2.5" fill="#f6ad55" /><circle cx="235.0" cy="40.0" r="2.5" fill="#f6ad55" /><circle cx="271.8" cy="50.2" r="2.5" fill="#f6ad55" /><circle cx="308.6" cy="50.7" r="2.5" fill="#f6ad55" /><circle cx="345.4" cy="70.0" r="2.5" fill="#f6ad55" /><circle cx="382.2" cy="78.6" r="2.5" fill="#f6ad55" /><circle cx="419.0" cy="90.7" r="2.5" fill="#f6ad55" /><circle cx="455.8" cy="90.6" r="2.5" fill="#f6ad55" /><circle cx="492.6" cy="94.7" r="2.5" fill="#f6ad55" /><circle cx="529.4" cy="103.9" r="2.5" fill="#f6ad55" /><circle cx="566.2" cy="112.5" r="2.5" fill="#f6ad55" /><circle cx="603.0" cy="86.3" r="2.5" fill="#f6ad55" /><circle cx="639.8" cy="93.6" r="2.5" fill="#f6ad55" /><circle cx="676.6" cy="78.3" r="2.5" fill="#f6ad55" /><circle cx="713.4" cy="54.1" r="2.5" fill="#f6ad55" /><circle cx="750.2" cy="70.0" r="2.5" fill="#f6ad55" /><circle cx="787.0" cy="75.1" r="2.5" fill="#f6ad55" /><circle cx="823.8" cy="51.9" r="2.5" fill="#f6ad55" /><circle cx="860.6" cy="54.3" r="2.5" fill="#f6ad55" /><circle cx="897.4" cy="65.9" r="2.5" fill="#f6ad55" /><circle cx="934.2" cy="95.9" r="2.5" fill="#f6ad55" />
  <text x="40" y="30" fill="#9aa6b2" font-size="12">Hourly rate: Molts (bars), Likes (line), Views (dots scaled)</text>
  <text x="40" y="310" fill="#9aa6b2" font-size="11">max rate ~767.95 / hour</text>
</svg>