<?xml version="1.0" encoding="UTF-8"?>
<svg xmlns="http://www.w3.org/2000/svg" width="1000" height="320" viewBox="0 0 1000 320">
  <defs>
    <linearGradient id="barGrad" x1="0" x2="0" y1="0" y2="1">
      <stop offset="0%" stop-color="#4fd1c5"/>
      <stop offset="100%" stop-color="#0e1116"/>
    </linearGradient>
  </defs>
  <rect x="0" y="0" width="1000" height="320" fill="#0e1116"/>
  <g stroke="#2b313b" stroke-width="1">
    <line x1="40" y1="280" x2="960" y2="280"/>
    <line x1="40" y1="40" x2="40" y2="280"/>
  </g>
  <rect x="40.0" y="157.8" width="30.7" height="122.2" rx="2" fill="url(#barGrad)" /><rect x="91.1" y="100.4" width="30.7" height="179.6" rx="2" fill="url(#barGrad)" /><rect x="142.2" y="110.6" width="30.7" height="169.4" rx="2" fill="url(#barGrad)" /><rect x="193.3" y="109.3" width="30.7" height="170.7" rx="2" fill="url(#barGrad)" /><rect x="244.4" y="83.3" width="30.7" height="196.7" rx="2" fill="url(#barGrad)" /><rect x="295.6" y="109.4" width="30.7" height="170.6" rx="2" fill="url(#barGrad)" /><rect x="346.7" y="122.0" width="30.7" height="158.0" rx="2" fill="url(#barGrad)" /><rect x="397.8" y="118.3" width="30.7" height="161.7" rx="2" fill="url(#barGrad)" /><rect x="448.9" y="108.8" width="30.7" height="171.2" rx="2" fill="url(#barGrad)" /><rect x="500.0" y="120.2" width="30.7" height="159.8" rx="2" fill="url(#barGrad)" /><rect x="551.1" y="119.2" width="30.7" height="160.8" rx="2" fill="url(#barGrad)" /><rect x="602.2" y="137.9" width="30.7" height="142.1" rx="2" fill="url(#barGrad)" /><rect x="653.3" y="113.6" width="30.7" height="166.4" rx="2" fill="url(#barGrad)" /><rect x="704.4" y="158.6" width="30.7" height="121.4" rx="2" fill="url(#barGrad)" /><rect x="755.6" y="266.1" width="30.7" height="13.9" rx="2" fill="url(#barGrad)" /><rect x="806.7" y="262.1" width="30.7" height="17.9" rx="2" fill="url(#barGrad)" /><rect x="857.8" y="265.3" width="30.7" height="14.7" rx="2" fill="url(#barGrad)" /><rect x="908.9" y="259.6" width="30.7" height="20.4" rx="2" fill="url(#barGrad)" />
  <polyline fill="none" stroke="#63b3ed" stroke-width="2" points="55.3,94.9 106.4,73.4 157.6,64.7 208.7,60.4 259.8,40.0 310.9,66.4 362.0,102.8 413.1,74.5 464.2,76.2 515.3,99.9 566.4,105.1 617.6,100.6 668.7,98.1 719.8,138.1 770.9,267.3 822.0,263.8 873.1,263.2 924.2,263.0"/>
  <circle cx="55.3" cy="278.1" r="2.5" fill="#f6ad55" /><circle cx="106.4" cy="278.2" r="2.5" fill="#f6ad55" /><circle cx="157.6" cy="278.2" r="2.5" fill="#f6ad55" /><circle cx="208.7" cy="278.0" r="2.5" fill="#f6ad55" /><circle cx="259.8" cy="278.1" r="2.5" fill="#f6ad55" /><circle cx="310.9" cy="278.1" r="2.5" fill="#f6ad55" /><circle cx="362.0" cy="278.1" r="2.5" fill="#f6ad55" /><circle cx="413.1" cy="278.1" r="2.5" fill="#f6ad55" /><circle cx="464.2" cy="278.2" r="2.5" fill="#f6ad55" /><circle cx="515.3" cy="278.1" r="2.5" fill="#f6ad55" /><circle cx="566.4" cy="278.1" r="2.5" fill="#f6ad55" /><circle cx="617.6" cy="278.3" r="2.5" fill="#f6ad55" /><circle cx="668.7" cy="278.3" r="2.5" fill="#f6ad55" /><circle cx="719.8" cy="278.5" r="2.5" fill="#f6ad55" /><circle cx="770.9" cy="518.3" r="2.5" fill="#f6ad55" /><circle cx="822.0" cy="40.0" r="2.5" fill="#f6ad55" /><circle cx="873.1" cy="278.2" r="2.5" fill="#f6ad55" /><circle cx="924.2" cy="278.2" r="2.5" fill="#f6ad55" />
  <text x="40" y="30" fill="#9aa6b2" font-size="12">Hourly rate: Molts (bars), Likes (line), Views (dots scaled)</text>
  <text x="40" y="310" fill="#9aa6b2" font-size="11">max rate ~2510.11 / hour</text>
</svg>