<?xml version="1.0" encoding="UTF-8"?>
<svg xmlns="http://www.w3.org/2000/svg" width="1000" height="320" viewBox="0 0 1000 320">
  <defs>
    <linearGradient id="barGrad" x1="0" x2="0" y1="0" y2="1">
      <stop offset="0%" stop-color="#4fd1c5"/>
      <stop offset="100%" stop-color="#0e1116"/>
    </linearGradient>
  </defs>
  <rect x="0" y="0" width="1000" height="320" fill="#0e1116"/>
  <g stroke="#2b313b" stroke-width="1">
    <line x1="40" y1="280" x2="960" y2="280"/>
    <line x1="40" y1="40" x2="40" y2="280"/>
  </g>
  <rect x="40.0" y="224.9" width="26.3" height="55.1" rx="2" fill="url(#barGrad)" /><rect x="83.8" y="164.7" width="26.3" height="115.3" rx="2" fill="url(#barGrad)" /><rect x="127.6" y="174.8" width="26.3" height="105.2" rx="2" fill="url(#barGrad)" /><rect x="171.4" y="146.2" width="26.3" height="133.8" rx="2" fill="url(#barGrad)" /><rect x="215.2" y="166.8" width="26.3" height="113.2" rx="2" fill="url(#barGrad)" /><rect x="259.0" y="184.9" width="26.3" height="95.1" rx="2" fill="url(#barGrad)" /><rect x="302.9" y="170.5" width="26.3" height="109.5" rx="2" fill="url(#barGrad)" /><rect x="346.7" y="172.6" width="26.3" height="107.4" rx="2" fill="url(#barGrad)" /><rect x="390.5" y="150.6" width="26.3" height="129.4" rx="2" fill="url(#barGrad)" /><rect x="434.3" y="136.2" width="26.3" height="143.8" rx="2" fill="url(#barGrad)" /><rect x="478.1" y="105.7" width="26.3" height="174.3" rx="2" fill="url(#barGrad)" /><rect x="521.9" y="91.4" width="26.3" height="188.6" rx="2" fill="url(#barGrad)" /><rect x="565.7" y="145.1" width="26.3" height="134.9" rx="2" fill="url(#barGrad)" /><rect x="609.5" y="164.7" width="26.3" height="115.3" rx="2" fill="url(#barGrad)" /><rect x="653.3" y="158.4" width="26.3" height="121.6" rx="2" fill="url(#barGrad)" /><rect x="697.1" y="168.9" width="26.3" height="111.1" rx="2" fill="url(#barGrad)" /><rect x="741.0" y="180.2" width="26.3" height="99.8" rx="2" fill="url(#barGrad)" /><rect x="784.8" y="201.0" width="26.3" height="79.0" rx="2" fill="url(#barGrad)" /><rect x="828.6" y="199.2" width="26.3" height="80.8" rx="2" fill="url(#barGrad)" /><rect x="872.4" y="195.0" width="26.3" height="85.0" rx="2" fill="url(#barGrad)" /><rect x="916.2" y="207.5" width="26.3" height="72.5" rx="2" fill="url(#barGrad)" />
  <polyline fill="none" stroke="#63b3ed" stroke-width="2" points="53.1,152.8 97.0,81.6 140.8,83.0 184.6,47.2 228.4,88.0 272.2,94.2 316.0,67.4 359.8,108.8 403.6,68.3 447.4,62.4 491.2,78.0 535.0,72.0 578.9,40.0 622.7,98.0 666.5,60.5 710.3,44.5 754.1,95.3 797.9,93.1 841.7,52.5 885.5,67.2 929.3,77.1"/>
  <circle cx="53.1" cy="40.0" r="2.5" fill="#f6ad55" /><circle cx="97.0" cy="161.6" r="2.5" fill="#f6ad55" /><circle cx="140.8" cy="145.5" r="2.5" fill="#f6ad55" /><circle cx="184.6" cy="146.2" r="2.5" fill="#f6ad55" /><circle cx="228.4" cy="141.6" r="2.5" fill="#f6ad55" /><circle cx="272.2" cy="148.6" r="2.5" fill="#f6ad55" /><circle cx="316.0" cy="160.2" r="2.5" fill="#f6ad55" /><circle cx="359.8" cy="157.9" r="2.5" fill="#f6ad55" /><circle cx="403.6" cy="155.3" r="2.5" fill="#f6ad55" /><circle cx="447.4" cy="129.4" r="2.5" fill="#f6ad55" /><circle cx="491.2" cy="126.4" r="2.5" fill="#f6ad55" /><circle cx="535.0" cy="117.0" r="2.5" fill="#f6ad55" /><circle cx="578.9" cy="130.2" r="2.5" fill="#f6ad55" /><circle cx="622.7" cy="156.1" r="2.5" fill="#f6ad55" /><circle cx="666.5" cy="160.1" r="2.5" fill="#f6ad55" /><circle cx="710.3" cy="151.8" r="2.5" fill="#f6ad55" /><circle cx="754.1" cy="169.2" r="2.5" fill="#f6ad55" /><circle cx="797.9" cy="162.8" r="2.5" fill="#f6ad55" /><circle cx="841.7" cy="155.5" r="2.5" fill="#f6ad55" /><circle cx="885.5" cy="141.7" r="2.5" fill="#f6ad55" /><circle cx="929.3" cy="142.5" r="2.5" fill="#f6ad55" />
  <text x="40" y="30" fill="#9aa6b2" font-size="12">Hourly rate: Molts (bars), Likes (line), Views (dots scaled)</text>
  <text x="40" y="310" fill="#9aa6b2" font-size="11">max rate ~729.33 / hour</text>
</svg>