<?xml version="1.0" encoding="UTF-8"?>
<svg xmlns="http://www.w3.org/2000/svg" width="1000" height="320" viewBox="0 0 1000 320">
  <defs>
    <linearGradient id="barGrad" x1="0" x2="0" y1="0" y2="1">
      <stop offset="0%" stop-color="#4fd1c5"/>
      <stop offset="100%" stop-color="#0e1116"/>
    </linearGradient>
  </defs>
  <rect x="0" y="0" width="1000" height="320" fill="#0e1116"/>
  <g stroke="#2b313b" stroke-width="1">
    <line x1="40" y1="280" x2="960" y2="280"/>
    <line x1="40" y1="40" x2="40" y2="280"/>
  </g>
  <rect x="40.0" y="40.0" width="50.2" height="240.0" rx="2" fill="url(#barGrad)" /><rect x="123.6" y="130.6" width="50.2" height="149.4" rx="2" fill="url(#barGrad)" /><rect x="207.3" y="264.2" width="50.2" height="15.8" rx="2" fill="url(#barGrad)" /><rect x="290.9" y="263.6" width="50.2" height="16.4" rx="2" fill="url(#barGrad)" /><rect x="374.5" y="259.3" width="50.2" height="20.7" rx="2" fill="url(#barGrad)" /><rect x="458.2" y="256.8" width="50.2" height="23.2" rx="2" fill="url(#barGrad)" /><rect x="541.8" y="263.6" width="50.2" height="16.4" rx="2" fill="url(#barGrad)" /><rect x="625.5" y="258.7" width="50.2" height="21.3" rx="2" fill="url(#barGrad)" /><rect x="709.1" y="262.3" width="50.2" height="17.7" rx="2" fill="url(#barGrad)" /><rect x="792.7" y="258.4" width="50.2" height="21.6" rx="2" fill="url(#barGrad)" /><rect x="876.4" y="258.7" width="50.2" height="21.3" rx="2" fill="url(#barGrad)" />
  <polyline fill="none" stroke="#63b3ed" stroke-width="2" points="65.1,239.6 148.7,244.1 232.4,242.8 316.0,249.5 399.6,241.8 483.3,249.3 566.9,245.9 650.5,253.0 734.2,256.6 817.8,247.6 901.5,246.5"/>
  <circle cx="65.1" cy="58.4" r="2.5" fill="#f6ad55" /><circle cx="148.7" cy="41.8" r="2.5" fill="#f6ad55" /><circle cx="232.4" cy="54.4" r="2.5" fill="#f6ad55" /><circle cx="316.0" cy="48.0" r="2.5" fill="#f6ad55" /><circle cx="399.6" cy="45.2" r="2.5" fill="#f6ad55" /><circle cx="483.3" cy="40.0" r="2.5" fill="#f6ad55" /><circle cx="566.9" cy="56.2" r="2.5" fill="#f6ad55" /><circle cx="650.5" cy="73.1" r="2.5" fill="#f6ad55" /><circle cx="734.2" cy="66.2" r="2.5" fill="#f6ad55" /><circle cx="817.8" cy="90.5" r="2.5" fill="#f6ad55" /><circle cx="901.5" cy="74.6" r="2.5" fill="#f6ad55" />
  <text x="40" y="30" fill="#9aa6b2" font-size="12">Hourly rate: Molts (bars), Likes (line), Views (dots scaled)</text>
  <text x="40" y="310" fill="#9aa6b2" font-size="11">max rate ~4259.25 / hour</text>
</svg>