<?xml version="1.0" encoding="UTF-8"?>
<svg xmlns="http://www.w3.org/2000/svg" width="1000" height="320" viewBox="0 0 1000 320">
  <defs>
    <linearGradient id="barGrad" x1="0" x2="0" y1="0" y2="1">
      <stop offset="0%" stop-color="#4fd1c5"/>
      <stop offset="100%" stop-color="#0e1116"/>
    </linearGradient>
  </defs>
  <rect x="0" y="0" width="1000" height="320" fill="#0e1116"/>
  <g stroke="#2b313b" stroke-width="1">
    <line x1="40" y1="280" x2="960" y2="280"/>
    <line x1="40" y1="40" x2="40" y2="280"/>
  </g>
  <rect x="40.0" y="142.3" width="30.7" height="137.7" rx="2" fill="url(#barGrad)" /><rect x="91.1" y="157.3" width="30.7" height="122.7" rx="2" fill="url(#barGrad)" /><rect x="142.2" y="158.1" width="30.7" height="121.9" rx="2" fill="url(#barGrad)" /><rect x="193.3" y="188.3" width="30.7" height="91.7" rx="2" fill="url(#barGrad)" /><rect x="244.4" y="183.0" width="30.7" height="97.0" rx="2" fill="url(#barGrad)" /><rect x="295.6" y="148.2" width="30.7" height="131.8" rx="2" fill="url(#barGrad)" /><rect x="346.7" y="164.6" width="30.7" height="115.4" rx="2" fill="url(#barGrad)" /><rect x="397.8" y="156.8" width="30.7" height="123.2" rx="2" fill="url(#barGrad)" /><rect x="448.9" y="171.3" width="30.7" height="108.7" rx="2" fill="url(#barGrad)" /><rect x="500.0" y="169.6" width="30.7" height="110.4" rx="2" fill="url(#barGrad)" /><rect x="551.1" y="171.2" width="30.7" height="108.8" rx="2" fill="url(#barGrad)" /><rect x="602.2" y="182.6" width="30.7" height="97.4" rx="2" fill="url(#barGrad)" /><rect x="653.3" y="176.0" width="30.7" height="104.0" rx="2" fill="url(#barGrad)" /><rect x="704.4" y="162.2" width="30.7" height="117.8" rx="2" fill="url(#barGrad)" /><rect x="755.6" y="178.8" width="30.7" height="101.2" rx="2" fill="url(#barGrad)" /><rect x="806.7" y="195.0" width="30.7" height="85.0" rx="2" fill="url(#barGrad)" /><rect x="857.8" y="204.1" width="30.7" height="75.9" rx="2" fill="url(#barGrad)" /><rect x="908.9" y="192.7" width="30.7" height="87.3" rx="2" fill="url(#barGrad)" />
  <polyline fill="none" stroke="#63b3ed" stroke-width="2" points="55.3,82.1 106.4,50.2 157.6,63.7 208.7,96.9 259.8,85.6 310.9,63.0 362.0,40.0 413.1,46.4 464.2,73.6 515.3,67.4 566.4,75.5 617.6,87.6 668.7,93.3 719.8,43.8 770.9,75.0 822.0,108.4 873.1,145.3 924.2,92.6"/>
  <circle cx="55.3" cy="79.1" r="2.5" fill="#f6ad55" /><circle cx="106.4" cy="83.9" r="2.5" fill="#f6ad55" /><circle cx="157.6" cy="55.0" r="2.5" fill="#f6ad55" /><circle cx="208.7" cy="40.0" r="2.5" fill="#f6ad55" /><circle cx="259.8" cy="83.5" r="2.5" fill="#f6ad55" /><circle cx="310.9" cy="93.5" r="2.5" fill="#f6ad55" /><circle cx="362.0" cy="92.6" r="2.5" fill="#f6ad55" /><circle cx="413.1" cy="95.5" r="2.5" fill="#f6ad55" /><circle cx="464.2" cy="112.8" r="2.5" fill="#f6ad55" /><circle cx="515.3" cy="124.4" r="2.5" fill="#f6ad55" /><circle cx="566.4" cy="98.5" r="2.5" fill="#f6ad55" /><circle cx="617.6" cy="97.2" r="2.5" fill="#f6ad55" /><circle cx="668.7" cy="84.7" r="2.5" fill="#f6ad55" /><circle cx="719.8" cy="95.0" r="2.5" fill="#f6ad55" /><circle cx="770.9" cy="115.3" r="2.5" fill="#f6ad55" /><circle cx="822.0" cy="92.8" r="2.5" fill="#f6ad55" /><circle cx="873.1" cy="103.9" r="2.5" fill="#f6ad55" /><circle cx="924.2" cy="85.8" r="2.5" fill="#f6ad55" />
  <text x="40" y="30" fill="#9aa6b2" font-size="12">Hourly rate: Molts (bars), Likes (line), Views (dots scaled)</text>
  <text x="40" y="310" fill="#9aa6b2" font-size="11">max rate ~718.37 / hour</text>
</svg>