<?xml version="1.0" encoding="UTF-8"?>
<svg xmlns="http://www.w3.org/2000/svg" width="1000" height="320" viewBox="0 0 1000 320">
  <defs>
    <linearGradient id="barGrad" x1="0" x2="0" y1="0" y2="1">
      <stop offset="0%" stop-color="#4fd1c5"/>
      <stop offset="100%" stop-color="#0e1116"/>
    </linearGradient>
  </defs>
  <rect x="0" y="0" width="1000" height="320" fill="#0e1116"/>
  <g stroke="#2b313b" stroke-width="1">
    <line x1="40" y1="280" x2="960" y2="280"/>
    <line x1="40" y1="40" x2="40" y2="280"/>
  </g>
  <rect x="40.0" y="260.6" width="55.2" height="19.4" rx="2" fill="url(#barGrad)" /><rect x="132.0" y="216.4" width="55.2" height="63.6" rx="2" fill="url(#barGrad)" /><rect x="224.0" y="229.6" width="55.2" height="50.4" rx="2" fill="url(#barGrad)" /><rect x="316.0" y="232.5" width="55.2" height="47.5" rx="2" fill="url(#barGrad)" /><rect x="408.0" y="221.3" width="55.2" height="58.7" rx="2" fill="url(#barGrad)" /><rect x="500.0" y="225.9" width="55.2" height="54.1" rx="2" fill="url(#barGrad)" /><rect x="592.0" y="230.1" width="55.2" height="49.9" rx="2" fill="url(#barGrad)" /><rect x="684.0" y="222.6" width="55.2" height="57.4" rx="2" fill="url(#barGrad)" /><rect x="776.0" y="130.1" width="55.2" height="149.9" rx="2" fill="url(#barGrad)" /><rect x="868.0" y="218.5" width="55.2" height="61.5" rx="2" fill="url(#barGrad)" />
  <polyline fill="none" stroke="#63b3ed" stroke-width="2" points="67.6,215.7 159.6,155.1 251.6,176.9 343.6,168.8 435.6,160.3 527.6,152.6 619.6,165.3 711.6,164.1 803.6,40.0 895.6,175.3"/>
  <circle cx="67.6" cy="40.0" r="2.5" fill="#f6ad55" /><circle cx="159.6" cy="75.6" r="2.5" fill="#f6ad55" /><circle cx="251.6" cy="80.5" r="2.5" fill="#f6ad55" /><circle cx="343.6" cy="78.4" r="2.5" fill="#f6ad55" /><circle cx="435.6" cy="70.8" r="2.5" fill="#f6ad55" /><circle cx="527.6" cy="69.7" r="2.5" fill="#f6ad55" /><circle cx="619.6" cy="69.7" r="2.5" fill="#f6ad55" /><circle cx="711.6" cy="89.5" r="2.5" fill="#f6ad55" /><circle cx="803.6" cy="79.7" r="2.5" fill="#f6ad55" /><circle cx="895.6" cy="51.4" r="2.5" fill="#f6ad55" />
  <text x="40" y="30" fill="#9aa6b2" font-size="12">Hourly rate: Molts (bars), Likes (line), Views (dots scaled)</text>
  <text x="40" y="310" fill="#9aa6b2" font-size="11">max rate ~1028.14 / hour</text>
</svg>