<?xml version="1.0" encoding="UTF-8"?>
<svg xmlns="http://www.w3.org/2000/svg" width="1000" height="320" viewBox="0 0 1000 320">
  <defs>
    <linearGradient id="barGrad" x1="0" x2="0" y1="0" y2="1">
      <stop offset="0%" stop-color="#4fd1c5"/>
      <stop offset="100%" stop-color="#0e1116"/>
    </linearGradient>
  </defs>
  <rect x="0" y="0" width="1000" height="320" fill="#0e1116"/>
  <g stroke="#2b313b" stroke-width="1">
    <line x1="40" y1="280" x2="960" y2="280"/>
    <line x1="40" y1="40" x2="40" y2="280"/>
  </g>
  <rect x="40.0" y="161.1" width="61.3" height="118.9" rx="2" fill="url(#barGrad)" /><rect x="142.2" y="120.0" width="61.3" height="160.0" rx="2" fill="url(#barGrad)" /><rect x="244.4" y="112.9" width="61.3" height="167.1" rx="2" fill="url(#barGrad)" /><rect x="346.7" y="125.3" width="61.3" height="154.7" rx="2" fill="url(#barGrad)" /><rect x="448.9" y="113.9" width="61.3" height="166.1" rx="2" fill="url(#barGrad)" /><rect x="551.1" y="122.8" width="61.3" height="157.2" rx="2" fill="url(#barGrad)" /><rect x="653.3" y="117.5" width="61.3" height="162.5" rx="2" fill="url(#barGrad)" /><rect x="755.6" y="97.9" width="61.3" height="182.1" rx="2" fill="url(#barGrad)" /><rect x="857.8" y="141.5" width="61.3" height="138.5" rx="2" fill="url(#barGrad)" />
  <polyline fill="none" stroke="#63b3ed" stroke-width="2" points="70.7,127.6 172.9,80.7 275.1,85.0 377.3,98.2 479.6,88.1 581.8,81.9 684.0,40.0 786.2,55.8 888.4,109.0"/>
  <circle cx="70.7" cy="100.8" r="2.5" fill="#f6ad55" /><circle cx="172.9" cy="64.8" r="2.5" fill="#f6ad55" /><circle cx="275.1" cy="52.4" r="2.5" fill="#f6ad55" /><circle cx="377.3" cy="40.0" r="2.5" fill="#f6ad55" /><circle cx="479.6" cy="45.2" r="2.5" fill="#f6ad55" /><circle cx="581.8" cy="83.8" r="2.5" fill="#f6ad55" /><circle cx="684.0" cy="57.7" r="2.5" fill="#f6ad55" /><circle cx="786.2" cy="87.9" r="2.5" fill="#f6ad55" /><circle cx="888.4" cy="88.5" r="2.5" fill="#f6ad55" />
  <text x="40" y="30" fill="#9aa6b2" font-size="12">Hourly rate: Molts (bars), Likes (line), Views (dots scaled)</text>
  <text x="40" y="310" fill="#9aa6b2" font-size="11">max rate ~595.01 / hour</text>
</svg>