<?xml version="1.0" encoding="UTF-8"?>
<svg xmlns="http://www.w3.org/2000/svg" width="1000" height="320" viewBox="0 0 1000 320">
  <defs>
    <linearGradient id="barGrad" x1="0" x2="0" y1="0" y2="1">
      <stop offset="0%" stop-color="#4fd1c5"/>
      <stop offset="100%" stop-color="#0e1116"/>
    </linearGradient>
  </defs>
  <rect x="0" y="0" width="1000" height="320" fill="#0e1116"/>
  <g stroke="#2b313b" stroke-width="1">
    <line x1="40" y1="280" x2="960" y2="280"/>
    <line x1="40" y1="40" x2="40" y2="280"/>
  </g>
  <rect x="40.0" y="232.3" width="46.0" height="47.7" rx="2" fill="url(#barGrad)" /><rect x="116.7" y="158.4" width="46.0" height="121.6" rx="2" fill="url(#barGrad)" /><rect x="193.3" y="125.6" width="46.0" height="154.4" rx="2" fill="url(#barGrad)" /><rect x="270.0" y="172.9" width="46.0" height="107.1" rx="2" fill="url(#barGrad)" /><rect x="346.7" y="190.6" width="46.0" height="89.4" rx="2" fill="url(#barGrad)" /><rect x="423.3" y="48.2" width="46.0" height="231.8" rx="2" fill="url(#barGrad)" /><rect x="500.0" y="159.4" width="46.0" height="120.6" rx="2" fill="url(#barGrad)" /><rect x="576.7" y="137.2" width="46.0" height="142.8" rx="2" fill="url(#barGrad)" /><rect x="653.3" y="192.9" width="46.0" height="87.1" rx="2" fill="url(#barGrad)" /><rect x="730.0" y="169.0" width="46.0" height="111.0" rx="2" fill="url(#barGrad)" /><rect x="806.7" y="102.9" width="46.0" height="177.1" rx="2" fill="url(#barGrad)" /><rect x="883.3" y="77.6" width="46.0" height="202.4" rx="2" fill="url(#barGrad)" />
  <polyline fill="none" stroke="#63b3ed" stroke-width="2" points="63.0,162.1 139.7,116.3 216.3,114.9 293.0,68.3 369.7,123.8 446.3,107.6 523.0,127.5 599.7,40.0 676.3,137.8 753.0,127.7 829.7,100.4 906.3,105.0"/>
  <circle cx="63.0" cy="94.0" r="2.5" fill="#f6ad55" /><circle cx="139.7" cy="109.8" r="2.5" fill="#f6ad55" /><circle cx="216.3" cy="69.0" r="2.5" fill="#f6ad55" /><circle cx="293.0" cy="44.9" r="2.5" fill="#f6ad55" /><circle cx="369.7" cy="40.0" r="2.5" fill="#f6ad55" /><circle cx="446.3" cy="48.2" r="2.5" fill="#f6ad55" /><circle cx="523.0" cy="46.9" r="2.5" fill="#f6ad55" /><circle cx="599.7" cy="47.5" r="2.5" fill="#f6ad55" /><circle cx="676.3" cy="43.4" r="2.5" fill="#f6ad55" /><circle cx="753.0" cy="52.4" r="2.5" fill="#f6ad55" /><circle cx="829.7" cy="52.1" r="2.5" fill="#f6ad55" /><circle cx="906.3" cy="60.0" r="2.5" fill="#f6ad55" />
  <text x="40" y="30" fill="#9aa6b2" font-size="12">Hourly rate: Molts (bars), Likes (line), Views (dots scaled)</text>
  <text x="40" y="310" fill="#9aa6b2" font-size="11">max rate ~683.13 / hour</text>
</svg>