<?xml version="1.0" encoding="UTF-8"?>
<svg xmlns="http://www.w3.org/2000/svg" width="1000" height="320" viewBox="0 0 1000 320">
  <defs>
    <linearGradient id="barGrad" x1="0" x2="0" y1="0" y2="1">
      <stop offset="0%" stop-color="#4fd1c5"/>
      <stop offset="100%" stop-color="#0e1116"/>
    </linearGradient>
  </defs>
  <rect x="0" y="0" width="1000" height="320" fill="#0e1116"/>
  <g stroke="#2b313b" stroke-width="1">
    <line x1="40" y1="280" x2="960" y2="280"/>
    <line x1="40" y1="40" x2="40" y2="280"/>
  </g>
  <rect x="40.0" y="237.4" width="22.1" height="42.6" rx="2" fill="url(#barGrad)" /><rect x="76.8" y="184.5" width="22.1" height="95.5" rx="2" fill="url(#barGrad)" /><rect x="113.6" y="168.0" width="22.1" height="112.0" rx="2" fill="url(#barGrad)" /><rect x="150.4" y="152.6" width="22.1" height="127.4" rx="2" fill="url(#barGrad)" /><rect x="187.2" y="136.4" width="22.1" height="143.6" rx="2" fill="url(#barGrad)" /><rect x="224.0" y="200.6" width="22.1" height="79.4" rx="2" fill="url(#barGrad)" /><rect x="260.8" y="212.4" width="22.1" height="67.6" rx="2" fill="url(#barGrad)" /><rect x="297.6" y="202.8" width="22.1" height="77.2" rx="2" fill="url(#barGrad)" /><rect x="334.4" y="205.4" width="22.1" height="74.6" rx="2" fill="url(#barGrad)" /><rect x="371.2" y="196.2" width="22.1" height="83.8" rx="2" fill="url(#barGrad)" /><rect x="408.0" y="182.5" width="22.1" height="97.5" rx="2" fill="url(#barGrad)" /><rect x="444.8" y="209.0" width="22.1" height="71.0" rx="2" fill="url(#barGrad)" /><rect x="481.6" y="197.4" width="22.1" height="82.6" rx="2" fill="url(#barGrad)" /><rect x="518.4" y="199.0" width="22.1" height="81.0" rx="2" fill="url(#barGrad)" /><rect x="555.2" y="215.6" width="22.1" height="64.4" rx="2" fill="url(#barGrad)" /><rect x="592.0" y="217.4" width="22.1" height="62.6" rx="2" fill="url(#barGrad)" /><rect x="628.8" y="213.8" width="22.1" height="66.2" rx="2" fill="url(#barGrad)" /><rect x="665.6" y="207.0" width="22.1" height="73.0" rx="2" fill="url(#barGrad)" /><rect x="702.4" y="213.8" width="22.1" height="66.2" rx="2" fill="url(#barGrad)" /><rect x="739.2" y="196.7" width="22.1" height="83.3" rx="2" fill="url(#barGrad)" /><rect x="776.0" y="213.5" width="22.1" height="66.5" rx="2" fill="url(#barGrad)" /><rect x="812.8" y="211.7" width="22.1" height="68.3" rx="2" fill="url(#barGrad)" /><rect x="849.6" y="173.5" width="22.1" height="106.5" rx="2" fill="url(#barGrad)" /><rect x="886.4" y="212.1" width="22.1" height="67.9" rx="2" fill="url(#barGrad)" /><rect x="923.2" y="203.9" width="22.1" height="76.1" rx="2" fill="url(#barGrad)" />
  <polyline fill="none" stroke="#63b3ed" stroke-width="2" points="51.0,168.4 87.8,45.4 124.6,41.5 161.4,105.7 198.2,96.9 235.0,84.7 271.8,117.1 308.6,104.9 345.4,114.9 382.2,91.8 419.0,80.6 455.8,101.0 492.6,82.3 529.4,90.2 566.2,99.8 603.0,112.8 639.8,126.4 676.6,89.4 713.4,118.8 750.2,40.0 787.0,122.5 823.8,115.1 860.6,56.7 897.4,95.8 934.2,43.4"/>
  <circle cx="51.0" cy="74.1" r="2.5" fill="#f6ad55" /><circle cx="87.8" cy="56.1" r="2.5" fill="#f6ad55" /><circle cx="124.6" cy="59.8" r="2.5" fill="#f6ad55" /><circle cx="161.4" cy="68.5" r="2.5" fill="#f6ad55" /><circle cx="198.2" cy="72.9" r="2.5" fill="#f6ad55" /><circle cx="235.0" cy="62.1" r="2.5" fill="#f6ad55" /><circle cx="271.8" cy="76.4" r="2.5" fill="#f6ad55" /><circle cx="308.6" cy="51.8" r="2.5" fill="#f6ad55" /><circle cx="345.4" cy="40.0" r="2.5" fill="#f6ad55" /><circle cx="382.2" cy="67.3" r="2.5" fill="#f6ad55" /><circle cx="419.0" cy="46.1" r="2.5" fill="#f6ad55" /><circle cx="455.8" cy="62.6" r="2.5" fill="#f6ad55" /><circle cx="492.6" cy="56.8" r="2.5" fill="#f6ad55" /><circle cx="529.4" cy="70.1" r="2.5" fill="#f6ad55" /><circle cx="566.2" cy="78.3" r="2.5" fill="#f6ad55" /><circle cx="603.0" cy="76.6" r="2.5" fill="#f6ad55" /><circle cx="639.8" cy="84.3" r="2.5" fill="#f6ad55" /><circle cx="676.6" cy="84.2" r="2.5" fill="#f6ad55" /><circle cx="713.4" cy="72.5" r="2.5" fill="#f6ad55" /><circle cx="750.2" cy="69.4" r="2.5" fill="#f6ad55" /><circle cx="787.0" cy="56.9" r="2.5" fill="#f6ad55" /><circle cx="823.8" cy="55.0" r="2.5" fill="#f6ad55" /><circle cx="860.6" cy="66.0" r="2.5" fill="#f6ad55" /><circle cx="897.4" cy="67.4" r="2.5" fill="#f6ad55" /><circle cx="934.2" cy="89.7" r="2.5" fill="#f6ad55" />
  <text x="40" y="30" fill="#9aa6b2" font-size="12">Hourly rate: Molts (bars), Likes (line), Views (dots scaled)</text>
  <text x="40" y="310" fill="#9aa6b2" font-size="11">max rate ~766.07 / hour</text>
</svg>