<?xml version="1.0" encoding="UTF-8"?>
<svg xmlns="http://www.w3.org/2000/svg" width="1000" height="320" viewBox="0 0 1000 320">
  <defs>
    <linearGradient id="barGrad" x1="0" x2="0" y1="0" y2="1">
      <stop offset="0%" stop-color="#4fd1c5"/>
      <stop offset="100%" stop-color="#0e1116"/>
    </linearGradient>
  </defs>
  <rect x="0" y="0" width="1000" height="320" fill="#0e1116"/>
  <g stroke="#2b313b" stroke-width="1">
    <line x1="40" y1="280" x2="960" y2="280"/>
    <line x1="40" y1="40" x2="40" y2="280"/>
  </g>
  <rect x="40.0" y="40.0" width="23.0" height="240.0" rx="2" fill="url(#barGrad)" /><rect x="78.3" y="130.6" width="23.0" height="149.4" rx="2" fill="url(#barGrad)" /><rect x="116.7" y="264.2" width="23.0" height="15.8" rx="2" fill="url(#barGrad)" /><rect x="155.0" y="263.6" width="23.0" height="16.4" rx="2" fill="url(#barGrad)" /><rect x="193.3" y="259.3" width="23.0" height="20.7" rx="2" fill="url(#barGrad)" /><rect x="231.7" y="256.8" width="23.0" height="23.2" rx="2" fill="url(#barGrad)" /><rect x="270.0" y="263.6" width="23.0" height="16.4" rx="2" fill="url(#barGrad)" /><rect x="308.3" y="258.7" width="23.0" height="21.3" rx="2" fill="url(#barGrad)" /><rect x="346.7" y="262.3" width="23.0" height="17.7" rx="2" fill="url(#barGrad)" /><rect x="385.0" y="258.4" width="23.0" height="21.6" rx="2" fill="url(#barGrad)" /><rect x="423.3" y="258.7" width="23.0" height="21.3" rx="2" fill="url(#barGrad)" /><rect x="461.7" y="233.1" width="23.0" height="46.9" rx="2" fill="url(#barGrad)" /><rect x="500.0" y="178.1" width="23.0" height="101.9" rx="2" fill="url(#barGrad)" /><rect x="538.3" y="236.0" width="23.0" height="44.0" rx="2" fill="url(#barGrad)" /><rect x="576.7" y="590.6" width="23.0" height="-310.6" rx="2" fill="url(#barGrad)" /><rect x="615.0" y="262.8" width="23.0" height="17.2" rx="2" fill="url(#barGrad)" /><rect x="653.3" y="260.5" width="23.0" height="19.5" rx="2" fill="url(#barGrad)" /><rect x="691.7" y="262.2" width="23.0" height="17.8" rx="2" fill="url(#barGrad)" /><rect x="730.0" y="246.0" width="23.0" height="34.0" rx="2" fill="url(#barGrad)" /><rect x="768.3" y="265.2" width="23.0" height="14.8" rx="2" fill="url(#barGrad)" /><rect x="806.7" y="260.6" width="23.0" height="19.4" rx="2" fill="url(#barGrad)" /><rect x="845.0" y="266.3" width="23.0" height="13.7" rx="2" fill="url(#barGrad)" /><rect x="883.3" y="266.4" width="23.0" height="13.6" rx="2" fill="url(#barGrad)" /><rect x="921.7" y="267.5" width="23.0" height="12.5" rx="2" fill="url(#barGrad)" />
  <polyline fill="none" stroke="#63b3ed" stroke-width="2" points="51.5,239.6 89.8,244.1 128.2,242.8 166.5,249.5 204.8,241.8 243.2,249.3 281.5,245.9 319.8,253.0 358.2,256.6 396.5,247.6 434.8,246.5 473.2,243.3 511.5,239.7 549.8,222.8 588.2,252.3 626.5,249.6 664.8,244.0 703.2,242.5 741.5,232.6 779.8,240.9 818.2,233.1 856.5,247.5 894.8,245.3 933.2,244.5"/>
  <circle cx="51.5" cy="72.2" r="2.5" fill="#f6ad55" /><circle cx="89.8" cy="56.7" r="2.5" fill="#f6ad55" /><circle cx="128.2" cy="68.5" r="2.5" fill="#f6ad55" /><circle cx="166.5" cy="62.5" r="2.5" fill="#f6ad55" /><circle cx="204.8" cy="59.9" r="2.5" fill="#f6ad55" /><circle cx="243.2" cy="55.0" r="2.5" fill="#f6ad55" /><circle cx="281.5" cy="70.1" r="2.5" fill="#f6ad55" /><circle cx="319.8" cy="86.0" r="2.5" fill="#f6ad55" /><circle cx="358.2" cy="79.6" r="2.5" fill="#f6ad55" /><circle cx="396.5" cy="102.3" r="2.5" fill="#f6ad55" /><circle cx="434.8" cy="87.4" r="2.5" fill="#f6ad55" /><circle cx="473.2" cy="92.7" r="2.5" fill="#f6ad55" /><circle cx="511.5" cy="67.5" r="2.5" fill="#f6ad55" /><circle cx="549.8" cy="101.7" r="2.5" fill="#f6ad55" /><circle cx="588.2" cy="99.4" r="2.5" fill="#f6ad55" /><circle cx="626.5" cy="81.9" r="2.5" fill="#f6ad55" /><circle cx="664.8" cy="63.0" r="2.5" fill="#f6ad55" /><circle cx="703.2" cy="53.8" r="2.5" fill="#f6ad55" /><circle cx="741.5" cy="43.4" r="2.5" fill="#f6ad55" /><circle cx="779.8" cy="46.3" r="2.5" fill="#f6ad55" /><circle cx="818.2" cy="40.0" r="2.5" fill="#f6ad55" /><circle cx="856.5" cy="90.8" r="2.5" fill="#f6ad55" /><circle cx="894.8" cy="58.8" r="2.5" fill="#f6ad55" /><circle cx="933.2" cy="52.5" r="2.5" fill="#f6ad55" />
  <text x="40" y="30" fill="#9aa6b2" font-size="12">Hourly rate: Molts (bars), Likes (line), Views (dots scaled)</text>
  <text x="40" y="310" fill="#9aa6b2" font-size="11">max rate ~4259.25 / hour</text>
</svg>