<?xml version="1.0" encoding="UTF-8"?>
<svg xmlns="http://www.w3.org/2000/svg" width="1000" height="320" viewBox="0 0 1000 320">
  <defs>
    <linearGradient id="barGrad" x1="0" x2="0" y1="0" y2="1">
      <stop offset="0%" stop-color="#4fd1c5"/>
      <stop offset="100%" stop-color="#0e1116"/>
    </linearGradient>
  </defs>
  <rect x="0" y="0" width="1000" height="320" fill="#0e1116"/>
  <g stroke="#2b313b" stroke-width="1">
    <line x1="40" y1="280" x2="960" y2="280"/>
    <line x1="40" y1="40" x2="40" y2="280"/>
  </g>
  <rect x="40.0" y="255.1" width="55.2" height="24.9" rx="2" fill="url(#barGrad)" /><rect x="132.0" y="190.5" width="55.2" height="89.5" rx="2" fill="url(#barGrad)" /><rect x="224.0" y="210.2" width="55.2" height="69.8" rx="2" fill="url(#barGrad)" /><rect x="316.0" y="196.7" width="55.2" height="83.3" rx="2" fill="url(#barGrad)" /><rect x="408.0" y="191.2" width="55.2" height="88.8" rx="2" fill="url(#barGrad)" /><rect x="500.0" y="181.7" width="55.2" height="98.3" rx="2" fill="url(#barGrad)" /><rect x="592.0" y="170.7" width="55.2" height="109.3" rx="2" fill="url(#barGrad)" /><rect x="684.0" y="170.1" width="55.2" height="109.9" rx="2" fill="url(#barGrad)" /><rect x="776.0" y="206.2" width="55.2" height="73.8" rx="2" fill="url(#barGrad)" /><rect x="868.0" y="198.1" width="55.2" height="81.9" rx="2" fill="url(#barGrad)" />
  <polyline fill="none" stroke="#63b3ed" stroke-width="2" points="67.6,197.2 159.6,59.3 251.6,90.7 343.6,65.9 435.6,70.7 527.6,57.9 619.6,40.0 711.6,51.3 803.6,133.5 895.6,111.0"/>
  <circle cx="67.6" cy="106.2" r="2.5" fill="#f6ad55" /><circle cx="159.6" cy="101.0" r="2.5" fill="#f6ad55" /><circle cx="251.6" cy="84.0" r="2.5" fill="#f6ad55" /><circle cx="343.6" cy="58.5" r="2.5" fill="#f6ad55" /><circle cx="435.6" cy="62.7" r="2.5" fill="#f6ad55" /><circle cx="527.6" cy="40.0" r="2.5" fill="#f6ad55" /><circle cx="619.6" cy="50.2" r="2.5" fill="#f6ad55" /><circle cx="711.6" cy="50.7" r="2.5" fill="#f6ad55" /><circle cx="803.6" cy="70.0" r="2.5" fill="#f6ad55" /><circle cx="895.6" cy="78.6" r="2.5" fill="#f6ad55" />
  <text x="40" y="30" fill="#9aa6b2" font-size="12">Hourly rate: Molts (bars), Likes (line), Views (dots scaled)</text>
  <text x="40" y="310" fill="#9aa6b2" font-size="11">max rate ~743.65 / hour</text>
</svg>