<?xml version="1.0" encoding="UTF-8"?>
<svg xmlns="http://www.w3.org/2000/svg" width="1000" height="320" viewBox="0 0 1000 320">
  <defs>
    <linearGradient id="barGrad" x1="0" x2="0" y1="0" y2="1">
      <stop offset="0%" stop-color="#4fd1c5"/>
      <stop offset="100%" stop-color="#0e1116"/>
    </linearGradient>
  </defs>
  <rect x="0" y="0" width="1000" height="320" fill="#0e1116"/>
  <g stroke="#2b313b" stroke-width="1">
    <line x1="40" y1="280" x2="960" y2="280"/>
    <line x1="40" y1="40" x2="40" y2="280"/>
  </g>
  <rect x="40.0" y="265.6" width="25.1" height="14.4" rx="2" fill="url(#barGrad)" /><rect x="81.8" y="243.2" width="25.1" height="36.8" rx="2" fill="url(#barGrad)" /><rect x="123.6" y="233.3" width="25.1" height="46.7" rx="2" fill="url(#barGrad)" /><rect x="165.5" y="247.6" width="25.1" height="32.4" rx="2" fill="url(#barGrad)" /><rect x="207.3" y="252.9" width="25.1" height="27.1" rx="2" fill="url(#barGrad)" /><rect x="249.1" y="209.8" width="25.1" height="70.2" rx="2" fill="url(#barGrad)" /><rect x="290.9" y="243.5" width="25.1" height="36.5" rx="2" fill="url(#barGrad)" /><rect x="332.7" y="236.8" width="25.1" height="43.2" rx="2" fill="url(#barGrad)" /><rect x="374.5" y="253.6" width="25.1" height="26.4" rx="2" fill="url(#barGrad)" /><rect x="416.4" y="246.4" width="25.1" height="33.6" rx="2" fill="url(#barGrad)" /><rect x="458.2" y="226.4" width="25.1" height="53.6" rx="2" fill="url(#barGrad)" /><rect x="500.0" y="218.7" width="25.1" height="61.3" rx="2" fill="url(#barGrad)" /><rect x="541.8" y="205.3" width="25.1" height="74.7" rx="2" fill="url(#barGrad)" /><rect x="583.6" y="216.8" width="25.1" height="63.2" rx="2" fill="url(#barGrad)" /><rect x="625.5" y="196.9" width="25.1" height="83.1" rx="2" fill="url(#barGrad)" /><rect x="667.3" y="158.1" width="25.1" height="121.9" rx="2" fill="url(#barGrad)" /><rect x="709.1" y="40.0" width="25.1" height="240.0" rx="2" fill="url(#barGrad)" /><rect x="750.9" y="148.8" width="25.1" height="131.2" rx="2" fill="url(#barGrad)" /><rect x="792.7" y="199.9" width="25.1" height="80.1" rx="2" fill="url(#barGrad)" /><rect x="834.5" y="202.1" width="25.1" height="77.9" rx="2" fill="url(#barGrad)" /><rect x="876.4" y="220.2" width="25.1" height="59.8" rx="2" fill="url(#barGrad)" /><rect x="918.2" y="229.8" width="25.1" height="50.2" rx="2" fill="url(#barGrad)" />
  <polyline fill="none" stroke="#63b3ed" stroke-width="2" points="52.5,244.3 94.4,230.4 136.2,230.0 178.0,215.9 219.8,232.7 261.6,227.8 303.5,233.8 345.3,207.4 387.1,237.0 428.9,233.9 470.7,225.7 512.5,227.0 554.4,232.0 596.2,227.9 638.0,230.9 679.8,227.0 721.6,232.0 763.5,216.0 805.3,229.4 847.1,222.1 888.9,227.6 930.7,242.0"/>
  <circle cx="52.5" cy="106.6" r="2.5" fill="#f6ad55" /><circle cx="94.4" cy="121.4" r="2.5" fill="#f6ad55" /><circle cx="136.2" cy="83.3" r="2.5" fill="#f6ad55" /><circle cx="178.0" cy="60.8" r="2.5" fill="#f6ad55" /><circle cx="219.8" cy="56.3" r="2.5" fill="#f6ad55" /><circle cx="261.6" cy="63.9" r="2.5" fill="#f6ad55" /><circle cx="303.5" cy="62.7" r="2.5" fill="#f6ad55" /><circle cx="345.3" cy="63.3" r="2.5" fill="#f6ad55" /><circle cx="387.1" cy="59.4" r="2.5" fill="#f6ad55" /><circle cx="428.9" cy="67.9" r="2.5" fill="#f6ad55" /><circle cx="470.7" cy="67.5" r="2.5" fill="#f6ad55" /><circle cx="512.5" cy="74.9" r="2.5" fill="#f6ad55" /><circle cx="554.4" cy="60.5" r="2.5" fill="#f6ad55" /><circle cx="596.2" cy="69.6" r="2.5" fill="#f6ad55" /><circle cx="638.0" cy="53.1" r="2.5" fill="#f6ad55" /><circle cx="679.8" cy="46.9" r="2.5" fill="#f6ad55" /><circle cx="721.6" cy="60.5" r="2.5" fill="#f6ad55" /><circle cx="763.5" cy="62.6" r="2.5" fill="#f6ad55" /><circle cx="805.3" cy="54.6" r="2.5" fill="#f6ad55" /><circle cx="847.1" cy="48.1" r="2.5" fill="#f6ad55" /><circle cx="888.9" cy="40.0" r="2.5" fill="#f6ad55" /><circle cx="930.7" cy="74.6" r="2.5" fill="#f6ad55" />
  <text x="40" y="30" fill="#9aa6b2" font-size="12">Hourly rate: Molts (bars), Likes (line), Views (dots scaled)</text>
  <text x="40" y="310" fill="#9aa6b2" font-size="11">max rate ~2257.04 / hour</text>
</svg>