<?xml version="1.0" encoding="UTF-8"?>
<svg xmlns="http://www.w3.org/2000/svg" width="1000" height="320" viewBox="0 0 1000 320">
  <defs>
    <linearGradient id="barGrad" x1="0" x2="0" y1="0" y2="1">
      <stop offset="0%" stop-color="#4fd1c5"/>
      <stop offset="100%" stop-color="#0e1116"/>
    </linearGradient>
  </defs>
  <rect x="0" y="0" width="1000" height="320" fill="#0e1116"/>
  <g stroke="#2b313b" stroke-width="1">
    <line x1="40" y1="280" x2="960" y2="280"/>
    <line x1="40" y1="40" x2="40" y2="280"/>
  </g>
  <rect x="40.0" y="238.3" width="36.8" height="41.7" rx="2" fill="url(#barGrad)" /><rect x="101.3" y="173.6" width="36.8" height="106.4" rx="2" fill="url(#barGrad)" /><rect x="162.7" y="145.0" width="36.8" height="135.0" rx="2" fill="url(#barGrad)" /><rect x="224.0" y="186.4" width="36.8" height="93.6" rx="2" fill="url(#barGrad)" /><rect x="285.3" y="201.8" width="36.8" height="78.2" rx="2" fill="url(#barGrad)" /><rect x="346.7" y="77.3" width="36.8" height="202.7" rx="2" fill="url(#barGrad)" /><rect x="408.0" y="174.5" width="36.8" height="105.5" rx="2" fill="url(#barGrad)" /><rect x="469.3" y="155.1" width="36.8" height="124.9" rx="2" fill="url(#barGrad)" /><rect x="530.7" y="203.8" width="36.8" height="76.2" rx="2" fill="url(#barGrad)" /><rect x="592.0" y="182.9" width="36.8" height="97.1" rx="2" fill="url(#barGrad)" /><rect x="653.3" y="125.1" width="36.8" height="154.9" rx="2" fill="url(#barGrad)" /><rect x="714.7" y="103.0" width="36.8" height="177.0" rx="2" fill="url(#barGrad)" /><rect x="776.0" y="64.1" width="36.8" height="215.9" rx="2" fill="url(#barGrad)" /><rect x="837.3" y="97.5" width="36.8" height="182.5" rx="2" fill="url(#barGrad)" /><rect x="898.7" y="40.0" width="36.8" height="240.0" rx="2" fill="url(#barGrad)" />
  <polyline fill="none" stroke="#63b3ed" stroke-width="2" points="58.4,176.9 119.7,136.8 181.1,135.6 242.4,94.9 303.7,143.4 365.1,129.2 426.4,146.7 487.7,70.1 549.1,155.6 610.4,146.8 671.7,123.0 733.1,127.0 794.4,141.3 855.7,129.6 917.1,138.1"/>
  <circle cx="58.4" cy="96.6" r="2.5" fill="#f6ad55" /><circle cx="119.7" cy="112.2" r="2.5" fill="#f6ad55" /><circle cx="181.1" cy="71.9" r="2.5" fill="#f6ad55" /><circle cx="242.4" cy="48.1" r="2.5" fill="#f6ad55" /><circle cx="303.7" cy="43.3" r="2.5" fill="#f6ad55" /><circle cx="365.1" cy="51.4" r="2.5" fill="#f6ad55" /><circle cx="426.4" cy="50.1" r="2.5" fill="#f6ad55" /><circle cx="487.7" cy="50.7" r="2.5" fill="#f6ad55" /><circle cx="549.1" cy="46.7" r="2.5" fill="#f6ad55" /><circle cx="610.4" cy="55.6" r="2.5" fill="#f6ad55" /><circle cx="671.7" cy="55.2" r="2.5" fill="#f6ad55" /><circle cx="733.1" cy="63.1" r="2.5" fill="#f6ad55" /><circle cx="794.4" cy="47.8" r="2.5" fill="#f6ad55" /><circle cx="855.7" cy="57.5" r="2.5" fill="#f6ad55" /><circle cx="917.1" cy="40.0" r="2.5" fill="#f6ad55" />
  <text x="40" y="30" fill="#9aa6b2" font-size="12">Hourly rate: Molts (bars), Likes (line), Views (dots scaled)</text>
  <text x="40" y="310" fill="#9aa6b2" font-size="11">max rate ~781.24 / hour</text>
</svg>