<?xml version="1.0" encoding="UTF-8"?>
<svg xmlns="http://www.w3.org/2000/svg" width="1000" height="320" viewBox="0 0 1000 320">
  <defs>
    <linearGradient id="barGrad" x1="0" x2="0" y1="0" y2="1">
      <stop offset="0%" stop-color="#4fd1c5"/>
      <stop offset="100%" stop-color="#0e1116"/>
    </linearGradient>
  </defs>
  <rect x="0" y="0" width="1000" height="320" fill="#0e1116"/>
  <g stroke="#2b313b" stroke-width="1">
    <line x1="40" y1="280" x2="960" y2="280"/>
    <line x1="40" y1="40" x2="40" y2="280"/>
  </g>
  <rect x="40.0" y="233.9" width="24.0" height="46.1" rx="2" fill="url(#barGrad)" /><rect x="80.0" y="202.1" width="24.0" height="77.9" rx="2" fill="url(#barGrad)" /><rect x="120.0" y="215.7" width="24.0" height="64.3" rx="2" fill="url(#barGrad)" /><rect x="160.0" y="204.2" width="24.0" height="75.8" rx="2" fill="url(#barGrad)" /><rect x="200.0" y="206.8" width="24.0" height="73.2" rx="2" fill="url(#barGrad)" /><rect x="240.0" y="205.4" width="24.0" height="74.6" rx="2" fill="url(#barGrad)" /><rect x="280.0" y="178.4" width="24.0" height="101.6" rx="2" fill="url(#barGrad)" /><rect x="320.0" y="206.8" width="24.0" height="73.2" rx="2" fill="url(#barGrad)" /><rect x="360.0" y="198.1" width="24.0" height="81.9" rx="2" fill="url(#barGrad)" /><rect x="400.0" y="194.1" width="24.0" height="85.9" rx="2" fill="url(#barGrad)" /><rect x="440.0" y="199.8" width="24.0" height="80.2" rx="2" fill="url(#barGrad)" /><rect x="480.0" y="214.6" width="24.0" height="65.4" rx="2" fill="url(#barGrad)" /><rect x="520.0" y="173.7" width="24.0" height="106.3" rx="2" fill="url(#barGrad)" /><rect x="560.0" y="190.9" width="24.0" height="89.1" rx="2" fill="url(#barGrad)" /><rect x="600.0" y="176.4" width="24.0" height="103.6" rx="2" fill="url(#barGrad)" /><rect x="640.0" y="183.7" width="24.0" height="96.3" rx="2" fill="url(#barGrad)" /><rect x="680.0" y="150.4" width="24.0" height="129.6" rx="2" fill="url(#barGrad)" /><rect x="720.0" y="172.6" width="24.0" height="107.4" rx="2" fill="url(#barGrad)" /><rect x="760.0" y="197.8" width="24.0" height="82.2" rx="2" fill="url(#barGrad)" /><rect x="800.0" y="214.8" width="24.0" height="65.2" rx="2" fill="url(#barGrad)" /><rect x="840.0" y="200.3" width="24.0" height="79.7" rx="2" fill="url(#barGrad)" /><rect x="880.0" y="193.9" width="24.0" height="86.1" rx="2" fill="url(#barGrad)" /><rect x="920.0" y="202.0" width="24.0" height="78.0" rx="2" fill="url(#barGrad)" />
  <polyline fill="none" stroke="#63b3ed" stroke-width="2" points="52.0,169.1 92.0,110.8 132.0,121.9 172.0,122.5 212.0,113.0 252.0,103.1 292.0,67.7 332.0,122.3 372.0,131.6 412.0,125.4 452.0,120.5 492.0,141.4 532.0,98.1 572.0,110.6 612.0,64.6 652.0,62.7 692.0,44.3 732.0,40.0 772.0,98.5 812.0,94.0 852.0,63.7 892.0,91.2 932.0,104.8"/>
  <circle cx="52.0" cy="40.0" r="2.5" fill="#f6ad55" /><circle cx="92.0" cy="86.6" r="2.5" fill="#f6ad55" /><circle cx="132.0" cy="78.3" r="2.5" fill="#f6ad55" /><circle cx="172.0" cy="81.9" r="2.5" fill="#f6ad55" /><circle cx="212.0" cy="94.8" r="2.5" fill="#f6ad55" /><circle cx="252.0" cy="68.0" r="2.5" fill="#f6ad55" /><circle cx="292.0" cy="99.2" r="2.5" fill="#f6ad55" /><circle cx="332.0" cy="97.0" r="2.5" fill="#f6ad55" /><circle cx="372.0" cy="92.0" r="2.5" fill="#f6ad55" /><circle cx="412.0" cy="87.4" r="2.5" fill="#f6ad55" /><circle cx="452.0" cy="71.3" r="2.5" fill="#f6ad55" /><circle cx="492.0" cy="84.0" r="2.5" fill="#f6ad55" /><circle cx="532.0" cy="82.4" r="2.5" fill="#f6ad55" /><circle cx="572.0" cy="85.0" r="2.5" fill="#f6ad55" /><circle cx="612.0" cy="104.1" r="2.5" fill="#f6ad55" /><circle cx="652.0" cy="90.9" r="2.5" fill="#f6ad55" /><circle cx="692.0" cy="63.4" r="2.5" fill="#f6ad55" /><circle cx="732.0" cy="82.0" r="2.5" fill="#f6ad55" /><circle cx="772.0" cy="72.5" r="2.5" fill="#f6ad55" /><circle cx="812.0" cy="67.4" r="2.5" fill="#f6ad55" /><circle cx="852.0" cy="64.0" r="2.5" fill="#f6ad55" /><circle cx="892.0" cy="81.5" r="2.5" fill="#f6ad55" /><circle cx="932.0" cy="74.9" r="2.5" fill="#f6ad55" />
  <text x="40" y="30" fill="#9aa6b2" font-size="12">Hourly rate: Molts (bars), Likes (line), Views (dots scaled)</text>
  <text x="40" y="310" fill="#9aa6b2" font-size="11">max rate ~907.34 / hour</text>
</svg>