<?xml version="1.0" encoding="UTF-8"?>
<svg xmlns="http://www.w3.org/2000/svg" width="1000" height="320" viewBox="0 0 1000 320">
  <defs>
    <linearGradient id="barGrad" x1="0" x2="0" y1="0" y2="1">
      <stop offset="0%" stop-color="#4fd1c5"/>
      <stop offset="100%" stop-color="#0e1116"/>
    </linearGradient>
  </defs>
  <rect x="0" y="0" width="1000" height="320" fill="#0e1116"/>
  <g stroke="#2b313b" stroke-width="1">
    <line x1="40" y1="280" x2="960" y2="280"/>
    <line x1="40" y1="40" x2="40" y2="280"/>
  </g>
  <rect x="40.0" y="142.3" width="39.4" height="137.7" rx="2" fill="url(#barGrad)" /><rect x="105.7" y="157.3" width="39.4" height="122.7" rx="2" fill="url(#barGrad)" /><rect x="171.4" y="158.1" width="39.4" height="121.9" rx="2" fill="url(#barGrad)" /><rect x="237.1" y="188.3" width="39.4" height="91.7" rx="2" fill="url(#barGrad)" /><rect x="302.9" y="183.0" width="39.4" height="97.0" rx="2" fill="url(#barGrad)" /><rect x="368.6" y="148.2" width="39.4" height="131.8" rx="2" fill="url(#barGrad)" /><rect x="434.3" y="164.6" width="39.4" height="115.4" rx="2" fill="url(#barGrad)" /><rect x="500.0" y="156.8" width="39.4" height="123.2" rx="2" fill="url(#barGrad)" /><rect x="565.7" y="171.3" width="39.4" height="108.7" rx="2" fill="url(#barGrad)" /><rect x="631.4" y="169.6" width="39.4" height="110.4" rx="2" fill="url(#barGrad)" /><rect x="697.1" y="171.2" width="39.4" height="108.8" rx="2" fill="url(#barGrad)" /><rect x="762.9" y="182.6" width="39.4" height="97.4" rx="2" fill="url(#barGrad)" /><rect x="828.6" y="176.0" width="39.4" height="104.0" rx="2" fill="url(#barGrad)" /><rect x="894.3" y="162.2" width="39.4" height="117.8" rx="2" fill="url(#barGrad)" />
  <polyline fill="none" stroke="#63b3ed" stroke-width="2" points="59.7,82.1 125.4,50.2 191.1,63.7 256.9,96.9 322.6,85.6 388.3,63.0 454.0,40.0 519.7,46.4 585.4,73.6 651.1,67.4 716.9,75.5 782.6,87.6 848.3,93.3 914.0,43.8"/>
  <circle cx="59.7" cy="79.1" r="2.5" fill="#f6ad55" /><circle cx="125.4" cy="83.9" r="2.5" fill="#f6ad55" /><circle cx="191.1" cy="55.0" r="2.5" fill="#f6ad55" /><circle cx="256.9" cy="40.0" r="2.5" fill="#f6ad55" /><circle cx="322.6" cy="83.5" r="2.5" fill="#f6ad55" /><circle cx="388.3" cy="93.5" r="2.5" fill="#f6ad55" /><circle cx="454.0" cy="92.6" r="2.5" fill="#f6ad55" /><circle cx="519.7" cy="95.5" r="2.5" fill="#f6ad55" /><circle cx="585.4" cy="112.8" r="2.5" fill="#f6ad55" /><circle cx="651.1" cy="124.4" r="2.5" fill="#f6ad55" /><circle cx="716.9" cy="98.5" r="2.5" fill="#f6ad55" /><circle cx="782.6" cy="97.2" r="2.5" fill="#f6ad55" /><circle cx="848.3" cy="84.7" r="2.5" fill="#f6ad55" /><circle cx="914.0" cy="95.0" r="2.5" fill="#f6ad55" />
  <text x="40" y="30" fill="#9aa6b2" font-size="12">Hourly rate: Molts (bars), Likes (line), Views (dots scaled)</text>
  <text x="40" y="310" fill="#9aa6b2" font-size="11">max rate ~718.37 / hour</text>
</svg>