<?xml version="1.0" encoding="UTF-8"?>
<svg xmlns="http://www.w3.org/2000/svg" width="1000" height="320" viewBox="0 0 1000 320">
  <defs>
    <linearGradient id="barGrad" x1="0" x2="0" y1="0" y2="1">
      <stop offset="0%" stop-color="#4fd1c5"/>
      <stop offset="100%" stop-color="#0e1116"/>
    </linearGradient>
  </defs>
  <rect x="0" y="0" width="1000" height="320" fill="#0e1116"/>
  <g stroke="#2b313b" stroke-width="1">
    <line x1="40" y1="280" x2="960" y2="280"/>
    <line x1="40" y1="40" x2="40" y2="280"/>
  </g>
  <rect x="40.0" y="264.5" width="22.1" height="15.5" rx="2" fill="url(#barGrad)" /><rect x="76.8" y="220.7" width="22.1" height="59.3" rx="2" fill="url(#barGrad)" /><rect x="113.6" y="231.9" width="22.1" height="48.1" rx="2" fill="url(#barGrad)" /><rect x="150.4" y="233.5" width="22.1" height="46.5" rx="2" fill="url(#barGrad)" /><rect x="187.2" y="207.5" width="22.1" height="72.5" rx="2" fill="url(#barGrad)" /><rect x="224.0" y="208.8" width="22.1" height="71.2" rx="2" fill="url(#barGrad)" /><rect x="260.8" y="213.4" width="22.1" height="66.6" rx="2" fill="url(#barGrad)" /><rect x="297.6" y="174.0" width="22.1" height="106.0" rx="2" fill="url(#barGrad)" /><rect x="334.4" y="230.4" width="22.1" height="49.6" rx="2" fill="url(#barGrad)" /><rect x="371.2" y="198.0" width="22.1" height="82.0" rx="2" fill="url(#barGrad)" /><rect x="408.0" y="201.8" width="22.1" height="78.2" rx="2" fill="url(#barGrad)" /><rect x="444.8" y="216.3" width="22.1" height="63.7" rx="2" fill="url(#barGrad)" /><rect x="481.6" y="184.6" width="22.1" height="95.4" rx="2" fill="url(#barGrad)" /><rect x="518.4" y="200.4" width="22.1" height="79.6" rx="2" fill="url(#barGrad)" /><rect x="555.2" y="202.7" width="22.1" height="77.3" rx="2" fill="url(#barGrad)" /><rect x="592.0" y="204.2" width="22.1" height="75.8" rx="2" fill="url(#barGrad)" /><rect x="628.8" y="210.9" width="22.1" height="69.1" rx="2" fill="url(#barGrad)" /><rect x="665.6" y="203.7" width="22.1" height="76.3" rx="2" fill="url(#barGrad)" /><rect x="702.4" y="194.6" width="22.1" height="85.4" rx="2" fill="url(#barGrad)" /><rect x="739.2" y="206.7" width="22.1" height="73.3" rx="2" fill="url(#barGrad)" /><rect x="776.0" y="221.6" width="22.1" height="58.4" rx="2" fill="url(#barGrad)" /><rect x="812.8" y="222.0" width="22.1" height="58.0" rx="2" fill="url(#barGrad)" /><rect x="849.6" y="208.5" width="22.1" height="71.5" rx="2" fill="url(#barGrad)" /><rect x="886.4" y="220.2" width="22.1" height="59.8" rx="2" fill="url(#barGrad)" /><rect x="923.2" y="229.4" width="22.1" height="50.6" rx="2" fill="url(#barGrad)" />
  <polyline fill="none" stroke="#63b3ed" stroke-width="2" points="51.0,235.0 87.8,140.1 124.6,173.8 161.4,183.0 198.2,137.6 235.0,154.7 271.8,166.8 308.6,40.0 345.4,187.6 382.2,140.9 419.0,137.7 455.8,175.7 492.6,171.1 529.4,159.9 566.2,180.6 603.0,175.4 639.8,155.7 676.6,185.6 713.4,174.6 750.2,164.3 787.0,188.4 823.8,197.5 860.6,182.1 897.4,201.7 934.2,199.3"/>
  <circle cx="51.0" cy="40.0" r="2.5" fill="#f6ad55" /><circle cx="87.8" cy="146.0" r="2.5" fill="#f6ad55" /><circle cx="124.6" cy="152.3" r="2.5" fill="#f6ad55" /><circle cx="161.4" cy="149.4" r="2.5" fill="#f6ad55" /><circle cx="198.2" cy="145.5" r="2.5" fill="#f6ad55" /><circle cx="235.0" cy="139.4" r="2.5" fill="#f6ad55" /><circle cx="271.8" cy="142.2" r="2.5" fill="#f6ad55" /><circle cx="308.6" cy="140.4" r="2.5" fill="#f6ad55" /><circle cx="345.4" cy="139.0" r="2.5" fill="#f6ad55" /><circle cx="382.2" cy="158.4" r="2.5" fill="#f6ad55" /><circle cx="419.0" cy="153.8" r="2.5" fill="#f6ad55" /><circle cx="455.8" cy="147.6" r="2.5" fill="#f6ad55" /><circle cx="492.6" cy="164.1" r="2.5" fill="#f6ad55" /><circle cx="529.4" cy="166.0" r="2.5" fill="#f6ad55" /><circle cx="566.2" cy="144.8" r="2.5" fill="#f6ad55" /><circle cx="603.0" cy="171.0" r="2.5" fill="#f6ad55" /><circle cx="639.8" cy="170.4" r="2.5" fill="#f6ad55" /><circle cx="676.6" cy="171.2" r="2.5" fill="#f6ad55" /><circle cx="713.4" cy="181.2" r="2.5" fill="#f6ad55" /><circle cx="750.2" cy="178.6" r="2.5" fill="#f6ad55" /><circle cx="787.0" cy="176.5" r="2.5" fill="#f6ad55" /><circle cx="823.8" cy="177.3" r="2.5" fill="#f6ad55" /><circle cx="860.6" cy="178.0" r="2.5" fill="#f6ad55" /><circle cx="897.4" cy="183.7" r="2.5" fill="#f6ad55" /><circle cx="934.2" cy="183.6" r="2.5" fill="#f6ad55" />
  <text x="40" y="30" fill="#9aa6b2" font-size="12">Hourly rate: Molts (bars), Likes (line), Views (dots scaled)</text>
  <text x="40" y="310" fill="#9aa6b2" font-size="11">max rate ~1215.79 / hour</text>
</svg>