<?xml version="1.0" encoding="UTF-8"?>
<svg xmlns="http://www.w3.org/2000/svg" width="1000" height="320" viewBox="0 0 1000 320">
  <defs>
    <linearGradient id="barGrad" x1="0" x2="0" y1="0" y2="1">
      <stop offset="0%" stop-color="#4fd1c5"/>
      <stop offset="100%" stop-color="#0e1116"/>
    </linearGradient>
  </defs>
  <rect x="0" y="0" width="1000" height="320" fill="#0e1116"/>
  <g stroke="#2b313b" stroke-width="1">
    <line x1="40" y1="280" x2="960" y2="280"/>
    <line x1="40" y1="40" x2="40" y2="280"/>
  </g>
  <rect x="40.0" y="142.3" width="23.0" height="137.7" rx="2" fill="url(#barGrad)" /><rect x="78.3" y="157.3" width="23.0" height="122.7" rx="2" fill="url(#barGrad)" /><rect x="116.7" y="158.1" width="23.0" height="121.9" rx="2" fill="url(#barGrad)" /><rect x="155.0" y="188.3" width="23.0" height="91.7" rx="2" fill="url(#barGrad)" /><rect x="193.3" y="183.0" width="23.0" height="97.0" rx="2" fill="url(#barGrad)" /><rect x="231.7" y="148.2" width="23.0" height="131.8" rx="2" fill="url(#barGrad)" /><rect x="270.0" y="164.6" width="23.0" height="115.4" rx="2" fill="url(#barGrad)" /><rect x="308.3" y="156.8" width="23.0" height="123.2" rx="2" fill="url(#barGrad)" /><rect x="346.7" y="171.3" width="23.0" height="108.7" rx="2" fill="url(#barGrad)" /><rect x="385.0" y="169.6" width="23.0" height="110.4" rx="2" fill="url(#barGrad)" /><rect x="423.3" y="171.2" width="23.0" height="108.8" rx="2" fill="url(#barGrad)" /><rect x="461.7" y="182.6" width="23.0" height="97.4" rx="2" fill="url(#barGrad)" /><rect x="500.0" y="176.0" width="23.0" height="104.0" rx="2" fill="url(#barGrad)" /><rect x="538.3" y="162.2" width="23.0" height="117.8" rx="2" fill="url(#barGrad)" /><rect x="576.7" y="178.8" width="23.0" height="101.2" rx="2" fill="url(#barGrad)" /><rect x="615.0" y="195.0" width="23.0" height="85.0" rx="2" fill="url(#barGrad)" /><rect x="653.3" y="204.1" width="23.0" height="75.9" rx="2" fill="url(#barGrad)" /><rect x="691.7" y="190.0" width="23.0" height="90.0" rx="2" fill="url(#barGrad)" /><rect x="730.0" y="210.5" width="23.0" height="69.5" rx="2" fill="url(#barGrad)" /><rect x="768.3" y="189.9" width="23.0" height="90.1" rx="2" fill="url(#barGrad)" /><rect x="806.7" y="205.0" width="23.0" height="75.0" rx="2" fill="url(#barGrad)" /><rect x="845.0" y="193.5" width="23.0" height="86.5" rx="2" fill="url(#barGrad)" /><rect x="883.3" y="180.9" width="23.0" height="99.1" rx="2" fill="url(#barGrad)" /><rect x="921.7" y="177.0" width="23.0" height="103.0" rx="2" fill="url(#barGrad)" />
  <polyline fill="none" stroke="#63b3ed" stroke-width="2" points="51.5,82.1 89.8,50.2 128.2,63.7 166.5,96.9 204.8,85.6 243.2,63.0 281.5,40.0 319.8,46.4 358.2,73.6 396.5,67.4 434.8,75.5 473.2,87.6 511.5,93.3 549.8,43.8 588.2,75.0 626.5,108.4 664.8,145.3 703.2,89.6 741.5,111.1 779.8,105.3 818.2,115.1 856.5,115.2 894.8,124.5 933.2,104.2"/>
  <circle cx="51.5" cy="79.1" r="2.5" fill="#f6ad55" /><circle cx="89.8" cy="83.9" r="2.5" fill="#f6ad55" /><circle cx="128.2" cy="55.0" r="2.5" fill="#f6ad55" /><circle cx="166.5" cy="40.0" r="2.5" fill="#f6ad55" /><circle cx="204.8" cy="83.5" r="2.5" fill="#f6ad55" /><circle cx="243.2" cy="93.5" r="2.5" fill="#f6ad55" /><circle cx="281.5" cy="92.6" r="2.5" fill="#f6ad55" /><circle cx="319.8" cy="95.5" r="2.5" fill="#f6ad55" /><circle cx="358.2" cy="112.8" r="2.5" fill="#f6ad55" /><circle cx="396.5" cy="124.4" r="2.5" fill="#f6ad55" /><circle cx="434.8" cy="98.5" r="2.5" fill="#f6ad55" /><circle cx="473.2" cy="97.2" r="2.5" fill="#f6ad55" /><circle cx="511.5" cy="84.7" r="2.5" fill="#f6ad55" /><circle cx="549.8" cy="95.0" r="2.5" fill="#f6ad55" /><circle cx="588.2" cy="115.3" r="2.5" fill="#f6ad55" /><circle cx="626.5" cy="92.8" r="2.5" fill="#f6ad55" /><circle cx="664.8" cy="103.9" r="2.5" fill="#f6ad55" /><circle cx="703.2" cy="77.2" r="2.5" fill="#f6ad55" /><circle cx="741.5" cy="79.1" r="2.5" fill="#f6ad55" /><circle cx="779.8" cy="70.1" r="2.5" fill="#f6ad55" /><circle cx="818.2" cy="85.6" r="2.5" fill="#f6ad55" /><circle cx="856.5" cy="81.6" r="2.5" fill="#f6ad55" /><circle cx="894.8" cy="93.3" r="2.5" fill="#f6ad55" /><circle cx="933.2" cy="107.8" r="2.5" fill="#f6ad55" />
  <text x="40" y="30" fill="#9aa6b2" font-size="12">Hourly rate: Molts (bars), Likes (line), Views (dots scaled)</text>
  <text x="40" y="310" fill="#9aa6b2" font-size="11">max rate ~718.37 / hour</text>
</svg>