<?xml version="1.0" encoding="UTF-8"?>
<svg xmlns="http://www.w3.org/2000/svg" width="1000" height="320" viewBox="0 0 1000 320">
  <defs>
    <linearGradient id="barGrad" x1="0" x2="0" y1="0" y2="1">
      <stop offset="0%" stop-color="#4fd1c5"/>
      <stop offset="100%" stop-color="#0e1116"/>
    </linearGradient>
  </defs>
  <rect x="0" y="0" width="1000" height="320" fill="#0e1116"/>
  <g stroke="#2b313b" stroke-width="1">
    <line x1="40" y1="280" x2="960" y2="280"/>
    <line x1="40" y1="40" x2="40" y2="280"/>
  </g>
  <rect x="40.0" y="237.4" width="26.3" height="42.6" rx="2" fill="url(#barGrad)" /><rect x="83.8" y="184.5" width="26.3" height="95.5" rx="2" fill="url(#barGrad)" /><rect x="127.6" y="168.0" width="26.3" height="112.0" rx="2" fill="url(#barGrad)" /><rect x="171.4" y="152.6" width="26.3" height="127.4" rx="2" fill="url(#barGrad)" /><rect x="215.2" y="136.4" width="26.3" height="143.6" rx="2" fill="url(#barGrad)" /><rect x="259.0" y="200.6" width="26.3" height="79.4" rx="2" fill="url(#barGrad)" /><rect x="302.9" y="212.4" width="26.3" height="67.6" rx="2" fill="url(#barGrad)" /><rect x="346.7" y="202.8" width="26.3" height="77.2" rx="2" fill="url(#barGrad)" /><rect x="390.5" y="205.4" width="26.3" height="74.6" rx="2" fill="url(#barGrad)" /><rect x="434.3" y="196.2" width="26.3" height="83.8" rx="2" fill="url(#barGrad)" /><rect x="478.1" y="182.5" width="26.3" height="97.5" rx="2" fill="url(#barGrad)" /><rect x="521.9" y="209.0" width="26.3" height="71.0" rx="2" fill="url(#barGrad)" /><rect x="565.7" y="197.4" width="26.3" height="82.6" rx="2" fill="url(#barGrad)" /><rect x="609.5" y="199.0" width="26.3" height="81.0" rx="2" fill="url(#barGrad)" /><rect x="653.3" y="215.6" width="26.3" height="64.4" rx="2" fill="url(#barGrad)" /><rect x="697.1" y="217.4" width="26.3" height="62.6" rx="2" fill="url(#barGrad)" /><rect x="741.0" y="213.8" width="26.3" height="66.2" rx="2" fill="url(#barGrad)" /><rect x="784.8" y="207.0" width="26.3" height="73.0" rx="2" fill="url(#barGrad)" /><rect x="828.6" y="213.8" width="26.3" height="66.2" rx="2" fill="url(#barGrad)" /><rect x="872.4" y="196.7" width="26.3" height="83.3" rx="2" fill="url(#barGrad)" /><rect x="916.2" y="214.8" width="26.3" height="65.2" rx="2" fill="url(#barGrad)" />
  <polyline fill="none" stroke="#63b3ed" stroke-width="2" points="53.1,168.4 97.0,45.4 140.8,41.5 184.6,105.7 228.4,96.9 272.2,84.7 316.0,117.1 359.8,104.9 403.6,114.9 447.4,91.8 491.2,80.6 535.0,101.0 578.9,82.3 622.7,90.2 666.5,99.8 710.3,112.8 754.1,126.4 797.9,89.4 841.7,118.8 885.5,40.0 929.3,105.8"/>
  <circle cx="53.1" cy="74.1" r="2.5" fill="#f6ad55" /><circle cx="97.0" cy="56.1" r="2.5" fill="#f6ad55" /><circle cx="140.8" cy="59.8" r="2.5" fill="#f6ad55" /><circle cx="184.6" cy="68.5" r="2.5" fill="#f6ad55" /><circle cx="228.4" cy="72.9" r="2.5" fill="#f6ad55" /><circle cx="272.2" cy="62.1" r="2.5" fill="#f6ad55" /><circle cx="316.0" cy="76.4" r="2.5" fill="#f6ad55" /><circle cx="359.8" cy="51.8" r="2.5" fill="#f6ad55" /><circle cx="403.6" cy="40.0" r="2.5" fill="#f6ad55" /><circle cx="447.4" cy="67.3" r="2.5" fill="#f6ad55" /><circle cx="491.2" cy="46.1" r="2.5" fill="#f6ad55" /><circle cx="535.0" cy="62.6" r="2.5" fill="#f6ad55" /><circle cx="578.9" cy="56.8" r="2.5" fill="#f6ad55" /><circle cx="622.7" cy="70.1" r="2.5" fill="#f6ad55" /><circle cx="666.5" cy="78.3" r="2.5" fill="#f6ad55" /><circle cx="710.3" cy="76.6" r="2.5" fill="#f6ad55" /><circle cx="754.1" cy="84.3" r="2.5" fill="#f6ad55" /><circle cx="797.9" cy="84.2" r="2.5" fill="#f6ad55" /><circle cx="841.7" cy="72.5" r="2.5" fill="#f6ad55" /><circle cx="885.5" cy="69.4" r="2.5" fill="#f6ad55" /><circle cx="929.3" cy="77.8" r="2.5" fill="#f6ad55" />
  <text x="40" y="30" fill="#9aa6b2" font-size="12">Hourly rate: Molts (bars), Likes (line), Views (dots scaled)</text>
  <text x="40" y="310" fill="#9aa6b2" font-size="11">max rate ~766.07 / hour</text>
</svg>