<?xml version="1.0" encoding="UTF-8"?>
<svg xmlns="http://www.w3.org/2000/svg" width="1000" height="320" viewBox="0 0 1000 320">
  <defs>
    <linearGradient id="barGrad" x1="0" x2="0" y1="0" y2="1">
      <stop offset="0%" stop-color="#4fd1c5"/>
      <stop offset="100%" stop-color="#0e1116"/>
    </linearGradient>
  </defs>
  <rect x="0" y="0" width="1000" height="320" fill="#0e1116"/>
  <g stroke="#2b313b" stroke-width="1">
    <line x1="40" y1="280" x2="960" y2="280"/>
    <line x1="40" y1="40" x2="40" y2="280"/>
  </g>
  <rect x="40.0" y="161.1" width="23.0" height="118.9" rx="2" fill="url(#barGrad)" /><rect x="78.3" y="120.0" width="23.0" height="160.0" rx="2" fill="url(#barGrad)" /><rect x="116.7" y="112.9" width="23.0" height="167.1" rx="2" fill="url(#barGrad)" /><rect x="155.0" y="125.3" width="23.0" height="154.7" rx="2" fill="url(#barGrad)" /><rect x="193.3" y="113.9" width="23.0" height="166.1" rx="2" fill="url(#barGrad)" /><rect x="231.7" y="122.8" width="23.0" height="157.2" rx="2" fill="url(#barGrad)" /><rect x="270.0" y="117.5" width="23.0" height="162.5" rx="2" fill="url(#barGrad)" /><rect x="308.3" y="97.9" width="23.0" height="182.1" rx="2" fill="url(#barGrad)" /><rect x="346.7" y="140.7" width="23.0" height="139.3" rx="2" fill="url(#barGrad)" /><rect x="385.0" y="113.1" width="23.0" height="166.9" rx="2" fill="url(#barGrad)" /><rect x="423.3" y="92.3" width="23.0" height="187.7" rx="2" fill="url(#barGrad)" /><rect x="461.7" y="107.6" width="23.0" height="172.4" rx="2" fill="url(#barGrad)" /><rect x="500.0" y="120.5" width="23.0" height="159.5" rx="2" fill="url(#barGrad)" /><rect x="538.3" y="114.3" width="23.0" height="165.7" rx="2" fill="url(#barGrad)" /><rect x="576.7" y="159.1" width="23.0" height="120.9" rx="2" fill="url(#barGrad)" /><rect x="615.0" y="162.7" width="23.0" height="117.3" rx="2" fill="url(#barGrad)" /><rect x="653.3" y="138.1" width="23.0" height="141.9" rx="2" fill="url(#barGrad)" /><rect x="691.7" y="154.2" width="23.0" height="125.8" rx="2" fill="url(#barGrad)" /><rect x="730.0" y="149.4" width="23.0" height="130.6" rx="2" fill="url(#barGrad)" /><rect x="768.3" y="134.8" width="23.0" height="145.2" rx="2" fill="url(#barGrad)" /><rect x="806.7" y="155.1" width="23.0" height="124.9" rx="2" fill="url(#barGrad)" /><rect x="845.0" y="167.3" width="23.0" height="112.7" rx="2" fill="url(#barGrad)" /><rect x="883.3" y="166.5" width="23.0" height="113.5" rx="2" fill="url(#barGrad)" /><rect x="921.7" y="188.5" width="23.0" height="91.5" rx="2" fill="url(#barGrad)" />
  <polyline fill="none" stroke="#63b3ed" stroke-width="2" points="51.5,127.6 89.8,80.7 128.2,85.0 166.5,98.2 204.8,88.1 243.2,81.9 281.5,40.0 319.8,55.8 358.2,112.1 396.5,93.5 434.8,91.0 473.2,49.9 511.5,48.8 549.8,56.0 588.2,109.7 626.5,104.0 664.8,67.8 703.2,77.9 741.5,113.2 779.8,58.1 818.2,96.3 856.5,90.5 894.8,87.1 933.2,101.9"/>
  <circle cx="51.5" cy="100.8" r="2.5" fill="#f6ad55" /><circle cx="89.8" cy="64.8" r="2.5" fill="#f6ad55" /><circle cx="128.2" cy="52.4" r="2.5" fill="#f6ad55" /><circle cx="166.5" cy="40.0" r="2.5" fill="#f6ad55" /><circle cx="204.8" cy="45.2" r="2.5" fill="#f6ad55" /><circle cx="243.2" cy="83.8" r="2.5" fill="#f6ad55" /><circle cx="281.5" cy="57.7" r="2.5" fill="#f6ad55" /><circle cx="319.8" cy="87.9" r="2.5" fill="#f6ad55" /><circle cx="358.2" cy="83.5" r="2.5" fill="#f6ad55" /><circle cx="396.5" cy="90.8" r="2.5" fill="#f6ad55" /><circle cx="434.8" cy="91.1" r="2.5" fill="#f6ad55" /><circle cx="473.2" cy="90.8" r="2.5" fill="#f6ad55" /><circle cx="511.5" cy="44.6" r="2.5" fill="#f6ad55" /><circle cx="549.8" cy="88.7" r="2.5" fill="#f6ad55" /><circle cx="588.2" cy="87.9" r="2.5" fill="#f6ad55" /><circle cx="626.5" cy="89.1" r="2.5" fill="#f6ad55" /><circle cx="664.8" cy="86.9" r="2.5" fill="#f6ad55" /><circle cx="703.2" cy="82.4" r="2.5" fill="#f6ad55" /><circle cx="741.5" cy="76.0" r="2.5" fill="#f6ad55" /><circle cx="779.8" cy="82.8" r="2.5" fill="#f6ad55" /><circle cx="818.2" cy="88.9" r="2.5" fill="#f6ad55" /><circle cx="856.5" cy="100.0" r="2.5" fill="#f6ad55" /><circle cx="894.8" cy="78.7" r="2.5" fill="#f6ad55" /><circle cx="933.2" cy="82.5" r="2.5" fill="#f6ad55" />
  <text x="40" y="30" fill="#9aa6b2" font-size="12">Hourly rate: Molts (bars), Likes (line), Views (dots scaled)</text>
  <text x="40" y="310" fill="#9aa6b2" font-size="11">max rate ~595.01 / hour</text>
</svg>