<?xml version="1.0" encoding="UTF-8"?>
<svg xmlns="http://www.w3.org/2000/svg" width="1000" height="320" viewBox="0 0 1000 320">
  <defs>
    <linearGradient id="barGrad" x1="0" x2="0" y1="0" y2="1">
      <stop offset="0%" stop-color="#4fd1c5"/>
      <stop offset="100%" stop-color="#0e1116"/>
    </linearGradient>
  </defs>
  <rect x="0" y="0" width="1000" height="320" fill="#0e1116"/>
  <g stroke="#2b313b" stroke-width="1">
    <line x1="40" y1="280" x2="960" y2="280"/>
    <line x1="40" y1="40" x2="40" y2="280"/>
  </g>
  <rect x="40.0" y="161.1" width="29.1" height="118.9" rx="2" fill="url(#barGrad)" /><rect x="88.4" y="120.0" width="29.1" height="160.0" rx="2" fill="url(#barGrad)" /><rect x="136.8" y="112.9" width="29.1" height="167.1" rx="2" fill="url(#barGrad)" /><rect x="185.3" y="125.3" width="29.1" height="154.7" rx="2" fill="url(#barGrad)" /><rect x="233.7" y="113.9" width="29.1" height="166.1" rx="2" fill="url(#barGrad)" /><rect x="282.1" y="122.8" width="29.1" height="157.2" rx="2" fill="url(#barGrad)" /><rect x="330.5" y="117.5" width="29.1" height="162.5" rx="2" fill="url(#barGrad)" /><rect x="378.9" y="97.9" width="29.1" height="182.1" rx="2" fill="url(#barGrad)" /><rect x="427.4" y="140.7" width="29.1" height="139.3" rx="2" fill="url(#barGrad)" /><rect x="475.8" y="113.1" width="29.1" height="166.9" rx="2" fill="url(#barGrad)" /><rect x="524.2" y="92.3" width="29.1" height="187.7" rx="2" fill="url(#barGrad)" /><rect x="572.6" y="107.6" width="29.1" height="172.4" rx="2" fill="url(#barGrad)" /><rect x="621.1" y="120.5" width="29.1" height="159.5" rx="2" fill="url(#barGrad)" /><rect x="669.5" y="114.3" width="29.1" height="165.7" rx="2" fill="url(#barGrad)" /><rect x="717.9" y="159.1" width="29.1" height="120.9" rx="2" fill="url(#barGrad)" /><rect x="766.3" y="162.7" width="29.1" height="117.3" rx="2" fill="url(#barGrad)" /><rect x="814.7" y="138.1" width="29.1" height="141.9" rx="2" fill="url(#barGrad)" /><rect x="863.2" y="154.2" width="29.1" height="125.8" rx="2" fill="url(#barGrad)" /><rect x="911.6" y="179.3" width="29.1" height="100.7" rx="2" fill="url(#barGrad)" />
  <polyline fill="none" stroke="#63b3ed" stroke-width="2" points="54.5,127.6 102.9,80.7 151.4,85.0 199.8,98.2 248.2,88.1 296.6,81.9 345.1,40.0 393.5,55.8 441.9,112.1 490.3,93.5 538.7,91.0 587.2,49.9 635.6,48.8 684.0,56.0 732.4,109.7 780.8,104.0 829.3,67.8 877.7,77.9 926.1,120.8"/>
  <circle cx="54.5" cy="100.8" r="2.5" fill="#f6ad55" /><circle cx="102.9" cy="64.8" r="2.5" fill="#f6ad55" /><circle cx="151.4" cy="52.4" r="2.5" fill="#f6ad55" /><circle cx="199.8" cy="40.0" r="2.5" fill="#f6ad55" /><circle cx="248.2" cy="45.2" r="2.5" fill="#f6ad55" /><circle cx="296.6" cy="83.8" r="2.5" fill="#f6ad55" /><circle cx="345.1" cy="57.7" r="2.5" fill="#f6ad55" /><circle cx="393.5" cy="87.9" r="2.5" fill="#f6ad55" /><circle cx="441.9" cy="83.5" r="2.5" fill="#f6ad55" /><circle cx="490.3" cy="90.8" r="2.5" fill="#f6ad55" /><circle cx="538.7" cy="91.1" r="2.5" fill="#f6ad55" /><circle cx="587.2" cy="90.8" r="2.5" fill="#f6ad55" /><circle cx="635.6" cy="44.6" r="2.5" fill="#f6ad55" /><circle cx="684.0" cy="88.7" r="2.5" fill="#f6ad55" /><circle cx="732.4" cy="87.9" r="2.5" fill="#f6ad55" /><circle cx="780.8" cy="89.1" r="2.5" fill="#f6ad55" /><circle cx="829.3" cy="86.9" r="2.5" fill="#f6ad55" /><circle cx="877.7" cy="82.4" r="2.5" fill="#f6ad55" /><circle cx="926.1" cy="97.2" r="2.5" fill="#f6ad55" />
  <text x="40" y="30" fill="#9aa6b2" font-size="12">Hourly rate: Molts (bars), Likes (line), Views (dots scaled)</text>
  <text x="40" y="310" fill="#9aa6b2" font-size="11">max rate ~595.01 / hour</text>
</svg>