<?xml version="1.0" encoding="UTF-8"?>
<svg xmlns="http://www.w3.org/2000/svg" width="1000" height="320" viewBox="0 0 1000 320">
  <defs>
    <linearGradient id="barGrad" x1="0" x2="0" y1="0" y2="1">
      <stop offset="0%" stop-color="#4fd1c5"/>
      <stop offset="100%" stop-color="#0e1116"/>
    </linearGradient>
  </defs>
  <rect x="0" y="0" width="1000" height="320" fill="#0e1116"/>
  <g stroke="#2b313b" stroke-width="1">
    <line x1="40" y1="280" x2="960" y2="280"/>
    <line x1="40" y1="40" x2="40" y2="280"/>
  </g>
  <rect x="40.0" y="224.9" width="23.0" height="55.1" rx="2" fill="url(#barGrad)" /><rect x="78.3" y="164.7" width="23.0" height="115.3" rx="2" fill="url(#barGrad)" /><rect x="116.7" y="174.8" width="23.0" height="105.2" rx="2" fill="url(#barGrad)" /><rect x="155.0" y="146.2" width="23.0" height="133.8" rx="2" fill="url(#barGrad)" /><rect x="193.3" y="166.8" width="23.0" height="113.2" rx="2" fill="url(#barGrad)" /><rect x="231.7" y="184.9" width="23.0" height="95.1" rx="2" fill="url(#barGrad)" /><rect x="270.0" y="170.5" width="23.0" height="109.5" rx="2" fill="url(#barGrad)" /><rect x="308.3" y="172.6" width="23.0" height="107.4" rx="2" fill="url(#barGrad)" /><rect x="346.7" y="150.6" width="23.0" height="129.4" rx="2" fill="url(#barGrad)" /><rect x="385.0" y="136.2" width="23.0" height="143.8" rx="2" fill="url(#barGrad)" /><rect x="423.3" y="105.7" width="23.0" height="174.3" rx="2" fill="url(#barGrad)" /><rect x="461.7" y="91.4" width="23.0" height="188.6" rx="2" fill="url(#barGrad)" /><rect x="500.0" y="145.1" width="23.0" height="134.9" rx="2" fill="url(#barGrad)" /><rect x="538.3" y="164.7" width="23.0" height="115.3" rx="2" fill="url(#barGrad)" /><rect x="576.7" y="158.4" width="23.0" height="121.6" rx="2" fill="url(#barGrad)" /><rect x="615.0" y="168.9" width="23.0" height="111.1" rx="2" fill="url(#barGrad)" /><rect x="653.3" y="180.2" width="23.0" height="99.8" rx="2" fill="url(#barGrad)" /><rect x="691.7" y="201.0" width="23.0" height="79.0" rx="2" fill="url(#barGrad)" /><rect x="730.0" y="199.2" width="23.0" height="80.8" rx="2" fill="url(#barGrad)" /><rect x="768.3" y="195.0" width="23.0" height="85.0" rx="2" fill="url(#barGrad)" /><rect x="806.7" y="207.5" width="23.0" height="72.5" rx="2" fill="url(#barGrad)" /><rect x="845.0" y="212.8" width="23.0" height="67.2" rx="2" fill="url(#barGrad)" /><rect x="883.3" y="207.7" width="23.0" height="72.3" rx="2" fill="url(#barGrad)" /><rect x="921.7" y="198.7" width="23.0" height="81.3" rx="2" fill="url(#barGrad)" />
  <polyline fill="none" stroke="#63b3ed" stroke-width="2" points="51.5,152.8 89.8,81.6 128.2,83.0 166.5,47.2 204.8,88.0 243.2,94.2 281.5,67.4 319.8,108.8 358.2,68.3 396.5,62.4 434.8,78.0 473.2,72.0 511.5,40.0 549.8,98.0 588.2,60.5 626.5,44.5 664.8,95.3 703.2,93.1 741.5,52.5 779.8,67.2 818.2,77.1 856.5,87.0 894.8,74.9 933.2,57.0"/>
  <circle cx="51.5" cy="40.0" r="2.5" fill="#f6ad55" /><circle cx="89.8" cy="161.6" r="2.5" fill="#f6ad55" /><circle cx="128.2" cy="145.5" r="2.5" fill="#f6ad55" /><circle cx="166.5" cy="146.2" r="2.5" fill="#f6ad55" /><circle cx="204.8" cy="141.6" r="2.5" fill="#f6ad55" /><circle cx="243.2" cy="148.6" r="2.5" fill="#f6ad55" /><circle cx="281.5" cy="160.2" r="2.5" fill="#f6ad55" /><circle cx="319.8" cy="157.9" r="2.5" fill="#f6ad55" /><circle cx="358.2" cy="155.3" r="2.5" fill="#f6ad55" /><circle cx="396.5" cy="129.4" r="2.5" fill="#f6ad55" /><circle cx="434.8" cy="126.4" r="2.5" fill="#f6ad55" /><circle cx="473.2" cy="117.0" r="2.5" fill="#f6ad55" /><circle cx="511.5" cy="130.2" r="2.5" fill="#f6ad55" /><circle cx="549.8" cy="156.1" r="2.5" fill="#f6ad55" /><circle cx="588.2" cy="160.1" r="2.5" fill="#f6ad55" /><circle cx="626.5" cy="151.8" r="2.5" fill="#f6ad55" /><circle cx="664.8" cy="169.2" r="2.5" fill="#f6ad55" /><circle cx="703.2" cy="162.8" r="2.5" fill="#f6ad55" /><circle cx="741.5" cy="155.5" r="2.5" fill="#f6ad55" /><circle cx="779.8" cy="141.7" r="2.5" fill="#f6ad55" /><circle cx="818.2" cy="142.5" r="2.5" fill="#f6ad55" /><circle cx="856.5" cy="145.7" r="2.5" fill="#f6ad55" /><circle cx="894.8" cy="158.8" r="2.5" fill="#f6ad55" /><circle cx="933.2" cy="144.4" r="2.5" fill="#f6ad55" />
  <text x="40" y="30" fill="#9aa6b2" font-size="12">Hourly rate: Molts (bars), Likes (line), Views (dots scaled)</text>
  <text x="40" y="310" fill="#9aa6b2" font-size="11">max rate ~729.33 / hour</text>
</svg>