<?xml version="1.0" encoding="UTF-8"?>
<svg xmlns="http://www.w3.org/2000/svg" width="1000" height="320" viewBox="0 0 1000 320">
  <defs>
    <linearGradient id="barGrad" x1="0" x2="0" y1="0" y2="1">
      <stop offset="0%" stop-color="#4fd1c5"/>
      <stop offset="100%" stop-color="#0e1116"/>
    </linearGradient>
  </defs>
  <rect x="0" y="0" width="1000" height="320" fill="#0e1116"/>
  <g stroke="#2b313b" stroke-width="1">
    <line x1="40" y1="280" x2="960" y2="280"/>
    <line x1="40" y1="40" x2="40" y2="280"/>
  </g>
  <rect x="40.0" y="256.2" width="27.6" height="23.8" rx="2" fill="url(#barGrad)" /><rect x="86.0" y="194.2" width="27.6" height="85.8" rx="2" fill="url(#barGrad)" /><rect x="132.0" y="213.1" width="27.6" height="66.9" rx="2" fill="url(#barGrad)" /><rect x="178.0" y="200.2" width="27.6" height="79.8" rx="2" fill="url(#barGrad)" /><rect x="224.0" y="194.9" width="27.6" height="85.1" rx="2" fill="url(#barGrad)" /><rect x="270.0" y="185.8" width="27.6" height="94.2" rx="2" fill="url(#barGrad)" /><rect x="316.0" y="175.2" width="27.6" height="104.8" rx="2" fill="url(#barGrad)" /><rect x="362.0" y="174.7" width="27.6" height="105.3" rx="2" fill="url(#barGrad)" /><rect x="408.0" y="209.3" width="27.6" height="70.7" rx="2" fill="url(#barGrad)" /><rect x="454.0" y="201.5" width="27.6" height="78.5" rx="2" fill="url(#barGrad)" /><rect x="500.0" y="193.6" width="27.6" height="86.4" rx="2" fill="url(#barGrad)" /><rect x="546.0" y="197.3" width="27.6" height="82.7" rx="2" fill="url(#barGrad)" /><rect x="592.0" y="186.9" width="27.6" height="93.1" rx="2" fill="url(#barGrad)" /><rect x="638.0" y="177.3" width="27.6" height="102.7" rx="2" fill="url(#barGrad)" /><rect x="684.0" y="158.1" width="27.6" height="121.9" rx="2" fill="url(#barGrad)" /><rect x="730.0" y="136.7" width="27.6" height="143.3" rx="2" fill="url(#barGrad)" /><rect x="776.0" y="178.0" width="27.6" height="102.0" rx="2" fill="url(#barGrad)" /><rect x="822.0" y="196.7" width="27.6" height="83.3" rx="2" fill="url(#barGrad)" /><rect x="868.0" y="210.6" width="27.6" height="69.4" rx="2" fill="url(#barGrad)" /><rect x="914.0" y="159.4" width="27.6" height="120.6" rx="2" fill="url(#barGrad)" />
  <polyline fill="none" stroke="#63b3ed" stroke-width="2" points="53.8,200.6 99.8,68.5 145.8,98.6 191.8,74.8 237.8,79.4 283.8,67.2 329.8,50.0 375.8,60.8 421.8,139.6 467.8,118.0 513.8,119.8 559.8,95.0 605.8,71.3 651.8,72.4 697.8,68.2 743.8,56.9 789.8,93.3 835.8,93.3 881.8,123.9 927.8,40.0"/>
  <circle cx="53.8" cy="106.2" r="2.5" fill="#f6ad55" /><circle cx="99.8" cy="101.0" r="2.5" fill="#f6ad55" /><circle cx="145.8" cy="84.0" r="2.5" fill="#f6ad55" /><circle cx="191.8" cy="58.5" r="2.5" fill="#f6ad55" /><circle cx="237.8" cy="62.7" r="2.5" fill="#f6ad55" /><circle cx="283.8" cy="40.0" r="2.5" fill="#f6ad55" /><circle cx="329.8" cy="50.2" r="2.5" fill="#f6ad55" /><circle cx="375.8" cy="50.7" r="2.5" fill="#f6ad55" /><circle cx="421.8" cy="70.0" r="2.5" fill="#f6ad55" /><circle cx="467.8" cy="78.6" r="2.5" fill="#f6ad55" /><circle cx="513.8" cy="90.7" r="2.5" fill="#f6ad55" /><circle cx="559.8" cy="90.6" r="2.5" fill="#f6ad55" /><circle cx="605.8" cy="94.7" r="2.5" fill="#f6ad55" /><circle cx="651.8" cy="103.9" r="2.5" fill="#f6ad55" /><circle cx="697.8" cy="112.5" r="2.5" fill="#f6ad55" /><circle cx="743.8" cy="86.3" r="2.5" fill="#f6ad55" /><circle cx="789.8" cy="93.6" r="2.5" fill="#f6ad55" /><circle cx="835.8" cy="78.3" r="2.5" fill="#f6ad55" /><circle cx="881.8" cy="54.1" r="2.5" fill="#f6ad55" /><circle cx="927.8" cy="63.2" r="2.5" fill="#f6ad55" />
  <text x="40" y="30" fill="#9aa6b2" font-size="12">Hourly rate: Molts (bars), Likes (line), Views (dots scaled)</text>
  <text x="40" y="310" fill="#9aa6b2" font-size="11">max rate ~775.88 / hour</text>
</svg>