<?xml version="1.0" encoding="UTF-8"?>
<svg xmlns="http://www.w3.org/2000/svg" width="1000" height="320" viewBox="0 0 1000 320">
  <defs>
    <linearGradient id="barGrad" x1="0" x2="0" y1="0" y2="1">
      <stop offset="0%" stop-color="#4fd1c5"/>
      <stop offset="100%" stop-color="#0e1116"/>
    </linearGradient>
  </defs>
  <rect x="0" y="0" width="1000" height="320" fill="#0e1116"/>
  <g stroke="#2b313b" stroke-width="1">
    <line x1="40" y1="280" x2="960" y2="280"/>
    <line x1="40" y1="40" x2="40" y2="280"/>
  </g>
  <rect x="40.0" y="224.9" width="24.0" height="55.1" rx="2" fill="url(#barGrad)" /><rect x="80.0" y="164.7" width="24.0" height="115.3" rx="2" fill="url(#barGrad)" /><rect x="120.0" y="174.8" width="24.0" height="105.2" rx="2" fill="url(#barGrad)" /><rect x="160.0" y="146.2" width="24.0" height="133.8" rx="2" fill="url(#barGrad)" /><rect x="200.0" y="166.8" width="24.0" height="113.2" rx="2" fill="url(#barGrad)" /><rect x="240.0" y="184.9" width="24.0" height="95.1" rx="2" fill="url(#barGrad)" /><rect x="280.0" y="170.5" width="24.0" height="109.5" rx="2" fill="url(#barGrad)" /><rect x="320.0" y="172.6" width="24.0" height="107.4" rx="2" fill="url(#barGrad)" /><rect x="360.0" y="150.6" width="24.0" height="129.4" rx="2" fill="url(#barGrad)" /><rect x="400.0" y="136.2" width="24.0" height="143.8" rx="2" fill="url(#barGrad)" /><rect x="440.0" y="105.7" width="24.0" height="174.3" rx="2" fill="url(#barGrad)" /><rect x="480.0" y="91.4" width="24.0" height="188.6" rx="2" fill="url(#barGrad)" /><rect x="520.0" y="145.1" width="24.0" height="134.9" rx="2" fill="url(#barGrad)" /><rect x="560.0" y="164.7" width="24.0" height="115.3" rx="2" fill="url(#barGrad)" /><rect x="600.0" y="158.4" width="24.0" height="121.6" rx="2" fill="url(#barGrad)" /><rect x="640.0" y="168.9" width="24.0" height="111.1" rx="2" fill="url(#barGrad)" /><rect x="680.0" y="180.2" width="24.0" height="99.8" rx="2" fill="url(#barGrad)" /><rect x="720.0" y="201.0" width="24.0" height="79.0" rx="2" fill="url(#barGrad)" /><rect x="760.0" y="199.2" width="24.0" height="80.8" rx="2" fill="url(#barGrad)" /><rect x="800.0" y="195.0" width="24.0" height="85.0" rx="2" fill="url(#barGrad)" /><rect x="840.0" y="207.5" width="24.0" height="72.5" rx="2" fill="url(#barGrad)" /><rect x="880.0" y="212.8" width="24.0" height="67.2" rx="2" fill="url(#barGrad)" /><rect x="920.0" y="207.7" width="24.0" height="72.3" rx="2" fill="url(#barGrad)" />
  <polyline fill="none" stroke="#63b3ed" stroke-width="2" points="52.0,152.8 92.0,81.6 132.0,83.0 172.0,47.2 212.0,88.0 252.0,94.2 292.0,67.4 332.0,108.8 372.0,68.3 412.0,62.4 452.0,78.0 492.0,72.0 532.0,40.0 572.0,98.0 612.0,60.5 652.0,44.5 692.0,95.3 732.0,93.1 772.0,52.5 812.0,67.2 852.0,77.1 892.0,87.0 932.0,74.9"/>
  <circle cx="52.0" cy="40.0" r="2.5" fill="#f6ad55" /><circle cx="92.0" cy="161.6" r="2.5" fill="#f6ad55" /><circle cx="132.0" cy="145.5" r="2.5" fill="#f6ad55" /><circle cx="172.0" cy="146.2" r="2.5" fill="#f6ad55" /><circle cx="212.0" cy="141.6" r="2.5" fill="#f6ad55" /><circle cx="252.0" cy="148.6" r="2.5" fill="#f6ad55" /><circle cx="292.0" cy="160.2" r="2.5" fill="#f6ad55" /><circle cx="332.0" cy="157.9" r="2.5" fill="#f6ad55" /><circle cx="372.0" cy="155.3" r="2.5" fill="#f6ad55" /><circle cx="412.0" cy="129.4" r="2.5" fill="#f6ad55" /><circle cx="452.0" cy="126.4" r="2.5" fill="#f6ad55" /><circle cx="492.0" cy="117.0" r="2.5" fill="#f6ad55" /><circle cx="532.0" cy="130.2" r="2.5" fill="#f6ad55" /><circle cx="572.0" cy="156.1" r="2.5" fill="#f6ad55" /><circle cx="612.0" cy="160.1" r="2.5" fill="#f6ad55" /><circle cx="652.0" cy="151.8" r="2.5" fill="#f6ad55" /><circle cx="692.0" cy="169.2" r="2.5" fill="#f6ad55" /><circle cx="732.0" cy="162.8" r="2.5" fill="#f6ad55" /><circle cx="772.0" cy="155.5" r="2.5" fill="#f6ad55" /><circle cx="812.0" cy="141.7" r="2.5" fill="#f6ad55" /><circle cx="852.0" cy="142.5" r="2.5" fill="#f6ad55" /><circle cx="892.0" cy="145.7" r="2.5" fill="#f6ad55" /><circle cx="932.0" cy="158.8" r="2.5" fill="#f6ad55" />
  <text x="40" y="30" fill="#9aa6b2" font-size="12">Hourly rate: Molts (bars), Likes (line), Views (dots scaled)</text>
  <text x="40" y="310" fill="#9aa6b2" font-size="11">max rate ~729.33 / hour</text>
</svg>