<?xml version="1.0" encoding="UTF-8"?>
<svg xmlns="http://www.w3.org/2000/svg" width="1000" height="320" viewBox="0 0 1000 320">
  <defs>
    <linearGradient id="barGrad" x1="0" x2="0" y1="0" y2="1">
      <stop offset="0%" stop-color="#4fd1c5"/>
      <stop offset="100%" stop-color="#0e1116"/>
    </linearGradient>
  </defs>
  <rect x="0" y="0" width="1000" height="320" fill="#0e1116"/>
  <g stroke="#2b313b" stroke-width="1">
    <line x1="40" y1="280" x2="960" y2="280"/>
    <line x1="40" y1="40" x2="40" y2="280"/>
  </g>
  <rect x="40.0" y="230.6" width="69.0" height="49.4" rx="2" fill="url(#barGrad)" /><rect x="155.0" y="154.1" width="69.0" height="125.9" rx="2" fill="url(#barGrad)" /><rect x="270.0" y="120.1" width="69.0" height="159.9" rx="2" fill="url(#barGrad)" /><rect x="385.0" y="169.1" width="69.0" height="110.9" rx="2" fill="url(#barGrad)" /><rect x="500.0" y="187.4" width="69.0" height="92.6" rx="2" fill="url(#barGrad)" /><rect x="615.0" y="40.0" width="69.0" height="240.0" rx="2" fill="url(#barGrad)" /><rect x="730.0" y="155.1" width="69.0" height="124.9" rx="2" fill="url(#barGrad)" /><rect x="845.0" y="140.6" width="69.0" height="139.4" rx="2" fill="url(#barGrad)" />
  <polyline fill="none" stroke="#63b3ed" stroke-width="2" points="74.5,157.9 189.5,110.5 304.5,109.1 419.5,60.8 534.5,118.3 649.5,101.5 764.5,122.1 879.5,81.7"/>
  <circle cx="74.5" cy="94.0" r="2.5" fill="#f6ad55" /><circle cx="189.5" cy="109.8" r="2.5" fill="#f6ad55" /><circle cx="304.5" cy="69.0" r="2.5" fill="#f6ad55" /><circle cx="419.5" cy="44.9" r="2.5" fill="#f6ad55" /><circle cx="534.5" cy="40.0" r="2.5" fill="#f6ad55" /><circle cx="649.5" cy="48.2" r="2.5" fill="#f6ad55" /><circle cx="764.5" cy="46.9" r="2.5" fill="#f6ad55" /><circle cx="879.5" cy="40.4" r="2.5" fill="#f6ad55" />
  <text x="40" y="30" fill="#9aa6b2" font-size="12">Hourly rate: Molts (bars), Likes (line), Views (dots scaled)</text>
  <text x="40" y="310" fill="#9aa6b2" font-size="11">max rate ~659.76 / hour</text>
</svg>