<?xml version="1.0" encoding="UTF-8"?>
<svg xmlns="http://www.w3.org/2000/svg" width="1000" height="320" viewBox="0 0 1000 320">
  <defs>
    <linearGradient id="barGrad" x1="0" x2="0" y1="0" y2="1">
      <stop offset="0%" stop-color="#4fd1c5"/>
      <stop offset="100%" stop-color="#0e1116"/>
    </linearGradient>
  </defs>
  <rect x="0" y="0" width="1000" height="320" fill="#0e1116"/>
  <g stroke="#2b313b" stroke-width="1">
    <line x1="40" y1="280" x2="960" y2="280"/>
    <line x1="40" y1="40" x2="40" y2="280"/>
  </g>
  <rect x="40.0" y="161.1" width="34.5" height="118.9" rx="2" fill="url(#barGrad)" /><rect x="97.5" y="120.0" width="34.5" height="160.0" rx="2" fill="url(#barGrad)" /><rect x="155.0" y="112.9" width="34.5" height="167.1" rx="2" fill="url(#barGrad)" /><rect x="212.5" y="125.3" width="34.5" height="154.7" rx="2" fill="url(#barGrad)" /><rect x="270.0" y="113.9" width="34.5" height="166.1" rx="2" fill="url(#barGrad)" /><rect x="327.5" y="122.8" width="34.5" height="157.2" rx="2" fill="url(#barGrad)" /><rect x="385.0" y="117.5" width="34.5" height="162.5" rx="2" fill="url(#barGrad)" /><rect x="442.5" y="97.9" width="34.5" height="182.1" rx="2" fill="url(#barGrad)" /><rect x="500.0" y="140.7" width="34.5" height="139.3" rx="2" fill="url(#barGrad)" /><rect x="557.5" y="113.1" width="34.5" height="166.9" rx="2" fill="url(#barGrad)" /><rect x="615.0" y="92.3" width="34.5" height="187.7" rx="2" fill="url(#barGrad)" /><rect x="672.5" y="107.6" width="34.5" height="172.4" rx="2" fill="url(#barGrad)" /><rect x="730.0" y="120.5" width="34.5" height="159.5" rx="2" fill="url(#barGrad)" /><rect x="787.5" y="114.3" width="34.5" height="165.7" rx="2" fill="url(#barGrad)" /><rect x="845.0" y="159.1" width="34.5" height="120.9" rx="2" fill="url(#barGrad)" /><rect x="902.5" y="162.7" width="34.5" height="117.3" rx="2" fill="url(#barGrad)" />
  <polyline fill="none" stroke="#63b3ed" stroke-width="2" points="57.3,127.6 114.8,80.7 172.3,85.0 229.8,98.2 287.3,88.1 344.8,81.9 402.3,40.0 459.8,55.8 517.3,112.1 574.8,93.5 632.3,91.0 689.8,49.9 747.3,48.8 804.8,56.0 862.3,109.7 919.8,104.0"/>
  <circle cx="57.3" cy="100.8" r="2.5" fill="#f6ad55" /><circle cx="114.8" cy="64.8" r="2.5" fill="#f6ad55" /><circle cx="172.3" cy="52.4" r="2.5" fill="#f6ad55" /><circle cx="229.8" cy="40.0" r="2.5" fill="#f6ad55" /><circle cx="287.3" cy="45.2" r="2.5" fill="#f6ad55" /><circle cx="344.8" cy="83.8" r="2.5" fill="#f6ad55" /><circle cx="402.3" cy="57.7" r="2.5" fill="#f6ad55" /><circle cx="459.8" cy="87.9" r="2.5" fill="#f6ad55" /><circle cx="517.3" cy="83.5" r="2.5" fill="#f6ad55" /><circle cx="574.8" cy="90.8" r="2.5" fill="#f6ad55" /><circle cx="632.3" cy="91.1" r="2.5" fill="#f6ad55" /><circle cx="689.8" cy="90.8" r="2.5" fill="#f6ad55" /><circle cx="747.3" cy="44.6" r="2.5" fill="#f6ad55" /><circle cx="804.8" cy="88.7" r="2.5" fill="#f6ad55" /><circle cx="862.3" cy="87.9" r="2.5" fill="#f6ad55" /><circle cx="919.8" cy="89.1" r="2.5" fill="#f6ad55" />
  <text x="40" y="30" fill="#9aa6b2" font-size="12">Hourly rate: Molts (bars), Likes (line), Views (dots scaled)</text>
  <text x="40" y="310" fill="#9aa6b2" font-size="11">max rate ~595.01 / hour</text>
</svg>