<?xml version="1.0" encoding="UTF-8"?>
<svg xmlns="http://www.w3.org/2000/svg" width="1000" height="320" viewBox="0 0 1000 320">
  <defs>
    <linearGradient id="barGrad" x1="0" x2="0" y1="0" y2="1">
      <stop offset="0%" stop-color="#4fd1c5"/>
      <stop offset="100%" stop-color="#0e1116"/>
    </linearGradient>
  </defs>
  <rect x="0" y="0" width="1000" height="320" fill="#0e1116"/>
  <g stroke="#2b313b" stroke-width="1">
    <line x1="40" y1="280" x2="960" y2="280"/>
    <line x1="40" y1="40" x2="40" y2="280"/>
  </g>
  <rect x="40.0" y="142.3" width="25.1" height="137.7" rx="2" fill="url(#barGrad)" /><rect x="81.8" y="157.3" width="25.1" height="122.7" rx="2" fill="url(#barGrad)" /><rect x="123.6" y="158.1" width="25.1" height="121.9" rx="2" fill="url(#barGrad)" /><rect x="165.5" y="188.3" width="25.1" height="91.7" rx="2" fill="url(#barGrad)" /><rect x="207.3" y="183.0" width="25.1" height="97.0" rx="2" fill="url(#barGrad)" /><rect x="249.1" y="148.2" width="25.1" height="131.8" rx="2" fill="url(#barGrad)" /><rect x="290.9" y="164.6" width="25.1" height="115.4" rx="2" fill="url(#barGrad)" /><rect x="332.7" y="156.8" width="25.1" height="123.2" rx="2" fill="url(#barGrad)" /><rect x="374.5" y="171.3" width="25.1" height="108.7" rx="2" fill="url(#barGrad)" /><rect x="416.4" y="169.6" width="25.1" height="110.4" rx="2" fill="url(#barGrad)" /><rect x="458.2" y="171.2" width="25.1" height="108.8" rx="2" fill="url(#barGrad)" /><rect x="500.0" y="182.6" width="25.1" height="97.4" rx="2" fill="url(#barGrad)" /><rect x="541.8" y="176.0" width="25.1" height="104.0" rx="2" fill="url(#barGrad)" /><rect x="583.6" y="162.2" width="25.1" height="117.8" rx="2" fill="url(#barGrad)" /><rect x="625.5" y="178.8" width="25.1" height="101.2" rx="2" fill="url(#barGrad)" /><rect x="667.3" y="195.0" width="25.1" height="85.0" rx="2" fill="url(#barGrad)" /><rect x="709.1" y="204.1" width="25.1" height="75.9" rx="2" fill="url(#barGrad)" /><rect x="750.9" y="190.0" width="25.1" height="90.0" rx="2" fill="url(#barGrad)" /><rect x="792.7" y="210.5" width="25.1" height="69.5" rx="2" fill="url(#barGrad)" /><rect x="834.5" y="189.9" width="25.1" height="90.1" rx="2" fill="url(#barGrad)" /><rect x="876.4" y="205.0" width="25.1" height="75.0" rx="2" fill="url(#barGrad)" /><rect x="918.2" y="193.5" width="25.1" height="86.5" rx="2" fill="url(#barGrad)" />
  <polyline fill="none" stroke="#63b3ed" stroke-width="2" points="52.5,82.1 94.4,50.2 136.2,63.7 178.0,96.9 219.8,85.6 261.6,63.0 303.5,40.0 345.3,46.4 387.1,73.6 428.9,67.4 470.7,75.5 512.5,87.6 554.4,93.3 596.2,43.8 638.0,75.0 679.8,108.4 721.6,145.3 763.5,89.6 805.3,111.1 847.1,105.3 888.9,115.1 930.7,115.2"/>
  <circle cx="52.5" cy="79.1" r="2.5" fill="#f6ad55" /><circle cx="94.4" cy="83.9" r="2.5" fill="#f6ad55" /><circle cx="136.2" cy="55.0" r="2.5" fill="#f6ad55" /><circle cx="178.0" cy="40.0" r="2.5" fill="#f6ad55" /><circle cx="219.8" cy="83.5" r="2.5" fill="#f6ad55" /><circle cx="261.6" cy="93.5" r="2.5" fill="#f6ad55" /><circle cx="303.5" cy="92.6" r="2.5" fill="#f6ad55" /><circle cx="345.3" cy="95.5" r="2.5" fill="#f6ad55" /><circle cx="387.1" cy="112.8" r="2.5" fill="#f6ad55" /><circle cx="428.9" cy="124.4" r="2.5" fill="#f6ad55" /><circle cx="470.7" cy="98.5" r="2.5" fill="#f6ad55" /><circle cx="512.5" cy="97.2" r="2.5" fill="#f6ad55" /><circle cx="554.4" cy="84.7" r="2.5" fill="#f6ad55" /><circle cx="596.2" cy="95.0" r="2.5" fill="#f6ad55" /><circle cx="638.0" cy="115.3" r="2.5" fill="#f6ad55" /><circle cx="679.8" cy="92.8" r="2.5" fill="#f6ad55" /><circle cx="721.6" cy="103.9" r="2.5" fill="#f6ad55" /><circle cx="763.5" cy="77.2" r="2.5" fill="#f6ad55" /><circle cx="805.3" cy="79.1" r="2.5" fill="#f6ad55" /><circle cx="847.1" cy="70.1" r="2.5" fill="#f6ad55" /><circle cx="888.9" cy="85.6" r="2.5" fill="#f6ad55" /><circle cx="930.7" cy="81.6" r="2.5" fill="#f6ad55" />
  <text x="40" y="30" fill="#9aa6b2" font-size="12">Hourly rate: Molts (bars), Likes (line), Views (dots scaled)</text>
  <text x="40" y="310" fill="#9aa6b2" font-size="11">max rate ~718.37 / hour</text>
</svg>