<?xml version="1.0" encoding="UTF-8"?>
<svg xmlns="http://www.w3.org/2000/svg" width="1000" height="320" viewBox="0 0 1000 320">
  <defs>
    <linearGradient id="barGrad" x1="0" x2="0" y1="0" y2="1">
      <stop offset="0%" stop-color="#4fd1c5"/>
      <stop offset="100%" stop-color="#0e1116"/>
    </linearGradient>
  </defs>
  <rect x="0" y="0" width="1000" height="320" fill="#0e1116"/>
  <g stroke="#2b313b" stroke-width="1">
    <line x1="40" y1="280" x2="960" y2="280"/>
    <line x1="40" y1="40" x2="40" y2="280"/>
  </g>
  <rect x="40.0" y="226.6" width="92.0" height="53.4" rx="2" fill="url(#barGrad)" /><rect x="193.3" y="156.4" width="92.0" height="123.6" rx="2" fill="url(#barGrad)" /><rect x="346.7" y="163.9" width="92.0" height="116.1" rx="2" fill="url(#barGrad)" /><rect x="500.0" y="144.8" width="92.0" height="135.2" rx="2" fill="url(#barGrad)" /><rect x="653.3" y="144.5" width="92.0" height="135.5" rx="2" fill="url(#barGrad)" /><rect x="806.7" y="143.5" width="92.0" height="136.5" rx="2" fill="url(#barGrad)" />
  <polyline fill="none" stroke="#63b3ed" stroke-width="2" points="86.0,80.8 239.3,169.3 392.7,97.6 546.0,73.6 699.3,40.0 852.7,52.9"/>
  <circle cx="86.0" cy="68.1" r="2.5" fill="#f6ad55" /><circle cx="239.3" cy="40.0" r="2.5" fill="#f6ad55" /><circle cx="392.7" cy="64.3" r="2.5" fill="#f6ad55" /><circle cx="546.0" cy="97.6" r="2.5" fill="#f6ad55" /><circle cx="699.3" cy="119.2" r="2.5" fill="#f6ad55" /><circle cx="852.7" cy="109.1" r="2.5" fill="#f6ad55" />
  <text x="40" y="30" fill="#9aa6b2" font-size="12">Hourly rate: Molts (bars), Likes (line), Views (dots scaled)</text>
  <text x="40" y="310" fill="#9aa6b2" font-size="11">max rate ~432.20 / hour</text>
</svg>