<?xml version="1.0" encoding="UTF-8"?>
<svg xmlns="http://www.w3.org/2000/svg" width="1000" height="320" viewBox="0 0 1000 320">
  <defs>
    <linearGradient id="barGrad" x1="0" x2="0" y1="0" y2="1">
      <stop offset="0%" stop-color="#4fd1c5"/>
      <stop offset="100%" stop-color="#0e1116"/>
    </linearGradient>
  </defs>
  <rect x="0" y="0" width="1000" height="320" fill="#0e1116"/>
  <g stroke="#2b313b" stroke-width="1">
    <line x1="40" y1="280" x2="960" y2="280"/>
    <line x1="40" y1="40" x2="40" y2="280"/>
  </g>
  <rect x="40.0" y="226.0" width="22.1" height="54.0" rx="2" fill="url(#barGrad)" /><rect x="76.8" y="179.6" width="22.1" height="100.4" rx="2" fill="url(#barGrad)" /><rect x="113.6" y="204.8" width="22.1" height="75.2" rx="2" fill="url(#barGrad)" /><rect x="150.4" y="197.5" width="22.1" height="82.5" rx="2" fill="url(#barGrad)" /><rect x="187.2" y="174.2" width="22.1" height="105.8" rx="2" fill="url(#barGrad)" /><rect x="224.0" y="139.8" width="22.1" height="140.2" rx="2" fill="url(#barGrad)" /><rect x="260.8" y="165.4" width="22.1" height="114.6" rx="2" fill="url(#barGrad)" /><rect x="297.6" y="188.1" width="22.1" height="91.9" rx="2" fill="url(#barGrad)" /><rect x="334.4" y="188.2" width="22.1" height="91.8" rx="2" fill="url(#barGrad)" /><rect x="371.2" y="176.4" width="22.1" height="103.6" rx="2" fill="url(#barGrad)" /><rect x="408.0" y="160.1" width="22.1" height="119.9" rx="2" fill="url(#barGrad)" /><rect x="444.8" y="178.5" width="22.1" height="101.5" rx="2" fill="url(#barGrad)" /><rect x="481.6" y="180.3" width="22.1" height="99.7" rx="2" fill="url(#barGrad)" /><rect x="518.4" y="183.5" width="22.1" height="96.5" rx="2" fill="url(#barGrad)" /><rect x="555.2" y="166.7" width="22.1" height="113.3" rx="2" fill="url(#barGrad)" /><rect x="592.0" y="175.6" width="22.1" height="104.4" rx="2" fill="url(#barGrad)" /><rect x="628.8" y="184.2" width="22.1" height="95.8" rx="2" fill="url(#barGrad)" /><rect x="665.6" y="186.0" width="22.1" height="94.0" rx="2" fill="url(#barGrad)" /><rect x="702.4" y="171.3" width="22.1" height="108.7" rx="2" fill="url(#barGrad)" /><rect x="739.2" y="153.9" width="22.1" height="126.1" rx="2" fill="url(#barGrad)" /><rect x="776.0" y="174.4" width="22.1" height="105.6" rx="2" fill="url(#barGrad)" /><rect x="812.8" y="201.6" width="22.1" height="78.4" rx="2" fill="url(#barGrad)" /><rect x="849.6" y="195.5" width="22.1" height="84.5" rx="2" fill="url(#barGrad)" /><rect x="886.4" y="196.5" width="22.1" height="83.5" rx="2" fill="url(#barGrad)" /><rect x="923.2" y="172.2" width="22.1" height="107.8" rx="2" fill="url(#barGrad)" />
  <polyline fill="none" stroke="#63b3ed" stroke-width="2" points="51.0,152.7 87.8,77.0 124.6,101.4 161.4,110.1 198.2,119.0 235.0,100.0 271.8,121.8 308.6,108.9 345.4,108.8 382.2,147.3 419.0,136.8 455.8,106.7 492.6,137.4 529.4,132.9 566.2,119.1 603.0,121.7 639.8,101.0 676.6,101.8 713.4,86.3 750.2,70.1 787.0,112.1 823.8,121.9 860.6,109.1 897.4,108.1 934.2,40.0"/>
  <circle cx="51.0" cy="69.9" r="2.5" fill="#f6ad55" /><circle cx="87.8" cy="85.0" r="2.5" fill="#f6ad55" /><circle cx="124.6" cy="83.1" r="2.5" fill="#f6ad55" /><circle cx="161.4" cy="70.1" r="2.5" fill="#f6ad55" /><circle cx="198.2" cy="52.2" r="2.5" fill="#f6ad55" /><circle cx="235.0" cy="44.4" r="2.5" fill="#f6ad55" /><circle cx="271.8" cy="54.8" r="2.5" fill="#f6ad55" /><circle cx="308.6" cy="78.2" r="2.5" fill="#f6ad55" /><circle cx="345.4" cy="72.1" r="2.5" fill="#f6ad55" /><circle cx="382.2" cy="70.0" r="2.5" fill="#f6ad55" /><circle cx="419.0" cy="62.4" r="2.5" fill="#f6ad55" /><circle cx="455.8" cy="66.5" r="2.5" fill="#f6ad55" /><circle cx="492.6" cy="49.8" r="2.5" fill="#f6ad55" /><circle cx="529.4" cy="40.0" r="2.5" fill="#f6ad55" /><circle cx="566.2" cy="62.0" r="2.5" fill="#f6ad55" /><circle cx="603.0" cy="70.6" r="2.5" fill="#f6ad55" /><circle cx="639.8" cy="73.0" r="2.5" fill="#f6ad55" /><circle cx="676.6" cy="80.9" r="2.5" fill="#f6ad55" /><circle cx="713.4" cy="85.3" r="2.5" fill="#f6ad55" /><circle cx="750.2" cy="65.1" r="2.5" fill="#f6ad55" /><circle cx="787.0" cy="60.1" r="2.5" fill="#f6ad55" /><circle cx="823.8" cy="53.1" r="2.5" fill="#f6ad55" /><circle cx="860.6" cy="60.0" r="2.5" fill="#f6ad55" /><circle cx="897.4" cy="56.4" r="2.5" fill="#f6ad55" /><circle cx="934.2" cy="56.7" r="2.5" fill="#f6ad55" />
  <text x="40" y="30" fill="#9aa6b2" font-size="12">Hourly rate: Molts (bars), Likes (line), Views (dots scaled)</text>
  <text x="40" y="310" fill="#9aa6b2" font-size="11">max rate ~794.24 / hour</text>
</svg>