<?xml version="1.0" encoding="UTF-8"?>
<svg xmlns="http://www.w3.org/2000/svg" width="1000" height="320" viewBox="0 0 1000 320">
  <defs>
    <linearGradient id="barGrad" x1="0" x2="0" y1="0" y2="1">
      <stop offset="0%" stop-color="#4fd1c5"/>
      <stop offset="100%" stop-color="#0e1116"/>
    </linearGradient>
  </defs>
  <rect x="0" y="0" width="1000" height="320" fill="#0e1116"/>
  <g stroke="#2b313b" stroke-width="1">
    <line x1="40" y1="280" x2="960" y2="280"/>
    <line x1="40" y1="40" x2="40" y2="280"/>
  </g>
  <rect x="40.0" y="252.6" width="34.5" height="27.4" rx="2" fill="url(#barGrad)" /><rect x="97.5" y="216.4" width="34.5" height="63.6" rx="2" fill="url(#barGrad)" /><rect x="155.0" y="220.3" width="34.5" height="59.7" rx="2" fill="url(#barGrad)" /><rect x="212.5" y="210.5" width="34.5" height="69.5" rx="2" fill="url(#barGrad)" /><rect x="270.0" y="210.3" width="34.5" height="69.7" rx="2" fill="url(#barGrad)" /><rect x="327.5" y="215.9" width="34.5" height="64.1" rx="2" fill="url(#barGrad)" /><rect x="385.0" y="222.0" width="34.5" height="58.0" rx="2" fill="url(#barGrad)" /><rect x="442.5" y="230.9" width="34.5" height="49.1" rx="2" fill="url(#barGrad)" /><rect x="500.0" y="214.9" width="34.5" height="65.1" rx="2" fill="url(#barGrad)" /><rect x="557.5" y="88.7" width="34.5" height="191.3" rx="2" fill="url(#barGrad)" /><rect x="615.0" y="55.2" width="34.5" height="224.8" rx="2" fill="url(#barGrad)" /><rect x="672.5" y="197.4" width="34.5" height="82.6" rx="2" fill="url(#barGrad)" /><rect x="730.0" y="178.2" width="34.5" height="101.8" rx="2" fill="url(#barGrad)" /><rect x="787.5" y="200.9" width="34.5" height="79.1" rx="2" fill="url(#barGrad)" /><rect x="845.0" y="119.6" width="34.5" height="160.4" rx="2" fill="url(#barGrad)" /><rect x="902.5" y="40.0" width="34.5" height="240.0" rx="2" fill="url(#barGrad)" />
  <polyline fill="none" stroke="#63b3ed" stroke-width="2" points="57.3,177.6 114.8,223.1 172.3,186.2 229.8,173.9 287.3,156.6 344.8,174.1 402.3,156.5 459.8,178.7 517.3,146.4 574.8,133.8 632.3,88.9 689.8,132.4 747.3,108.7 804.8,114.9 862.3,97.9 919.8,142.1"/>
  <circle cx="57.3" cy="68.3" r="2.5" fill="#f6ad55" /><circle cx="114.8" cy="40.3" r="2.5" fill="#f6ad55" /><circle cx="172.3" cy="64.5" r="2.5" fill="#f6ad55" /><circle cx="229.8" cy="97.8" r="2.5" fill="#f6ad55" /><circle cx="287.3" cy="119.4" r="2.5" fill="#f6ad55" /><circle cx="344.8" cy="112.8" r="2.5" fill="#f6ad55" /><circle cx="402.3" cy="64.8" r="2.5" fill="#f6ad55" /><circle cx="459.8" cy="89.7" r="2.5" fill="#f6ad55" /><circle cx="517.3" cy="120.2" r="2.5" fill="#f6ad55" /><circle cx="574.8" cy="107.1" r="2.5" fill="#f6ad55" /><circle cx="632.3" cy="77.7" r="2.5" fill="#f6ad55" /><circle cx="689.8" cy="88.7" r="2.5" fill="#f6ad55" /><circle cx="747.3" cy="48.6" r="2.5" fill="#f6ad55" /><circle cx="804.8" cy="46.1" r="2.5" fill="#f6ad55" /><circle cx="862.3" cy="40.0" r="2.5" fill="#f6ad55" /><circle cx="919.8" cy="51.7" r="2.5" fill="#f6ad55" />
  <text x="40" y="30" fill="#9aa6b2" font-size="12">Hourly rate: Molts (bars), Likes (line), Views (dots scaled)</text>
  <text x="40" y="310" fill="#9aa6b2" font-size="11">max rate ~840.74 / hour</text>
</svg>