<?xml version="1.0" encoding="UTF-8"?>
<svg xmlns="http://www.w3.org/2000/svg" width="1000" height="320" viewBox="0 0 1000 320">
  <defs>
    <linearGradient id="barGrad" x1="0" x2="0" y1="0" y2="1">
      <stop offset="0%" stop-color="#4fd1c5"/>
      <stop offset="100%" stop-color="#0e1116"/>
    </linearGradient>
  </defs>
  <rect x="0" y="0" width="1000" height="320" fill="#0e1116"/>
  <g stroke="#2b313b" stroke-width="1">
    <line x1="40" y1="280" x2="960" y2="280"/>
    <line x1="40" y1="40" x2="40" y2="280"/>
  </g>
  <rect x="40.0" y="224.9" width="29.1" height="55.1" rx="2" fill="url(#barGrad)" /><rect x="88.4" y="164.7" width="29.1" height="115.3" rx="2" fill="url(#barGrad)" /><rect x="136.8" y="174.8" width="29.1" height="105.2" rx="2" fill="url(#barGrad)" /><rect x="185.3" y="146.2" width="29.1" height="133.8" rx="2" fill="url(#barGrad)" /><rect x="233.7" y="166.8" width="29.1" height="113.2" rx="2" fill="url(#barGrad)" /><rect x="282.1" y="184.9" width="29.1" height="95.1" rx="2" fill="url(#barGrad)" /><rect x="330.5" y="170.5" width="29.1" height="109.5" rx="2" fill="url(#barGrad)" /><rect x="378.9" y="172.6" width="29.1" height="107.4" rx="2" fill="url(#barGrad)" /><rect x="427.4" y="150.6" width="29.1" height="129.4" rx="2" fill="url(#barGrad)" /><rect x="475.8" y="136.2" width="29.1" height="143.8" rx="2" fill="url(#barGrad)" /><rect x="524.2" y="105.7" width="29.1" height="174.3" rx="2" fill="url(#barGrad)" /><rect x="572.6" y="91.4" width="29.1" height="188.6" rx="2" fill="url(#barGrad)" /><rect x="621.1" y="145.1" width="29.1" height="134.9" rx="2" fill="url(#barGrad)" /><rect x="669.5" y="164.7" width="29.1" height="115.3" rx="2" fill="url(#barGrad)" /><rect x="717.9" y="158.4" width="29.1" height="121.6" rx="2" fill="url(#barGrad)" /><rect x="766.3" y="168.9" width="29.1" height="111.1" rx="2" fill="url(#barGrad)" /><rect x="814.7" y="180.2" width="29.1" height="99.8" rx="2" fill="url(#barGrad)" /><rect x="863.2" y="201.0" width="29.1" height="79.0" rx="2" fill="url(#barGrad)" /><rect x="911.6" y="199.2" width="29.1" height="80.8" rx="2" fill="url(#barGrad)" />
  <polyline fill="none" stroke="#63b3ed" stroke-width="2" points="54.5,152.8 102.9,81.6 151.4,83.0 199.8,47.2 248.2,88.0 296.6,94.2 345.1,67.4 393.5,108.8 441.9,68.3 490.3,62.4 538.7,78.0 587.2,72.0 635.6,40.0 684.0,98.0 732.4,60.5 780.8,44.5 829.3,95.3 877.7,93.1 926.1,52.5"/>
  <circle cx="54.5" cy="40.0" r="2.5" fill="#f6ad55" /><circle cx="102.9" cy="161.6" r="2.5" fill="#f6ad55" /><circle cx="151.4" cy="145.5" r="2.5" fill="#f6ad55" /><circle cx="199.8" cy="146.2" r="2.5" fill="#f6ad55" /><circle cx="248.2" cy="141.6" r="2.5" fill="#f6ad55" /><circle cx="296.6" cy="148.6" r="2.5" fill="#f6ad55" /><circle cx="345.1" cy="160.2" r="2.5" fill="#f6ad55" /><circle cx="393.5" cy="157.9" r="2.5" fill="#f6ad55" /><circle cx="441.9" cy="155.3" r="2.5" fill="#f6ad55" /><circle cx="490.3" cy="129.4" r="2.5" fill="#f6ad55" /><circle cx="538.7" cy="126.4" r="2.5" fill="#f6ad55" /><circle cx="587.2" cy="117.0" r="2.5" fill="#f6ad55" /><circle cx="635.6" cy="130.2" r="2.5" fill="#f6ad55" /><circle cx="684.0" cy="156.1" r="2.5" fill="#f6ad55" /><circle cx="732.4" cy="160.1" r="2.5" fill="#f6ad55" /><circle cx="780.8" cy="151.8" r="2.5" fill="#f6ad55" /><circle cx="829.3" cy="169.2" r="2.5" fill="#f6ad55" /><circle cx="877.7" cy="162.8" r="2.5" fill="#f6ad55" /><circle cx="926.1" cy="155.5" r="2.5" fill="#f6ad55" />
  <text x="40" y="30" fill="#9aa6b2" font-size="12">Hourly rate: Molts (bars), Likes (line), Views (dots scaled)</text>
  <text x="40" y="310" fill="#9aa6b2" font-size="11">max rate ~729.33 / hour</text>
</svg>