<?xml version="1.0" encoding="UTF-8"?>
<svg xmlns="http://www.w3.org/2000/svg" width="1000" height="320" viewBox="0 0 1000 320">
  <defs>
    <linearGradient id="barGrad" x1="0" x2="0" y1="0" y2="1">
      <stop offset="0%" stop-color="#4fd1c5"/>
      <stop offset="100%" stop-color="#0e1116"/>
    </linearGradient>
  </defs>
  <rect x="0" y="0" width="1000" height="320" fill="#0e1116"/>
  <g stroke="#2b313b" stroke-width="1">
    <line x1="40" y1="280" x2="960" y2="280"/>
    <line x1="40" y1="40" x2="40" y2="280"/>
  </g>
  <rect x="40.0" y="229.1" width="32.5" height="50.9" rx="2" fill="url(#barGrad)" /><rect x="94.1" y="194.0" width="32.5" height="86.0" rx="2" fill="url(#barGrad)" /><rect x="148.2" y="209.0" width="32.5" height="71.0" rx="2" fill="url(#barGrad)" /><rect x="202.4" y="196.3" width="32.5" height="83.7" rx="2" fill="url(#barGrad)" /><rect x="256.5" y="199.2" width="32.5" height="80.8" rx="2" fill="url(#barGrad)" /><rect x="310.6" y="197.6" width="32.5" height="82.4" rx="2" fill="url(#barGrad)" /><rect x="364.7" y="167.8" width="32.5" height="112.2" rx="2" fill="url(#barGrad)" /><rect x="418.8" y="199.2" width="32.5" height="80.8" rx="2" fill="url(#barGrad)" /><rect x="472.9" y="189.6" width="32.5" height="90.4" rx="2" fill="url(#barGrad)" /><rect x="527.1" y="185.1" width="32.5" height="94.9" rx="2" fill="url(#barGrad)" /><rect x="581.2" y="191.5" width="32.5" height="88.5" rx="2" fill="url(#barGrad)" /><rect x="635.3" y="207.8" width="32.5" height="72.2" rx="2" fill="url(#barGrad)" /><rect x="689.4" y="162.6" width="32.5" height="117.4" rx="2" fill="url(#barGrad)" /><rect x="743.5" y="181.6" width="32.5" height="98.4" rx="2" fill="url(#barGrad)" /><rect x="797.6" y="165.6" width="32.5" height="114.4" rx="2" fill="url(#barGrad)" /><rect x="851.8" y="173.7" width="32.5" height="106.3" rx="2" fill="url(#barGrad)" /><rect x="905.9" y="143.1" width="32.5" height="136.9" rx="2" fill="url(#barGrad)" />
  <polyline fill="none" stroke="#63b3ed" stroke-width="2" points="56.2,157.5 110.4,93.1 164.5,105.4 218.6,106.0 272.7,95.5 326.8,84.6 380.9,45.5 435.1,105.9 489.2,116.2 543.3,109.2 597.4,103.9 651.5,126.9 705.6,79.1 759.8,92.9 813.9,42.2 868.0,40.0 922.1,42.0"/>
  <circle cx="56.2" cy="40.0" r="2.5" fill="#f6ad55" /><circle cx="110.4" cy="86.6" r="2.5" fill="#f6ad55" /><circle cx="164.5" cy="78.3" r="2.5" fill="#f6ad55" /><circle cx="218.6" cy="81.9" r="2.5" fill="#f6ad55" /><circle cx="272.7" cy="94.8" r="2.5" fill="#f6ad55" /><circle cx="326.8" cy="68.0" r="2.5" fill="#f6ad55" /><circle cx="380.9" cy="99.2" r="2.5" fill="#f6ad55" /><circle cx="435.1" cy="97.0" r="2.5" fill="#f6ad55" /><circle cx="489.2" cy="92.0" r="2.5" fill="#f6ad55" /><circle cx="543.3" cy="87.4" r="2.5" fill="#f6ad55" /><circle cx="597.4" cy="71.3" r="2.5" fill="#f6ad55" /><circle cx="651.5" cy="84.0" r="2.5" fill="#f6ad55" /><circle cx="705.6" cy="82.4" r="2.5" fill="#f6ad55" /><circle cx="759.8" cy="85.0" r="2.5" fill="#f6ad55" /><circle cx="813.9" cy="104.1" r="2.5" fill="#f6ad55" /><circle cx="868.0" cy="90.9" r="2.5" fill="#f6ad55" /><circle cx="922.1" cy="62.5" r="2.5" fill="#f6ad55" />
  <text x="40" y="30" fill="#9aa6b2" font-size="12">Hourly rate: Molts (bars), Likes (line), Views (dots scaled)</text>
  <text x="40" y="310" fill="#9aa6b2" font-size="11">max rate ~821.69 / hour</text>
</svg>