<?xml version="1.0" encoding="UTF-8"?>
<svg xmlns="http://www.w3.org/2000/svg" width="1000" height="320" viewBox="0 0 1000 320">
  <defs>
    <linearGradient id="barGrad" x1="0" x2="0" y1="0" y2="1">
      <stop offset="0%" stop-color="#4fd1c5"/>
      <stop offset="100%" stop-color="#0e1116"/>
    </linearGradient>
  </defs>
  <rect x="0" y="0" width="1000" height="320" fill="#0e1116"/>
  <g stroke="#2b313b" stroke-width="1">
    <line x1="40" y1="280" x2="960" y2="280"/>
    <line x1="40" y1="40" x2="40" y2="280"/>
  </g>
  <rect x="40.0" y="255.1" width="46.0" height="24.9" rx="2" fill="url(#barGrad)" /><rect x="116.7" y="190.5" width="46.0" height="89.5" rx="2" fill="url(#barGrad)" /><rect x="193.3" y="210.2" width="46.0" height="69.8" rx="2" fill="url(#barGrad)" /><rect x="270.0" y="196.7" width="46.0" height="83.3" rx="2" fill="url(#barGrad)" /><rect x="346.7" y="191.2" width="46.0" height="88.8" rx="2" fill="url(#barGrad)" /><rect x="423.3" y="181.7" width="46.0" height="98.3" rx="2" fill="url(#barGrad)" /><rect x="500.0" y="170.7" width="46.0" height="109.3" rx="2" fill="url(#barGrad)" /><rect x="576.7" y="170.1" width="46.0" height="109.9" rx="2" fill="url(#barGrad)" /><rect x="653.3" y="206.2" width="46.0" height="73.8" rx="2" fill="url(#barGrad)" /><rect x="730.0" y="198.1" width="46.0" height="81.9" rx="2" fill="url(#barGrad)" /><rect x="806.7" y="189.9" width="46.0" height="90.1" rx="2" fill="url(#barGrad)" /><rect x="883.3" y="193.8" width="46.0" height="86.2" rx="2" fill="url(#barGrad)" />
  <polyline fill="none" stroke="#63b3ed" stroke-width="2" points="63.0,197.2 139.7,59.3 216.3,90.7 293.0,65.9 369.7,70.7 446.3,57.9 523.0,40.0 599.7,51.3 676.3,133.5 753.0,111.0 829.7,112.9 906.3,87.0"/>
  <circle cx="63.0" cy="106.2" r="2.5" fill="#f6ad55" /><circle cx="139.7" cy="101.0" r="2.5" fill="#f6ad55" /><circle cx="216.3" cy="84.0" r="2.5" fill="#f6ad55" /><circle cx="293.0" cy="58.5" r="2.5" fill="#f6ad55" /><circle cx="369.7" cy="62.7" r="2.5" fill="#f6ad55" /><circle cx="446.3" cy="40.0" r="2.5" fill="#f6ad55" /><circle cx="523.0" cy="50.2" r="2.5" fill="#f6ad55" /><circle cx="599.7" cy="50.7" r="2.5" fill="#f6ad55" /><circle cx="676.3" cy="70.0" r="2.5" fill="#f6ad55" /><circle cx="753.0" cy="78.6" r="2.5" fill="#f6ad55" /><circle cx="829.7" cy="90.7" r="2.5" fill="#f6ad55" /><circle cx="906.3" cy="90.6" r="2.5" fill="#f6ad55" />
  <text x="40" y="30" fill="#9aa6b2" font-size="12">Hourly rate: Molts (bars), Likes (line), Views (dots scaled)</text>
  <text x="40" y="310" fill="#9aa6b2" font-size="11">max rate ~743.65 / hour</text>
</svg>