<?xml version="1.0" encoding="UTF-8"?>
<svg xmlns="http://www.w3.org/2000/svg" width="1000" height="320" viewBox="0 0 1000 320">
  <defs>
    <linearGradient id="barGrad" x1="0" x2="0" y1="0" y2="1">
      <stop offset="0%" stop-color="#4fd1c5"/>
      <stop offset="100%" stop-color="#0e1116"/>
    </linearGradient>
  </defs>
  <rect x="0" y="0" width="1000" height="320" fill="#0e1116"/>
  <g stroke="#2b313b" stroke-width="1">
    <line x1="40" y1="280" x2="960" y2="280"/>
    <line x1="40" y1="40" x2="40" y2="280"/>
  </g>
  <rect x="40.0" y="235.1" width="30.7" height="44.9" rx="2" fill="url(#barGrad)" /><rect x="91.1" y="204.1" width="30.7" height="75.9" rx="2" fill="url(#barGrad)" /><rect x="142.2" y="217.3" width="30.7" height="62.7" rx="2" fill="url(#barGrad)" /><rect x="193.3" y="206.1" width="30.7" height="73.9" rx="2" fill="url(#barGrad)" /><rect x="244.4" y="208.7" width="30.7" height="71.3" rx="2" fill="url(#barGrad)" /><rect x="295.6" y="207.3" width="30.7" height="72.7" rx="2" fill="url(#barGrad)" /><rect x="346.7" y="181.0" width="30.7" height="99.0" rx="2" fill="url(#barGrad)" /><rect x="397.8" y="208.6" width="30.7" height="71.4" rx="2" fill="url(#barGrad)" /><rect x="448.9" y="200.2" width="30.7" height="79.8" rx="2" fill="url(#barGrad)" /><rect x="500.0" y="196.3" width="30.7" height="83.7" rx="2" fill="url(#barGrad)" /><rect x="551.1" y="201.9" width="30.7" height="78.1" rx="2" fill="url(#barGrad)" /><rect x="602.2" y="216.3" width="30.7" height="63.7" rx="2" fill="url(#barGrad)" /><rect x="653.3" y="176.4" width="30.7" height="103.6" rx="2" fill="url(#barGrad)" /><rect x="704.4" y="193.1" width="30.7" height="86.9" rx="2" fill="url(#barGrad)" /><rect x="755.6" y="179.0" width="30.7" height="101.0" rx="2" fill="url(#barGrad)" /><rect x="806.7" y="186.1" width="30.7" height="93.9" rx="2" fill="url(#barGrad)" /><rect x="857.8" y="153.7" width="30.7" height="126.3" rx="2" fill="url(#barGrad)" /><rect x="908.9" y="165.8" width="30.7" height="114.2" rx="2" fill="url(#barGrad)" />
  <polyline fill="none" stroke="#63b3ed" stroke-width="2" points="55.3,171.9 106.4,115.1 157.6,125.9 208.7,126.4 259.8,117.2 310.9,107.6 362.0,73.0 413.1,126.3 464.2,135.4 515.3,129.3 566.4,124.5 617.6,144.9 668.7,102.7 719.8,114.9 770.9,70.1 822.0,68.2 873.1,50.3 924.2,40.0"/>
  <circle cx="55.3" cy="40.0" r="2.5" fill="#f6ad55" /><circle cx="106.4" cy="86.6" r="2.5" fill="#f6ad55" /><circle cx="157.6" cy="78.3" r="2.5" fill="#f6ad55" /><circle cx="208.7" cy="81.9" r="2.5" fill="#f6ad55" /><circle cx="259.8" cy="94.8" r="2.5" fill="#f6ad55" /><circle cx="310.9" cy="68.0" r="2.5" fill="#f6ad55" /><circle cx="362.0" cy="99.2" r="2.5" fill="#f6ad55" /><circle cx="413.1" cy="97.0" r="2.5" fill="#f6ad55" /><circle cx="464.2" cy="92.0" r="2.5" fill="#f6ad55" /><circle cx="515.3" cy="87.4" r="2.5" fill="#f6ad55" /><circle cx="566.4" cy="71.3" r="2.5" fill="#f6ad55" /><circle cx="617.6" cy="84.0" r="2.5" fill="#f6ad55" /><circle cx="668.7" cy="82.4" r="2.5" fill="#f6ad55" /><circle cx="719.8" cy="85.0" r="2.5" fill="#f6ad55" /><circle cx="770.9" cy="104.1" r="2.5" fill="#f6ad55" /><circle cx="822.0" cy="90.9" r="2.5" fill="#f6ad55" /><circle cx="873.1" cy="63.4" r="2.5" fill="#f6ad55" /><circle cx="924.2" cy="86.7" r="2.5" fill="#f6ad55" />
  <text x="40" y="30" fill="#9aa6b2" font-size="12">Hourly rate: Molts (bars), Likes (line), Views (dots scaled)</text>
  <text x="40" y="310" fill="#9aa6b2" font-size="11">max rate ~930.89 / hour</text>
</svg>