<?xml version="1.0" encoding="UTF-8"?>
<svg xmlns="http://www.w3.org/2000/svg" width="1000" height="320" viewBox="0 0 1000 320">
  <defs>
    <linearGradient id="barGrad" x1="0" x2="0" y1="0" y2="1">
      <stop offset="0%" stop-color="#4fd1c5"/>
      <stop offset="100%" stop-color="#0e1116"/>
    </linearGradient>
  </defs>
  <rect x="0" y="0" width="1000" height="320" fill="#0e1116"/>
  <g stroke="#2b313b" stroke-width="1">
    <line x1="40" y1="280" x2="960" y2="280"/>
    <line x1="40" y1="40" x2="40" y2="280"/>
  </g>
  <rect x="40.0" y="264.5" width="26.3" height="15.5" rx="2" fill="url(#barGrad)" /><rect x="83.8" y="220.7" width="26.3" height="59.3" rx="2" fill="url(#barGrad)" /><rect x="127.6" y="231.9" width="26.3" height="48.1" rx="2" fill="url(#barGrad)" /><rect x="171.4" y="233.5" width="26.3" height="46.5" rx="2" fill="url(#barGrad)" /><rect x="215.2" y="207.5" width="26.3" height="72.5" rx="2" fill="url(#barGrad)" /><rect x="259.0" y="208.8" width="26.3" height="71.2" rx="2" fill="url(#barGrad)" /><rect x="302.9" y="213.4" width="26.3" height="66.6" rx="2" fill="url(#barGrad)" /><rect x="346.7" y="174.0" width="26.3" height="106.0" rx="2" fill="url(#barGrad)" /><rect x="390.5" y="230.4" width="26.3" height="49.6" rx="2" fill="url(#barGrad)" /><rect x="434.3" y="198.0" width="26.3" height="82.0" rx="2" fill="url(#barGrad)" /><rect x="478.1" y="201.8" width="26.3" height="78.2" rx="2" fill="url(#barGrad)" /><rect x="521.9" y="216.3" width="26.3" height="63.7" rx="2" fill="url(#barGrad)" /><rect x="565.7" y="184.6" width="26.3" height="95.4" rx="2" fill="url(#barGrad)" /><rect x="609.5" y="200.4" width="26.3" height="79.6" rx="2" fill="url(#barGrad)" /><rect x="653.3" y="202.7" width="26.3" height="77.3" rx="2" fill="url(#barGrad)" /><rect x="697.1" y="204.2" width="26.3" height="75.8" rx="2" fill="url(#barGrad)" /><rect x="741.0" y="210.9" width="26.3" height="69.1" rx="2" fill="url(#barGrad)" /><rect x="784.8" y="203.7" width="26.3" height="76.3" rx="2" fill="url(#barGrad)" /><rect x="828.6" y="194.6" width="26.3" height="85.4" rx="2" fill="url(#barGrad)" /><rect x="872.4" y="206.7" width="26.3" height="73.3" rx="2" fill="url(#barGrad)" /><rect x="916.2" y="221.6" width="26.3" height="58.4" rx="2" fill="url(#barGrad)" />
  <polyline fill="none" stroke="#63b3ed" stroke-width="2" points="53.1,235.0 97.0,140.1 140.8,173.8 184.6,183.0 228.4,137.6 272.2,154.7 316.0,166.8 359.8,40.0 403.6,187.6 447.4,140.9 491.2,137.7 535.0,175.7 578.9,171.1 622.7,159.9 666.5,180.6 710.3,175.4 754.1,155.7 797.9,185.6 841.7,174.6 885.5,164.3 929.3,188.4"/>
  <circle cx="53.1" cy="40.0" r="2.5" fill="#f6ad55" /><circle cx="97.0" cy="146.0" r="2.5" fill="#f6ad55" /><circle cx="140.8" cy="152.3" r="2.5" fill="#f6ad55" /><circle cx="184.6" cy="149.4" r="2.5" fill="#f6ad55" /><circle cx="228.4" cy="145.5" r="2.5" fill="#f6ad55" /><circle cx="272.2" cy="139.4" r="2.5" fill="#f6ad55" /><circle cx="316.0" cy="142.2" r="2.5" fill="#f6ad55" /><circle cx="359.8" cy="140.4" r="2.5" fill="#f6ad55" /><circle cx="403.6" cy="139.0" r="2.5" fill="#f6ad55" /><circle cx="447.4" cy="158.4" r="2.5" fill="#f6ad55" /><circle cx="491.2" cy="153.8" r="2.5" fill="#f6ad55" /><circle cx="535.0" cy="147.6" r="2.5" fill="#f6ad55" /><circle cx="578.9" cy="164.1" r="2.5" fill="#f6ad55" /><circle cx="622.7" cy="166.0" r="2.5" fill="#f6ad55" /><circle cx="666.5" cy="144.8" r="2.5" fill="#f6ad55" /><circle cx="710.3" cy="171.0" r="2.5" fill="#f6ad55" /><circle cx="754.1" cy="170.4" r="2.5" fill="#f6ad55" /><circle cx="797.9" cy="171.2" r="2.5" fill="#f6ad55" /><circle cx="841.7" cy="181.2" r="2.5" fill="#f6ad55" /><circle cx="885.5" cy="178.6" r="2.5" fill="#f6ad55" /><circle cx="929.3" cy="176.5" r="2.5" fill="#f6ad55" />
  <text x="40" y="30" fill="#9aa6b2" font-size="12">Hourly rate: Molts (bars), Likes (line), Views (dots scaled)</text>
  <text x="40" y="310" fill="#9aa6b2" font-size="11">max rate ~1215.79 / hour</text>
</svg>