<?xml version="1.0" encoding="UTF-8"?>
<svg xmlns="http://www.w3.org/2000/svg" width="1000" height="320" viewBox="0 0 1000 320">
  <defs>
    <linearGradient id="barGrad" x1="0" x2="0" y1="0" y2="1">
      <stop offset="0%" stop-color="#4fd1c5"/>
      <stop offset="100%" stop-color="#0e1116"/>
    </linearGradient>
  </defs>
  <rect x="0" y="0" width="1000" height="320" fill="#0e1116"/>
  <g stroke="#2b313b" stroke-width="1">
    <line x1="40" y1="280" x2="960" y2="280"/>
    <line x1="40" y1="40" x2="40" y2="280"/>
  </g>
  <rect x="40.0" y="161.1" width="42.5" height="118.9" rx="2" fill="url(#barGrad)" /><rect x="110.8" y="120.0" width="42.5" height="160.0" rx="2" fill="url(#barGrad)" /><rect x="181.5" y="112.9" width="42.5" height="167.1" rx="2" fill="url(#barGrad)" /><rect x="252.3" y="125.3" width="42.5" height="154.7" rx="2" fill="url(#barGrad)" /><rect x="323.1" y="113.9" width="42.5" height="166.1" rx="2" fill="url(#barGrad)" /><rect x="393.8" y="122.8" width="42.5" height="157.2" rx="2" fill="url(#barGrad)" /><rect x="464.6" y="117.5" width="42.5" height="162.5" rx="2" fill="url(#barGrad)" /><rect x="535.4" y="97.9" width="42.5" height="182.1" rx="2" fill="url(#barGrad)" /><rect x="606.2" y="140.7" width="42.5" height="139.3" rx="2" fill="url(#barGrad)" /><rect x="676.9" y="113.1" width="42.5" height="166.9" rx="2" fill="url(#barGrad)" /><rect x="747.7" y="92.3" width="42.5" height="187.7" rx="2" fill="url(#barGrad)" /><rect x="818.5" y="107.6" width="42.5" height="172.4" rx="2" fill="url(#barGrad)" /><rect x="889.2" y="111.0" width="42.5" height="169.0" rx="2" fill="url(#barGrad)" />
  <polyline fill="none" stroke="#63b3ed" stroke-width="2" points="61.2,127.6 132.0,80.7 202.8,85.0 273.5,98.2 344.3,88.1 415.1,81.9 485.8,40.0 556.6,55.8 627.4,112.1 698.2,93.5 768.9,91.0 839.7,49.9 910.5,44.1"/>
  <circle cx="61.2" cy="100.8" r="2.5" fill="#f6ad55" /><circle cx="132.0" cy="64.8" r="2.5" fill="#f6ad55" /><circle cx="202.8" cy="52.4" r="2.5" fill="#f6ad55" /><circle cx="273.5" cy="40.0" r="2.5" fill="#f6ad55" /><circle cx="344.3" cy="45.2" r="2.5" fill="#f6ad55" /><circle cx="415.1" cy="83.8" r="2.5" fill="#f6ad55" /><circle cx="485.8" cy="57.7" r="2.5" fill="#f6ad55" /><circle cx="556.6" cy="87.9" r="2.5" fill="#f6ad55" /><circle cx="627.4" cy="83.5" r="2.5" fill="#f6ad55" /><circle cx="698.2" cy="90.8" r="2.5" fill="#f6ad55" /><circle cx="768.9" cy="91.1" r="2.5" fill="#f6ad55" /><circle cx="839.7" cy="90.8" r="2.5" fill="#f6ad55" /><circle cx="910.5" cy="98.9" r="2.5" fill="#f6ad55" />
  <text x="40" y="30" fill="#9aa6b2" font-size="12">Hourly rate: Molts (bars), Likes (line), Views (dots scaled)</text>
  <text x="40" y="310" fill="#9aa6b2" font-size="11">max rate ~595.01 / hour</text>
</svg>