<?xml version="1.0" encoding="UTF-8"?>
<svg xmlns="http://www.w3.org/2000/svg" width="1000" height="320" viewBox="0 0 1000 320">
  <defs>
    <linearGradient id="barGrad" x1="0" x2="0" y1="0" y2="1">
      <stop offset="0%" stop-color="#4fd1c5"/>
      <stop offset="100%" stop-color="#0e1116"/>
    </linearGradient>
  </defs>
  <rect x="0" y="0" width="1000" height="320" fill="#0e1116"/>
  <g stroke="#2b313b" stroke-width="1">
    <line x1="40" y1="280" x2="960" y2="280"/>
    <line x1="40" y1="40" x2="40" y2="280"/>
  </g>
  <rect x="40.0" y="223.2" width="46.0" height="56.8" rx="2" fill="url(#barGrad)" /><rect x="116.7" y="161.2" width="46.0" height="118.8" rx="2" fill="url(#barGrad)" /><rect x="193.3" y="171.5" width="46.0" height="108.5" rx="2" fill="url(#barGrad)" /><rect x="270.0" y="142.1" width="46.0" height="137.9" rx="2" fill="url(#barGrad)" /><rect x="346.7" y="163.3" width="46.0" height="116.7" rx="2" fill="url(#barGrad)" /><rect x="423.3" y="182.0" width="46.0" height="98.0" rx="2" fill="url(#barGrad)" /><rect x="500.0" y="167.2" width="46.0" height="112.8" rx="2" fill="url(#barGrad)" /><rect x="576.7" y="169.3" width="46.0" height="110.7" rx="2" fill="url(#barGrad)" /><rect x="653.3" y="146.6" width="46.0" height="133.4" rx="2" fill="url(#barGrad)" /><rect x="730.0" y="131.7" width="46.0" height="148.3" rx="2" fill="url(#barGrad)" /><rect x="806.7" y="100.4" width="46.0" height="179.6" rx="2" fill="url(#barGrad)" /><rect x="883.3" y="85.6" width="46.0" height="194.4" rx="2" fill="url(#barGrad)" />
  <polyline fill="none" stroke="#63b3ed" stroke-width="2" points="63.0,148.9 139.7,75.5 216.3,76.9 293.0,40.0 369.7,82.1 446.3,88.5 523.0,60.8 599.7,103.6 676.3,61.8 753.0,55.7 829.7,71.8 906.3,65.6"/>
  <circle cx="63.0" cy="40.0" r="2.5" fill="#f6ad55" /><circle cx="139.7" cy="161.6" r="2.5" fill="#f6ad55" /><circle cx="216.3" cy="145.5" r="2.5" fill="#f6ad55" /><circle cx="293.0" cy="146.2" r="2.5" fill="#f6ad55" /><circle cx="369.7" cy="141.6" r="2.5" fill="#f6ad55" /><circle cx="446.3" cy="148.6" r="2.5" fill="#f6ad55" /><circle cx="523.0" cy="160.2" r="2.5" fill="#f6ad55" /><circle cx="599.7" cy="157.9" r="2.5" fill="#f6ad55" /><circle cx="676.3" cy="155.3" r="2.5" fill="#f6ad55" /><circle cx="753.0" cy="129.4" r="2.5" fill="#f6ad55" /><circle cx="829.7" cy="126.4" r="2.5" fill="#f6ad55" /><circle cx="906.3" cy="117.0" r="2.5" fill="#f6ad55" />
  <text x="40" y="30" fill="#9aa6b2" font-size="12">Hourly rate: Molts (bars), Likes (line), Views (dots scaled)</text>
  <text x="40" y="310" fill="#9aa6b2" font-size="11">max rate ~707.60 / hour</text>
</svg>