<?xml version="1.0" encoding="UTF-8"?>
<svg xmlns="http://www.w3.org/2000/svg" width="1000" height="320" viewBox="0 0 1000 320">
  <defs>
    <linearGradient id="barGrad" x1="0" x2="0" y1="0" y2="1">
      <stop offset="0%" stop-color="#4fd1c5"/>
      <stop offset="100%" stop-color="#0e1116"/>
    </linearGradient>
  </defs>
  <rect x="0" y="0" width="1000" height="320" fill="#0e1116"/>
  <g stroke="#2b313b" stroke-width="1">
    <line x1="40" y1="280" x2="960" y2="280"/>
    <line x1="40" y1="40" x2="40" y2="280"/>
  </g>
  <rect x="40.0" y="237.1" width="30.7" height="42.9" rx="2" fill="url(#barGrad)" /><rect x="91.1" y="183.9" width="30.7" height="96.1" rx="2" fill="url(#barGrad)" /><rect x="142.2" y="167.4" width="30.7" height="112.6" rx="2" fill="url(#barGrad)" /><rect x="193.3" y="151.9" width="30.7" height="128.1" rx="2" fill="url(#barGrad)" /><rect x="244.4" y="135.5" width="30.7" height="144.5" rx="2" fill="url(#barGrad)" /><rect x="295.6" y="200.1" width="30.7" height="79.9" rx="2" fill="url(#barGrad)" /><rect x="346.7" y="212.0" width="30.7" height="68.0" rx="2" fill="url(#barGrad)" /><rect x="397.8" y="202.3" width="30.7" height="77.7" rx="2" fill="url(#barGrad)" /><rect x="448.9" y="205.0" width="30.7" height="75.0" rx="2" fill="url(#barGrad)" /><rect x="500.0" y="195.7" width="30.7" height="84.3" rx="2" fill="url(#barGrad)" /><rect x="551.1" y="181.9" width="30.7" height="98.1" rx="2" fill="url(#barGrad)" /><rect x="602.2" y="208.6" width="30.7" height="71.4" rx="2" fill="url(#barGrad)" /><rect x="653.3" y="196.9" width="30.7" height="83.1" rx="2" fill="url(#barGrad)" /><rect x="704.4" y="198.5" width="30.7" height="81.5" rx="2" fill="url(#barGrad)" /><rect x="755.6" y="215.2" width="30.7" height="64.8" rx="2" fill="url(#barGrad)" /><rect x="806.7" y="217.0" width="30.7" height="63.0" rx="2" fill="url(#barGrad)" /><rect x="857.8" y="213.4" width="30.7" height="66.6" rx="2" fill="url(#barGrad)" /><rect x="908.9" y="206.6" width="30.7" height="73.4" rx="2" fill="url(#barGrad)" />
  <polyline fill="none" stroke="#63b3ed" stroke-width="2" points="55.3,167.8 106.4,44.0 157.6,40.0 208.7,104.6 259.8,95.7 310.9,83.5 362.0,116.1 413.1,103.8 464.2,113.8 515.3,90.7 566.4,79.4 617.6,99.9 668.7,81.1 719.8,89.1 770.9,98.7 822.0,111.8 873.1,125.4 924.2,88.3"/>
  <circle cx="55.3" cy="74.1" r="2.5" fill="#f6ad55" /><circle cx="106.4" cy="56.1" r="2.5" fill="#f6ad55" /><circle cx="157.6" cy="59.8" r="2.5" fill="#f6ad55" /><circle cx="208.7" cy="68.5" r="2.5" fill="#f6ad55" /><circle cx="259.8" cy="72.9" r="2.5" fill="#f6ad55" /><circle cx="310.9" cy="62.1" r="2.5" fill="#f6ad55" /><circle cx="362.0" cy="76.4" r="2.5" fill="#f6ad55" /><circle cx="413.1" cy="51.8" r="2.5" fill="#f6ad55" /><circle cx="464.2" cy="40.0" r="2.5" fill="#f6ad55" /><circle cx="515.3" cy="67.3" r="2.5" fill="#f6ad55" /><circle cx="566.4" cy="46.1" r="2.5" fill="#f6ad55" /><circle cx="617.6" cy="62.6" r="2.5" fill="#f6ad55" /><circle cx="668.7" cy="56.8" r="2.5" fill="#f6ad55" /><circle cx="719.8" cy="70.1" r="2.5" fill="#f6ad55" /><circle cx="770.9" cy="78.3" r="2.5" fill="#f6ad55" /><circle cx="822.0" cy="76.6" r="2.5" fill="#f6ad55" /><circle cx="873.1" cy="84.3" r="2.5" fill="#f6ad55" /><circle cx="924.2" cy="84.2" r="2.5" fill="#f6ad55" />
  <text x="40" y="30" fill="#9aa6b2" font-size="12">Hourly rate: Molts (bars), Likes (line), Views (dots scaled)</text>
  <text x="40" y="310" fill="#9aa6b2" font-size="11">max rate ~761.42 / hour</text>
</svg>