<?xml version="1.0" encoding="UTF-8"?>
<svg xmlns="http://www.w3.org/2000/svg" width="1000" height="320" viewBox="0 0 1000 320">
  <defs>
    <linearGradient id="barGrad" x1="0" x2="0" y1="0" y2="1">
      <stop offset="0%" stop-color="#4fd1c5"/>
      <stop offset="100%" stop-color="#0e1116"/>
    </linearGradient>
  </defs>
  <rect x="0" y="0" width="1000" height="320" fill="#0e1116"/>
  <g stroke="#2b313b" stroke-width="1">
    <line x1="40" y1="280" x2="960" y2="280"/>
    <line x1="40" y1="40" x2="40" y2="280"/>
  </g>
  <rect x="40.0" y="250.7" width="36.8" height="29.3" rx="2" fill="url(#barGrad)" /><rect x="101.3" y="212.1" width="36.8" height="67.9" rx="2" fill="url(#barGrad)" /><rect x="162.7" y="216.3" width="36.8" height="63.7" rx="2" fill="url(#barGrad)" /><rect x="224.0" y="205.8" width="36.8" height="74.2" rx="2" fill="url(#barGrad)" /><rect x="285.3" y="205.6" width="36.8" height="74.4" rx="2" fill="url(#barGrad)" /><rect x="346.7" y="211.5" width="36.8" height="68.5" rx="2" fill="url(#barGrad)" /><rect x="408.0" y="218.1" width="36.8" height="61.9" rx="2" fill="url(#barGrad)" /><rect x="469.3" y="227.6" width="36.8" height="52.4" rx="2" fill="url(#barGrad)" /><rect x="530.7" y="210.5" width="36.8" height="69.5" rx="2" fill="url(#barGrad)" /><rect x="592.0" y="75.8" width="36.8" height="204.2" rx="2" fill="url(#barGrad)" /><rect x="653.3" y="40.0" width="36.8" height="240.0" rx="2" fill="url(#barGrad)" /><rect x="714.7" y="191.8" width="36.8" height="88.2" rx="2" fill="url(#barGrad)" /><rect x="776.0" y="171.4" width="36.8" height="108.6" rx="2" fill="url(#barGrad)" /><rect x="837.3" y="195.6" width="36.8" height="84.4" rx="2" fill="url(#barGrad)" /><rect x="898.7" y="159.0" width="36.8" height="121.0" rx="2" fill="url(#barGrad)" />
  <polyline fill="none" stroke="#63b3ed" stroke-width="2" points="58.4,170.7 119.7,219.3 181.1,179.9 242.4,166.7 303.7,148.3 365.1,166.9 426.4,148.2 487.7,171.8 549.1,137.4 610.4,123.9 671.7,76.0 733.1,122.4 794.4,97.1 855.7,103.7 917.1,91.1"/>
  <circle cx="58.4" cy="68.1" r="2.5" fill="#f6ad55" /><circle cx="119.7" cy="40.0" r="2.5" fill="#f6ad55" /><circle cx="181.1" cy="64.3" r="2.5" fill="#f6ad55" /><circle cx="242.4" cy="97.6" r="2.5" fill="#f6ad55" /><circle cx="303.7" cy="119.2" r="2.5" fill="#f6ad55" /><circle cx="365.1" cy="112.6" r="2.5" fill="#f6ad55" /><circle cx="426.4" cy="64.5" r="2.5" fill="#f6ad55" /><circle cx="487.7" cy="89.5" r="2.5" fill="#f6ad55" /><circle cx="549.1" cy="120.0" r="2.5" fill="#f6ad55" /><circle cx="610.4" cy="106.9" r="2.5" fill="#f6ad55" /><circle cx="671.7" cy="77.5" r="2.5" fill="#f6ad55" /><circle cx="733.1" cy="88.5" r="2.5" fill="#f6ad55" /><circle cx="794.4" cy="48.3" r="2.5" fill="#f6ad55" /><circle cx="855.7" cy="45.8" r="2.5" fill="#f6ad55" /><circle cx="917.1" cy="44.3" r="2.5" fill="#f6ad55" />
  <text x="40" y="30" fill="#9aa6b2" font-size="12">Hourly rate: Molts (bars), Likes (line), Views (dots scaled)</text>
  <text x="40" y="310" fill="#9aa6b2" font-size="11">max rate ~787.56 / hour</text>
</svg>