<?xml version="1.0" encoding="UTF-8"?>
<svg xmlns="http://www.w3.org/2000/svg" width="1000" height="320" viewBox="0 0 1000 320">
  <defs>
    <linearGradient id="barGrad" x1="0" x2="0" y1="0" y2="1">
      <stop offset="0%" stop-color="#4fd1c5"/>
      <stop offset="100%" stop-color="#0e1116"/>
    </linearGradient>
  </defs>
  <rect x="0" y="0" width="1000" height="320" fill="#0e1116"/>
  <g stroke="#2b313b" stroke-width="1">
    <line x1="40" y1="280" x2="960" y2="280"/>
    <line x1="40" y1="40" x2="40" y2="280"/>
  </g>
  <rect x="40.0" y="264.5" width="32.5" height="15.5" rx="2" fill="url(#barGrad)" /><rect x="94.1" y="220.7" width="32.5" height="59.3" rx="2" fill="url(#barGrad)" /><rect x="148.2" y="231.9" width="32.5" height="48.1" rx="2" fill="url(#barGrad)" /><rect x="202.4" y="233.5" width="32.5" height="46.5" rx="2" fill="url(#barGrad)" /><rect x="256.5" y="207.5" width="32.5" height="72.5" rx="2" fill="url(#barGrad)" /><rect x="310.6" y="208.8" width="32.5" height="71.2" rx="2" fill="url(#barGrad)" /><rect x="364.7" y="213.4" width="32.5" height="66.6" rx="2" fill="url(#barGrad)" /><rect x="418.8" y="174.0" width="32.5" height="106.0" rx="2" fill="url(#barGrad)" /><rect x="472.9" y="230.4" width="32.5" height="49.6" rx="2" fill="url(#barGrad)" /><rect x="527.1" y="198.0" width="32.5" height="82.0" rx="2" fill="url(#barGrad)" /><rect x="581.2" y="201.8" width="32.5" height="78.2" rx="2" fill="url(#barGrad)" /><rect x="635.3" y="216.3" width="32.5" height="63.7" rx="2" fill="url(#barGrad)" /><rect x="689.4" y="184.6" width="32.5" height="95.4" rx="2" fill="url(#barGrad)" /><rect x="743.5" y="200.4" width="32.5" height="79.6" rx="2" fill="url(#barGrad)" /><rect x="797.6" y="202.7" width="32.5" height="77.3" rx="2" fill="url(#barGrad)" /><rect x="851.8" y="204.2" width="32.5" height="75.8" rx="2" fill="url(#barGrad)" /><rect x="905.9" y="224.9" width="32.5" height="55.1" rx="2" fill="url(#barGrad)" />
  <polyline fill="none" stroke="#63b3ed" stroke-width="2" points="56.2,235.0 110.4,140.1 164.5,173.8 218.6,183.0 272.7,137.6 326.8,154.7 380.9,166.8 435.1,40.0 489.2,187.6 543.3,140.9 597.4,137.7 651.5,175.7 705.6,171.1 759.8,159.9 813.9,180.6 868.0,175.4 922.1,149.4"/>
  <circle cx="56.2" cy="40.0" r="2.5" fill="#f6ad55" /><circle cx="110.4" cy="146.0" r="2.5" fill="#f6ad55" /><circle cx="164.5" cy="152.3" r="2.5" fill="#f6ad55" /><circle cx="218.6" cy="149.4" r="2.5" fill="#f6ad55" /><circle cx="272.7" cy="145.5" r="2.5" fill="#f6ad55" /><circle cx="326.8" cy="139.4" r="2.5" fill="#f6ad55" /><circle cx="380.9" cy="142.2" r="2.5" fill="#f6ad55" /><circle cx="435.1" cy="140.4" r="2.5" fill="#f6ad55" /><circle cx="489.2" cy="139.0" r="2.5" fill="#f6ad55" /><circle cx="543.3" cy="158.4" r="2.5" fill="#f6ad55" /><circle cx="597.4" cy="153.8" r="2.5" fill="#f6ad55" /><circle cx="651.5" cy="147.6" r="2.5" fill="#f6ad55" /><circle cx="705.6" cy="164.1" r="2.5" fill="#f6ad55" /><circle cx="759.8" cy="166.0" r="2.5" fill="#f6ad55" /><circle cx="813.9" cy="144.8" r="2.5" fill="#f6ad55" /><circle cx="868.0" cy="171.0" r="2.5" fill="#f6ad55" /><circle cx="922.1" cy="173.3" r="2.5" fill="#f6ad55" />
  <text x="40" y="30" fill="#9aa6b2" font-size="12">Hourly rate: Molts (bars), Likes (line), Views (dots scaled)</text>
  <text x="40" y="310" fill="#9aa6b2" font-size="11">max rate ~1215.79 / hour</text>
</svg>