<?xml version="1.0" encoding="UTF-8"?>
<svg xmlns="http://www.w3.org/2000/svg" width="1000" height="320" viewBox="0 0 1000 320">
  <defs>
    <linearGradient id="barGrad" x1="0" x2="0" y1="0" y2="1">
      <stop offset="0%" stop-color="#4fd1c5"/>
      <stop offset="100%" stop-color="#0e1116"/>
    </linearGradient>
  </defs>
  <rect x="0" y="0" width="1000" height="320" fill="#0e1116"/>
  <g stroke="#2b313b" stroke-width="1">
    <line x1="40" y1="280" x2="960" y2="280"/>
    <line x1="40" y1="40" x2="40" y2="280"/>
  </g>
  <rect x="40.0" y="142.3" width="29.1" height="137.7" rx="2" fill="url(#barGrad)" /><rect x="88.4" y="157.3" width="29.1" height="122.7" rx="2" fill="url(#barGrad)" /><rect x="136.8" y="158.1" width="29.1" height="121.9" rx="2" fill="url(#barGrad)" /><rect x="185.3" y="188.3" width="29.1" height="91.7" rx="2" fill="url(#barGrad)" /><rect x="233.7" y="183.0" width="29.1" height="97.0" rx="2" fill="url(#barGrad)" /><rect x="282.1" y="148.2" width="29.1" height="131.8" rx="2" fill="url(#barGrad)" /><rect x="330.5" y="164.6" width="29.1" height="115.4" rx="2" fill="url(#barGrad)" /><rect x="378.9" y="156.8" width="29.1" height="123.2" rx="2" fill="url(#barGrad)" /><rect x="427.4" y="171.3" width="29.1" height="108.7" rx="2" fill="url(#barGrad)" /><rect x="475.8" y="169.6" width="29.1" height="110.4" rx="2" fill="url(#barGrad)" /><rect x="524.2" y="171.2" width="29.1" height="108.8" rx="2" fill="url(#barGrad)" /><rect x="572.6" y="182.6" width="29.1" height="97.4" rx="2" fill="url(#barGrad)" /><rect x="621.1" y="176.0" width="29.1" height="104.0" rx="2" fill="url(#barGrad)" /><rect x="669.5" y="162.2" width="29.1" height="117.8" rx="2" fill="url(#barGrad)" /><rect x="717.9" y="178.8" width="29.1" height="101.2" rx="2" fill="url(#barGrad)" /><rect x="766.3" y="195.0" width="29.1" height="85.0" rx="2" fill="url(#barGrad)" /><rect x="814.7" y="204.1" width="29.1" height="75.9" rx="2" fill="url(#barGrad)" /><rect x="863.2" y="190.0" width="29.1" height="90.0" rx="2" fill="url(#barGrad)" /><rect x="911.6" y="220.2" width="29.1" height="59.8" rx="2" fill="url(#barGrad)" />
  <polyline fill="none" stroke="#63b3ed" stroke-width="2" points="54.5,82.1 102.9,50.2 151.4,63.7 199.8,96.9 248.2,85.6 296.6,63.0 345.1,40.0 393.5,46.4 441.9,73.6 490.3,67.4 538.7,75.5 587.2,87.6 635.6,93.3 684.0,43.8 732.4,75.0 780.8,108.4 829.3,145.3 877.7,89.6 926.1,132.9"/>
  <circle cx="54.5" cy="79.1" r="2.5" fill="#f6ad55" /><circle cx="102.9" cy="83.9" r="2.5" fill="#f6ad55" /><circle cx="151.4" cy="55.0" r="2.5" fill="#f6ad55" /><circle cx="199.8" cy="40.0" r="2.5" fill="#f6ad55" /><circle cx="248.2" cy="83.5" r="2.5" fill="#f6ad55" /><circle cx="296.6" cy="93.5" r="2.5" fill="#f6ad55" /><circle cx="345.1" cy="92.6" r="2.5" fill="#f6ad55" /><circle cx="393.5" cy="95.5" r="2.5" fill="#f6ad55" /><circle cx="441.9" cy="112.8" r="2.5" fill="#f6ad55" /><circle cx="490.3" cy="124.4" r="2.5" fill="#f6ad55" /><circle cx="538.7" cy="98.5" r="2.5" fill="#f6ad55" /><circle cx="587.2" cy="97.2" r="2.5" fill="#f6ad55" /><circle cx="635.6" cy="84.7" r="2.5" fill="#f6ad55" /><circle cx="684.0" cy="95.0" r="2.5" fill="#f6ad55" /><circle cx="732.4" cy="115.3" r="2.5" fill="#f6ad55" /><circle cx="780.8" cy="92.8" r="2.5" fill="#f6ad55" /><circle cx="829.3" cy="103.9" r="2.5" fill="#f6ad55" /><circle cx="877.7" cy="77.2" r="2.5" fill="#f6ad55" /><circle cx="926.1" cy="89.5" r="2.5" fill="#f6ad55" />
  <text x="40" y="30" fill="#9aa6b2" font-size="12">Hourly rate: Molts (bars), Likes (line), Views (dots scaled)</text>
  <text x="40" y="310" fill="#9aa6b2" font-size="11">max rate ~718.37 / hour</text>
</svg>