<?xml version="1.0" encoding="UTF-8"?>
<svg xmlns="http://www.w3.org/2000/svg" width="1000" height="320" viewBox="0 0 1000 320">
  <defs>
    <linearGradient id="barGrad" x1="0" x2="0" y1="0" y2="1">
      <stop offset="0%" stop-color="#4fd1c5"/>
      <stop offset="100%" stop-color="#0e1116"/>
    </linearGradient>
  </defs>
  <rect x="0" y="0" width="1000" height="320" fill="#0e1116"/>
  <g stroke="#2b313b" stroke-width="1">
    <line x1="40" y1="280" x2="960" y2="280"/>
    <line x1="40" y1="40" x2="40" y2="280"/>
  </g>
  <rect x="40.0" y="216.2" width="29.1" height="63.8" rx="2" fill="url(#barGrad)" /><rect x="88.4" y="161.3" width="29.1" height="118.7" rx="2" fill="url(#barGrad)" /><rect x="136.8" y="191.1" width="29.1" height="88.9" rx="2" fill="url(#barGrad)" /><rect x="185.3" y="182.4" width="29.1" height="97.6" rx="2" fill="url(#barGrad)" /><rect x="233.7" y="154.9" width="29.1" height="125.1" rx="2" fill="url(#barGrad)" /><rect x="282.1" y="114.3" width="29.1" height="165.7" rx="2" fill="url(#barGrad)" /><rect x="330.5" y="144.5" width="29.1" height="135.5" rx="2" fill="url(#barGrad)" /><rect x="378.9" y="171.3" width="29.1" height="108.7" rx="2" fill="url(#barGrad)" /><rect x="427.4" y="171.5" width="29.1" height="108.5" rx="2" fill="url(#barGrad)" /><rect x="475.8" y="157.5" width="29.1" height="122.5" rx="2" fill="url(#barGrad)" /><rect x="524.2" y="138.2" width="29.1" height="141.8" rx="2" fill="url(#barGrad)" /><rect x="572.6" y="159.9" width="29.1" height="120.1" rx="2" fill="url(#barGrad)" /><rect x="621.1" y="162.1" width="29.1" height="117.9" rx="2" fill="url(#barGrad)" /><rect x="669.5" y="165.9" width="29.1" height="114.1" rx="2" fill="url(#barGrad)" /><rect x="717.9" y="146.0" width="29.1" height="134.0" rx="2" fill="url(#barGrad)" /><rect x="766.3" y="156.5" width="29.1" height="123.5" rx="2" fill="url(#barGrad)" /><rect x="814.7" y="166.7" width="29.1" height="113.3" rx="2" fill="url(#barGrad)" /><rect x="863.2" y="168.8" width="29.1" height="111.2" rx="2" fill="url(#barGrad)" /><rect x="911.6" y="151.5" width="29.1" height="128.5" rx="2" fill="url(#barGrad)" />
  <polyline fill="none" stroke="#63b3ed" stroke-width="2" points="54.5,129.4 102.9,40.0 151.4,68.7 199.8,79.1 248.2,89.6 296.6,67.1 345.1,93.0 393.5,77.7 441.9,77.5 490.3,123.0 538.7,110.7 587.2,75.0 635.6,111.4 684.0,106.1 732.4,89.7 780.8,92.8 829.3,68.3 877.7,69.3 926.1,51.0"/>
  <circle cx="54.5" cy="69.9" r="2.5" fill="#f6ad55" /><circle cx="102.9" cy="85.0" r="2.5" fill="#f6ad55" /><circle cx="151.4" cy="83.1" r="2.5" fill="#f6ad55" /><circle cx="199.8" cy="70.1" r="2.5" fill="#f6ad55" /><circle cx="248.2" cy="52.2" r="2.5" fill="#f6ad55" /><circle cx="296.6" cy="44.4" r="2.5" fill="#f6ad55" /><circle cx="345.1" cy="54.8" r="2.5" fill="#f6ad55" /><circle cx="393.5" cy="78.2" r="2.5" fill="#f6ad55" /><circle cx="441.9" cy="72.1" r="2.5" fill="#f6ad55" /><circle cx="490.3" cy="70.0" r="2.5" fill="#f6ad55" /><circle cx="538.7" cy="62.4" r="2.5" fill="#f6ad55" /><circle cx="587.2" cy="66.5" r="2.5" fill="#f6ad55" /><circle cx="635.6" cy="49.8" r="2.5" fill="#f6ad55" /><circle cx="684.0" cy="40.0" r="2.5" fill="#f6ad55" /><circle cx="732.4" cy="62.0" r="2.5" fill="#f6ad55" /><circle cx="780.8" cy="70.6" r="2.5" fill="#f6ad55" /><circle cx="829.3" cy="73.0" r="2.5" fill="#f6ad55" /><circle cx="877.7" cy="80.9" r="2.5" fill="#f6ad55" /><circle cx="926.1" cy="85.3" r="2.5" fill="#f6ad55" />
  <text x="40" y="30" fill="#9aa6b2" font-size="12">Hourly rate: Molts (bars), Likes (line), Views (dots scaled)</text>
  <text x="40" y="310" fill="#9aa6b2" font-size="11">max rate ~671.63 / hour</text>
</svg>