<?xml version="1.0" encoding="UTF-8"?>
<svg xmlns="http://www.w3.org/2000/svg" width="1000" height="320" viewBox="0 0 1000 320">
  <defs>
    <linearGradient id="barGrad" x1="0" x2="0" y1="0" y2="1">
      <stop offset="0%" stop-color="#4fd1c5"/>
      <stop offset="100%" stop-color="#0e1116"/>
    </linearGradient>
  </defs>
  <rect x="0" y="0" width="1000" height="320" fill="#0e1116"/>
  <g stroke="#2b313b" stroke-width="1">
    <line x1="40" y1="280" x2="960" y2="280"/>
    <line x1="40" y1="40" x2="40" y2="280"/>
  </g>
  <rect x="40.0" y="40.0" width="34.5" height="240.0" rx="2" fill="url(#barGrad)" /><rect x="97.5" y="130.6" width="34.5" height="149.4" rx="2" fill="url(#barGrad)" /><rect x="155.0" y="264.2" width="34.5" height="15.8" rx="2" fill="url(#barGrad)" /><rect x="212.5" y="263.6" width="34.5" height="16.4" rx="2" fill="url(#barGrad)" /><rect x="270.0" y="259.3" width="34.5" height="20.7" rx="2" fill="url(#barGrad)" /><rect x="327.5" y="256.8" width="34.5" height="23.2" rx="2" fill="url(#barGrad)" /><rect x="385.0" y="263.6" width="34.5" height="16.4" rx="2" fill="url(#barGrad)" /><rect x="442.5" y="258.7" width="34.5" height="21.3" rx="2" fill="url(#barGrad)" /><rect x="500.0" y="262.3" width="34.5" height="17.7" rx="2" fill="url(#barGrad)" /><rect x="557.5" y="258.4" width="34.5" height="21.6" rx="2" fill="url(#barGrad)" /><rect x="615.0" y="258.7" width="34.5" height="21.3" rx="2" fill="url(#barGrad)" /><rect x="672.5" y="233.1" width="34.5" height="46.9" rx="2" fill="url(#barGrad)" /><rect x="730.0" y="178.1" width="34.5" height="101.9" rx="2" fill="url(#barGrad)" /><rect x="787.5" y="236.0" width="34.5" height="44.0" rx="2" fill="url(#barGrad)" /><rect x="845.0" y="590.6" width="34.5" height="-310.6" rx="2" fill="url(#barGrad)" /><rect x="902.5" y="265.9" width="34.5" height="14.1" rx="2" fill="url(#barGrad)" />
  <polyline fill="none" stroke="#63b3ed" stroke-width="2" points="57.3,239.6 114.8,244.1 172.3,242.8 229.8,249.5 287.3,241.8 344.8,249.3 402.3,245.9 459.8,253.0 517.3,256.6 574.8,247.6 632.3,246.5 689.8,243.3 747.3,239.7 804.8,222.8 862.3,252.3 919.8,251.6"/>
  <circle cx="57.3" cy="58.4" r="2.5" fill="#f6ad55" /><circle cx="114.8" cy="41.8" r="2.5" fill="#f6ad55" /><circle cx="172.3" cy="54.4" r="2.5" fill="#f6ad55" /><circle cx="229.8" cy="48.0" r="2.5" fill="#f6ad55" /><circle cx="287.3" cy="45.2" r="2.5" fill="#f6ad55" /><circle cx="344.8" cy="40.0" r="2.5" fill="#f6ad55" /><circle cx="402.3" cy="56.2" r="2.5" fill="#f6ad55" /><circle cx="459.8" cy="73.1" r="2.5" fill="#f6ad55" /><circle cx="517.3" cy="66.2" r="2.5" fill="#f6ad55" /><circle cx="574.8" cy="90.5" r="2.5" fill="#f6ad55" /><circle cx="632.3" cy="74.6" r="2.5" fill="#f6ad55" /><circle cx="689.8" cy="80.2" r="2.5" fill="#f6ad55" /><circle cx="747.3" cy="53.3" r="2.5" fill="#f6ad55" /><circle cx="804.8" cy="89.8" r="2.5" fill="#f6ad55" /><circle cx="862.3" cy="87.4" r="2.5" fill="#f6ad55" /><circle cx="919.8" cy="99.3" r="2.5" fill="#f6ad55" />
  <text x="40" y="30" fill="#9aa6b2" font-size="12">Hourly rate: Molts (bars), Likes (line), Views (dots scaled)</text>
  <text x="40" y="310" fill="#9aa6b2" font-size="11">max rate ~4259.25 / hour</text>
</svg>