<?xml version="1.0" encoding="UTF-8"?>
<svg xmlns="http://www.w3.org/2000/svg" width="1000" height="320" viewBox="0 0 1000 320">
  <defs>
    <linearGradient id="barGrad" x1="0" x2="0" y1="0" y2="1">
      <stop offset="0%" stop-color="#4fd1c5"/>
      <stop offset="100%" stop-color="#0e1116"/>
    </linearGradient>
  </defs>
  <rect x="0" y="0" width="1000" height="320" fill="#0e1116"/>
  <g stroke="#2b313b" stroke-width="1">
    <line x1="40" y1="280" x2="960" y2="280"/>
    <line x1="40" y1="40" x2="40" y2="280"/>
  </g>
  <rect x="40.0" y="255.1" width="27.6" height="24.9" rx="2" fill="url(#barGrad)" /><rect x="86.0" y="190.5" width="27.6" height="89.5" rx="2" fill="url(#barGrad)" /><rect x="132.0" y="210.2" width="27.6" height="69.8" rx="2" fill="url(#barGrad)" /><rect x="178.0" y="196.7" width="27.6" height="83.3" rx="2" fill="url(#barGrad)" /><rect x="224.0" y="191.2" width="27.6" height="88.8" rx="2" fill="url(#barGrad)" /><rect x="270.0" y="181.7" width="27.6" height="98.3" rx="2" fill="url(#barGrad)" /><rect x="316.0" y="170.7" width="27.6" height="109.3" rx="2" fill="url(#barGrad)" /><rect x="362.0" y="170.1" width="27.6" height="109.9" rx="2" fill="url(#barGrad)" /><rect x="408.0" y="206.2" width="27.6" height="73.8" rx="2" fill="url(#barGrad)" /><rect x="454.0" y="198.1" width="27.6" height="81.9" rx="2" fill="url(#barGrad)" /><rect x="500.0" y="189.9" width="27.6" height="90.1" rx="2" fill="url(#barGrad)" /><rect x="546.0" y="193.8" width="27.6" height="86.2" rx="2" fill="url(#barGrad)" /><rect x="592.0" y="182.9" width="27.6" height="97.1" rx="2" fill="url(#barGrad)" /><rect x="638.0" y="172.8" width="27.6" height="107.2" rx="2" fill="url(#barGrad)" /><rect x="684.0" y="152.8" width="27.6" height="127.2" rx="2" fill="url(#barGrad)" /><rect x="730.0" y="130.5" width="27.6" height="149.5" rx="2" fill="url(#barGrad)" /><rect x="776.0" y="173.5" width="27.6" height="106.5" rx="2" fill="url(#barGrad)" /><rect x="822.0" y="193.1" width="27.6" height="86.9" rx="2" fill="url(#barGrad)" /><rect x="868.0" y="207.6" width="27.6" height="72.4" rx="2" fill="url(#barGrad)" /><rect x="914.0" y="157.8" width="27.6" height="122.2" rx="2" fill="url(#barGrad)" />
  <polyline fill="none" stroke="#63b3ed" stroke-width="2" points="53.8,197.2 99.8,59.3 145.8,90.7 191.8,65.9 237.8,70.7 283.8,57.9 329.8,40.0 375.8,51.3 421.8,133.5 467.8,111.0 513.8,112.9 559.8,87.0 605.8,62.2 651.8,63.4 697.8,59.0 743.8,47.2 789.8,85.2 835.8,85.2 881.8,117.1 927.8,43.0"/>
  <circle cx="53.8" cy="106.2" r="2.5" fill="#f6ad55" /><circle cx="99.8" cy="101.0" r="2.5" fill="#f6ad55" /><circle cx="145.8" cy="84.0" r="2.5" fill="#f6ad55" /><circle cx="191.8" cy="58.5" r="2.5" fill="#f6ad55" /><circle cx="237.8" cy="62.7" r="2.5" fill="#f6ad55" /><circle cx="283.8" cy="40.0" r="2.5" fill="#f6ad55" /><circle cx="329.8" cy="50.2" r="2.5" fill="#f6ad55" /><circle cx="375.8" cy="50.7" r="2.5" fill="#f6ad55" /><circle cx="421.8" cy="70.0" r="2.5" fill="#f6ad55" /><circle cx="467.8" cy="78.6" r="2.5" fill="#f6ad55" /><circle cx="513.8" cy="90.7" r="2.5" fill="#f6ad55" /><circle cx="559.8" cy="90.6" r="2.5" fill="#f6ad55" /><circle cx="605.8" cy="94.7" r="2.5" fill="#f6ad55" /><circle cx="651.8" cy="103.9" r="2.5" fill="#f6ad55" /><circle cx="697.8" cy="112.5" r="2.5" fill="#f6ad55" /><circle cx="743.8" cy="86.3" r="2.5" fill="#f6ad55" /><circle cx="789.8" cy="93.6" r="2.5" fill="#f6ad55" /><circle cx="835.8" cy="78.3" r="2.5" fill="#f6ad55" /><circle cx="881.8" cy="54.1" r="2.5" fill="#f6ad55" /><circle cx="927.8" cy="70.0" r="2.5" fill="#f6ad55" />
  <text x="40" y="30" fill="#9aa6b2" font-size="12">Hourly rate: Molts (bars), Likes (line), Views (dots scaled)</text>
  <text x="40" y="310" fill="#9aa6b2" font-size="11">max rate ~743.65 / hour</text>
</svg>