<?xml version="1.0" encoding="UTF-8"?>
<svg xmlns="http://www.w3.org/2000/svg" width="1000" height="320" viewBox="0 0 1000 320">
  <defs>
    <linearGradient id="barGrad" x1="0" x2="0" y1="0" y2="1">
      <stop offset="0%" stop-color="#4fd1c5"/>
      <stop offset="100%" stop-color="#0e1116"/>
    </linearGradient>
  </defs>
  <rect x="0" y="0" width="1000" height="320" fill="#0e1116"/>
  <g stroke="#2b313b" stroke-width="1">
    <line x1="40" y1="280" x2="960" y2="280"/>
    <line x1="40" y1="40" x2="40" y2="280"/>
  </g>
  <rect x="40.0" y="237.1" width="46.0" height="42.9" rx="2" fill="url(#barGrad)" /><rect x="116.7" y="183.9" width="46.0" height="96.1" rx="2" fill="url(#barGrad)" /><rect x="193.3" y="167.4" width="46.0" height="112.6" rx="2" fill="url(#barGrad)" /><rect x="270.0" y="151.9" width="46.0" height="128.1" rx="2" fill="url(#barGrad)" /><rect x="346.7" y="135.5" width="46.0" height="144.5" rx="2" fill="url(#barGrad)" /><rect x="423.3" y="200.1" width="46.0" height="79.9" rx="2" fill="url(#barGrad)" /><rect x="500.0" y="212.0" width="46.0" height="68.0" rx="2" fill="url(#barGrad)" /><rect x="576.7" y="202.3" width="46.0" height="77.7" rx="2" fill="url(#barGrad)" /><rect x="653.3" y="205.0" width="46.0" height="75.0" rx="2" fill="url(#barGrad)" /><rect x="730.0" y="195.7" width="46.0" height="84.3" rx="2" fill="url(#barGrad)" /><rect x="806.7" y="181.9" width="46.0" height="98.1" rx="2" fill="url(#barGrad)" /><rect x="883.3" y="207.4" width="46.0" height="72.6" rx="2" fill="url(#barGrad)" />
  <polyline fill="none" stroke="#63b3ed" stroke-width="2" points="63.0,167.8 139.7,44.0 216.3,40.0 293.0,104.6 369.7,95.7 446.3,83.5 523.0,116.1 599.7,103.8 676.3,113.8 753.0,90.7 829.7,79.4 906.3,84.3"/>
  <circle cx="63.0" cy="74.1" r="2.5" fill="#f6ad55" /><circle cx="139.7" cy="56.1" r="2.5" fill="#f6ad55" /><circle cx="216.3" cy="59.8" r="2.5" fill="#f6ad55" /><circle cx="293.0" cy="68.5" r="2.5" fill="#f6ad55" /><circle cx="369.7" cy="72.9" r="2.5" fill="#f6ad55" /><circle cx="446.3" cy="62.1" r="2.5" fill="#f6ad55" /><circle cx="523.0" cy="76.4" r="2.5" fill="#f6ad55" /><circle cx="599.7" cy="51.8" r="2.5" fill="#f6ad55" /><circle cx="676.3" cy="40.0" r="2.5" fill="#f6ad55" /><circle cx="753.0" cy="67.3" r="2.5" fill="#f6ad55" /><circle cx="829.7" cy="46.1" r="2.5" fill="#f6ad55" /><circle cx="906.3" cy="70.1" r="2.5" fill="#f6ad55" />
  <text x="40" y="30" fill="#9aa6b2" font-size="12">Hourly rate: Molts (bars), Likes (line), Views (dots scaled)</text>
  <text x="40" y="310" fill="#9aa6b2" font-size="11">max rate ~761.42 / hour</text>
</svg>