<?xml version="1.0" encoding="UTF-8"?>
<svg xmlns="http://www.w3.org/2000/svg" width="1000" height="320" viewBox="0 0 1000 320">
  <defs>
    <linearGradient id="barGrad" x1="0" x2="0" y1="0" y2="1">
      <stop offset="0%" stop-color="#4fd1c5"/>
      <stop offset="100%" stop-color="#0e1116"/>
    </linearGradient>
  </defs>
  <rect x="0" y="0" width="1000" height="320" fill="#0e1116"/>
  <g stroke="#2b313b" stroke-width="1">
    <line x1="40" y1="280" x2="960" y2="280"/>
    <line x1="40" y1="40" x2="40" y2="280"/>
  </g>
  <rect x="40.0" y="147.8" width="50.2" height="132.2" rx="2" fill="url(#barGrad)" /><rect x="123.6" y="162.2" width="50.2" height="117.8" rx="2" fill="url(#barGrad)" /><rect x="207.3" y="162.9" width="50.2" height="117.1" rx="2" fill="url(#barGrad)" /><rect x="290.9" y="191.9" width="50.2" height="88.1" rx="2" fill="url(#barGrad)" /><rect x="374.5" y="186.8" width="50.2" height="93.2" rx="2" fill="url(#barGrad)" /><rect x="458.2" y="153.4" width="50.2" height="126.6" rx="2" fill="url(#barGrad)" /><rect x="541.8" y="169.2" width="50.2" height="110.8" rx="2" fill="url(#barGrad)" /><rect x="625.5" y="161.7" width="50.2" height="118.3" rx="2" fill="url(#barGrad)" /><rect x="709.1" y="175.7" width="50.2" height="104.3" rx="2" fill="url(#barGrad)" /><rect x="792.7" y="174.0" width="50.2" height="106.0" rx="2" fill="url(#barGrad)" /><rect x="876.4" y="162.0" width="50.2" height="118.0" rx="2" fill="url(#barGrad)" />
  <polyline fill="none" stroke="#63b3ed" stroke-width="2" points="65.1,89.9 148.7,59.3 232.4,72.3 316.0,104.1 399.6,93.3 483.3,71.7 566.9,49.5 650.5,55.7 734.2,81.8 817.8,75.8 901.5,40.0"/>
  <circle cx="65.1" cy="79.1" r="2.5" fill="#f6ad55" /><circle cx="148.7" cy="83.9" r="2.5" fill="#f6ad55" /><circle cx="232.4" cy="55.0" r="2.5" fill="#f6ad55" /><circle cx="316.0" cy="40.0" r="2.5" fill="#f6ad55" /><circle cx="399.6" cy="83.5" r="2.5" fill="#f6ad55" /><circle cx="483.3" cy="93.5" r="2.5" fill="#f6ad55" /><circle cx="566.9" cy="92.6" r="2.5" fill="#f6ad55" /><circle cx="650.5" cy="95.5" r="2.5" fill="#f6ad55" /><circle cx="734.2" cy="112.8" r="2.5" fill="#f6ad55" /><circle cx="817.8" cy="124.4" r="2.5" fill="#f6ad55" /><circle cx="901.5" cy="115.9" r="2.5" fill="#f6ad55" />
  <text x="40" y="30" fill="#9aa6b2" font-size="12">Hourly rate: Molts (bars), Likes (line), Views (dots scaled)</text>
  <text x="40" y="310" fill="#9aa6b2" font-size="11">max rate ~748.05 / hour</text>
</svg>