<?xml version="1.0" encoding="UTF-8"?>
<svg xmlns="http://www.w3.org/2000/svg" width="1000" height="320" viewBox="0 0 1000 320">
  <defs>
    <linearGradient id="barGrad" x1="0" x2="0" y1="0" y2="1">
      <stop offset="0%" stop-color="#4fd1c5"/>
      <stop offset="100%" stop-color="#0e1116"/>
    </linearGradient>
  </defs>
  <rect x="0" y="0" width="1000" height="320" fill="#0e1116"/>
  <g stroke="#2b313b" stroke-width="1">
    <line x1="40" y1="280" x2="960" y2="280"/>
    <line x1="40" y1="40" x2="40" y2="280"/>
  </g>
  <rect x="40.0" y="255.1" width="42.5" height="24.9" rx="2" fill="url(#barGrad)" /><rect x="110.8" y="190.5" width="42.5" height="89.5" rx="2" fill="url(#barGrad)" /><rect x="181.5" y="210.2" width="42.5" height="69.8" rx="2" fill="url(#barGrad)" /><rect x="252.3" y="196.7" width="42.5" height="83.3" rx="2" fill="url(#barGrad)" /><rect x="323.1" y="191.2" width="42.5" height="88.8" rx="2" fill="url(#barGrad)" /><rect x="393.8" y="181.7" width="42.5" height="98.3" rx="2" fill="url(#barGrad)" /><rect x="464.6" y="170.7" width="42.5" height="109.3" rx="2" fill="url(#barGrad)" /><rect x="535.4" y="170.1" width="42.5" height="109.9" rx="2" fill="url(#barGrad)" /><rect x="606.2" y="206.2" width="42.5" height="73.8" rx="2" fill="url(#barGrad)" /><rect x="676.9" y="198.1" width="42.5" height="81.9" rx="2" fill="url(#barGrad)" /><rect x="747.7" y="189.9" width="42.5" height="90.1" rx="2" fill="url(#barGrad)" /><rect x="818.5" y="193.8" width="42.5" height="86.2" rx="2" fill="url(#barGrad)" /><rect x="889.2" y="182.9" width="42.5" height="97.1" rx="2" fill="url(#barGrad)" />
  <polyline fill="none" stroke="#63b3ed" stroke-width="2" points="61.2,197.2 132.0,59.3 202.8,90.7 273.5,65.9 344.3,70.7 415.1,57.9 485.8,40.0 556.6,51.3 627.4,133.5 698.2,111.0 768.9,112.9 839.7,87.0 910.5,62.2"/>
  <circle cx="61.2" cy="106.2" r="2.5" fill="#f6ad55" /><circle cx="132.0" cy="101.0" r="2.5" fill="#f6ad55" /><circle cx="202.8" cy="84.0" r="2.5" fill="#f6ad55" /><circle cx="273.5" cy="58.5" r="2.5" fill="#f6ad55" /><circle cx="344.3" cy="62.7" r="2.5" fill="#f6ad55" /><circle cx="415.1" cy="40.0" r="2.5" fill="#f6ad55" /><circle cx="485.8" cy="50.2" r="2.5" fill="#f6ad55" /><circle cx="556.6" cy="50.7" r="2.5" fill="#f6ad55" /><circle cx="627.4" cy="70.0" r="2.5" fill="#f6ad55" /><circle cx="698.2" cy="78.6" r="2.5" fill="#f6ad55" /><circle cx="768.9" cy="90.7" r="2.5" fill="#f6ad55" /><circle cx="839.7" cy="90.6" r="2.5" fill="#f6ad55" /><circle cx="910.5" cy="94.7" r="2.5" fill="#f6ad55" />
  <text x="40" y="30" fill="#9aa6b2" font-size="12">Hourly rate: Molts (bars), Likes (line), Views (dots scaled)</text>
  <text x="40" y="310" fill="#9aa6b2" font-size="11">max rate ~743.65 / hour</text>
</svg>