<?xml version="1.0" encoding="UTF-8"?>
<svg xmlns="http://www.w3.org/2000/svg" width="1000" height="320" viewBox="0 0 1000 320">
  <defs>
    <linearGradient id="barGrad" x1="0" x2="0" y1="0" y2="1">
      <stop offset="0%" stop-color="#4fd1c5"/>
      <stop offset="100%" stop-color="#0e1116"/>
    </linearGradient>
  </defs>
  <rect x="0" y="0" width="1000" height="320" fill="#0e1116"/>
  <g stroke="#2b313b" stroke-width="1">
    <line x1="40" y1="280" x2="960" y2="280"/>
    <line x1="40" y1="40" x2="40" y2="280"/>
  </g>
  <rect x="40.0" y="40.0" width="46.0" height="240.0" rx="2" fill="url(#barGrad)" /><rect x="116.7" y="130.6" width="46.0" height="149.4" rx="2" fill="url(#barGrad)" /><rect x="193.3" y="264.2" width="46.0" height="15.8" rx="2" fill="url(#barGrad)" /><rect x="270.0" y="263.6" width="46.0" height="16.4" rx="2" fill="url(#barGrad)" /><rect x="346.7" y="259.3" width="46.0" height="20.7" rx="2" fill="url(#barGrad)" /><rect x="423.3" y="256.8" width="46.0" height="23.2" rx="2" fill="url(#barGrad)" /><rect x="500.0" y="263.6" width="46.0" height="16.4" rx="2" fill="url(#barGrad)" /><rect x="576.7" y="258.7" width="46.0" height="21.3" rx="2" fill="url(#barGrad)" /><rect x="653.3" y="262.3" width="46.0" height="17.7" rx="2" fill="url(#barGrad)" /><rect x="730.0" y="258.4" width="46.0" height="21.6" rx="2" fill="url(#barGrad)" /><rect x="806.7" y="258.7" width="46.0" height="21.3" rx="2" fill="url(#barGrad)" /><rect x="883.3" y="233.1" width="46.0" height="46.9" rx="2" fill="url(#barGrad)" />
  <polyline fill="none" stroke="#63b3ed" stroke-width="2" points="63.0,239.6 139.7,244.1 216.3,242.8 293.0,249.5 369.7,241.8 446.3,249.3 523.0,245.9 599.7,253.0 676.3,256.6 753.0,247.6 829.7,246.5 906.3,243.3"/>
  <circle cx="63.0" cy="58.4" r="2.5" fill="#f6ad55" /><circle cx="139.7" cy="41.8" r="2.5" fill="#f6ad55" /><circle cx="216.3" cy="54.4" r="2.5" fill="#f6ad55" /><circle cx="293.0" cy="48.0" r="2.5" fill="#f6ad55" /><circle cx="369.7" cy="45.2" r="2.5" fill="#f6ad55" /><circle cx="446.3" cy="40.0" r="2.5" fill="#f6ad55" /><circle cx="523.0" cy="56.2" r="2.5" fill="#f6ad55" /><circle cx="599.7" cy="73.1" r="2.5" fill="#f6ad55" /><circle cx="676.3" cy="66.2" r="2.5" fill="#f6ad55" /><circle cx="753.0" cy="90.5" r="2.5" fill="#f6ad55" /><circle cx="829.7" cy="74.6" r="2.5" fill="#f6ad55" /><circle cx="906.3" cy="80.2" r="2.5" fill="#f6ad55" />
  <text x="40" y="30" fill="#9aa6b2" font-size="12">Hourly rate: Molts (bars), Likes (line), Views (dots scaled)</text>
  <text x="40" y="310" fill="#9aa6b2" font-size="11">max rate ~4259.25 / hour</text>
</svg>