<?xml version="1.0" encoding="UTF-8"?>
<svg xmlns="http://www.w3.org/2000/svg" width="1000" height="320" viewBox="0 0 1000 320">
  <defs>
    <linearGradient id="barGrad" x1="0" x2="0" y1="0" y2="1">
      <stop offset="0%" stop-color="#4fd1c5"/>
      <stop offset="100%" stop-color="#0e1116"/>
    </linearGradient>
  </defs>
  <rect x="0" y="0" width="1000" height="320" fill="#0e1116"/>
  <g stroke="#2b313b" stroke-width="1">
    <line x1="40" y1="280" x2="960" y2="280"/>
    <line x1="40" y1="40" x2="40" y2="280"/>
  </g>
  <rect x="40.0" y="224.9" width="27.6" height="55.1" rx="2" fill="url(#barGrad)" /><rect x="86.0" y="164.7" width="27.6" height="115.3" rx="2" fill="url(#barGrad)" /><rect x="132.0" y="174.8" width="27.6" height="105.2" rx="2" fill="url(#barGrad)" /><rect x="178.0" y="146.2" width="27.6" height="133.8" rx="2" fill="url(#barGrad)" /><rect x="224.0" y="166.8" width="27.6" height="113.2" rx="2" fill="url(#barGrad)" /><rect x="270.0" y="184.9" width="27.6" height="95.1" rx="2" fill="url(#barGrad)" /><rect x="316.0" y="170.5" width="27.6" height="109.5" rx="2" fill="url(#barGrad)" /><rect x="362.0" y="172.6" width="27.6" height="107.4" rx="2" fill="url(#barGrad)" /><rect x="408.0" y="150.6" width="27.6" height="129.4" rx="2" fill="url(#barGrad)" /><rect x="454.0" y="136.2" width="27.6" height="143.8" rx="2" fill="url(#barGrad)" /><rect x="500.0" y="105.7" width="27.6" height="174.3" rx="2" fill="url(#barGrad)" /><rect x="546.0" y="91.4" width="27.6" height="188.6" rx="2" fill="url(#barGrad)" /><rect x="592.0" y="145.1" width="27.6" height="134.9" rx="2" fill="url(#barGrad)" /><rect x="638.0" y="164.7" width="27.6" height="115.3" rx="2" fill="url(#barGrad)" /><rect x="684.0" y="158.4" width="27.6" height="121.6" rx="2" fill="url(#barGrad)" /><rect x="730.0" y="168.9" width="27.6" height="111.1" rx="2" fill="url(#barGrad)" /><rect x="776.0" y="180.2" width="27.6" height="99.8" rx="2" fill="url(#barGrad)" /><rect x="822.0" y="201.0" width="27.6" height="79.0" rx="2" fill="url(#barGrad)" /><rect x="868.0" y="199.2" width="27.6" height="80.8" rx="2" fill="url(#barGrad)" /><rect x="914.0" y="198.3" width="27.6" height="81.7" rx="2" fill="url(#barGrad)" />
  <polyline fill="none" stroke="#63b3ed" stroke-width="2" points="53.8,152.8 99.8,81.6 145.8,83.0 191.8,47.2 237.8,88.0 283.8,94.2 329.8,67.4 375.8,108.8 421.8,68.3 467.8,62.4 513.8,78.0 559.8,72.0 605.8,40.0 651.8,98.0 697.8,60.5 743.8,44.5 789.8,95.3 835.8,93.1 881.8,52.5 927.8,76.1"/>
  <circle cx="53.8" cy="40.0" r="2.5" fill="#f6ad55" /><circle cx="99.8" cy="161.6" r="2.5" fill="#f6ad55" /><circle cx="145.8" cy="145.5" r="2.5" fill="#f6ad55" /><circle cx="191.8" cy="146.2" r="2.5" fill="#f6ad55" /><circle cx="237.8" cy="141.6" r="2.5" fill="#f6ad55" /><circle cx="283.8" cy="148.6" r="2.5" fill="#f6ad55" /><circle cx="329.8" cy="160.2" r="2.5" fill="#f6ad55" /><circle cx="375.8" cy="157.9" r="2.5" fill="#f6ad55" /><circle cx="421.8" cy="155.3" r="2.5" fill="#f6ad55" /><circle cx="467.8" cy="129.4" r="2.5" fill="#f6ad55" /><circle cx="513.8" cy="126.4" r="2.5" fill="#f6ad55" /><circle cx="559.8" cy="117.0" r="2.5" fill="#f6ad55" /><circle cx="605.8" cy="130.2" r="2.5" fill="#f6ad55" /><circle cx="651.8" cy="156.1" r="2.5" fill="#f6ad55" /><circle cx="697.8" cy="160.1" r="2.5" fill="#f6ad55" /><circle cx="743.8" cy="151.8" r="2.5" fill="#f6ad55" /><circle cx="789.8" cy="169.2" r="2.5" fill="#f6ad55" /><circle cx="835.8" cy="162.8" r="2.5" fill="#f6ad55" /><circle cx="881.8" cy="155.5" r="2.5" fill="#f6ad55" /><circle cx="927.8" cy="136.8" r="2.5" fill="#f6ad55" />
  <text x="40" y="30" fill="#9aa6b2" font-size="12">Hourly rate: Molts (bars), Likes (line), Views (dots scaled)</text>
  <text x="40" y="310" fill="#9aa6b2" font-size="11">max rate ~729.33 / hour</text>
</svg>