<?xml version="1.0" encoding="UTF-8"?>
<svg xmlns="http://www.w3.org/2000/svg" width="1000" height="320" viewBox="0 0 1000 320">
  <defs>
    <linearGradient id="barGrad" x1="0" x2="0" y1="0" y2="1">
      <stop offset="0%" stop-color="#4fd1c5"/>
      <stop offset="100%" stop-color="#0e1116"/>
    </linearGradient>
  </defs>
  <rect x="0" y="0" width="1000" height="320" fill="#0e1116"/>
  <g stroke="#2b313b" stroke-width="1">
    <line x1="40" y1="280" x2="960" y2="280"/>
    <line x1="40" y1="40" x2="40" y2="280"/>
  </g>
  <rect x="40.0" y="264.5" width="30.7" height="15.5" rx="2" fill="url(#barGrad)" /><rect x="91.1" y="220.7" width="30.7" height="59.3" rx="2" fill="url(#barGrad)" /><rect x="142.2" y="231.9" width="30.7" height="48.1" rx="2" fill="url(#barGrad)" /><rect x="193.3" y="233.5" width="30.7" height="46.5" rx="2" fill="url(#barGrad)" /><rect x="244.4" y="207.5" width="30.7" height="72.5" rx="2" fill="url(#barGrad)" /><rect x="295.6" y="208.8" width="30.7" height="71.2" rx="2" fill="url(#barGrad)" /><rect x="346.7" y="213.4" width="30.7" height="66.6" rx="2" fill="url(#barGrad)" /><rect x="397.8" y="174.0" width="30.7" height="106.0" rx="2" fill="url(#barGrad)" /><rect x="448.9" y="230.4" width="30.7" height="49.6" rx="2" fill="url(#barGrad)" /><rect x="500.0" y="198.0" width="30.7" height="82.0" rx="2" fill="url(#barGrad)" /><rect x="551.1" y="201.8" width="30.7" height="78.2" rx="2" fill="url(#barGrad)" /><rect x="602.2" y="216.3" width="30.7" height="63.7" rx="2" fill="url(#barGrad)" /><rect x="653.3" y="184.6" width="30.7" height="95.4" rx="2" fill="url(#barGrad)" /><rect x="704.4" y="200.4" width="30.7" height="79.6" rx="2" fill="url(#barGrad)" /><rect x="755.6" y="202.7" width="30.7" height="77.3" rx="2" fill="url(#barGrad)" /><rect x="806.7" y="204.2" width="30.7" height="75.8" rx="2" fill="url(#barGrad)" /><rect x="857.8" y="210.9" width="30.7" height="69.1" rx="2" fill="url(#barGrad)" /><rect x="908.9" y="183.4" width="30.7" height="96.6" rx="2" fill="url(#barGrad)" />
  <polyline fill="none" stroke="#63b3ed" stroke-width="2" points="55.3,235.0 106.4,140.1 157.6,173.8 208.7,183.0 259.8,137.6 310.9,154.7 362.0,166.8 413.1,40.0 464.2,187.6 515.3,140.9 566.4,137.7 617.6,175.7 668.7,171.1 719.8,159.9 770.9,180.6 822.0,175.4 873.1,155.7 924.2,172.7"/>
  <circle cx="55.3" cy="40.0" r="2.5" fill="#f6ad55" /><circle cx="106.4" cy="146.0" r="2.5" fill="#f6ad55" /><circle cx="157.6" cy="152.3" r="2.5" fill="#f6ad55" /><circle cx="208.7" cy="149.4" r="2.5" fill="#f6ad55" /><circle cx="259.8" cy="145.5" r="2.5" fill="#f6ad55" /><circle cx="310.9" cy="139.4" r="2.5" fill="#f6ad55" /><circle cx="362.0" cy="142.2" r="2.5" fill="#f6ad55" /><circle cx="413.1" cy="140.4" r="2.5" fill="#f6ad55" /><circle cx="464.2" cy="139.0" r="2.5" fill="#f6ad55" /><circle cx="515.3" cy="158.4" r="2.5" fill="#f6ad55" /><circle cx="566.4" cy="153.8" r="2.5" fill="#f6ad55" /><circle cx="617.6" cy="147.6" r="2.5" fill="#f6ad55" /><circle cx="668.7" cy="164.1" r="2.5" fill="#f6ad55" /><circle cx="719.8" cy="166.0" r="2.5" fill="#f6ad55" /><circle cx="770.9" cy="144.8" r="2.5" fill="#f6ad55" /><circle cx="822.0" cy="171.0" r="2.5" fill="#f6ad55" /><circle cx="873.1" cy="170.4" r="2.5" fill="#f6ad55" /><circle cx="924.2" cy="162.8" r="2.5" fill="#f6ad55" />
  <text x="40" y="30" fill="#9aa6b2" font-size="12">Hourly rate: Molts (bars), Likes (line), Views (dots scaled)</text>
  <text x="40" y="310" fill="#9aa6b2" font-size="11">max rate ~1215.79 / hour</text>
</svg>