<?xml version="1.0" encoding="UTF-8"?>
<svg xmlns="http://www.w3.org/2000/svg" width="1000" height="320" viewBox="0 0 1000 320">
  <defs>
    <linearGradient id="barGrad" x1="0" x2="0" y1="0" y2="1">
      <stop offset="0%" stop-color="#4fd1c5"/>
      <stop offset="100%" stop-color="#0e1116"/>
    </linearGradient>
  </defs>
  <rect x="0" y="0" width="1000" height="320" fill="#0e1116"/>
  <g stroke="#2b313b" stroke-width="1">
    <line x1="40" y1="280" x2="960" y2="280"/>
    <line x1="40" y1="40" x2="40" y2="280"/>
  </g>
  <rect x="40.0" y="255.1" width="32.5" height="24.9" rx="2" fill="url(#barGrad)" /><rect x="94.1" y="190.5" width="32.5" height="89.5" rx="2" fill="url(#barGrad)" /><rect x="148.2" y="210.2" width="32.5" height="69.8" rx="2" fill="url(#barGrad)" /><rect x="202.4" y="196.7" width="32.5" height="83.3" rx="2" fill="url(#barGrad)" /><rect x="256.5" y="191.2" width="32.5" height="88.8" rx="2" fill="url(#barGrad)" /><rect x="310.6" y="181.7" width="32.5" height="98.3" rx="2" fill="url(#barGrad)" /><rect x="364.7" y="170.7" width="32.5" height="109.3" rx="2" fill="url(#barGrad)" /><rect x="418.8" y="170.1" width="32.5" height="109.9" rx="2" fill="url(#barGrad)" /><rect x="472.9" y="206.2" width="32.5" height="73.8" rx="2" fill="url(#barGrad)" /><rect x="527.1" y="198.1" width="32.5" height="81.9" rx="2" fill="url(#barGrad)" /><rect x="581.2" y="189.9" width="32.5" height="90.1" rx="2" fill="url(#barGrad)" /><rect x="635.3" y="193.8" width="32.5" height="86.2" rx="2" fill="url(#barGrad)" /><rect x="689.4" y="182.9" width="32.5" height="97.1" rx="2" fill="url(#barGrad)" /><rect x="743.5" y="172.8" width="32.5" height="107.2" rx="2" fill="url(#barGrad)" /><rect x="797.6" y="152.8" width="32.5" height="127.2" rx="2" fill="url(#barGrad)" /><rect x="851.8" y="130.5" width="32.5" height="149.5" rx="2" fill="url(#barGrad)" /><rect x="905.9" y="173.5" width="32.5" height="106.5" rx="2" fill="url(#barGrad)" />
  <polyline fill="none" stroke="#63b3ed" stroke-width="2" points="56.2,197.2 110.4,59.3 164.5,90.7 218.6,65.9 272.7,70.7 326.8,57.9 380.9,40.0 435.1,51.3 489.2,133.5 543.3,111.0 597.4,112.9 651.5,87.0 705.6,62.2 759.8,63.4 813.9,59.0 868.0,47.2 922.1,85.2"/>
  <circle cx="56.2" cy="106.2" r="2.5" fill="#f6ad55" /><circle cx="110.4" cy="101.0" r="2.5" fill="#f6ad55" /><circle cx="164.5" cy="84.0" r="2.5" fill="#f6ad55" /><circle cx="218.6" cy="58.5" r="2.5" fill="#f6ad55" /><circle cx="272.7" cy="62.7" r="2.5" fill="#f6ad55" /><circle cx="326.8" cy="40.0" r="2.5" fill="#f6ad55" /><circle cx="380.9" cy="50.2" r="2.5" fill="#f6ad55" /><circle cx="435.1" cy="50.7" r="2.5" fill="#f6ad55" /><circle cx="489.2" cy="70.0" r="2.5" fill="#f6ad55" /><circle cx="543.3" cy="78.6" r="2.5" fill="#f6ad55" /><circle cx="597.4" cy="90.7" r="2.5" fill="#f6ad55" /><circle cx="651.5" cy="90.6" r="2.5" fill="#f6ad55" /><circle cx="705.6" cy="94.7" r="2.5" fill="#f6ad55" /><circle cx="759.8" cy="103.9" r="2.5" fill="#f6ad55" /><circle cx="813.9" cy="112.5" r="2.5" fill="#f6ad55" /><circle cx="868.0" cy="86.3" r="2.5" fill="#f6ad55" /><circle cx="922.1" cy="93.6" r="2.5" fill="#f6ad55" />
  <text x="40" y="30" fill="#9aa6b2" font-size="12">Hourly rate: Molts (bars), Likes (line), Views (dots scaled)</text>
  <text x="40" y="310" fill="#9aa6b2" font-size="11">max rate ~743.65 / hour</text>
</svg>