<?xml version="1.0" encoding="UTF-8"?>
<svg xmlns="http://www.w3.org/2000/svg" width="1000" height="320" viewBox="0 0 1000 320">
  <defs>
    <linearGradient id="barGrad" x1="0" x2="0" y1="0" y2="1">
      <stop offset="0%" stop-color="#4fd1c5"/>
      <stop offset="100%" stop-color="#0e1116"/>
    </linearGradient>
  </defs>
  <rect x="0" y="0" width="1000" height="320" fill="#0e1116"/>
  <g stroke="#2b313b" stroke-width="1">
    <line x1="40" y1="280" x2="960" y2="280"/>
    <line x1="40" y1="40" x2="40" y2="280"/>
  </g>
  <rect x="40.0" y="227.9" width="42.5" height="52.1" rx="2" fill="url(#barGrad)" /><rect x="110.8" y="192.0" width="42.5" height="88.0" rx="2" fill="url(#barGrad)" /><rect x="181.5" y="207.3" width="42.5" height="72.7" rx="2" fill="url(#barGrad)" /><rect x="252.3" y="194.3" width="42.5" height="85.7" rx="2" fill="url(#barGrad)" /><rect x="323.1" y="197.3" width="42.5" height="82.7" rx="2" fill="url(#barGrad)" /><rect x="393.8" y="195.6" width="42.5" height="84.4" rx="2" fill="url(#barGrad)" /><rect x="464.6" y="165.2" width="42.5" height="114.8" rx="2" fill="url(#barGrad)" /><rect x="535.4" y="197.2" width="42.5" height="82.8" rx="2" fill="url(#barGrad)" /><rect x="606.2" y="187.5" width="42.5" height="92.5" rx="2" fill="url(#barGrad)" /><rect x="676.9" y="182.9" width="42.5" height="97.1" rx="2" fill="url(#barGrad)" /><rect x="747.7" y="189.4" width="42.5" height="90.6" rx="2" fill="url(#barGrad)" /><rect x="818.5" y="206.1" width="42.5" height="73.9" rx="2" fill="url(#barGrad)" /><rect x="889.2" y="159.8" width="42.5" height="120.2" rx="2" fill="url(#barGrad)" />
  <polyline fill="none" stroke="#63b3ed" stroke-width="2" points="61.2,154.6 132.0,88.7 202.8,101.3 273.5,101.9 344.3,91.2 415.1,80.0 485.8,40.0 556.6,101.8 627.4,112.3 698.2,105.2 768.9,99.7 839.7,123.3 910.5,74.3"/>
  <circle cx="61.2" cy="40.0" r="2.5" fill="#f6ad55" /><circle cx="132.0" cy="86.6" r="2.5" fill="#f6ad55" /><circle cx="202.8" cy="78.3" r="2.5" fill="#f6ad55" /><circle cx="273.5" cy="81.9" r="2.5" fill="#f6ad55" /><circle cx="344.3" cy="94.8" r="2.5" fill="#f6ad55" /><circle cx="415.1" cy="68.0" r="2.5" fill="#f6ad55" /><circle cx="485.8" cy="99.2" r="2.5" fill="#f6ad55" /><circle cx="556.6" cy="97.0" r="2.5" fill="#f6ad55" /><circle cx="627.4" cy="92.0" r="2.5" fill="#f6ad55" /><circle cx="698.2" cy="87.4" r="2.5" fill="#f6ad55" /><circle cx="768.9" cy="71.3" r="2.5" fill="#f6ad55" /><circle cx="839.7" cy="84.0" r="2.5" fill="#f6ad55" /><circle cx="910.5" cy="82.4" r="2.5" fill="#f6ad55" />
  <text x="40" y="30" fill="#9aa6b2" font-size="12">Hourly rate: Molts (bars), Likes (line), Views (dots scaled)</text>
  <text x="40" y="310" fill="#9aa6b2" font-size="11">max rate ~802.71 / hour</text>
</svg>