<?xml version="1.0" encoding="UTF-8"?>
<svg xmlns="http://www.w3.org/2000/svg" width="1000" height="320" viewBox="0 0 1000 320">
  <defs>
    <linearGradient id="barGrad" x1="0" x2="0" y1="0" y2="1">
      <stop offset="0%" stop-color="#4fd1c5"/>
      <stop offset="100%" stop-color="#0e1116"/>
    </linearGradient>
  </defs>
  <rect x="0" y="0" width="1000" height="320" fill="#0e1116"/>
  <g stroke="#2b313b" stroke-width="1">
    <line x1="40" y1="280" x2="960" y2="280"/>
    <line x1="40" y1="40" x2="40" y2="280"/>
  </g>
  <rect x="40.0" y="161.1" width="39.4" height="118.9" rx="2" fill="url(#barGrad)" /><rect x="105.7" y="120.0" width="39.4" height="160.0" rx="2" fill="url(#barGrad)" /><rect x="171.4" y="112.9" width="39.4" height="167.1" rx="2" fill="url(#barGrad)" /><rect x="237.1" y="125.3" width="39.4" height="154.7" rx="2" fill="url(#barGrad)" /><rect x="302.9" y="113.9" width="39.4" height="166.1" rx="2" fill="url(#barGrad)" /><rect x="368.6" y="122.8" width="39.4" height="157.2" rx="2" fill="url(#barGrad)" /><rect x="434.3" y="117.5" width="39.4" height="162.5" rx="2" fill="url(#barGrad)" /><rect x="500.0" y="97.9" width="39.4" height="182.1" rx="2" fill="url(#barGrad)" /><rect x="565.7" y="140.7" width="39.4" height="139.3" rx="2" fill="url(#barGrad)" /><rect x="631.4" y="113.1" width="39.4" height="166.9" rx="2" fill="url(#barGrad)" /><rect x="697.1" y="92.3" width="39.4" height="187.7" rx="2" fill="url(#barGrad)" /><rect x="762.9" y="107.6" width="39.4" height="172.4" rx="2" fill="url(#barGrad)" /><rect x="828.6" y="120.5" width="39.4" height="159.5" rx="2" fill="url(#barGrad)" /><rect x="894.3" y="114.3" width="39.4" height="165.7" rx="2" fill="url(#barGrad)" />
  <polyline fill="none" stroke="#63b3ed" stroke-width="2" points="59.7,127.6 125.4,80.7 191.1,85.0 256.9,98.2 322.6,88.1 388.3,81.9 454.0,40.0 519.7,55.8 585.4,112.1 651.1,93.5 716.9,91.0 782.6,49.9 848.3,48.8 914.0,56.0"/>
  <circle cx="59.7" cy="100.8" r="2.5" fill="#f6ad55" /><circle cx="125.4" cy="64.8" r="2.5" fill="#f6ad55" /><circle cx="191.1" cy="52.4" r="2.5" fill="#f6ad55" /><circle cx="256.9" cy="40.0" r="2.5" fill="#f6ad55" /><circle cx="322.6" cy="45.2" r="2.5" fill="#f6ad55" /><circle cx="388.3" cy="83.8" r="2.5" fill="#f6ad55" /><circle cx="454.0" cy="57.7" r="2.5" fill="#f6ad55" /><circle cx="519.7" cy="87.9" r="2.5" fill="#f6ad55" /><circle cx="585.4" cy="83.5" r="2.5" fill="#f6ad55" /><circle cx="651.1" cy="90.8" r="2.5" fill="#f6ad55" /><circle cx="716.9" cy="91.1" r="2.5" fill="#f6ad55" /><circle cx="782.6" cy="90.8" r="2.5" fill="#f6ad55" /><circle cx="848.3" cy="44.6" r="2.5" fill="#f6ad55" /><circle cx="914.0" cy="88.7" r="2.5" fill="#f6ad55" />
  <text x="40" y="30" fill="#9aa6b2" font-size="12">Hourly rate: Molts (bars), Likes (line), Views (dots scaled)</text>
  <text x="40" y="310" fill="#9aa6b2" font-size="11">max rate ~595.01 / hour</text>
</svg>