<?xml version="1.0" encoding="UTF-8"?>
<svg xmlns="http://www.w3.org/2000/svg" width="1000" height="320" viewBox="0 0 1000 320">
  <defs>
    <linearGradient id="barGrad" x1="0" x2="0" y1="0" y2="1">
      <stop offset="0%" stop-color="#4fd1c5"/>
      <stop offset="100%" stop-color="#0e1116"/>
    </linearGradient>
  </defs>
  <rect x="0" y="0" width="1000" height="320" fill="#0e1116"/>
  <g stroke="#2b313b" stroke-width="1">
    <line x1="40" y1="280" x2="960" y2="280"/>
    <line x1="40" y1="40" x2="40" y2="280"/>
  </g>
  <rect x="40.0" y="264.5" width="69.0" height="15.5" rx="2" fill="url(#barGrad)" /><rect x="155.0" y="220.7" width="69.0" height="59.3" rx="2" fill="url(#barGrad)" /><rect x="270.0" y="231.9" width="69.0" height="48.1" rx="2" fill="url(#barGrad)" /><rect x="385.0" y="233.5" width="69.0" height="46.5" rx="2" fill="url(#barGrad)" /><rect x="500.0" y="207.5" width="69.0" height="72.5" rx="2" fill="url(#barGrad)" /><rect x="615.0" y="208.8" width="69.0" height="71.2" rx="2" fill="url(#barGrad)" /><rect x="730.0" y="213.4" width="69.0" height="66.6" rx="2" fill="url(#barGrad)" /><rect x="845.0" y="174.0" width="69.0" height="106.0" rx="2" fill="url(#barGrad)" />
  <polyline fill="none" stroke="#63b3ed" stroke-width="2" points="74.5,235.0 189.5,140.1 304.5,173.8 419.5,183.0 534.5,137.6 649.5,154.7 764.5,166.8 879.5,40.0"/>
  <circle cx="74.5" cy="40.0" r="2.5" fill="#f6ad55" /><circle cx="189.5" cy="146.0" r="2.5" fill="#f6ad55" /><circle cx="304.5" cy="152.3" r="2.5" fill="#f6ad55" /><circle cx="419.5" cy="149.4" r="2.5" fill="#f6ad55" /><circle cx="534.5" cy="145.5" r="2.5" fill="#f6ad55" /><circle cx="649.5" cy="139.4" r="2.5" fill="#f6ad55" /><circle cx="764.5" cy="142.2" r="2.5" fill="#f6ad55" /><circle cx="879.5" cy="140.4" r="2.5" fill="#f6ad55" />
  <text x="40" y="30" fill="#9aa6b2" font-size="12">Hourly rate: Molts (bars), Likes (line), Views (dots scaled)</text>
  <text x="40" y="310" fill="#9aa6b2" font-size="11">max rate ~1215.79 / hour</text>
</svg>