<?xml version="1.0" encoding="UTF-8"?>
<svg xmlns="http://www.w3.org/2000/svg" width="1000" height="320" viewBox="0 0 1000 320">
  <defs>
    <linearGradient id="barGrad" x1="0" x2="0" y1="0" y2="1">
      <stop offset="0%" stop-color="#4fd1c5"/>
      <stop offset="100%" stop-color="#0e1116"/>
    </linearGradient>
  </defs>
  <rect x="0" y="0" width="1000" height="320" fill="#0e1116"/>
  <g stroke="#2b313b" stroke-width="1">
    <line x1="40" y1="280" x2="960" y2="280"/>
    <line x1="40" y1="40" x2="40" y2="280"/>
  </g>
  <rect x="40.0" y="227.9" width="61.3" height="52.1" rx="2" fill="url(#barGrad)" /><rect x="142.2" y="192.0" width="61.3" height="88.0" rx="2" fill="url(#barGrad)" /><rect x="244.4" y="207.3" width="61.3" height="72.7" rx="2" fill="url(#barGrad)" /><rect x="346.7" y="194.3" width="61.3" height="85.7" rx="2" fill="url(#barGrad)" /><rect x="448.9" y="197.3" width="61.3" height="82.7" rx="2" fill="url(#barGrad)" /><rect x="551.1" y="195.6" width="61.3" height="84.4" rx="2" fill="url(#barGrad)" /><rect x="653.3" y="165.2" width="61.3" height="114.8" rx="2" fill="url(#barGrad)" /><rect x="755.6" y="197.2" width="61.3" height="82.8" rx="2" fill="url(#barGrad)" /><rect x="857.8" y="170.9" width="61.3" height="109.1" rx="2" fill="url(#barGrad)" />
  <polyline fill="none" stroke="#63b3ed" stroke-width="2" points="70.7,154.6 172.9,88.7 275.1,101.3 377.3,101.9 479.6,91.2 581.8,80.0 684.0,40.0 786.2,101.8 888.4,131.5"/>
  <circle cx="70.7" cy="40.0" r="2.5" fill="#f6ad55" /><circle cx="172.9" cy="86.6" r="2.5" fill="#f6ad55" /><circle cx="275.1" cy="78.3" r="2.5" fill="#f6ad55" /><circle cx="377.3" cy="81.9" r="2.5" fill="#f6ad55" /><circle cx="479.6" cy="94.8" r="2.5" fill="#f6ad55" /><circle cx="581.8" cy="68.0" r="2.5" fill="#f6ad55" /><circle cx="684.0" cy="99.2" r="2.5" fill="#f6ad55" /><circle cx="786.2" cy="97.0" r="2.5" fill="#f6ad55" /><circle cx="888.4" cy="88.2" r="2.5" fill="#f6ad55" />
  <text x="40" y="30" fill="#9aa6b2" font-size="12">Hourly rate: Molts (bars), Likes (line), Views (dots scaled)</text>
  <text x="40" y="310" fill="#9aa6b2" font-size="11">max rate ~802.71 / hour</text>
</svg>