<?xml version="1.0" encoding="UTF-8"?>
<svg xmlns="http://www.w3.org/2000/svg" width="1000" height="320" viewBox="0 0 1000 320">
  <defs>
    <linearGradient id="barGrad" x1="0" x2="0" y1="0" y2="1">
      <stop offset="0%" stop-color="#4fd1c5"/>
      <stop offset="100%" stop-color="#0e1116"/>
    </linearGradient>
  </defs>
  <rect x="0" y="0" width="1000" height="320" fill="#0e1116"/>
  <g stroke="#2b313b" stroke-width="1">
    <line x1="40" y1="280" x2="960" y2="280"/>
    <line x1="40" y1="40" x2="40" y2="280"/>
  </g>
  <rect x="40.0" y="40.0" width="25.1" height="240.0" rx="2" fill="url(#barGrad)" /><rect x="81.8" y="130.6" width="25.1" height="149.4" rx="2" fill="url(#barGrad)" /><rect x="123.6" y="264.2" width="25.1" height="15.8" rx="2" fill="url(#barGrad)" /><rect x="165.5" y="263.6" width="25.1" height="16.4" rx="2" fill="url(#barGrad)" /><rect x="207.3" y="259.3" width="25.1" height="20.7" rx="2" fill="url(#barGrad)" /><rect x="249.1" y="256.8" width="25.1" height="23.2" rx="2" fill="url(#barGrad)" /><rect x="290.9" y="263.6" width="25.1" height="16.4" rx="2" fill="url(#barGrad)" /><rect x="332.7" y="258.7" width="25.1" height="21.3" rx="2" fill="url(#barGrad)" /><rect x="374.5" y="262.3" width="25.1" height="17.7" rx="2" fill="url(#barGrad)" /><rect x="416.4" y="258.4" width="25.1" height="21.6" rx="2" fill="url(#barGrad)" /><rect x="458.2" y="258.7" width="25.1" height="21.3" rx="2" fill="url(#barGrad)" /><rect x="500.0" y="233.1" width="25.1" height="46.9" rx="2" fill="url(#barGrad)" /><rect x="541.8" y="178.1" width="25.1" height="101.9" rx="2" fill="url(#barGrad)" /><rect x="583.6" y="236.0" width="25.1" height="44.0" rx="2" fill="url(#barGrad)" /><rect x="625.5" y="590.6" width="25.1" height="-310.6" rx="2" fill="url(#barGrad)" /><rect x="667.3" y="262.8" width="25.1" height="17.2" rx="2" fill="url(#barGrad)" /><rect x="709.1" y="260.5" width="25.1" height="19.5" rx="2" fill="url(#barGrad)" /><rect x="750.9" y="262.2" width="25.1" height="17.8" rx="2" fill="url(#barGrad)" /><rect x="792.7" y="246.0" width="25.1" height="34.0" rx="2" fill="url(#barGrad)" /><rect x="834.5" y="265.2" width="25.1" height="14.8" rx="2" fill="url(#barGrad)" /><rect x="876.4" y="260.6" width="25.1" height="19.4" rx="2" fill="url(#barGrad)" /><rect x="918.2" y="265.6" width="25.1" height="14.4" rx="2" fill="url(#barGrad)" />
  <polyline fill="none" stroke="#63b3ed" stroke-width="2" points="52.5,239.6 94.4,244.1 136.2,242.8 178.0,249.5 219.8,241.8 261.6,249.3 303.5,245.9 345.3,253.0 387.1,256.6 428.9,247.6 470.7,246.5 512.5,243.3 554.4,239.7 596.2,222.8 638.0,252.3 679.8,249.6 721.6,244.0 763.5,242.5 805.3,232.6 847.1,240.9 888.9,233.1 930.7,252.2"/>
  <circle cx="52.5" cy="72.2" r="2.5" fill="#f6ad55" /><circle cx="94.4" cy="56.7" r="2.5" fill="#f6ad55" /><circle cx="136.2" cy="68.5" r="2.5" fill="#f6ad55" /><circle cx="178.0" cy="62.5" r="2.5" fill="#f6ad55" /><circle cx="219.8" cy="59.9" r="2.5" fill="#f6ad55" /><circle cx="261.6" cy="55.0" r="2.5" fill="#f6ad55" /><circle cx="303.5" cy="70.1" r="2.5" fill="#f6ad55" /><circle cx="345.3" cy="86.0" r="2.5" fill="#f6ad55" /><circle cx="387.1" cy="79.6" r="2.5" fill="#f6ad55" /><circle cx="428.9" cy="102.3" r="2.5" fill="#f6ad55" /><circle cx="470.7" cy="87.4" r="2.5" fill="#f6ad55" /><circle cx="512.5" cy="92.7" r="2.5" fill="#f6ad55" /><circle cx="554.4" cy="67.5" r="2.5" fill="#f6ad55" /><circle cx="596.2" cy="101.7" r="2.5" fill="#f6ad55" /><circle cx="638.0" cy="99.4" r="2.5" fill="#f6ad55" /><circle cx="679.8" cy="81.9" r="2.5" fill="#f6ad55" /><circle cx="721.6" cy="63.0" r="2.5" fill="#f6ad55" /><circle cx="763.5" cy="53.8" r="2.5" fill="#f6ad55" /><circle cx="805.3" cy="43.4" r="2.5" fill="#f6ad55" /><circle cx="847.1" cy="46.3" r="2.5" fill="#f6ad55" /><circle cx="888.9" cy="40.0" r="2.5" fill="#f6ad55" /><circle cx="930.7" cy="106.2" r="2.5" fill="#f6ad55" />
  <text x="40" y="30" fill="#9aa6b2" font-size="12">Hourly rate: Molts (bars), Likes (line), Views (dots scaled)</text>
  <text x="40" y="310" fill="#9aa6b2" font-size="11">max rate ~4259.25 / hour</text>
</svg>