<?xml version="1.0" encoding="UTF-8"?>
<svg xmlns="http://www.w3.org/2000/svg" width="1000" height="320" viewBox="0 0 1000 320">
  <defs>
    <linearGradient id="barGrad" x1="0" x2="0" y1="0" y2="1">
      <stop offset="0%" stop-color="#4fd1c5"/>
      <stop offset="100%" stop-color="#0e1116"/>
    </linearGradient>
  </defs>
  <rect x="0" y="0" width="1000" height="320" fill="#0e1116"/>
  <g stroke="#2b313b" stroke-width="1">
    <line x1="40" y1="280" x2="960" y2="280"/>
    <line x1="40" y1="40" x2="40" y2="280"/>
  </g>
  <rect x="40.0" y="256.5" width="34.5" height="23.5" rx="2" fill="url(#barGrad)" /><rect x="97.5" y="195.5" width="34.5" height="84.5" rx="2" fill="url(#barGrad)" /><rect x="155.0" y="214.1" width="34.5" height="65.9" rx="2" fill="url(#barGrad)" /><rect x="212.5" y="201.4" width="34.5" height="78.6" rx="2" fill="url(#barGrad)" /><rect x="270.0" y="196.2" width="34.5" height="83.8" rx="2" fill="url(#barGrad)" /><rect x="327.5" y="187.2" width="34.5" height="92.8" rx="2" fill="url(#barGrad)" /><rect x="385.0" y="176.8" width="34.5" height="103.2" rx="2" fill="url(#barGrad)" /><rect x="442.5" y="176.3" width="34.5" height="103.7" rx="2" fill="url(#barGrad)" /><rect x="500.0" y="210.4" width="34.5" height="69.6" rx="2" fill="url(#barGrad)" /><rect x="557.5" y="202.7" width="34.5" height="77.3" rx="2" fill="url(#barGrad)" /><rect x="615.0" y="194.9" width="34.5" height="85.1" rx="2" fill="url(#barGrad)" /><rect x="672.5" y="198.6" width="34.5" height="81.4" rx="2" fill="url(#barGrad)" /><rect x="730.0" y="188.3" width="34.5" height="91.7" rx="2" fill="url(#barGrad)" /><rect x="787.5" y="178.9" width="34.5" height="101.1" rx="2" fill="url(#barGrad)" /><rect x="845.0" y="160.0" width="34.5" height="120.0" rx="2" fill="url(#barGrad)" /><rect x="902.5" y="96.9" width="34.5" height="183.1" rx="2" fill="url(#barGrad)" />
  <polyline fill="none" stroke="#63b3ed" stroke-width="2" points="57.3,201.8 114.8,71.7 172.3,101.3 229.8,77.9 287.3,82.4 344.8,70.4 402.3,53.5 459.8,64.1 517.3,141.7 574.8,120.5 632.3,122.2 689.8,97.8 747.3,74.4 804.8,75.5 862.3,71.4 919.8,40.0"/>
  <circle cx="57.3" cy="106.2" r="2.5" fill="#f6ad55" /><circle cx="114.8" cy="101.0" r="2.5" fill="#f6ad55" /><circle cx="172.3" cy="84.0" r="2.5" fill="#f6ad55" /><circle cx="229.8" cy="58.5" r="2.5" fill="#f6ad55" /><circle cx="287.3" cy="62.7" r="2.5" fill="#f6ad55" /><circle cx="344.8" cy="40.0" r="2.5" fill="#f6ad55" /><circle cx="402.3" cy="50.2" r="2.5" fill="#f6ad55" /><circle cx="459.8" cy="50.7" r="2.5" fill="#f6ad55" /><circle cx="517.3" cy="70.0" r="2.5" fill="#f6ad55" /><circle cx="574.8" cy="78.6" r="2.5" fill="#f6ad55" /><circle cx="632.3" cy="90.7" r="2.5" fill="#f6ad55" /><circle cx="689.8" cy="90.6" r="2.5" fill="#f6ad55" /><circle cx="747.3" cy="94.7" r="2.5" fill="#f6ad55" /><circle cx="804.8" cy="103.9" r="2.5" fill="#f6ad55" /><circle cx="862.3" cy="112.5" r="2.5" fill="#f6ad55" /><circle cx="919.8" cy="101.1" r="2.5" fill="#f6ad55" />
  <text x="40" y="30" fill="#9aa6b2" font-size="12">Hourly rate: Molts (bars), Likes (line), Views (dots scaled)</text>
  <text x="40" y="310" fill="#9aa6b2" font-size="11">max rate ~787.82 / hour</text>
</svg>