<?xml version="1.0" encoding="UTF-8"?>
<svg xmlns="http://www.w3.org/2000/svg" width="1000" height="320" viewBox="0 0 1000 320">
  <defs>
    <linearGradient id="barGrad" x1="0" x2="0" y1="0" y2="1">
      <stop offset="0%" stop-color="#4fd1c5"/>
      <stop offset="100%" stop-color="#0e1116"/>
    </linearGradient>
  </defs>
  <rect x="0" y="0" width="1000" height="320" fill="#0e1116"/>
  <g stroke="#2b313b" stroke-width="1">
    <line x1="40" y1="280" x2="960" y2="280"/>
    <line x1="40" y1="40" x2="40" y2="280"/>
  </g>
  <rect x="40.0" y="233.9" width="29.1" height="46.1" rx="2" fill="url(#barGrad)" /><rect x="88.4" y="202.1" width="29.1" height="77.9" rx="2" fill="url(#barGrad)" /><rect x="136.8" y="215.7" width="29.1" height="64.3" rx="2" fill="url(#barGrad)" /><rect x="185.3" y="204.2" width="29.1" height="75.8" rx="2" fill="url(#barGrad)" /><rect x="233.7" y="206.8" width="29.1" height="73.2" rx="2" fill="url(#barGrad)" /><rect x="282.1" y="205.4" width="29.1" height="74.6" rx="2" fill="url(#barGrad)" /><rect x="330.5" y="178.4" width="29.1" height="101.6" rx="2" fill="url(#barGrad)" /><rect x="378.9" y="206.8" width="29.1" height="73.2" rx="2" fill="url(#barGrad)" /><rect x="427.4" y="198.1" width="29.1" height="81.9" rx="2" fill="url(#barGrad)" /><rect x="475.8" y="194.1" width="29.1" height="85.9" rx="2" fill="url(#barGrad)" /><rect x="524.2" y="199.8" width="29.1" height="80.2" rx="2" fill="url(#barGrad)" /><rect x="572.6" y="214.6" width="29.1" height="65.4" rx="2" fill="url(#barGrad)" /><rect x="621.1" y="173.7" width="29.1" height="106.3" rx="2" fill="url(#barGrad)" /><rect x="669.5" y="190.9" width="29.1" height="89.1" rx="2" fill="url(#barGrad)" /><rect x="717.9" y="176.4" width="29.1" height="103.6" rx="2" fill="url(#barGrad)" /><rect x="766.3" y="183.7" width="29.1" height="96.3" rx="2" fill="url(#barGrad)" /><rect x="814.7" y="150.4" width="29.1" height="129.6" rx="2" fill="url(#barGrad)" /><rect x="863.2" y="172.6" width="29.1" height="107.4" rx="2" fill="url(#barGrad)" /><rect x="911.6" y="197.8" width="29.1" height="82.2" rx="2" fill="url(#barGrad)" />
  <polyline fill="none" stroke="#63b3ed" stroke-width="2" points="54.5,169.1 102.9,110.8 151.4,121.9 199.8,122.5 248.2,113.0 296.6,103.1 345.1,67.7 393.5,122.3 441.9,131.6 490.3,125.4 538.7,120.5 587.2,141.4 635.6,98.1 684.0,110.6 732.4,64.6 780.8,62.7 829.3,44.3 877.7,40.0 926.1,98.5"/>
  <circle cx="54.5" cy="40.0" r="2.5" fill="#f6ad55" /><circle cx="102.9" cy="86.6" r="2.5" fill="#f6ad55" /><circle cx="151.4" cy="78.3" r="2.5" fill="#f6ad55" /><circle cx="199.8" cy="81.9" r="2.5" fill="#f6ad55" /><circle cx="248.2" cy="94.8" r="2.5" fill="#f6ad55" /><circle cx="296.6" cy="68.0" r="2.5" fill="#f6ad55" /><circle cx="345.1" cy="99.2" r="2.5" fill="#f6ad55" /><circle cx="393.5" cy="97.0" r="2.5" fill="#f6ad55" /><circle cx="441.9" cy="92.0" r="2.5" fill="#f6ad55" /><circle cx="490.3" cy="87.4" r="2.5" fill="#f6ad55" /><circle cx="538.7" cy="71.3" r="2.5" fill="#f6ad55" /><circle cx="587.2" cy="84.0" r="2.5" fill="#f6ad55" /><circle cx="635.6" cy="82.4" r="2.5" fill="#f6ad55" /><circle cx="684.0" cy="85.0" r="2.5" fill="#f6ad55" /><circle cx="732.4" cy="104.1" r="2.5" fill="#f6ad55" /><circle cx="780.8" cy="90.9" r="2.5" fill="#f6ad55" /><circle cx="829.3" cy="63.4" r="2.5" fill="#f6ad55" /><circle cx="877.7" cy="82.0" r="2.5" fill="#f6ad55" /><circle cx="926.1" cy="72.5" r="2.5" fill="#f6ad55" />
  <text x="40" y="30" fill="#9aa6b2" font-size="12">Hourly rate: Molts (bars), Likes (line), Views (dots scaled)</text>
  <text x="40" y="310" fill="#9aa6b2" font-size="11">max rate ~907.34 / hour</text>
</svg>