<?xml version="1.0" encoding="UTF-8"?>
<svg xmlns="http://www.w3.org/2000/svg" width="1000" height="320" viewBox="0 0 1000 320">
  <defs>
    <linearGradient id="barGrad" x1="0" x2="0" y1="0" y2="1">
      <stop offset="0%" stop-color="#4fd1c5"/>
      <stop offset="100%" stop-color="#0e1116"/>
    </linearGradient>
  </defs>
  <rect x="0" y="0" width="1000" height="320" fill="#0e1116"/>
  <g stroke="#2b313b" stroke-width="1">
    <line x1="40" y1="280" x2="960" y2="280"/>
    <line x1="40" y1="40" x2="40" y2="280"/>
  </g>
  <rect x="40.0" y="224.9" width="22.1" height="55.1" rx="2" fill="url(#barGrad)" /><rect x="76.8" y="164.7" width="22.1" height="115.3" rx="2" fill="url(#barGrad)" /><rect x="113.6" y="174.8" width="22.1" height="105.2" rx="2" fill="url(#barGrad)" /><rect x="150.4" y="146.2" width="22.1" height="133.8" rx="2" fill="url(#barGrad)" /><rect x="187.2" y="166.8" width="22.1" height="113.2" rx="2" fill="url(#barGrad)" /><rect x="224.0" y="184.9" width="22.1" height="95.1" rx="2" fill="url(#barGrad)" /><rect x="260.8" y="170.5" width="22.1" height="109.5" rx="2" fill="url(#barGrad)" /><rect x="297.6" y="172.6" width="22.1" height="107.4" rx="2" fill="url(#barGrad)" /><rect x="334.4" y="150.6" width="22.1" height="129.4" rx="2" fill="url(#barGrad)" /><rect x="371.2" y="136.2" width="22.1" height="143.8" rx="2" fill="url(#barGrad)" /><rect x="408.0" y="105.7" width="22.1" height="174.3" rx="2" fill="url(#barGrad)" /><rect x="444.8" y="91.4" width="22.1" height="188.6" rx="2" fill="url(#barGrad)" /><rect x="481.6" y="145.1" width="22.1" height="134.9" rx="2" fill="url(#barGrad)" /><rect x="518.4" y="164.7" width="22.1" height="115.3" rx="2" fill="url(#barGrad)" /><rect x="555.2" y="158.4" width="22.1" height="121.6" rx="2" fill="url(#barGrad)" /><rect x="592.0" y="168.9" width="22.1" height="111.1" rx="2" fill="url(#barGrad)" /><rect x="628.8" y="180.2" width="22.1" height="99.8" rx="2" fill="url(#barGrad)" /><rect x="665.6" y="201.0" width="22.1" height="79.0" rx="2" fill="url(#barGrad)" /><rect x="702.4" y="199.2" width="22.1" height="80.8" rx="2" fill="url(#barGrad)" /><rect x="739.2" y="195.0" width="22.1" height="85.0" rx="2" fill="url(#barGrad)" /><rect x="776.0" y="207.5" width="22.1" height="72.5" rx="2" fill="url(#barGrad)" /><rect x="812.8" y="212.8" width="22.1" height="67.2" rx="2" fill="url(#barGrad)" /><rect x="849.6" y="207.7" width="22.1" height="72.3" rx="2" fill="url(#barGrad)" /><rect x="886.4" y="198.7" width="22.1" height="81.3" rx="2" fill="url(#barGrad)" /><rect x="923.2" y="198.5" width="22.1" height="81.5" rx="2" fill="url(#barGrad)" />
  <polyline fill="none" stroke="#63b3ed" stroke-width="2" points="51.0,152.8 87.8,81.6 124.6,83.0 161.4,47.2 198.2,88.0 235.0,94.2 271.8,67.4 308.6,108.8 345.4,68.3 382.2,62.4 419.0,78.0 455.8,72.0 492.6,40.0 529.4,98.0 566.2,60.5 603.0,44.5 639.8,95.3 676.6,93.1 713.4,52.5 750.2,67.2 787.0,77.1 823.8,87.0 860.6,74.9 897.4,57.0 934.2,66.7"/>
  <circle cx="51.0" cy="40.0" r="2.5" fill="#f6ad55" /><circle cx="87.8" cy="161.6" r="2.5" fill="#f6ad55" /><circle cx="124.6" cy="145.5" r="2.5" fill="#f6ad55" /><circle cx="161.4" cy="146.2" r="2.5" fill="#f6ad55" /><circle cx="198.2" cy="141.6" r="2.5" fill="#f6ad55" /><circle cx="235.0" cy="148.6" r="2.5" fill="#f6ad55" /><circle cx="271.8" cy="160.2" r="2.5" fill="#f6ad55" /><circle cx="308.6" cy="157.9" r="2.5" fill="#f6ad55" /><circle cx="345.4" cy="155.3" r="2.5" fill="#f6ad55" /><circle cx="382.2" cy="129.4" r="2.5" fill="#f6ad55" /><circle cx="419.0" cy="126.4" r="2.5" fill="#f6ad55" /><circle cx="455.8" cy="117.0" r="2.5" fill="#f6ad55" /><circle cx="492.6" cy="130.2" r="2.5" fill="#f6ad55" /><circle cx="529.4" cy="156.1" r="2.5" fill="#f6ad55" /><circle cx="566.2" cy="160.1" r="2.5" fill="#f6ad55" /><circle cx="603.0" cy="151.8" r="2.5" fill="#f6ad55" /><circle cx="639.8" cy="169.2" r="2.5" fill="#f6ad55" /><circle cx="676.6" cy="162.8" r="2.5" fill="#f6ad55" /><circle cx="713.4" cy="155.5" r="2.5" fill="#f6ad55" /><circle cx="750.2" cy="141.7" r="2.5" fill="#f6ad55" /><circle cx="787.0" cy="142.5" r="2.5" fill="#f6ad55" /><circle cx="823.8" cy="145.7" r="2.5" fill="#f6ad55" /><circle cx="860.6" cy="158.8" r="2.5" fill="#f6ad55" /><circle cx="897.4" cy="144.4" r="2.5" fill="#f6ad55" /><circle cx="934.2" cy="136.3" r="2.5" fill="#f6ad55" />
  <text x="40" y="30" fill="#9aa6b2" font-size="12">Hourly rate: Molts (bars), Likes (line), Views (dots scaled)</text>
  <text x="40" y="310" fill="#9aa6b2" font-size="11">max rate ~729.33 / hour</text>
</svg>