<?xml version="1.0" encoding="UTF-8"?>
<svg xmlns="http://www.w3.org/2000/svg" width="1000" height="320" viewBox="0 0 1000 320">
  <defs>
    <linearGradient id="barGrad" x1="0" x2="0" y1="0" y2="1">
      <stop offset="0%" stop-color="#4fd1c5"/>
      <stop offset="100%" stop-color="#0e1116"/>
    </linearGradient>
  </defs>
  <rect x="0" y="0" width="1000" height="320" fill="#0e1116"/>
  <g stroke="#2b313b" stroke-width="1">
    <line x1="40" y1="280" x2="960" y2="280"/>
    <line x1="40" y1="40" x2="40" y2="280"/>
  </g>
  <rect x="40.0" y="254.0" width="92.0" height="26.0" rx="2" fill="url(#barGrad)" /><rect x="193.3" y="186.5" width="92.0" height="93.5" rx="2" fill="url(#barGrad)" /><rect x="346.7" y="207.0" width="92.0" height="73.0" rx="2" fill="url(#barGrad)" /><rect x="500.0" y="193.0" width="92.0" height="87.0" rx="2" fill="url(#barGrad)" /><rect x="653.3" y="187.2" width="92.0" height="92.8" rx="2" fill="url(#barGrad)" /><rect x="806.7" y="180.2" width="92.0" height="99.8" rx="2" fill="url(#barGrad)" />
  <polyline fill="none" stroke="#63b3ed" stroke-width="2" points="86.0,193.4 239.3,49.4 392.7,82.2 546.0,56.3 699.3,61.3 852.7,40.0"/>
  <circle cx="86.0" cy="121.4" r="2.5" fill="#f6ad55" /><circle cx="239.3" cy="116.7" r="2.5" fill="#f6ad55" /><circle cx="392.7" cy="101.2" r="2.5" fill="#f6ad55" /><circle cx="546.0" cy="77.9" r="2.5" fill="#f6ad55" /><circle cx="699.3" cy="81.7" r="2.5" fill="#f6ad55" /><circle cx="852.7" cy="40.0" r="2.5" fill="#f6ad55" />
  <text x="40" y="30" fill="#9aa6b2" font-size="12">Hourly rate: Molts (bars), Likes (line), Views (dots scaled)</text>
  <text x="40" y="310" fill="#9aa6b2" font-size="11">max rate ~711.72 / hour</text>
</svg>