<?xml version="1.0" encoding="UTF-8"?>
<svg xmlns="http://www.w3.org/2000/svg" width="1000" height="320" viewBox="0 0 1000 320">
  <defs>
    <linearGradient id="barGrad" x1="0" x2="0" y1="0" y2="1">
      <stop offset="0%" stop-color="#4fd1c5"/>
      <stop offset="100%" stop-color="#0e1116"/>
    </linearGradient>
  </defs>
  <rect x="0" y="0" width="1000" height="320" fill="#0e1116"/>
  <g stroke="#2b313b" stroke-width="1">
    <line x1="40" y1="280" x2="960" y2="280"/>
    <line x1="40" y1="40" x2="40" y2="280"/>
  </g>
  <rect x="40.0" y="252.6" width="29.1" height="27.4" rx="2" fill="url(#barGrad)" /><rect x="88.4" y="216.4" width="29.1" height="63.6" rx="2" fill="url(#barGrad)" /><rect x="136.8" y="220.3" width="29.1" height="59.7" rx="2" fill="url(#barGrad)" /><rect x="185.3" y="210.5" width="29.1" height="69.5" rx="2" fill="url(#barGrad)" /><rect x="233.7" y="210.3" width="29.1" height="69.7" rx="2" fill="url(#barGrad)" /><rect x="282.1" y="215.9" width="29.1" height="64.1" rx="2" fill="url(#barGrad)" /><rect x="330.5" y="222.0" width="29.1" height="58.0" rx="2" fill="url(#barGrad)" /><rect x="378.9" y="230.9" width="29.1" height="49.1" rx="2" fill="url(#barGrad)" /><rect x="427.4" y="214.9" width="29.1" height="65.1" rx="2" fill="url(#barGrad)" /><rect x="475.8" y="88.7" width="29.1" height="191.3" rx="2" fill="url(#barGrad)" /><rect x="524.2" y="55.2" width="29.1" height="224.8" rx="2" fill="url(#barGrad)" /><rect x="572.6" y="197.4" width="29.1" height="82.6" rx="2" fill="url(#barGrad)" /><rect x="621.1" y="178.2" width="29.1" height="101.8" rx="2" fill="url(#barGrad)" /><rect x="669.5" y="200.9" width="29.1" height="79.1" rx="2" fill="url(#barGrad)" /><rect x="717.9" y="119.6" width="29.1" height="160.4" rx="2" fill="url(#barGrad)" /><rect x="766.3" y="40.0" width="29.1" height="240.0" rx="2" fill="url(#barGrad)" /><rect x="814.7" y="164.9" width="29.1" height="115.1" rx="2" fill="url(#barGrad)" /><rect x="863.2" y="180.2" width="29.1" height="99.8" rx="2" fill="url(#barGrad)" /><rect x="911.6" y="173.0" width="29.1" height="107.0" rx="2" fill="url(#barGrad)" />
  <polyline fill="none" stroke="#63b3ed" stroke-width="2" points="54.5,177.6 102.9,223.1 151.4,186.2 199.8,173.9 248.2,156.6 296.6,174.1 345.1,156.5 393.5,178.7 441.9,146.4 490.3,133.8 538.7,88.9 587.2,132.4 635.6,108.7 684.0,114.9 732.4,97.9 780.8,142.1 829.3,162.8 877.7,165.7 926.1,166.7"/>
  <circle cx="54.5" cy="74.8" r="2.5" fill="#f6ad55" /><circle cx="102.9" cy="47.6" r="2.5" fill="#f6ad55" /><circle cx="151.4" cy="71.1" r="2.5" fill="#f6ad55" /><circle cx="199.8" cy="103.3" r="2.5" fill="#f6ad55" /><circle cx="248.2" cy="124.2" r="2.5" fill="#f6ad55" /><circle cx="296.6" cy="117.9" r="2.5" fill="#f6ad55" /><circle cx="345.1" cy="71.3" r="2.5" fill="#f6ad55" /><circle cx="393.5" cy="95.5" r="2.5" fill="#f6ad55" /><circle cx="441.9" cy="125.1" r="2.5" fill="#f6ad55" /><circle cx="490.3" cy="112.4" r="2.5" fill="#f6ad55" /><circle cx="538.7" cy="83.9" r="2.5" fill="#f6ad55" /><circle cx="587.2" cy="94.5" r="2.5" fill="#f6ad55" /><circle cx="635.6" cy="55.6" r="2.5" fill="#f6ad55" /><circle cx="684.0" cy="53.2" r="2.5" fill="#f6ad55" /><circle cx="732.4" cy="47.3" r="2.5" fill="#f6ad55" /><circle cx="780.8" cy="58.7" r="2.5" fill="#f6ad55" /><circle cx="829.3" cy="74.8" r="2.5" fill="#f6ad55" /><circle cx="877.7" cy="40.0" r="2.5" fill="#f6ad55" /><circle cx="926.1" cy="96.0" r="2.5" fill="#f6ad55" />
  <text x="40" y="30" fill="#9aa6b2" font-size="12">Hourly rate: Molts (bars), Likes (line), Views (dots scaled)</text>
  <text x="40" y="310" fill="#9aa6b2" font-size="11">max rate ~840.74 / hour</text>
</svg>