<?xml version="1.0" encoding="UTF-8"?>
<svg xmlns="http://www.w3.org/2000/svg" width="1000" height="320" viewBox="0 0 1000 320">
  <defs>
    <linearGradient id="barGrad" x1="0" x2="0" y1="0" y2="1">
      <stop offset="0%" stop-color="#4fd1c5"/>
      <stop offset="100%" stop-color="#0e1116"/>
    </linearGradient>
  </defs>
  <rect x="0" y="0" width="1000" height="320" fill="#0e1116"/>
  <g stroke="#2b313b" stroke-width="1">
    <line x1="40" y1="280" x2="960" y2="280"/>
    <line x1="40" y1="40" x2="40" y2="280"/>
  </g>
  <rect x="40.0" y="40.0" width="29.1" height="240.0" rx="2" fill="url(#barGrad)" /><rect x="88.4" y="130.6" width="29.1" height="149.4" rx="2" fill="url(#barGrad)" /><rect x="136.8" y="264.2" width="29.1" height="15.8" rx="2" fill="url(#barGrad)" /><rect x="185.3" y="263.6" width="29.1" height="16.4" rx="2" fill="url(#barGrad)" /><rect x="233.7" y="259.3" width="29.1" height="20.7" rx="2" fill="url(#barGrad)" /><rect x="282.1" y="256.8" width="29.1" height="23.2" rx="2" fill="url(#barGrad)" /><rect x="330.5" y="263.6" width="29.1" height="16.4" rx="2" fill="url(#barGrad)" /><rect x="378.9" y="258.7" width="29.1" height="21.3" rx="2" fill="url(#barGrad)" /><rect x="427.4" y="262.3" width="29.1" height="17.7" rx="2" fill="url(#barGrad)" /><rect x="475.8" y="258.4" width="29.1" height="21.6" rx="2" fill="url(#barGrad)" /><rect x="524.2" y="258.7" width="29.1" height="21.3" rx="2" fill="url(#barGrad)" /><rect x="572.6" y="233.1" width="29.1" height="46.9" rx="2" fill="url(#barGrad)" /><rect x="621.1" y="178.1" width="29.1" height="101.9" rx="2" fill="url(#barGrad)" /><rect x="669.5" y="236.0" width="29.1" height="44.0" rx="2" fill="url(#barGrad)" /><rect x="717.9" y="590.6" width="29.1" height="-310.6" rx="2" fill="url(#barGrad)" /><rect x="766.3" y="262.8" width="29.1" height="17.2" rx="2" fill="url(#barGrad)" /><rect x="814.7" y="260.5" width="29.1" height="19.5" rx="2" fill="url(#barGrad)" /><rect x="863.2" y="262.2" width="29.1" height="17.8" rx="2" fill="url(#barGrad)" /><rect x="911.6" y="237.7" width="29.1" height="42.3" rx="2" fill="url(#barGrad)" />
  <polyline fill="none" stroke="#63b3ed" stroke-width="2" points="54.5,239.6 102.9,244.1 151.4,242.8 199.8,249.5 248.2,241.8 296.6,249.3 345.1,245.9 393.5,253.0 441.9,256.6 490.3,247.6 538.7,246.5 587.2,243.3 635.6,239.7 684.0,222.8 732.4,252.3 780.8,249.6 829.3,244.0 877.7,242.5 926.1,230.4"/>
  <circle cx="54.5" cy="73.5" r="2.5" fill="#f6ad55" /><circle cx="102.9" cy="58.1" r="2.5" fill="#f6ad55" /><circle cx="151.4" cy="69.9" r="2.5" fill="#f6ad55" /><circle cx="199.8" cy="63.9" r="2.5" fill="#f6ad55" /><circle cx="248.2" cy="61.3" r="2.5" fill="#f6ad55" /><circle cx="296.6" cy="56.4" r="2.5" fill="#f6ad55" /><circle cx="345.1" cy="71.5" r="2.5" fill="#f6ad55" /><circle cx="393.5" cy="87.2" r="2.5" fill="#f6ad55" /><circle cx="441.9" cy="80.8" r="2.5" fill="#f6ad55" /><circle cx="490.3" cy="103.4" r="2.5" fill="#f6ad55" /><circle cx="538.7" cy="88.7" r="2.5" fill="#f6ad55" /><circle cx="587.2" cy="93.8" r="2.5" fill="#f6ad55" /><circle cx="635.6" cy="68.8" r="2.5" fill="#f6ad55" /><circle cx="684.0" cy="102.8" r="2.5" fill="#f6ad55" /><circle cx="732.4" cy="100.6" r="2.5" fill="#f6ad55" /><circle cx="780.8" cy="83.2" r="2.5" fill="#f6ad55" /><circle cx="829.3" cy="64.4" r="2.5" fill="#f6ad55" /><circle cx="877.7" cy="55.3" r="2.5" fill="#f6ad55" /><circle cx="926.1" cy="40.0" r="2.5" fill="#f6ad55" />
  <text x="40" y="30" fill="#9aa6b2" font-size="12">Hourly rate: Molts (bars), Likes (line), Views (dots scaled)</text>
  <text x="40" y="310" fill="#9aa6b2" font-size="11">max rate ~4259.25 / hour</text>
</svg>