<?xml version="1.0" encoding="UTF-8"?>
<svg xmlns="http://www.w3.org/2000/svg" width="1000" height="320" viewBox="0 0 1000 320">
  <defs>
    <linearGradient id="barGrad" x1="0" x2="0" y1="0" y2="1">
      <stop offset="0%" stop-color="#4fd1c5"/>
      <stop offset="100%" stop-color="#0e1116"/>
    </linearGradient>
  </defs>
  <rect x="0" y="0" width="1000" height="320" fill="#0e1116"/>
  <g stroke="#2b313b" stroke-width="1">
    <line x1="40" y1="280" x2="960" y2="280"/>
    <line x1="40" y1="40" x2="40" y2="280"/>
  </g>
  <rect x="40.0" y="233.7" width="42.5" height="46.3" rx="2" fill="url(#barGrad)" /><rect x="110.8" y="161.8" width="42.5" height="118.2" rx="2" fill="url(#barGrad)" /><rect x="181.5" y="129.9" width="42.5" height="150.1" rx="2" fill="url(#barGrad)" /><rect x="252.3" y="175.9" width="42.5" height="104.1" rx="2" fill="url(#barGrad)" /><rect x="323.1" y="193.1" width="42.5" height="86.9" rx="2" fill="url(#barGrad)" /><rect x="393.8" y="54.7" width="42.5" height="225.3" rx="2" fill="url(#barGrad)" /><rect x="464.6" y="162.8" width="42.5" height="117.2" rx="2" fill="url(#barGrad)" /><rect x="535.4" y="141.2" width="42.5" height="138.8" rx="2" fill="url(#barGrad)" /><rect x="606.2" y="195.3" width="42.5" height="84.7" rx="2" fill="url(#barGrad)" /><rect x="676.9" y="172.1" width="42.5" height="107.9" rx="2" fill="url(#barGrad)" /><rect x="747.7" y="107.9" width="42.5" height="172.1" rx="2" fill="url(#barGrad)" /><rect x="818.5" y="83.3" width="42.5" height="196.7" rx="2" fill="url(#barGrad)" /><rect x="889.2" y="40.0" width="42.5" height="240.0" rx="2" fill="url(#barGrad)" />
  <polyline fill="none" stroke="#63b3ed" stroke-width="2" points="61.2,165.4 132.0,120.9 202.8,119.6 273.5,74.3 344.3,128.2 415.1,112.4 485.8,131.8 556.6,46.8 627.4,141.8 698.2,131.9 768.9,105.5 839.7,109.9 910.5,125.8"/>
  <circle cx="61.2" cy="94.0" r="2.5" fill="#f6ad55" /><circle cx="132.0" cy="109.8" r="2.5" fill="#f6ad55" /><circle cx="202.8" cy="69.0" r="2.5" fill="#f6ad55" /><circle cx="273.5" cy="44.9" r="2.5" fill="#f6ad55" /><circle cx="344.3" cy="40.0" r="2.5" fill="#f6ad55" /><circle cx="415.1" cy="48.2" r="2.5" fill="#f6ad55" /><circle cx="485.8" cy="46.9" r="2.5" fill="#f6ad55" /><circle cx="556.6" cy="47.5" r="2.5" fill="#f6ad55" /><circle cx="627.4" cy="43.4" r="2.5" fill="#f6ad55" /><circle cx="698.2" cy="52.4" r="2.5" fill="#f6ad55" /><circle cx="768.9" cy="52.1" r="2.5" fill="#f6ad55" /><circle cx="839.7" cy="60.0" r="2.5" fill="#f6ad55" /><circle cx="910.5" cy="44.5" r="2.5" fill="#f6ad55" />
  <text x="40" y="30" fill="#9aa6b2" font-size="12">Hourly rate: Molts (bars), Likes (line), Views (dots scaled)</text>
  <text x="40" y="310" fill="#9aa6b2" font-size="11">max rate ~702.91 / hour</text>
</svg>