<?xml version="1.0" encoding="UTF-8"?>
<svg xmlns="http://www.w3.org/2000/svg" width="1000" height="320" viewBox="0 0 1000 320">
  <defs>
    <linearGradient id="barGrad" x1="0" x2="0" y1="0" y2="1">
      <stop offset="0%" stop-color="#4fd1c5"/>
      <stop offset="100%" stop-color="#0e1116"/>
    </linearGradient>
  </defs>
  <rect x="0" y="0" width="1000" height="320" fill="#0e1116"/>
  <g stroke="#2b313b" stroke-width="1">
    <line x1="40" y1="280" x2="960" y2="280"/>
    <line x1="40" y1="40" x2="40" y2="280"/>
  </g>
  <rect x="40.0" y="228.7" width="34.5" height="51.3" rx="2" fill="url(#barGrad)" /><rect x="97.5" y="193.2" width="34.5" height="86.8" rx="2" fill="url(#barGrad)" /><rect x="155.0" y="208.3" width="34.5" height="71.7" rx="2" fill="url(#barGrad)" /><rect x="212.5" y="195.5" width="34.5" height="84.5" rx="2" fill="url(#barGrad)" /><rect x="270.0" y="198.5" width="34.5" height="81.5" rx="2" fill="url(#barGrad)" /><rect x="327.5" y="196.8" width="34.5" height="83.2" rx="2" fill="url(#barGrad)" /><rect x="385.0" y="166.8" width="34.5" height="113.2" rx="2" fill="url(#barGrad)" /><rect x="442.5" y="198.4" width="34.5" height="81.6" rx="2" fill="url(#barGrad)" /><rect x="500.0" y="188.8" width="34.5" height="91.2" rx="2" fill="url(#barGrad)" /><rect x="557.5" y="184.3" width="34.5" height="95.7" rx="2" fill="url(#barGrad)" /><rect x="615.0" y="190.7" width="34.5" height="89.3" rx="2" fill="url(#barGrad)" /><rect x="672.5" y="207.1" width="34.5" height="72.9" rx="2" fill="url(#barGrad)" /><rect x="730.0" y="161.5" width="34.5" height="118.5" rx="2" fill="url(#barGrad)" /><rect x="787.5" y="180.7" width="34.5" height="99.3" rx="2" fill="url(#barGrad)" /><rect x="845.0" y="164.5" width="34.5" height="115.5" rx="2" fill="url(#barGrad)" /><rect x="902.5" y="193.8" width="34.5" height="86.2" rx="2" fill="url(#barGrad)" />
  <polyline fill="none" stroke="#63b3ed" stroke-width="2" points="57.3,156.4 114.8,91.4 172.3,103.8 229.8,104.5 287.3,93.9 344.8,82.9 402.3,43.4 459.8,104.3 517.3,114.7 574.8,107.7 632.3,102.3 689.8,125.6 747.3,77.3 804.8,91.2 862.3,40.0 919.8,59.7"/>
  <circle cx="57.3" cy="40.0" r="2.5" fill="#f6ad55" /><circle cx="114.8" cy="86.6" r="2.5" fill="#f6ad55" /><circle cx="172.3" cy="78.3" r="2.5" fill="#f6ad55" /><circle cx="229.8" cy="81.9" r="2.5" fill="#f6ad55" /><circle cx="287.3" cy="94.8" r="2.5" fill="#f6ad55" /><circle cx="344.8" cy="68.0" r="2.5" fill="#f6ad55" /><circle cx="402.3" cy="99.2" r="2.5" fill="#f6ad55" /><circle cx="459.8" cy="97.0" r="2.5" fill="#f6ad55" /><circle cx="517.3" cy="92.0" r="2.5" fill="#f6ad55" /><circle cx="574.8" cy="87.4" r="2.5" fill="#f6ad55" /><circle cx="632.3" cy="71.3" r="2.5" fill="#f6ad55" /><circle cx="689.8" cy="84.0" r="2.5" fill="#f6ad55" /><circle cx="747.3" cy="82.4" r="2.5" fill="#f6ad55" /><circle cx="804.8" cy="85.0" r="2.5" fill="#f6ad55" /><circle cx="862.3" cy="104.1" r="2.5" fill="#f6ad55" /><circle cx="919.8" cy="89.1" r="2.5" fill="#f6ad55" />
  <text x="40" y="30" fill="#9aa6b2" font-size="12">Hourly rate: Molts (bars), Likes (line), Views (dots scaled)</text>
  <text x="40" y="310" fill="#9aa6b2" font-size="11">max rate ~814.29 / hour</text>
</svg>