<?xml version="1.0" encoding="UTF-8"?>
<svg xmlns="http://www.w3.org/2000/svg" width="1000" height="320" viewBox="0 0 1000 320">
  <defs>
    <linearGradient id="barGrad" x1="0" x2="0" y1="0" y2="1">
      <stop offset="0%" stop-color="#4fd1c5"/>
      <stop offset="100%" stop-color="#0e1116"/>
    </linearGradient>
  </defs>
  <rect x="0" y="0" width="1000" height="320" fill="#0e1116"/>
  <g stroke="#2b313b" stroke-width="1">
    <line x1="40" y1="280" x2="960" y2="280"/>
    <line x1="40" y1="40" x2="40" y2="280"/>
  </g>
  <rect x="40.0" y="264.5" width="25.1" height="15.5" rx="2" fill="url(#barGrad)" /><rect x="81.8" y="220.7" width="25.1" height="59.3" rx="2" fill="url(#barGrad)" /><rect x="123.6" y="231.9" width="25.1" height="48.1" rx="2" fill="url(#barGrad)" /><rect x="165.5" y="233.5" width="25.1" height="46.5" rx="2" fill="url(#barGrad)" /><rect x="207.3" y="207.5" width="25.1" height="72.5" rx="2" fill="url(#barGrad)" /><rect x="249.1" y="208.8" width="25.1" height="71.2" rx="2" fill="url(#barGrad)" /><rect x="290.9" y="213.4" width="25.1" height="66.6" rx="2" fill="url(#barGrad)" /><rect x="332.7" y="174.0" width="25.1" height="106.0" rx="2" fill="url(#barGrad)" /><rect x="374.5" y="230.4" width="25.1" height="49.6" rx="2" fill="url(#barGrad)" /><rect x="416.4" y="198.0" width="25.1" height="82.0" rx="2" fill="url(#barGrad)" /><rect x="458.2" y="201.8" width="25.1" height="78.2" rx="2" fill="url(#barGrad)" /><rect x="500.0" y="216.3" width="25.1" height="63.7" rx="2" fill="url(#barGrad)" /><rect x="541.8" y="184.6" width="25.1" height="95.4" rx="2" fill="url(#barGrad)" /><rect x="583.6" y="200.4" width="25.1" height="79.6" rx="2" fill="url(#barGrad)" /><rect x="625.5" y="202.7" width="25.1" height="77.3" rx="2" fill="url(#barGrad)" /><rect x="667.3" y="204.2" width="25.1" height="75.8" rx="2" fill="url(#barGrad)" /><rect x="709.1" y="210.9" width="25.1" height="69.1" rx="2" fill="url(#barGrad)" /><rect x="750.9" y="203.7" width="25.1" height="76.3" rx="2" fill="url(#barGrad)" /><rect x="792.7" y="194.6" width="25.1" height="85.4" rx="2" fill="url(#barGrad)" /><rect x="834.5" y="206.7" width="25.1" height="73.3" rx="2" fill="url(#barGrad)" /><rect x="876.4" y="221.6" width="25.1" height="58.4" rx="2" fill="url(#barGrad)" /><rect x="918.2" y="228.4" width="25.1" height="51.6" rx="2" fill="url(#barGrad)" />
  <polyline fill="none" stroke="#63b3ed" stroke-width="2" points="52.5,235.0 94.4,140.1 136.2,173.8 178.0,183.0 219.8,137.6 261.6,154.7 303.5,166.8 345.3,40.0 387.1,187.6 428.9,140.9 470.7,137.7 512.5,175.7 554.4,171.1 596.2,159.9 638.0,180.6 679.8,175.4 721.6,155.7 763.5,185.6 805.3,174.6 847.1,164.3 888.9,188.4 930.7,200.5"/>
  <circle cx="52.5" cy="40.0" r="2.5" fill="#f6ad55" /><circle cx="94.4" cy="146.0" r="2.5" fill="#f6ad55" /><circle cx="136.2" cy="152.3" r="2.5" fill="#f6ad55" /><circle cx="178.0" cy="149.4" r="2.5" fill="#f6ad55" /><circle cx="219.8" cy="145.5" r="2.5" fill="#f6ad55" /><circle cx="261.6" cy="139.4" r="2.5" fill="#f6ad55" /><circle cx="303.5" cy="142.2" r="2.5" fill="#f6ad55" /><circle cx="345.3" cy="140.4" r="2.5" fill="#f6ad55" /><circle cx="387.1" cy="139.0" r="2.5" fill="#f6ad55" /><circle cx="428.9" cy="158.4" r="2.5" fill="#f6ad55" /><circle cx="470.7" cy="153.8" r="2.5" fill="#f6ad55" /><circle cx="512.5" cy="147.6" r="2.5" fill="#f6ad55" /><circle cx="554.4" cy="164.1" r="2.5" fill="#f6ad55" /><circle cx="596.2" cy="166.0" r="2.5" fill="#f6ad55" /><circle cx="638.0" cy="144.8" r="2.5" fill="#f6ad55" /><circle cx="679.8" cy="171.0" r="2.5" fill="#f6ad55" /><circle cx="721.6" cy="170.4" r="2.5" fill="#f6ad55" /><circle cx="763.5" cy="171.2" r="2.5" fill="#f6ad55" /><circle cx="805.3" cy="181.2" r="2.5" fill="#f6ad55" /><circle cx="847.1" cy="178.6" r="2.5" fill="#f6ad55" /><circle cx="888.9" cy="176.5" r="2.5" fill="#f6ad55" /><circle cx="930.7" cy="177.1" r="2.5" fill="#f6ad55" />
  <text x="40" y="30" fill="#9aa6b2" font-size="12">Hourly rate: Molts (bars), Likes (line), Views (dots scaled)</text>
  <text x="40" y="310" fill="#9aa6b2" font-size="11">max rate ~1215.79 / hour</text>
</svg>